<?xml version="1.0" encoding="utf-8"?>
<!-- Generator: Adobe Illustrator 25.3.1, SVG Export Plug-In . SVG Version: 6.00 Build 0)  -->
<svg version="1.1" id="Layer_1" xmlns="http://www.w3.org/2000/svg" xmlns:xlink="http://www.w3.org/1999/xlink" x="0px" y="0px"
	 viewBox="0 0 200 200" style="enable-background:new 0 0 200 200;" xml:space="preserve">
<style type="text/css">
	.st0{fill:#C1C1C1;}
</style>
<g id="Group_23" transform="translate(0 1.152)">
	<path class="st0" d="M177.4,113.8c0.3,0,0.7-0.1,1-0.4c0.6-0.5,0.7-1.5,0.1-2.1c-2-2.3-4-4.5-6.1-6.6c-0.6-0.6-1.5-0.6-2.1,0
		c-0.6,0.6-0.6,1.5,0,2.1c2,2.1,4,4.2,6,6.4C176.6,113.6,177,113.8,177.4,113.8z M165,101.2c0.4,0,0.8-0.2,1.1-0.5
		c0.5-0.6,0.5-1.5-0.1-2.1c-2.2-2-4.5-4-6.8-5.8c-0.6-0.5-1.6-0.4-2.1,0.2c-0.5,0.6-0.4,1.6,0.2,2.1c2.3,1.8,4.5,3.7,6.7,5.6
		C164.3,101.1,164.7,101.2,165,101.2z M151.1,90.2c0.5,0,0.9-0.2,1.2-0.6c0.5-0.7,0.3-1.6-0.4-2.1c-2.5-1.7-5-3.3-7.6-4.8
		c-0.7-0.4-1.6-0.2-2,0.5c-0.4,0.7-0.2,1.6,0.5,2c2.5,1.4,5,3,7.4,4.7C150.6,90.1,150.8,90.2,151.1,90.2z M7.7,87.9
		c0.2,0,0.5-0.1,0.7-0.2c0,0,2.9-1.6,7.8-3.9c0.7-0.3,1.1-1.2,0.7-2c-0.3-0.7-1.2-1.1-2-0.7c-5.1,2.3-8,3.9-8.1,4
		c-0.7,0.4-1,1.3-0.6,2C6.7,87.7,7.2,87.9,7.7,87.9z M135.8,81.3c0.5,0,1.1-0.3,1.3-0.8c0.4-0.7,0.1-1.6-0.7-2
		c-2.7-1.3-5.4-2.5-8.2-3.6c-0.8-0.3-1.6,0.1-1.9,0.8c-0.3,0.8,0.1,1.6,0.8,1.9c2.7,1.1,5.4,2.3,8,3.5
		C135.4,81.3,135.6,81.3,135.8,81.3z M23.9,80.6c0.2,0,0.4,0,0.5-0.1c2.7-1,5.5-2,8.3-3c0.8-0.3,1.2-1.1,0.9-1.9
		c-0.3-0.8-1.1-1.2-1.9-0.9c-2.8,0.9-5.7,1.9-8.4,3c-0.8,0.3-1.1,1.1-0.8,1.9C22.7,80.2,23.3,80.6,23.9,80.6z M40.7,75
		c0.1,0,0.3,0,0.4-0.1c2.8-0.8,5.7-1.5,8.5-2.1c0.8-0.2,1.3-1,1.1-1.8c-0.2-0.8-1-1.3-1.8-1.1c-2.9,0.6-5.8,1.4-8.7,2.1
		c-0.8,0.2-1.2,1-1,1.8C39.5,74.6,40.1,75,40.7,75z M119.4,74.8c0.6,0,1.2-0.4,1.4-1c0.2-0.8-0.2-1.6-1-1.8
		c-2.8-0.9-5.7-1.7-8.7-2.3c-0.8-0.2-1.6,0.3-1.8,1.1c-0.2,0.8,0.3,1.6,1.1,1.8c2.8,0.7,5.7,1.4,8.4,2.3
		C119.1,74.8,119.2,74.8,119.4,74.8z M58,71.2c0.1,0,0.2,0,0.2,0c2.9-0.5,5.8-0.9,8.7-1.2c0.8-0.1,1.4-0.8,1.3-1.6
		c-0.1-0.8-0.8-1.4-1.6-1.3c-2.9,0.3-5.9,0.7-8.9,1.2c-0.8,0.1-1.4,0.9-1.2,1.7C56.7,70.7,57.3,71.2,58,71.2z M102.1,70.8
		c0.7,0,1.3-0.5,1.5-1.2c0.1-0.8-0.4-1.6-1.2-1.7c-2.9-0.5-5.9-0.8-8.9-1.1c-0.8-0.1-1.5,0.5-1.6,1.3c-0.1,0.8,0.5,1.5,1.3,1.6
		c2.9,0.2,5.8,0.6,8.7,1.1C102,70.8,102.1,70.8,102.1,70.8z M75.6,69.4C75.7,69.4,75.7,69.4,75.6,69.4c3-0.1,5.9-0.2,8.8-0.1
		c0.8,0.1,1.5-0.6,1.5-1.4c0-0.8-0.6-1.5-1.4-1.5c-3-0.1-6,0-9,0.1c-0.8,0-1.4,0.7-1.4,1.5C74.2,68.8,74.8,69.4,75.6,69.4z"/>
	<path id="Path_31794" class="st0" d="M185.2,90.1c0,0,3.5,31.3,8.5,41.3c0,0-26.5-10.3-39.5-9.4l23.8-9.9L185.2,90.1z"/>
</g>
</svg>
