<?xml version="1.0" encoding="utf-8"?>
<!-- Generator: Adobe Illustrator 25.3.1, SVG Export Plug-In . SVG Version: 6.00 Build 0)  -->
<svg version="1.1" id="Layer_1" xmlns="http://www.w3.org/2000/svg" xmlns:xlink="http://www.w3.org/1999/xlink" x="0px" y="0px"
	 viewBox="0 0 200 200" style="enable-background:new 0 0 200 200;" xml:space="preserve">
<style type="text/css">
	.st0{fill:#C1C1C1;}
</style>
<g id="Group_23" transform="translate(0 1.152)">
	<path class="st0" d="M22.6,113.8c-0.3,0-0.7-0.1-1-0.4c-0.6-0.5-0.7-1.5-0.1-2.1c2-2.3,4-4.5,6.1-6.6c0.6-0.6,1.5-0.6,2.1,0
		c0.6,0.6,0.6,1.5,0,2.1c-2,2.1-4,4.2-6,6.4C23.4,113.6,23,113.8,22.6,113.8z M35,101.2c-0.4,0-0.8-0.2-1.1-0.5
		c-0.5-0.6-0.5-1.5,0.1-2.1c2.2-2,4.5-4,6.8-5.8c0.6-0.5,1.6-0.4,2.1,0.2c0.5,0.6,0.4,1.6-0.2,2.1c-2.3,1.8-4.5,3.7-6.7,5.6
		C35.7,101.1,35.3,101.2,35,101.2z M48.9,90.2c-0.5,0-0.9-0.2-1.2-0.6c-0.5-0.7-0.3-1.6,0.4-2.1c2.5-1.7,5-3.3,7.6-4.8
		c0.7-0.4,1.6-0.2,2,0.5c0.4,0.7,0.2,1.6-0.5,2c-2.5,1.4-5,3-7.4,4.7C49.4,90.1,49.2,90.2,48.9,90.2z M192.3,87.9
		c-0.2,0-0.5-0.1-0.7-0.2c0,0-2.9-1.6-7.8-3.9c-0.7-0.3-1.1-1.2-0.7-2c0.3-0.7,1.2-1.1,2-0.7c5.1,2.3,8,3.9,8.1,4
		c0.7,0.4,1,1.3,0.6,2C193.3,87.7,192.8,87.9,192.3,87.9z M64.2,81.3c-0.5,0-1.1-0.3-1.3-0.8c-0.4-0.7-0.1-1.6,0.7-2
		c2.7-1.3,5.4-2.5,8.2-3.6c0.8-0.3,1.6,0.1,1.9,0.8c0.3,0.8-0.1,1.6-0.8,1.9c-2.7,1.1-5.4,2.3-8,3.5C64.6,81.3,64.4,81.3,64.2,81.3z
		 M176.1,80.6c-0.2,0-0.4,0-0.5-0.1c-2.7-1-5.5-2-8.3-3c-0.8-0.3-1.2-1.1-0.9-1.9c0.3-0.8,1.1-1.2,1.9-0.9c2.8,0.9,5.7,1.9,8.4,3
		c0.8,0.3,1.1,1.1,0.8,1.9C177.3,80.2,176.7,80.6,176.1,80.6z M159.3,75c-0.1,0-0.3,0-0.4-0.1c-2.8-0.8-5.7-1.5-8.5-2.1
		c-0.8-0.2-1.3-1-1.1-1.8c0.2-0.8,1-1.3,1.8-1.1c2.9,0.6,5.8,1.4,8.7,2.1c0.8,0.2,1.2,1,1,1.8C160.5,74.6,159.9,75,159.3,75z
		 M80.6,74.8c-0.6,0-1.2-0.4-1.4-1c-0.2-0.8,0.2-1.6,1-1.8c2.8-0.9,5.7-1.7,8.7-2.3c0.8-0.2,1.6,0.3,1.8,1.1
		c0.2,0.8-0.3,1.6-1.1,1.8c-2.8,0.7-5.7,1.4-8.4,2.3C80.9,74.8,80.8,74.8,80.6,74.8z M142,71.2c-0.1,0-0.2,0-0.2,0
		c-2.9-0.5-5.8-0.9-8.7-1.2c-0.8-0.1-1.4-0.8-1.3-1.6c0.1-0.8,0.8-1.4,1.6-1.3c2.9,0.3,5.9,0.7,8.9,1.2c0.8,0.1,1.4,0.9,1.2,1.7
		C143.3,70.7,142.7,71.2,142,71.2z M97.9,70.8c-0.7,0-1.3-0.5-1.5-1.2c-0.1-0.8,0.4-1.6,1.2-1.7c2.9-0.5,5.9-0.8,8.9-1.1
		c0.8-0.1,1.5,0.5,1.6,1.3c0.1,0.8-0.5,1.5-1.3,1.6c-2.9,0.2-5.8,0.6-8.7,1.1C98,70.8,97.9,70.8,97.9,70.8z M124.4,69.4
		C124.3,69.4,124.3,69.4,124.4,69.4c-3-0.1-5.9-0.2-8.8-0.1c-0.8,0.1-1.5-0.6-1.5-1.4c0-0.8,0.6-1.5,1.4-1.5c3-0.1,6,0,9,0.1
		c0.8,0,1.4,0.7,1.4,1.5C125.8,68.8,125.2,69.4,124.4,69.4z"/>
	<path id="Path_31794" class="st0" d="M14.8,90.1c0,0-3.5,31.3-8.5,41.3c0,0,26.5-10.3,39.5-9.4L22,112.1L14.8,90.1z"/>
</g>
</svg>
