<?xml version="1.0" encoding="utf-8"?>
<!-- Generator: Adobe Illustrator 25.4.1, SVG Export Plug-In . SVG Version: 6.00 Build 0)  -->
<svg version="1.1" id="Layer_1" xmlns="http://www.w3.org/2000/svg" xmlns:xlink="http://www.w3.org/1999/xlink" x="0px" y="0px"
	 viewBox="0 0 200 200" style="enable-background:new 0 0 200 200;" xml:space="preserve">
<style type="text/css">
	.st0{fill:#272761;}
	.st1{fill:#E16539;}
</style>
<g id="StoreKing_Logo_2_" transform="translate(-7.4 -12.2)">
	<g id="Group_86920" transform="translate(12.946 15.826)">
		<path id="Path_300967" class="st0" d="M158.7,25.1c0.4,1.7,0.7,3.4,0.7,5.1c0,11.6-9.4,21-21,21c-11.6,0-21-9.4-21-21l0,0
			c0-1.7,0.3-3.4,0.7-5.1h-17.7c0.4,1.7,0.7,3.4,0.7,5.1c0,11.6-9.4,21-21,21c-11.6,0-21-9.4-21-21c0,0,0,0,0,0
			c0-1.7,0.3-3.4,0.7-5.1H47.2l11.9,47.4h102.4l12.3-47.4H158.7z"/>
	</g>
	<g id="Group_86921" transform="translate(12.146 14.013)">
		<path id="Path_300968" class="st1" d="M67.2,26.9c0,6.8-5.5,12.3-12.3,12.3s-12.3-5.5-12.3-12.3c0-6.8,5.5-12.3,12.3-12.3l0,0
			c6.7,0,12.3,5.4,12.3,12.1C67.2,26.8,67.2,26.9,67.2,26.9"/>
	</g>
	<g id="Group_86922" transform="translate(28.783 14.013)">
		<path id="Path_300969" class="st1" d="M163.5,26.9c0,6.8-5.5,12.3-12.3,12.3s-12.3-5.5-12.3-12.3c0-6.8,5.5-12.3,12.3-12.3l0,0
			c6.7,0,12.3,5.4,12.3,12.1C163.5,26.8,163.5,26.9,163.5,26.9"/>
	</g>
	<g id="Group_86923" transform="translate(23.931 37.049)">
		<path id="Path_300970" class="st0" d="M122.4,171c-6.4,0-11.6-5.2-11.6-11.6c0-6.4,5.2-11.6,11.6-11.6c6.4,0,11.6,5.2,11.6,11.6
			C133.9,165.8,128.7,171,122.4,171"/>
	</g>
	<g id="Group_86924" transform="translate(15.399 37.049)">
		<path id="Path_300971" class="st0" d="M73,171c-6.4,0-11.6-5.2-11.6-11.6c0-6.4,5.2-11.6,11.6-11.6s11.6,5.2,11.6,11.6
			C84.5,165.8,79.4,171,73,171"/>
	</g>
	<g id="Group_86925" transform="translate(7.4 19.399)">
		<path id="Path_300972" class="st0" d="M170.4,78.7H54.6l-7.6-26c-1.6-4-5.4-6.8-9.8-6.9H21.7c-3.6,0-6.5,2.9-6.5,6.5
			c0,3.6,2.9,6.5,6.5,6.5h13l26.8,93.7c1.9,4.1,6,6.7,10.5,6.9h78.2c3.6,0,6.5-2.9,6.5-6.5c0-3.6-2.9-6.5-6.5-6.5c0,0,0,0,0,0H73.8
			l-2.2-9.8h87.5c3.5-0.1,6.2-3,6.2-6.5c0.2-3.4-2.4-6.3-5.9-6.5c-0.1,0-0.2,0-0.3,0H67.6l-2.9-9.8h99.1c3.6,0,6.5-2.9,6.5-6.5
			c0,0,0,0,0-0.1c0-3.4-2.8-6.2-6.2-6.2c-0.1,0-0.2,0-0.3,0H61.5l-2.9-9.8h112.2c3.6,0,6.5-2.9,6.5-6.5c0,0,0,0,0-0.1
			C176.8,81.4,173.9,78.7,170.4,78.7"/>
	</g>
	<g id="Group_86928" transform="translate(20.038 12.2)">
		<path id="Path_300996" class="st1" d="M116.5,18.6c0,7.9-6.3,14.3-14.1,14.5c-7.8-0.1-14.2-6.5-14.1-14.3c0-0.1,0-0.1,0-0.2
			c0-7.9,6.3-14.3,14.1-14.5c7.8,0.1,14.2,6.5,14.1,14.3C116.5,18.5,116.5,18.5,116.5,18.6"/>
	</g>
</g>
</svg>
