<?xml version="1.0" encoding="utf-8"?>
<!-- Generator: Adobe Illustrator 24.2.0, SVG Export Plug-In . SVG Version: 6.00 Build 0)  -->
<svg version="1.1" id="Layer_1" xmlns="http://www.w3.org/2000/svg" xmlns:xlink="http://www.w3.org/1999/xlink" x="0px" y="0px"
	 viewBox="0 0 200 200" style="enable-background:new 0 0 200 200;" xml:space="preserve">
<style type="text/css">
	.st0{fill:#DA4F29;}
	.st1{fill:#FFFFFF;}
</style>
<g id="Group_31113" transform="translate(-94.5 -12.5)">
	<circle id="Ellipse_1878" class="st0" cx="194.5" cy="112.5" r="95.4"/>
	<g id="Group_31112" transform="translate(99.118 16.265)">
		<g id="Group_2850" transform="translate(3.815 2.514)">
			<path id="Path_3946" class="st1" d="M127.1,39.6c2,7.5-2.6,15.3-10.1,17.2c-7.5,2-15.3-2.6-17.2-10.1c-0.3-1.2-0.5-2.4-0.5-3.7
				c0-1.2,0.1-2.3,0.4-3.4H87.6c1.9,7.6-2.7,15.2-10.3,17.1c-7.6,1.9-15.2-2.7-17.1-10.3c-0.6-2.2-0.6-4.6,0-6.8h-8.6l8.1,32.2h69.4
				l8.4-32.2H127.1z"/>
		</g>
		<g id="Group_2851" transform="translate(3.302 1.246)">
			<path id="Path_3947" class="st1" d="M65.3,40.9c0,4.6-3.8,8.3-8.3,8.2c-4.6,0-8.3-3.8-8.2-8.3c0-4.5,3.7-8.2,8.3-8.2
				C61.6,32.6,65.4,36.3,65.3,40.9L65.3,40.9"/>
		</g>
		<g id="Group_2852" transform="translate(14.893 1.246)">
			<path id="Path_3948" class="st1" d="M130,40.9c0,4.6-3.8,8.3-8.3,8.2c-4.6,0-8.3-3.8-8.2-8.3c0-4.5,3.7-8.2,8.3-8.2
				C126.3,32.6,130,36.3,130,40.9"/>
		</g>
		<g id="Group_2853" transform="translate(11.517 17.322)">
			<path id="Path_3949" class="st1" d="M102.4,137.9c-4.3,0-7.9-3.5-7.9-7.8c0-4.3,3.5-7.9,7.8-7.9c4.3,0,7.9,3.5,7.9,7.8
				c0,0,0,0,0,0.1C110.2,134.4,106.7,137.9,102.4,137.9"/>
		</g>
		<g id="Group_2854" transform="translate(5.554 17.322)">
			<path id="Path_3950" class="st1" d="M69.1,137.9c-4.3,0-7.9-3.5-7.9-7.8c0-4.3,3.5-7.9,7.8-7.9c4.3,0,7.9,3.5,7.9,7.8
				c0,0,0,0,0,0.1C76.9,134.4,73.4,137.9,69.1,137.9"/>
		</g>
		<g id="Group_2855" transform="translate(0 4.988)">
			<path id="Path_3951" class="st1" d="M135.3,75.8H57l-5.1-17.7c-1-2.7-3.6-4.6-6.5-4.6H34.8c-2.5,0.1-4.4,2.2-4.3,4.7
				c0.1,2.4,2,4.2,4.3,4.3l8.9-0.1c0,0,0.1,0,0.1,0.1l18.2,63.4c1.3,2.8,4,4.5,7,4.6h53c2.4,0,4.3-1.8,4.5-4.2
				c0.2-2.3-1.5-4.4-3.9-4.5c-0.2,0-0.4,0-0.6,0l-51.8,0c0,0-0.1,0-0.1-0.1l-1.9-6.5h59.2c2.4-0.2,4.2-2.3,4-4.7
				c-0.2-2.2-1.9-3.9-4-4H65.7l-1.9-6.6h67c2.4,0,4.4-2,4.4-4.4s-2-4.4-4.4-4.4H61.3l-1.9-6.6h75.8c2.4,0,4.4-2,4.4-4.4
				S137.7,75.8,135.3,75.8"/>
		</g>
		<g id="Group_2858" transform="translate(8.758)">
			<path id="Path_3975" class="st1" d="M98.5,35.3c0,5.3-4.4,9.6-9.7,9.6c-5.3,0-9.6-4.4-9.6-9.7c0-5.3,4.4-9.6,9.7-9.6
				C94.2,25.6,98.6,30,98.5,35.3"/>
		</g>
	</g>
</g>
</svg>
