<?xml version="1.0" encoding="utf-8"?>
<!-- Generator: Adobe Illustrator 26.5.0, SVG Export Plug-In . SVG Version: 6.00 Build 0)  -->
<svg version="1.1" id="Layer_1" xmlns="http://www.w3.org/2000/svg" xmlns:xlink="http://www.w3.org/1999/xlink" x="0px" y="0px"
	 viewBox="0 0 313 89" style="enable-background:new 0 0 313 89;" xml:space="preserve">
<style type="text/css">
	.st0{fill:#FFFFFF;}
</style>
<g id="Group_92799" transform="translate(7 7)">
	<g id="Group_779" transform="translate(74.177 31.083)">
		<path id="Path_15595" class="st0" d="M20.1,2.6l-2.3,4.7c-2.3-1.4-4.9-2.2-7.5-2.5c-1.5,0-2.6,0.6-2.6,1.7
			c0,4.1,12.4,1.7,12.4,10.3c0,4.7-4.2,7.2-9.4,7.2C6.9,24,3.1,22.7,0,20.2l2.3-4.6c2.4,2.1,5.4,3.3,8.5,3.5c1.9,0,3.1-0.7,3.1-2.1
			c0-4.2-12.4-1.7-12.4-10C1.4,2.8,5.2,0,10.8,0C14.1,0,17.3,0.9,20.1,2.6"/>
	</g>
	<g id="Group_780" transform="translate(97.421 31.316)">
		<path id="Path_15596" class="st0" d="M13,4.8v18.7H7V4.8H0V0h20.1v4.8H13z"/>
	</g>
	<g id="Group_781" transform="translate(119.253 31.148)">
		<path id="Path_15597" class="st0" d="M6.1,12C6,15.8,9,18.9,12.8,19c3.9,0.2,7.1-2.8,7.3-6.7c0.2-3.9-2.8-7.1-6.7-7.3
			c-3.9-0.2-7.1,2.8-7.3,6.7C6.1,11.8,6.1,11.9,6.1,12 M25.5,11.9C25.5,18.8,20,24,12.7,24C5.5,24,0,18.8,0,11.9C0,5.1,5.5,0,12.7,0
			C20,0,25.5,5.1,25.5,11.9"/>
	</g>
	<g id="Group_782" transform="translate(149.033 31.349)">
		<path id="Path_15598" class="st0" d="M10.5,12.2c2.6,0,4.1-1.3,4.1-3.8c0-2.5-1.5-3.7-4.1-3.7H6v7.5H10.5z M10.7,16.9H6v6.6H0V0
			h10.5c6.2,0,9.8,3,9.8,8.2c0,3.6-1.5,6.2-4.3,7.6l4.9,7.8h-6.8L10.7,16.9z"/>
	</g>
	<g id="Group_783" transform="translate(174.547 31.35)">
		<path id="Path_15599" class="st0" d="M6,4.7v4.7h11.2v4.7H6v4.7h12.8v4.7H0V0h18.4v4.7H6z"/>
	</g>
	<g id="Group_784" transform="translate(198.374 31.35)">
		<path id="Path_15600" class="st0" d="M9.1,14.3L6,17.8v5.8H0V0h6v10.2L15,0h6.9l-8.7,9.8l9.3,13.8h-7.2L9.1,14.3z"/>
	</g>
	<g id="Group_785" transform="translate(224.657 31.35)">
		<rect id="Rectangle_386" x="0" y="0" class="st0" width="6" height="23.5"/>
	</g>
	<g id="Group_786" transform="translate(236.516 31.35)">
		<path id="Path_15601" class="st0" d="M16.4,23.5L5.6,9v14.5H0V0h5.3l10.9,14.5V0h5.6v23.5H16.4z"/>
	</g>
	<g id="Group_787" transform="translate(262.56 31.149)">
		<path id="Path_15602" class="st0" d="M22.4,11.8V21c-2.9,1.9-6.3,3-9.8,3.1C5.4,24,0,18.8,0,12C0,5.1,5.6,0,13,0
			c3.5,0,6.9,1.2,9.6,3.5l-3.4,4.1C17.5,6,15.3,5.1,13,5c-3.9,0.2-6.9,3.4-6.7,7.3C6.4,16,9.4,18.9,13,19c1.5-0.1,2.9-0.5,4.2-1.1
			v-6.1H22.4z"/>
	</g>
	<g id="Group_794" transform="translate(286.258 17.581)">
		<path id="Path_15609" class="st0" d="M0,6.7c0-1.2,0.3-2.3,0.8-3.4c0.5-1,1.3-1.9,2.3-2.4c2-1.2,4.4-1.2,6.4,0
			c1,0.6,1.8,1.4,2.3,2.4c1.1,2.1,1.1,4.6,0,6.7c-0.5,1-1.3,1.9-2.3,2.4c-2,1.2-4.4,1.2-6.4,0c-1-0.6-1.8-1.4-2.3-2.4
			C0.3,9,0,7.9,0,6.7z M11.6,6.7c0-1-0.2-1.9-0.7-2.8c-0.4-0.8-1.1-1.5-1.9-2C8.2,1.4,7.3,1.1,6.4,1.1c-0.9,0-1.8,0.2-2.6,0.7
			C2.9,2.3,2.2,3,1.8,3.9c-0.9,1.8-0.9,3.9,0,5.6c0.4,0.8,1.1,1.5,1.9,2c1.6,1,3.7,1,5.3,0c0.8-0.5,1.5-1.2,1.9-2
			C11.4,8.6,11.6,7.6,11.6,6.7L11.6,6.7z M5.1,7.4v3H3.7V2.8h2.5c0.8,0,1.5,0.2,2.1,0.6c0.5,0.4,0.8,1.1,0.8,1.7
			c0,0.7-0.4,1.3-1.1,1.6c0.4,0.1,0.6,0.4,0.8,0.8C9,7.8,9.1,8.3,9.1,8.7c0,0.5,0,0.8,0,1c0,0.2,0.1,0.3,0.1,0.5v0.1H7.9
			C7.8,9.8,7.7,9.2,7.8,8.6c0-0.4-0.1-0.7-0.3-1c-0.3-0.2-0.6-0.3-1-0.3L5.1,7.4z M5.1,6.2h1.3c0.4,0,0.7-0.1,1-0.3
			c0.3-0.2,0.4-0.5,0.4-0.8c0-0.3-0.1-0.7-0.3-0.9C7.1,4,6.7,3.9,6.3,4H5.1V6.2z"/>
	</g>
	<g id="Group_795" transform="translate(75.566 60.588)">
		<path id="Path_15610" class="st0" d="M4.1,2.3C4.1,2.5,4.2,2.7,4.2,3c0,0.3,0,0.5,0,0.8c0,0.4,0,0.7,0,1.1c0,0.4,0,0.6,0,0.9
			c0,0.2,0,0.3,0.1,0.5c0,0.1,0,0.3,0.1,0.4c0,0.1,0,0.2,0,0.3s0,0.2,0,0.3c0,0.3,0,0.7,0,1c0,0.4,0,0.7,0,1.1c0,0.3,0,0.6,0,0.9
			c0,0.3-0.1,0.5-0.2,0.8c-0.1,0-0.2-0.1-0.3-0.2c-0.1-0.1-0.2-0.2-0.3-0.4c0,0,0,0.1-0.1,0.1c0,0,0,0,0,0c0,0,0,0,0,0
			c-0.1,0-0.1,0-0.2,0.1c-0.1,0-0.2,0.1-0.3,0.1c0,0-0.1,0.1-0.1,0.1c0,0-0.1,0.1-0.1,0.1H2.4c0-0.1,0-0.1-0.1-0.2
			c0-0.1-0.1-0.2-0.1-0.3l0.6-1.2L2.8,9.4C2.7,9.5,2.7,9.7,2.6,9.9c-0.1,0.1-0.2,0.2-0.4,0.2c-0.1,0-0.1,0-0.2,0
			C2,9.8,2,9.6,1.9,9.4c0-0.2,0-0.4,0-0.7c0-0.2,0-0.4,0-0.5C2,8.2,2,8.1,2,8c0-0.1,0-0.2,0-0.3c0-0.1,0-0.1,0-0.2
			C2,7.4,2,7.3,2,7.2c0-0.2,0.1-0.3,0.1-0.5s0-0.4,0-0.6s0-0.4,0-0.6V4.9c0-0.1,0-0.2,0.1-0.3c0-0.1,0.1-0.2,0.1-0.4
			c0-0.4,0-0.8-0.1-1.1S2.2,2.5,2.2,2.1c0,0-0.1,0-0.1,0C2.1,2,2,2,2,2c-0.2,0-0.3,0-0.5,0.1L1,2.2c-0.2,0-0.3,0.1-0.5,0.1
			C0.4,2.3,0.2,2.3,0,2.3v-1c0-0.1,0-0.1,0-0.2c0-0.1,0-0.1,0-0.2C0,1,0,0.9,0,0.9c0-0.1,0-0.2,0.1-0.3h0.1c0.1,0,0.2,0,0.2,0
			c0.1,0,0.2,0,0.2,0.1C0.8,0.6,1,0.5,1.1,0.5c0.2,0,0.4-0.1,0.6-0.1c0.3,0,0.6,0,0.8,0c0.2,0,0.5,0,0.7,0c0,0,0.2,0,0.6,0
			s0.7,0,1,0s0.7,0,1.1,0s0.5,0,0.6,0c0.1,0,0.2,0,0.2,0S6.7,0.7,6.6,0.8c-0.1,0-0.1,0-0.2,0.1L6.1,0.9c0,0,0.1,0,0.1,0l0.2,0
			c0.1,0,0.1,0,0.2-0.1c0,0.1,0,0.2,0.1,0.2c0,0,0.1,0.1,0.1,0.1c0,0,0,0.1,0,0.1l0.1,0.1v0.4l0,0c0,0-0.1,0-0.1,0
			c-0.1,0-0.1,0-0.2,0c0,0,0,0,0,0L6.6,2H6.3C6.2,1.9,6.1,1.9,6.1,1.9l-0.1,0c0,0,0,0-0.1-0.1c0,0-0.1,0-0.1-0.1L5.8,1.8
			c0,0,0.1,0,0.1,0.1c0,0,0,0,0,0.1s0,0,0,0.1c0,0.1,0,0.1,0,0.2c-0.1,0-0.2,0-0.3,0c-0.1,0-0.1,0.1-0.2,0.1c-0.1,0-0.1,0.1-0.2,0.1
			c-0.1,0-0.2,0-0.3,0c0-0.1,0-0.1-0.1-0.1c-0.1,0-0.1,0-0.2,0c-0.1,0-0.1,0-0.2,0c0,0,0-0.1-0.1-0.1C4.2,2.3,4.1,2.3,4.1,2.3z
			 M3,7.6c0,0-0.1,0-0.1,0c0,0.1,0,0.2-0.1,0.3c0,0.1,0,0.1-0.1,0.2c-0.1,0-0.1,0-0.1,0.1c0,0-0.1,0-0.1,0.1V7.8H2.3
			c0,0.2,0,0.4,0,0.5c0,0.2,0.1,0.4,0.2,0.5c0.1-0.1,0.1-0.3,0.2-0.4c0.1-0.1,0.1-0.2,0.2-0.3S3,7.9,3,7.9S3,7.7,3,7.6L3,7.6z
			 M2.8,6.6C2.7,6.7,2.7,6.8,2.6,6.8c-0.1,0-0.1,0-0.2,0v0.6c0-0.1,0.1-0.2,0.1-0.2c0-0.1,0.1-0.2,0.1-0.2h0.1L2.8,6.6z M3,4.5
			c0,0.1-0.1,0.2-0.1,0.3S2.8,4.9,2.7,4.9L2.6,5.4c0,0,0,0.1,0,0.1c0,0-0.1,0-0.1,0v0.2h0.1l0.2-0.4C2.9,5.1,2.9,5,3,4.9
			C3,4.7,3,4.6,3,4.5L3,4.5z M2.7,2.3v0.2l0.2-0.2H2.7z M3,6.2L3,6.2L2.9,6.4c0,0,0.1,0,0.1,0C3,6.3,3,6.3,3,6.2L3,6.2z M3.7,7.3
			v0.3V7.3C3.7,7.4,3.7,7.3,3.7,7.3C3.7,7.3,3.7,7.3,3.7,7.3L3.7,7.3z"/>
		<path id="Path_15611" class="st0" d="M8.8,0.2C8.9,0.3,9,0.4,9.1,0.5c0.1,0.1,0.2,0.2,0.3,0.3c0,0.1,0,0.3-0.1,0.4
			c0,0.1-0.1,0.3-0.1,0.4c0.1,0.2,0.2,0.4,0.2,0.6c0.1,0.3,0.1,0.6,0.1,0.9c0,0.2,0,0.4,0,0.6c0-0.1,0.1-0.1,0.2-0.2
			c0.1-0.1,0.1-0.1,0.2-0.2v0.1c0,0,0.1,0,0.1-0.1l0.1-0.1v0.1c0,0,0.1-0.1,0.1-0.1c0-0.1,0.1-0.1,0.1-0.2s0.1-0.1,0.2-0.1
			c0,0,0.1-0.1,0.2-0.1c0,0,0.1,0,0.1,0v0.3C11,3.2,11.1,3.1,11.2,3c0.1-0.1,0.3-0.3,0.4-0.4V3c0.1,0,0.2,0,0.2,0.1
			c0,0.1,0.1,0.1,0.1,0.2C12,3.2,12,3.1,12,3.1V3l0.2-0.1c0,0,0.1,0,0.1,0c0.1,0,0.1,0,0.2,0L12.7,3v0.1c0,0,0.1,0,0.1,0
			c0,0,0.1,0.1,0.1,0.1v0.1H13v0.1c0.1,0.2,0.2,0.3,0.4,0.4l0.1,0c0.1,0,0.1,0,0.2,0.1c0,0.1,0.1,0.1,0.1,0.2c0,0.2-0.1,0.3-0.2,0.3
			v0.2h0.2c0,0,0,0,0,0.1c0,0.1,0,0.1,0.1,0.1H14c0,0.1-0.1,0.2-0.1,0.2c0,0.1-0.1,0.1-0.1,0.2c0,0.1,0,0.2,0,0.4s0,0.3-0.1,0.5
			s0,0.4-0.1,0.6s0,0.4,0,0.5c0,0.1,0,0.2,0,0.3c0,0.1,0,0.1,0.1,0.2c0,0.1,0,0.2,0,0.4c0,0.1,0,0.3,0,0.4c0,0.3,0,0.7,0.1,1
			c0,0.3,0.1,0.7,0.1,1c0,0.2,0,0.5-0.1,0.7c-0.1,0-0.1,0-0.1,0.1c0,0,0,0,0,0c0,0,0,0,0,0l-1.7-0.2c0-0.4,0-0.8,0-1.2
			c0-0.4,0-0.9,0-1.3c0-0.3,0-0.7,0-1c0-0.3-0.1-0.7-0.1-1v-1c-0.1,0-0.2-0.1-0.2-0.2c0-0.1,0-0.2,0.1-0.3c0.1-0.1,0.1-0.2,0.1-0.2
			c0,0-0.1-0.1-0.1-0.1c-0.1,0-0.1,0-0.2,0h-0.3c0-0.2-0.1-0.3-0.2-0.4c-0.1-0.1-0.2-0.1-0.4-0.1c-0.2,0-0.3,0.1-0.4,0.2
			C10,4.5,9.9,4.6,9.9,4.7C9.8,5,9.7,5.3,9.7,5.6L9.6,5.7c0,0.1,0,0.3,0,0.4c0,0.1,0,0.3,0.1,0.4c0,0.3,0,0.5,0,0.8c0,0,0,0.1,0,0.2
			s0,0.1,0,0.2l0,1.2v0.3c0,0.3,0,0.7,0,1c0,0.3-0.1,0.6-0.2,0.9c-0.1,0-0.2,0-0.2-0.1c-0.1,0-0.1-0.1-0.1-0.1
			c0-0.1-0.1-0.1-0.1-0.2c0-0.1-0.1-0.1-0.1-0.2c0,0,0,0.1,0,0.1c0,0,0,0.1-0.1,0.1c-0.1,0-0.2,0.1-0.2,0.1c-0.1,0-0.1,0-0.2,0
			c0,0-0.1,0.1-0.1,0.1c0,0.1-0.1,0.1-0.1,0.1H8c-0.1-0.1-0.1-0.1-0.1-0.2c0-0.1-0.1-0.2-0.1-0.3c0.1-0.2,0.2-0.4,0.3-0.6
			c0.1-0.2,0.2-0.4,0.3-0.6L8.3,9.4C8.2,9.6,8.1,9.8,8,9.9c-0.1,0.1-0.2,0.2-0.4,0.2c0-0.3-0.1-0.6-0.1-1c0-0.3-0.1-0.6-0.1-0.9
			c0.1,0,0.1-0.1,0.1-0.2c0-0.1,0-0.2,0-0.3c0-0.1,0-0.2,0-0.3c0-0.1,0.1-0.2,0.1-0.3c0-0.1,0.1-0.3,0.1-0.4c0-0.2,0-0.3,0-0.5
			s0-0.3,0-0.5c0-0.2,0-0.4,0-0.6s0-0.3,0-0.4c0-0.1,0.1-0.2,0.1-0.4c0-0.1,0.1-0.2,0.1-0.3c0-0.6,0-1.3-0.1-1.9
			c0-0.6-0.1-1.2-0.1-1.9c0.2,0,0.4,0,0.7-0.1C8.4,0.3,8.6,0.2,8.8,0.2z M8.5,7.5C8.5,7.5,8.5,7.5,8.5,7.5c-0.1,0-0.2,0.1-0.2,0.1
			c0,0.1,0,0.2,0,0.2c0,0.1,0,0.2,0,0.2H8V7.7H7.8c0,0.2,0.1,0.4,0.1,0.6c0,0.2,0,0.4,0.1,0.5C8.1,8.5,8.2,8.2,8.3,8
			C8.4,7.8,8.5,7.7,8.5,7.5z M8.3,6.5C8.2,6.5,8.1,6.6,8.1,6.6C8,6.7,8,6.7,8,6.8L7.9,7.3C7.9,7.2,8,7.1,8,7.1C8,7,8.1,6.9,8.1,6.8
			h0.2L8.3,6.5z M8.5,4.3C8.4,4.3,8.3,4.4,8.3,4.5c0,0.1-0.1,0.1-0.1,0.2v0.6c0,0-0.1,0.1-0.1,0.1c0,0-0.1,0-0.1,0v0.2h0.1
			C8.2,5.3,8.2,5.1,8.3,5c0-0.1,0.1-0.2,0.1-0.3c0-0.1,0-0.1,0-0.2C8.4,4.4,8.5,4.4,8.5,4.3L8.5,4.3z M8.6,0.9c-0.1,0-0.1,0-0.2,0.1
			C8.4,1,8.3,1,8.2,1v1.1C8.3,2,8.3,1.8,8.4,1.6C8.5,1.4,8.6,1.2,8.7,1C8.7,1,8.7,1,8.6,0.9C8.7,0.9,8.7,0.9,8.6,0.9L8.6,0.9z
			 M8.5,6L8.5,6L8.4,6.3c0,0,0.1,0,0.1,0C8.5,6.2,8.5,6.1,8.5,6z M11.8,3.8c0,0,0.1-0.1,0.1-0.1c0,0,0.1,0,0.1,0c0-0.1,0-0.1,0-0.2
			c0-0.1,0-0.1,0.1-0.2c0,0-0.1,0-0.1,0.1C11.9,3.6,11.8,3.7,11.8,3.8z M12.6,10.7v-0.2c0-0.1,0-0.1,0-0.2c0-0.1,0-0.2,0.1-0.3
			c-0.1,0-0.2,0.1-0.3,0.2c-0.1,0.1-0.2,0.2-0.3,0.3c0,0,0.1,0,0.1,0.1c0,0,0.1,0.1,0.1,0.1L12.6,10.7z M12.7,9.4L12.7,9.4
			c0.1-0.1,0.2-0.2,0.2-0.3C13,9.1,13.1,9,13.1,8.9h0.1V7.9h0.2c0,0-0.1-0.1-0.1-0.1c0,0,0-0.1,0-0.1c-0.1,0.2-0.2,0.4-0.3,0.6
			c0,0.2,0,0.4,0,0.6c-0.1,0.1-0.2,0.2-0.3,0.3c-0.1,0.1-0.1,0.2-0.1,0.4L12.7,9.4z M12.7,4.2C12.8,4.2,12.8,4.2,12.7,4.2
			c0.1-0.1,0.2-0.1,0.2-0.1V3.9c0,0-0.1,0.1-0.1,0.1C12.8,4.1,12.8,4.2,12.7,4.2L12.7,4.2z M13.1,10.1C13.1,10,13.2,10,13.1,10.1
			c0.1-0.1,0.1-0.1,0.1-0.1c0,0,0,0-0.1-0.1L13.1,10.1z M13.2,7.2c0-0.1,0-0.1,0-0.2h-0.1v0.4c0,0,0-0.1,0-0.1
			C13.2,7.3,13.2,7.3,13.2,7.2L13.2,7.2z"/>
		<path id="Path_15612" class="st0" d="M17.3,11.4c-0.1,0-0.1-0.1-0.2-0.1c0-0.1-0.1-0.2-0.1-0.3c-0.1,0-0.2-0.1-0.3-0.1
			c-0.1,0-0.1,0-0.2-0.1c-0.1,0-0.1-0.1-0.1-0.1c-0.1-0.1-0.1-0.1-0.1-0.2h-0.5c0,0-0.1-0.1-0.1-0.1c0,0,0,0,0-0.1l-0.3-0.1
			c0,0-0.1,0-0.1-0.1c0,0-0.1-0.1-0.1-0.1c0-0.1-0.1-0.2-0.1-0.2c0-0.1,0-0.1,0-0.2V9.5c-0.1,0-0.2-0.1-0.2-0.1c0,0-0.1-0.1-0.2-0.1
			c0-0.5-0.1-1-0.2-1.4c-0.1-0.4-0.1-0.9-0.2-1.4c0-0.1,0.1-0.3,0.1-0.3s0-0.2,0.1-0.2s0-0.1,0.1-0.2s0-0.1,0.1-0.2l-0.1-0.1V5.2
			h0.1c0-0.3,0.1-0.7,0.2-1C15,4,15.2,3.7,15.4,3.4c0.1,0,0.3-0.1,0.4-0.2c0.1-0.1,0.3-0.1,0.4-0.2s0.3-0.1,0.4-0.2
			c0.1,0,0.3-0.1,0.4-0.1c0.1,0,0.2,0,0.3,0c0,0,0,0,0.1,0c0.1,0,0.1,0,0.2,0.1c0.1,0.1,0.1,0.2,0.2,0.3c0.1,0.1,0.1,0.2,0.2,0.3
			c0,0.1,0.1,0.1,0.2,0.2c0.1,0,0.1,0,0.2-0.1l0.3-0.2l0.3-0.2C19,3.1,19,3.1,19.1,3.1c0,0,0,0,0,0c0,0,0,0,0,0V4c0,0,0,0,0,0
			c0.1,0,0.1,0,0.1-0.1c0-0.1,0.1-0.2,0.1-0.2c0-0.1,0.1-0.2,0.1-0.2s0.1-0.1,0.1-0.1c0,0,0,0,0.1,0c0,0,0-0.1,0.1-0.1
			s0.1,0,0.1,0.1s0.1,0.2,0.2,0.3s0.1,0.2,0.2,0.3c0,0.1,0.1,0.1,0.2,0.2c0,0,0,0,0,0c0,0,0,0,0,0c0,0,0,0,0,0c0,0,0,0,0,0
			c0,0,0,0,0-0.1c0,0,0-0.1,0-0.1c0,0,0-0.1,0-0.1l0.1,0.1c0.1,0.3,0.1,0.6,0.2,0.9c0,0.3,0.1,0.5,0.1,0.8c0,0.2,0,0.3,0,0.5
			s0,0.3,0,0.5c-0.1,0.1-0.1,0.1-0.1,0.2c0,0.1,0,0.1-0.1,0.2c0,0-0.1,0-0.1,0c-0.1,0.1-0.1,0.1-0.2,0.2c-0.1,0-0.3,0-0.4,0.1
			c-0.1,0-0.3,0.1-0.4,0.1h-1.1c-0.1,0-0.3-0.1-0.4-0.1c-0.1,0-0.2,0-0.3,0c-0.1,0-0.3,0-0.4,0.1c-0.2,0-0.4,0.1-0.5,0.2
			c0,0.3,0,0.6,0.1,0.9c0.1,0.3,0.1,0.6,0.2,0.9l0.3,0.5h0.6c0.2-0.2,0.4-0.5,0.6-0.7c0.2-0.3,0.4-0.6,0.5-0.9h1.4l-0.1,1.6
			c-0.1,0.2-0.3,0.3-0.4,0.4c-0.2,0.1-0.3,0.2-0.5,0.3c0,0,0,0.1-0.1,0.2c-0.1,0.1-0.2,0.1-0.2,0.2c-0.1,0.1-0.2,0.1-0.3,0.1
			c-0.1,0-0.1,0.1-0.2,0.1c-0.2,0-0.5,0-0.7,0.2C17.7,11.3,17.5,11.4,17.3,11.4z M15.6,7.2c-0.1,0.1-0.1,0.2-0.2,0.3
			s-0.1,0.1-0.1,0.2s-0.1,0.1-0.1,0.2S15.2,8,15.1,8.1h0.1V8h0.1c0-0.1,0.1-0.2,0.1-0.3c0-0.1,0-0.2,0.1-0.3c0,0,0,0,0,0
			c0,0,0.1,0,0.1-0.1L15.6,7.2z M15.5,5c-0.1,0.1-0.1,0.2-0.2,0.3c0,0.1,0,0.2,0,0.2v0.2c0.1-0.1,0.2-0.2,0.2-0.4
			C15.5,5.2,15.5,5.1,15.5,5L15.5,5z M16,3.9c-0.1,0.2-0.3,0.4-0.3,0.5c-0.1,0.1-0.1,0.3-0.1,0.5c0.1-0.1,0.1-0.2,0.2-0.4
			c0.1-0.1,0.1-0.3,0.2-0.4H16V3.9z M16.2,7.1v0.4h0.1c0-0.1,0-0.1,0-0.2C16.2,7.2,16.2,7.1,16.2,7.1L16.2,7.1z M16.4,4.8
			C16.4,4.8,16.4,4.8,16.4,4.8C16.5,4.9,16.5,4.9,16.4,4.8L16.4,4.8C16.5,4.8,16.4,4.8,16.4,4.8L16.4,4.8z M16.8,6
			c0.2,0,0.4,0,0.6,0c0.2,0,0.4,0,0.6-0.1c0.1,0,0.2,0,0.3-0.1c0.1,0,0.2-0.1,0.3-0.1c0-0.2-0.1-0.4-0.2-0.6
			c-0.1-0.2-0.1-0.4-0.2-0.6c-0.1-0.2-0.2-0.3-0.4-0.5c-0.2-0.1-0.3-0.2-0.5-0.3c0,0.1-0.1,0.2-0.1,0.2C17,4.1,17,4.2,16.9,4.3h-0.1
			L16.6,5c0,0.1,0,0.3,0,0.4c0,0.2,0,0.3,0.1,0.5L16.8,6z M19.3,5.5L19.3,5.5c-0.1,0-0.1,0-0.2,0.1c-0.1,0.1-0.2,0.1-0.3,0.2L18.6,6
			c-0.1,0-0.1,0.1-0.2,0.1L19,6L19.3,5.5z M19.1,9.8v0.4c0.1-0.1,0.2-0.3,0.2-0.4c0.1-0.1,0.1-0.3,0.2-0.4l-0.1-0.1
			C19.5,9.5,19.3,9.7,19.1,9.8L19.1,9.8z M19.5,4.8c0.1-0.1,0.3-0.2,0.4-0.3C20,4.3,20,4.1,20,3.9V3.8h-0.3c0,0-0.1,0.1-0.1,0.1
			c0,0.1,0,0.1-0.1,0.2c0,0,0,0.1-0.1,0.1c0,0-0.1,0.1-0.1,0.1v0.1L19.2,5c0,0,0.1-0.1,0.2-0.1C19.4,4.9,19.4,4.9,19.5,4.8L19.5,4.8
			z"/>
		<path id="Path_15613" class="st0" d="M26.2,2.9c0.1,0,0.1,0.1,0.2,0.1c0.1,0,0.2,0,0.3,0.1s0.2,0,0.3,0.1c0.1,0,0.2,0.1,0.2,0.1
			c0,0.1,0,0.2-0.1,0.3c0,0.1-0.1,0.2-0.1,0.4c0,0.1,0,0.1,0,0.2c0.2,0.2,0.3,0.4,0.3,0.6c0.1,0.3,0.1,0.5,0.2,0.8
			c0,0.3,0.1,0.6,0.1,0.8c0,0.2,0.1,0.4,0.1,0.6C28,7,28,7.1,28.1,7.2s0.1,0.2,0.1,0.3v0.1c0,0.1,0,0.1,0,0.2c0,0.1,0,0.2,0.1,0.2
			c0-0.2,0.1-0.4,0.1-0.5l0.1-0.4c0-0.1,0-0.2,0-0.3c0-0.1,0-0.2,0.1-0.3c0.1-0.3,0.1-0.6,0.2-0.8c0-0.3,0.1-0.6,0.2-0.9
			c0.1-0.3,0.1-0.6,0.2-0.9c0.1-0.3,0.2-0.5,0.4-0.8c0.1,0,0.2,0,0.3,0.1c0.1,0.1,0.1,0.2,0.2,0.3c0,0,0,0,0,0c0,0,0-0.1,0.1-0.1
			c0,0,0.1,0,0.1,0c0.1,0,0.1,0,0.2,0c0.1,0,0.1,0,0.2,0c0,0,0.1-0.1,0.1-0.1c0-0.1,0.1-0.1,0.1-0.1h0.3v0.4
			c-0.1,0.1-0.3,0.3-0.4,0.4c-0.1,0.1-0.2,0.3-0.3,0.4v0.1c0.1-0.2,0.2-0.3,0.3-0.4c0.1-0.1,0.3-0.1,0.4-0.1c0,0.2,0,0.5,0,0.7
			c0,0.2-0.1,0.5-0.2,0.7C31,5.3,31,5.4,31,5.5c0,0.1,0,0.2,0,0.3v0.1c-0.1,0.1-0.2,0.2-0.2,0.4c-0.1,0.2-0.1,0.4-0.2,0.6
			c-0.1,0.2-0.1,0.4-0.2,0.6s-0.1,0.3-0.1,0.4c0,0.1-0.1,0.2-0.1,0.2C30.1,8.1,30,8.2,30,8.3c-0.1,0.5-0.2,0.9-0.2,1.4
			c-0.1,0.4-0.1,0.9-0.2,1.3c-0.2,0-0.4,0.1-0.6,0.1c-0.2,0-0.4,0.1-0.6,0.1c0-0.1-0.1-0.2-0.2-0.2c-0.1-0.1-0.1-0.1-0.2-0.2h-0.3
			c0,0,0,0.1,0,0.1c0,0.1,0,0.1-0.1,0.1h-0.2c-0.1-0.1-0.1-0.1-0.1-0.2c0-0.1-0.1-0.1-0.1-0.2c0-0.1,0.1-0.3,0.1-0.4
			s0.1-0.3,0.1-0.4l-0.1-0.1c0,0.2-0.1,0.3-0.2,0.4c-0.1,0.1-0.3,0.2-0.4,0.1c-0.1-0.2-0.2-0.5-0.3-0.8S26.4,9,26.3,8.8
			c0,0,0,0,0-0.1c0-0.1,0-0.2-0.1-0.3c-0.1-0.1-0.1-0.2-0.1-0.2c0-0.1,0.1-0.2,0.1-0.3c0-0.2,0-0.3-0.1-0.5c0-0.2-0.1-0.3-0.1-0.5
			s-0.1-0.3-0.1-0.4s-0.1-0.2-0.1-0.3c0-0.1,0-0.2,0-0.3c0-0.1,0-0.1,0-0.2c0-0.2-0.1-0.5-0.2-0.7s-0.1-0.4-0.2-0.6S25.5,4.1,25.4,4
			c-0.1-0.2-0.1-0.4-0.2-0.6c0,0,0.1,0,0.1-0.1c0,0,0.1,0,0.1-0.1l0.2-0.2C25.8,3,25.9,3,26,3C26,2.9,26.1,2.9,26.2,2.9z M26.7,5.5
			c-0.1,0.1-0.1,0.1-0.1,0.2c0,0.1-0.1,0.1-0.1,0.1l0.1,0.7c0-0.1,0.1-0.2,0.1-0.3c0-0.1,0-0.2,0.1-0.3L26.7,5.5z M26.9,7.5
			c-0.1,0.1-0.1,0.1-0.2,0.2c0,0-0.1,0.1-0.2,0.1l0.2,0.4V7.7h0.2V7.5z M26.9,4.2c0,0.1-0.1,0.2-0.1,0.2c0,0.1-0.1,0.1-0.2,0.2
			L26.7,5c0,0,0,0.1,0,0.1c0,0,0,0-0.1,0v0.1h0.2c0-0.2,0.1-0.4,0.1-0.4c0-0.1,0-0.2,0-0.3L26.9,4.2z M27.2,8.3L27.2,8.3
			C27.2,8.3,27.2,8.3,27.2,8.3c-0.1,0.1-0.1,0.2-0.1,0.3c0,0,0,0.1-0.1,0.2h-0.2c0,0-0.1-0.1-0.1-0.1c0,0,0-0.1,0-0.1h-0.1
			c0,0.2,0,0.3,0.1,0.5C26.8,9,26.9,9.1,27,9.3c0-0.2,0.1-0.4,0.2-0.6c0-0.1,0-0.1,0.1-0.2C27.2,8.4,27.2,8.3,27.2,8.3L27.2,8.3z
			 M26.9,7.2h-0.1l0.1,0.2V7.2z M27.7,7.9c0,0.1,0,0.2,0,0.2c0,0,0,0.1,0,0.1v0c0,0,0-0.1,0-0.1L27.7,7.9z M28.9,10.3v0.3
			c0,0,0.1,0,0.1,0l0.1-0.1l0.3-0.8c-0.1,0.1-0.2,0.2-0.3,0.3C29,10.1,28.9,10.2,28.9,10.3L28.9,10.3z M29.2,6C29.3,6,29.3,6,29.2,6
			c0.1-0.1,0.1-0.2,0.1-0.2C29.3,5.9,29.3,5.9,29.2,6C29.2,6,29.2,6,29.2,6L29.2,6z M29.3,8.2c0.1,0,0.2-0.1,0.2-0.2
			c0.1-0.1,0.1-0.1,0.2-0.2l0.1-0.4H30l0.1-0.2h-0.2c-0.1,0.2-0.2,0.4-0.3,0.4c-0.1,0.1-0.1,0.2-0.2,0.3L29.3,8.2z M29.7,6.9h0.1
			V6.7L29.7,6.9z M29.8,5.8c0,0,0.1-0.1,0.1-0.1c0,0,0.1,0,0.1,0c0-0.1,0-0.2,0.1-0.2c0-0.1,0.1-0.1,0.1-0.2c0,0,0.1,0,0.1,0
			c0,0,0.1,0,0.1,0c0,0,0.1,0,0.1,0c0,0-0.1,0.1-0.1,0.1c0,0,0,0.1,0,0.1h0.1c0-0.1,0.1-0.2,0.1-0.2c0-0.1,0-0.1,0-0.2
			c0-0.1,0-0.2-0.1-0.3c-0.1,0.2-0.3,0.4-0.4,0.6C30,5.5,29.9,5.7,29.8,5.8L29.8,5.8z M29.9,6.6c0.1-0.1,0.2-0.2,0.3-0.3
			c0.1,0,0.1,0,0.2,0l0.1-0.4c0,0-0.1,0.1-0.1,0.2c-0.1,0.1-0.1,0.1-0.1,0.2l-0.1-0.1L29.9,6.6z"/>
		<path id="Path_15614" class="st0" d="M34.5,11.1c-0.1-0.1-0.2-0.2-0.4-0.2c-0.1,0-0.2,0-0.3,0c-0.1,0-0.2-0.1-0.2-0.1
			c-0.1-0.1-0.2-0.3-0.2-0.4h-0.1v0.2c-0.2,0-0.5-0.1-0.6-0.2c-0.2-0.2-0.3-0.3-0.3-0.6c-0.1,0-0.1-0.1-0.2-0.2
			c-0.1-0.1-0.1-0.3-0.1-0.4c0-0.2,0-0.4-0.1-0.6c0-0.2,0-0.4,0-0.6c0-0.3,0-0.5,0-0.8c0-0.2,0-0.3,0-0.5c0,0,0,0,0-0.1l0-0.1l0-0.1
			c0,0,0-0.1,0-0.1V5.9c0,0-0.1-0.1-0.1-0.1c0,0-0.1-0.1-0.1-0.1c0-0.1,0-0.2,0.1-0.2c0-0.1,0.1-0.1,0.1-0.2c0-0.2,0.1-0.4,0.1-0.6
			c0.1-0.2,0.2-0.5,0.4-0.7c0.1-0.2,0.3-0.4,0.5-0.6c0.1-0.2,0.3-0.3,0.5-0.4c0.1,0,0.2,0,0.2,0c0,0,0.1,0,0.2,0c0-0.1,0-0.2,0-0.2
			c0,0,0-0.1,0.1-0.1c0,0,0.1,0,0.1,0c0.1,0,0.1,0,0.2,0v0.2h0.2c0-0.1,0.1-0.2,0.2-0.3c0.1,0,0.1-0.1,0.2-0.1v0.3H35
			c0.1,0,0.2-0.1,0.2-0.2c0,0,0,0,0,0h0.2c0,0.1,0.1,0.2,0.1,0.2c0,0,0.1,0.1,0.1,0.1c0.1-0.1,0.2-0.1,0.3-0.1c0.1,0,0.2,0,0.3,0.1
			c0.1,0.1,0.2,0.1,0.3,0.2c0.1,0.1,0.2,0.2,0.2,0.3c0.1,0.1,0.1,0.2,0.2,0.2c0.2,0.1,0.3,0.2,0.4,0.3c0.1,0.1,0.2,0.3,0.2,0.4
			c0.1,0,0.1,0,0.2,0.1c0,0.1,0,0.2,0,0.3c0,0.1,0,0.2,0,0.2s0,0.2,0,0.2c0,0.1,0,0.3,0.1,0.4c0,0.1,0.1,0.2,0.2,0.2
			c0,0.1,0,0.2,0,0.4c0,0.1,0,0.2,0.1,0.3v1.1L38,7.5c0,0.2,0,0.4,0,0.6c0,0.1,0,0.2,0,0.3c0,0,0,0.1,0,0.1c0,0,0,0-0.1,0.1h0.1v0.9
			h-0.1c-0.1,0.1-0.1,0.2-0.2,0.3l-0.1,0.2c0,0.1-0.1,0.1-0.1,0.2s-0.1,0.2-0.2,0.3c-0.1,0-0.2,0.1-0.3,0.1l-0.4,0.1
			c-0.1,0-0.2,0.1-0.4,0.1c-0.1,0-0.2,0.1-0.3,0.1c-0.1,0-0.1,0-0.2,0c-0.1,0.1-0.1,0.1-0.2,0.1c-0.1,0-0.1,0.1-0.1,0.1
			c-0.1,0-0.2,0-0.2-0.1c-0.1,0-0.1-0.1-0.2-0.1c0,0-0.1,0.1-0.2,0.1C34.7,11,34.6,11.1,34.5,11.1z M32.6,9.6c0,0,0.1-0.1,0.1-0.1
			c0,0,0.1-0.1,0.1-0.1c0-0.1,0-0.3,0-0.4C33,9,33,8.9,33,8.8c-0.1,0-0.1-0.1-0.2-0.1c0,0-0.1,0-0.1,0l-0.1,0.1L32.6,9.6z M33.1,5.7
			c0-0.1,0.1-0.2,0.1-0.3c0-0.1,0.1-0.2,0.1-0.3h0.2c0-0.1,0.1-0.1,0.1-0.2c0-0.1,0-0.1,0.1-0.2h-0.1c0-0.1,0-0.2-0.1-0.2
			c0-0.1-0.1-0.2-0.1-0.2c0,0-0.1,0.1-0.1,0.2c0,0.1,0,0.1,0,0.2v0.2c-0.1,0.1-0.2,0.3-0.2,0.3c0,0.1-0.1,0.1-0.1,0.2
			c0,0.1,0,0.1-0.1,0.2c0,0.1,0,0.1-0.1,0.2L33.1,5.7z M33.4,6.2V6c0,0-0.1,0-0.1,0c0,0.1-0.1,0.1-0.1,0.2L33.4,6.2z M34.7,9.9
			C34.7,9.9,34.8,9.9,34.7,9.9c0.1,0,0.1,0,0.1-0.1l0.1,0c0,0,0.1,0,0.1,0h0.2V9.6h0.2V9.4h0.1c0-0.1,0-0.3,0.1-0.4l0.1-0.4h0.1
			c0-0.1,0-0.3,0-0.4c0-0.1,0-0.3,0-0.4c0-0.1,0-0.2,0.1-0.3c0-0.1,0.1-0.2,0.1-0.3c-0.1-0.2-0.1-0.4-0.1-0.6c0-0.2,0-0.4,0-0.6
			c0-0.2,0-0.4,0-0.6c0-0.2-0.1-0.4-0.1-0.5s-0.1-0.3-0.1-0.4l-0.2-0.2V4.1c-0.2-0.1-0.4-0.1-0.5-0.1c-0.3,0-0.6,0.1-0.9,0.3
			c0,0.3,0,0.6-0.1,0.9c-0.1,0.3-0.2,0.6-0.3,0.9c0,0.1,0.1,0.3,0.1,0.4c0,0.1,0,0.2,0,0.4c0,0,0.1,0,0.1,0c0,0,0,0.1,0,0.1
			c-0.1,0.2-0.2,0.4-0.2,0.6c0,0.2,0,0.3,0,0.5c0,0.2,0,0.3,0,0.5s0,0.4,0,0.6h0.1c0,0.1,0,0.1,0.1,0.2c0,0.1,0.1,0.2,0.1,0.3h0.2
			V9.6h0.1V9.3h0.3v0.2h0.1c0,0,0,0.1,0,0.1c0,0.1,0,0.1,0.1,0.1C34.7,9.8,34.7,9.8,34.7,9.9C34.7,9.9,34.7,9.9,34.7,9.9L34.7,9.9z
			 M35.5,10.4C35.5,10.4,35.6,10.3,35.5,10.4c0.1-0.1,0.1-0.2,0.1-0.2c0,0,0,0,0,0c0,0,0,0,0,0C35.5,10.3,35.5,10.4,35.5,10.4
			L35.5,10.4z M36.2,9.4V9.1c0,0-0.1,0.1-0.1,0.2c0,0.1,0,0.1,0,0.2L36.2,9.4z M36.4,6.3L36.4,6.3l-0.1,0.4L36.4,6.3z M36.6,10
			l0.1-0.1L36.6,10L36.6,10z M36.9,9.8c0.1-0.1,0.2-0.2,0.3-0.3c0.1-0.2,0.1-0.3,0.1-0.5c-0.1,0.2-0.1,0.3-0.2,0.4
			c-0.1,0.2-0.2,0.3-0.2,0.5c0,0,0,0,0,0C36.8,9.9,36.8,9.9,36.9,9.8L36.9,9.8z M37,6.6c0.1-0.1,0.2-0.2,0.2-0.3
			c0-0.1,0.1-0.1,0.1-0.2c0-0.1,0.1-0.1,0.1-0.2c0-0.1,0.1-0.2,0.1-0.3h-0.1v0.1h-0.2c0,0.1,0,0.2,0,0.3c0,0.1,0,0.2,0,0.3h-0.1
			L37,6.6z M37.3,7.3c0,0,0-0.1,0-0.1c0,0,0,0,0,0L37.3,7.3L37.3,7.3L37.3,7.3C37.3,7.4,37.3,7.4,37.3,7.3L37.3,7.3z M37.2,8.7
			c0-0.1,0-0.2,0.1-0.2c0-0.1,0-0.2,0.1-0.2c-0.1,0.1-0.1,0.1-0.1,0.2c0,0.1,0,0.2,0,0.3V9C37.2,8.9,37.2,8.8,37.2,8.7L37.2,8.7z"/>
		<path id="Path_15615" class="st0" d="M40.7,0.3c0.1,0,0.2,0.1,0.2,0.1c0.1,0,0.1,0,0.2,0c0,0.1,0,0.2,0,0.2c0,0.1,0,0.1-0.1,0.2
			c0.1,0.2,0.2,0.5,0.2,0.7c0,0.2,0,0.4-0.1,0.5c-0.2,0-0.4,0-0.5,0c-0.1,0-0.3,0-0.4-0.1v0.1h-0.5c0,0-0.1,0.1-0.1,0.1
			c0,0-0.1,0.1-0.1,0.1h-0.3c0-0.1,0-0.1,0-0.1c0,0,0-0.1,0-0.1c0,0,0.1-0.1,0.1-0.1l0,0l0,0c0,0,0,0,0.1-0.1l0.1-0.3
			c-0.1,0.1-0.1,0.1-0.1,0.2s0,0.1-0.1,0.1c-0.1,0-0.1,0-0.2,0c0-0.1-0.1-0.2-0.1-0.3c0-0.1,0-0.2,0-0.3c0-0.1,0-0.2,0-0.2
			c0,0,0.1-0.1,0.1-0.1c0,0,0-0.1,0-0.1c0,0,0-0.1,0-0.1h0c0.1,0,0.1,0,0.1,0.1c0,0.1,0.1,0.2,0.1,0.3c0,0.1,0,0.3,0,0.4v0
			c0,0,0.1-0.1,0.1-0.1c0,0,0.1-0.1,0.1-0.1c0,0,0-0.1,0-0.1c0,0,0,0,0-0.1c0-0.1,0-0.1-0.1-0.1h0c0,0-0.1,0-0.1,0
			c0-0.1,0-0.2,0-0.2L40.7,0.3z M39.7,11.1c-0.1-0.1-0.2-0.2-0.3-0.3s-0.2-0.2-0.3-0.3c0-0.1,0-0.2,0.1-0.3c0-0.1,0.1-0.2,0.1-0.4
			C39.1,9.7,39,9.6,39,9.4c0-0.2-0.1-0.4-0.1-0.6c0-0.4,0-0.7,0.1-1.1c0-0.3,0.1-0.6,0.1-0.8c0-0.1,0-0.3,0-0.4c0-0.1,0-0.3,0-0.4
			c0-0.3,0-0.5,0-0.8s0-0.6,0-0.9c0-0.3,0-0.6,0.1-0.9c0-0.3,0.1-0.6,0.2-0.9c0.1,0,0.3,0.1,0.3,0.2c0.1,0.1,0.2,0.2,0.3,0.3V2.9
			h0.6c0-0.1,0-0.1,0.1-0.1c0-0.1,0.1-0.1,0.1-0.1h0.2c0,0.1,0,0.2,0,0.2c0,0.1,0,0.2,0,0.2c-0.1,0.1-0.2,0.3-0.3,0.4
			c-0.1,0.2-0.2,0.3-0.3,0.5h0.1c0.1-0.1,0.2-0.2,0.3-0.3c0.1-0.1,0.3-0.1,0.4-0.1c0,0.2,0.1,0.3,0.1,0.5c0,0.2,0,0.4,0,0.6
			c0,0.1,0,0.3,0,0.4c0,0,0,0,0,0.1c0,0.1,0,0.2,0,0.2c0,0.1,0,0.2,0,0.2c-0.1,0.1-0.1,0.2-0.2,0.3c0,0.2-0.1,0.4-0.1,0.5
			c0,0.2,0,0.4,0,0.6s0,0.3,0,0.5v0.1c0,0.1-0.1,0.2-0.1,0.3c0,0.1-0.1,0.2-0.1,0.3c0,0.3,0,0.6,0,0.9s0,0.6,0,0.9s0,0.6,0,1
			c-0.2,0-0.4,0-0.6,0.1C40,11,39.8,11.1,39.7,11.1L39.7,11.1z M40.1,1.1c0,0-0.1,0.1-0.2,0.1c-0.1,0.1-0.2,0.1-0.2,0.1v0.3h-0.1
			l-0.1,0.1h0.2c0.1-0.1,0.1-0.2,0.2-0.2s0.1-0.1,0.1-0.2s0-0.1,0.1-0.1S40.1,1.2,40.1,1.1L40.1,1.1z M39.7,10.5h0.5l0.1-0.9
			c-0.1,0.1-0.2,0.3-0.3,0.4C40,10.2,39.9,10.3,39.7,10.5L39.7,10.5z M40,8c0.1,0,0.2-0.1,0.2-0.2c0-0.1,0.1-0.1,0.2-0.2l0.1-0.4
			c0,0,0-0.1,0-0.1l0,0c0,0,0,0,0,0c0,0,0,0,0,0V7h-0.1c-0.1,0.1-0.2,0.3-0.2,0.3c0,0.1-0.1,0.1-0.1,0.2c0,0.1-0.1,0.1-0.1,0.2
			C40.1,7.8,40.1,7.9,40,8L40,8z M40.1,5.5C40.2,5.5,40.2,5.4,40.1,5.5c0.1-0.1,0.2-0.1,0.2-0.1c0-0.1,0-0.1,0.1-0.2
			c0-0.1,0.1-0.1,0.1-0.2h0.2v0.3h0.2V5.2c0-0.1,0-0.3,0-0.4c0-0.1-0.1-0.3-0.2-0.4c-0.1,0.2-0.2,0.4-0.3,0.6
			C40.3,5.2,40.2,5.3,40.1,5.5L40.1,5.5z M40.1,6.6h0.2V6.4c0,0-0.1,0-0.1,0C40.2,6.5,40.2,6.6,40.1,6.6L40.1,6.6z M40.3,6.3
			c0.1-0.1,0.2-0.2,0.3-0.2c0,0,0.1,0,0.1,0l0.1-0.5c-0.1,0.1-0.1,0.1-0.1,0.2c0,0.1-0.1,0.1-0.1,0.2h-0.2L40.3,6.3z M40.8,1.5
			c-0.1,0.1-0.2,0.2-0.3,0.2c0,0-0.1,0-0.1,0v0.3c0,0,0-0.1,0-0.1c0,0,0-0.1,0-0.1h0.2L40.8,1.5z M40.6,0.6
			C40.6,0.6,40.6,0.5,40.6,0.6c0.1-0.1,0.1-0.1,0.1-0.2l0,0L40.6,0.6C40.6,0.5,40.6,0.6,40.6,0.6L40.6,0.6z"/>
		<path id="Path_15616" class="st0" d="M44.6,11.1c-0.1-0.1-0.1-0.1-0.2-0.1c-0.1,0-0.1-0.1-0.2-0.1c0-0.1,0-0.1,0-0.2
			c0,0,0.1-0.1,0.1-0.1v-0.1c-0.1,0-0.1,0.1-0.2,0.1c0,0,0,0.1,0,0.1v0c-0.1,0-0.2,0-0.3-0.1c0,0-0.1-0.1-0.2-0.2h-0.4v-0.2
			c-0.1,0-0.2,0-0.3,0c-0.1,0-0.1,0-0.2,0c0,0-0.1,0-0.1,0l0.1-0.5c-0.4-0.1-0.6-0.2-0.6-0.5c0-0.1,0-0.3,0.1-0.4
			c-0.1-0.4-0.1-0.8-0.2-1.1C42,7.4,42,7.1,42,6.7c0-0.1,0-0.2,0-0.3s0-0.2,0-0.3h-0.1C42,6,42,5.9,42.1,5.8s0.1-0.2,0.1-0.3
			c0,0,0-0.1,0-0.1c0,0,0,0,0,0V5h0.1c0-0.1,0.1-0.3,0.1-0.4c0.1-0.1,0.2-0.3,0.3-0.4c0.1-0.1,0.2-0.2,0.3-0.3
			c0.1-0.1,0.3-0.2,0.4-0.2c0-0.1,0-0.1,0-0.2c0-0.1,0-0.1,0-0.2c0.1,0,0.1,0,0.2,0l0.2-0.1c0.1,0,0.2-0.1,0.3-0.1c0,0,0.1,0,0.1,0
			c0,0.1,0,0.1,0.1,0.1c0,0,0,0.1,0.1,0.1c0-0.1,0.1-0.2,0.2-0.3C44.6,3,44.7,3,44.8,3v0.4H45c0-0.1,0.1-0.3,0.2-0.4
			c0.1-0.1,0.1-0.2,0.2-0.3h0.8L46.7,3c0.1,0.1,0.2,0.1,0.3,0.2c0.1,0.1,0.2,0.1,0.3,0.2c0.1,0.1,0.2,0.2,0.2,0.3
			c0.1,0.1,0.1,0.3,0.2,0.4h0.2c0,0.1-0.1,0.2-0.1,0.3c0,0.1-0.1,0.2-0.1,0.3c0,0.1,0.1,0.3,0.1,0.4c0,0.2,0,0.3-0.1,0.5
			c-0.1,0.2-0.1,0.3-0.2,0.4h-0.3c0-0.1-0.1-0.2-0.2-0.2c-0.1,0-0.2-0.1-0.3-0.1c-0.1,0-0.2,0-0.3,0c-0.1,0-0.2,0-0.3-0.1
			c0-0.2,0-0.3-0.1-0.5c0-0.2-0.1-0.3-0.2-0.5c-0.1-0.1-0.2-0.3-0.3-0.4c-0.1-0.1-0.3-0.1-0.4-0.1c-0.1,0-0.1,0-0.2,0
			c-0.1,0-0.1,0-0.2,0.1c-0.1,0.1-0.2,0.2-0.2,0.2c-0.1,0.1-0.2,0.1-0.2,0.2C44.1,4.9,44.1,4.9,44,5c-0.1,0.1-0.1,0.2-0.1,0.3
			c0,0.1,0,0.2,0.1,0.3c0,0.1,0,0.1-0.1,0.2c0,0.1-0.1,0.2-0.1,0.3C44,6.2,44,6.4,44,6.6c0,0.2,0,0.4,0,0.6c0,0.2,0,0.4,0,0.6
			c0,0.2-0.1,0.3-0.1,0.5h-0.1c0,0-0.1,0.1-0.1,0.1c0,0,0,0.1,0,0.1h-0.1c0,0.1,0,0.2,0.1,0.3C43.8,9,43.9,9,44,9
			c0,0.1,0,0.2,0.1,0.3c0,0.1,0.1,0.2,0.1,0.4h0.1v0.1c0,0,0.1,0,0.1,0.1c0,0,0.1,0.1,0.1,0.1c0.3,0,0.5-0.1,0.8-0.2
			c0.2-0.2,0.4-0.3,0.6-0.6c0-0.2,0-0.5,0-0.7c0-0.2,0-0.4,0.1-0.6l0.2-0.2c0,0,0.1,0,0.1,0c0,0,0.1,0,0.1,0c0.2,0,0.3,0,0.5-0.1
			c0.1,0,0.2-0.1,0.4-0.1c0.1,0,0.2,0.1,0.3,0.2c0.1,0.2,0.1,0.5,0.1,0.7c0.1,0.1,0.1,0.3,0.1,0.4c0,0.2-0.1,0.5-0.2,0.7
			c-0.1,0.2-0.2,0.4-0.2,0.6c0,0-0.1,0-0.1,0c-0.1,0-0.1,0.1-0.2,0.1s-0.2,0.1-0.3,0.1s-0.2,0.1-0.2,0.1h-0.2c-0.1,0-0.2,0-0.3,0
			c-0.1,0-0.2,0-0.3,0.1c-0.2,0-0.4,0.1-0.5,0.2C44.9,11,44.7,11,44.6,11.1z M42.9,6.5C42.9,6.5,42.8,6.5,42.9,6.5
			c-0.1,0-0.2,0.1-0.2,0.1V7c0,0-0.1,0.1-0.1,0.1c0,0-0.1,0-0.1,0c0-0.1,0-0.1-0.1-0.2c0-0.1,0-0.1-0.1-0.2h-0.1
			c0,0.2,0.1,0.4,0.1,0.5c0,0.2,0.1,0.4,0.3,0.5c0-0.3,0.1-0.5,0.2-0.7C42.9,6.8,42.9,6.7,42.9,6.5z M42.5,5.6
			c-0.1,0.1-0.1,0.2-0.2,0.3c0,0-0.1,0-0.1,0l0.1,0.6V6.4c0-0.1,0-0.1,0-0.2c0-0.1,0-0.2,0.1-0.2h0.1L42.5,5.6z M43.1,8.9
			c0.1-0.1,0.1-0.1,0.1-0.2c0-0.1,0.1-0.2,0.2-0.2L43.3,8h0.1l0-0.3l-0.2,0c-0.1,0.3-0.1,0.5-0.1,0.6s0,0.2,0,0.4L43.1,8.9z
			 M43.8,4.1l0.1,0.3h-0.1v0.2h0.1C44,4.3,44.1,4.1,44.1,4c0-0.1,0-0.2,0-0.3V3.5C44,3.7,43.9,3.9,43.8,4.1L43.8,4.1z M45.4,3v0.3
			c0,0,0.1-0.1,0.1-0.1c0,0,0,0,0-0.1C45.4,3,45.4,3,45.4,3L45.4,3z M46.5,8c0,0-0.1,0-0.2,0.1c0,0.1-0.1,0.1-0.2,0.1L46.3,9
			c0.1-0.1,0.1-0.2,0.1-0.4c0-0.1,0-0.3,0.1-0.4L46.5,8z M47.4,5.5h-0.1v0.3c0,0,0.1,0,0.1,0C47.4,5.6,47.4,5.5,47.4,5.5L47.4,5.5z"
			/>
		<path id="Path_15617" class="st0" d="M51.5,11.4c-0.1,0-0.1-0.1-0.2-0.1c0-0.1-0.1-0.2-0.1-0.3C51.1,11,51,11,50.9,11
			c-0.1,0-0.1,0-0.2-0.1c-0.1,0-0.1-0.1-0.1-0.1c-0.1-0.1-0.1-0.1-0.1-0.2H50c-0.1,0-0.1-0.1-0.1-0.1c0,0,0,0,0-0.1l-0.3-0.1
			c0,0-0.1,0-0.1-0.1c0,0-0.1-0.1-0.1-0.1c0-0.1-0.1-0.2-0.1-0.2c0-0.1,0-0.1,0-0.2V9.5c-0.1,0-0.2-0.1-0.2-0.1c0,0-0.1-0.1-0.2-0.1
			c0-0.5-0.1-1-0.2-1.4c-0.1-0.4-0.1-0.9-0.2-1.4c0-0.1,0.1-0.3,0.1-0.3s0-0.2,0.1-0.2s0-0.1,0.1-0.2s0-0.1,0.1-0.2l-0.1-0.1V5.2
			h0.1c0-0.3,0.1-0.7,0.2-1c0.1-0.3,0.3-0.6,0.5-0.8c0.1,0,0.3-0.1,0.4-0.2c0.1-0.1,0.3-0.1,0.4-0.2s0.3-0.1,0.4-0.2
			c0.1,0,0.3-0.1,0.4-0.1c0.1,0,0.2,0,0.3,0c0,0,0,0,0.1,0c0.1,0,0.1,0,0.2,0.1C51.9,3,51.9,3.1,52,3.2s0.1,0.2,0.2,0.3
			c0,0.1,0.1,0.1,0.2,0.2c0.1,0,0.1,0,0.2-0.1l0.3-0.2l0.3-0.2c0.1-0.1,0.1-0.1,0.2-0.1c0,0,0,0,0,0c0,0,0,0,0,0V4c0,0,0,0,0,0
			c0.1,0,0.1,0,0.1-0.1c0-0.1,0.1-0.2,0.1-0.2c0-0.1,0.1-0.2,0.1-0.2s0.1-0.1,0.1-0.1c0,0,0,0,0.1,0c0,0,0-0.1,0.1-0.1
			s0.1,0,0.1,0.1s0.1,0.2,0.2,0.3s0.1,0.2,0.2,0.3c0,0.1,0.1,0.1,0.2,0.2c0,0,0,0,0,0c0,0,0,0,0,0c0,0,0,0,0,0c0,0,0,0,0,0
			c0,0,0,0,0-0.1c0,0,0-0.1,0-0.1c0,0,0-0.1,0-0.1l0.1,0.1c0.1,0.3,0.1,0.6,0.2,0.9C55,5.2,55,5.5,55,5.7c0,0.2,0,0.3,0,0.5
			s0,0.3,0,0.5c-0.1,0.1-0.1,0.1-0.1,0.2c0,0.1,0,0.1-0.1,0.2c0,0-0.1,0-0.1,0c-0.1,0.1-0.1,0.1-0.2,0.2c-0.1,0-0.3,0-0.4,0.1
			c-0.1,0-0.3,0.1-0.4,0.1h-1.1c-0.1,0-0.3-0.1-0.4-0.1c-0.1,0-0.2,0-0.3,0c-0.1,0-0.3,0-0.4,0.1c-0.2,0-0.4,0.1-0.5,0.2
			c0,0.3,0,0.6,0.1,0.9C51,8.7,51.1,9,51.1,9.4l0.3,0.5H52c0.2-0.2,0.4-0.5,0.6-0.7c0.2-0.3,0.4-0.6,0.5-0.9h1.4l-0.1,1.6
			c-0.1,0.2-0.3,0.3-0.4,0.4c-0.2,0.1-0.3,0.2-0.5,0.3c0,0,0,0.1-0.1,0.2c-0.1,0.1-0.2,0.1-0.2,0.2c-0.1,0.1-0.2,0.1-0.3,0.1
			c-0.1,0-0.1,0.1-0.2,0.1c-0.2,0-0.5,0-0.7,0.2C51.9,11.3,51.7,11.4,51.5,11.4z M49.8,7.2c-0.1,0.1-0.1,0.2-0.2,0.3
			s-0.1,0.1-0.1,0.2s-0.1,0.1-0.1,0.2S49.4,8,49.3,8.1h0.1V8h0.1c0-0.1,0.1-0.2,0.1-0.3c0-0.1,0.1-0.2,0.1-0.3c0,0,0,0,0,0
			c0,0,0.1,0,0.1-0.1L49.8,7.2z M49.7,5c-0.1,0.1-0.1,0.2-0.2,0.3c0,0.1,0,0.2,0,0.2v0.2c0.1-0.1,0.2-0.2,0.2-0.4
			C49.7,5.2,49.7,5.1,49.7,5L49.7,5z M50.2,3.9c-0.1,0.2-0.3,0.4-0.3,0.5c-0.1,0.1-0.1,0.3-0.1,0.5c0.1-0.1,0.1-0.2,0.2-0.4
			c0.1-0.1,0.1-0.3,0.2-0.4h0.1L50.2,3.9z M50.4,7.1v0.4h0.1c0-0.1,0-0.1,0-0.2C50.4,7.2,50.4,7.1,50.4,7.1z M50.6,4.8
			C50.6,4.8,50.6,4.8,50.6,4.8C50.6,4.9,50.6,4.9,50.6,4.8L50.6,4.8C50.6,4.8,50.6,4.8,50.6,4.8L50.6,4.8z M51,6c0.2,0,0.4,0,0.6,0
			c0.2,0,0.4,0,0.6-0.1c0.1,0,0.2,0,0.3-0.1c0.1,0,0.2-0.1,0.3-0.1c0-0.2-0.1-0.4-0.2-0.6c-0.1-0.2-0.1-0.4-0.2-0.6
			c-0.1-0.2-0.2-0.3-0.4-0.5c-0.2-0.1-0.3-0.2-0.5-0.3c0,0.1-0.1,0.2-0.1,0.2c-0.1,0.1-0.1,0.2-0.1,0.2H51L50.7,5c0,0.1,0,0.3,0,0.4
			c0,0.2,0,0.3,0.1,0.5L51,6z M53.5,5.5L53.5,5.5c-0.1,0-0.1,0-0.2,0.1c-0.1,0.1-0.2,0.1-0.3,0.2L52.8,6c-0.1,0-0.1,0.1-0.2,0.1
			L53.2,6L53.5,5.5z M53.3,9.8v0.4c0.1-0.1,0.2-0.3,0.2-0.4c0.1-0.1,0.1-0.3,0.2-0.4l-0.1-0.1C53.6,9.5,53.5,9.7,53.3,9.8L53.3,9.8z
			 M53.6,4.8c0.1-0.1,0.3-0.2,0.4-0.3c0.1-0.2,0.2-0.4,0.2-0.6V3.8h-0.3c0,0-0.1,0.1-0.1,0.1c0,0.1,0,0.1-0.1,0.2c0,0,0,0.1-0.1,0.1
			c0,0-0.1,0.1-0.1,0.1v0.1L53.3,5c0,0,0.1-0.1,0.2-0.1C53.5,4.9,53.6,4.9,53.6,4.8L53.6,4.8z"/>
		<path id="Path_15618" class="st0" d="M62.2,11.1c-0.1-0.1-0.2-0.2-0.4-0.2c-0.1,0-0.2,0-0.3,0c-0.1,0-0.2-0.1-0.2-0.1
			c-0.1-0.1-0.2-0.3-0.2-0.4H61v0.2c-0.2,0-0.5-0.1-0.6-0.2C60.2,10.1,60,9.9,60,9.6c-0.1,0-0.1-0.1-0.2-0.2
			c-0.1-0.1-0.1-0.3-0.1-0.4c0-0.2,0-0.4-0.1-0.6c0-0.2,0-0.4,0-0.6c0-0.3,0-0.5,0-0.8c0-0.2,0-0.3,0-0.5c0,0,0,0,0-0.1l0-0.1l0-0.1
			c0,0,0-0.1,0-0.1V5.9c0,0-0.1-0.1-0.1-0.1c0,0-0.1-0.1-0.1-0.1c0-0.1,0-0.2,0.1-0.2c0-0.1,0.1-0.1,0.1-0.2c0-0.2,0.1-0.4,0.1-0.6
			C60,4.4,60.1,4.2,60.2,4c0.1-0.2,0.3-0.4,0.5-0.6C60.8,3.2,61,3.1,61.1,3c0.1,0,0.2,0,0.2,0c0,0,0.1,0,0.2,0c0-0.1,0-0.2,0-0.2
			c0,0,0-0.1,0.1-0.1c0,0,0.1,0,0.1,0c0.1,0,0.1,0,0.2,0v0.2h0.2c0-0.1,0.1-0.2,0.2-0.3c0.1,0,0.1-0.1,0.2-0.1v0.3h0.2
			c0.1,0,0.1-0.1,0.2-0.1c0-0.1,0-0.1,0-0.2H63c0,0.1,0.1,0.2,0.1,0.2c0,0,0.1,0.1,0.1,0.1c0.1-0.1,0.2-0.1,0.3-0.1
			c0.1,0,0.2,0,0.3,0.1C63.9,2.8,64,2.9,64.1,3c0.1,0.1,0.2,0.2,0.2,0.3c0.1,0.1,0.1,0.2,0.2,0.2c0.2,0.1,0.3,0.2,0.4,0.3
			c0.1,0.1,0.2,0.3,0.2,0.4c0.1,0,0.1,0,0.2,0.1c0,0.1,0,0.2,0,0.3c0,0.1,0,0.2,0,0.2s0,0.2,0,0.2c0,0.1,0,0.2,0.1,0.4
			c0,0.1,0.1,0.2,0.2,0.2c0,0.1,0,0.2,0,0.4c0,0.1,0,0.2,0.1,0.3v1.1l-0.1,0.1c0,0.2,0,0.4,0,0.6c0,0.1,0,0.2,0,0.3c0,0,0,0.1,0,0.1
			c0,0,0,0-0.1,0.1h0.1v0.9h-0.1c-0.1,0.1-0.1,0.2-0.2,0.3l-0.1,0.2c0,0.1-0.1,0.1-0.1,0.2s-0.1,0.2-0.2,0.3c-0.1,0-0.2,0.1-0.3,0.1
			l-0.4,0.1c-0.1,0-0.2,0.1-0.4,0.1c-0.1,0-0.2,0.1-0.3,0.1c-0.1,0-0.1,0-0.2,0c-0.1,0.1-0.1,0.1-0.2,0.1C63,11,63,11,63,11.1
			c-0.1,0-0.2,0-0.2-0.1c-0.1,0-0.1-0.1-0.2-0.1c0,0-0.1,0.1-0.2,0.1C62.3,11,62.3,11.1,62.2,11.1z M60.3,9.6c0,0,0.1-0.1,0.1-0.1
			c0,0,0.1-0.1,0.1-0.1c0-0.1,0-0.3,0-0.4c0-0.1,0-0.2,0.1-0.3c-0.1,0-0.1-0.1-0.2-0.1c0,0-0.1,0-0.1,0l-0.1,0.1L60.3,9.6z
			 M60.8,5.7c0-0.1,0.1-0.2,0.1-0.3c0-0.1,0.1-0.2,0.1-0.3h0.2c0-0.1,0.1-0.1,0.1-0.2c0-0.1,0.1-0.1,0.1-0.2h-0.1
			c0-0.1,0-0.2-0.1-0.2c0-0.1-0.1-0.2-0.1-0.2c0,0-0.1,0.1-0.1,0.2c0,0.1,0,0.1,0,0.2v0.2C61,4.9,60.9,5,60.8,5.1
			c0,0.1-0.1,0.1-0.1,0.2c0,0.1,0,0.1-0.1,0.2c0,0.1,0,0.1-0.1,0.2L60.8,5.7z M61.1,6.2V6c0,0-0.1,0-0.1,0c0,0.1-0.1,0.1-0.1,0.2
			L61.1,6.2z M62.4,9.9C62.4,9.9,62.4,9.9,62.4,9.9c0.1,0,0.1,0,0.1-0.1l0.1,0c0,0,0.1,0,0.1,0h0.2V9.6h0.2V9.4h0.1
			c0-0.1,0-0.3,0.1-0.4l0.1-0.4h0.1c0-0.1,0-0.3,0-0.4c0-0.1,0-0.3,0-0.4c0-0.1,0-0.2,0.1-0.3c0-0.1,0.1-0.2,0.1-0.3
			c-0.1-0.2-0.1-0.4-0.1-0.6c0-0.2,0-0.4,0-0.6c0-0.2,0-0.4,0-0.6c0-0.2-0.1-0.4-0.1-0.5s-0.1-0.3-0.1-0.4l-0.2-0.2V4.1
			c-0.2-0.1-0.4-0.1-0.5-0.1c-0.3,0-0.6,0.1-0.9,0.3c0,0.3,0,0.6-0.1,0.9c-0.1,0.3-0.2,0.6-0.3,0.9c0,0.1,0.1,0.3,0.1,0.4
			c0,0.1,0,0.2,0,0.4c0,0,0.1,0,0.1,0c0,0,0,0.1,0,0.1c-0.1,0.2-0.2,0.4-0.2,0.6c0,0.2,0,0.3,0,0.5c0,0.2,0,0.3,0,0.5s0,0.4,0,0.6
			h0.1c0,0.1,0,0.1,0.1,0.2c0,0.1,0.1,0.2,0.1,0.3h0.2V9.6h0.1V9.3h0.3v0.2h0.1c0,0,0,0.1,0,0.1c0,0.1,0,0.1,0.1,0.1
			C62.3,9.8,62.3,9.8,62.4,9.9C62.4,9.9,62.4,9.9,62.4,9.9L62.4,9.9z M63.1,10.4C63.2,10.4,63.2,10.3,63.1,10.4
			c0.1-0.1,0.1-0.2,0.1-0.2c0,0,0,0,0,0c0,0,0,0,0,0C63.2,10.3,63.1,10.4,63.1,10.4L63.1,10.4z M63.8,9.4V9.1c0,0-0.1,0.1-0.1,0.2
			c0,0.1,0,0.1,0,0.2L63.8,9.4z M64.1,6.3L64.1,6.3L64,6.7L64.1,6.3z M64.3,10l0.1-0.1L64.3,10L64.3,10z M64.5,9.8
			c0.1-0.1,0.2-0.2,0.3-0.3c0.1-0.2,0.1-0.3,0.1-0.5c-0.1,0.2-0.1,0.3-0.2,0.4c-0.1,0.2-0.2,0.3-0.2,0.5c0,0,0,0,0,0
			C64.4,9.9,64.4,9.9,64.5,9.8L64.5,9.8z M64.7,6.6c0.1-0.1,0.2-0.2,0.2-0.3c0-0.1,0.1-0.1,0.1-0.2c0-0.1,0.1-0.1,0.1-0.2
			c0-0.1,0.1-0.2,0.1-0.3h-0.1v0.1h-0.2c0,0.1,0,0.2,0,0.3c0,0.1,0,0.2,0,0.3h-0.1L64.7,6.6z M64.9,7.3c0,0,0-0.1,0-0.1c0,0,0,0,0,0
			L64.9,7.3L64.9,7.3L64.9,7.3C64.9,7.4,64.9,7.4,64.9,7.3L64.9,7.3z M64.9,8.7c0-0.1,0-0.2,0.1-0.2C65,8.4,65,8.3,65,8.2
			c-0.1,0.1-0.1,0.1-0.1,0.2c0,0.1,0,0.2,0,0.3V9C64.9,8.9,64.9,8.8,64.9,8.7L64.9,8.7z"/>
		<path id="Path_15619" class="st0" d="M70.1,3c0.2,0.1,0.5,0.2,0.7,0.3c0,0.1-0.1,0.1-0.2,0.2c0,0-0.1,0.1-0.1,0.1
			c0,0.1,0,0.1,0,0.2c0,0,0.1,0.1,0.1,0.1c0.1,0,0.1,0.1,0.1,0.1v0.2c-0.1,0.1-0.1,0.1-0.2,0.1c-0.1,0-0.2,0.1-0.3,0.1
			C70.3,4.1,70.2,4,70.1,4L70,4.1c0.1,0.1,0.1,0.2,0.1,0.2s0,0.1,0,0.3c-0.3,0-0.4,0.1-0.4,0.1s-0.2,0.1-0.5,0.1c0,0,0-0.1-0.1-0.1
			c0,0.3,0,0.6,0,0.8c0,0.3,0,0.6,0,0.8c0,0.1,0.1,0.3,0.1,0.4c0,0.1,0,0.3,0,0.4c0,0.4,0,0.8,0.1,1.2c0,0.4,0.1,0.9,0.1,1.3
			c0,0.3,0,0.6,0,0.8c0,0.2-0.1,0.5-0.2,0.7c-0.1,0-0.2,0-0.2-0.1c-0.1,0-0.1-0.1-0.1-0.1c0,0-0.1-0.1-0.1-0.2
			c0-0.1-0.1-0.1-0.1-0.2l-0.1,0.1c0,0,0,0.1,0,0.1H68c0,0-0.1,0.1-0.1,0.1c0,0.1-0.1,0.1-0.1,0.1h-0.2c-0.1-0.1-0.1-0.1-0.1-0.2
			c0-0.1-0.1-0.2-0.1-0.3c0.1-0.2,0.2-0.3,0.3-0.5c0.1-0.2,0.2-0.3,0.3-0.5l-0.1-0.1c-0.1,0.2-0.2,0.3-0.3,0.4
			c-0.1,0.1-0.3,0.2-0.4,0.1c0-0.3-0.1-0.6-0.1-0.9C67,9.2,67,8.9,67,8.6c0,0,0.1-0.1,0.1-0.1c0-0.1,0-0.1,0-0.2c0-0.1,0-0.2,0-0.2
			C67.1,8,67,8,67,7.9c0.1-0.1,0.1-0.1,0.1-0.2c0-0.1,0.1-0.2,0.1-0.4c0-0.2,0-0.3,0-0.5c0-0.2,0-0.3,0-0.5c0-0.2,0-0.4,0-0.5
			s0-0.3,0-0.3c0-0.1,0.1-0.2,0.1-0.3c0-0.1,0.1-0.2,0.1-0.4V4.5c0,0,0,0,0,0c-0.1,0-0.1,0-0.2,0c-0.1,0-0.2,0-0.2,0
			c-0.1,0-0.3,0-0.4,0.1c-0.1,0-0.1,0-0.2,0.1c0-0.2-0.1-0.5-0.1-0.7c0-0.2-0.1-0.4-0.1-0.6c0.1,0,0.1,0,0.1,0.1c0,0.1,0,0.1,0,0.1
			s0-0.2,0-0.2c0-0.1,0-0.1,0.1-0.2c0.1,0,0.2,0,0.3,0c0.1,0,0.1,0.1,0.1,0.1s0,0.1,0.2,0.1c0.1,0,0.3,0,0.3,0l0-0.1
			c-0.1-0.1-0.1-0.1-0.1-0.2s0.1,0,0.1-0.1l0-0.1c0-0.2,0-0.5,0-0.7c0-0.2,0-0.5,0-0.7l0.2-0.1c0.1,0,0.2,0,0.2-0.1
			c0-0.1,0-0.1,0-0.2c0-0.1,0-0.2,0.1-0.3c0-0.1,0.1-0.1,0.1-0.2c0.2-0.1,0.3-0.2,0.5-0.3c0.2-0.1,0.4-0.1,0.7-0.1
			c0.1,0,0.1,0,0.2,0s0.1,0,0.2,0h0.4c0.2,0,0.3,0,0.5,0c0.1,0,0.3,0,0.4,0c0,0,0,0,0.1,0c0,0.1,0,0.2,0,0.4c0,0.1,0,0.1-0.1,0.2
			L70.7,1v0.1c0,0,0,0,0,0.1s0.1,0.1,0,0.1s-0.1,0-0.1,0.1l0,0.1l0,0.1c-0.1-0.1-0.1,0-0.1,0.2c0-0.1-0.1-0.1-0.1-0.1v0H70
			c-0.2,0-0.4,0-0.6,0.1c-0.1,0.1-0.2,0.3-0.2,0.4v0.7l0,0.2C69.5,3.2,69.8,3.1,70.1,3z M66.6,3.8C66.7,3.9,66.8,4,66.9,4
			c0.1,0,0.2,0.1,0.2,0.2h0.2l-0.1-0.2V4c0,0,0,0-0.1,0c-0.1,0-0.1,0-0.2-0.1C66.8,3.9,66.8,3.9,66.6,3.8L66.6,3.8z M67.9,7.1
			l-0.3,0.3l-0.1,0.5c0.1-0.1,0.1-0.1,0.1-0.2c0-0.1,0.1-0.1,0.1-0.2h0.2L67.9,7.1z M68.2,8C68.1,8,68.1,8,68.2,8
			c-0.1,0-0.1,0-0.1,0c0,0-0.1,0-0.1,0c0,0.1,0,0.1,0,0.2c0,0.1,0,0.1,0,0.2c-0.1,0-0.1,0-0.1,0c0,0-0.1,0-0.1,0V8.2h-0.1
			c0,0.2,0,0.4,0,0.5c0,0.1,0,0.3,0.1,0.4c0.1-0.2,0.3-0.4,0.4-0.6C68,8.4,68.1,8.2,68.2,8L68.2,8z M68.2,5.1
			c-0.1,0.1-0.2,0.2-0.2,0.3c-0.1,0.1-0.1,0.1-0.2,0.1V6h-0.2v0.2h0.2c0.1-0.2,0.1-0.3,0.2-0.4S68,5.6,68,5.5s0-0.1,0.1-0.2
			S68.1,5.2,68.2,5.1L68.2,5.1z M67.8,3.1h0.1C68,2.9,68,2.8,68.1,2.6c0.1-0.2,0.1-0.3,0.2-0.4l-0.1-0.1c-0.1,0-0.1,0.1-0.2,0.1
			c-0.1,0-0.2,0-0.3,0L67.8,3.1z M68.1,6.7H68v0.2c0,0,0.1,0,0.1,0C68.1,6.8,68.1,6.7,68.1,6.7L68.1,6.7z M68.7,7.8c0,0,0,0.1,0,0.1
			C68.7,7.9,68.7,7.9,68.7,7.8C68.7,7.8,68.7,7.8,68.7,7.8L68.7,7.8z M69,3l-0.1-0.3v0.1c0,0,0,0,0,0.1C68.9,2.9,69,2.9,69,3L69,3z
			 M69.6,3.4c0.1,0.1,0.2,0.2,0.3,0.3c0,0,0,0.1,0,0.1h0.6c-0.1,0-0.2-0.1-0.2-0.1c-0.1,0-0.2-0.1-0.2-0.1V3.4L69.6,3.4z M69.9,0.7
			C69.8,0.7,69.8,0.7,69.9,0.7c0,0,0.1,0,0.1,0C69.9,0.7,69.9,0.7,69.9,0.7L69.9,0.7z"/>
		<path id="Path_15620" class="st0" d="M78.2,0.3l0.1,0.3h0.4V0.5h0.2c0.1,0,0.1,0,0.2,0c0.1,0,0.1,0.1,0.2,0.2v0.2h0.1V0.7l0.5,0.1
			c0,0,0.1,0.1,0.1,0.1c0.1,0,0.1,0,0.2,0V0.8c0.1,0,0.1,0,0.1,0.1c0,0,0.1,0,0.1,0.1V0.8h0.4l-0.2,1.1h0.1c0,0,0-0.1,0.1-0.1
			c0,0,0.1,0,0.1-0.1c0.1,0,0.1,0,0.2,0c0,0,0.1,0,0.1,0.1c0,0,0,0.1,0.1,0.1c0,0,0.1,0.1,0.1,0.1V1.8l0.4,0.1v0.6
			c0.1,0.1,0.1,0.1,0.2,0.1c0.1,0,0.1,0.1,0.2,0.1v0.6h0.1l0.2,1.9c0,0.3,0,0.5,0,0.7s0,0.3,0,0.4c0,0.1,0,0.2,0,0.3
			c0,0.1,0,0.2,0,0.4c0,0-0.1,0.1-0.1,0.1c0,0-0.1,0-0.1,0C82.1,7,82.1,6.9,82,6.8C82,6.7,82,6.6,82,6.5c0,0,0,0-0.1,0.1
			c0,0,0,0,0,0c0,0.1,0,0.2,0,0.3c0,0.1,0.1,0.2,0.2,0.3c0,0.1-0.1,0.3-0.2,0.4c-0.1,0.2-0.1,0.3-0.2,0.4L81.8,8l0.1-0.1
			c0,0,0.1,0,0.1,0l-0.2,0.2h0.3c0,0.1,0,0.2,0,0.3c0,0.1,0,0.1,0,0.2s0,0.1,0,0.2c0,0.1,0,0.2,0,0.3c0,0-0.1,0-0.1,0.1
			c-0.1,0.1-0.1,0.2-0.2,0.3c-0.1,0.1-0.1,0.2-0.1,0.3c0,0.1,0,0.1-0.1,0.2c0,0-0.1,0.1-0.2,0.2s-0.1,0.3-0.2,0.4
			c-0.2,0-0.4,0.1-0.6,0.1s-0.4,0.1-0.6,0.1c0,0-0.1,0.1-0.1,0.1c0,0.1-0.1,0.1-0.1,0.1h-0.4c0,0.1-0.1,0.1-0.2,0.2
			c-0.2,0-0.3,0-0.5,0c-0.2,0-0.4,0-0.6,0s-0.4,0-0.7-0.1s-0.4-0.1-0.7-0.1L76,11.1c-0.2,0-0.3-0.1-0.5-0.1c-0.1,0-0.2,0-0.3,0
			c0-0.1,0.1-0.2,0.1-0.2c0-0.1,0.1-0.1,0.1-0.2c0,0-0.1-0.1-0.1-0.1c0,0,0-0.1-0.1-0.1c0-0.1,0.1-0.3,0.1-0.4c0-0.1,0-0.2,0-0.4
			c-0.1-0.2-0.2-0.4-0.3-0.6c0-0.3-0.1-0.6-0.1-0.9c0-0.4,0-0.8,0.1-1.2s0.1-0.7,0.1-1c0-0.1-0.1-0.3-0.1-0.4c0-0.1-0.1-0.3-0.1-0.4
			c0-0.1,0-0.3,0-0.4s0-0.3,0-0.5c0-0.2,0-0.4,0-0.7s0-0.5,0-0.7c0-0.4,0-0.8,0-1.1c0-0.3,0.1-0.7,0.2-1c0.1,0,0.2,0,0.3,0.1
			c0.1,0.1,0.2,0.2,0.3,0.3V0.9h0.6c0-0.1,0-0.1,0.1-0.2c0-0.1,0.1-0.1,0.1-0.2h0.2c0,0.1,0,0.2,0.1,0.2c0,0,0,0.1,0.1,0.2
			c0,0,0.1,0,0.1-0.1c0-0.1,0-0.1,0-0.2c0.1,0,0.2,0,0.2-0.1c0,0,0.1,0,0.2-0.1l0.2,0.1c0,0,0.1-0.1,0.1-0.2c0.1,0,0.2,0,0.2,0
			C78.1,0.3,78.1,0.3,78.2,0.3z M75.7,4.2L75.7,4.2C75.7,4.3,75.7,4.3,75.7,4.2z M76.2,4c0,0,0.1-0.1,0.1-0.1c0,0,0,0,0.1,0
			c0-0.1,0.1-0.2,0.1-0.2c0-0.1,0.1-0.2,0.1-0.2h0.3v0.3H77c0-0.2,0-0.4,0-0.5c0-0.2-0.1-0.4-0.2-0.5c-0.1,0.3-0.2,0.6-0.3,0.8
			C76.4,3.7,76.3,3.8,76.2,4L76.2,4z M76.3,8.7c0.1-0.1,0.1-0.1,0.2-0.1c0.1,0,0.2-0.1,0.3-0.1v-1c-0.1,0.2-0.2,0.3-0.3,0.5
			c-0.1,0.2-0.2,0.3-0.3,0.4c0,0,0,0.1,0,0.1C76.3,8.6,76.3,8.6,76.3,8.7L76.3,8.7z M76.3,5.5h0.2V5.2c0,0-0.1,0-0.1,0
			C76.4,5.3,76.3,5.4,76.3,5.5L76.3,5.5z M76.3,7.1c0.1,0,0.2-0.1,0.2-0.2c0-0.1,0.1-0.2,0.2-0.2V6.1h0.1V5.9h-0.1
			c-0.1,0.2-0.1,0.3-0.2,0.5s-0.1,0.2-0.1,0.3s0,0.1-0.1,0.2S76.3,7,76.3,7.1L76.3,7.1z M76.5,5c0.1-0.1,0.2-0.2,0.3-0.2
			c0,0,0.1-0.1,0.1-0.1V4.2c0,0.1-0.1,0.1-0.1,0.2c0,0.1,0,0.1-0.1,0.2h-0.1L76.5,5z M77.5,8.9C77.5,9,77.5,9,77.5,8.9
			c0.1,0.1,0.1,0.2,0.1,0.2l-0.1,0.1c0,0.1,0,0.1,0,0.1c0,0,0,0.1,0,0.1h0.1c0,0,0.1,0,0.2,0s0.2,0,0.3,0s0.2,0,0.3-0.1
			c0.1,0,0.2,0,0.2-0.1c0,0,0,0,0.1,0.1s0.1,0,0.2,0h0.2c0.1,0,0.1,0,0.1,0c0.1-0.1,0.2-0.2,0.3-0.3C79.7,9,79.8,8.9,80,8.9V8h0.1
			V7.8c0-0.2,0-0.4,0.1-0.7c0-0.1,0-0.3,0.1-0.4s0-0.3,0.1-0.5c0-0.2,0-0.4,0-0.6c0-0.1,0-0.2,0-0.3s0-0.3,0-0.4s0-0.3,0-0.6
			s0-0.5-0.1-0.8c-0.1-0.1-0.1-0.2-0.1-0.3c0-0.2,0-0.3,0.1-0.5c0-0.2,0.1-0.3,0.1-0.4h-0.1c0,0.1,0,0.2-0.1,0.2
			c0,0-0.1,0.1-0.1,0.1c0,0.1,0,0.1-0.1,0.2c0,0.1-0.1,0.2-0.1,0.3c-0.1,0-0.1,0-0.1,0l0,0h0c0,0-0.1,0-0.1,0c0-0.1-0.1-0.3-0.2-0.4
			c-0.1-0.1-0.2-0.2-0.3-0.3c-0.1-0.1-0.2-0.2-0.4-0.2C78.6,2,78.5,2,78.3,2c-0.1,0-0.1,0-0.2,0v0.2c-0.1,0-0.2,0-0.4-0.1
			C77.7,2,77.6,2,77.4,2c0,0,0,0-0.1,0c0,0.2,0,0.5,0,0.7c0,0.2,0,0.4,0,0.7c-0.1,0.1-0.1,0.1-0.1,0.2c0,0.1,0,0.2,0,0.3
			c0,0.1,0.1,0.2,0.1,0.2c-0.1,0.2-0.2,0.4-0.2,0.6c0,0.3,0,0.6,0,0.9c0,0.2,0,0.4,0,0.6s0,0.3,0,0.5c0,0,0,0.1,0,0.1
			c0,0.1,0,0.2,0,0.4c0,0.2,0.1,0.3,0.1,0.5s0.1,0.3,0.1,0.5c0,0.1,0,0.2,0,0.4c0,0,0,0.1,0,0.1L77.5,8.9z M78.9,10.4l-0.4,0.3
			c0-0.1,0-0.2-0.1-0.2c0,0,0,0,0,0H78c0,0,0,0,0,0c0,0,0-0.1-0.1-0.1l-0.2,0.4c0.1,0.1,0.3,0.1,0.4,0.1c0.1,0,0.3,0.1,0.4,0.1
			c0.2,0,0.4,0,0.5-0.1c0-0.1-0.1-0.1-0.1-0.2s0-0.1-0.1-0.1L78.9,10.4z M78.8,10.7L78.8,10.7L78.8,10.7L78.8,10.7L78.8,10.7z
			 M81.3,2.6c-0.1,0.1-0.1,0.1-0.1,0.2c0,0.1-0.1,0.1-0.1,0.2h-0.1c-0.1,0.1-0.1,0.3-0.1,0.4c0,0.2-0.1,0.3-0.1,0.5c0,0,0,0.1,0,0.1
			l0.2-0.2c0,0,0.1-0.1,0.1-0.1c0,0,0.1,0,0.1,0c0-0.2,0.1-0.4,0.1-0.5C81.2,2.9,81.3,2.8,81.3,2.6L81.3,2.6z M81.5,8.1
			c-0.2,0.1-0.4,0.3-0.4,0.5C81,8.8,80.9,9,80.8,9.2C80.9,9.1,81,9,81,8.9c0.1-0.1,0.2-0.2,0.3-0.2c0-0.1,0-0.2,0.1-0.2
			c0,0,0-0.1,0.1-0.2c0,0,0,0,0,0C81.5,8.2,81.5,8.2,81.5,8.1L81.5,8.1z M81.4,4.1h-0.1v0.2l-0.1-0.1v0.6c0-0.1,0.1-0.2,0.1-0.3
			C81.3,4.3,81.4,4.2,81.4,4.1L81.4,4.1z M81.6,6.7c0,0-0.1,0.1-0.1,0.2c-0.1,0.1-0.1,0.1-0.1,0.2c0,0,0.1,0,0.1,0
			c0.1,0,0.1,0,0.1-0.1V6.7z M81.7,3.4h-0.1v0.1h-0.2v0.1c0.1,0,0.1,0,0.2,0C81.6,3.5,81.7,3.4,81.7,3.4L81.7,3.4z M81.7,6.4h-0.2
			v0.2c0,0,0.1,0,0.1,0C81.7,6.6,81.7,6.5,81.7,6.4L81.7,6.4z M82,5.1V4.9h0.1V4.8h-0.2c0,0,0,0.1,0,0.1c0,0.1,0,0.1-0.1,0.1L82,5.1
			z M82,5.1v0.6c0,0,0.1,0,0.1,0c0,0,0,0,0-0.1c0,0,0-0.1,0-0.2C82.1,5.3,82,5.2,82,5.1L82,5.1z"/>
		<path id="Path_15621" class="st0" d="M85,0.3c0.1,0,0.2,0.1,0.2,0.1c0.1,0,0.1,0,0.2,0c0,0.1,0,0.2,0,0.2c0,0.1,0,0.1-0.1,0.2
			c0.1,0.2,0.2,0.5,0.2,0.7c0,0.2,0,0.4-0.1,0.5c-0.2,0-0.4,0-0.5,0c-0.1,0-0.3,0-0.4-0.1v0.1H84c0,0-0.1,0.1-0.1,0.1
			c0,0-0.1,0.1-0.1,0.1h-0.3c0-0.1,0-0.1,0-0.1c0,0,0-0.1,0-0.1c0,0,0.1-0.1,0.1-0.1l0,0l0,0c0,0,0,0,0.1-0.1l0.1-0.3
			c-0.1,0.1-0.1,0.1-0.1,0.2s0,0.1-0.1,0.1c-0.1,0-0.1,0-0.2,0c0-0.1-0.1-0.2-0.1-0.3c0-0.1,0-0.2,0-0.3c0-0.1,0-0.2,0-0.2
			c0,0,0.1-0.1,0.1-0.1c0,0,0-0.1,0-0.1c0,0,0-0.1,0-0.1h0c0.1,0,0.1,0,0.1,0.1c0,0.1,0.1,0.2,0.1,0.3c0,0.1,0,0.3,0,0.4v0
			c0,0,0.1-0.1,0.1-0.1c0,0,0.1-0.1,0.1-0.1c0,0,0-0.1,0-0.1c0,0,0,0,0-0.1c0-0.1,0-0.1-0.1-0.1h0c0,0-0.1,0-0.1,0
			c0-0.1,0-0.2,0-0.2L85,0.3z M84,11.1c-0.1-0.1-0.2-0.2-0.3-0.3s-0.2-0.2-0.3-0.3c0-0.1,0-0.2,0.1-0.3c0-0.1,0.1-0.2,0.1-0.4
			c-0.1-0.1-0.2-0.3-0.2-0.5c0-0.2-0.1-0.4-0.1-0.6c0-0.4,0-0.7,0.1-1.1c0-0.3,0.1-0.6,0.1-0.8c0-0.1,0-0.3,0-0.4c0-0.1,0-0.3,0-0.4
			c0-0.3,0-0.5,0-0.8s0-0.6,0-0.9c0-0.3,0-0.6,0.1-0.9c0-0.3,0.1-0.6,0.2-0.9c0.1,0,0.3,0.1,0.3,0.2c0.1,0.1,0.2,0.2,0.3,0.3V2.9
			h0.6c0-0.1,0-0.1,0.1-0.1c0-0.1,0.1-0.1,0.1-0.1h0.2c0,0.1,0,0.2,0,0.2c0,0.1,0,0.2,0,0.2c-0.1,0.1-0.2,0.3-0.3,0.4
			c-0.1,0.2-0.2,0.3-0.3,0.5h0.1c0.1-0.1,0.2-0.2,0.3-0.3c0.1-0.1,0.3-0.1,0.4-0.1c0,0.2,0.1,0.3,0.1,0.5c0,0.2,0,0.4,0,0.6
			c0,0.1,0,0.3,0,0.4c0,0,0,0,0,0.1c0,0.1,0,0.2,0,0.2c0,0.1,0,0.2,0,0.2c-0.1,0.1-0.1,0.2-0.2,0.3c0,0.2-0.1,0.4-0.1,0.5
			c0,0.2,0,0.4,0,0.6s0,0.3,0,0.5v0.1c0,0.1-0.1,0.2-0.1,0.3c0,0.1-0.1,0.2-0.1,0.3c0,0.3,0,0.6,0,0.9s0,0.6,0,0.9s0,0.6,0,1
			c-0.2,0-0.4,0-0.6,0.1C84.3,11,84.2,11.1,84,11.1z M84.4,1.1c0,0-0.1,0.1-0.2,0.1c-0.1,0.1-0.2,0.1-0.2,0.1v0.3h-0.1l-0.1,0.1H84
			c0.1-0.1,0.1-0.2,0.2-0.2s0.1-0.1,0.1-0.2s0-0.1,0.1-0.1S84.4,1.2,84.4,1.1L84.4,1.1z M84,10.4h0.5l0.1-0.9
			c-0.1,0.1-0.2,0.3-0.3,0.4C84.3,10.2,84.2,10.3,84,10.4L84,10.4z M84.3,8c0.1,0,0.2-0.1,0.2-0.2c0-0.1,0.1-0.1,0.2-0.2l0.1-0.4
			c0,0,0-0.1,0-0.1l0,0c0,0,0,0,0,0c0,0,0,0,0,0V7h-0.1c-0.1,0.1-0.2,0.3-0.2,0.3c0,0.1-0.1,0.1-0.1,0.2c0,0.1-0.1,0.1-0.1,0.2
			C84.4,7.8,84.4,7.9,84.3,8L84.3,8z M84.4,5.5C84.5,5.5,84.5,5.4,84.4,5.5c0.1-0.1,0.2-0.1,0.2-0.1c0-0.1,0-0.1,0.1-0.2
			c0-0.1,0.1-0.1,0.1-0.2H85v0.3h0.2V5.2c0-0.1,0-0.3,0-0.4c0-0.1-0.1-0.3-0.2-0.4c-0.1,0.2-0.2,0.4-0.3,0.6
			C84.6,5.2,84.5,5.3,84.4,5.5L84.4,5.5z M84.4,6.6h0.2V6.4c0,0-0.1,0-0.1,0C84.5,6.5,84.5,6.6,84.4,6.6L84.4,6.6z M84.6,6.3
			c0.1-0.1,0.2-0.2,0.3-0.2c0,0,0.1,0,0.1,0l0.1-0.5C85,5.6,85,5.7,85,5.8c0,0.1-0.1,0.1-0.1,0.2h-0.2L84.6,6.3z M85.1,1.5
			c-0.1,0.1-0.2,0.2-0.3,0.2c0,0-0.1,0-0.1,0v0.3c0,0,0-0.1,0-0.1c0,0,0-0.1,0-0.1H85L85.1,1.5z M84.9,0.6C84.9,0.6,85,0.5,84.9,0.6
			C85,0.5,85,0.5,85,0.5l0,0L84.9,0.6C84.9,0.5,84.9,0.6,84.9,0.6L84.9,0.6z"/>
		<path id="Path_15622" class="st0" d="M90.8,13.4c-0.1,0-0.3,0-0.4,0.1l-0.3,0.1c-0.1,0-0.2,0-0.4,0.1s-0.4,0-0.7,0
			c0,0,0-0.1-0.1-0.1c-0.1,0-0.2,0-0.3,0c-0.1,0-0.3,0-0.4,0c-0.1,0-0.2,0-0.3,0c-0.1,0-0.2-0.1-0.2-0.2c0,0-0.1,0-0.1,0
			c0,0-0.1,0-0.1,0c-0.2,0-0.3-0.1-0.4-0.2c-0.2-0.2-0.3-0.4-0.4-0.7l-0.1-0.3c0.1-0.1,0.2-0.2,0.3-0.2s0.1-0.1,0.1-0.1s0,0-0.1,0
			c0,0-0.1,0-0.1,0c0,0-0.1-0.1-0.1-0.1c0-0.1-0.1-0.2-0.1-0.2l0.6,0.2c0,0,0,0,0,0c0,0,0,0,0,0c0,0,0.1,0,0.1-0.1
			c0-0.1,0.1-0.1,0.2-0.1c0,0,0,0,0,0h0.9v0.1l0.1,0.1l0.1,0.3l-0.1-0.1c0,0-0.1,0.1-0.1,0.1c0,0-0.1,0.1-0.1,0.2h0.2v0.3
			c0,0,0.1-0.1,0.1-0.1c0,0,0.1-0.1,0.1-0.1v-0.2c0.1,0.1,0.2,0.1,0.3,0.2c0.1,0.1,0.2,0.1,0.3,0.1c0.2,0,0.3-0.1,0.4-0.1
			c0.1,0,0.2-0.1,0.3-0.1c0.1,0,0.2-0.1,0.2-0.2c0.1-0.1,0.2-0.2,0.2-0.3c0-0.3,0-0.5,0.1-0.8c0-0.3,0.1-0.6,0.1-0.9
			c-0.1,0.1-0.2,0.2-0.3,0.3c-0.1,0.1-0.2,0.2-0.3,0.3c-0.1,0.1-0.2,0.1-0.3,0.2c-0.1,0-0.1,0.1-0.2,0.1c0,0-0.1,0-0.1,0
			c0,0.1,0,0.1-0.1,0.1c-0.1,0-0.1,0-0.2,0c0,0-0.1,0-0.1,0c-0.1-0.1-0.2-0.2-0.4-0.2c-0.1,0-0.2,0-0.3,0c-0.1,0-0.2,0-0.3-0.1
			c-0.1-0.1-0.2-0.2-0.2-0.4h-0.1v0.2c-0.2,0-0.4-0.1-0.6-0.2c-0.2-0.1-0.3-0.3-0.4-0.5c0,0-0.1,0-0.1-0.1c0-0.1-0.1-0.2-0.1-0.3
			c0-0.1,0-0.3,0-0.4c0-0.2,0-0.3,0-0.5c0-0.3,0-0.7,0-1c0-0.3,0-0.5,0-0.6c0,0,0-0.1,0-0.1l0-0.1c0-0.1,0-0.1,0.1-0.2
			c0-0.1,0-0.2,0.1-0.3c-0.1,0-0.1,0-0.2,0c-0.1,0-0.1,0-0.2,0c0-0.1,0.1-0.1,0.1-0.2c0-0.1,0.1-0.1,0.1-0.2c0-0.2,0.1-0.4,0.2-0.6
			c0.1-0.2,0.2-0.4,0.4-0.6c0.1-0.2,0.3-0.4,0.5-0.6c0.1-0.1,0.3-0.3,0.5-0.4c0.1,0,0.2,0,0.2,0c0,0,0.1,0,0.2,0
			c0-0.1,0-0.2,0.1-0.2c0,0,0.1-0.1,0.1-0.1c0,0,0,0,0.1,0c0,0,0.1,0,0.1,0c0,0,0,0,0,0c0,0,0,0,0,0c0,0,0.1,0.1,0.1,0.1H89
			C89,3.1,89.1,3,89.1,3c0.1-0.1,0.2-0.1,0.3-0.1V3l0.1,0.1c0.1,0,0.1-0.1,0.2-0.1c0-0.1,0.1-0.1,0.1-0.2H90c0,0.1,0,0.1,0,0.2
			c0.1,0,0.1,0,0.2,0c0.1-0.1,0.2-0.2,0.4-0.1c0.2,0,0.4,0.1,0.5,0.2c0.1,0.1,0.3,0.2,0.4,0.3c0,0,0.1,0,0.1,0c0.1,0,0.2,0,0.3-0.1
			c0.1,0,0.2-0.1,0.2-0.1c0.1,0,0.2,0.1,0.2,0.1c0.1,0,0.1,0.1,0.1,0.3c0,0.2,0,0.5-0.1,0.7c0,0.3-0.1,0.5-0.1,0.8
			c0,0.1,0,0.3,0.1,0.4c0,0.1,0.1,0.2,0.2,0.2c0,0.1,0,0.2,0,0.3c0,0.1,0,0.2,0.1,0.3v1c0,0-0.1,0-0.1,0c0,0,0,0,0,0v0
			c0,0.2-0.1,0.4-0.1,0.5c0,0.1,0,0.2,0,0.3c0,0,0,0.1,0,0.1c0,0,0,0.1-0.1,0.1h0.1l-0.1,0.8h-0.1c0,0.1,0,0.1-0.1,0.2
			c0,0.1-0.1,0.1-0.1,0.2l0.3-0.1v0.7c0,0.3,0,0.5,0,0.6c0,0.2,0,0.3-0.1,0.5c0,0-0.1,0-0.2,0.1c-0.1,0.1-0.1,0.2-0.2,0.3
			c-0.1,0.1-0.1,0.2-0.2,0.3c0,0.1-0.1,0.1-0.2,0.2c0.1,0,0.2,0,0.3,0c0.1,0,0.2,0,0.2,0c0,0,0.1,0,0.1,0.1c0,0,0,0,0,0l-0.2,0.2
			c-0.1,0.1-0.2,0.2-0.4,0.4c-0.1,0.1-0.3,0.2-0.4,0.4C91.1,13.2,90.9,13.3,90.8,13.4z M87,9.4c0,0,0.1-0.1,0.1-0.1
			c0.1,0,0.1-0.1,0.1-0.1c0-0.1,0-0.2,0-0.3c0-0.1,0-0.2,0.1-0.3c-0.1,0-0.1,0-0.2,0c-0.1,0-0.1,0-0.2,0.1V9.4z M87.4,5.7h0.1
			c0.1-0.1,0.1-0.3,0.2-0.4s0.1-0.2,0.2-0.2c0,0,0.1,0,0.1,0.1C88,5.1,88,5.1,88.1,5c0-0.1,0.1-0.1,0.1-0.2h-0.1L88,4.4
			c0,0-0.1,0.1-0.1,0.1c0,0.1,0,0.2,0,0.3c-0.1,0.1-0.2,0.3-0.2,0.3s-0.1,0.1-0.1,0.2c0,0,0,0.1-0.1,0.1C87.4,5.5,87.4,5.6,87.4,5.7
			L87.4,5.7z M87.7,6.2h0.1V6.1L87.7,6.2z M89.2,9.7c0,0,0.1-0.1,0.1-0.1c0.1,0,0.2,0,0.4,0V9.4h0.2V9.3H90C90,9.2,90,9,90,8.9
			c0-0.1,0-0.2,0.1-0.4h0.1V7.9c0-0.1,0-0.2,0-0.3c0-0.1,0-0.2,0-0.4c0,0,0-0.1,0-0.1V6.9c0-0.2,0-0.4,0.1-0.7
			c0-0.2,0.1-0.4,0.1-0.7c0-0.1-0.1-0.3-0.1-0.4c0-0.1-0.1-0.3-0.1-0.4c-0.1,0-0.2,0-0.2-0.1c0,0-0.1-0.1-0.1-0.1V4.3
			c-0.2-0.1-0.4-0.1-0.6-0.1c-0.1,0-0.3,0-0.4,0.1c-0.1,0-0.3,0.1-0.4,0.1c0,0.3,0,0.6-0.1,0.9c-0.1,0.3-0.2,0.6-0.3,0.9
			c0,0.1,0,0.3,0,0.4c0,0.1,0,0.2,0,0.4h0.1c-0.1,0.2-0.2,0.5-0.3,0.7C88.1,7.8,88,8,88,8.2c0,0.1,0,0.2,0,0.3s0,0.2,0,0.3h0.1
			c0,0.1,0.1,0.2,0.1,0.2c0,0.1,0,0.1,0,0.2h0.2V9.3h0.1V9.1c0,0,0.1-0.1,0.1-0.1c0.1,0,0.1,0,0.1,0.1v0.1h0.1c0,0.1,0,0.1,0,0.2
			c0,0.1,0,0.2,0.1,0.2c0,0,0.1,0,0.1,0C89.1,9.6,89.2,9.6,89.2,9.7L89.2,9.7z M89.9,10.1C89.9,10.1,89.9,10.1,89.9,10.1
			C90,10,90,10,90,9.9c0,0,0,0,0,0c0,0,0,0,0,0C89.9,10,89.9,10.1,89.9,10.1L89.9,10.1z M90.4,13.2h0.3c0,0,0-0.1,0.1-0.1l0.2-0.2
			c0.1-0.1,0.1-0.1,0.2-0.2c0,0,0.1-0.1,0.1-0.1c0,0,0,0,0-0.1c0,0-0.1,0.1-0.2,0.1c-0.1,0-0.2,0.1-0.4,0.1L90.4,13.2L90.4,13.2z
			 M90.4,9.2h0.1L90.6,9c0,0,0,0,0,0c0,0,0,0-0.1-0.1c0,0.1,0,0.1-0.1,0.1C90.5,9.1,90.4,9.1,90.4,9.2L90.4,9.2z M90.8,6.7l0.1-0.4
			h-0.1V6.7z M91,9.8l0.2-0.2H91V9.8z M91.4,9.4c0.1-0.1,0.2-0.3,0.2-0.5c-0.1,0.1-0.2,0.2-0.3,0.3c-0.1,0.1-0.2,0.3-0.2,0.4
			c0,0,0.1-0.1,0.1-0.1S91.4,9.4,91.4,9.4L91.4,9.4z M91.5,6.6c0.1-0.2,0.2-0.3,0.3-0.4c0.1-0.1,0.1-0.2,0.2-0.3L92,5.8H92v0.1h-0.1
			l-0.3,0.6L91.5,6.6z M91.6,8.8c0.1-0.1,0.1-0.2,0.1-0.3c0-0.1,0-0.1,0-0.2V8.1c-0.1,0.1-0.2,0.2-0.2,0.4
			C91.6,8.6,91.6,8.7,91.6,8.8L91.6,8.8z M91.7,7.4L91.7,7.4c0.1-0.1,0.1-0.1,0.1-0.2c0,0,0,0,0,0C91.7,7.3,91.7,7.3,91.7,7.4
			C91.7,7.3,91.7,7.3,91.7,7.4L91.7,7.4z M91.7,10.5c0.1,0,0.1-0.1,0.2-0.1c0.1-0.1,0.1-0.1,0.2-0.2c0-0.1,0-0.2,0-0.3
			c0-0.1,0-0.1,0-0.1s0,0,0,0H92c-0.1,0.1-0.1,0.2-0.1,0.3C91.8,10.2,91.7,10.4,91.7,10.5L91.7,10.5z"/>
		<path id="Path_15623" class="st0" d="M95.2,0.3c0.1,0,0.2,0.1,0.2,0.1c0.1,0,0.1,0,0.2,0c0,0.1,0,0.2,0,0.2c0,0.1,0,0.1-0.1,0.2
			c0.1,0.2,0.2,0.5,0.2,0.7c0,0.2,0,0.4-0.1,0.5c-0.2,0-0.4,0-0.5,0c-0.1,0-0.3,0-0.4-0.1v0.1h-0.5c0,0-0.1,0.1-0.1,0.1
			c0,0-0.1,0.1-0.1,0.1h-0.3c0-0.1,0-0.1,0-0.1c0,0,0-0.1,0-0.1c0,0,0.1-0.1,0.1-0.1l0,0l0,0c0,0,0,0,0.1-0.1l0.1-0.3
			c-0.1,0.1-0.1,0.1-0.1,0.2s0,0.1-0.1,0.1c-0.1,0-0.1,0-0.2,0c0-0.1-0.1-0.2-0.1-0.3c0-0.1,0-0.2,0-0.3c0-0.1,0-0.2,0-0.2
			c0,0,0.1-0.1,0.1-0.1c0,0,0-0.1,0-0.1c0,0,0-0.1,0-0.1h0c0.1,0,0.1,0,0.1,0.1c0,0.1,0.1,0.2,0.1,0.3c0,0.1,0,0.3,0,0.4v0
			c0,0,0.1-0.1,0.1-0.1c0,0,0.1-0.1,0.1-0.1c0,0,0-0.1,0-0.1c0,0,0,0,0-0.1c0-0.1,0-0.1-0.1-0.1h0c0,0-0.1,0-0.1,0
			c0-0.1,0-0.2,0-0.2L95.2,0.3z M94.2,11.1c-0.1-0.1-0.2-0.2-0.3-0.3s-0.2-0.2-0.3-0.3c0-0.1,0-0.2,0.1-0.3c0-0.1,0.1-0.2,0.1-0.4
			c-0.1-0.1-0.2-0.3-0.2-0.5c0-0.2-0.1-0.4-0.1-0.6c0-0.4,0-0.7,0.1-1.1c0-0.3,0.1-0.6,0.1-0.8c0-0.1,0-0.3,0-0.4c0-0.1,0-0.3,0-0.4
			c0-0.3,0-0.5,0-0.8s0-0.6,0-0.9c0-0.3,0-0.6,0.1-0.9c0-0.3,0.1-0.6,0.2-0.9c0.1,0,0.3,0.1,0.3,0.2c0.1,0.1,0.2,0.2,0.3,0.3V2.9H95
			c0-0.1,0-0.1,0.1-0.1c0-0.1,0.1-0.1,0.1-0.1h0.2c0,0.1,0,0.2,0,0.2c0,0.1,0,0.2,0,0.2c-0.1,0.1-0.2,0.3-0.3,0.4
			C95.1,3.7,95,3.8,94.9,4H95c0.1-0.1,0.2-0.2,0.3-0.3c0.1-0.1,0.3-0.1,0.4-0.1c0,0.2,0.1,0.3,0.1,0.5c0,0.2,0,0.4,0,0.6
			c0,0.1,0,0.3,0,0.4c0,0,0,0,0,0.1c0,0.1,0,0.2,0,0.2c0,0.1,0,0.2,0,0.2c-0.1,0.1-0.1,0.2-0.2,0.3c0,0.2-0.1,0.4-0.1,0.5
			c0,0.2,0,0.4,0,0.6s0,0.3,0,0.5v0.1c0,0.1-0.1,0.2-0.1,0.3c0,0.1-0.1,0.2-0.1,0.3c0,0.3,0,0.6,0,0.9s0,0.6,0,0.9s0,0.6,0,1
			c-0.2,0-0.4,0-0.6,0.1C94.5,11,94.4,11.1,94.2,11.1L94.2,11.1z M94.6,1.1c0,0-0.1,0.1-0.2,0.1c-0.1,0.1-0.2,0.1-0.2,0.1v0.3h-0.1
			L94,1.8h0.2c0.1-0.1,0.1-0.2,0.2-0.2s0.1-0.1,0.1-0.2s0-0.1,0.1-0.1S94.6,1.2,94.6,1.1L94.6,1.1z M94.3,10.5h0.5l0.1-0.9
			c-0.1,0.1-0.2,0.3-0.3,0.4C94.5,10.2,94.4,10.3,94.3,10.5L94.3,10.5z M94.5,8c0.1,0,0.2-0.1,0.2-0.2c0-0.1,0.1-0.1,0.2-0.2L95,7.2
			c0,0,0-0.1,0-0.1l0,0c0,0,0,0,0,0c0,0,0,0,0,0V7H95c-0.1,0.1-0.2,0.3-0.2,0.3c0,0.1-0.1,0.1-0.1,0.2c0,0.1-0.1,0.1-0.1,0.2
			C94.6,7.8,94.6,7.9,94.5,8L94.5,8z M94.6,5.5C94.7,5.5,94.7,5.4,94.6,5.5c0.1-0.1,0.2-0.1,0.2-0.1c0-0.1,0-0.1,0.1-0.2
			C94.9,5.1,95,5.1,95,5h0.2v0.3h0.2V5.2c0-0.1,0-0.3,0-0.4c0-0.1-0.1-0.3-0.2-0.4C95.1,4.7,95,4.9,94.9,5
			C94.8,5.2,94.7,5.3,94.6,5.5L94.6,5.5z M94.6,6.6h0.2V6.4c0,0-0.1,0-0.1,0C94.7,6.5,94.7,6.6,94.6,6.6L94.6,6.6z M94.8,6.3
			c0.1-0.1,0.2-0.2,0.3-0.2c0,0,0.1,0,0.1,0l0.1-0.5c-0.1,0.1-0.1,0.1-0.1,0.2c0,0.1-0.1,0.1-0.1,0.2h-0.2L94.8,6.3z M95.3,1.5
			C95.1,1.6,95,1.6,95,1.6c0,0-0.1,0-0.1,0v0.3c0,0,0-0.1,0-0.1c0,0,0-0.1,0-0.1h0.2L95.3,1.5z M95.1,0.6
			C95.1,0.6,95.2,0.5,95.1,0.6c0.1-0.1,0.1-0.1,0.1-0.2l0,0L95.1,0.6C95.1,0.5,95.1,0.6,95.1,0.6L95.1,0.6z"/>
		<path id="Path_15624" class="st0" d="M97.3,4.5C97.3,4.5,97.3,4.6,97.3,4.5c-0.1,0.1-0.1,0.1-0.2,0.1c-0.1-0.1-0.2-0.1-0.3-0.1
			c-0.1,0-0.2-0.1-0.3-0.1c0-0.2-0.1-0.4-0.1-0.6c0-0.2-0.1-0.4-0.1-0.6C96.4,3,96.5,3,96.7,3c0.1,0,0.3,0,0.4,0c0.1,0,0.2,0,0.3,0
			c0-0.4,0-0.9,0-1.3c0-0.4,0.1-0.8,0.2-1.1c0.1,0,0.2,0.1,0.3,0.2C97.9,0.9,98,1,98,1.1V0.9h0.5c0-0.1,0-0.1,0.1-0.2
			c0-0.1,0-0.1,0.1-0.2h0.2c0,0.1,0.1,0.2,0.1,0.3c0,0.1,0,0.2,0,0.3c0,0.2-0.1,0.4-0.2,0.6c-0.1,0.2-0.1,0.4-0.2,0.6
			c0.1-0.2,0.2-0.3,0.3-0.5c0.1-0.1,0.2-0.2,0.3-0.2c0,0.2,0.1,0.5,0.1,0.8c0,0.3,0,0.5,0.1,0.8C99.4,3,99.5,3,99.6,3
			c0.1,0,0.3,0,0.4,0h0.3c-0.1,0.1-0.1,0.1-0.1,0.2c0,0,0,0.1,0,0.1v0l-0.3,0.3c0,0,0,0,0,0s0,0,0.1,0c0,0,0.1,0,0.1,0
			c0,0,0.1,0,0.1,0c0,0,0-0.1,0-0.1c0-0.1,0-0.1,0.1-0.2c0-0.1,0.1-0.1,0.1-0.1c0,0,0.1-0.1,0.1-0.1c0,0.1,0.1,0.2,0.1,0.3
			c0,0.1,0,0.3,0,0.4c0,0.1,0,0.2,0,0.4c0,0.1,0,0.2-0.1,0.2h-0.9c0,0-0.1-0.1-0.2-0.1c-0.1,0-0.2-0.1-0.2-0.1
			c0,0.2-0.1,0.4-0.1,0.6c0,0.3,0,0.6,0,0.9v1.1c0,0.1,0,0.3,0.1,0.4c0,0.1,0.1,0.3,0.1,0.4v0.9c0.1,0,0.2,0.1,0.2,0.2
			c0,0.1,0,0.2-0.1,0.3c-0.1,0.1-0.1,0.2-0.1,0.2c0,0,0.1,0.1,0.2,0.1c0.1,0.1,0.3,0.1,0.4,0.1c0.2,0,0.4,0,0.7-0.1
			c0,0.1,0,0.3,0,0.4c0,0.1,0,0.2,0,0.2c0,0,0,0.1-0.1,0.1l-0.1,0.1l0.2,0.5c-0.1,0.1-0.1,0.1-0.2,0.2c0,0.1-0.1,0.1-0.2,0.1
			c0,0-0.1,0-0.1-0.1v-0.2c-0.1,0.1-0.3,0.2-0.4,0.3c-0.1,0.1-0.2,0.2-0.4,0.3v-0.4c-0.1,0-0.2,0-0.2-0.1c0,0-0.1-0.1-0.1-0.1
			c0,0.1,0,0.1,0,0.1c0,0,0,0.1,0,0.1c-0.1,0-0.1,0-0.2,0c0,0-0.1,0-0.1,0c-0.1,0-0.2-0.1-0.3-0.1v-0.1H98v-0.1L98,10.6v-0.1
			c0,0-0.1-0.1-0.2-0.1c-0.1-0.1-0.1-0.1-0.2-0.1c0,0-0.1,0-0.1,0c-0.1,0-0.1-0.1-0.1-0.1c0-0.1,0-0.2,0-0.3c0-0.1,0-0.1,0-0.2
			c0,0,0-0.1,0.1-0.1c0.1,0,0.1,0,0.1-0.1h-0.3V9.4h-0.1c0-0.1,0-0.2,0.1-0.2c0.1-0.1,0.1-0.2,0.1-0.2c0-0.1,0-0.2,0-0.4
			s0-0.3,0-0.5c0-0.2,0-0.4,0-0.6s0-0.4,0-0.5c0-0.1,0-0.2,0-0.3c0-0.2,0-0.4,0-0.6c0-0.3,0-0.5,0-0.8C97.4,5,97.3,4.8,97.3,4.5z
			 M97.8,6.8c0.1-0.2,0.1-0.4,0.2-0.6c0-0.2,0-0.4,0-0.6c0.1,0,0.3-0.1,0.3-0.2c0-0.1,0.1-0.2,0.1-0.4h-0.1v0.1
			c-0.1,0-0.2,0.1-0.2,0.2c-0.1,0.1-0.1,0.1-0.2,0.2h-0.1v0.9h-0.1c0,0,0,0.1,0,0.1C97.7,6.7,97.7,6.7,97.8,6.8L97.8,6.8z M97.8,7
			c0,0.1,0,0.2-0.1,0.3l0.1-0.1V6.9L97.8,7z M97.9,4.5C97.8,4.5,97.8,4.5,97.9,4.5c-0.1,0.1,0,0.1,0,0.2V4.5z M98,9.9v0.2
			C98.1,10,98.1,10,98,9.9C98.1,9.9,98.1,9.9,98,9.9c0.1,0,0.1,0,0.1,0H98z M98.3,4c0-0.1,0-0.1,0.1-0.1h-0.1L98.3,4
			c0,0.1,0,0.1,0,0.2c0,0.1,0,0.2-0.1,0.2c0.1,0,0.2-0.1,0.3-0.2c0.1-0.1,0.1-0.2,0.2-0.2c0,0,0-0.1,0-0.1c0,0,0-0.1-0.1-0.1h-0.1V4
			c0,0,0,0-0.1,0C98.4,4,98.4,4,98.3,4l0,0.1l0,0C98.3,4.1,98.3,4,98.3,4L98.3,4z M98.9,3.4c0-0.1,0-0.2,0-0.4c0-0.1,0-0.2,0-0.3
			c0,0.1-0.1,0.2-0.1,0.3s-0.1,0.2-0.1,0.3L98.9,3.4z M99.1,10.2c0,0-0.1,0.1-0.1,0.1c0,0-0.1,0-0.1,0h-0.1v0.4L99.1,10.2z"/>
		<path id="Path_15625" class="st0" d="M103.7,11.1l-0.2-0.1c-0.1,0-0.1,0-0.2-0.1c0,0-0.1,0-0.1,0c-0.1-0.1-0.1-0.1-0.1-0.2
			c0,0,0,0-0.1,0c0,0-0.1,0-0.1,0c0,0-0.1,0.1-0.1,0.1c0,0-0.1,0-0.1,0c0,0-0.1,0-0.1,0c0,0-0.1,0-0.1,0c0,0-0.1,0-0.3,0
			s-0.3-0.1-0.4-0.2c0-0.1,0-0.1-0.1-0.2c0-0.1-0.1-0.1-0.1-0.2c-0.1-0.2-0.2-0.5-0.3-0.8c-0.1-0.3-0.2-0.7-0.2-1
			c0-0.2,0.1-0.3,0.1-0.5c0.2-0.2,0.3-0.4,0.5-0.6c0.3-0.3,0.4-0.4,0.4-0.4l0.1,0.1c0.2-0.2,0.5-0.4,0.8-0.5c0.3-0.1,0.7-0.1,1-0.1
			c0.1,0,0.1-0.1,0.2-0.1c0,0,0-0.1,0-0.1c0.1,0,0.2-0.1,0.3-0.1c0.1,0,0.2-0.1,0.3-0.1V5.6c0-0.1,0-0.3-0.1-0.4c0-0.1,0-0.2,0-0.3
			c0-0.1,0-0.1-0.1-0.2c0-0.1-0.1-0.1-0.2-0.1c-0.1,0-0.3-0.1-0.4-0.1s-0.3-0.1-0.5-0.1c-0.1,0-0.1,0-0.1,0c0,0-0.1,0-0.1,0
			c0,0,0,0.1,0,0.1s0,0.1,0,0.1c0,0.1,0,0.2,0,0.3c0,0.2,0,0.3-0.1,0.5H103c-0.1,0-0.1,0-0.3,0c0.1,0,0,0-0.1-0.1
			c-0.1,0-0.2,0-0.3,0c-0.1,0.1-0.3,0.1-0.5,0.1c-0.2,0-0.5,0-0.7-0.1c0-0.2,0-0.4,0.1-0.5c0-0.1,0.1-0.3,0.2-0.4
			c0.1-0.1,0.2-0.3,0.2-0.4c0.1-0.1,0.2-0.3,0.3-0.4c0.1-0.1,0.3-0.3,0.4-0.4c0.2-0.1,0.3-0.2,0.5-0.3c0.3,0,0.5-0.1,0.8-0.2
			c0.3-0.1,0.6-0.1,0.8-0.1c0.1,0,0.2,0,0.3,0c0.1,0,0.2,0,0.3,0.1v0.1l1.1,0.5c0,0.1,0,0.2,0.1,0.2c0,0.1,0.1,0.1,0.1,0.2
			c0,0,0,0,0.1,0.1l0.1,0.1c0,0-0.1,0-0.3,0c0.4,0.2,0.5,0.4,0.5,0.5c0.1,0.2,0.1,0.4,0.1,0.6c0,0.2,0,0.3,0,0.4
			c0,0.2-0.1,0.3-0.1,0.3c0,0.5,0,0.7,0,0.5c0,0.3,0.1,0.5,0.1,0.7s0,0.4,0,0.5s0,0.2,0,0.3V8c0,0.1,0,0.3-0.1,0.4c0,0,0,0,0.1,0
			c0,0.3,0,0.4-0.1,0.2c0,0.2,0,0.4-0.1,0.7l0.1,0.2l0.1,0.3h0.2c0,0.2,0,0.4,0,0.6c0,0.2,0,0.4,0.1,0.6h-0.6c-0.2,0-0.3,0-0.5,0
			c-0.2,0-0.3-0.1-0.4-0.1c-0.1-0.1-0.3-0.1-0.4-0.2c-0.1-0.1-0.2-0.2-0.2-0.4h-0.3c-0.1,0.1-0.2,0.2-0.2,0.3s-0.1,0.2-0.2,0.2
			c-0.1,0.1-0.1,0.1-0.2,0.2C103.9,11,103.8,11,103.7,11.1z M102.3,7.2c-0.1,0.1-0.2,0.1-0.3,0.2c-0.1,0.1-0.2,0.1-0.3,0.1L101.6,8
			L102.3,7.2z M102.3,8l-0.1-0.1h-0.1c-0.1,0.2-0.1,0.3-0.2,0.5s-0.1,0.2-0.1,0.3l-0.1,0.2c0,0.1,0,0.2-0.1,0.3
			c0.1-0.1,0.1-0.2,0.2-0.3c0-0.1,0.1-0.2,0.2-0.2V8.1L102.3,8L102.3,8z M103.4,9.7c0,0,0.1,0,0.2,0c0,0,0.1,0,0.1,0
			c0.1,0,0.1,0,0.2,0c0,0,0.1-0.1,0.2-0.2c0.1-0.1,0.2-0.1,0.3-0.2c0.1-0.2,0.2-0.4,0.3-0.6c0.1-0.2,0.1-0.4,0.1-0.6
			c0-0.2,0.1-0.4,0.1-0.6c0-0.2,0-0.5,0-0.7c0,0,0,0-0.1,0c0,0,0,0-0.1,0c-0.1,0-0.3,0-0.4,0.1c-0.1,0-0.3,0.1-0.4,0.1
			c-0.1,0.1-0.3,0.1-0.4,0.2c-0.1,0.1-0.2,0.2-0.2,0.3c-0.2,0.1-0.3,0.2-0.4,0.4c-0.1,0.2-0.1,0.3-0.1,0.5c0,0.1,0,0.1,0,0.2
			s0,0.2,0,0.3c0,0,0.1,0,0.1,0C103,9,103,9,103,9c0,0.1-0.1,0.2-0.1,0.2c0,0-0.1,0.1-0.1,0.2l0.1,0.1c0.1,0,0.2,0.1,0.3,0.1
			C103.3,9.6,103.4,9.7,103.4,9.7z M103.9,3.8l0.1-0.2c-0.1,0-0.2,0-0.2,0c-0.1,0-0.1,0-0.2,0.1v0.1L103.9,3.8z M104.6,3.4
			c0.1,0,0.2,0,0.2-0.1c0.1-0.1,0.1-0.2,0.2-0.3c-0.1,0-0.2,0-0.3,0c-0.1,0-0.1,0-0.2,0v0.1c0,0.1,0,0.1,0,0.2
			C104.6,3.3,104.6,3.4,104.6,3.4L104.6,3.4z M105.6,10.4c0.1,0,0.1,0,0.1,0c0,0,0.1,0,0.1,0c0,0-0.1-0.1-0.1-0.2c0-0.1,0-0.1,0-0.2
			c-0.1,0-0.2,0.1-0.2,0.1c-0.1,0-0.1,0-0.2,0v0.2c0,0,0,0.1,0.1,0.1C105.5,10.3,105.5,10.3,105.6,10.4L105.6,10.4z M105.7,6.9
			c0,0,0.1-0.1,0.1-0.1c0,0,0.1,0,0.1,0c0-0.1,0.1-0.3,0.1-0.4c0.1-0.2,0.2-0.5,0.2-0.8c-0.2,0.2-0.3,0.4-0.4,0.6
			c-0.1,0.1-0.1,0.2-0.2,0.3c0,0,0,0.1-0.1,0.1c0,0-0.1,0.1-0.1,0.1C105.6,6.8,105.6,6.8,105.7,6.9C105.7,6.9,105.7,6.9,105.7,6.9
			L105.7,6.9z M106,8.6h0.2l-0.1-0.2c0,0-0.1,0-0.1,0C106,8.5,106,8.6,106,8.6L106,8.6z M106.2,10.5L106.2,10.5
			c0-0.1-0.1-0.2-0.1-0.2c0,0-0.1,0-0.1-0.1v0.2L106.2,10.5z M106.1,8.2c0.1-0.1,0.2-0.2,0.3-0.3c0,0,0.1,0,0.1,0l0.1-0.6
			c0-0.3,0-0.3-0.1,0c-0.1,0.2-0.1,0.4-0.1,0.5h-0.2V8.2z"/>
		<path id="Path_15626" class="st0" d="M109.3,0.2c0.1,0.1,0.2,0.3,0.3,0.4c0.1,0.1,0.2,0.2,0.3,0.3c0,0.1,0,0.3-0.1,0.4
			c0,0.1,0,0.3-0.1,0.4c0.2,0.2,0.2,0.4,0.3,0.7c0,0.3,0.1,0.6,0.1,1c0,0.4,0,0.8-0.1,1.2s-0.1,0.7-0.1,1c0,0.1,0.1,0.3,0.1,0.4
			c0,0.1,0.1,0.3,0.1,0.4c0,0.1,0,0.2,0,0.3s0,0.2,0,0.3c0,0.4,0,0.7,0,1.1c0,0.4,0,0.7,0,1.1c0,0.3,0,0.6,0,0.9
			c0,0.3-0.1,0.6-0.2,0.8c-0.1,0-0.2,0-0.2-0.1c-0.1,0-0.1-0.1-0.2-0.1c0-0.1-0.1-0.1-0.1-0.2c-0.1-0.1-0.1-0.1-0.2-0.2v0.2
			c-0.1,0-0.2,0-0.3,0c-0.1,0-0.2,0-0.3,0c0,0.1,0,0.1-0.1,0.1c0,0-0.1,0.1-0.1,0.1h-0.2c0-0.1,0-0.1,0-0.2c0-0.1,0-0.2,0-0.3
			c0.1-0.2,0.2-0.4,0.2-0.6c0.1-0.2,0.1-0.4,0.2-0.6V9.2c-0.1,0.2-0.2,0.4-0.3,0.5c-0.1,0.1-0.3,0.2-0.5,0.2c0-0.3-0.1-0.6-0.1-0.9
			c0-0.3-0.1-0.6-0.1-1c0.1,0,0.1-0.1,0.1-0.2c0-0.1,0-0.2,0-0.3c0-0.1,0-0.1-0.1-0.2c0.1-0.2,0.2-0.4,0.2-0.7c0-0.3,0-0.7,0-1
			c0-0.2,0-0.4,0-0.6s0-0.3,0-0.4c0-0.1,0.1-0.2,0.1-0.3c0.1-0.1,0.1-0.2,0.1-0.4c0-0.6,0-1.2-0.1-1.8c-0.1-0.6-0.1-1.2-0.1-1.8
			l0.6-0.1c0.1,0,0.2,0,0.3-0.1C109.1,0.2,109.2,0.2,109.3,0.2z M109,7.3c0,0-0.1,0.1-0.1,0.1c0,0-0.1,0.1-0.1,0.1
			c0,0.1,0,0.1-0.1,0.2c0,0.1-0.1,0.1-0.1,0.2c0,0,0,0.1-0.1,0.1c0,0-0.1,0-0.1,0c0-0.1,0-0.1,0-0.2c0-0.1,0-0.1-0.1-0.2h-0.1
			c0,0.2,0,0.4,0,0.6c0,0.2,0.1,0.3,0.2,0.5c0.1-0.3,0.2-0.5,0.3-0.7C108.9,7.7,109,7.5,109,7.3L109,7.3z M108.7,6.4
			c0,0-0.1,0.1-0.1,0.1s0,0-0.1,0.1c0,0-0.1,0-0.1,0.1l-0.1,0.1v0.6c0-0.1,0.1-0.2,0.1-0.2c0-0.1,0.1-0.2,0.1-0.2h0.1L108.7,6.4z
			 M108.9,4.2c0,0.1-0.1,0.2-0.2,0.3c-0.1,0.1-0.1,0.2-0.2,0.2v0.6h-0.1v0.2h0.1c0.1-0.2,0.1-0.3,0.2-0.5s0.1-0.2,0.1-0.3
			s0-0.2,0.1-0.2S108.9,4.3,108.9,4.2L108.9,4.2z M109.1,0.9C109.1,1,109,1,108.9,1c-0.1,0-0.2,0-0.3,0v1.1c0.1-0.2,0.2-0.4,0.3-0.6
			c0.1-0.2,0.2-0.4,0.3-0.5C109.2,1,109.1,1,109.1,0.9C109.1,0.9,109.1,0.9,109.1,0.9L109.1,0.9z M108.8,5.9v0.3l0.1-0.3H108.8z"/>
		<path id="Path_15627" class="st0" d="M116.3,0.5c0.1,0.1,0.2,0.2,0.3,0.3c0.1,0.1,0.2,0.2,0.3,0.3c0,0.1,0,0.3,0,0.4
			c0,0.1,0,0.3,0,0.4c0.2,0.2,0.3,0.5,0.3,0.8c0,0.3,0.1,0.7,0.1,1.1c0,0.4,0,0.7,0,1.1c0,0.3,0,0.6,0,0.8c0,0.1,0,0.3,0,0.4
			c0,0.2,0,0.3,0.1,0.5c0,0.1,0,0.1,0,0.2V7c0,0.3,0,0.7,0,1.1c0,0.4,0,0.7,0,1.1c0,0.3,0,0.6,0,0.9c0,0.3-0.1,0.6-0.2,0.8
			c-0.1,0-0.2,0-0.2,0c-0.1,0-0.1-0.1-0.1-0.1c0,0-0.1-0.1-0.1-0.2c0-0.1-0.1-0.1-0.1-0.2c0,0,0,0.1-0.1,0.1c0,0-0.1,0.1-0.1,0.1
			h-0.6c0,0.1,0,0.1,0,0.2c0,0.1,0,0.1,0,0.2h-0.3c0-0.1,0-0.2-0.1-0.3c0-0.1,0-0.2-0.1-0.3c0.1-0.2,0.2-0.3,0.3-0.5
			c0.1-0.2,0.2-0.4,0.2-0.6V9.3c-0.1,0.2-0.2,0.4-0.3,0.5c-0.1,0.1-0.3,0.2-0.5,0.2c0-0.3-0.1-0.6-0.1-0.9c0-0.3-0.1-0.6-0.1-0.9
			c0.1,0,0.1-0.1,0.1-0.3c0-0.1,0-0.2,0-0.3c0-0.1,0-0.1-0.1-0.2c0.1-0.1,0.1-0.2,0.1-0.2c0-0.1,0.1-0.3,0.1-0.4c0-0.2,0-0.3,0-0.5
			s0-0.3,0-0.5c0-0.2,0-0.3,0-0.5c0-0.1,0-0.2,0-0.3c0-0.1,0.1-0.2,0.1-0.4c0-0.1,0.1-0.2,0.1-0.3c0-0.6,0-1.2-0.1-1.7
			c-0.1-0.6-0.1-1.2-0.1-1.7c0.2,0,0.4-0.1,0.6-0.1S116.2,0.5,116.3,0.5z M116.1,7.5C116,7.5,116,7.6,116.1,7.5
			c-0.1,0.1-0.2,0.1-0.2,0.1c0,0.1-0.1,0.2-0.1,0.2c0,0.1-0.1,0.2-0.1,0.2h-0.2c0,0,0-0.1,0-0.1c0-0.1,0-0.1-0.1-0.1h-0.1
			c0,0.2,0,0.4,0,0.5c0,0.2,0.1,0.3,0.2,0.4c0.1-0.2,0.2-0.5,0.3-0.7C115.9,7.9,116,7.7,116.1,7.5L116.1,7.5z M115.8,6.5
			c-0.1,0.1-0.1,0.1-0.2,0.2c0,0-0.1,0.1-0.2,0.1v0.5c0-0.1,0.1-0.1,0.1-0.2c0-0.1,0-0.1,0.1-0.2h0.1L115.8,6.5z M116,4.4
			c-0.1,0.1-0.1,0.1-0.2,0.2c-0.1,0.1-0.1,0.2-0.2,0.2v0.6h-0.1v0.2h0.1c0.1-0.2,0.1-0.3,0.2-0.4s0.1-0.2,0.1-0.3s0-0.1,0.1-0.2
			S115.9,4.5,116,4.4L116,4.4z M116.2,1.2c-0.1,0-0.1,0-0.2,0.1c-0.1,0-0.2,0.1-0.3,0.1v1.1c0.1-0.2,0.2-0.4,0.3-0.6
			c0.1-0.2,0.2-0.4,0.3-0.5L116.2,1.2z M115.9,6v0.3l0.1-0.3L115.9,6z"/>
		<path id="Path_15628" class="st0" d="M119.9,11.3c0,0-0.1-0.1-0.1-0.1c0,0-0.1,0-0.1,0v-0.2c0,0-0.1,0-0.1,0c-0.1,0-0.1,0-0.2,0
			c-0.1,0-0.1,0-0.2,0c0,0-0.1,0-0.1,0c-0.1-0.1-0.2-0.1-0.3-0.1c-0.1,0-0.1,0-0.2,0c-0.1,0-0.1,0-0.2,0c-0.1,0-0.2,0-0.2-0.1
			c0,0,0-0.1,0-0.1c0,0,0-0.1,0-0.1c0-0.3,0.1-0.4,0.3-0.4c0,0,0.1,0,0.1,0c0,0,0.1,0,0.1,0v-0.1h-0.1V10h-0.1c0-0.2,0-0.4,0-0.6
			c0-0.2,0-0.4,0.1-0.5c0,0,0-0.1-0.1-0.1c-0.1,0-0.1,0-0.2-0.1c0-0.1,0-0.2,0.1-0.3c0.1-0.1,0.1-0.1,0.2-0.2V8c0-0.1,0-0.2,0-0.3
			c0-0.1,0-0.2,0.1-0.3c-0.1,0-0.1,0-0.1-0.1c0,0-0.1-0.1-0.1-0.1c0-0.1,0-0.1,0-0.2c0-0.1,0-0.2,0.1-0.3h0.1c0-0.1,0-0.1,0-0.2
			c0,0,0-0.1,0-0.1h-0.4c0-0.2,0-0.4,0-0.5c0,0,0-0.1,0-0.1c0,0,0-0.1,0-0.1l0-0.8c0-0.1,0-0.1,0-0.2V4.6c0-0.3,0-0.7-0.1-1
			c0,0,0.1-0.1,0.1-0.1c0-0.1,0-0.1-0.1-0.1c0.1-0.1,0.1-0.1,0.1-0.2c0-0.1,0-0.1,0.1-0.2c0.1,0,0.3,0,0.4,0c0.2,0,0.3,0,0.5-0.1
			c0,0.1,0.1,0.2,0.1,0.2c0,0.1,0.1,0.1,0.1,0.1c0,0,0.1,0.1,0.1,0.1c0,0.1,0,0.1,0,0.2c0.1,0,0.1,0,0.1-0.1c0.1,0,0.1-0.1,0.1-0.1
			l0.2,0.3c0.1,0,0.2-0.1,0.3-0.1c0.1,0,0.2-0.1,0.3-0.1v0.1c0,0,0.1-0.1,0.1-0.1c0-0.1,0.1-0.1,0.1-0.2s0.1-0.1,0.2-0.1
			c0,0,0.1-0.1,0.2-0.1c0,0,0.1,0,0.1,0v0.3c0.2-0.1,0.3-0.2,0.4-0.3c0.1-0.1,0.3-0.3,0.4-0.4v0.4c0.1,0,0.2,0,0.2,0.1
			c0,0,0.1,0.1,0.1,0.2c0.1-0.1,0.1-0.1,0.1-0.2V2.9l0.2-0.1c0,0,0.1,0,0.1,0c0.1,0,0.1,0,0.2,0l0.2,0.1V3c0,0,0.1,0,0.1,0
			c0,0,0.1,0.1,0.1,0.1v0.1h0.1v0.1c0.1,0.2,0.2,0.3,0.4,0.4l0.1,0c0.1,0,0.1,0,0.2,0.1c0,0.1,0.1,0.1,0.1,0.2
			c0,0.2-0.1,0.3-0.2,0.3v0.2h0.2c0,0,0,0,0,0.1c0,0.1,0,0.1,0.1,0.1h0.1c0,0.1-0.1,0.2-0.1,0.2c0,0.1-0.1,0.1-0.1,0.2
			c0,0.1,0,0.2,0,0.4s0,0.3-0.1,0.5s0,0.4-0.1,0.6s0,0.4,0,0.5c0,0.1,0,0.2,0,0.3c0,0.1,0,0.1,0.1,0.2c0,0.1,0,0.2,0,0.4
			c0,0.1,0,0.3,0,0.4c0,0.3,0,0.7,0.1,1c0,0.3,0.1,0.7,0.1,1c0,0.2,0,0.5-0.1,0.7c-0.1,0-0.1,0-0.1,0.1c0,0,0,0,0,0c0,0,0,0,0,0
			l-1.7-0.2c0-0.4,0-0.8,0-1.2c0-0.4,0-0.9,0-1.3c0-0.3,0-0.7,0-1c0-0.3-0.1-0.7-0.1-1v-1c-0.1,0-0.2-0.1-0.2-0.2
			c0-0.1,0-0.2,0.1-0.3c0.1-0.1,0.1-0.2,0.1-0.2c0,0-0.1-0.1-0.1-0.1c-0.1,0-0.1,0-0.2,0h-0.3c0-0.1-0.1-0.3-0.2-0.4
			c-0.1-0.1-0.2-0.1-0.4-0.1c-0.2,0-0.3,0.1-0.4,0.2c-0.1,0.1-0.2,0.3-0.2,0.4l-0.4,0.1c-0.1,0-0.1,0-0.2,0.1L119.9,5
			c0.1,0,0.1,0,0.2,0c0.1,0,0.1,0,0.2,0c0,0.1,0,0.3,0.1,0.4c0,0.1,0,0.3,0,0.4c0,0.3,0,0.6-0.1,0.9c0,0.3-0.1,0.6-0.1,0.8
			c0,0.3,0,0.6,0.1,0.9c0,0.3,0,0.6,0.1,1c0,0.2,0,0.4,0,0.6c0,0.2-0.1,0.4-0.2,0.6c0.1,0.1,0.1,0.2,0.1,0.3
			C120.2,11.2,120.1,11.3,119.9,11.3z M119.4,6c0,0,0.1-0.1,0.1-0.1c0,0,0.1-0.1,0.1-0.1c0,0,0-0.1,0-0.1c0,0,0,0,0,0
			c0,0.1,0,0.1-0.1,0.1C119.4,5.9,119.4,5.9,119.4,6L119.4,6z M119.6,4.6c0.1,0,0.1,0,0.2,0c0,0,0.1-0.1,0.1-0.2
			c-0.1,0-0.2,0.1-0.2,0.1C119.6,4.5,119.6,4.5,119.6,4.6L119.6,4.6z M119.8,5.6c0,0,0-0.1,0-0.1c0-0.1,0-0.1,0.1-0.1
			c-0.1,0-0.2,0-0.2,0.1s-0.1,0.1-0.1,0.2L119.8,5.6z M119.7,9.5C119.7,9.5,119.8,9.5,119.7,9.5c0.1-0.2,0.2-0.3,0.2-0.5h-0.2
			L119.7,9.5z M122.4,3.8c0,0,0.1-0.1,0.1-0.1c0,0,0.1,0,0.1,0c0-0.1,0-0.1,0-0.2c0-0.1,0-0.1,0.1-0.2c0,0-0.1,0-0.1,0.1
			C122.5,3.5,122.4,3.6,122.4,3.8L122.4,3.8z M123.2,10.7v-0.2c0-0.1,0-0.1,0-0.2c0-0.1,0-0.2,0.1-0.3c-0.1,0-0.2,0.1-0.3,0.2
			c-0.1,0.1-0.2,0.2-0.3,0.3c0,0,0.1,0,0.1,0.1c0,0,0.1,0.1,0.1,0.1L123.2,10.7z M123.3,9.3L123.3,9.3c0.1-0.1,0.2-0.2,0.2-0.3
			c0.1-0.1,0.1-0.1,0.2-0.2h0.1V7.8h0.2c0,0-0.1-0.1-0.1-0.1c0,0,0-0.1,0-0.1c-0.1,0.2-0.2,0.4-0.3,0.6c0,0.2,0,0.4,0,0.6
			c-0.1,0.1-0.2,0.2-0.3,0.3c-0.1,0.1-0.1,0.2-0.1,0.4L123.3,9.3z M123.3,4.2C123.3,4.2,123.4,4.2,123.3,4.2
			c0.1-0.1,0.2-0.1,0.2-0.1V3.9c0,0-0.1,0.1-0.1,0.1C123.4,4.1,123.3,4.1,123.3,4.2L123.3,4.2z M123.7,10
			C123.7,9.9,123.8,9.9,123.7,10c0.1-0.1,0.1-0.1,0.1-0.1c0,0,0,0-0.1-0.1V10z M123.8,7.2c0-0.1,0-0.1,0-0.2h-0.1v0.5
			c0,0,0-0.1,0-0.1S123.8,7.2,123.8,7.2L123.8,7.2z"/>
		<path id="Path_15629" class="st0" d="M129.4,10.5c0,0-0.1,0.1-0.1,0.1c-0.1,0-0.1,0-0.1-0.1c0,0-0.1,0-0.1-0.1
			c0,0.1,0,0.1-0.1,0.2c0,0,0,0.1-0.1,0.1c0,0-0.1,0-0.1,0l-0.2,0c0,0,0-0.1,0-0.1c0,0-0.1-0.1-0.1-0.1h-0.1c0,0.1-0.1,0.2-0.2,0.2
			c-0.1,0.1-0.1,0.1-0.2,0.1v-0.2l-0.1-0.1c-0.1,0.1-0.2,0.2-0.2,0.2c0,0-0.1,0.1-0.1,0.1h-0.1l-0.2-0.2c-0.1,0.1-0.1,0.1-0.2,0.1
			c-0.1,0-0.2,0-0.3-0.1c-0.1-0.1-0.2-0.1-0.3-0.2c-0.1-0.1-0.2-0.2-0.2-0.3c-0.1-0.1-0.1-0.2-0.2-0.2c-0.1-0.1-0.3-0.2-0.4-0.3
			c-0.1-0.1-0.2-0.3-0.3-0.4c-0.1,0-0.1-0.1-0.1-0.2c0-0.1,0-0.2,0-0.3c0-0.1,0-0.2,0-0.4c0-0.1,0-0.2,0-0.3c0-0.1-0.1-0.1-0.2-0.2
			c0-0.1,0-0.3,0-0.4c0-0.1-0.1-0.2-0.2-0.3c0-0.1,0-0.3,0-0.4c0-0.1,0-0.2,0-0.4c0-0.1,0-0.3,0-0.4h0.1c0-0.2,0.1-0.4,0.1-0.6
			s0-0.2,0-0.3c0,0,0-0.1,0-0.1c0,0,0,0,0.1,0l-0.1-0.1V4.5h0.2c0-0.1,0.1-0.2,0.1-0.3c0-0.1,0.1-0.1,0.1-0.2c0-0.1,0.1-0.1,0.1-0.2
			c0-0.1,0.1-0.1,0.2-0.2c0.1,0,0.2-0.1,0.3-0.1s0.2-0.1,0.3-0.1s0.2-0.1,0.3-0.1c0.1,0,0.2,0,0.3-0.1c0.1,0,0.2,0,0.2,0
			c0-0.1,0-0.1,0.1-0.1c0,0,0.1-0.1,0.1-0.1c0.2,0,0.3,0.1,0.3,0.2c0.1-0.1,0.1-0.1,0.2-0.1c0.1,0,0.1-0.1,0.2-0.1
			c0.1,0.1,0.2,0.2,0.3,0.2c0.1,0,0.2,0,0.3,0c0.1,0,0.2,0,0.2,0.1c0.1,0.1,0.2,0.3,0.2,0.4h0.1V3.5h0.1c0-0.5,0-1.1-0.1-1.6
			c0-0.6-0.1-1.1-0.1-1.6c0.2,0,0.4-0.1,0.6-0.1s0.3-0.1,0.5-0.1c0.1,0.1,0.2,0.3,0.3,0.4c0.1,0.1,0.2,0.2,0.3,0.3
			c0,0.1,0,0.3,0,0.4c0,0.1,0,0.3,0,0.4c0.1,0.2,0.2,0.5,0.2,0.7c0,0.3,0.1,0.7,0.1,1c0,0.4,0,0.9,0,1.3c0,0.4,0,0.8,0,1
			c0,0.1,0,0.3,0.1,0.4c0,0.1,0,0.3,0.1,0.4c0,0.2,0,0.3,0,0.5v0.5c0,0.2,0,0.5,0,0.7c0,0.2,0,0.5,0,0.7c0,0.4,0,0.8-0.1,1.2
			c0,0.4-0.1,0.7-0.2,1.1c-0.1,0-0.2-0.1-0.3-0.2c-0.1-0.1-0.1-0.2-0.2-0.4c0,0,0,0.1-0.1,0.1c0,0-0.1,0.1-0.1,0.1H130
			c0,0.1-0.1,0.2-0.1,0.2c0,0.1,0,0.1-0.1,0.2h-0.2c0-0.1,0-0.2-0.1-0.3C129.5,10.7,129.5,10.6,129.4,10.5L129.4,10.5
			C129.5,10.5,129.5,10.5,129.4,10.5z M126.1,7.2c-0.1,0.1-0.1,0.2-0.2,0.3s-0.1,0.1-0.1,0.2s-0.1,0.1-0.1,0.2s-0.1,0.2-0.1,0.3h0.1
			V8h0.1c0-0.1,0.1-0.2,0.1-0.3c0-0.1,0-0.2,0.1-0.3c0,0,0,0,0,0c0,0,0.1,0,0.1-0.1L126.1,7.2z M126,5c-0.1,0.1-0.1,0.2-0.2,0.3
			c0,0.1,0,0.2,0,0.2v0.2c0.1-0.1,0.2-0.2,0.2-0.4C125.9,5.2,126,5.1,126,5L126,5z M126.4,3.9c-0.1,0.2-0.3,0.4-0.3,0.5
			C126,4.5,126,4.7,126,4.9c0.1-0.1,0.1-0.2,0.2-0.4c0.1-0.1,0.1-0.3,0.2-0.4h0.1L126.4,3.9z M126.6,7.1v0.4h0.1c0-0.1,0-0.1,0-0.2
			C126.7,7.2,126.7,7.1,126.6,7.1L126.6,7.1z M126.9,4.9V4.6c0,0,0,0-0.1,0.1l0,0L126.9,4.9z M129.3,8.6
			C129.3,8.6,129.3,8.7,129.3,8.6c0.1,0.1,0.1,0,0.1,0c0,0,0,0,0,0v0l0,0c0-0.1,0-0.1,0,0c0,0,0,0,0,0l-0.1-0.2c0,0,0,0,0.1,0
			c0,0,0,0,0.1,0V7.5h0.1V7.3c0.1-0.2,0.1-0.3,0.1-0.5c0-0.1,0-0.3,0-0.5s0-0.3-0.1-0.5s0-0.3-0.1-0.5s0-0.3,0-0.5
			c-0.1,0-0.1,0.1-0.2,0.1c-0.1,0-0.1-0.1-0.1-0.2H129V4.7c0-0.1,0-0.1,0-0.2c0-0.1,0-0.1-0.1-0.2h-0.1v0.2l-0.1-0.1v0.3h-0.3
			c0,0,0,0,0-0.1c0,0,0,0,0,0c0,0,0,0,0-0.1h-0.1c0,0,0-0.1,0-0.1c0-0.1,0-0.1-0.1-0.1c0,0-0.1,0-0.1,0c0-0.1,0-0.1,0-0.2
			c-0.1,0-0.1,0.1-0.2,0.1c-0.1,0-0.2,0-0.3,0l-0.1,0.2h-0.1v0.2h-0.1c0,0.1,0,0.2-0.1,0.3c0,0.1,0,0.2-0.1,0.3c0,0-0.1,0.1-0.1,0.1
			s0,0-0.1-0.1c0,0.1,0.1,0.3,0.1,0.4c0,0.1,0,0.2,0,0.4c0,0.1,0,0.2-0.1,0.3c0,0.1-0.1,0.2-0.1,0.4c0,0.2,0,0.3,0,0.5
			c0,0.2,0,0.4,0,0.6c0,0.2-0.1,0.4-0.1,0.6c0,0.1,0.1,0.3,0.1,0.4s0.1,0.3,0.1,0.4c0,0,0.1,0,0.1,0.1c0,0,0.1,0.1,0.1,0.1l0.2,0.2
			c0.2,0,0.4,0.1,0.6,0.1c0.1,0,0.3,0,0.4,0c0.1,0,0.3-0.1,0.4-0.1l0.2-0.2L129.2,9h-0.1c0,0,0.1-0.1,0.1-0.2
			C129.2,8.7,129.3,8.7,129.3,8.6L129.3,8.6z M127.5,3.5c0,0-0.1,0.1-0.1,0.1c0,0,0,0.1,0,0.1c0,0,0-0.1,0-0.1
			C127.5,3.6,127.5,3.6,127.5,3.5z M129.6,9.8v0.4c0.1-0.1,0.2-0.3,0.2-0.4c0.1-0.1,0.1-0.3,0.2-0.4l-0.1-0.1
			C129.9,9.5,129.8,9.7,129.6,9.8L129.6,9.8z M129.7,7.7c0,0.1,0,0.2,0,0.3c0,0.1,0,0.2,0,0.3c0,0.1,0,0.2,0,0.4
			c0.1-0.3,0.2-0.5,0.3-0.7c0.1-0.2,0.2-0.4,0.2-0.6c0,0-0.1,0.1-0.1,0.1c0,0-0.1,0-0.1,0c0,0.1-0.1,0.2-0.1,0.3
			c0,0.1,0,0.1-0.1,0.2c0,0,0,0.1-0.1,0.1c0,0-0.1,0-0.1,0L129.7,7.7z M129.8,6.6C129.8,6.7,129.7,6.7,129.8,6.6
			c-0.1,0.1-0.1,0.1-0.1,0.1c0,0,0,0,0,0c0,0.1,0,0.1,0.1,0.1L129.8,6.6L129.8,6.6l0.2-0.3c0,0-0.1,0.1-0.1,0.1c0,0,0,0,0,0.1
			C129.8,6.6,129.8,6.6,129.8,6.6L129.8,6.6z M130.4,0.8c-0.1,0.1-0.1,0.1-0.2,0.1c-0.1,0-0.2,0-0.3,0.1V2c0.1-0.2,0.2-0.4,0.3-0.6
			c0.1-0.2,0.2-0.4,0.3-0.5C130.6,0.9,130.5,0.9,130.4,0.8C130.5,0.8,130.4,0.8,130.4,0.8L130.4,0.8z M130.2,5.9L130.2,5.9l-0.1,0.2
			c0,0,0.1,0,0.1,0C130.2,6,130.2,6,130.2,5.9L130.2,5.9z M130.7,7v0.4c0-0.1,0.1-0.1,0.1-0.2c0,0,0,0,0-0.1
			C130.8,7.1,130.8,7,130.7,7L130.7,7z"/>
		<path id="Path_15630" class="st0" d="M134,0.3c0.1,0,0.2,0.1,0.2,0.1c0.1,0,0.1,0,0.2,0c0,0.1,0,0.2,0,0.2c0,0.1,0,0.1-0.1,0.2
			c0.1,0.2,0.2,0.5,0.2,0.7c0,0.2,0,0.4-0.1,0.5c-0.2,0-0.4,0-0.5,0c-0.1,0-0.3,0-0.4-0.1v0.1h-0.5c0,0-0.1,0.1-0.1,0.1
			c0,0-0.1,0.1-0.1,0.1h-0.3c0-0.1,0-0.1,0-0.1c0,0,0-0.1,0-0.1c0,0,0.1-0.1,0.1-0.1l0,0l0,0c0,0,0,0,0.1-0.1l0.1-0.3
			c-0.1,0.1-0.1,0.1-0.1,0.2s0,0.1-0.1,0.1c-0.1,0-0.1,0-0.2,0c0-0.1-0.1-0.2-0.1-0.3c0-0.1,0-0.2,0-0.3c0-0.1,0-0.2,0-0.2
			c0,0,0.1-0.1,0.1-0.1c0,0,0-0.1,0-0.1c0,0,0-0.1,0-0.1h0c0.1,0,0.1,0,0.1,0.1c0,0.1,0.1,0.2,0.1,0.3c0,0.1,0,0.3,0,0.4v0
			c0,0,0.1-0.1,0.1-0.1c0,0,0.1-0.1,0.1-0.1c0,0,0-0.1,0-0.1c0,0,0,0,0-0.1c0-0.1,0-0.1-0.1-0.1h0c0,0-0.1,0-0.1,0
			c0-0.1,0-0.2,0-0.2L134,0.3z M133,11.1c-0.1-0.1-0.2-0.2-0.3-0.3s-0.2-0.2-0.3-0.3c0-0.1,0-0.2,0.1-0.3c0-0.1,0.1-0.2,0.1-0.4
			c-0.1-0.1-0.2-0.3-0.2-0.5c0-0.2-0.1-0.4-0.1-0.6c0-0.4,0-0.7,0.1-1.1c0-0.3,0.1-0.6,0.1-0.8c0-0.1,0-0.3,0-0.4c0-0.1,0-0.3,0-0.4
			c0-0.3,0-0.5,0-0.8s0-0.6,0-0.9c0-0.3,0-0.6,0.1-0.9c0-0.3,0.1-0.6,0.2-0.9c0.1,0,0.3,0.1,0.3,0.2c0.1,0.1,0.2,0.2,0.3,0.3V2.9
			h0.6c0-0.1,0-0.1,0.1-0.1c0-0.1,0.1-0.1,0.1-0.1h0.2c0,0.1,0,0.2,0,0.2c0,0.1,0,0.2,0,0.2c-0.1,0.1-0.2,0.3-0.3,0.4
			c-0.1,0.2-0.2,0.3-0.3,0.5h0.1c0.1-0.1,0.2-0.2,0.3-0.3c0.1-0.1,0.3-0.1,0.4-0.1c0,0.2,0.1,0.3,0.1,0.5c0,0.2,0,0.4,0,0.6
			c0,0.1,0,0.3,0,0.4c0,0,0,0,0,0.1c0,0.1,0,0.2,0,0.2c0,0.1,0,0.2,0,0.2c-0.1,0.1-0.1,0.2-0.2,0.3c0,0.2-0.1,0.4-0.1,0.5
			c0,0.2,0,0.4,0,0.6s0,0.3,0,0.5v0.1c0,0.1-0.1,0.2-0.1,0.3c0,0.1-0.1,0.2-0.1,0.3c0,0.3,0,0.6,0,0.9s0,0.6,0,0.9s0,0.6,0,1
			c-0.2,0-0.4,0-0.6,0.1C133.4,11,133.2,11.1,133,11.1L133,11.1z M133.5,1.1c0,0-0.1,0.1-0.2,0.1c-0.1,0.1-0.2,0.1-0.2,0.1v0.3H133
			l-0.1,0.1h0.2c0.1-0.1,0.1-0.2,0.2-0.2s0.1-0.1,0.1-0.2s0-0.1,0.1-0.1S133.4,1.2,133.5,1.1L133.5,1.1z M133.1,10.5h0.5l0.1-0.9
			c-0.1,0.1-0.2,0.3-0.3,0.4C133.4,10.2,133.2,10.3,133.1,10.5L133.1,10.5z M133.4,8c0.1,0,0.2-0.1,0.2-0.2c0-0.1,0.1-0.1,0.2-0.2
			l0.1-0.4c0,0,0-0.1,0-0.1l0,0c0,0,0,0,0,0c0,0,0,0,0,0V7h-0.1c-0.1,0.1-0.2,0.3-0.2,0.3c0,0.1-0.1,0.1-0.1,0.2
			c0,0.1-0.1,0.1-0.1,0.2C133.4,7.8,133.4,7.9,133.4,8L133.4,8z M133.5,5.5C133.5,5.5,133.6,5.4,133.5,5.5c0.1-0.1,0.2-0.1,0.2-0.1
			c0-0.1,0-0.1,0.1-0.2c0-0.1,0.1-0.1,0.1-0.2h0.2v0.3h0.2V5.2c0-0.1,0-0.3,0-0.4c0-0.1-0.1-0.3-0.2-0.4c-0.1,0.2-0.2,0.4-0.3,0.6
			C133.6,5.2,133.6,5.3,133.5,5.5L133.5,5.5z M133.5,6.6h0.2V6.4c0,0-0.1,0-0.1,0C133.6,6.5,133.5,6.6,133.5,6.6L133.5,6.6z
			 M133.7,6.3c0.1-0.1,0.2-0.2,0.3-0.2c0,0,0.1,0,0.1,0l0.1-0.5c-0.1,0.1-0.1,0.1-0.1,0.2c0,0.1-0.1,0.1-0.1,0.2h-0.2L133.7,6.3z
			 M134.1,1.5c-0.1,0.1-0.2,0.2-0.3,0.2c0,0-0.1,0-0.1,0v0.3c0,0,0-0.1,0-0.1c0,0,0-0.1,0-0.1h0.2L134.1,1.5z M133.9,0.6
			C134,0.6,134,0.5,133.9,0.6c0.1-0.1,0.1-0.1,0.1-0.2l0,0L133.9,0.6C134,0.5,133.9,0.6,133.9,0.6L133.9,0.6z"/>
		<path id="Path_15631" class="st0" d="M137.9,11.1l-0.2-0.1c-0.1,0-0.1,0-0.2-0.1c0,0,0,0-0.1,0c-0.1-0.1-0.1-0.1-0.1-0.2
			c0,0,0,0-0.1,0c0,0-0.1,0-0.1,0c0,0,0,0.1-0.1,0.1c0,0-0.1,0-0.1,0c0,0-0.1,0-0.1,0c0,0-0.1,0-0.1,0c0,0-0.1,0-0.3,0
			s-0.3-0.1-0.4-0.2c0-0.1,0-0.1-0.1-0.2c0-0.1-0.1-0.1-0.1-0.2c-0.1-0.2-0.2-0.5-0.3-0.8c-0.1-0.3-0.2-0.7-0.2-1
			c0-0.2,0.1-0.3,0.1-0.5c0.2-0.2,0.3-0.4,0.5-0.6c0.3-0.3,0.4-0.4,0.4-0.4l0.1,0.1c0.2-0.2,0.5-0.4,0.8-0.5c0.3-0.1,0.7-0.1,1-0.1
			c0.1,0,0.1-0.1,0.2-0.1c0,0,0-0.1,0-0.1c0.1,0,0.2-0.1,0.3-0.1c0.1,0,0.2-0.1,0.3-0.1V5.6c0-0.1,0-0.3-0.1-0.4c0-0.1,0-0.2,0-0.3
			c0-0.1,0-0.1-0.1-0.2c0-0.1-0.1-0.1-0.2-0.1c-0.1,0-0.3-0.1-0.4-0.1s-0.3-0.1-0.5-0.1c-0.1,0-0.1,0-0.1,0c0,0-0.1,0-0.1,0
			c0,0,0,0.1,0,0.1s0,0.1,0,0.1c0,0.1,0,0.2,0,0.3c0,0.2,0,0.3-0.1,0.5h-0.2c-0.1,0-0.1,0-0.3,0c0.1,0,0,0-0.1-0.1
			c-0.1,0-0.2,0-0.3,0c-0.1,0.1-0.3,0.1-0.5,0.1c-0.2,0-0.5,0-0.7-0.1c0-0.2,0-0.4,0.1-0.5c0-0.1,0.1-0.3,0.2-0.4
			c0.1-0.1,0.2-0.3,0.2-0.4c0.1-0.1,0.2-0.3,0.3-0.4c0.1-0.1,0.3-0.3,0.4-0.4c0.2-0.1,0.3-0.2,0.5-0.3c0.3,0,0.5-0.1,0.8-0.2
			c0.3-0.1,0.6-0.1,0.8-0.1c0.1,0,0.2,0,0.3,0c0.1,0,0.2,0,0.3,0.1v0.1l1.1,0.5c0,0.1,0,0.2,0.1,0.2c0,0.1,0.1,0.1,0.1,0.2
			c0,0,0,0,0.1,0.1c0,0,0.1,0,0.1,0.1s-0.1,0-0.3,0c0.4,0.2,0.5,0.4,0.5,0.5c0.1,0.2,0.1,0.4,0.1,0.6c0,0.1,0,0.3,0,0.4
			c0,0.2-0.1,0.3-0.1,0.3c0,0.5,0,0.7,0,0.5c0,0.3,0.1,0.5,0.1,0.7s0,0.4,0,0.5s0,0.2,0,0.3V8c0,0.1,0,0.3-0.1,0.4c0,0,0,0,0.1,0
			c0,0.3,0,0.4-0.1,0.2c0,0.2,0,0.4-0.1,0.7l0.1,0.2l0.1,0.3h0.2c0,0.2,0,0.4,0,0.6c0,0.2,0,0.4,0.1,0.6h-0.6c-0.2,0-0.3,0-0.5,0
			c-0.2,0-0.3-0.1-0.4-0.1c-0.1-0.1-0.3-0.1-0.4-0.2c-0.1-0.1-0.2-0.3-0.2-0.4h-0.3c-0.1,0.1-0.2,0.2-0.2,0.3s-0.1,0.2-0.2,0.2
			c-0.1,0.1-0.1,0.1-0.2,0.2C138.1,11,138,11,137.9,11.1z M136.5,7.2c-0.1,0.1-0.2,0.1-0.3,0.2c-0.1,0.1-0.2,0.1-0.3,0.1L135.7,8
			L136.5,7.2z M136.4,8l-0.1-0.1h-0.1c-0.1,0.2-0.1,0.3-0.2,0.5S136,8.6,136,8.6s0,0.2-0.1,0.2s0,0.2-0.1,0.3
			c0.1-0.1,0.1-0.2,0.2-0.3c0-0.1,0.1-0.2,0.2-0.2V8.1L136.4,8L136.4,8z M137.6,9.7c0,0,0.1,0,0.2,0c0,0,0.1,0,0.1,0
			c0.1,0,0.1,0,0.2,0c0,0,0.1-0.1,0.2-0.2c0.1-0.1,0.2-0.1,0.3-0.2c0.1-0.2,0.2-0.4,0.3-0.6c0.1-0.2,0.1-0.4,0.1-0.6
			c0-0.2,0.1-0.4,0.1-0.6c0-0.2,0-0.5,0-0.7c0,0,0,0-0.1,0c0,0,0,0-0.1,0c-0.1,0-0.3,0-0.4,0.1c-0.1,0-0.3,0.1-0.4,0.1
			c-0.1,0.1-0.3,0.1-0.4,0.2c-0.1,0.1-0.2,0.2-0.2,0.3c-0.2,0.1-0.3,0.2-0.4,0.4C137,8.1,137,8.3,137,8.5c0,0.1,0,0.1,0,0.2
			s0,0.2,0,0.3c0,0,0.1,0,0.1,0c0,0,0.1,0.1,0.1,0.1c0,0.1-0.1,0.2-0.1,0.2c0,0-0.1,0.1-0.1,0.2l0.1,0.1c0.1,0,0.2,0.1,0.3,0.1
			C137.5,9.6,137.6,9.7,137.6,9.7z M138.1,3.8l0.1-0.2c-0.1,0-0.2,0-0.2,0c-0.1,0-0.1,0-0.2,0.1v0.1L138.1,3.8z M138.8,3.4
			c0.1,0,0.2,0,0.2-0.1c0.1-0.1,0.1-0.2,0.2-0.3c-0.1,0-0.2,0-0.3,0c-0.1,0-0.1,0-0.2,0v0.1c0,0.1,0,0.1,0,0.2
			C138.8,3.3,138.8,3.4,138.8,3.4L138.8,3.4z M139.8,10.4c0.1,0,0.1,0,0.1,0c0,0,0.1,0,0.1,0c0,0-0.1-0.1-0.1-0.2c0-0.1,0-0.1,0-0.2
			c-0.1,0-0.2,0.1-0.2,0.1c-0.1,0-0.1,0-0.2,0v0.2c0,0,0,0.1,0.1,0.1C139.7,10.3,139.7,10.3,139.8,10.4L139.8,10.4z M139.9,6.9
			c0,0,0.1-0.1,0.1-0.1c0,0,0.1,0,0.1,0c0-0.1,0.1-0.3,0.1-0.4c0.1-0.2,0.2-0.5,0.2-0.8c-0.2,0.2-0.3,0.4-0.4,0.6
			c-0.1,0.1-0.1,0.2-0.2,0.3c0,0,0,0.1-0.1,0.1c0,0-0.1,0.1-0.1,0.1C139.8,6.8,139.8,6.8,139.9,6.9C139.9,6.9,139.9,6.9,139.9,6.9
			L139.9,6.9z M140.2,8.6h0.2l-0.1-0.2c0,0-0.1,0-0.1,0C140.2,8.5,140.1,8.6,140.2,8.6L140.2,8.6z M140.4,10.5L140.4,10.5
			c0-0.1-0.1-0.2-0.1-0.2c0,0-0.1,0-0.1-0.1v0.2L140.4,10.5z M140.2,8.2c0.1-0.1,0.2-0.2,0.3-0.3c0,0,0.1,0,0.1,0l0.1-0.6
			c0-0.3,0-0.3-0.1,0c-0.1,0.2-0.1,0.4-0.1,0.5h-0.2V8.2z"/>
	</g>
	<g id="Group_3841">
		<g id="Group_788" transform="translate(13.929 9.179)">
			<path id="Path_15603" class="st0" d="M41.9,0c1.1,4.2-1.4,8.5-5.6,9.5c-4.2,1.1-8.5-1.4-9.5-5.6c-0.2-0.7-0.3-1.3-0.2-2
				c0-0.6,0.1-1.3,0.2-1.9H20c0.2,0.6,0.2,1.3,0.2,1.9c0,4.3-3.5,7.8-7.8,7.8c-4.3,0-7.8-3.5-7.8-7.8c0,0,0,0,0,0
				c0-0.6,0.1-1.3,0.2-1.9H0l4.5,17.8H43L47.7,0H41.9z"/>
		</g>
		<g id="Group_789" transform="translate(12.053 4.552)">
			<path id="Path_15604" class="st0" d="M9.2,4.6c0,2.5-2.1,4.6-4.6,4.6S0,7.1,0,4.6C0,2,2.1,0,4.6,0C7.1,0,9.2,2.1,9.2,4.6
				C9.2,4.6,9.2,4.6,9.2,4.6"/>
		</g>
		<g id="Group_790" transform="translate(54.375 4.552)">
			<path id="Path_15605" class="st0" d="M9.2,4.6c0,2.5-2.1,4.6-4.6,4.6S0,7.1,0,4.6C0,2,2.1,0,4.6,0C7.1,0,9.2,2.1,9.2,4.6
				C9.2,4.6,9.2,4.6,9.2,4.6"/>
		</g>
		<g id="Group_791" transform="translate(42.049 63.242)">
			<path id="Path_15606" class="st0" d="M4.3,8.7C1.9,8.7,0,6.8-0.1,4.4C-0.1,2,1.9,0,4.3,0c2.4,0,4.4,1.9,4.4,4.3c0,0,0,0,0,0
				C8.6,6.7,6.7,8.7,4.3,8.7"/>
		</g>
		<g id="Group_792" transform="translate(20.278 63.242)">
			<path id="Path_15607" class="st0" d="M4.3,8.7C1.9,8.7,0,6.8-0.1,4.4C-0.1,2,1.9,0,4.3,0c2.4,0,4.4,1.9,4.4,4.3c0,0,0,0,0,0
				C8.6,6.7,6.7,8.7,4.3,8.7"/>
		</g>
		<g id="Group_793" transform="translate(0 18.211)">
			<path id="Path_15608" class="st0" d="M58.2,12.4H14.8l0,0l-2.8-9.8C11.4,1.1,9.9,0,8.3,0L2.5,0C1.1,0.1,0,1.3,0.1,2.6
				C0.2,3.9,1.2,4.9,2.5,5l4.9,0c0,0,0,0,0,0l10.1,35.2c0.7,1.5,2.2,2.5,3.9,2.6h29.4c1.3,0,2.4-1,2.5-2.3c0.1-1.3-0.9-2.4-2.1-2.5
				c-0.1,0-0.2,0-0.3,0l-28.7,0c0,0,0,0,0,0l-1-3.6h32.8c1.3-0.1,2.3-1.3,2.2-2.6c-0.1-1.2-1-2.1-2.2-2.2H19.6l-1-3.6h37.2
				c1.3,0,2.4-1.1,2.4-2.4c0-1.3-1.1-2.4-2.4-2.4H17.2l0,0l-1-3.6h42.1c1.3,0,2.4-1.1,2.4-2.4C60.6,13.5,59.5,12.4,58.2,12.4"/>
		</g>
		<g id="Group_796" transform="translate(31.974)">
			<path id="Path_15632" class="st0" d="M10.7,5.4c0,3-2.4,5.3-5.4,5.3c-3,0-5.3-2.4-5.3-5.4C0,2.4,2.4,0,5.4,0
				C8.3,0,10.7,2.4,10.7,5.4C10.7,5.4,10.7,5.4,10.7,5.4"/>
		</g>
	</g>
</g>
</svg>
