<?xml version="1.0" encoding="utf-8"?>
<!-- Generator: Adobe Illustrator 26.5.0, SVG Export Plug-In . SVG Version: 6.00 Build 0)  -->
<svg version="1.1" id="Layer_1" xmlns="http://www.w3.org/2000/svg" xmlns:xlink="http://www.w3.org/1999/xlink" x="0px" y="0px"
	 viewBox="0 0 200 200" style="enable-background:new 0 0 200 200;" xml:space="preserve">
<style type="text/css">
	.st0{clip-path:url(#SVGID_00000123410273188458372770000015096221070501408656_);}
	.st1{fill:#003173;}
	.st2{fill:#E64D17;}
</style>
<g id="Group_92857" transform="translate(31.862 12.672)">
	<g>
		<defs>
			<rect id="SVGID_1_" x="0" y="0" width="146.3" height="174.7"/>
		</defs>
		<clipPath id="SVGID_00000017511257968228807180000014299208185799762595_">
			<use xlink:href="#SVGID_1_"  style="overflow:visible;"/>
		</clipPath>
		<g id="Group_92779" style="clip-path:url(#SVGID_00000017511257968228807180000014299208185799762595_);">
			<path id="Path_323383" class="st1" d="M86.3,164.6L86.3,164.6l-83.4-0.4c-1.6,0-2.9-1.3-2.9-3V3.3c0-1.6,1.3-3,2.9-3L98.1,0
				c0.9,0,1.8,0.4,2.3,1.1l19.8,25.2c1,1.3,0.8,3.1-0.5,4.2c-1.3,1-3.1,0.8-4.2-0.5l0,0L96.7,5.9L5.9,6.3v152l80.4,0.4
				c1.6,0,2.9,1.4,2.9,3C89.2,163.3,87.9,164.6,86.3,164.6L86.3,164.6z"/>
			<path id="Path_323384" class="st1" d="M117.9,110.4c-1.6,0-3-1.3-3-3V31.1H95.3c-1.6,0-3-1.3-3-3V3c0-1.6,1.4-2.9,3-2.9
				c1.6,0,2.8,1.3,2.9,2.9v22.2h19.6c1.6,0,3,1.3,3,3l0,0v79.3C120.9,109,119.5,110.4,117.9,110.4"/>
			<path id="Path_323385" class="st1" d="M111.1,174.7c-19.4,0-35.2-15.8-35.2-35.2s15.8-35.2,35.2-35.2c19.4,0,35.2,15.8,35.2,35.2
				C146.3,158.9,130.5,174.7,111.1,174.7C111.1,174.7,111.1,174.7,111.1,174.7 M111.1,110.1c-16.2,0-29.3,13.1-29.3,29.3
				s13.1,29.3,29.3,29.3s29.3-13.1,29.3-29.3l0,0C140.4,123.3,127.2,110.1,111.1,110.1C111.1,110.1,111.1,110.1,111.1,110.1z"/>
			<path id="Path_323386" class="st1" d="M59.1,35.2H24.2c-1.6,0.1-3-1.2-3.1-2.9c-0.1-1.6,1.2-3,2.9-3.1c0,0,0.1,0,0.1,0
				c0,0,0.1,0,0.1,0h34.8c1.6,0,2.9,1.4,2.9,3C61.9,33.9,60.6,35.1,59.1,35.2L59.1,35.2z"/>
			<path id="Path_323387" class="st1" d="M59.1,112.1H24.2c-1.6,0.1-3-1.2-3.1-2.9c-0.1-1.6,1.2-3,2.9-3.1c0,0,0.1,0,0.1,0
				c0,0,0.1,0,0.1,0h34.8c1.6,0,2.9,1.4,2.9,3C61.9,110.8,60.6,112.1,59.1,112.1L59.1,112.1z"/>
			<path id="Path_323388" class="st1" d="M79.4,53.7H24.2c-1.6,0.1-3-1.2-3.1-2.9c-0.1-1.6,1.2-3,2.9-3.1c0,0,0.1,0,0.1,0
				c0,0,0.1,0,0.1,0h55.2c1.6-0.1,3,1.2,3.1,2.9c0.1,1.6-1.2,3-2.9,3.1c0,0-0.1,0-0.1,0C79.5,53.7,79.5,53.7,79.4,53.7"/>
			<path id="Path_323389" class="st1" d="M79,92.6H23.8c-1.6,0.1-3-1.2-3.1-2.9c-0.1-1.6,1.2-3,2.9-3.1c0,0,0.1,0,0.1,0
				c0,0,0.1,0,0.1,0H79c1.6,0,3,1.3,3,2.9c0,1.6-1.3,2.9-2.9,3C79,92.6,79,92.6,79,92.6"/>
			<path id="Path_323390" class="st1" d="M103.2,73h-79c-1.6,0.1-3-1.2-3.1-2.9c-0.1-1.6,1.2-3,2.9-3.1c0,0,0.1,0,0.1,0
				c0,0,0.1,0,0.1,0h79c1.6,0,2.9,1.4,2.9,3C106,71.7,104.8,72.9,103.2,73z"/>
			<path id="Path_323391" class="st2" d="M115.4,163.1c-0.8,0-1.6-0.4-2.2-1l-16.1-18l0.8-2.2c0.6-1.2,1.9-1.9,3.2-1.8
				c4.5,0.3,8-1,9.6-3.6c1.2-1.9,1.1-4.4,0-6.3c-1.8-2.9-5.5-4.4-10.5-4.2c-1.6,0.1-3.1-1.1-3.2-2.7c-0.1-1.6,1.1-3.1,2.7-3.2
				c0,0,0,0,0.1,0h0.1c7.2-0.4,13,2.1,15.9,7c2.3,3.8,2.3,8.6,0,12.5c-2.1,3.3-5.5,5.5-9.4,6.1l11.2,12.5c1.1,1.2,1,3.1-0.2,4.2
				C116.9,162.8,116.2,163.1,115.4,163.1L115.4,163.1z"/>
			<path id="Path_323392" class="st2" d="M125,125.7h-24.9c-1.6,0-2.9-1.4-2.9-3c0-1.6,1.3-2.8,2.9-2.9H125c1.6-0.1,3,1.2,3.1,2.9
				c0.1,1.6-1.2,3-2.9,3.1c0,0-0.1,0-0.1,0C125.1,125.7,125,125.7,125,125.7"/>
			<path id="Path_323393" class="st2" d="M124.4,135.5h-24.3c-1.6,0-2.9-1.4-2.9-3c0-1.6,1.3-2.8,2.9-2.9h24.3c1.6,0,2.9,1.4,2.9,3
				C127.3,134.2,126,135.5,124.4,135.5"/>
		</g>
	</g>
</g>
</svg>
