<?xml version="1.0" encoding="utf-8"?>
<!-- Generator: Adobe Illustrator 26.5.0, SVG Export Plug-In . SVG Version: 6.00 Build 0)  -->
<svg version="1.1" id="Layer_1" xmlns="http://www.w3.org/2000/svg" xmlns:xlink="http://www.w3.org/1999/xlink" x="0px" y="0px"
	 viewBox="0 0 200 200" style="enable-background:new 0 0 200 200;" xml:space="preserve">
<style type="text/css">
	.st0{fill:#E64B16;}
	.st1{fill:#003173;}
</style>
<g id="Group_92855" transform="translate(-1209.998 -4092.956)">
	<path id="Path_321109" class="st0" d="M1242.8,4179.4l16.5-6.7l15.1,37.5l-16.5,6.7c-10.3,4.2-22.1-0.8-26.3-11.2
		C1227.4,4195.4,1232.4,4183.6,1242.8,4179.4"/>
	<path id="Path_321110" class="st1" d="M1278.2,4211.8l-19.2,7.8c-11.8,4.9-25.3-0.6-30.2-12.4c-4.9-11.8,0.6-25.3,12.4-30.2
		c0.2-0.1,0.4-0.1,0.5-0.2l19.2-7.8L1278.2,4211.8z M1243.8,4182.1c-8.9,3.6-13.1,13.7-9.6,22.5s13.7,13.1,22.5,9.6l13.9-5.6
		l-13-32.1L1243.8,4182.1z"/>
	<path id="Path_321111" class="st1" d="M1300.5,4267l-24.2,9.8l-24.5-60.7l24.2-9.8L1300.5,4267z M1279.5,4269.3l13.5-5.5l-20.2-50
		l-13.5,5.5L1279.5,4269.3z"/>
	<path id="Path_321112" class="st1" d="M1360.6,4212.5c-0.3,0.1-0.7,0.2-1.1,0.2l-85.1,0.3c-1.2,0-2.3-0.7-2.7-1.8l-15.1-37.5
		c-0.4-1.1-0.2-2.4,0.7-3.2l61.4-59c1.2-1.1,3-1.1,4.1,0.1c0.3,0.3,0.5,0.6,0.6,0.9l38.8,96.1
		C1362.8,4210.2,1362.1,4211.9,1360.6,4212.5L1360.6,4212.5L1360.6,4212.5z M1276.4,4207.3l78.9-0.3l-35.6-88.2l-56.9,54.7
		L1276.4,4207.3z"/>
	<g id="Group_92166" transform="translate(1315.72 4151.886)">
		<path id="Path_321113" class="st0" d="M45.8,4.6L48,6.7c1.5,1.5,3.6,2,5.6,1.5l3-0.8c3.1-0.8,6.3,1,7.2,4.2l0.8,3
			c0.6,2,2.1,3.6,4.1,4.1l3,0.8c3.1,0.9,5,4.1,4.2,7.2l-0.8,3c-0.5,2,0.1,4.2,1.5,5.6l2.2,2.2c2.3,2.3,2.3,6,0,8.3L76.6,48
			c-1.5,1.5-2,3.6-1.5,5.6l0.8,3c0.8,3.1-1,6.3-4.2,7.2l-3,0.8c-2,0.6-3.6,2.1-4.1,4.1l-0.8,3c-0.9,3.1-4.1,5-7.2,4.2l-3-0.8
			c-2-0.5-4.2,0.1-5.6,1.5l-2.2,2.2c-2.3,2.3-6,2.3-8.3,0l-2.2-2.2c-1.5-1.5-3.6-2-5.6-1.5l-3,0.8c-3.1,0.8-6.3-1-7.2-4.2l-0.8-3
			c-0.6-2-2.1-3.6-4.1-4.1l-3-0.8c-3.1-0.9-5-4.1-4.2-7.2l0.8-3c0.5-2,0-4.2-1.5-5.6l-2.2-2.2c-2.3-2.3-2.3-6,0-8.3l2.2-2.2
			c1.5-1.5,2-3.6,1.5-5.6l-0.8-3c-0.8-3.1,1-6.3,4.2-7.2l3-0.8c2-0.6,3.6-2.1,4.1-4.1l0.8-3c0.9-3.1,4.1-5,7.2-4.2l3,0.8
			c2,0.5,4.2-0.1,5.6-1.5l2.2-2.2C39.8,2.3,43.5,2.3,45.8,4.6"/>
		<path id="Path_321114" class="st1" d="M41.7,83.4c-2.3,0-4.5-0.9-6.2-2.5l-2.2-2.1c-0.8-0.7-1.9-1-2.9-0.8l-3,0.8
			c-4.7,1.2-9.4-1.6-10.7-6.2l-0.8-3c-0.3-1-1.1-1.8-2.1-2.1l-3-0.8c-4.6-1.3-7.4-6.1-6.2-10.7l0.8-3c0.3-1,0-2.1-0.8-2.9l-2.2-2.2
			c-3.4-3.4-3.4-8.9,0-12.4l2.1-2.2c0.7-0.8,1-1.9,0.8-2.9l-0.8-3c-1.2-4.7,1.6-9.4,6.2-10.7l3-0.8c1-0.3,1.8-1.1,2.1-2.1l0.8-3
			c1.3-4.6,6.1-7.4,10.7-6.2l3,0.8c1,0.3,2.1,0,2.9-0.8l2.2-2.2c3.4-3.4,8.9-3.4,12.4,0l2.2,2.2c0.8,0.7,1.9,1,2.9,0.8l3-0.8
			c4.7-1.2,9.4,1.6,10.7,6.2l0.8,3c0.3,1,1.1,1.8,2.1,2.1l3,0.8c4.6,1.3,7.4,6.1,6.2,10.7l-0.8,3c-0.3,1,0,2.1,0.8,2.9l2.2,2.2
			c3.4,3.4,3.4,8.9,0,12.4l-2.1,2.2c-0.7,0.8-1,1.9-0.8,2.9l0.8,3c1.2,4.7-1.6,9.4-6.2,10.7l-3,0.8c-1,0.3-1.8,1.1-2.1,2.1l-0.8,3
			c-1.3,4.6-6.1,7.4-10.7,6.2l-3-0.8c-1-0.3-2.1,0-2.9,0.8l-2.2,2.2C46.2,82.5,44,83.4,41.7,83.4 M31.2,72.1c2.3,0,4.5,0.9,6.2,2.5
			l2.2,2.2c1.2,1.2,3.1,1.2,4.2,0l2.2-2.2c2.2-2.2,5.4-3,8.4-2.3l3,0.8c1.6,0.4,3.2-0.5,3.7-2.1l0.8-3c0.8-3,3.2-5.3,6.1-6.2l3-0.8
			c1.6-0.4,2.5-2.1,2.1-3.7l-0.8-3c-0.8-3,0.1-6.2,2.3-8.4l2.1-2.2c1.2-1.2,1.2-3.1,0-4.3l-2.2-2.2c-2.2-2.2-3-5.4-2.2-8.4l0.8-3
			c0.4-1.6-0.5-3.2-2.1-3.7l-3-0.8c-3-0.8-5.3-3.2-6.1-6.2l-0.8-3c-0.5-1.6-2.1-2.5-3.7-2.1l-3,0.8c-3,0.8-6.2-0.1-8.4-2.3l-2.2-2.2
			c-1.2-1.2-3.1-1.2-4.2,0l-2.2,2.2c-2.2,2.2-5.4,3-8.4,2.3l-3-0.8c-1.6-0.4-3.2,0.5-3.7,2.1l-0.8,3c-0.8,3-3.2,5.3-6.1,6.1l-3,0.8
			c-1.6,0.4-2.5,2.1-2.1,3.7l0.8,3c0.8,3-0.1,6.2-2.2,8.4l-2.1,2.2c-1.2,1.2-1.2,3.1,0,4.3L8.8,46c2.2,2.2,3,5.4,2.2,8.4l-0.8,3
			c-0.4,1.6,0.5,3.2,2.1,3.7l3,0.8c3,0.8,5.3,3.2,6.1,6.2l0.8,3c0.4,1.6,2.1,2.5,3.7,2.1l3-0.8C29.7,72.2,30.4,72.1,31.2,72.1
			L31.2,72.1z"/>
		<path id="Path_321115" class="st1" d="M27.1,59.6c-1.6,0-2.9-1.3-2.9-2.9c0-0.8,0.3-1.5,0.8-2l30.3-30.5c1.1-1.2,2.9-1.2,4.1-0.1
			c1.2,1.1,1.2,2.9,0.1,4.1l-0.1,0.1L29.1,58.7C28.6,59.3,27.9,59.6,27.1,59.6"/>
		<path id="Path_321116" class="st1" d="M31.7,24.7c3,0,5.5,2.5,5.5,5.5s-2.5,5.5-5.5,5.5s-5.5-2.5-5.5-5.5l0,0
			C26.2,27.2,28.7,24.7,31.7,24.7"/>
		<path id="Path_321117" class="st1" d="M53.4,47.4c2.8,0,5.1,2.3,5.1,5.1s-2.3,5.1-5.1,5.1c-2.8,0-5.1-2.3-5.1-5.1c0,0,0,0,0,0
			C48.3,49.7,50.6,47.4,53.4,47.4C53.4,47.4,53.4,47.4,53.4,47.4"/>
	</g>
</g>
</svg>
