<?xml version="1.0" encoding="utf-8"?>
<!-- Generator: Adobe Illustrator 26.5.0, SVG Export Plug-In . SVG Version: 6.00 Build 0)  -->
<svg version="1.1" id="Layer_1" xmlns="http://www.w3.org/2000/svg" xmlns:xlink="http://www.w3.org/1999/xlink" x="0px" y="0px"
	 viewBox="0 0 200 200" style="enable-background:new 0 0 200 200;" xml:space="preserve">
<style type="text/css">
	.st0{clip-path:url(#SVGID_00000129923866676387298380000014986488236432795274_);}
	.st1{fill:#003173;}
	.st2{fill:#E64B16;}
</style>
<g id="Group_92858" transform="translate(9 30)">
	<g>
		<defs>
			<rect id="SVGID_1_" width="181.4" height="140.2"/>
		</defs>
		<clipPath id="SVGID_00000132785899594543614040000000209081931500144774_">
			<use xlink:href="#SVGID_1_"  style="overflow:visible;"/>
		</clipPath>
		<g id="Group_92780" style="clip-path:url(#SVGID_00000132785899594543614040000000209081931500144774_);">
			<path id="Path_323394" class="st1" d="M160.9,140.2H3.3c-1.8,0-3.3-1.5-3.3-3.3c0,0,0,0,0,0V20.5c0-1.8,1.5-3.3,3.3-3.3h140
				c1.8,0,3.3,1.5,3.3,3.4c0,1.8-1.5,3.2-3.3,3.3H6.7v109.7h150.9V37.7c0-1.8,1.5-3.3,3.4-3.3c1.8,0,3.2,1.5,3.3,3.3v99.1
				C164.2,138.7,162.7,140.2,160.9,140.2C160.9,140.2,160.9,140.2,160.9,140.2L160.9,140.2z"/>
			<path id="Path_323395" class="st2" d="M178.1,20.5c0,9.5-7.7,17.2-17.2,17.2c-9.5,0-17.2-7.7-17.2-17.2c0-9.5,7.7-17.2,17.2-17.2
				c0,0,0,0,0,0l0,0C170.4,3.3,178.1,11,178.1,20.5"/>
			<path id="Path_323396" class="st1" d="M160.9,41.1c-11.3-0.1-20.3-9.3-20.2-20.5s9.3-20.3,20.5-20.2s20.3,9.3,20.2,20.5
				c-0.1,11.1-9.1,20.1-20.2,20.2C161.1,41.1,161,41.1,160.9,41.1 M160.9,6.7c-7.7,0-13.9,6.2-13.9,13.9s6.2,13.9,13.9,13.9
				c7.7,0,13.9-6.2,13.9-13.9S168.6,6.7,160.9,6.7L160.9,6.7"/>
			<path id="Path_323397" class="st1" d="M127.8,56.7c-1.8,0-3.3-1.5-3.3-3.3c0-0.9,0.4-1.7,1-2.4l20.8-20.8
				c1.4-1.2,3.5-1.1,4.7,0.2c1.2,1.3,1.2,3.2,0,4.5l-20.8,20.8C129.6,56.3,128.7,56.7,127.8,56.7"/>
			<path id="Path_323398" class="st1" d="M119.2,56c-0.9,0-1.7-0.3-2.4-1l-8.8-8.8c-1.3-1.3-1.3-3.4,0-4.7c1.3-1.3,3.4-1.3,4.7-0.1
				l0.1,0.1l8.8,8.8c1.3,1.3,1.3,3.4,0,4.7C121,55.7,120.1,56,119.2,56"/>
			<path id="Path_323399" class="st1" d="M85.4,65.2c-1.8,0-3.3-1.5-3.3-3.3c0-0.9,0.4-1.7,1-2.4l18-18c1.3-1.3,3.4-1.4,4.7-0.1
				c1.3,1.3,1.4,3.4,0.1,4.7c0,0-0.1,0.1-0.1,0.1c0,0,0,0-0.1,0.1l-18,18C87.1,64.9,86.2,65.2,85.4,65.2"/>
			<path id="Path_323400" class="st2" d="M112.7,41.2c0,4.1-3.3,7.4-7.4,7.4c-4.1,0-7.4-3.3-7.4-7.4c0-4.1,3.3-7.4,7.4-7.4
				c0,0,0,0,0,0C109.4,33.7,112.7,37.1,112.7,41.2C112.7,41.2,112.7,41.2,112.7,41.2"/>
			<path id="Path_323401" class="st1" d="M105.3,51.9c-5.9,0-10.6-4.9-10.6-10.8c0-5.9,4.9-10.6,10.8-10.6s10.6,4.9,10.6,10.8
				c0,5.8-4.8,10.6-10.6,10.6C105.4,51.9,105.4,51.9,105.3,51.9 M105.3,37.1c-2.3,0-4.1,1.8-4.1,4.1s1.8,4.1,4.1,4.1
				s4.1-1.8,4.1-4.1C109.4,38.9,107.6,37.1,105.3,37.1L105.3,37.1z"/>
			<path id="Path_323402" class="st2" d="M133,57.6c0,4.1-3.3,7.4-7.4,7.4c-4.1,0-7.4-3.3-7.4-7.4s3.3-7.4,7.4-7.4l0,0
				C129.7,50.2,133,53.5,133,57.6L133,57.6z"/>
			<path id="Path_323403" class="st1" d="M125.6,68.4c-5.9,0-10.8-4.8-10.8-10.8c0-5.9,4.8-10.8,10.8-10.8c5.9,0,10.8,4.8,10.8,10.8
				c0,0,0,0,0,0l0,0c0,5.9-4.7,10.7-10.6,10.8C125.7,68.4,125.6,68.4,125.6,68.4 M125.6,53.5c-2.3,0-4.1,1.8-4.1,4.1
				s1.8,4.1,4.1,4.1s4.1-1.8,4.1-4.1l0,0C129.7,55.4,127.9,53.5,125.6,53.5"/>
			<path id="Path_323404" class="st2" d="M89.3,65.1c0,4.1-3.3,7.4-7.4,7.4c-4.1,0-7.4-3.3-7.4-7.4c0-4.1,3.3-7.4,7.4-7.4l0,0
				C85.9,57.6,89.3,61,89.3,65.1"/>
			<path id="Path_323405" class="st1" d="M81.8,75.8c-5.9,0-10.7-4.9-10.6-10.8S76.1,54.4,82,54.4s10.7,4.9,10.6,10.8
				c0,5.9-4.8,10.6-10.6,10.6C81.9,75.8,81.9,75.8,81.8,75.8 M81.8,61c-2.3,0-4.1,1.8-4.1,4.1s1.8,4.1,4.1,4.1s4.1-1.8,4.1-4.1
				C85.9,62.8,84.1,61,81.8,61z"/>
			<rect id="Rectangle_33848" x="16.5" y="31.9" class="st1" width="5.8" height="6"/>
			<rect id="Rectangle_33849" x="16.3" y="43.2" class="st1" width="5.8" height="6"/>
			<rect id="Rectangle_33850" x="16.6" y="54.5" class="st1" width="5.8" height="6"/>
			<rect id="Rectangle_33851" x="16.4" y="65.8" class="st1" width="5.8" height="6"/>
			<rect id="Rectangle_33852" x="28" y="31.9" class="st1" width="39.4" height="5.7"/>
			<rect id="Rectangle_33853" x="28" y="43.4" class="st1" width="39.4" height="5.7"/>
			<rect id="Rectangle_33854" x="28" y="54.7" class="st1" width="39.4" height="5.7"/>
			<rect id="Rectangle_33855" x="28" y="66.2" class="st1" width="39.4" height="5.7"/>
			<rect id="Rectangle_33856" x="19" y="97.5" class="st2" width="12.2" height="22.1"/>
			<path id="Path_323406" class="st1" d="M34.5,122.9H15.7V94.2h18.9V122.9z M22.3,116.2h5.5v-15.4h-5.5L22.3,116.2z"/>
			<rect id="Rectangle_33857" x="42.4" y="103.1" class="st2" width="12.2" height="15.9"/>
			<path id="Path_323407" class="st1" d="M57.9,122.3H39.1V99.8h18.9V122.3z M45.7,115.6h5.5v-9.2h-5.5V115.6z"/>
			<rect id="Rectangle_33858" x="64.8" y="80.8" class="st2" width="12.2" height="38.1"/>
			<path id="Path_323408" class="st1" d="M80.3,122.3H61.4V77.5h18.9V122.3z M68.1,115.6h5.6V84.2h-5.6V115.6z"/>
			<path id="Path_323409" class="st2" d="M108.8,88.8v18h18c0,9.9-8.1,18-18,18s-18-8.1-18-18S98.8,88.8,108.8,88.8z"/>
			<path id="Path_323410" class="st2" d="M114.1,83.2v18h18C132,91.3,124,83.3,114.1,83.2"/>
			<path id="Path_323411" class="st1" d="M111.8,103.5V81l2.2,0c11.1,0.1,20.1,9.1,20.2,20.2l0,2.2L111.8,103.5z M116.3,85.6V99
				h13.4C128.7,92.1,123.2,86.7,116.3,85.6"/>
		</g>
	</g>
</g>
</svg>
