<?xml version="1.0" encoding="utf-8"?>
<!-- Generator: Adobe Illustrator 26.5.0, SVG Export Plug-In . SVG Version: 6.00 Build 0)  -->
<svg version="1.1" id="Layer_1" xmlns="http://www.w3.org/2000/svg" xmlns:xlink="http://www.w3.org/1999/xlink" x="0px" y="0px"
	 viewBox="0 0 200 200" style="enable-background:new 0 0 200 200;" xml:space="preserve">
<style type="text/css">
	.st0{clip-path:url(#SVGID_00000124153133906689787220000007403749778628049329_);}
	.st1{fill:#003173;}
	.st2{fill:#E64B16;}
</style>
<g id="Group_92860" transform="translate(9 30)">
	<g>
		<defs>
			<rect id="SVGID_1_" width="182" height="139.4"/>
		</defs>
		<clipPath id="SVGID_00000130633221922797838410000009009972728926420120_">
			<use xlink:href="#SVGID_1_"  style="overflow:visible;"/>
		</clipPath>
		<g id="Group_92784" style="clip-path:url(#SVGID_00000130633221922797838410000009009972728926420120_);">
			<path id="Path_323422" class="st1" d="M44,35c-1.7,0-3.1-1.4-3.1-3.1V3.1C41,1.4,42.3,0,44,0h79.9c0.9,0,1.8,0.4,2.4,1.2
				L143,22.3c1,1.3,0.8,3.3-0.6,4.3c-1.3,1-3.2,0.8-4.2-0.5l-15.7-20H47.1v25.8C47.1,33.6,45.7,35,44,35C44,35,44,35,44,35L44,35z"
				/>
			<path id="Path_323423" class="st1" d="M140.6,139.4H129l-85-0.3c-1.7,0-3.1-1.4-3-3.1v-19.8c0-1.7,1.4-3.1,3-3.1
				c1.7,0,3.1,1.4,3.1,3V133l90.4,0.3v-106h-15.9c-1.7,0-3.1-1.4-3.1-3.1V3.1c0-1.7,1.4-3.1,3.1-3.1c1.7,0,3.1,1.4,3.1,3.1v18.1
				h15.9c1.7,0,3.1,1.4,3.1,3.1v112.1C143.6,138,142.2,139.4,140.6,139.4"/>
			<path id="Path_323424" class="st1" d="M91.1,30.7H61.9c-1.7,0-3.1-1.4-3.1-3.1c0-1.7,1.4-3.1,3.1-3.1h29.3c1.7,0,3.1,1.4,3.1,3.1
				C94.2,29.3,92.8,30.7,91.1,30.7"/>
			<path id="Path_323425" class="st1" d="M108.2,46.3H63.5c-1.7,0-3.1-1.4-3.1-3.1s1.4-3.1,3.1-3.1h44.7c1.7,0,3.1,1.4,3.1,3.1
				S109.9,46.3,108.2,46.3L108.2,46.3z"/>
			<path id="Path_323426" class="st1" d="M128.2,62.4H69.5c-1.7,0-3.1-1.3-3.1-3s1.3-3.1,3-3.1c0,0,0,0,0,0h58.8
				c1.7,0,3.1,1.3,3.1,3s-1.3,3.1-3,3.1c0,0,0,0,0,0H128.2"/>
			<path id="Path_323427" class="st1" d="M128.4,80.3H76.5c-1.7,0-3.1-1.3-3.1-3s1.3-3.1,3-3.1c0,0,0,0,0,0h51.9
				c1.7,0,3.1,1.3,3.1,3c0,1.7-1.3,3.1-3,3.1c0,0,0,0,0,0H128.4"/>
			<path id="Path_323428" class="st1" d="M149.3,96.9H83c-1.7,0-3.1-1.3-3.1-3s1.3-3.1,3-3.1c0,0,0,0,0,0h66.4c1.7,0,3.1,1.3,3.1,3
				c0,1.7-1.3,3.1-3,3.1c0,0,0,0,0,0H149.3"/>
			<path id="Path_323429" class="st1" d="M125.1,115.6H62.9c-1.7,0-3.1-1.3-3.1-3s1.3-3.1,3-3.1c0,0,0,0,0,0h62.3
				c1.7,0,3.1,1.3,3.1,3s-1.3,3.1-3,3.1c0,0,0,0,0,0H125.1"/>
			<path id="Path_323430" class="st2" d="M124.2,112.8l1.7-16.2l37.8-42.9c8.9-9.8,21.1,1.3,12.2,11.1l-36.4,41.9L124.2,112.8z"/>
			<path id="Path_323431" class="st1" d="M124.2,115.8c-1.7,0-3.1-1.4-3.1-3.1c0-0.1,0-0.2,0-0.3l1.7-16.2c0.1-0.6,0.3-1.2,0.7-1.7
				l37.8-42.9c5.8-6.3,13-5.8,17.1-2s5.3,10.9-0.4,17.2l-36.3,41.9c-0.3,0.4-0.7,0.7-1.2,0.8l-15.3,6.1
				C125,115.8,124.6,115.8,124.2,115.8 M128.9,97.8l-1.1,10.2l9.9-3.9l35.9-41.4c3.2-3.6,2.8-6.9,0.9-8.6s-5.3-1.9-8.4,1.6
				L128.9,97.8z"/>
			<path id="Path_323432" class="st1" d="M30.5,124.3c-1.3,0-2.4-0.8-2.9-2L0.2,48.6C-0.4,47,0.4,45.3,2,44.7c0,0,0,0,0,0h0
				l54.5-20.3c1.6-0.6,3.3,0.2,3.9,1.8l27.5,73.7c0.6,1.6-0.2,3.3-1.8,3.9c0,0,0,0,0,0l0,0l-54.5,20.3
				C31.3,124.2,30.9,124.3,30.5,124.3 M7,49.3l25.3,67.9l48.7-18.2L55.7,31.1L7,49.3z"/>
			
				<rect id="Rectangle_33861" x="19.6" y="48.1" transform="matrix(0.937 -0.3494 0.3494 0.937 -16.5413 16.2196)" class="st2" width="34.2" height="11.7"/>
			<path id="Path_323433" class="st1" d="M22.7,68.5c-1.3,0-2.4-0.8-2.9-2l-4.1-11c-0.6-1.6,0.2-3.3,1.8-3.9l0,0l32-11.9
				c1.6-0.6,3.3,0.2,3.9,1.8l4.1,11c0.6,1.6-0.2,3.3-1.8,3.9l-32,11.9C23.5,68.4,23.1,68.5,22.7,68.5 M22.6,56.2l2,5.3l26.3-9.8
				l-2-5.3L22.6,56.2z"/>
			<path id="Path_323434" class="st1" d="M30.1,73.8c2.6,0,4.7,2.1,4.7,4.7s-2.1,4.7-4.7,4.7s-4.7-2.1-4.7-4.7S27.5,73.8,30.1,73.8
				L30.1,73.8"/>
			<path id="Path_323435" class="st1" d="M43.6,68.8c2.6,0,4.7,2.1,4.7,4.7s-2.1,4.7-4.7,4.7s-4.7-2.1-4.7-4.7S41,68.8,43.6,68.8
				L43.6,68.8"/>
			<path id="Path_323436" class="st1" d="M59.3,62.9c2.6,0,4.7,2.1,4.7,4.7s-2.1,4.7-4.7,4.7c-2.6,0-4.7-2.1-4.7-4.7
				S56.8,62.9,59.3,62.9L59.3,62.9"/>
			<path id="Path_323437" class="st1" d="M34.6,85.8c2.6,0,4.7,2.1,4.7,4.7s-2.1,4.7-4.7,4.7s-4.7-2.1-4.7-4.7S32,85.8,34.6,85.8
				L34.6,85.8"/>
			<path id="Path_323438" class="st1" d="M48,80.8c2.6,0,4.7,2.1,4.7,4.7s-2.1,4.7-4.7,4.7s-4.7-2.1-4.7-4.7S45.4,80.8,48,80.8
				L48,80.8"/>
			<path id="Path_323439" class="st1" d="M63.8,74.9c2.6,0,4.7,2.1,4.7,4.7s-2.1,4.7-4.7,4.7s-4.7-2.1-4.7-4.7S61.2,74.9,63.8,74.9
				L63.8,74.9"/>
			<path id="Path_323440" class="st1" d="M39.6,99.3c2.6,0,4.7,2.1,4.7,4.7s-2.1,4.7-4.7,4.7s-4.7-2.1-4.7-4.7S37,99.3,39.6,99.3
				L39.6,99.3"/>
			<path id="Path_323441" class="st1" d="M53.1,94.3c2.6,0,4.7,2.1,4.7,4.7s-2.1,4.7-4.7,4.7s-4.7-2.1-4.7-4.7S50.5,94.3,53.1,94.3
				L53.1,94.3"/>
			<path id="Path_323442" class="st1" d="M68.8,88.4c2.6,0,4.7,2.1,4.7,4.7s-2.1,4.7-4.7,4.7s-4.7-2.1-4.7-4.7S66.3,88.4,68.8,88.4
				L68.8,88.4"/>
		</g>
	</g>
</g>
</svg>
