<?xml version="1.0" encoding="utf-8"?>
<!-- Generator: Adobe Illustrator 26.5.0, SVG Export Plug-In . SVG Version: 6.00 Build 0)  -->
<svg version="1.1" id="Layer_1" xmlns="http://www.w3.org/2000/svg" xmlns:xlink="http://www.w3.org/1999/xlink" x="0px" y="0px"
	 viewBox="0 0 200 200" style="enable-background:new 0 0 200 200;" xml:space="preserve">
<style type="text/css">
	.st0{fill:#FFFFFF;}
	.st1{fill:none;stroke:#003173;stroke-width:5;}
	.st2{fill:#E64B16;}
</style>
<g id="Group_92864" transform="translate(10.791 101.782)">
	<g id="Rectangle_33863">
		<path class="st0" d="M2,0h82.5c1.1,0,2,0.9,2,2v82.5c0,1.1-0.9,2-2,2H2c-1.1,0-2-0.9-2-2V2C0,0.9,0.9,0,2,0z"/>
		<path class="st1" d="M3,2.5h80.5C83.8,2.5,84,2.7,84,3v80.5c0,0.3-0.2,0.5-0.5,0.5H3c-0.3,0-0.5-0.2-0.5-0.5V3
			C2.5,2.7,2.7,2.5,3,2.5z"/>
	</g>
	<rect id="Rectangle_33864" x="19.7" y="7.9" class="st2" width="47.2" height="19.7"/>
</g>
<g id="Group_92865" transform="translate(101.781 101.782)">
	<g id="Rectangle_33865">
		<path class="st0" d="M2,0h82.5c1.1,0,2,0.9,2,2v82.5c0,1.1-0.9,2-2,2H2c-1.1,0-2-0.9-2-2V2C0,0.9,0.9,0,2,0z"/>
		<path class="st1" d="M3,2.5h80.5C83.8,2.5,84,2.7,84,3v80.5c0,0.3-0.2,0.5-0.5,0.5H3c-0.3,0-0.5-0.2-0.5-0.5V3
			C2.5,2.7,2.7,2.5,3,2.5z"/>
	</g>
	<rect id="Rectangle_33866" x="23.6" y="7.9" class="st2" width="43.3" height="19.7"/>
</g>
<g id="Group_92863" transform="translate(61.921 10.791)">
	<g id="Rectangle_33867">
		<path class="st0" d="M2,0h82.5c1.1,0,2,0.9,2,2v82.5c0,1.1-0.9,2-2,2H2c-1.1,0-2-0.9-2-2V2C0,0.9,0.9,0,2,0z"/>
		<path class="st1" d="M3,2.5h80.5C83.8,2.5,84,2.7,84,3v80.5c0,0.3-0.2,0.5-0.5,0.5H3c-0.3,0-0.5-0.2-0.5-0.5V3
			C2.5,2.7,2.7,2.5,3,2.5z"/>
	</g>
	<rect id="Rectangle_33868" x="19.7" y="7.9" class="st2" width="43.3" height="19.7"/>
</g>
</svg>
