<?xml version="1.0" encoding="utf-8"?>
<!-- Generator: Adobe Illustrator 26.5.0, SVG Export Plug-In . SVG Version: 6.00 Build 0)  -->
<svg version="1.1" id="Layer_1" xmlns="http://www.w3.org/2000/svg" xmlns:xlink="http://www.w3.org/1999/xlink" x="0px" y="0px"
	 viewBox="0 0 200 200" style="enable-background:new 0 0 200 200;" xml:space="preserve">
<style type="text/css">
	.st0{clip-path:url(#SVGID_00000109744470491464698880000006717194188874090122_);}
	.st1{fill:#E64B16;}
	.st2{fill:#003173;}
</style>
<g id="Group_92859" transform="translate(14 13)">
	<g>
		<defs>
			<rect id="SVGID_1_" width="171.5" height="174.5"/>
		</defs>
		<clipPath id="SVGID_00000110442444141750321500000009910419543462257284_">
			<use xlink:href="#SVGID_1_"  style="overflow:visible;"/>
		</clipPath>
		<g id="Group_92782" style="clip-path:url(#SVGID_00000110442444141750321500000009910419543462257284_);">
			<path id="Path_323412" class="st1" d="M73.9,82.8c-0.9,0-1.8-0.4-2.4-1.2L59.2,66.1l1-2.1c0.7-1.2,2-1.9,3.4-1.7
				c3.3,0.4,5.9-0.3,7.2-2.1c0.9-1.3,1-3,0.2-4.3c-1.1-2.2-3.9-3.4-7.6-3.4c-1.7,0-3.1-1.4-3.1-3.1c0-1.7,1.4-3.1,3.1-3.1
				c6,0,10.8,2.5,13,6.7c1.8,3.4,1.6,7.5-0.6,10.7c-1.7,2.4-4.2,4-7.1,4.5l7.6,9.6c1,1.3,0.8,3.3-0.5,4.3
				C75.3,82.6,74.6,82.8,73.9,82.8L73.9,82.8z"/>
			<path id="Path_323413" class="st1" d="M82.2,53.7H82l-19.9-1.2c-1.7-0.1-3-1.6-2.9-3.2c0.1-1.7,1.5-2.9,3.1-2.9c0,0,0.1,0,0.1,0
				l19.9,1.2c1.7,0.1,3,1.5,2.9,3.2C85.2,52.4,83.8,53.7,82.2,53.7L82.2,53.7z"/>
			<path id="Path_323414" class="st1" d="M82.1,61.8h-0.2l-19.4-1.2c-1.7-0.1-3-1.6-2.9-3.2c0.1-1.7,1.5-2.9,3.1-2.9l0.1,0l19.4,1.2
				c1.7,0.1,3,1.5,2.9,3.2C85.1,60.5,83.7,61.8,82.1,61.8L82.1,61.8z"/>
			<path id="Path_323415" class="st2" d="M153.7,52.4c-1.1,0-2.2-0.6-2.7-1.7l-20-38.7c-0.8-1.5-0.2-3.4,1.3-4.1L147,0.3
				c1.5-0.8,3.4-0.2,4.1,1.3l0,0l20,38.7c0.8,1.5,0.2,3.4-1.3,4.1l-14.7,7.6C154.7,52.3,154.2,52.4,153.7,52.4 M137.8,12L155,45.2
				l9.3-4.8L147.1,7.2L137.8,12z"/>
			<path id="Path_323416" class="st2" d="M23.1,174.5c-1.1,0-2.2-0.6-2.7-1.7l-20-38.7c-0.8-1.5-0.2-3.4,1.3-4.1c0,0,0,0,0,0l0,0
				l14.7-7.6c1.5-0.8,3.4-0.2,4.1,1.3l0,0l20,38.7c0.8,1.5,0.2,3.3-1.3,4.1l0,0l-14.7,7.6C24.1,174.4,23.6,174.5,23.1,174.5
				 M7.2,134.1l17.2,33.2l9.3-4.8l-17.2-33.2L7.2,134.1z"/>
			<path id="Path_323417" class="st2" d="M99.7,59.4c-4.1-0.1-7.5-3.6-8-8.2C91,46.5,94.2,42,98.9,41c6.8-2.2,8.5-4.7,8.5-5.8
				s-1.8-2.7-4.8-3.5c-6.2-1.5-12.7,1.4-15.7,7c-0.6,0.9-1.6,1.5-2.6,1.5h-29c-1.7,0-3.1-1.4-3.1-3.1c0-0.9,0.4-1.8,1.1-2.3
				l24.5-20.9c0.2-0.1,0.3-0.2,0.5-0.4c12.1-5.9,26.1-6.6,38.7-1.7c11,4.3,15,4.6,16.2,4.5c1.1-1.2,3.1-1.3,4.3-0.2
				c0.6,0.6,1,1.4,1,2.3c0,1.2-0.7,2.4-1.7,3.1c-2.1,1.5-6.4,2.1-22-4c-10.8-4.1-22.8-3.7-33.2,1.2L63.5,34.1h19.1
				c4.7-7.1,13.3-10.4,21.5-8.3c5.6,1.4,9.2,5,9.4,9.2c0.1,3.5-2,8.4-12.9,11.9c-2.7,0.7-3,2.4-2.8,3.6c0.2,1.6,1.2,2.8,2,2.8
				c18.6-0.2,33.6-5.1,46-15c1.3-1.1,3.2-0.8,4.3,0.5c1.1,1.3,0.8,3.2-0.5,4.3l0,0C136.1,53.9,119.8,59.2,99.7,59.4"/>
			<path id="Path_323418" class="st2" d="M48.1,104.6c-1.3,0-2.5-0.9-2.9-2.2l-3.3-10.5l-9.8-0.1c-1.7,0-3-1.4-3-3.1
				c0-0.1,0-0.1,0-0.2L32.6,38c0.1-1.6,1.4-2.8,3.1-2.8h47.8c1.7,0,3.1,1.4,3.1,3.1c0,1.7-1.4,3.1-3.1,3.1H38.5l-3.1,44.4l77.4,0.6
				l2.9-31.2c0.1-1.5,1.4-2.7,3-2.8c1.5,0,2.9,1.1,3.1,2.6l6,40.2c0.3,1.7-0.9,3.2-2.6,3.5c-0.1,0-0.2,0-0.2,0l-76.6,5.9
				C48.3,104.6,48.2,104.6,48.1,104.6 M48.3,92l2,6.3l70.9-5.4l-1.8-11.9l-0.8,8.8c-0.1,1.6-1.5,2.8-3.1,2.8h0L48.3,92z"/>
			<path id="Path_323419" class="st2" d="M64.4,118.5c-1.1,0-2.1-0.6-2.7-1.6L54,103c-0.8-1.5-0.2-3.4,1.3-4.1
				c1.4-0.7,3.2-0.2,4.1,1.2l6.6,12.1l64.7-9.9l-14.2-44.1c-0.5-1.6,0.4-3.3,2-3.8c1.6-0.5,3.3,0.4,3.8,2l15.3,47.5
				c0.5,1.6-0.4,3.3-2,3.9c0,0,0,0,0,0c-0.2,0-0.3,0.1-0.5,0.1l-70.4,10.8C64.7,118.5,64.5,118.5,64.4,118.5"/>
			<path id="Path_323420" class="st2" d="M70.7,140.4H57.2c-1.7,0-3.1-1.4-3.1-3.1s1.4-3.1,3.1-3.1c0,0,0,0,0,0h13.5
				c3.5,0,5-1.1,5.1-1.5c-0.1-0.3-1.6-1.3-4.9-1.4c-3.7,0.4-7.5,0-11.1-1.2c-7-2.4-12.6-2.6-17.6-0.6l-16.8,7.1
				c-1.6,0.7-3.4,0-4-1.6c-0.7-1.6,0-3.4,1.6-4c0,0,0,0,0.1,0l16.8-7.1c6.5-2.6,13.6-2.5,21.8,0.4c2.8,0.9,5.7,1.2,8.6,0.9
				c0.1,0,0.3,0,0.4,0c7.7,0,11.3,3.9,11.3,7.6S78.4,140.4,70.7,140.4"/>
			<path id="Path_323421" class="st2" d="M35.1,160.5c-1.7,0-3.1-1.4-3.1-3.1c0-1,0.5-2,1.4-2.6c10.6-6.8,17.1-9,27.8-3.8
				c0.1,0.1,0.3,0.1,0.4,0.2c7.2,4.9,9.3,3.6,18-1.6l2.5-1.5l26.4-14.7c1.1-0.5,2-1.4,2.5-2.4c0.2-0.3,0.2-0.7,0-1.1
				c-0.4-0.7-2-1-4.3,0.4l-16.9,7.2c-6.7,2-14.5,3.9-23.1,3.1c-1.7-0.2-2.9-1.7-2.7-3.4c0.2-1.6,1.6-2.8,3.2-2.7
				c7.6,0.7,14.6-1,20.5-2.8l16.2-6.9c5.5-3.1,10.4-1.3,12.4,2.1c1.1,2,1.2,4.4,0.3,6.5c-1.1,2.3-2.9,4.2-5.2,5.4l-28.7,16.1
				c-9,5.5-14.1,8.5-24.4,1.6c-7.6-3.6-11.7-2.9-21.6,3.5C36.3,160.4,35.7,160.5,35.1,160.5"/>
		</g>
	</g>
</g>
</svg>
