<?xml version="1.0" encoding="utf-8"?>
<!-- Generator: Adobe Illustrator 26.5.0, SVG Export Plug-In . SVG Version: 6.00 Build 0)  -->
<svg version="1.1" id="Layer_1" xmlns="http://www.w3.org/2000/svg" xmlns:xlink="http://www.w3.org/1999/xlink" x="0px" y="0px"
	 viewBox="0 0 200 200" style="enable-background:new 0 0 200 200;" xml:space="preserve">
<style type="text/css">
	.st0{clip-path:url(#SVGID_00000160897890924851334400000009773086178710082213_);}
	.st1{fill:#FFFFFF;}
	.st2{fill:#003173;}
	.st3{fill:#E64C17;}
</style>
<g id="Group_92856" transform="translate(7 35)">
	<g>
		<defs>
			<rect id="SVGID_1_" width="186.1" height="129.1"/>
		</defs>
		<clipPath id="SVGID_00000099625316891650557930000009559543455899397008_">
			<use xlink:href="#SVGID_1_"  style="overflow:visible;"/>
		</clipPath>
		<g id="Group_92493" style="clip-path:url(#SVGID_00000099625316891650557930000009559543455899397008_);">
			<path id="Path_321514" class="st1" d="M136.4,91.3l-3.8-16.1l-2.5-9c0,0-7.7-16.7,10.2-26.6c0,0,13.7-9.9,19.4,5.4
				c0,0,15.5,0,10,20.8l1.4,9.2l-1.2,3.4l-3.5,2l-4.5,11.2l-3.5,1.6l4.1,6.3l11,4.5l8.4,9.2l2.5,13.7l-36,0.4h-32.7l1.4-7.6l4.7-11
				l14.4-8.4l2.1-4.4c0.8-1.6,0.1-3.5-1.6-4.3C136.7,91.4,136.5,91.4,136.4,91.3"/>
			<path id="Path_321515" class="st2" d="M148.1,100.1c-3.6,0-7.2-2-11.9-6.7c-4-3.6-4.9-10.6-5.6-18.2c-3.9-5.4-5-14.8-3.9-21.6
				c2.4-11.7,13.2-18.7,22.2-18.7c6.2,0,10.7,3,12.4,8.2c3.9,0.2,7.4,2.6,9.1,6.1c3.3,6.2,2.5,16-1.9,24c-0.5,7.1-2.8,17.8-6.3,20.6
				C156.3,97.6,152.1,100.1,148.1,100.1 M149,39L149,39c-7.7,0-16.7,5.8-18.6,15.4c-0.9,5.9,0.1,14.5,3.5,18.6l0.4,0.5l0.1,0.7
				c0.7,8.1,1.6,13.6,4.3,16.1c8.2,8.2,11,6.9,21.5,0c1.4-1.1,4.1-8.9,4.6-17.9l0-0.5l0.2-0.4c3.8-6.8,4.7-15.3,2.1-20.2
				c-1.3-2.7-4.2-4.3-7.2-4l-1.5,0l-0.4-1.7C156.8,39.7,151.3,39,149,39L149,39z"/>
			<path id="Path_321516" class="st2" d="M132.6,75.3c-0.1,0-0.1,0-0.2,0c-1.1-0.2-1.9-1.1-1.7-2.2c0.5-6.3,2.2-13.6,11.6-13.4
				c7.5-0.2,12.3-2.7,15.2-7.9c0.4-0.9,1.5-1.3,2.4-0.8c0.1,0,0.1,0.1,0.2,0.1c0.4,0.3,0.7,0.6,0.8,1.1c0.9,2.6,2.1,5.1,3.6,7.5
				c1.9,3.1,3.7,6.1,4,11.4c0.1,1.1-0.6,2.1-1.7,2.2c-1.1,0-2-0.8-2-1.9c0,0,0,0,0,0c-0.3-4.3-1.7-6.6-3.4-9.5
				c-1-1.6-1.9-3.2-2.7-4.9c-3.7,4.5-9.1,6.7-16.4,6.9c-5.4-0.1-7.3,2.3-7.8,9.6C134.4,74.4,133.6,75.2,132.6,75.3"/>
			<path id="Path_321517" class="st2" d="M167,81.8c-0.1,0-0.3,0-0.4,0c-1.1-0.1-1.9-1.1-1.8-2.2c0-1.1,0.9-2,2-1.9c0,0,0,0,0,0h0
				c0.4,0.1,0.9-0.1,1.1-0.4c0.3-0.5,1.3-2.5-0.5-9.3c-0.3-1.1,0.2-2.2,1.3-2.6c1-0.3,2,0.3,2.3,1.3c0,0,0,0.1,0,0.1
				c1.7,6.3,1.6,10.6-0.2,13C170.1,81.1,168.6,81.8,167,81.8"/>
			<path id="Path_321518" class="st2" d="M131.8,82.6c-1.6,0-3-0.7-3.9-2c-1.8-2.5-1.9-6.7-0.2-13c0.2-1,1.2-1.7,2.2-1.4
				c0,0,0.1,0,0.1,0c1,0.4,1.6,1.5,1.3,2.6c-1.8,6.8-0.8,8.8-0.5,9.3c0.3,0.4,0.7,0.5,1.1,0.4c1.1-0.1,2,0.8,2.1,1.8c0,0,0,0,0,0
				c0.1,1.1-0.6,2.1-1.7,2.3c0,0-0.1,0-0.1,0C132.1,82.6,131.9,82.6,131.8,82.6"/>
			<path id="Path_321519" class="st2" d="M184,129.1h-67.5c-1.1-0.1-1.9-1-1.9-2.1c0-0.1,0-0.1,0-0.2c1.3-16.8,9.1-26.5,23.3-28.7
				c0.7-0.1,1.3,0.2,1.7,0.7c3.3,4.4,6.7,6.6,10.1,6.8c3.3,0.1,6.9-1.7,10.6-5.5c-1.7-2-2.6-4.5-2.6-7.2c-0.1-1,0.6-2,1.7-2.1
				c1-0.1,2,0.6,2.1,1.7c0,0.1,0,0.2,0,0.3c0.1,2.4,0.9,4.1,2.4,5.2c18.1,4.4,23.1,18.5,21.9,29.2C185.8,128.2,185,129,184,129.1
				 M118.6,124.9h63.6c0.3-8.9-4.4-18.9-18.4-22.7c-4.8,5.2-9.6,7.7-14.2,7.6c-4.3-0.2-8.4-2.7-12.2-7.4
				C126.4,104.5,120.2,111.9,118.6,124.9z"/>
			<path id="Path_321520" class="st2" d="M138.2,102.3c-1.1-0.1-1.9-1-1.9-2.1c0-0.4,0.1-0.7,0.3-1.1c0.9-1.5,1.2-3.4,0.9-5.1
				c-0.2-1.1,0.5-2.1,1.5-2.4c1-0.2,2,0.6,2.2,1.6c0,0,0,0.1,0,0.1c0.5,2.7,0,5.6-1.4,8C139.5,101.9,138.9,102.3,138.2,102.3"/>
			<path id="Path_321521" class="st1" d="M21.7,91.3l-3.8-16.1l-2.5-9c0,0-7.7-16.7,10.2-26.6c0,0,13.7-9.9,19.4,5.4
				c0,0,15.5,0,10,20.8l1.4,9.2l-1.2,3.4l-3.5,2l-4.5,11.2l-3.5,1.6l4.1,6.3l11,4.5l8.4,9.2l2.5,13.7l-36,0.4H1.1l1.4-7.6l4.7-11
				l14.4-8.4l2.1-4.4c0.8-1.6,0.1-3.5-1.6-4.3C22.1,91.4,21.9,91.4,21.7,91.3"/>
			<path id="Path_321522" class="st2" d="M33.4,100.1c-3.6,0-7.2-2-11.9-6.7c-4-3.6-4.9-10.6-5.6-18.2C12,69.9,11,60.4,12,53.6
				c2.4-11.7,13.2-18.7,22.2-18.7c6.2,0,10.7,3,12.4,8.2c3.9,0.2,7.4,2.6,9.1,6.1c3.3,6.2,2.5,16-1.9,24c-0.5,7.1-2.8,17.8-6.3,20.6
				C41.7,97.6,37.5,100.1,33.4,100.1 M34.3,39L34.3,39c-7.7,0-16.7,5.8-18.6,15.4c-0.9,5.9,0.1,14.5,3.5,18.6l0.4,0.5l0.1,0.7
				c0.7,8.1,1.6,13.6,4.3,16.1c8.2,8.2,11,6.9,21.5,0c1.4-1.1,4.1-8.9,4.7-17.9l0-0.5l0.2-0.4c3.8-6.8,4.7-15.3,2.1-20.2
				c-1.3-2.7-4.2-4.3-7.2-4l-1.5,0l-0.3-1.7C42.1,39.7,36.7,39,34.3,39L34.3,39z"/>
			<path id="Path_321523" class="st2" d="M17.9,75.3c-0.1,0-0.1,0-0.2,0c-1.1-0.2-1.9-1.1-1.7-2.2c0.5-6.3,2.2-13.6,11.6-13.4
				c7.5-0.2,12.3-2.7,15.2-7.9c0.4-0.9,1.5-1.3,2.4-0.8c0.1,0,0.1,0.1,0.2,0.1c0.4,0.3,0.7,0.6,0.8,1.1c0.9,2.6,2.1,5.1,3.6,7.5
				c1.9,3.1,3.7,6.1,4,11.4c0.1,1.1-0.6,2.1-1.7,2.2c-1.1,0-2-0.8-2-1.9c0,0,0,0,0,0c-0.3-4.3-1.7-6.6-3.4-9.5
				c-1-1.6-1.9-3.2-2.7-4.9c-3.7,4.5-9,6.7-16.4,6.9c-5.4-0.1-7.3,2.3-7.8,9.6C19.8,74.4,19,75.2,17.9,75.3"/>
			<path id="Path_321524" class="st2" d="M52.4,81.8c-0.1,0-0.3,0-0.4,0c-1.1-0.1-1.9-1.1-1.8-2.2c0-1.1,0.9-2,2-1.9c0,0,0,0,0,0
				l0,0c0.4,0.1,0.9-0.1,1.1-0.4c0.3-0.5,1.3-2.5-0.5-9.3c-0.3-1.1,0.2-2.2,1.3-2.6c1-0.3,2,0.3,2.3,1.3c0,0,0,0.1,0,0.1
				c1.7,6.3,1.6,10.6-0.2,13C55.4,81.1,54,81.8,52.4,81.8"/>
			<path id="Path_321525" class="st2" d="M17.2,82.6c-1.6,0-3-0.7-3.9-2c-1.8-2.5-1.9-6.7-0.2-13c0.2-1,1.2-1.7,2.2-1.4
				c0,0,0.1,0,0.1,0c1,0.4,1.6,1.5,1.3,2.6c-1.8,6.8-0.8,8.8-0.5,9.3c0.3,0.4,0.7,0.5,1.1,0.4c1.1-0.1,2,0.8,2.1,1.8c0,0,0,0,0,0
				c0.1,1.1-0.6,2.1-1.7,2.3c0,0-0.1,0-0.1,0C17.4,82.6,17.3,82.6,17.2,82.6"/>
			<path id="Path_321526" class="st2" d="M69.4,129.1H1.9C0.8,129,0,128.1,0,127c0-0.1,0-0.1,0-0.2c1.3-16.8,9.1-26.5,23.3-28.7
				c0.7-0.1,1.3,0.2,1.7,0.7c3.3,4.4,6.7,6.6,10.1,6.8c3.3,0.1,6.9-1.7,10.6-5.5c-1.7-2-2.6-4.5-2.6-7.2c-0.1-1,0.6-2,1.7-2.1
				s2,0.6,2.1,1.7c0,0.1,0,0.2,0,0.3c0.1,2.4,0.9,4.1,2.4,5.2c18.1,4.4,23.1,18.5,21.9,29.2C71.2,128.2,70.4,129,69.4,129.1
				 M4,124.9h63.6c0.3-8.9-4.4-18.9-18.4-22.7c-4.8,5.2-9.6,7.8-14.2,7.6c-4.3-0.2-8.4-2.7-12.2-7.4C11.7,104.5,5.6,111.9,4,124.9z"
				/>
			<path id="Path_321527" class="st2" d="M23.6,102.3c-1.1-0.1-1.9-1-1.9-2.1c0-0.4,0.1-0.7,0.3-1.1c0.9-1.5,1.2-3.4,0.9-5.1
				c-0.2-1.1,0.5-2.1,1.5-2.4c1-0.2,2,0.6,2.2,1.6c0,0,0,0.1,0,0.1c0.5,2.7,0,5.6-1.4,8C24.9,101.9,24.2,102.3,23.6,102.3"/>
			<path id="Path_321528" class="st1" d="M72.6,77.4l-5.2-22l-3.5-12.4c0,0-10.6-22.9,14-36.4c0,0,18.8-13.5,26.6,7.4
				c0,0,21.3,0,13.7,28.5l2,12.6l-1.7,4.6l-4.8,2.8l-6.2,15.3l-4.8,2.1l5.6,8.6l15.1,6.1l11.5,12.6l3.4,18.7l-49.3,0.6H44.4l2-10.4
				l6.4-15l19.8-11.5l2.9-6c1-2.2,0.1-4.9-2.2-5.9C73.1,77.5,72.9,77.4,72.6,77.4"/>
			<path id="Path_321529" class="st2" d="M88.6,89.4c-4.9,0-9.8-2.7-16.3-9.2c-5.4-4.9-6.8-14.5-7.6-24.9
				c-5.4-7.4-6.8-20.3-5.4-29.6c3.2-16,18-25.6,30.5-25.7c8.5-0.1,14.6,4.1,17,11.2c5.3,0.3,10.1,3.5,12.5,8.3
				c4.5,8.4,3.4,21.9-2.6,32.9c-0.7,9.7-3.8,24.4-8.7,28.2C99.9,85.9,94.2,89.4,88.6,89.4 M89.9,5.7L89.9,5.7
				c-10.5,0.1-22.9,7.9-25.5,21c-1.2,8.1,0.2,19.9,4.7,25.5l0.6,0.7l0.1,0.9c0.9,11.1,2.2,18.6,6,22c11.2,11.2,15,9.4,29.5-0.1
				c1.9-1.5,5.6-12.2,6.4-24.5l0-0.7l0.3-0.6c5.2-9.3,6.4-20.9,2.8-27.7c-2-3.8-5.3-5.7-9.9-5.5l-2.1,0.1l-0.5-2.3
				C100.6,6.6,93.1,5.7,89.9,5.7L89.9,5.7z"/>
			<path id="Path_321530" class="st2" d="M67.4,55.3c-0.1,0-0.1,0-0.2,0c-1.5-0.2-2.5-1.6-2.4-3.1c0.6-8.7,3.1-18.6,15.9-18.4
				c10.2-0.2,16.9-3.7,20.8-10.9c0.6-1.2,2.1-1.7,3.3-1.1c0.1,0,0.2,0.1,0.3,0.1c0.5,0.4,0.9,0.9,1.1,1.5c1.2,3.6,2.9,7,5,10.2
				c2.6,4.3,5,8.3,5.5,15.6c0.2,1.5-0.9,2.9-2.4,3.1c-1.5,0.1-2.7-1.1-2.8-2.6c0,0,0,0,0,0c-0.4-5.8-2.3-9-4.7-13
				c-1.4-2.2-2.6-4.4-3.7-6.7c-5,6.1-12.4,9.2-22.4,9.4c-7.3-0.2-10,3.2-10.7,13.2C69.9,54.1,68.8,55.3,67.4,55.3"/>
			<path id="Path_321531" class="st2" d="M114.6,64.3c-0.2,0-0.4,0-0.6,0c-1.5-0.2-2.6-1.5-2.4-3c0-1.5,1.2-2.7,2.7-2.7c0,0,0,0,0,0
				h0c0.6,0.1,1.2-0.1,1.6-0.6c0.5-0.6,1.8-3.4-0.7-12.7c-0.4-1.5,0.3-3,1.8-3.5c1.4-0.4,2.8,0.4,3.2,1.8c0,0.1,0,0.1,0,0.2
				c2.3,8.6,2.2,14.5-0.2,17.9C118.8,63.3,116.8,64.3,114.6,64.3"/>
			<path id="Path_321532" class="st2" d="M66.3,65.5c-2.1,0-4.2-1-5.4-2.7c-2.5-3.4-2.6-9.2-0.3-17.9c0.3-1.4,1.7-2.3,3.1-2
				c0.1,0,0.1,0,0.2,0c1.4,0.5,2.2,2.1,1.8,3.5c-2.5,9.3-1.2,12.1-0.7,12.7c0.4,0.5,1,0.7,1.6,0.6c1.5-0.1,2.7,1,2.8,2.5
				c0,0,0,0,0,0.1c0.2,1.5-0.9,2.9-2.3,3.1c0,0-0.1,0-0.1,0C66.7,65.5,66.5,65.5,66.3,65.5"/>
			<path id="Path_321533" class="st3" d="M44.8,126.8c0,0-1.4-33.7,29.4-37c0,0,16.5,22.1,35.4-0.6c0,0,29.7,2.9,27.9,37.3
				L44.8,126.8z"/>
			<path id="Path_321534" class="st2" d="M137.9,129.1H45.4c-1.5-0.1-2.7-1.3-2.6-2.9c0-0.1,0-0.2,0-0.2
				c1.8-23.1,12.5-36.3,31.9-39.3c0.9-0.1,1.8,0.3,2.4,1c4.5,6,9.2,9.1,13.9,9.3c4.5,0.2,9.4-2.3,14.5-7.5c-2.3-2.7-3.6-6.2-3.6-9.8
				c-0.2-1.4,0.8-2.7,2.2-2.9s2.7,0.8,2.9,2.2c0,0.2,0,0.3,0,0.5c0.1,3.3,1.2,5.6,3.3,7.1c24.7,6,31.6,25.3,30,40
				C140.4,127.9,139.3,129,137.9,129.1 M48.3,123.4h87.2c0.4-12.2-6-26-25.2-31c-6.6,7.1-13.2,10.6-19.5,10.3
				c-5.9-0.2-11.5-3.6-16.7-10.1C58.9,95.4,50.5,105.5,48.3,123.4L48.3,123.4z"/>
			<path id="Path_321535" class="st2" d="M75.1,92.4c-1.5-0.1-2.7-1.3-2.6-2.8c0-0.5,0.1-1,0.4-1.5c1.2-2.1,1.6-4.6,1.2-7
				c-0.3-1.5,0.6-2.9,2.1-3.3c1.4-0.2,2.8,0.8,3,2.2c0,0,0,0.1,0,0.1c0.7,3.8,0,7.6-1.9,10.9C76.9,91.8,76.1,92.4,75.1,92.4"/>
		</g>
	</g>
</g>
</svg>
