<?xml version="1.0" encoding="utf-8"?>
<!-- Generator: Adobe Illustrator 26.5.0, SVG Export Plug-In . SVG Version: 6.00 Build 0)  -->
<svg version="1.1" id="Layer_1" xmlns="http://www.w3.org/2000/svg" xmlns:xlink="http://www.w3.org/1999/xlink" x="0px" y="0px"
	 viewBox="0 0 200 200" style="enable-background:new 0 0 200 200;" xml:space="preserve">
<style type="text/css">
	.st0{clip-path:url(#SVGID_00000078019864276545620540000002762433792317603502_);}
	.st1{fill:#003173;}
	.st2{fill:#E64D17;}
</style>
<g id="Group_92854" transform="translate(15 21)">
	<g>
		<defs>
			<rect id="SVGID_1_" width="170.2" height="158.2"/>
		</defs>
		<clipPath id="SVGID_00000129165055530695113560000007850513142167750837_">
			<use xlink:href="#SVGID_1_"  style="overflow:visible;"/>
		</clipPath>
		<g id="Group_92162" style="clip-path:url(#SVGID_00000129165055530695113560000007850513142167750837_);">
			<path id="Path_321089" class="st1" d="M22.7,158.2H3c-1.7,0-3-1.3-3-3l0,0v-51.8c0-1.7,1.3-3,3-3h19.7c1.7,0,3,1.3,3,3l0,0v51.8
				C25.7,156.8,24.4,158.2,22.7,158.2L22.7,158.2z M6,152.2h13.7v-45.8H6V152.2z"/>
			<path id="Path_321090" class="st1" d="M49.9,126.8c-1.7,0-3-1.3-3-3c0-1.7,1.3-3,3-3l38.7-0.6c2.5-0.3,4.2-1.8,4.2-3.7
				c0-1.5-1.2-3.4-4.5-3.7c-9.2,0.2-18.7-1.8-28.6-6.3c-11.1-3.3-22.3,0.7-34.9,12.8c-1.2,1.1-3.1,1.1-4.2-0.1s-1.1-3.1,0.1-4.2
				c14.1-13.5,27.6-18.2,41.1-14.1c9.5,4.2,18.1,6.1,26.8,5.9c7.1,0.7,10.2,5.5,10.2,9.7c0,4.1-3,8.9-9.8,9.8L49.9,126.8L49.9,126.8
				z"/>
			<path id="Path_321091" class="st1" d="M22.7,150.4c-1.7,0-3-1.3-3-3c0-1,0.5-2,1.4-2.6c12.5-7.8,27.1-11.5,44.6-11.4l33.6-1.9
				c7.3-0.8,13-3.3,17.3-7.8c6.4-6.5,14.4-11.2,23.1-13.8c1.6-0.5,3.3,0.3,3.8,1.9c0.5,1.6-0.3,3.3-1.9,3.8l-0.1,0
				c-7.8,2.3-14.9,6.5-20.6,12.3c-5.2,5.5-12.2,8.6-21.1,9.6l-33.9,1.9c-16.5-0.1-30.1,3.3-41.6,10.5
				C23.8,150.2,23.3,150.4,22.7,150.4"/>
			<path id="Path_321092" class="st1" d="M159,114.7H96.3c-1.7,0-3-1.3-3-3s1.3-3,3-3H156V27.9H59.1v73.8c0,1.7-1.3,3-3,3
				s-3-1.3-3-3V24.9c0-1.7,1.3-3,3-3H159c1.7,0,3,1.3,3,3v86.8C162,113.3,160.6,114.7,159,114.7"/>
			<path id="Path_321093" class="st2" d="M91.1,3.7l34.2-0.1v43l-10.3-8.5l-8.1,8.5l-7.9-8.7l-7.8,8.7L91.1,3.7z"/>
			<path id="Path_321094" class="st1" d="M91.1,49.6c-1.7,0-3-1.3-3-3l0,0l0-42.9c0-1.7,1.3-3,3-3l34.1-0.1c0.8,0,1.6,0.3,2.1,0.9
				c0.6,0.6,0.9,1.3,0.9,2.1v43c0,1.7-1.3,3-3,3c-0.7,0-1.4-0.2-1.9-0.7l-8.2-6.8l-6.2,6.5c-1.1,1.2-3,1.2-4.2,0.1c0,0,0,0,0,0
				c-0.1-0.1-0.1-0.1-0.2-0.2l-5.6-6.2l-5.6,6.2C92.7,49.2,91.9,49.6,91.1,49.6 M98.9,34.9c0.8,0,1.7,0.4,2.2,1l5.7,6.3l5.9-6.2
				c1.1-1.1,2.9-1.2,4.1-0.2l5.4,4.5V6.6L94.1,6.7l0,32.1l2.6-2.9C97.2,35.3,98,34.9,98.9,34.9L98.9,34.9z"/>
			<path id="Path_321095" class="st1" d="M56.6,27.9H43.1c-1.7,0-3-1.3-3-3V3c0-1.7,1.3-3,3-3h124.1c1.7,0,3,1.3,3,3v21.8
				c0,1.6-1.3,3-3,3l-8.2,0.1c-1.7,0-3-1.3-3-3s1.3-3,3-3l0,0l5.3-0.1V6H46.1v15.9h10.5c1.7,0,3,1.3,3,3S58.3,27.9,56.6,27.9
				L56.6,27.9z"/>
			<path id="Path_321096" class="st2" d="M90.5,110.5V86.9l8.4,8.2l7.9-8.2l8.2,8.3l8-8.3v23.6H90.5z"/>
			<path id="Path_321097" class="st1" d="M123,113.5H90.5c-1.7,0-3-1.3-3-3V86.9c0-1.7,1.3-3,3-3c0.8,0,1.6,0.3,2.1,0.9l6.2,6.1
				l5.8-6.1c0.6-0.6,1.3-0.9,2.1-0.9c0.8,0,1.6,0.3,2.2,0.9l6,6.1l5.9-6.1c1.2-1.2,3.1-1.2,4.2-0.1c0.6,0.6,0.9,1.3,0.9,2.2v23.6
				C126,112.2,124.6,113.6,123,113.5 M93.5,107.6H120V94.3l-2.9,3c-0.6,0.6-1.3,0.9-2.1,0.9c-0.8,0-1.6-0.3-2.1-0.9l-6-6.1l-5.8,6
				c-1.1,1.2-3,1.2-4.2,0.1c0,0,0,0,0,0c0,0,0,0,0,0l-3.2-3.2L93.5,107.6z"/>
		</g>
	</g>
</g>
</svg>
