<?xml version="1.0" encoding="utf-8"?>
<!-- Generator: Adobe Illustrator 26.5.0, SVG Export Plug-In . SVG Version: 6.00 Build 0)  -->
<svg version="1.1" id="Layer_1" xmlns="http://www.w3.org/2000/svg" xmlns:xlink="http://www.w3.org/1999/xlink" x="0px" y="0px"
	 viewBox="0 0 200 200" style="enable-background:new 0 0 200 200;" xml:space="preserve">
<style type="text/css">
	.st0{clip-path:url(#SVGID_00000132784795268869817070000002273169353844415374_);}
	.st1{fill:#E64B16;}
	.st2{fill:#003173;}
</style>
<g id="Group_92867" transform="translate(2.274 -0.706)">
	<g id="Group_92862" transform="translate(13.726 12.706)">
		<g>
			<defs>
				<rect id="SVGID_1_" x="0" y="0" width="164.5" height="174.6"/>
			</defs>
			<clipPath id="SVGID_00000037673901221407268900000005066440163325457078_">
				<use xlink:href="#SVGID_1_"  style="overflow:visible;"/>
			</clipPath>
			<g id="Group_92792" style="clip-path:url(#SVGID_00000037673901221407268900000005066440163325457078_);">
				<path id="Path_323443" class="st1" d="M38,87.4c-1.7,0-3.2-1.4-3.2-3.2c0-0.2,0-0.5,0.1-0.7c6.7-29.9,33.3-51.2,64-51
					c3.7,0,7.4,0.3,11,0.9c1.7,0.3,2.8,2,2.5,3.7c-0.3,1.7-1.9,2.8-3.6,2.5c-3.3-0.6-6.6-0.8-9.9-0.8c-27.7-0.1-51.8,19.1-57.8,46.1
					C40.7,86.4,39.5,87.4,38,87.4"/>
				<path id="Path_323444" class="st1" d="M98.9,163.8c-33.1,0-61.1-24.7-65.1-57.6c-0.2-1.7,1-3.3,2.7-3.5c1.7-0.2,3.3,1,3.5,2.7
					c3.7,29.7,28.9,52,58.9,52.1c1.7,0,3.4-0.1,5-0.2c1.7-0.1,3.2,1.2,3.4,2.9c0.1,1.7-1.1,3.2-2.8,3.3
					C102.6,163.7,100.8,163.8,98.9,163.8"/>
				<path id="Path_323445" class="st1" d="M135.3,152.1c-1.7,0-3.2-1.4-3.2-3.2c0-1,0.5-2,1.3-2.6c26.6-19.1,32.8-56.1,13.7-82.8
					c-1.5-2.1-3.1-4.1-4.8-5.9c-1.2-1.2-1.2-3.2,0-4.5c1.2-1.2,3.2-1.2,4.5,0l0,0c0,0,0.1,0.1,0.1,0.1c24.7,26.5,23.3,68-3.2,92.8
					c-2.1,1.9-4.3,3.7-6.6,5.4C136.6,151.9,136,152.1,135.3,152.1"/>
				<path id="Path_323446" class="st2" d="M25.1,77.3c-7.8,0-14.2-6.4-14.2-14.2c0-7.8,6.4-14.2,14.2-14.2s14.2,6.4,14.2,14.2
					c0,0,0,0,0,0C39.3,70.9,32.9,77.3,25.1,77.3C25.1,77.3,25.1,77.3,25.1,77.3 M25.1,55.2c-4.4,0-7.9,3.5-7.9,7.9
					c0,4.4,3.5,7.9,7.9,7.9c4.4,0,7.9-3.5,7.9-7.9l0,0C33,58.7,29.4,55.2,25.1,55.2C25.1,55.2,25.1,55.2,25.1,55.2"/>
				<path id="Path_323447" class="st2" d="M48.3,108.5H3.2c-1.7,0-3.2-1.4-3.2-3.2C0,87.4,12.9,78,25.7,78s25.7,9.4,25.7,27.4
					C51.5,107.1,50,108.5,48.3,108.5 M6.5,102.2H45c-0.4-4.8-2.5-9.3-5.9-12.8c-3.6-3.4-8.4-5.2-13.3-5.2
					C17.1,84.3,7.8,89.9,6.5,102.2z"/>
				<path id="Path_323448" class="st2" d="M122.6,28.4c-7.8,0-14.2-6.4-14.2-14.2c0-7.8,6.4-14.2,14.2-14.2
					c7.8,0,14.2,6.4,14.2,14.2S130.4,28.4,122.6,28.4L122.6,28.4 M122.6,6.3c-4.4,0-7.9,3.5-7.9,7.9s3.5,7.9,7.9,7.9
					s7.9-3.5,7.9-7.9c0,0,0,0,0,0C130.5,9.8,127,6.3,122.6,6.3z"/>
				<path id="Path_323449" class="st2" d="M145.8,59.6h-45.2c-1.7,0-3.2-1.4-3.2-3.2c0,0,0,0,0,0c0-18,12.9-27.4,25.7-27.4
					S149,38.5,149,56.5C149,58.2,147.6,59.6,145.8,59.6 M104,53.3h38.5c-0.4-4.8-2.5-9.3-5.9-12.8c-3.6-3.4-8.4-5.2-13.3-5.2
					C114.6,35.4,105.3,41,104,53.3z"/>
				<path id="Path_323450" class="st2" d="M124.2,143.3c-7.8,0-14.2-6.4-14.2-14.2c0-7.8,6.4-14.2,14.2-14.2
					c7.8,0,14.2,6.4,14.2,14.2C138.4,137,132.1,143.3,124.2,143.3C124.3,143.3,124.3,143.3,124.2,143.3 M124.2,121.3
					c-4.4,0-7.9,3.5-7.9,7.9c0,4.4,3.5,7.9,7.9,7.9c4.4,0,7.9-3.5,7.9-7.9C132.1,124.8,128.6,121.3,124.2,121.3
					C124.3,121.3,124.3,121.3,124.2,121.3"/>
				<path id="Path_323451" class="st2" d="M147.5,174.6h-45.2c-1.7,0-3.2-1.4-3.2-3.2c0-18,12.9-27.4,25.7-27.4s25.7,9.4,25.7,27.4
					C150.6,173.2,149.2,174.6,147.5,174.6 M105.6,168.3h38.5c-0.4-4.8-2.5-9.3-5.9-12.8c-3.6-3.4-8.4-5.2-13.3-5.2
					C116.2,150.3,107,156,105.6,168.3"/>
			</g>
		</g>
	</g>
</g>
</svg>
