<?xml version="1.0" encoding="utf-8"?>
<!-- Generator: Adobe Illustrator 26.5.0, SVG Export Plug-In . SVG Version: 6.00 Build 0)  -->
<svg version="1.1" id="Layer_1" xmlns="http://www.w3.org/2000/svg" xmlns:xlink="http://www.w3.org/1999/xlink" x="0px" y="0px"
	 viewBox="0 0 600 505" style="enable-background:new 0 0 600 505;" xml:space="preserve">
<style type="text/css">
	.st0{opacity:0.3;fill:#FFC0FB;enable-background:new    ;}
	.st1{clip-path:url(#SVGID_00000094583373615987753390000008539775643469743764_);}
	.st2{fill:#EBFFE0;}
	.st3{fill:none;stroke:#233F84;stroke-width:2;stroke-miterlimit:10;}
	.st4{fill:#233F84;}
	.st5{fill:#EC6323;}
	.st6{fill:#EC6625;}
	.st7{fill:#E64B16;}
	.st8{fill:none;stroke:#233F84;stroke-miterlimit:10;}
	.st9{fill:none;stroke:#233F84;stroke-width:2;stroke-miterlimit:10;stroke-dasharray:4.701,4.701;}
	.st10{fill:none;stroke:#233F84;stroke-width:2;stroke-miterlimit:10;stroke-dasharray:4.934,4.934;}
	.st11{fill:none;stroke:#233F84;stroke-width:2;stroke-miterlimit:10;stroke-dasharray:5.124,5.124;}
</style>
<path class="st0" d="M164.7,419.2C76.3,255.1,14.4,233.7,81.6,130.2s81.3-97.6,326.2-54.7S532,358.2,474.7,385.4
	S253.2,583.3,164.7,419.2z"/>
<g transform="translate(36.116 15.517)">
	<g>
		<defs>
			<rect id="SVGID_1_" x="0" y="0" width="527.8" height="444.6"/>
		</defs>
		<clipPath id="SVGID_00000090976043028196489610000004361605537166137483_">
			<use xlink:href="#SVGID_1_"  style="overflow:visible;"/>
		</clipPath>
		<g transform="translate(0 0)" style="clip-path:url(#SVGID_00000090976043028196489610000004361605537166137483_);">
			<path class="st2" d="M267.7,45.9c0,0-8.1,9.1,1.2,12.9c0,0,10,0.6,11.4,10s8.3,11.3,9.9-0.8c0,0-0.8-7.4,8.6-7.5
				c1.9,0.1,3.7-1,4.4-2.8c1.4-3.2,5.9,1.8,7.9,5.1c0,0,5,9.4,3.2-11.2c0,0-10.2,0.4-3.9-7.4c0,0,7.3-5.3-0.5-9.1
				c0,0,3.3-9.4,16.6-2.8c0,0,4.1,5.6,7-6.5c0,0,0.7-4-2.4-5.7c0,0-3.4-9.4,4.6-8.4c0,0,6.4,1.5,2.5-7.2c0,0,6.7-10.1,13.5,3.9
				c0,0,3.3,4.4,2.6,8.4c0,0-0.1,8.1,12.7,4.3c0,0,5.3-3.4,7,5.1c0,0,2.1,11.4,9.4,9.3c0,0,5.7-1.9,4.2,6.1c0,0,0,12.4,12.5,11.6
				c0,0,5.2,1.2,0.4,8.5c-2.1,2.1-3.6,4.7-4.4,7.5c0,0-0.4,7.4-7,4.1c0,0-7-5.4-2.8,4.3c0,0,3.2,9.3,10.1,6.1c0,0,2.2-1.6,6.1,2.1
				c0,0,5.7,3.6,12.7-5.6c0,0,5.9-3.2,5.4,5.5c0,0-2.5,4.1,3,6.2c0,0,4.1,1.3-4,5.4s-7.8,7-3.8,12.5c0,0,2.8,1.7,0.3,7.6
				c0,0-0.8,3.8,7.2,3c0,0,12.3,3.2,6,11.9s1,10.8,1,10.8s5.9,2.2,4.1,7.9c0,0-0.6,3.2,5.1-0.4c0,0,13.3-4.1,5.6,12.3
				c0,0-7.1,16,5.6,6.2c0,0,9.2-16.6,13.1-11.4c0,0,8.5,5.7-4.9,14.9c0,0-14.5,15,6,14.5c0,0,12-5.3,17.3,2.6c0,0,6.3,7.5-9.5,15
				c0,0-4.4,2.7,1.3,8.9c0,0,9.1,2.5,1.8,11.7c0,0-5.4,3-1,10.7c1.3,1.9,2,4.2,2.2,6.5c0,3.2,9.9,2.5,11.5-1.7c0,0,3.8-4.8,7.3,5.8
				l4.6,9.3c0,0,3.4,3.7,0.3,9.4c0,0-5.1,10.8,10.1,11c0,0,8.2,0.4,6.7,11.9c0,0-7,8.2-0.4,6.3s12.4,7.7,8.9,11.8s-8,9.9-8,9.9
				s-5.7,4.1,2.7,8.9c0,0,5.8,1.3-0.7,9.3c0,0-5.7,5.3,1.6,14.5c0,0,10.8,5.2-1.3,14.3c0,0,0.1,3.5-9.5-2c0,0-12.2-6.4-13.3,8.1
				c0,0,1.2,6.1-8.6,8.9c0,0-10.1,3.2-3.4,11.7c0,0,8.9,4.5,1.3,11c0,0-11.2,8.2-14.3-3.6c0,0-0.8-16.9-8.5-18.1c0,0-6.2-0.4-5,13.1
				l0.3,4.4c-0.9,2.5-1,5.1-0.4,7.7c0,0-0.4,5.7-13.2,0c0,0-5.3,1.1-9.2-16.5c0,0-6.3-2,2.2-8.9c0,0,11.3-3.2-7-23.2
				c0,0-9-8.7-12.9-2c0,0-6,3.3,3.4,12.8c0,0,8.3,12.9,0.4,15.3c0,0-10.8,4.4-18.8-9.9c0,0-12.7-2.5-9.2,6.9c0,0,3.2,6.5,13.2,8.9
				c0,0,8.9,2.7,6.7,18c0,0,1.1,11.5-4.8,16.7c0,0-18.6,14.3-25.8-2.4c0,0-2.1-3.8-6-4.2c0,0-3.8,0.2-5.5-7.3c0,0-6.4-10.2-11.1-0.6
				c0,0-13.3,21.3-25.2,11.7c0,0,1.9-8.9-5.6-9c0,0-14.4-0.3-15.8-3c0,0-11.7-1.2-5.7,9.4c0,0,3.9,6.6-3.8,7.9c0,0-5.8-0.2-7.6,7.8
				c0,0-1.6,7.4-7.4,3.2c0,0-7.2-2.3-8.8,7.8c0,0-6.8,1.7-11-7.5c0,0-2-25.3-17.3-24.5s-22,1.8-22,1.8s-9.4,2.5-4.2-8.7
				c0,0-14.1-7.7-17.7-16.9s-11.2-4.1-11.2-4.1s-4.1,3.2-7.4-4.4c0,0-1.5-3.1-5.7,3.5c0,0-17.9,2.8-17.2-10.4c0,0-1.2-9.2-6.7-10.7
				c0,0-2-1.7-7,6.2c0,0-3.3,4.8-12.4-2.2c0,0-3.2-2.1-9.6,3c0,0-6.3-0.6-7.7,4.4c0,0-7,1.9-10.4-1.6c0,0-9.2-0.9-5.1,8.3
				c0,0,6.5,4.2,2.1,10.8c0,0-0.1,8.4-14.6-2.9c0,0-7.7-8.4-14-8.7c0,0-1.9-0.1-10.9,2.7c0,0-10.5-1.1-16.7-3.6c0,0-9.1,2.5-10-4.4
				s-0.3-9.2-8.4-7.8c0,0-8.6,0.2-2.6-12.4c0,0,19.5,1.9,9.8-9.5c0,0-10.6-4.2-10.8-13.6c0,0-7.2-13.8,0.3-13.2
				c3.7-0.6,7.5-0.1,11,1.4c0,0,9.1-3.4,3.8-8.3c0,0-9.6-4.2-0.2-4.1c0,0,9.3,3.9,6.5-5.7s-3.3-9.4,0.4-15.4c0,0,2.5-2.9,0.2-7.4
				c0,0-2.7-5.1,3.8-7.9c0,0,3.4,0.4,0.6-3.5c0,0-0.2-4.8,6.2-4.8s1.7-10.3-7-11.2c0,0-3.4-2.9-9.8,4.9c0,0-7.4,2.5-1.3-11.2
				c0,0,0.3-5.3-14-4.4c0,0-6,1.1-4.5-8.9c0,0,0.8-3.8-4-4s2.9-7.8,2.9-7.8s3-11.2-10.8-10h-3.7c0,0-3.6-3.5-7.4-0.5
				c0,0-10.3-5.9-0.3-11.1c0,0,7.2-4.2,0.1-8.6c0,0-8.5-4.2-1.1-17.1c0,0,3.7-16.7,13.3-9.6c0,0,4.1,10.1,9.2,3c0,0,3.8-3.4,9.9,4.1
				s5.6-13.6,5.3-17.1s-3.9-5.6,6.8-7.3c0,0,0.7-8.3,7.7-7.9s8.2,4.7,8.2,4.7s2,3.2,3.9-2.5s4.7-5.6,10.7-3.7s13.3-5.5,12.4-9.1
				s3.6-2.1,8,1.7c4.4,3.8,4.1-9.7,4.1-9.7s13.6-3.4,5.8-8.8c0,0-2.3-3.1-5.1-4s1.3-7.5,7.7-8.4c0,0,2.3,3.7,5.3-0.4
				s3.8,5.4,3.8,5.4s1.3,8.1,7.3,2.7c6-5.3,9.7,4.7,9.7,4.7s3.7,5.5,10.5-6c0,0,3.6-6.8-3.9-10.5s9.2-7.4,9.2-7.4s3-6.1,6.9,0.3
				s10.5,7,12.6,3.7s5.1-5.3,8.3,3.2c0,0-0.7,13,12.7,9.1c0,0,7-10.7-0.2-17.2c0,0-3.9-5.3,5.5-9.1c0,0,4.4-2.2,0.6-9.8
				s8.2-19.7,12.8-13.7s9.6-6.4,9.6-6.4s1.8-5.8,7.6-4s10-5.2,10-5.2s3.3-2.5,8.7,2.5s6.5,0.1,6.5,0.1S265.1,35.8,267.7,45.9"/>
			<path class="st3" d="M267.7,45.9c0,0-8.1,9.1,1.2,12.9c0,0,10,0.6,11.4,10s8.3,11.3,9.9-0.8c0,0-0.8-7.4,8.6-7.5
				c1.9,0.1,3.7-1,4.4-2.8c1.4-3.2,5.9,1.8,7.9,5.1c0,0,5,9.4,3.2-11.2c0,0-10.2,0.4-3.9-7.4c0,0,7.3-5.3-0.5-9.1
				c0,0,3.3-9.4,16.6-2.8c0,0,4.1,5.6,7-6.5c0,0,0.7-4-2.4-5.7c0,0-3.4-9.4,4.6-8.4c0,0,6.4,1.5,2.5-7.2c0,0,6.7-10.1,13.5,3.9
				c0,0,3.3,4.4,2.6,8.4c0,0-0.1,8.1,12.7,4.3c0,0,5.3-3.4,7,5.1c0,0,2.1,11.4,9.4,9.3c0,0,5.7-1.9,4.2,6.1c0,0,0,12.4,12.5,11.6
				c0,0,5.2,1.2,0.4,8.5c-2.1,2.1-3.6,4.7-4.4,7.5c0,0-0.4,7.4-7,4.1c0,0-7-5.4-2.8,4.3c0,0,3.2,9.3,10.1,6.1c0,0,2.2-1.6,6.1,2.1
				c0,0,5.7,3.6,12.7-5.6c0,0,5.9-3.2,5.4,5.5c0,0-2.5,4.1,3,6.2c0,0,4.1,1.3-4,5.4s-7.8,7-3.8,12.5c0,0,2.8,1.7,0.3,7.6
				c0,0-0.8,3.8,7.2,3c0,0,12.3,3.2,6,11.9s1,10.8,1,10.8s5.9,2.2,4.1,7.9c0,0-0.6,3.2,5.1-0.4c0,0,13.3-4.1,5.6,12.3
				c0,0-7.1,16,5.6,6.2c0,0,9.2-16.6,13.1-11.4c0,0,8.5,5.7-4.9,14.9c0,0-14.5,15,6,14.5c0,0,12-5.3,17.3,2.6c0,0,6.3,7.5-9.5,15
				c0,0-4.4,2.7,1.3,8.9c0,0,9.1,2.5,1.8,11.7c0,0-5.4,3-1,10.7c1.3,1.9,2,4.2,2.2,6.5c0,3.2,9.9,2.5,11.5-1.7c0,0,3.8-4.8,7.3,5.8
				l4.6,9.3c0,0,3.4,3.7,0.3,9.4c0,0-5.1,10.8,10.1,11c0,0,8.2,0.4,6.7,11.9c0,0-7,8.2-0.4,6.3s12.4,7.7,8.9,11.8s-8,9.9-8,9.9
				s-5.7,4.1,2.7,8.9c0,0,5.8,1.3-0.7,9.3c0,0-5.7,5.3,1.6,14.5c0,0,10.8,5.2-1.3,14.3c0,0,0.1,3.5-9.5-2c0,0-12.2-6.4-13.3,8.1
				c0,0,1.2,6.1-8.6,8.9c0,0-10.1,3.2-3.4,11.7c0,0,8.9,4.5,1.3,11c0,0-11.2,8.2-14.3-3.6c0,0-0.8-16.9-8.5-18.1c0,0-6.2-0.4-5,13.1
				l0.3,4.4c-0.9,2.5-1,5.1-0.4,7.7c0,0-0.4,5.7-13.2,0c0,0-5.3,1.1-9.2-16.5c0,0-6.3-2,2.2-8.9c0,0,11.3-3.2-7-23.2
				c0,0-9-8.7-12.9-2c0,0-6,3.3,3.4,12.8c0,0,8.3,12.9,0.4,15.3c0,0-10.8,4.4-18.8-9.9c0,0-12.7-2.5-9.2,6.9c0,0,3.2,6.5,13.2,8.9
				c0,0,8.9,2.7,6.7,18c0,0,1.1,11.5-4.8,16.7c0,0-18.6,14.3-25.8-2.4c0,0-2.1-3.8-6-4.2c0,0-3.8,0.2-5.5-7.3c0,0-6.4-10.2-11.1-0.6
				c0,0-13.3,21.3-25.2,11.7c0,0,1.9-8.9-5.6-9c0,0-14.4-0.3-15.8-3c0,0-11.7-1.2-5.7,9.4c0,0,3.9,6.6-3.8,7.9c0,0-5.8-0.2-7.6,7.8
				c0,0-1.6,7.4-7.4,3.2c0,0-7.2-2.3-8.8,7.8c0,0-6.8,1.7-11-7.5c0,0-2-25.3-17.3-24.5s-22,1.8-22,1.8s-9.4,2.5-4.2-8.7
				c0,0-14.1-7.7-17.7-16.9s-11.2-4.1-11.2-4.1s-4.1,3.2-7.4-4.4c0,0-1.5-3.1-5.7,3.5c0,0-17.9,2.8-17.2-10.4c0,0-1.2-9.2-6.7-10.7
				c0,0-2-1.7-7,6.2c0,0-3.3,4.8-12.4-2.2c0,0-3.2-2.1-9.6,3c0,0-6.3-0.6-7.7,4.4c0,0-7,1.9-10.4-1.6c0,0-9.2-0.9-5.1,8.3
				c0,0,6.5,4.2,2.1,10.8c0,0-0.1,8.4-14.6-2.9c0,0-7.7-8.4-14-8.7c0,0-1.9-0.1-10.9,2.7c0,0-10.5-1.1-16.7-3.6c0,0-9.1,2.5-10-4.4
				s-0.3-9.2-8.4-7.8c0,0-8.6,0.2-2.6-12.4c0,0,19.5,1.9,9.8-9.5c0,0-10.6-4.2-10.8-13.6c0,0-7.2-13.8,0.3-13.2
				c3.7-0.6,7.5-0.1,11,1.4c0,0,9.1-3.4,3.8-8.3c0,0-9.6-4.2-0.2-4.1c0,0,9.3,3.9,6.5-5.7s-3.3-9.4,0.4-15.4c0,0,2.5-2.9,0.2-7.4
				c0,0-2.7-5.1,3.8-7.9c0,0,3.4,0.4,0.6-3.5c0,0-0.2-4.8,6.2-4.8s1.7-10.3-7-11.2c0,0-3.4-2.9-9.8,4.9c0,0-7.4,2.5-1.3-11.2
				c0,0,0.3-5.3-14-4.4c0,0-6,1.1-4.5-8.9c0,0,0.8-3.8-4-4s2.9-7.8,2.9-7.8s3-11.2-10.8-10h-3.7c0,0-3.6-3.5-7.4-0.5
				c0,0-10.3-5.9-0.3-11.1c0,0,7.2-4.2,0.1-8.6c0,0-8.5-4.2-1.1-17.1c0,0,3.7-16.7,13.3-9.6c0,0,4.1,10.1,9.2,3c0,0,3.8-3.4,9.9,4.1
				s5.6-13.6,5.3-17.1s-3.9-5.6,6.8-7.3c0,0,0.7-8.3,7.7-7.9s8.2,4.7,8.2,4.7s2,3.2,3.9-2.5s4.7-5.6,10.7-3.7s13.3-5.5,12.4-9.1
				s3.6-2.1,8,1.7c4.4,3.8,4.1-9.7,4.1-9.7s13.6-3.4,5.8-8.8c0,0-2.3-3.1-5.1-4s1.3-7.5,7.7-8.4c0,0,2.3,3.7,5.3-0.4
				s3.8,5.4,3.8,5.4s1.3,8.1,7.3,2.7c6-5.3,9.7,4.7,9.7,4.7s3.7,5.5,10.5-6c0,0,3.6-6.8-3.9-10.5s9.2-7.4,9.2-7.4s3-6.1,6.9,0.3
				s10.5,7,12.6,3.7s5.1-5.3,8.3,3.2c0,0-0.7,13,12.7,9.1c0,0,7-10.7-0.2-17.2c0,0-3.9-5.3,5.5-9.1c0,0,4.4-2.2,0.6-9.8
				s8.2-19.7,12.8-13.7s9.6-6.4,9.6-6.4s1.8-5.8,7.6-4s10-5.2,10-5.2s3.3-2.5,8.7,2.5s6.5,0.1,6.5,0.1S265.1,35.8,267.7,45.9z"/>
			<path class="st4" d="M391,140.5h-18.2v-5.4H391V140.5z M374.1,139.3h15.7v-3h-15.7V139.3z"/>
			<rect x="379.2" y="139.8" class="st4" width="1.2" height="2.1"/>
			<rect x="383.6" y="139.8" class="st4" width="1.2" height="2.1"/>
			<path class="st4" d="M397.5,145.5h-31c-0.3,0-0.6-0.3-0.6-0.6c0-0.2,0.1-0.4,0.2-0.5l4.1-3c0.1-0.1,0.2-0.1,0.4-0.1h22.8
				c0.1,0,0.3,0,0.4,0.1l4.1,3c0.3,0.2,0.3,0.6,0.1,0.9C397.8,145.4,397.7,145.5,397.5,145.5L397.5,145.5z M368.3,144.3h27.3
				l-2.4-1.8h-22.4L368.3,144.3z"/>
			<path class="st4" d="M394.4,151.6c-0.8,0-1.5-0.3-2.1-0.8c-0.1-0.1-0.2-0.3-0.3-0.4c-1.1,1.4-3,1.6-4.4,0.5
				c-0.1,0-0.1-0.1-0.2-0.2c-0.1-0.1-0.2-0.3-0.3-0.4c-1,1.4-3,1.6-4.3,0.6c-0.1-0.1-0.1-0.1-0.2-0.2c-0.1-0.1-0.2-0.3-0.3-0.4
				c-1.1,1.4-3,1.6-4.4,0.5c-0.1,0-0.1-0.1-0.2-0.2c-0.1-0.1-0.2-0.2-0.3-0.4c-1,1.3-3,1.6-4.3,0.6c-0.1-0.1-0.1-0.1-0.2-0.2
				c-0.1-0.1-0.2-0.3-0.3-0.4c-1.1,1.4-3.2,1.6-4.6,0.5c0,0-0.1-0.1-0.1-0.1c-0.7-0.6-1-1.5-1-2.4v-3.5c0-0.3,0.3-0.6,0.6-0.6h29.5
				c0.3,0,0.6,0.3,0.6,0.6v3.5c0.1,1.7-1.2,3.1-2.9,3.2C394.5,151.6,394.5,151.6,394.4,151.6 M391.9,147.8c0.3,0,0.6,0.3,0.6,0.6
				c0,0,0,0,0,0c-0.1,1,0.7,1.9,1.7,2c1,0.1,1.9-0.7,2-1.7c0-0.1,0-0.2,0-0.3v-2.9H368v2.9c-0.1,1.1,0.7,2,1.8,2
				c1.1,0.1,2-0.7,2-1.8c0-0.1,0-0.2,0-0.2c0-0.3,0.3-0.6,0.6-0.6s0.6,0.3,0.6,0.6l0,0l0,0c-0.1,1,0.6,1.9,1.6,2
				c1,0.1,1.9-0.6,2-1.6c0-0.1,0-0.3,0-0.4c0-0.3,0.3-0.6,0.6-0.6s0.6,0.3,0.6,0.6c-0.1,1,0.6,1.9,1.6,2c1,0.1,1.9-0.6,2-1.6
				c0-0.1,0-0.2,0-0.4c0-0.3,0.3-0.6,0.6-0.6c0.3,0,0.6,0.3,0.6,0.6l0,0c-0.1,1,0.6,1.9,1.6,2c1,0.1,1.9-0.6,2-1.6
				c0-0.1,0-0.3,0-0.4c0-0.3,0.3-0.6,0.6-0.6s0.6,0.3,0.6,0.6l0,0c-0.1,1,0.6,1.9,1.7,2s1.9-0.6,2-1.7c0-0.1,0-0.2,0-0.4
				C391.3,148,391.6,147.8,391.9,147.8"/>
			<path class="st4" d="M394.4,168.3h-24.6c-0.3,0-0.6-0.3-0.6-0.6V151c0-0.3,0.3-0.6,0.6-0.6s0.6,0.3,0.6,0.6v16h23.4v-16
				c0-0.3,0.3-0.6,0.6-0.6c0.3,0,0.6,0.3,0.6,0.6v16.6C395,168,394.7,168.3,394.4,168.3C394.4,168.3,394.4,168.3,394.4,168.3z"/>
			<path class="st5" d="M376.3,157.2c1.2,0,2.2,1,2.2,2.2s-1,2.2-2.2,2.2c-1.2,0-2.2-1-2.2-2.2c0,0,0,0,0,0
				C374.2,158.1,375.1,157.2,376.3,157.2"/>
			<path class="st4" d="M376.3,162.1c-1.5,0-2.8-1.2-2.8-2.8c0-1.5,1.2-2.8,2.8-2.8s2.8,1.2,2.8,2.8
				C379.1,160.9,377.8,162.1,376.3,162.1L376.3,162.1 M376.3,157.8c-0.9,0-1.5,0.7-1.5,1.5c0,0.9,0.7,1.5,1.5,1.5s1.5-0.7,1.5-1.5
				c0,0,0,0,0,0C377.8,158.5,377.2,157.8,376.3,157.8C376.3,157.8,376.3,157.8,376.3,157.8z"/>
			<path class="st4" d="M380.7,168.3h-8.8c-0.3,0-0.6-0.3-0.6-0.6c0,0,0,0,0,0c0.1-2.8,2.4-5,5.1-4.9c2.7,0.1,4.8,2.2,4.9,4.9
				C381.3,168,381,168.3,380.7,168.3C380.7,168.3,380.7,168.3,380.7,168.3z M372.5,167.1h7.5c-0.1-0.8-0.5-1.6-1.1-2.2
				c-0.7-0.6-1.7-0.9-2.6-0.9C374.4,163.9,372.8,165.2,372.5,167.1z"/>
			<path class="st4" d="M392.1,165h-9.4c-0.3,0-0.6-0.3-0.6-0.6v-6.1c0-0.3,0.3-0.6,0.6-0.6h9.4c0.3,0,0.6,0.3,0.6,0.6v6.1
				C392.7,164.8,392.4,165,392.1,165 M383.4,163.8h8.2v-4.9h-8.2V163.8z"/>
			<rect x="384.2" y="160.6" class="st5" width="1.6" height="1.6"/>
			<rect x="386.6" y="160.6" class="st5" width="1.6" height="1.6"/>
			<rect x="389.1" y="160.6" class="st5" width="1.6" height="1.6"/>
			<path class="st4" d="M384.6,168.3c-0.3,0-0.6-0.3-0.6-0.6v-3.2c0-0.3,0.3-0.6,0.6-0.6s0.6,0.3,0.6,0.6l0,0v3.2
				C385.2,168,385,168.3,384.6,168.3C384.6,168.3,384.6,168.3,384.6,168.3"/>
			<path class="st4" d="M390.2,168.3c-0.3,0-0.6-0.3-0.6-0.6v-3.2c0-0.3,0.3-0.6,0.6-0.6s0.6,0.3,0.6,0.6l0,0v3.2
				C390.8,168,390.5,168.3,390.2,168.3"/>
			<path class="st4" d="M245.4,59.1h-19.7v-5.9h19.7V59.1z M227,57.7h17.1v-3.2H227V57.7z"/>
			<rect x="232.5" y="58.3" class="st4" width="1.3" height="2.3"/>
			<rect x="237.3" y="58.3" class="st4" width="1.3" height="2.3"/>
			<path class="st4" d="M252.4,64.5h-33.7c-0.4,0-0.7-0.3-0.7-0.7c0-0.2,0.1-0.4,0.3-0.5l4.4-3.3c0.1-0.1,0.3-0.1,0.4-0.1h24.8
				c0.1,0,0.3,0,0.4,0.1l4.4,3.3c0.3,0.2,0.4,0.6,0.2,0.9C252.8,64.4,252.6,64.5,252.4,64.5z M220.7,63.1h29.6l-2.6-1.9h-24.4
				L220.7,63.1z"/>
			<path class="st4" d="M249,71.1c-1.1,0-2-0.5-2.7-1.3c-1.1,1.5-3.3,1.7-4.8,0.6c-0.1-0.1-0.1-0.1-0.2-0.2
				c-0.1-0.1-0.3-0.3-0.4-0.4c-1.1,1.5-3.3,1.7-4.7,0.6c-0.1-0.1-0.1-0.1-0.2-0.2c-0.1-0.1-0.3-0.3-0.4-0.4
				c-1.1,1.5-3.3,1.7-4.7,0.6c-0.1-0.1-0.1-0.1-0.2-0.2c-0.1-0.1-0.3-0.3-0.4-0.4c-1.1,1.5-3.2,1.7-4.7,0.6
				c-0.1-0.1-0.1-0.1-0.2-0.2c-0.1-0.1-0.3-0.3-0.4-0.4c-1.2,1.5-3.5,1.8-5,0.5c0,0-0.1-0.1-0.1-0.1c-0.7-0.7-1.1-1.6-1.1-2.6v-3.8
				c0-0.4,0.3-0.7,0.7-0.7l0,0h32c0.4,0,0.7,0.3,0.7,0.7c0,0,0,0,0,0v3.8c0.1,1.8-1.3,3.4-3.1,3.5C249.2,71.1,249.1,71.1,249,71.1
				 M246.4,66.9c0.4,0,0.7,0.3,0.7,0.7l0,0c-0.1,1.1,0.7,2.1,1.8,2.2s2.1-0.7,2.2-1.8c0-0.1,0-0.2,0-0.4v-3.1h-30.7v3.1
				c-0.1,1.2,0.8,2.1,2,2.2c1.2,0.1,2.1-0.8,2.2-2c0-0.1,0-0.1,0-0.2c0-0.4,0.3-0.7,0.7-0.7c0.4,0,0.7,0.3,0.7,0.7l0,0l0,0
				c-0.1,1.1,0.7,2.1,1.8,2.2c1.1,0.1,2.1-0.7,2.2-1.8c0-0.1,0-0.3,0-0.4c0-0.4,0.3-0.7,0.7-0.7c0.4,0,0.7,0.3,0.7,0.7
				c-0.1,1.1,0.7,2.1,1.8,2.2c1.1,0.1,2.1-0.7,2.2-1.8c0-0.2,0-0.3,0-0.5c0-0.4,0.3-0.7,0.7-0.7c0.4,0,0.7,0.3,0.7,0.7l0,0
				c-0.1,1.1,0.7,2.1,1.8,2.2c1.1,0.1,2.1-0.7,2.2-1.8c0-0.2,0-0.3,0-0.5c0-0.4,0.3-0.7,0.7-0.7c0.4,0,0.7,0.3,0.7,0.7l0,0l0,0
				c-0.1,1.1,0.7,2.1,1.8,2.2s2.1-0.7,2.2-1.8c0-0.1,0-0.3,0-0.4C245.7,67.2,246,66.9,246.4,66.9"/>
			<path class="st4" d="M249,89.2h-26.7c-0.4,0-0.7-0.3-0.7-0.7V70.5c0-0.4,0.3-0.7,0.7-0.7c0.4,0,0.7,0.3,0.7,0.7v17.4h25.4V70.5
				c0-0.4,0.3-0.7,0.7-0.7c0.4,0,0.7,0.3,0.7,0.7v18.1C249.7,88.9,249.4,89.2,249,89.2C249,89.2,249,89.2,249,89.2z"/>
			<path class="st5" d="M229.4,77.2c1.3,0,2.3,1,2.3,2.3c0,1.3-1,2.3-2.3,2.3c-1.3,0-2.3-1-2.3-2.3C227,78.2,228.1,77.2,229.4,77.2
				L229.4,77.2"/>
			<path class="st4" d="M229.4,82.5c-1.7,0-3-1.3-3-3s1.3-3,3-3s3,1.3,3,3S231,82.5,229.4,82.5 M229.4,77.8c-0.9,0-1.7,0.8-1.7,1.7
				c0,0.9,0.8,1.7,1.7,1.7c0.9,0,1.7-0.8,1.7-1.7C231.1,78.6,230.3,77.8,229.4,77.8C229.4,77.8,229.4,77.8,229.4,77.8z"/>
			<path class="st4" d="M234.1,89.2h-9.6c-0.4,0-0.7-0.3-0.7-0.7l0,0c0.1-3,2.6-5.4,5.6-5.3c2.9,0.1,5.3,2.4,5.3,5.3
				C234.8,88.9,234.5,89.2,234.1,89.2C234.1,89.2,234.1,89.2,234.1,89.2z M225.3,87.9h8.2c-0.1-0.9-0.5-1.7-1.2-2.3
				c-0.8-0.7-1.8-1-2.9-1C227.3,84.4,225.6,85.9,225.3,87.9L225.3,87.9z"/>
			<path class="st4" d="M246.6,85.7h-10.2c-0.4,0-0.7-0.3-0.7-0.7v-6.6c0-0.4,0.3-0.7,0.7-0.7h10.2c0.4,0,0.7,0.3,0.7,0.7l0,0V85
				C247.2,85.4,246.9,85.7,246.6,85.7L246.6,85.7 M237,84.3h8.9V79H237V84.3z"/>
			<rect x="238" y="80.8" class="st5" width="1.7" height="1.7"/>
			<rect x="240.6" y="80.8" class="st5" width="1.7" height="1.7"/>
			<rect x="243.3" y="80.8" class="st5" width="1.7" height="1.7"/>
			<path class="st4" d="M238.4,89.2c-0.4,0-0.7-0.3-0.7-0.7l0,0V85c0-0.4,0.3-0.7,0.7-0.7c0.4,0,0.7,0.3,0.7,0.7l0,0v3.5
				C239.1,88.9,238.8,89.2,238.4,89.2"/>
			<path class="st4" d="M244.4,89.2c-0.4,0-0.7-0.3-0.7-0.7l0,0V85c0-0.4,0.3-0.7,0.7-0.7c0.4,0,0.7,0.3,0.7,0.7l0,0v3.5
				C245.1,88.9,244.8,89.2,244.4,89.2L244.4,89.2"/>
			<path class="st4" d="M275.8,377.8H256v-5.9h19.7V377.8z M257.4,376.4h17.1v-3.2h-17.1V376.4z"/>
			<rect x="262.9" y="377" class="st4" width="1.3" height="2.3"/>
			<rect x="267.6" y="377" class="st4" width="1.3" height="2.3"/>
			<path class="st4" d="M282.7,383.1h-33.7c-0.4,0-0.7-0.3-0.7-0.7c0-0.2,0.1-0.4,0.3-0.5l4.4-3.3c0.1-0.1,0.3-0.1,0.4-0.1h24.8
				c0.1,0,0.3,0,0.4,0.1l4.4,3.3c0.3,0.2,0.4,0.6,0.2,0.9C283.2,383,283,383.1,282.7,383.1L282.7,383.1z M251.1,381.8h29.6l-2.6-1.9
				h-24.4L251.1,381.8z"/>
			<path class="st4" d="M279.4,389.8c-1.1,0-2-0.5-2.7-1.3c-1.1,1.5-3.3,1.7-4.8,0.6c-0.1-0.1-0.1-0.1-0.2-0.2
				c-0.1-0.1-0.3-0.3-0.4-0.4c-1.1,1.5-3.3,1.7-4.7,0.6c-0.1-0.1-0.1-0.1-0.2-0.2c-0.1-0.1-0.3-0.3-0.4-0.4
				c-1.1,1.5-3.3,1.7-4.7,0.6c-0.1-0.1-0.1-0.1-0.2-0.2c-0.1-0.1-0.3-0.3-0.4-0.4c-1.1,1.5-3.2,1.7-4.7,0.6
				c-0.1-0.1-0.1-0.1-0.2-0.2c-0.1-0.1-0.3-0.3-0.4-0.4c-1.2,1.5-3.5,1.8-5,0.5c0,0-0.1-0.1-0.1-0.1c-0.7-0.7-1.1-1.6-1.1-2.6v-3.8
				c0-0.4,0.3-0.7,0.7-0.7l0,0h32c0.4,0,0.7,0.3,0.7,0.7c0,0,0,0,0,0v3.8c0.1,1.8-1.3,3.4-3.1,3.5
				C279.6,389.8,279.5,389.8,279.4,389.8 M276.8,385.6c0.4,0,0.7,0.3,0.7,0.7l0,0c-0.1,1.1,0.7,2.1,1.8,2.2s2.1-0.7,2.2-1.8
				c0-0.1,0-0.2,0-0.4v-3.1h-30.7v3.1c-0.1,1.2,0.8,2.1,2,2.2c1.2,0.1,2.1-0.8,2.2-2c0-0.1,0-0.1,0-0.2c0-0.4,0.3-0.7,0.7-0.7
				c0.4,0,0.7,0.3,0.7,0.7l0,0l0,0c-0.1,1.1,0.7,2.1,1.8,2.2s2.1-0.7,2.2-1.8c0-0.1,0-0.3,0-0.4c0-0.4,0.3-0.7,0.7-0.7
				s0.7,0.3,0.7,0.7c-0.1,1.1,0.7,2.1,1.8,2.2c1.1,0.1,2.1-0.7,2.2-1.8c0-0.2,0-0.3,0-0.5c0-0.4,0.3-0.7,0.7-0.7
				c0.4,0,0.7,0.3,0.7,0.7l0,0c-0.1,1.1,0.7,2.1,1.8,2.2c1.1,0.1,2.1-0.7,2.2-1.8c0-0.2,0-0.3,0-0.5c0-0.4,0.3-0.7,0.7-0.7
				s0.7,0.3,0.7,0.7l0,0c-0.1,1.1,0.8,2.1,1.9,2.1s2.1-0.8,2.1-1.9c0-0.1,0-0.2,0-0.3C276.1,385.9,276.4,385.6,276.8,385.6"/>
			<path class="st4" d="M279.4,407.9h-26.7c-0.4,0-0.7-0.3-0.7-0.7v-18.1c0-0.4,0.3-0.7,0.7-0.7c0.4,0,0.7,0.3,0.7,0.7v17.4h25.4
				v-17.4c0-0.4,0.3-0.7,0.7-0.7s0.7,0.3,0.7,0.7v18.1C280.1,407.6,279.8,407.9,279.4,407.9C279.4,407.9,279.4,407.9,279.4,407.9z"
				/>
			<path class="st5" d="M259.8,395.8c1.3,0,2.3,1,2.3,2.3c0,1.3-1,2.3-2.3,2.3c-1.3,0-2.3-1-2.3-2.3
				C257.4,396.9,258.5,395.8,259.8,395.8C259.8,395.8,259.8,395.8,259.8,395.8"/>
			<path class="st4" d="M259.8,401.2c-1.7,0-3-1.3-3-3s1.3-3,3-3s3,1.3,3,3S261.4,401.2,259.8,401.2 M259.8,396.5
				c-0.9,0-1.7,0.8-1.7,1.7s0.8,1.7,1.7,1.7c0.9,0,1.7-0.8,1.7-1.7c0,0,0,0,0,0C261.4,397.3,260.7,396.5,259.8,396.5L259.8,396.5z"
				/>
			<path class="st4" d="M264.5,407.9h-9.6c-0.4,0-0.7-0.3-0.7-0.7l0,0c0.1-3,2.6-5.4,5.6-5.3c2.9,0.1,5.3,2.4,5.3,5.3
				C265.2,407.6,264.9,407.9,264.5,407.9C264.5,407.9,264.5,407.9,264.5,407.9z M255.7,406.6h8.2c-0.1-0.9-0.5-1.7-1.2-2.3
				c-0.8-0.7-1.8-1-2.9-1C257.7,403.1,255.9,404.6,255.7,406.6L255.7,406.6z"/>
			<path class="st4" d="M276.9,404.4h-10.2c-0.4,0-0.7-0.3-0.7-0.7l0,0v-6.6c0-0.4,0.3-0.7,0.7-0.7h10.2c0.4,0,0.7,0.3,0.7,0.7v6.6
				C277.6,404.1,277.3,404.4,276.9,404.4 M267.4,403h8.9v-5.3h-8.9V403z"/>
			<rect x="268.3" y="399.5" class="st5" width="1.7" height="1.7"/>
			<rect x="271" y="399.5" class="st5" width="1.7" height="1.7"/>
			<rect x="273.6" y="399.5" class="st5" width="1.7" height="1.7"/>
			<path class="st4" d="M268.8,407.9c-0.4,0-0.7-0.3-0.7-0.7l0,0v-3.5c0-0.4,0.3-0.7,0.7-0.7c0.4,0,0.7,0.3,0.7,0.7v3.5
				C269.5,407.6,269.2,407.9,268.8,407.9"/>
			<path class="st4" d="M274.8,407.9c-0.4,0-0.7-0.3-0.7-0.7l0,0v-3.5c0-0.4,0.3-0.7,0.7-0.7s0.7,0.3,0.7,0.7v3.5
				C275.5,407.6,275.2,407.9,274.8,407.9L274.8,407.9"/>
			<path class="st4" d="M449.8,231.3h-19.7v-5.9h19.7V231.3z M431.4,229.9h17.1v-3.2h-17.1V229.9z"/>
			<rect x="436.9" y="230.5" class="st4" width="1.3" height="2.3"/>
			<rect x="441.7" y="230.5" class="st4" width="1.3" height="2.3"/>
			<path class="st4" d="M456.8,236.6h-33.7c-0.4,0-0.7-0.3-0.7-0.7c0-0.2,0.1-0.4,0.3-0.5l4.4-3.3c0.1-0.1,0.3-0.1,0.4-0.1h24.8
				c0.1,0,0.3,0,0.4,0.1l4.4,3.3c0.3,0.2,0.4,0.6,0.2,0.9C457.2,236.5,457,236.6,456.8,236.6z M425.1,235.3h29.6l-2.6-1.9h-24.4
				L425.1,235.3z"/>
			<path class="st4" d="M453.4,243.3c-1.1,0-2-0.5-2.7-1.3c-1.1,1.5-3.3,1.7-4.8,0.6c-0.1-0.1-0.1-0.1-0.2-0.2
				c-0.1-0.1-0.3-0.3-0.4-0.4c-1.1,1.5-3.3,1.7-4.7,0.6c-0.1-0.1-0.1-0.1-0.2-0.2c-0.1-0.1-0.3-0.3-0.4-0.4
				c-1.1,1.5-3.3,1.7-4.7,0.6c-0.1-0.1-0.1-0.1-0.2-0.2c-0.1-0.1-0.3-0.3-0.4-0.4c-1.1,1.5-3.2,1.7-4.7,0.6
				c-0.1-0.1-0.1-0.1-0.2-0.2c-0.1-0.1-0.3-0.3-0.4-0.4c-1.2,1.5-3.5,1.8-5,0.5c0,0-0.1-0.1-0.1-0.1c-0.7-0.7-1.1-1.6-1.1-2.6V236
				c0-0.4,0.3-0.7,0.7-0.7h32c0.4,0,0.7,0.3,0.7,0.7c0,0,0,0,0,0v3.8c0.1,1.8-1.3,3.4-3.1,3.5C453.6,243.3,453.5,243.3,453.4,243.3
				 M450.8,239.1c0.4,0,0.7,0.3,0.7,0.7c-0.1,1.1,0.7,2.1,1.8,2.2s2.1-0.7,2.2-1.8c0-0.1,0-0.2,0-0.4v-3.1h-30.7v3.1
				c-0.1,1.2,0.8,2.1,2,2.2c1.2,0.1,2.1-0.8,2.2-2c0-0.1,0-0.1,0-0.2c0-0.4,0.3-0.7,0.7-0.7s0.7,0.3,0.7,0.7l0,0
				c-0.1,1.1,0.7,2.1,1.8,2.2c1.1,0.1,2.1-0.7,2.2-1.8c0-0.1,0-0.3,0-0.4c0-0.4,0.3-0.7,0.7-0.7c0.4,0,0.7,0.3,0.7,0.7
				c-0.1,1.1,0.7,2.1,1.8,2.2c1.1,0.1,2.1-0.7,2.2-1.8c0-0.2,0-0.3,0-0.5c0-0.4,0.3-0.7,0.7-0.7c0.4,0,0.7,0.3,0.7,0.7l0,0
				c-0.1,1.1,0.7,2.1,1.8,2.2c1.1,0.1,2.1-0.7,2.2-1.8c0-0.2,0-0.3,0-0.5c0-0.4,0.3-0.7,0.7-0.7s0.7,0.3,0.7,0.7l0,0
				c-0.1,1.1,0.7,2.1,1.8,2.2c1.1,0.1,2.1-0.7,2.2-1.8c0-0.1,0-0.3,0-0.4C450.1,239.4,450.4,239.1,450.8,239.1"/>
			<path class="st4" d="M453.4,261.4h-26.7c-0.4,0-0.7-0.3-0.7-0.7v-18.1c0-0.4,0.3-0.7,0.7-0.7s0.7,0.3,0.7,0.7v17.4h25.4v-17.4
				c0-0.4,0.3-0.7,0.7-0.7s0.7,0.3,0.7,0.7v18.1C454.1,261.1,453.8,261.4,453.4,261.4z"/>
			<path class="st5" d="M433.8,249.3c1.3,0,2.3,1,2.3,2.3s-1,2.3-2.3,2.3c-1.3,0-2.3-1-2.3-2.3C431.5,250.4,432.5,249.3,433.8,249.3
				C433.8,249.3,433.8,249.3,433.8,249.3"/>
			<path class="st4" d="M433.8,254.7c-1.7,0-3-1.3-3-3s1.3-3,3-3s3,1.3,3,3S435.5,254.7,433.8,254.7 M433.8,250
				c-0.9,0-1.7,0.7-1.7,1.7c0,0.9,0.7,1.7,1.7,1.7c0.9,0,1.7-0.7,1.7-1.7c0,0,0,0,0,0C435.5,250.8,434.7,250,433.8,250z"/>
			<path class="st4" d="M438.5,261.4H429c-0.4,0-0.7-0.3-0.7-0.7c0.1-3,2.6-5.4,5.6-5.3c2.9,0.1,5.3,2.4,5.3,5.3
				C439.2,261.1,438.9,261.4,438.5,261.4C438.5,261.4,438.5,261.4,438.5,261.4z M429.7,260.1h8.2c-0.1-0.9-0.5-1.7-1.2-2.3
				c-0.8-0.7-1.8-1-2.9-1C431.7,256.6,430,258.1,429.7,260.1L429.7,260.1z"/>
			<path class="st4" d="M451,257.9h-10.2c-0.4,0-0.7-0.3-0.7-0.7v-6.6c0-0.4,0.3-0.7,0.7-0.7H451c0.4,0,0.7,0.3,0.7,0.7l0,0v6.6
				C451.6,257.6,451.3,257.9,451,257.9 M441.4,256.5h8.9v-5.3h-8.9V256.5z"/>
			<rect x="442.4" y="253" class="st5" width="1.7" height="1.7"/>
			<rect x="445" y="253" class="st5" width="1.7" height="1.7"/>
			<rect x="447.7" y="253" class="st5" width="1.7" height="1.7"/>
			<path class="st4" d="M442.8,261.4c-0.4,0-0.7-0.3-0.7-0.7v-3.5c0-0.4,0.3-0.7,0.7-0.7s0.7,0.3,0.7,0.7v3.5
				C443.5,261.1,443.2,261.4,442.8,261.4"/>
			<path class="st4" d="M448.9,261.4c-0.4,0-0.7-0.3-0.7-0.7v-3.5c0-0.4,0.3-0.7,0.7-0.7s0.7,0.3,0.7,0.7v3.5
				C449.5,261.1,449.2,261.4,448.9,261.4"/>
			<path class="st4" d="M167.4,123.9h-24.7v-7.4h24.7L167.4,123.9z M144.4,122.3h21.4v-4h-21.4L144.4,122.3z"/>
			<rect x="151.3" y="122.9" class="st4" width="1.7" height="2.8"/>
			<rect x="157.2" y="122.9" class="st4" width="1.7" height="2.8"/>
			<path class="st4" d="M176.1,130.7H134c-0.5,0-0.8-0.4-0.8-0.8c0-0.3,0.1-0.5,0.3-0.7l5.5-4.1c0.1-0.1,0.3-0.2,0.5-0.2h31.1
				c0.2,0,0.4,0.1,0.5,0.2l5.5,4.1c0.4,0.3,0.5,0.8,0.2,1.2C176.7,130.6,176.4,130.7,176.1,130.7L176.1,130.7z M136.5,129h37.1
				l-3.3-2.4h-30.5L136.5,129z"/>
			<path class="st4" d="M172,139c-1.1,0-2.1-0.4-2.9-1.1c-0.2-0.2-0.3-0.3-0.5-0.5c-1.4,1.8-4.1,2.2-5.9,0.7
				c-0.1-0.1-0.2-0.1-0.2-0.2c-0.2-0.2-0.3-0.3-0.5-0.5c-1.4,1.8-4.1,2.2-5.9,0.7c-0.1-0.1-0.2-0.1-0.2-0.2
				c-0.2-0.2-0.3-0.3-0.5-0.5c-1.4,1.8-4.1,2.2-5.9,0.7c-0.1-0.1-0.2-0.1-0.2-0.2c-0.2-0.2-0.3-0.3-0.5-0.5
				c-1.4,1.8-4.1,2.2-5.9,0.8c-0.1-0.1-0.2-0.1-0.3-0.2c-0.2-0.2-0.3-0.3-0.5-0.5c-1.5,1.9-4.3,2.2-6.2,0.7c0,0-0.1-0.1-0.1-0.1
				c-0.9-0.9-1.4-2.1-1.3-3.3v-4.8c0-0.5,0.4-0.8,0.8-0.8c0,0,0,0,0,0h40.1c0.5,0,0.8,0.4,0.8,0.8v4.8c0.1,2.3-1.6,4.3-3.9,4.4
				C172.2,139,172.1,139,172,139 M168.6,133.8c0.5,0,0.8,0.4,0.8,0.8c-0.1,1.4,0.9,2.6,2.3,2.7c1.4,0.1,2.6-0.9,2.7-2.3
				c0-0.2,0-0.3,0-0.5v-3.9h-38.4v3.9c-0.1,1.4,1,2.7,2.5,2.8c1.4,0.1,2.7-1,2.8-2.5c0-0.1,0-0.2,0-0.3c0-0.5,0.4-0.8,0.8-0.8
				c0.5,0,0.8,0.4,0.8,0.8l0,0c-0.1,1.4,0.8,2.6,2.2,2.7s2.6-0.8,2.7-2.2c0-0.2,0-0.4,0-0.5c0-0.5,0.4-0.8,0.8-0.8
				c0.5,0,0.8,0.4,0.8,0.8c-0.1,1.4,0.9,2.6,2.2,2.7c1.4,0.1,2.6-0.9,2.7-2.2c0-0.2,0-0.3,0-0.5c0-0.5,0.4-0.8,0.8-0.8
				s0.8,0.4,0.8,0.8c0,0,0,0,0,0l0,0c-0.1,1.4,0.9,2.6,2.2,2.7c1.4,0.1,2.6-0.9,2.7-2.2c0-0.2,0-0.3,0-0.5c0-0.5,0.4-0.8,0.8-0.8
				s0.8,0.4,0.8,0.8c0,0,0,0,0,0l0,0c-0.1,1.4,0.9,2.6,2.3,2.7c1.4,0.1,2.6-0.9,2.7-2.3c0-0.1,0-0.3,0-0.4
				C167.8,134.2,168.2,133.8,168.6,133.8"/>
			<path class="st4" d="M171.9,161.6h-33.5c-0.5,0-0.8-0.4-0.8-0.8v-22.6c0-0.5,0.4-0.8,0.8-0.8c0.5,0,0.8,0.4,0.8,0.8V160h31.8
				v-21.8c0-0.5,0.4-0.8,0.8-0.8s0.8,0.4,0.8,0.8c0,0,0,0,0,0v22.6C172.8,161.3,172.4,161.6,171.9,161.6z"/>
			<path class="st5" d="M147.4,146.6c1.6,0,2.9,1.3,2.9,2.9c0,1.6-1.3,2.9-2.9,2.9c-1.6,0-2.9-1.3-2.9-2.9
				C144.4,147.9,145.8,146.6,147.4,146.6C147.4,146.6,147.4,146.6,147.4,146.6"/>
			<path class="st4" d="M147.4,153.3c-2.1,0-3.8-1.7-3.8-3.8c0-2.1,1.7-3.8,3.8-3.8c2.1,0,3.8,1.7,3.8,3.8v0
				C151.1,151.6,149.4,153.3,147.4,153.3 M147.4,147.4c-1.2,0-2.1,0.9-2.1,2.1c0,1.2,0.9,2.1,2.1,2.1c1.2,0,2.1-0.9,2.1-2.1l0,0
				C149.5,148.3,148.5,147.4,147.4,147.4L147.4,147.4z"/>
			<path class="st4" d="M153.3,161.7h-12c-0.5,0-0.8-0.4-0.8-0.8c0,0,0,0,0,0c0.1-3.8,3.3-6.7,7-6.6c3.6,0.1,6.5,3,6.6,6.6
				C154.1,161.3,153.8,161.7,153.3,161.7C153.3,161.7,153.3,161.7,153.3,161.7z M142.2,160h10.2c-0.1-1.1-0.7-2.2-1.5-2.9
				c-1-0.8-2.3-1.3-3.6-1.3C144.8,155.7,142.6,157.5,142.2,160z"/>
			<path class="st4" d="M168.9,157.2h-12.7c-0.5,0-0.8-0.4-0.8-0.8v-8.3c0-0.5,0.4-0.8,0.8-0.8h12.7c0.5,0,0.8,0.4,0.8,0.8v8.3
				C169.7,156.9,169.3,157.2,168.9,157.2 M156.9,155.6H168v-6.6h-11.1V155.6z"/>
			<rect x="158.1" y="151.2" class="st5" width="2.2" height="2.2"/>
			<rect x="161.4" y="151.2" class="st5" width="2.2" height="2.2"/>
			<rect x="164.7" y="151.2" class="st5" width="2.2" height="2.2"/>
			<path class="st4" d="M158.7,161.6c-0.5,0-0.8-0.4-0.8-0.8v-4.4c0-0.5,0.4-0.8,0.8-0.8c0.5,0,0.8,0.4,0.8,0.8c0,0,0,0,0,0v4.4
				C159.5,161.3,159.1,161.6,158.7,161.6"/>
			<path class="st4" d="M166.2,161.6c-0.5,0-0.8-0.4-0.8-0.8v-4.4c0-0.5,0.4-0.8,0.8-0.8c0.5,0,0.8,0.4,0.8,0.8c0,0,0,0,0,0v4.4
				C167.1,161.3,166.7,161.6,166.2,161.6"/>
			<path class="st4" d="M360.2,274.5h-18.5v-5.5h18.5V274.5z M342.9,273.2h16v-3h-16V273.2z"/>
			<rect x="348.1" y="273.7" class="st4" width="1.2" height="2.1"/>
			<rect x="352.6" y="273.7" class="st4" width="1.2" height="2.1"/>
			<path class="st4" d="M366.7,279.5h-31.6c-0.3,0-0.6-0.3-0.6-0.6c0-0.2,0.1-0.4,0.3-0.5l4.1-3.1c0.1-0.1,0.2-0.1,0.4-0.1h23.3
				c0.1,0,0.3,0,0.4,0.1l4.1,3.1c0.3,0.2,0.3,0.6,0.1,0.9C367.1,279.4,366.9,279.5,366.7,279.5L366.7,279.5z M337.1,278.3h27.8
				l-2.5-1.8h-22.9L337.1,278.3z"/>
			<path class="st4" d="M363.6,285.8c-0.8,0-1.6-0.3-2.1-0.8c-0.1-0.1-0.2-0.3-0.4-0.4c-1.1,1.4-3.1,1.6-4.5,0.6
				c-0.1,0-0.1-0.1-0.2-0.2c-0.1-0.1-0.2-0.3-0.3-0.4c-1.1,1.4-3.1,1.6-4.4,0.6c-0.1-0.1-0.1-0.1-0.2-0.2c-0.1-0.1-0.2-0.3-0.3-0.4
				c-1.1,1.4-3.1,1.6-4.4,0.6c-0.1,0-0.1-0.1-0.2-0.2c-0.1-0.1-0.2-0.3-0.3-0.4c-1.1,1.4-3,1.6-4.4,0.6c-0.1-0.1-0.1-0.1-0.2-0.2
				c-0.1-0.1-0.2-0.3-0.4-0.4c-1.1,1.4-3.2,1.6-4.7,0.5c0,0-0.1-0.1-0.1-0.1c-0.7-0.6-1-1.5-1-2.5v-3.6c0-0.3,0.3-0.6,0.6-0.6l0,0
				h30c0.3,0,0.6,0.3,0.6,0.6l0,0v3.6c0.1,1.7-1.2,3.2-2.9,3.3C363.8,285.8,363.7,285.8,363.6,285.8 M361.1,281.8
				c0.3,0,0.6,0.3,0.6,0.6c0,0,0,0,0,0c-0.1,1,0.7,2,1.7,2.1s2-0.7,2.1-1.7c0-0.1,0-0.2,0-0.4v-2.9h-28.8v2.9
				c-0.1,1.1,0.7,2,1.8,2.1c1.1,0.1,2-0.7,2.1-1.8c0-0.1,0-0.2,0-0.3c0-0.3,0.3-0.6,0.6-0.6c0.3,0,0.6,0.3,0.6,0.6l0,0
				c-0.1,1,0.6,1.9,1.7,2.1c1,0.1,1.9-0.6,2.1-1.7c0-0.1,0-0.3,0-0.4c0-0.3,0.3-0.6,0.6-0.6c0.3,0,0.6,0.3,0.6,0.6
				c-0.1,1,0.7,1.9,1.7,2c1,0.1,1.9-0.7,2-1.7c0-0.1,0-0.2,0-0.4c0-0.3,0.3-0.6,0.6-0.6c0.3,0,0.6,0.3,0.6,0.6l0,0
				c-0.1,1,0.6,1.9,1.7,2.1c1,0.1,1.9-0.6,2.1-1.7c0-0.1,0-0.3,0-0.4c0-0.3,0.3-0.6,0.6-0.6c0.3,0,0.6,0.3,0.6,0.6l0,0
				c-0.1,1,0.7,2,1.7,2.1s2-0.7,2.1-1.7c0-0.1,0-0.2,0-0.4C360.5,282.1,360.8,281.8,361.1,281.8L361.1,281.8"/>
			<path class="st4" d="M363.6,302.7h-25.1c-0.3,0-0.6-0.3-0.6-0.6c0,0,0,0,0,0v-16.9c0-0.3,0.3-0.6,0.6-0.6c0.3,0,0.6,0.3,0.6,0.6
				v16.3H363v-16.3c0-0.3,0.3-0.6,0.6-0.6c0.3,0,0.6,0.3,0.6,0.6v16.9C364.2,302.4,363.9,302.7,363.6,302.7
				C363.6,302.7,363.6,302.7,363.6,302.7z"/>
			<path class="st5" d="M345.2,291.4c1.2,0,2.2,1,2.2,2.2c0,1.2-1,2.2-2.2,2.2c-1.2,0-2.2-1-2.2-2.2c0,0,0,0,0,0
				C343,292.4,344,291.4,345.2,291.4L345.2,291.4"/>
			<path class="st4" d="M345.2,296.4c-1.6,0-2.8-1.3-2.8-2.8c0-1.6,1.3-2.8,2.8-2.8s2.8,1.3,2.8,2.8
				C348,295.2,346.7,296.4,345.2,296.4C345.2,296.4,345.2,296.4,345.2,296.4 M345.2,292c-0.9,0-1.6,0.7-1.6,1.6s0.7,1.6,1.6,1.6
				s1.6-0.7,1.6-1.6c0,0,0,0,0,0C346.8,292.7,346.1,292,345.2,292C345.2,292,345.2,292,345.2,292L345.2,292z"/>
			<path class="st4" d="M349.7,302.7h-9c-0.3,0-0.6-0.3-0.6-0.6c0,0,0,0,0,0c0-2.8,2.4-5.1,5.2-5c2.8,0,5,2.3,5,5
				C350.3,302.4,350,302.7,349.7,302.7z M341.3,301.5h7.6c-0.1-0.9-0.5-1.6-1.1-2.2c-0.8-0.6-1.7-1-2.7-0.9
				C343.3,298.2,341.6,299.6,341.3,301.5L341.3,301.5z"/>
			<path class="st4" d="M361.3,299.4h-9.5c-0.3,0-0.6-0.3-0.6-0.6v-6.2c0-0.3,0.3-0.6,0.6-0.6l0,0h9.5c0.3,0,0.6,0.3,0.6,0.6
				c0,0,0,0,0,0v6.2C361.9,299.1,361.6,299.4,361.3,299.4C361.3,299.4,361.3,299.4,361.3,299.4 M352.4,298.2h8.3v-5h-8.3V298.2z"/>
			<rect x="353.2" y="294.9" class="st5" width="1.6" height="1.6"/>
			<rect x="355.7" y="294.9" class="st5" width="1.6" height="1.6"/>
			<rect x="358.2" y="294.9" class="st5" width="1.6" height="1.6"/>
			<path class="st4" d="M353.7,302.7c-0.3,0-0.6-0.3-0.6-0.6c0,0,0,0,0,0v-3.3c0-0.3,0.3-0.6,0.6-0.6c0.3,0,0.6,0.3,0.6,0.6v3.3
				C354.3,302.4,354,302.7,353.7,302.7C353.7,302.7,353.7,302.7,353.7,302.7"/>
			<path class="st4" d="M359.3,302.7c-0.3,0-0.6-0.3-0.6-0.6c0,0,0,0,0,0v-3.3c0-0.3,0.3-0.6,0.6-0.6c0.3,0,0.6,0.3,0.6,0.6v3.3
				C359.9,302.4,359.7,302.7,359.3,302.7C359.3,302.7,359.3,302.7,359.3,302.7"/>
			<path class="st4" d="M79.4,340.5H60.9V335h18.5V340.5z M62.1,339.3h16v-3h-16L62.1,339.3z"/>
			<rect x="67.3" y="339.8" class="st4" width="1.2" height="2.1"/>
			<rect x="71.8" y="339.8" class="st4" width="1.2" height="2.1"/>
			<path class="st4" d="M85.9,345.6H54.4c-0.3,0-0.6-0.3-0.6-0.6c0-0.2,0.1-0.4,0.3-0.5l4.1-3.1c0.1-0.1,0.2-0.1,0.4-0.1h23.3
				c0.1,0,0.3,0,0.4,0.1l4.1,3.1c0.3,0.2,0.3,0.6,0.1,0.9C86.3,345.5,86.1,345.6,85.9,345.6z M56.3,344.3h27.8l-2.5-1.8H58.7
				L56.3,344.3z"/>
			<path class="st4" d="M82.8,351.8c-0.8,0-1.6-0.3-2.2-0.8c-0.1-0.1-0.2-0.3-0.4-0.4c-1.1,1.4-3.1,1.6-4.5,0.6
				c-0.1,0-0.1-0.1-0.2-0.2c-0.1-0.1-0.2-0.3-0.3-0.4c-1.1,1.4-3.1,1.6-4.4,0.6c-0.1-0.1-0.1-0.1-0.2-0.2c-0.1-0.1-0.2-0.3-0.3-0.4
				c-1.1,1.4-3.1,1.6-4.4,0.6c-0.1,0-0.1-0.1-0.2-0.2c-0.1-0.1-0.2-0.3-0.3-0.4c-1.1,1.4-3,1.6-4.4,0.6c-0.1-0.1-0.1-0.1-0.2-0.2
				c-0.1-0.1-0.2-0.3-0.4-0.4c-1.1,1.4-3.2,1.6-4.7,0.5c0,0-0.1-0.1-0.1-0.1c-0.7-0.6-1-1.5-1-2.5v-3.6c0-0.3,0.3-0.6,0.6-0.6l0,0
				h30c0.3,0,0.6,0.3,0.6,0.6l0,0v3.6c0.1,1.7-1.2,3.2-2.9,3.3C83,351.8,82.9,351.8,82.8,351.8 M80.3,347.9c0.3,0,0.6,0.3,0.6,0.6
				c0,0,0,0,0,0c-0.1,1,0.7,2,1.7,2.1c1,0.1,2-0.7,2.1-1.7c0-0.1,0-0.2,0-0.4v-2.9H55.9v2.9c-0.1,1.1,0.7,2,1.8,2.1
				c1.1,0.1,2-0.7,2.1-1.8c0-0.1,0-0.2,0-0.3c0-0.3,0.3-0.6,0.6-0.6c0.3,0,0.6,0.3,0.6,0.6l0,0c-0.1,1,0.6,1.9,1.7,2.1
				c1,0.1,1.9-0.6,2.1-1.7c0-0.1,0-0.3,0-0.4c0-0.3,0.3-0.6,0.6-0.6c0.3,0,0.6,0.3,0.6,0.6c-0.1,1,0.7,1.9,1.7,2s1.9-0.7,2-1.7
				c0-0.1,0-0.2,0-0.4c0-0.3,0.3-0.6,0.6-0.6c0.3,0,0.6,0.3,0.6,0.6l0,0c-0.1,1,0.6,1.9,1.7,2.1c1,0.1,1.9-0.6,2.1-1.7
				c0-0.1,0-0.3,0-0.4c0-0.3,0.3-0.6,0.6-0.6c0.3,0,0.6,0.3,0.6,0.6l0,0c-0.1,1,0.7,2,1.7,2.1s2-0.7,2.1-1.7c0-0.1,0-0.2,0-0.4
				C79.7,348.2,80,347.9,80.3,347.9L80.3,347.9"/>
			<path class="st4" d="M82.8,368.7H57.7c-0.3,0-0.6-0.3-0.6-0.6c0,0,0,0,0,0v-16.9c0-0.3,0.3-0.6,0.6-0.6c0.3,0,0.6,0.3,0.6,0.6
				v16.3h23.8v-16.3c0-0.3,0.3-0.6,0.6-0.6s0.6,0.3,0.6,0.6v16.9C83.4,368.5,83.2,368.7,82.8,368.7
				C82.8,368.7,82.8,368.7,82.8,368.7z"/>
			<path class="st5" d="M64.4,357.5c1.2,0,2.2,1,2.2,2.2c0,1.2-1,2.2-2.2,2.2c-1.2,0-2.2-1-2.2-2.2c0,0,0,0,0,0
				C62.2,358.4,63.2,357.5,64.4,357.5L64.4,357.5"/>
			<path class="st4" d="M64.4,362.5c-1.6,0-2.8-1.3-2.8-2.8c0-1.6,1.3-2.8,2.8-2.8c1.6,0,2.8,1.3,2.8,2.8
				C67.2,361.2,66,362.5,64.4,362.5C64.4,362.5,64.4,362.5,64.4,362.5 M64.4,358.1c-0.9,0-1.6,0.7-1.6,1.6c0,0.9,0.7,1.6,1.6,1.6
				c0.9,0,1.6-0.7,1.6-1.6c0,0,0,0,0,0C66,358.8,65.3,358.1,64.4,358.1z"/>
			<path class="st4" d="M68.8,368.8h-9c-0.3,0-0.6-0.3-0.6-0.6c0,0,0,0,0,0c-0.1-2.7,2.1-4.9,4.8-5c0.1,0,0.2,0,0.3,0
				c2.7-0.1,5,2,5.1,4.7c0,0.1,0,0.2,0,0.3C69.5,368.5,69.2,368.8,68.8,368.8C68.9,368.8,68.9,368.8,68.8,368.8z M60.5,367.5h7.6
				c-0.1-0.9-0.5-1.6-1.1-2.2c-0.8-0.6-1.7-1-2.7-0.9C62.5,364.3,60.8,365.6,60.5,367.5L60.5,367.5z"/>
			<path class="st4" d="M80.5,365.5H71c-0.3,0-0.6-0.3-0.6-0.6v-6.2c0-0.3,0.3-0.6,0.6-0.6l0,0h9.5c0.3,0,0.6,0.3,0.6,0.6
				c0,0,0,0,0,0v6.2C81.1,365.2,80.8,365.5,80.5,365.5C80.5,365.5,80.5,365.5,80.5,365.5 M71.6,364.2h8.3v-5h-8.3V364.2z"/>
			<rect x="72.4" y="360.9" class="st5" width="1.6" height="1.6"/>
			<rect x="74.9" y="360.9" class="st5" width="1.6" height="1.6"/>
			<rect x="77.4" y="360.9" class="st5" width="1.6" height="1.6"/>
			<path class="st4" d="M72.9,368.7c-0.3,0-0.6-0.3-0.6-0.6c0,0,0,0,0,0v-3.3c0-0.3,0.3-0.6,0.6-0.6c0.3,0,0.6,0.3,0.6,0.6v3.3
				C73.5,368.5,73.2,368.7,72.9,368.7C72.9,368.7,72.9,368.7,72.9,368.7"/>
			<path class="st4" d="M78.5,368.7c-0.3,0-0.6-0.3-0.6-0.6c0,0,0,0,0,0v-3.3c0-0.3,0.3-0.6,0.6-0.6s0.6,0.3,0.6,0.6v3.3
				C79.1,368.5,78.9,368.7,78.5,368.7C78.5,368.7,78.5,368.7,78.5,368.7"/>
			<path class="st4" d="M223.1,157.3c-1.3,0.1-2.5-0.9-2.6-2.2c0,0,0-0.1,0-0.1v-2.6l2.7-5.8c0.8-1.2,2.1-1.4,4-1.3l16.4,0
				c1.7,0,3.6,0,4.3,1.4l2.6,5.7v2.6c0,2.3-3.3,2.8-4.7,1.4c-1.2,1-2.9,1-4.1,0c-1.1,0.9-2.6,1-3.8,0.3c-0.1-0.1-0.2-0.2-0.3-0.3
				c-1.2,1-2.9,1-4.1,0c-1.2,1.1-3,1.1-4.1,0c-1.1,0.9-2.6,1-3.8,0.2c-0.1-0.1-0.2-0.1-0.3-0.2C224.7,157,223.9,157.3,223.1,157.3
				 M221.6,152.6v2.3c0,0.9,0.9,1.2,1.5,1.2s1.5-0.2,1.5-1.2h1.2c0,0.8,1,1,1.5,1s1.5-0.2,1.5-1h1.2c0,0.9,0.9,1.1,1.5,1.1
				s1.5-0.2,1.5-1.1h1.2c0,0.8,1,1,1.5,1s1.5-0.2,1.5-1h1.1c0,0.8,1,1,1.5,1s1.5-0.2,1.5-1h1.2c0,0.8,1,1,1.5,1s1.5-0.2,1.5-1h1.2
				c0,0.8,1,1,1.5,1s1.5-0.2,1.5-1v-2.4l-2.4-5.5c-0.3-0.6-1.2-0.8-3.2-0.7l-16.5,0c-1.8,0-2.5,0.2-3,0.8L221.6,152.6z"/>
			<path class="st4" d="M225.2,155.6L225.2,155.6c-0.3,0-0.6-0.3-0.6-0.6l0-2.4c0-0.1,0-0.1,0-0.2l2-6.7c0.1-0.3,0.4-0.5,0.7-0.4
				c0.3,0.1,0.5,0.4,0.4,0.7l-2,6.6l0,2.4C225.7,155.3,225.5,155.6,225.2,155.6"/>
			<path class="st4" d="M229.9,155h-1.2l0-2.6l1.5-6.6l1.1,0.3l-1.5,6.6L229.9,155z"/>
			<path class="st4" d="M234,155h-1.2v-2.5l0.4-6.4l1.2,0.1l-0.4,6.3L234,155z"/>
			<path class="st4" d="M238.1,155H237v-2.5l-0.5-6.4l1.2-0.1l0.5,6.4L238.1,155z"/>
			<path class="st4" d="M242.2,155l-1.2,0l0-2.4l-1.4-6.3l1.1-0.3l1.4,6.4L242.2,155z"/>
			<path class="st4" d="M245.3,155l-0.1-2.2l-1.9-6.4l1.1-0.3l2,6.7l0.1,2.3L245.3,155z"/>
			<path class="st4" d="M248.4,167.3h-25.9c-0.3,0-0.6-0.3-0.6-0.6l0,0v-9.8c0-0.3,0.3-0.6,0.6-0.6c0.3,0,0.6,0.3,0.6,0.6v9.2h25.3
				c0.3,0,0.6,0.3,0.6,0.6C249,167,248.7,167.3,248.4,167.3L248.4,167.3z"/>
			<path class="st4" d="M248.4,173.9c-0.3,0-0.6-0.3-0.6-0.6v-16.6c0-0.3,0.3-0.6,0.6-0.6s0.6,0.3,0.6,0.6v16.6
				C248.9,173.7,248.7,173.9,248.4,173.9"/>
			<path class="st4" d="M233.7,167.1h-9c-0.3,0-0.6-0.3-0.6-0.6c0,0,0,0,0,0v-4.4c0-0.3,0.3-0.6,0.6-0.6l0,0h9
				c0.3,0,0.6,0.3,0.6,0.6l0,0v4.4C234.3,166.9,234,167.1,233.7,167.1C233.7,167.1,233.7,167.1,233.7,167.1 M225.3,166h7.8v-3.3
				h-7.8V166z"/>
			<path class="st4" d="M233.2,165h-8.3c-0.3,0-0.6-0.3-0.6-0.6c0-0.3,0.3-0.6,0.6-0.6h8.3c0.3,0,0.6,0.3,0.6,0.6
				C233.8,164.8,233.5,165,233.2,165"/>
			<path class="st4" d="M230.7,176.7h-9c-0.3,0-0.6-0.3-0.6-0.6v-4.4c0-0.3,0.3-0.6,0.6-0.6l0,0h9c0.3,0,0.6,0.3,0.6,0.6l0,0v4.4
				C231.2,176.5,231,176.7,230.7,176.7 M222.3,175.6h7.8v-3.3h-7.8V175.6z"/>
			<path class="st4" d="M230.3,174.5H222c-0.3,0-0.6-0.3-0.6-0.6s0.3-0.6,0.6-0.6l0,0h8.3c0.3,0,0.6,0.3,0.6,0.6
				C230.9,174.2,230.6,174.5,230.3,174.5L230.3,174.5L230.3,174.5z"/>
			<path class="st4" d="M231.2,162c-0.3,0-0.6-0.3-0.6-0.6c0-0.4-0.3-0.7-0.7-0.7c-0.4,0-0.7,0.3-0.7,0.7l0,0v0
				c0,0.3-0.3,0.6-0.6,0.6s-0.6-0.3-0.6-0.6c0-1,0.8-1.8,1.8-1.8c1,0,1.8,0.8,1.8,1.8C231.8,161.8,231.6,162,231.2,162"/>
			<path class="st4" d="M229.4,160.6c-0.3,0-0.6-0.3-0.6-0.6c0-0.4-0.3-0.7-0.7-0.7c-0.4,0-0.7,0.3-0.7,0.7c0,0.3-0.3,0.6-0.6,0.6
				c-0.3,0-0.6-0.3-0.6-0.6l0,0c0-1,0.8-1.8,1.8-1.8c1,0,1.8,0.8,1.8,1.8l0,0C230,160.3,229.8,160.6,229.4,160.6"/>
			<path class="st4" d="M228.2,162.4c-0.3,0-0.6-0.3-0.6-0.6c0-0.4-0.3-0.7-0.7-0.7c-0.4,0-0.7,0.3-0.7,0.7c0,0,0,0,0,0
				c0,0.3-0.3,0.6-0.6,0.6s-0.6-0.3-0.6-0.6c0-1,0.8-1.8,1.8-1.8c1,0,1.8,0.8,1.8,1.8C228.8,162.2,228.5,162.4,228.2,162.4"/>
			<path class="st4" d="M222.5,169.9c-0.3,0-0.6-0.3-0.6-0.6v-3.3c0-0.3,0.3-0.6,0.6-0.6s0.6,0.3,0.6,0.6v3.3
				C223.1,169.7,222.8,169.9,222.5,169.9"/>
			<path class="st6" d="M227.5,160.1c0.3,0.1,0.6,0.3,0.8,0.6c0.1-0.3,0.3-0.5,0.5-0.7c0-0.4-0.3-0.7-0.7-0.7c0,0,0,0,0,0
				c0,0-0.1,0-0.1,0C227.7,159.4,227.5,159.7,227.5,160.1"/>
			<path class="st4" d="M222.7,172.2c-0.2,0-0.5-0.2-0.5-0.4l-0.6-1.8c0-0.1,0-0.2,0-0.3c0.2-0.8,1.2-1.1,2.1-1.1
				c0.9,0.1,1.5,0.5,1.6,1.1c0,0.1,0,0.1,0,0.2l-0.5,1.8c-0.1,0.3-0.4,0.5-0.7,0.4c-0.3-0.1-0.5-0.4-0.4-0.7l0.5-1.6
				c-0.2-0.1-0.5-0.1-0.7-0.1c-0.2,0-0.4,0-0.6,0.1l0.5,1.5c0.1,0.3-0.1,0.6-0.4,0.7C222.8,172.2,222.7,172.2,222.7,172.2z"/>
			<path class="st4" d="M229.4,172.3c-0.3,0-0.6-0.3-0.6-0.6c0-0.1,0-0.2,0.1-0.3l0.9-1.6c-0.2-0.2-0.5-0.2-0.8-0.3
				c-0.2,0-0.4,0-0.5,0l0.1,1.8c0,0.3-0.2,0.6-0.5,0.6s-0.6-0.2-0.6-0.5l0,0l-0.2-2c0-0.1,0-0.2,0.1-0.3c0.4-0.8,1.4-0.9,2.3-0.6
				c0.9,0.3,1.4,0.9,1.3,1.5c0,0.1,0,0.1-0.1,0.2l-1,1.8C229.8,172.2,229.6,172.3,229.4,172.3"/>
			<path class="st6" d="M228.5,169.6c0.5-0.1,0.9,0,1.3,0.3l-0.8,1.5l-0.3-0.1L228.5,169.6z"/>
			<path class="st4" d="M248.4,174.2h-17.6c-0.3,0-0.6-0.3-0.6-0.6c0-0.3,0.3-0.6,0.6-0.6h17.6c0.3,0,0.6,0.3,0.6,0.6
				C249,174,248.7,174.2,248.4,174.2L248.4,174.2L248.4,174.2z"/>
			<path class="st6" d="M242.1,161.4c1.3,0.3,2,1.5,1.8,2.8c-0.3,1.3-1.5,2-2.8,1.8c-1.1-0.2-1.8-1.2-1.8-2.3
				C239.5,162.2,240.7,161.2,242.1,161.4"/>
			<path class="st4" d="M242.1,166.5c-1.6-0.3-2.6-1.8-2.3-3.3c0.3-1.6,1.8-2.6,3.3-2.3c1.4,0.2,2.4,1.4,2.4,2.8
				C245.4,165.3,243.8,166.6,242.1,166.5 M242.1,161.9c-0.9,0.3-1.5,1.2-1.2,2.2s1.2,1.5,2.2,1.2c0.8-0.2,1.3-0.9,1.3-1.7
				C244.2,162.5,243.2,161.8,242.1,161.9"/>
			<path class="st4" d="M242.5,161.9c-0.3,0-0.6-0.3-0.6-0.6c0-0.1,0-0.2,0.1-0.3l0.9-1.8c0.1-0.3,0.5-0.4,0.8-0.3
				c0.3,0.1,0.4,0.5,0.3,0.8c0,0,0,0,0,0l0,0l-0.9,1.8C242.9,161.8,242.7,161.9,242.5,161.9"/>
			<path class="st4" d="M464.7,330.6c-1.3,0.1-2.5-0.9-2.6-2.2c0,0,0-0.1,0-0.1v-2.6l2.7-5.8c0.8-1.2,2.1-1.4,4-1.3l16.4,0
				c1.7,0,3.6,0,4.3,1.4l2.6,5.7v2.6c0,2.3-3.3,2.8-4.7,1.4c-1.2,1-2.9,1-4.1,0c-1.1,0.9-2.6,1-3.8,0.3c-0.1-0.1-0.2-0.2-0.3-0.3
				c-1.2,1-2.9,1-4.1,0c-1.2,1.1-3,1.1-4.1,0c-1.1,0.9-2.6,1-3.8,0.2c-0.1-0.1-0.2-0.1-0.3-0.2C466.3,330.3,465.5,330.6,464.7,330.6
				 M463.3,325.9v2.3c0,0.9,0.9,1.2,1.5,1.2s1.5-0.2,1.5-1.2h1.2c0,0.8,1,1,1.5,1s1.5-0.2,1.5-1h1.2c0,0.9,0.9,1.1,1.5,1.1
				s1.5-0.2,1.5-1.1h1.2c0,0.8,1,1,1.5,1s1.5-0.2,1.5-1h1.2c0,0.8,1,1,1.5,1s1.5-0.2,1.5-1h1.2c0,0.8,1,1,1.5,1s1.5-0.2,1.5-1h1.2
				c0,0.8,1,1,1.5,1s1.5-0.2,1.5-1v-2.4l-2.4-5.5c-0.3-0.6-1.2-0.8-3.2-0.7l-16.5,0c-1.8,0-2.5,0.2-3,0.8L463.3,325.9z"/>
			<path class="st4" d="M466.8,328.9L466.8,328.9c-0.3,0-0.6-0.3-0.6-0.6l0-2.4c0-0.1,0-0.1,0-0.2l2-6.7c0.1-0.3,0.4-0.5,0.7-0.4
				s0.5,0.4,0.4,0.7l-2,6.6l0,2.4C467.4,328.6,467.1,328.9,466.8,328.9"/>
			<path class="st4" d="M471.5,328.3h-1.2l0-2.6l1.5-6.6l1.1,0.3l-1.5,6.6L471.5,328.3z"/>
			<path class="st4" d="M475.7,328.3h-1.2v-2.5l0.4-6.4l1.2,0.1l-0.4,6.3L475.7,328.3z"/>
			<path class="st4" d="M479.8,328.3h-1.2v-2.5l-0.5-6.4l1.2-0.1l0.5,6.4L479.8,328.3z"/>
			<path class="st4" d="M483.9,328.2l-1.2,0l0-2.4l-1.4-6.3l1.1-0.3l1.4,6.4L483.9,328.2z"/>
			<path class="st4" d="M486.9,328.3l-0.1-2.2l-1.9-6.4l1.1-0.3l2,6.6l0.1,2.3L486.9,328.3z"/>
			<path class="st4" d="M490,340.6h-25.9c-0.3,0-0.6-0.3-0.6-0.6v-9.8c0-0.3,0.3-0.6,0.6-0.6c0.3,0,0.6,0.3,0.6,0.6v9.2H490
				c0.3,0,0.6,0.3,0.6,0.6C490.6,340.3,490.3,340.6,490,340.6L490,340.6z"/>
			<path class="st4" d="M490,347.2c-0.3,0-0.6-0.3-0.6-0.6V330c0-0.3,0.3-0.6,0.6-0.6s0.6,0.3,0.6,0.6v16.6
				C490.6,346.9,490.3,347.2,490,347.2"/>
			<path class="st4" d="M475.3,340.4h-9c-0.3,0-0.6-0.3-0.6-0.6l0,0v-4.5c0-0.3,0.3-0.6,0.6-0.6l0,0h9c0.3,0,0.6,0.3,0.6,0.6l0,0
				v4.5C475.9,340.2,475.7,340.4,475.3,340.4L475.3,340.4 M466.9,339.3h7.8V336h-7.8V339.3z"/>
			<path class="st4" d="M474.8,338.3h-8.3c-0.3,0-0.6-0.3-0.6-0.6c0-0.3,0.3-0.6,0.6-0.6h8.3c0.3,0,0.6,0.3,0.6,0.6
				C475.4,338.1,475.1,338.3,474.8,338.3"/>
			<path class="st4" d="M472.3,350h-9c-0.3,0-0.6-0.3-0.6-0.6l0,0V345c0-0.3,0.3-0.6,0.6-0.6l0,0h9c0.3,0,0.6,0.3,0.6,0.6v4.5
				C472.9,349.8,472.6,350,472.3,350 M463.9,348.9h7.8v-3.3h-7.8L463.9,348.9z"/>
			<path class="st4" d="M471.9,347.8h-8.3c-0.3,0-0.6-0.3-0.6-0.6c0-0.3,0.3-0.6,0.6-0.6l0,0h8.3c0.3,0,0.6,0.3,0.6,0.6
				C472.5,347.5,472.3,347.8,471.9,347.8L471.9,347.8z"/>
			<path class="st4" d="M472.9,335.3c-0.3,0-0.6-0.3-0.6-0.6c0-0.4-0.3-0.7-0.7-0.7s-0.7,0.3-0.7,0.7l0,0v0c0,0.3-0.3,0.6-0.6,0.6
				s-0.6-0.3-0.6-0.6c0-1,0.8-1.8,1.8-1.8c1,0,1.8,0.8,1.8,1.8C473.4,335,473.2,335.3,472.9,335.3"/>
			<path class="st4" d="M471.1,333.9c-0.3,0-0.6-0.3-0.6-0.6c0-0.4-0.3-0.7-0.7-0.7c-0.4,0-0.7,0.3-0.7,0.7c0,0.3-0.3,0.6-0.6,0.6
				c-0.3,0-0.6-0.3-0.6-0.6c0-1,0.8-1.8,1.8-1.8c1,0,1.8,0.8,1.8,1.8l0,0C471.6,333.6,471.4,333.9,471.1,333.9"/>
			<path class="st4" d="M469.8,335.7c-0.3,0-0.6-0.3-0.6-0.6c0-0.4-0.3-0.7-0.7-0.7s-0.7,0.3-0.7,0.7c0,0,0,0,0,0
				c0,0.3-0.3,0.6-0.6,0.6s-0.6-0.3-0.6-0.6l0,0c0-1,0.8-1.8,1.8-1.8c1,0,1.8,0.8,1.8,1.8C470.4,335.4,470.1,335.7,469.8,335.7"/>
			<path class="st4" d="M464.1,343.2c-0.3,0-0.6-0.3-0.6-0.6v-3.3c0-0.3,0.3-0.6,0.6-0.6s0.6,0.3,0.6,0.6v3.3
				C464.7,342.9,464.5,343.2,464.1,343.2"/>
			<path class="st6" d="M469.1,333.4c0.3,0.1,0.6,0.3,0.8,0.6c0.1-0.3,0.3-0.5,0.5-0.7c0-0.4-0.3-0.7-0.7-0.7c0,0,0,0,0,0
				c0,0-0.1,0-0.1,0C469.3,332.7,469.1,333,469.1,333.4"/>
			<path class="st4" d="M464.3,345.5c-0.2,0-0.5-0.2-0.5-0.4l-0.6-1.8c0-0.1,0-0.2,0-0.3c0.2-0.8,1.2-1.1,2.1-1.1
				c0.9,0.1,1.5,0.5,1.6,1.1c0,0.1,0,0.1,0,0.2l-0.5,1.8c-0.1,0.3-0.4,0.5-0.7,0.4c-0.3-0.1-0.5-0.4-0.4-0.7l0.5-1.6
				c-0.2-0.1-0.5-0.1-0.7-0.1c-0.2,0-0.4,0-0.6,0.1l0.5,1.5c0.1,0.3-0.1,0.6-0.4,0.7C464.4,345.5,464.4,345.5,464.3,345.5z"/>
			<path class="st4" d="M471,345.6c-0.3,0-0.6-0.3-0.6-0.6c0-0.1,0-0.2,0.1-0.3l0.9-1.6c-0.2-0.2-0.5-0.2-0.8-0.3
				c-0.2,0-0.4,0-0.5,0l0.1,1.8c0,0.3-0.2,0.6-0.5,0.6s-0.6-0.2-0.6-0.5l0,0l-0.2-2c0-0.1,0-0.2,0.1-0.3c0.4-0.8,1.4-0.9,2.3-0.6
				c0.9,0.3,1.4,0.9,1.3,1.5c0,0.1,0,0.1-0.1,0.2l-1,1.8C471.4,345.5,471.2,345.6,471,345.6"/>
			<path class="st6" d="M470.1,342.8c0.5-0.1,0.9,0,1.3,0.3l-0.8,1.5l-0.3-0.1L470.1,342.8z"/>
			<path class="st4" d="M490,347.5h-17.6c-0.3,0-0.6-0.3-0.6-0.6c0-0.3,0.3-0.6,0.6-0.6H490c0.3,0,0.6,0.3,0.6,0.6
				C490.6,347.3,490.3,347.5,490,347.5L490,347.5z"/>
			<path class="st6" d="M483.7,334.6c1.3,0.3,2,1.5,1.8,2.8s-1.5,2-2.8,1.8c-1.1-0.2-1.8-1.2-1.8-2.3
				C481.1,335.5,482.3,334.5,483.7,334.6"/>
			<path class="st4" d="M483.7,339.7c-1.6-0.3-2.6-1.8-2.3-3.3c0.3-1.6,1.8-2.6,3.3-2.3c1.4,0.2,2.4,1.4,2.4,2.8
				C487,338.6,485.5,339.9,483.7,339.7 M483.7,335.2c-0.9,0.3-1.5,1.2-1.2,2.2c0.3,0.9,1.2,1.5,2.2,1.2c0.8-0.2,1.3-0.9,1.3-1.7
				C485.8,335.8,484.8,335.1,483.7,335.2"/>
			<path class="st4" d="M484.1,335.2c-0.3,0-0.6-0.3-0.6-0.6c0-0.1,0-0.2,0.1-0.3l0.9-1.8c0.1-0.3,0.5-0.4,0.8-0.3
				c0.3,0.1,0.4,0.5,0.3,0.8c0,0,0,0,0,0l0,0l-0.9,1.8C484.5,335.1,484.3,335.2,484.1,335.2"/>
			<path class="st4" d="M192.4,351.3c-1.3,0.1-2.5-0.9-2.6-2.2c0,0,0-0.1,0-0.1v-2.6l2.7-5.8c0.8-1.2,2.1-1.4,4-1.3l16.4,0
				c1.7,0,3.6,0,4.3,1.4l2.6,5.7v2.6c0,2.3-3.3,2.8-4.7,1.4c-1.2,1-2.9,1-4.1,0c-1.1,0.9-2.6,1-3.8,0.3c-0.1-0.1-0.2-0.2-0.3-0.3
				c-1.2,1-2.9,1-4.1,0c-1.2,1.1-3,1.1-4.1,0c-1.1,0.9-2.6,1-3.8,0.2c-0.1-0.1-0.2-0.1-0.3-0.2C194,351.1,193.2,351.4,192.4,351.3
				 M190.9,346.7v2.3c0,0.9,0.9,1.2,1.5,1.2c0.6,0,1.5-0.2,1.5-1.2h1.2c0,0.8,1,1,1.5,1s1.5-0.2,1.5-1h1.2c0,0.9,0.9,1.1,1.5,1.1
				s1.5-0.2,1.5-1.1h1.2c0,0.8,1,1,1.5,1s1.5-0.2,1.5-1h1.2c0,0.8,1,1,1.5,1s1.5-0.2,1.5-1h1.2c0,0.8,1,1,1.5,1s1.5-0.2,1.5-1h1.2
				c0,0.8,1,1,1.5,1s1.5-0.2,1.5-1v-2.4l-2.4-5.5c-0.3-0.6-1.2-0.8-3.2-0.7l-16.5,0c-1.8,0-2.5,0.2-3,0.8L190.9,346.7z"/>
			<path class="st4" d="M194.5,349.7L194.5,349.7c-0.3,0-0.6-0.3-0.6-0.6l0-2.4c0-0.1,0-0.1,0-0.2l2-6.7c0.1-0.3,0.4-0.5,0.7-0.4
				s0.5,0.4,0.4,0.7l0,0l-2,6.6l0,2.4C195,349.4,194.8,349.7,194.5,349.7"/>
			<path class="st4" d="M199.2,349h-1.2l0-2.6l1.5-6.6l1.1,0.3l-1.5,6.6L199.2,349z"/>
			<path class="st4" d="M203.3,349.1h-1.2v-2.5l0.4-6.4l1.2,0.1l-0.4,6.3L203.3,349.1z"/>
			<path class="st4" d="M207.4,349h-1.2v-2.5l-0.5-6.4l1.2-0.1l0.5,6.4L207.4,349z"/>
			<path class="st4" d="M211.5,349l-1.2,0l0-2.4l-1.4-6.3l1.1-0.3l1.4,6.4L211.5,349z"/>
			<path class="st4" d="M214.6,349.1l-0.1-2.2l-1.9-6.4l1.1-0.3l2,6.6l0.1,2.3L214.6,349.1z"/>
			<path class="st4" d="M217.7,361.4h-25.9c-0.3,0-0.6-0.3-0.6-0.6l0,0V351c0-0.3,0.3-0.6,0.6-0.6c0.3,0,0.6,0.3,0.6,0.6v9.2h25.3
				c0.3,0,0.6,0.3,0.6,0.6C218.3,361.1,218,361.4,217.7,361.4L217.7,361.4z"/>
			<path class="st4" d="M217.7,368c-0.3,0-0.6-0.3-0.6-0.6v-16.6c0-0.3,0.3-0.6,0.6-0.6s0.6,0.3,0.6,0.6l0,0v16.6
				C218.2,367.7,218,368,217.7,368"/>
			<path class="st4" d="M203,361.2h-9c-0.3,0-0.6-0.3-0.6-0.6v-4.5c0-0.3,0.3-0.6,0.6-0.6h9c0.3,0,0.6,0.3,0.6,0.6l0,0v4.5
				C203.6,361,203.3,361.2,203,361.2L203,361.2 M194.6,360.1h7.8v-3.3h-7.8V360.1z"/>
			<path class="st4" d="M202.5,359.1h-8.3c-0.3,0-0.6-0.3-0.6-0.6c0-0.3,0.3-0.6,0.6-0.6h8.3c0.3,0,0.6,0.3,0.6,0.6
				C203.1,358.8,202.8,359.1,202.5,359.1"/>
			<path class="st4" d="M200,370.8h-9c-0.3,0-0.6-0.3-0.6-0.6l0,0v-4.5c0-0.3,0.3-0.6,0.6-0.6l0,0h9c0.3,0,0.6,0.3,0.6,0.6
				c0,0,0,0,0,0v4.5C200.5,370.5,200.3,370.8,200,370.8C200,370.8,200,370.8,200,370.8 M191.6,369.6h7.8v-3.3h-7.8V369.6z"/>
			<path class="st4" d="M199.6,368.6h-8.3c-0.3,0-0.6-0.3-0.6-0.6c0-0.3,0.3-0.6,0.6-0.6h8.3c0.3,0,0.6,0.3,0.6,0.6
				C200.2,368.3,199.9,368.6,199.6,368.6L199.6,368.6z"/>
			<path class="st4" d="M200.5,356.1c-0.3,0-0.6-0.3-0.6-0.6c0-0.4-0.3-0.7-0.7-0.7s-0.7,0.3-0.7,0.7v0c0,0.3-0.3,0.6-0.6,0.6
				c-0.3,0-0.6-0.3-0.6-0.6c0-1,0.8-1.8,1.8-1.8c1,0,1.8,0.8,1.8,1.8l0,0C201.1,355.8,200.9,356.1,200.5,356.1"/>
			<path class="st4" d="M198.7,354.7c-0.3,0-0.6-0.3-0.6-0.6c0-0.4-0.3-0.7-0.7-0.7c-0.4,0-0.7,0.3-0.7,0.7c0,0.3-0.3,0.6-0.6,0.6
				c-0.3,0-0.6-0.3-0.6-0.6c0-1,0.8-1.8,1.8-1.8c1,0,1.8,0.8,1.8,1.8l0,0l0,0C199.3,354.4,199.1,354.7,198.7,354.7"/>
			<path class="st4" d="M197.5,356.5c-0.3,0-0.6-0.3-0.6-0.6l0,0c0-0.4-0.3-0.7-0.7-0.7c-0.4,0-0.7,0.3-0.7,0.7
				c0,0.3-0.3,0.6-0.6,0.6c-0.3,0-0.6-0.3-0.6-0.6c0-1,0.8-1.8,1.8-1.8c1,0,1.8,0.8,1.8,1.8C198.1,356.2,197.8,356.5,197.5,356.5"/>
			<path class="st4" d="M191.8,364c-0.3,0-0.6-0.3-0.6-0.6v-3.3c0-0.3,0.3-0.6,0.6-0.6c0.3,0,0.6,0.3,0.6,0.6c0,0,0,0,0,0v3.3
				C192.4,363.7,192.1,364,191.8,364"/>
			<path class="st6" d="M196.8,354.2c0.3,0.1,0.6,0.3,0.8,0.6c0.1-0.3,0.3-0.5,0.5-0.7c0-0.4-0.3-0.7-0.7-0.7c0,0,0,0,0,0
				c0,0-0.1,0-0.1,0C197,353.5,196.8,353.8,196.8,354.2"/>
			<path class="st4" d="M192,366.3c-0.2,0-0.5-0.2-0.5-0.4l-0.6-1.8c0-0.1,0-0.2,0-0.3c0.2-0.8,1.2-1.1,2.1-1.1
				c0.9,0.1,1.5,0.5,1.6,1.1c0,0.1,0,0.1,0,0.2l-0.5,1.8c-0.1,0.3-0.4,0.5-0.7,0.4s-0.5-0.4-0.4-0.7l0.5-1.6
				c-0.2-0.1-0.5-0.1-0.7-0.1c-0.2,0-0.4,0-0.6,0.1l0.5,1.5c0.1,0.3-0.1,0.6-0.4,0.7C192.1,366.3,192,366.3,192,366.3z"/>
			<path class="st4" d="M198.7,366.3c-0.3,0-0.6-0.3-0.6-0.6c0-0.1,0-0.2,0.1-0.3l0.9-1.6c-0.2-0.2-0.5-0.2-0.8-0.3
				c-0.2,0-0.4,0-0.5,0l0.1,1.8c0,0.3-0.2,0.6-0.5,0.6c-0.3,0-0.6-0.2-0.6-0.5l-0.2-2c0-0.1,0-0.2,0.1-0.3c0.4-0.8,1.4-0.9,2.3-0.6
				c0.9,0.3,1.4,0.9,1.3,1.5c0,0.1,0,0.1-0.1,0.2l-1,1.8C199.1,366.2,198.9,366.4,198.7,366.3"/>
			<path class="st6" d="M197.8,363.6c0.5-0.1,0.9,0,1.3,0.3l-0.8,1.5l-0.3-0.1L197.8,363.6z"/>
			<path class="st4" d="M217.7,368.3H200c-0.3,0-0.6-0.3-0.6-0.6c0-0.3,0.3-0.6,0.6-0.6h17.6c0.3,0,0.6,0.3,0.6,0.6
				C218.3,368.1,218,368.3,217.7,368.3L217.7,368.3z"/>
			<path class="st6" d="M211.4,355.4c1.3,0.3,2,1.5,1.8,2.8s-1.5,2-2.8,1.8c-1.1-0.2-1.8-1.2-1.8-2.3
				C208.8,356.3,210,355.3,211.4,355.4"/>
			<path class="st4" d="M211.4,360.5c-1.6-0.3-2.6-1.8-2.3-3.3c0.3-1.6,1.8-2.6,3.3-2.3c1.4,0.2,2.4,1.4,2.4,2.8
				C214.7,359.4,213.1,360.7,211.4,360.5 M211.4,356c-0.9,0.3-1.5,1.2-1.2,2.2c0.3,0.9,1.2,1.5,2.2,1.2c0.8-0.2,1.3-0.9,1.3-1.7
				C213.5,356.6,212.5,355.9,211.4,356"/>
			<path class="st4" d="M211.8,356c-0.3,0-0.6-0.3-0.6-0.6c0-0.1,0-0.2,0.1-0.3l0.9-1.8c0.1-0.3,0.5-0.4,0.8-0.2
				c0.3,0.1,0.4,0.5,0.3,0.7l0,0l-0.9,1.8C212.2,355.9,212,356,211.8,356"/>
			<path class="st4" d="M62.6,213.8c-1.7,0.2-3.2-1.1-3.3-2.8c0,0,0-0.1,0-0.1v-3.3l3.4-7.3c1.1-1.5,2.6-1.7,5-1.7l20.6,0
				c2.1-0.1,4.5,0,5.3,1.7l3.2,7.1v3.3c0,2.9-4.1,3.5-5.8,1.8c-1.5,1.2-3.6,1.2-5.1,0c-1.4,1.2-3.3,1.3-4.8,0.4
				c-0.1-0.1-0.3-0.2-0.4-0.3c-1.5,1.2-3.6,1.3-5.1,0c-1.5,1.3-3.7,1.3-5.2,0c-1.4,1.1-3.3,1.2-4.7,0.3c-0.1-0.1-0.2-0.2-0.3-0.3
				C64.6,213.5,63.6,213.8,62.6,213.8 M60.8,208v2.9c0,1.1,1.2,1.5,1.9,1.5s1.9-0.3,1.9-1.5h1.5c0,1,1.2,1.3,1.9,1.3
				c0.6,0,1.8-0.3,1.8-1.3h1.5c0,1.1,1.2,1.4,1.8,1.4c0.7,0,1.8-0.3,1.8-1.4h1.4c0,1,1.2,1.3,1.9,1.3c0.6,0,1.9-0.3,1.9-1.3h1.4
				c0,1,1.2,1.3,1.9,1.3c0.6,0,1.9-0.3,1.9-1.3h1.4c0,1,1.2,1.2,1.9,1.2s1.9-0.3,1.9-1.2h1.4c0,1,1.2,1.3,1.8,1.3s1.8-0.3,1.8-1.3
				v-3l-3.1-6.8c-0.3-0.7-1.5-1-4-0.9l-20.6,0c-2.2-0.1-3.2,0.2-3.8,1L60.8,208z"/>
			<path class="st4" d="M65.2,211.7L65.2,211.7c-0.4,0-0.7-0.3-0.7-0.7l0-3.1c0-0.1,0-0.1,0-0.2l2.5-8.4c0.1-0.4,0.5-0.6,0.9-0.5
				c0.4,0.1,0.6,0.5,0.5,0.9l0,0l-2.5,8.3l0,3C65.9,211.4,65.6,211.7,65.2,211.7"/>
			<path class="st4" d="M71.1,210.9l-1.5,0l0-3.2l1.9-8.3l1.4,0.3l-1.9,8.2L71.1,210.9z"/>
			<path class="st4" d="M76.3,211h-1.4v-3.2l0.6-8l1.4,0.1l-0.6,8L76.3,211z"/>
			<path class="st4" d="M81.4,210.9H80v-3.1l-0.6-8l1.4-0.1l0.6,8.1L81.4,210.9z"/>
			<path class="st4" d="M86.6,210.9l-1.5,0l0-3l-1.8-7.9l1.4-0.3l1.8,8L86.6,210.9z"/>
			<path class="st4" d="M90.4,211l-0.1-2.8l-2.4-8.1l1.4-0.4l2.5,8.3l0.1,2.9L90.4,211z"/>
			<path class="st4" d="M94.3,226.4H61.9c-0.4,0-0.7-0.3-0.7-0.7l0,0v-12.2c0-0.4,0.3-0.7,0.7-0.7c0.4,0,0.7,0.3,0.7,0.7v11.5h31.7
				c0.4,0,0.7,0.3,0.7,0.7C95,226,94.7,226.4,94.3,226.4L94.3,226.4z"/>
			<path class="st4" d="M94.3,234.7c-0.4,0-0.7-0.3-0.7-0.7l0,0v-20.9c0-0.4,0.3-0.7,0.7-0.7s0.7,0.3,0.7,0.7V234
				C95,234.4,94.7,234.7,94.3,234.7L94.3,234.7"/>
			<path class="st4" d="M75.9,226.2H64.6c-0.4,0-0.7-0.3-0.7-0.7l0,0v-5.6c0-0.4,0.3-0.7,0.7-0.7h11.3c0.4,0,0.7,0.3,0.7,0.7l0,0
				v5.6C76.6,225.9,76.3,226.2,75.9,226.2C75.9,226.2,75.9,226.2,75.9,226.2 M65.4,224.7h9.8v-4.1h-9.8L65.4,224.7z"/>
			<path class="st4" d="M75.2,223.5H64.8c-0.4,0-0.7-0.3-0.7-0.7s0.3-0.7,0.7-0.7h10.4c0.4,0,0.7,0.3,0.7,0.7
				C76,223.2,75.6,223.5,75.2,223.5"/>
			<path class="st4" d="M72.1,238.2H60.8c-0.4,0-0.7-0.3-0.7-0.7v-5.6c0-0.4,0.3-0.7,0.7-0.7c0,0,0,0,0,0h11.3
				c0.4,0,0.7,0.3,0.7,0.7l0,0v5.6C72.8,237.9,72.5,238.2,72.1,238.2 M61.5,236.7h9.8v-4.1h-9.8L61.5,236.7z"/>
			<path class="st4" d="M71.6,235.4H61.2c-0.4,0-0.7-0.3-0.7-0.7c0-0.4,0.3-0.7,0.7-0.7h10.4c0.4,0,0.7,0.3,0.7,0.7
				C72.4,235.1,72,235.4,71.6,235.4L71.6,235.4z"/>
			<path class="st4" d="M72.8,219.8c-0.4,0-0.7-0.3-0.7-0.7l0,0c0-0.5-0.3-0.9-0.8-0.9c-0.5,0-0.9,0.3-0.9,0.8c0,0,0,0,0,0v0
				c0,0.4-0.3,0.7-0.7,0.7c-0.4,0-0.7-0.3-0.7-0.7c0-1.3,1-2.3,2.3-2.3c1.3,0,2.3,1,2.3,2.3C73.5,219.4,73.2,219.8,72.8,219.8
				L72.8,219.8"/>
			<path class="st4" d="M70.5,218c-0.4,0-0.7-0.3-0.7-0.7c0-0.5-0.4-0.8-0.9-0.8c-0.4,0-0.8,0.4-0.8,0.8c0,0.4-0.3,0.7-0.7,0.7
				c-0.4,0-0.7-0.3-0.7-0.7l0,0c0-1.3,1-2.3,2.3-2.3c1.3,0,2.3,1,2.3,2.3l0,0C71.3,217.6,70.9,218,70.5,218"/>
			<path class="st4" d="M69,220.3c-0.4,0-0.7-0.3-0.7-0.7l0,0c0-0.5-0.4-0.8-0.9-0.8c-0.4,0-0.8,0.4-0.8,0.8c0,0.4-0.3,0.7-0.7,0.7
				c-0.4,0-0.7-0.3-0.7-0.7c0-1.3,1-2.3,2.3-2.3c1.3,0,2.3,1,2.3,2.3C69.7,219.9,69.4,220.3,69,220.3L69,220.3"/>
			<path class="st4" d="M61.9,229.6c-0.4,0-0.7-0.3-0.7-0.7l0,0v-4.1c0-0.4,0.3-0.7,0.7-0.7c0.4,0,0.7,0.3,0.7,0.7v4.1
				C62.6,229.3,62.3,229.6,61.9,229.6L61.9,229.6"/>
			<path class="st6" d="M68.1,217.4c0.4,0.1,0.8,0.4,1,0.7c0.2-0.3,0.4-0.6,0.7-0.8c0-0.5-0.4-0.8-0.8-0.8c0,0,0,0,0,0
				c0,0-0.1,0-0.1,0C68.4,216.5,68.1,216.9,68.1,217.4"/>
			<path class="st4" d="M62.1,232.6c-0.3,0-0.6-0.2-0.7-0.5l-0.8-2.3c0-0.1-0.1-0.3,0-0.4c0.2-1,1.5-1.4,2.6-1.3
				c1.2,0.1,1.9,0.6,2,1.4c0,0.1,0,0.2,0,0.3l-0.7,2.3c-0.1,0.4-0.5,0.6-0.9,0.5c-0.4-0.1-0.6-0.5-0.5-0.9l0.6-2
				c-0.3-0.1-0.6-0.2-0.9-0.1c-0.2,0-0.5,0.1-0.7,0.2l0.7,1.9c0.1,0.4-0.1,0.8-0.4,0.9c0,0,0,0,0,0
				C62.2,232.6,62.2,232.6,62.1,232.6z"/>
			<path class="st4" d="M70.5,232.6c-0.4,0-0.7-0.3-0.7-0.7c0-0.1,0-0.2,0.1-0.3l1.1-2c-0.3-0.2-0.6-0.3-0.9-0.4c-0.2,0-0.5,0-0.7,0
				l0.2,2.2c0,0.4-0.2,0.8-0.6,0.8s-0.8-0.2-0.8-0.6c0,0,0,0,0-0.1l-0.2-2.6c0-0.1,0-0.3,0.1-0.4c0.5-1,1.8-1.1,2.9-0.7
				c1.1,0.3,1.8,1.1,1.6,1.9c0,0.1,0,0.2-0.1,0.2l-1.2,2.2C71,232.5,70.7,232.6,70.5,232.6"/>
			<path class="st6" d="M69.3,229.2c0.6-0.2,1.2,0,1.6,0.4l-1,1.9l-0.4-0.1L69.3,229.2z"/>
			<path class="st4" d="M94.3,235.1H72.2c-0.4,0-0.7-0.3-0.7-0.7c0-0.4,0.3-0.7,0.7-0.7h22.1c0.4,0,0.7,0.3,0.7,0.7
				C95,234.8,94.7,235.1,94.3,235.1L94.3,235.1L94.3,235.1z"/>
			<path class="st6" d="M86.4,218.9c1.9,0,3.5,1.3,3.5,2.8s-1.6,2.8-3.5,2.8c-1.9,0-3.5-1.3-3.5-2.8S84.5,218.9,86.4,218.9"/>
			<path class="st4" d="M86.4,225.3c-2.3,0-4.3-1.6-4.3-3.6s1.9-3.6,4.3-3.6s4.3,1.6,4.3,3.6S88.8,225.3,86.4,225.3 M86.4,219.6
				c-1.5,0-2.8,1-2.8,2.1s1.3,2.1,2.8,2.1s2.8-1,2.8-2.1S88,219.6,86.4,219.6"/>
			<path class="st4" d="M86.9,219.6c-0.4,0-0.7-0.3-0.7-0.7c0-0.1,0-0.2,0.1-0.3l1.1-2.3c0.2-0.4,0.6-0.5,1-0.3
				c0.4,0.2,0.5,0.6,0.3,1l0,0l0,0l-1.1,2.3C87.4,219.5,87.2,219.6,86.9,219.6"/>
			<rect x="345.4" y="68.7" class="st7" width="11.8" height="27.3"/>
			<path class="st4" d="M369.9,67.5h-39.6V56h39.6V67.5z M331.5,66.3h37.1v-9h-37.1V66.3z"/>
			<path class="st4" d="M358.1,96.9H345V68.3h13.1L358.1,96.9z M346.3,95.7h10.6V69.5h-10.6V95.7z"/>
			<path class="st4" d="M346.2,96.9h-14V68.3h14V96.9z M333.4,95.7H345V69.5h-11.6V95.7z"/>
			<path class="st4" d="M368.2,96.9h-11.5V68.3h11.5V96.9z M358,95.7h9V69.5h-9V95.7z"/>
			<path class="st4" d="M344.2,74.4h-9.7v-3.6h9.7L344.2,74.4z M335.7,73.1h7.2V72h-7.2V73.1z"/>
			<path class="st4" d="M338.1,80.8h-3.6V75h3.6V80.8z M335.8,79.6h1.1v-3.3h-1.1V79.6z"/>
			<path class="st4" d="M338.1,88.1h-3.6v-5.8h3.6V88.1z M335.8,86.9h1.1v-3.3h-1.1V86.9z"/>
			<path class="st4" d="M338.1,95h-3.6v-5.8h3.6V95z M335.8,93.8h1.1v-3.3h-1.1V93.8z"/>
			<path class="st4" d="M344.1,80.8h-3.6V75h3.6V80.8z M341.7,79.6h1.1v-3.3h-1.1V79.6z"/>
			<path class="st4" d="M344.1,88.1h-3.6v-5.8h3.6V88.1z M341.7,86.9h1.1v-3.3h-1.1V86.9z"/>
			<path class="st4" d="M344.1,95h-3.6v-5.8h3.6V95z M341.7,93.8h1.1v-3.3h-1.1V93.8z"/>
			<rect x="357.3" y="86.4" class="st4" width="10.4" height="1.2"/>
			<rect x="357.3" y="88" class="st4" width="10.4" height="1.2"/>
			<rect x="359.3" y="70.9" class="st4" width="6" height="1.2"/>
			<rect x="359.3" y="72.9" class="st4" width="6" height="1.2"/>
			<rect x="359.3" y="75.1" class="st4" width="6" height="1.2"/>
			<rect x="359.3" y="77.3" class="st4" width="6" height="1.2"/>
			<rect x="359.3" y="79.4" class="st4" width="6" height="1.2"/>
			<rect x="363.6" y="68.9" class="st4" width="0.4" height="11.4"/>
			<rect x="359.9" y="68.9" class="st4" width="0.4" height="11.4"/>
			<rect x="335.8" y="66.8" class="st4" width="1.7" height="2.2"/>
			<rect x="362.9" y="66.8" class="st4" width="1.7" height="2.2"/>
			<rect x="335.6" y="60.9" class="st4" width="30" height="1.7"/>
			<rect x="148.6" y="258" class="st7" width="12.7" height="29.3"/>
			<path class="st4" d="M174.9,256.7h-42.5v-12.3h42.5L174.9,256.7z M133.7,255.4h39.9v-9.7h-39.9L133.7,255.4z"/>
			<path class="st4" d="M162.2,288.3h-14v-30.8h14V288.3z M149.5,287h11.4v-28.1h-11.4V287z"/>
			<path class="st4" d="M149.4,288.3h-15.1v-30.8h15.1V288.3z M135.7,287h12.4v-28.1h-12.4V287z"/>
			<path class="st4" d="M173.1,288.3h-12.3v-30.8h12.3V288.3z M162.1,287h9.7v-28.1h-9.7L162.1,287z"/>
			<path class="st4" d="M147.3,264.1h-10.4v-3.9h10.4V264.1z M138.2,262.7h7.8v-1.2h-7.8V262.7z"/>
			<path class="st4" d="M140.8,271h-3.9v-6.2h3.9V271z M138.2,269.7h1.2v-3.5h-1.2V269.7z"/>
			<path class="st4" d="M140.8,278.8h-3.9v-6.2h3.9V278.8z M138.2,277.5h1.2V274h-1.2V277.5z"/>
			<path class="st4" d="M140.8,286.3h-3.9v-6.2h3.9V286.3z M138.2,284.9h1.2v-3.5h-1.2V284.9z"/>
			<path class="st4" d="M147.2,271h-3.9v-6.2h3.9V271z M144.6,269.7h1.2v-3.5h-1.2V269.7z"/>
			<path class="st4" d="M147.2,278.8h-3.9v-6.2h3.9V278.8z M144.6,277.5h1.2V274h-1.2V277.5z"/>
			<path class="st4" d="M147.2,286.3h-3.9v-6.2h3.9V286.3z M144.6,284.9h1.2v-3.5h-1.2V284.9z"/>
			<rect x="161.4" y="277" class="st4" width="11.1" height="1.3"/>
			<rect x="161.4" y="278.7" class="st4" width="11.1" height="1.3"/>
			<rect x="163.5" y="260.3" class="st4" width="6.4" height="1.3"/>
			<rect x="163.5" y="262.5" class="st4" width="6.4" height="1.3"/>
			<rect x="163.5" y="264.9" class="st4" width="6.4" height="1.3"/>
			<rect x="163.5" y="267.2" class="st4" width="6.4" height="1.3"/>
			<rect x="163.5" y="269.5" class="st4" width="6.4" height="1.3"/>
			<rect x="168.1" y="258.2" class="st4" width="0.4" height="12.2"/>
			<rect x="164.2" y="258.2" class="st4" width="0.4" height="12.2"/>
			<rect x="138.2" y="256" class="st4" width="1.8" height="2.4"/>
			<rect x="167.4" y="256" class="st4" width="1.8" height="2.4"/>
			<rect x="138.1" y="249.6" class="st4" width="32.2" height="1.8"/>
			<rect x="363.9" y="372.3" class="st7" width="11.8" height="27.3"/>
			<path class="st4" d="M388.4,371.2h-39.6v-11.5h39.6V371.2z M350.1,369.9h37.1v-9h-37.1V369.9z"/>
			<path class="st4" d="M376.7,400.6h-13.1v-28.7h13.1V400.6z M364.8,399.3h10.6v-26.2h-10.6V399.3z"/>
			<path class="st4" d="M364.8,400.6h-14v-28.7h14V400.6z M352,399.3h11.6v-26.2H352V399.3z"/>
			<path class="st4" d="M386.8,400.6h-11.5v-28.7h11.5V400.6z M376.5,399.3h9v-26.2h-9V399.3z"/>
			<path class="st4" d="M362.8,378H353v-3.6h9.7V378z M354.3,376.8h7.2v-1.1h-7.2V376.8z"/>
			<path class="st4" d="M356.7,384.5h-3.6v-5.8h3.6V384.5z M354.3,383.2h1.1v-3.3h-1.1V383.2z"/>
			<path class="st4" d="M356.7,391.8h-3.6V386h3.6V391.8z M354.3,390.5h1.1v-3.3h-1.1V390.5z"/>
			<path class="st4" d="M356.7,398.7h-3.6v-5.8h3.6V398.7z M354.3,397.4h1.1v-3.3h-1.1V397.4z"/>
			<path class="st4" d="M362.7,384.5H359v-5.8h3.6V384.5z M360.3,383.2h1.1v-3.3h-1.1V383.2z"/>
			<path class="st4" d="M362.7,391.8H359V386h3.6V391.8z M360.3,390.5h1.1v-3.3h-1.1V390.5z"/>
			<path class="st4" d="M362.7,398.7H359v-5.8h3.6V398.7z M360.3,397.4h1.1v-3.3h-1.1V397.4z"/>
			<rect x="375.9" y="390" class="st4" width="10.4" height="1.2"/>
			<rect x="375.9" y="391.6" class="st4" width="10.4" height="1.2"/>
			<rect x="377.8" y="374.5" class="st4" width="6" height="1.2"/>
			<rect x="377.8" y="376.6" class="st4" width="6" height="1.2"/>
			<rect x="377.8" y="378.8" class="st4" width="6" height="1.2"/>
			<rect x="377.8" y="380.9" class="st4" width="6" height="1.2"/>
			<rect x="377.8" y="383.1" class="st4" width="6" height="1.2"/>
			<rect x="382.2" y="372.5" class="st4" width="0.4" height="11.4"/>
			<rect x="378.5" y="372.5" class="st4" width="0.4" height="11.4"/>
			<rect x="354.3" y="370.5" class="st4" width="1.7" height="2.2"/>
			<rect x="381.4" y="370.5" class="st4" width="1.7" height="2.2"/>
			<rect x="354.2" y="364.5" class="st4" width="30" height="1.7"/>
			<path class="st8" d="M185,101c1.1,0.8,2.2,1.7,3.1,2.7"/>
			<path class="st9" d="M193.1,109.6c8.8,12.5,21.4,41.1,19.3,101.5"/>
			<path class="st8" d="M212.2,215c-0.1,1.4-0.1,2.7-0.2,4.1"/>
			<path class="st8" d="M305.7,241.2c1.2-0.7,2.4-1.3,3.7-1.9"/>
			<path class="st10" d="M317,236.3c19.9-6.3,62-9,91.7,63.1c30.5,74.1,66,74.2,81.2,70"/>
			<path class="st8" d="M493.7,368c1.3-0.5,2.5-1.1,3.7-1.8"/>
			<path class="st8" d="M129.9,368.4c-0.7-1.2-1.3-2.4-1.9-3.7"/>
			<path class="st11" d="M125.2,356.7c-3.2-13-1.9-33.4,32.9-42.2c38.3-9.7,56-21.2,63.6-28.8"/>
			<path class="st8" d="M224.6,282.6c0.9-1.1,1.6-2.2,2.2-3.5"/>
			<path class="st7" d="M254.8,272.8c0,2.1-1.7,3.9-3.9,3.9s-3.9-1.7-3.9-3.9s1.7-3.9,3.9-3.9c0,0,0,0,0,0
				C253.1,268.9,254.8,270.6,254.8,272.8C254.8,272.8,254.8,272.8,254.8,272.8"/>
			<path class="st7" d="M306.5,272.8c0,2.2-1.8,4-4,4s-4-1.8-4-4s1.8-4,4-4S306.5,270.5,306.5,272.8"/>
			<path class="st4" d="M202.2,226.6c-2.6,1.5-5,2.8-7.4,4.2c-0.5,0.3-0.7,0.3-0.9-0.2c-1-1.9-2.1-3.7-3.1-5.6
				c-0.2-0.4-0.3-0.5,0.2-0.8c15.3-8.7,30.7-17.4,46-26.1c0.4-0.2,0.6-0.3,0.8,0.3c0.2-0.4,0.4-0.6,0.8-0.3
				c15.3,8.7,30.6,17.4,45.9,26c0.5,0.3,0.6,0.5,0.3,1c-1.1,1.8-2.1,3.7-3.1,5.5c-0.2,0.4-0.4,0.5-0.8,0.2c-1.3-0.8-2.5-1.5-3.8-2.2
				c-0.2-0.1-0.4-0.2-0.6-0.3v0.7c0,7.8,0,15.5,0,23.3c0,0.5-0.1,0.7-0.7,0.7c-1.3,0-2.6,0-3.8,0c-0.5,0-0.6-0.1-0.6-0.6
				c0-4.2,0-8.5,0-12.8c0-4.6,0-9.1,0-13.7c0.1-0.4-0.1-0.7-0.5-0.9c-10.9-6.1-21.7-12.3-32.6-18.5c-0.2-0.2-0.6-0.2-0.8,0
				c-9.8,5.6-19.7,11.2-29.5,16.7c-0.3,0.2-0.5,0.5-0.4,0.9c0,17.3,0,34.6,0,51.8c0,0.6-0.1,0.7-0.7,0.7c-1.2,0-2.5-0.1-3.7,0
				c-0.6,0-0.7-0.2-0.7-0.7c0-5.6,0-11.2,0-16.8L202.2,226.6L202.2,226.6z"/>
			<path class="st4" d="M257.3,231.4c2.4,0,4.8,0,7.2,0c0.4,0,0.6,0,0.6,0.5c0,3.5,0,7,0,10.6c0,0.5-0.2,0.5-0.6,0.5
				c-4.9,0-9.7,0-14.6,0c-0.5,0-0.6-0.1-0.6-0.6c0-3.5,0-7,0-10.5c0-0.4,0.1-0.5,0.5-0.5C252.4,231.4,254.9,231.4,257.3,231.4"/>
			<path class="st4" d="M257.3,244.7c2.4,0,4.9,0,7.3,0c0.5,0,0.6,0.1,0.6,0.6c0,3.5,0,7,0,10.5c0,0.5-0.1,0.5-0.6,0.5
				c-4.9,0-9.7,0-14.6,0c-0.5,0-0.6-0.1-0.6-0.6c0-3.5,0-7,0-10.4c0-0.5,0.2-0.6,0.7-0.6C252.5,244.7,254.9,244.7,257.3,244.7
				L257.3,244.7z"/>
			<path class="st4" d="M239.2,231.4c2.4,0,4.9,0,7.3,0c0.4,0,0.6,0.1,0.6,0.6c0,3.5,0,7,0,10.5c0,0.5-0.1,0.6-0.6,0.6
				c-4.8,0-9.7,0-14.5,0c-0.5,0-0.6-0.1-0.6-0.6c0-3.5,0-7,0-10.6c0-0.4,0.1-0.5,0.5-0.5C234.4,231.4,236.8,231.4,239.2,231.4"/>
			<path class="st7" d="M239.2,256.3c-2.4,0-4.8,0-7.2,0c-0.4,0-0.6-0.1-0.6-0.6c0-3.5,0-7,0-10.5c0-0.4,0.1-0.6,0.6-0.6
				c4.9,0,9.7,0,14.6,0c0.4,0,0.5,0.1,0.5,0.5c0,3.5,0,7.1,0,10.6c0,0.4-0.1,0.5-0.5,0.5C244.2,256.3,241.7,256.3,239.2,256.3"/>
			<path class="st4" d="M316.1,276.1c-1.9,0-3.8,0-5.6,0c-0.3,0-0.4,0.2-0.5,0.4c-2,4.1-7.1,5.8-11.2,3.8c-1.6-0.8-3-2.1-3.8-3.8
				c-0.1-0.3-0.4-0.4-0.7-0.4c-11.7,0-23.4,0-35.1,0c-0.3,0-0.6,0.1-0.7,0.4c-2.1,4.1-7.1,5.8-11.2,3.7c-1.6-0.8-2.9-2.1-3.7-3.7
				c-0.1-0.3-0.4-0.5-0.7-0.4c-1.6,0-3.2,0-4.7,0c-0.4,0-0.5-0.1-0.5-0.5c0-3.9,0-7.8,0-11.7c0-0.5,0.3-0.5,0.6-0.5
				c12.6,0,25.1,0,37.7,0c2.4,0,4.7,0,7.1,0c0.5,0,0.6-0.1,0.6-0.6c0-7.9,0-15.9,0-23.8c0-0.6,0.1-0.7,0.7-0.7c5.5,0,11.1,0,16.6,0
				c0.4,0,0.7,0.1,1,0.4c3.8,4.6,7.7,9.2,11.5,13.8c0.2,0.3,0.3,0.6,0.3,0.9c0,3.1,0,6.2,0,9.2c0,0.6,0.2,0.8,0.7,0.7
				c0.6,0,1.1,0,1.7,0L316.1,276.1z M300,242.5c-0.2-0.2-0.5-0.4-0.8-0.4c-3.8,0-7.6,0-11.3,0c-0.4,0-0.5,0.1-0.5,0.5
				c0,6.7,0,13.5,0,20.2c0,0.4,0.1,0.5,0.5,0.5c7.1,0,14.3,0,21.4,0c0.4,0,0.5-0.1,0.5-0.5c0-1.4,0-2.8,0-4.2c0-0.5-0.1-0.7-0.7-0.7
				c-6.1,0-12.2,0-18.3,0c-0.5,0-0.6-0.1-0.6-0.6c0-4,0-8,0-12c0-0.5,0.1-0.7,0.7-0.7c3.6,0,7.2,0,11,0
				C301.2,244,300.6,243.3,300,242.5 M257.3,267.3c1.1,1.2,1.7,2.7,1.9,4.3c0.1,0.6,0.3,0.7,0.8,0.7c11.1,0,22.2,0,33.3,0
				c0.1,0,0.3,0,0.4,0c0.3,0,0.4-0.1,0.4-0.4c0.2-1.7,0.9-3.3,2-4.6L257.3,267.3z M309.3,255.5c0.2,0,0.5,0.1,0.6-0.2
				c0.1-0.4,0-0.9-0.2-1.2c-1.8-2.1-3.5-4.2-5.3-6.4c-0.2-0.2-0.4-0.3-0.7-0.3c-3.4,0-6.9,0-10.3,0c-0.4,0-0.5,0.1-0.5,0.5
				c0,2.3,0,4.7,0,7c0,0.5,0.1,0.6,0.6,0.6c2.6,0,5.3,0,7.9,0C304,255.5,306.6,255.5,309.3,255.5 M305.7,272.8
				c0-1.8-1.4-3.3-3.2-3.3s-3.3,1.4-3.3,3.2s1.4,3.3,3.2,3.3c0,0,0,0,0,0C304.2,276.1,305.6,274.7,305.7,272.8
				C305.7,272.9,305.7,272.9,305.7,272.8 M247.8,272.8c0,1.8,1.4,3.2,3.2,3.3c1.8,0,3.2-1.4,3.3-3.2c0-1.8-1.4-3.2-3.2-3.3
				C249.3,269.6,247.8,271,247.8,272.8C247.8,272.8,247.8,272.8,247.8,272.8 M310.1,269.5c0.3,0.8,0.6,1.6,0.6,2.5
				c0,0.2,0.2,0.3,0.4,0.3c0.3,0,0.5,0,0.8,0c0.3,0,0.3-0.1,0.3-0.4c0-1.4,0-2.8,0-4.2c0-0.3-0.1-0.4-0.4-0.4c-1,0-2,0-3.1,0
				C309.3,268,309.7,268.7,310.1,269.5 M241.8,267.3c-0.4,0-0.4,0.1-0.4,0.4c0,1.3,0,2.6,0,3.8c0,0.6,0.2,0.7,0.8,0.7
				c0.4,0,0.5-0.1,0.6-0.5c0.2-1.7,0.9-3.2,2-4.5C243.6,267.3,242.7,267.3,241.8,267.3"/>
			<path class="st4" d="M221.6,231.4c2.4,0,4.9,0,7.3,0c0.5,0,0.6,0.1,0.6,0.6c0,3.5,0,7,0,10.4c0,0.5-0.1,0.6-0.6,0.6
				c-4.9,0-9.7,0-14.6,0c-0.4,0-0.5-0.1-0.5-0.5c0-3.5,0-7.1,0-10.6c0-0.5,0.2-0.5,0.6-0.5C216.7,231.4,219.1,231.4,221.6,231.4
				 M226.3,240.5c0.4,0,0.6-0.1,0.5-0.5c0-1.8,0-3.6,0-5.4c0-0.4-0.1-0.5-0.5-0.5c-3.2,0-6.4,0-9.6,0c-0.4,0-0.5,0.1-0.5,0.5
				c0,1.8,0,3.6,0,5.4c0,0.5,0.2,0.6,0.6,0.6c1.6,0,3.1,0,4.7,0C223.1,240.5,224.7,240.5,226.3,240.5"/>
			<path class="st4" d="M221.6,256.3c-2.5,0-4.9,0-7.4,0c-0.4,0-0.5-0.1-0.5-0.5c0-3.5,0-7,0-10.6c0-0.5,0.1-0.6,0.6-0.6
				c4.9,0,9.7,0,14.6,0c0.4,0,0.6,0.1,0.6,0.6c0,3.5,0,7,0,10.5c0,0.5-0.2,0.6-0.6,0.6C226.4,256.3,224,256.3,221.6,256.3
				 M226.3,253.7c0.4,0,0.6-0.1,0.6-0.5c0-1.8,0-3.6,0-5.4c0-0.5-0.2-0.6-0.6-0.6c-3.2,0-6.3,0-9.5,0c-0.4,0-0.6,0.1-0.5,0.5
				c0,1.8,0,3.7,0,5.5c0,0.5,0.2,0.5,0.5,0.5c1.6,0,3.2,0,4.7,0S224.7,253.7,226.3,253.7"/>
			<path class="st4" d="M221.5,269.3c-2.4,0-4.8,0-7.2,0c-0.5,0-0.6-0.1-0.6-0.6c0-3.5,0-7,0-10.5c0-0.5,0.1-0.6,0.6-0.6
				c4.9,0,9.7,0,14.6,0c0.4,0,0.6,0.1,0.6,0.6c0,3.5,0,7,0,10.5c0,0.5-0.1,0.6-0.6,0.6C226.4,269.3,224,269.3,221.5,269.3
				 M216.8,260.2c-0.4,0-0.5,0.1-0.5,0.5c0,1.8,0,3.7,0,5.5c0,0.4,0.1,0.5,0.5,0.5c3.2,0,6.4,0,9.5,0c0.4,0,0.6-0.1,0.5-0.5
				c0-1.8,0-3.7,0-5.5c0-0.4-0.1-0.5-0.5-0.5c-1.6,0-3.2,0-4.8,0S218.4,260.3,216.8,260.2"/>
		</g>
	</g>
</g>
</svg>
