<?xml version="1.0" encoding="utf-8"?>
<!-- Generator: Adobe Illustrator 26.5.0, SVG Export Plug-In . SVG Version: 6.00 Build 0)  -->
<svg version="1.1" id="Layer_1" xmlns="http://www.w3.org/2000/svg" xmlns:xlink="http://www.w3.org/1999/xlink" x="0px" y="0px"
	 viewBox="0 0 600 560" style="enable-background:new 0 0 600 560;" xml:space="preserve">
<style type="text/css">
	.st0{fill:#F1FBFF;}
	.st1{clip-path:url(#SVGID_00000161596044886616715650000002772447238171782325_);}
	.st2{fill:#C2BACC;}
	.st3{fill:#FFFFFF;}
	.st4{fill:#2D2D2D;}
	.st5{fill:#494949;}
	.st6{fill:#353535;}
	.st7{fill:#DFD9E4;}
	.st8{fill:#9C93AA;}
	.st9{fill:#FF403A;}
	.st10{fill:#E22323;}
	.st11{fill:#D61914;}
	.st12{fill:#1E1E1E;}
	.st13{clip-path:url(#SVGID_00000152973086212704502760000014424753179481379238_);}
	.st14{fill:#565656;}
	.st15{clip-path:url(#SVGID_00000070102836829524352600000011062674078335693210_);}
	.st16{fill:#CE996A;}
	.st17{fill:#E2AF7D;}
	.st18{fill:#606060;}
	.st19{fill:#BF8558;}
	.st20{clip-path:url(#SVGID_00000100342905233280250070000013437058758023356089_);}
	.st21{enable-background:new    ;}
	.st22{fill:#221F1F;}
	.st23{clip-path:url(#SVGID_00000062165160456819960320000002952681513429618839_);}
	.st24{fill:#003173;}
	.st25{fill:#E64D17;}
</style>
<g transform="translate(-262.692 -4908.396)">
	<path class="st0" d="M577.9,4948.5c186.7,102.1,259.2,84.1,259.2,225.1s-17.1,144-278.3,255.2s-294.5-193.5-256.6-255.2
		S391.2,4846.4,577.9,4948.5z"/>
	<g transform="translate(344.663 5012.195)">
		<g>
			<defs>
				<rect id="SVGID_1_" x="0" y="0" width="333.6" height="326.3"/>
			</defs>
			<clipPath id="SVGID_00000030471421046318767250000011229209842448854679_">
				<use xlink:href="#SVGID_1_"  style="overflow:visible;"/>
			</clipPath>
			<g style="clip-path:url(#SVGID_00000030471421046318767250000011229209842448854679_);">
				<path class="st2" d="M81.3,325.4l250.1-145.3c2.2-1.3,1.9-3.5-0.6-4.9l-63.4-36.6c-2.5-1.5-6.4-1.6-8.6-0.4L8.7,283.5
					c-2.2,1.3-1.9,3.5,0.6,4.9l63.4,36.6C75.3,326.5,79.1,326.7,81.3,325.4"/>
				<path class="st3" d="M178.6,244.4c-0.3-0.2-0.6-0.3-1-0.3c-0.6,0-1.2,0.2-1.6,0.5c-2.5,1.4-4.5,5.3-4.5,8.7
					c0,1.7,0.5,2.9,1.4,3.4c0.9,0.4,1.9,0.3,2.6-0.2c2.5-1.4,4.5-5.3,4.5-8.7C180,246.1,179.4,244.9,178.6,244.4"/>
				<path class="st3" d="M98.7,250.2c-0.1,0-0.1-0.1-0.2-0.1c-0.2,0-0.3,0.1-0.5,0.1l-5.6,3.3c-0.9,0.7-1.5,1.8-1.5,3
					c-0.1,0.4,0.1,0.8,0.4,1c0.2,0.1,0.5,0,0.7-0.1l5.6-3.3c0.9-0.7,1.5-1.8,1.5-3C99.1,250.8,98.9,250.4,98.7,250.2"/>
				<path class="st4" d="M101.1,284.2c2.5-6.4,6.6-11.7,11.1-14.3c1.6-1,3.5-1.6,5.3-1.6l-4.9-2.9c-0.7,0.3-1.4,0.6-2.1,1
					c-6.2,3.6-11.6,12-13.6,20.9l0,0c0,0.1-0.1,0.2-0.2,0.3l0,0c0,0,0,0,0,0l-8.3,5c0.7,3.1,2.2,5.4,4.4,6.3c0.1,0,0.2,0.1,0.2,0.2
					l7.9,4.6c-1.5-2.5-2.2-5.4-2.1-8.4C98.9,291.6,99.7,287.8,101.1,284.2"/>
				<path class="st3" d="M65.4,273.1c0-0.3,0-0.6,0-0.9l-13-7.5l-2.8,16.7l0,0l-0.7,3.9c-0.2,1.4-1.5,2.3-2.9,2
					c-0.3,0-0.6-0.2-0.8-0.3l-23.9-13.8c-1.9-1.1-3.1-3-3.2-5.2l-0.8-11.9c0-0.4-0.1-1.4-0.1-2.5c-0.1-0.1-0.1-0.3,0-0.4
					c-0.1-3.3-0.3-8-0.3-9.2l-13.2-7.6c0,0.1,0,0.2,0,0.3v26.7c-0.1,1.1,0.3,2.1,1,2.8c0,0,0,0,0,0l61,35.3
					c-0.2-0.6-0.3-1.3-0.3-1.9L65.4,273.1z M15.5,267.3c0.1,0.6-0.2,1.2-0.7,1.5c-0.2,0.1-0.4,0.2-0.6,0.2c-0.3,0-0.5-0.1-0.8-0.2
					l-6.7-3.9c-1-0.7-1.6-1.8-1.6-3v-18c-0.1-0.6,0.2-1.2,0.7-1.5c0.4-0.2,0.9-0.2,1.4,0.1l6.7,3.9c1,0.7,1.6,1.8,1.6,3L15.5,267.3z
					 M63.3,294.9c0.1,0.6-0.2,1.2-0.7,1.5c-0.2,0.1-0.4,0.2-0.6,0.2c-0.3,0-0.5-0.1-0.8-0.2l-6.7-3.9l0,0c-1-0.7-1.6-1.8-1.6-3v-18
					c-0.1-0.6,0.2-1.2,0.7-1.5c0.4-0.2,0.9-0.2,1.4,0.1l6.7,3.9c1,0.7,1.6,1.8,1.6,3L63.3,294.9z"/>
				<path class="st3" d="M82.4,243.3l-4.4-2.5c-0.2-0.1-0.4-0.2-0.6-0.1l-0.1,0c-0.2,0.3-0.4,0.6-0.3,0.9v11.1
					c0,0.8,0.3,1.7,0.9,2.3l0,0c0.2,0.2,0.4,0.4,0.6,0.6l4.4,2.5c0.2,0.1,0.4,0.2,0.6,0.1l0,0c0.3-0.3,0.4-0.6,0.3-1v-11.2
					C83.9,245,83.3,244,82.4,243.3"/>
				<path class="st3" d="M84.5,289.5l6.7-3.9v-4.5l-6.7,3.9V289.5z"/>
				<path class="st5" d="M8.6,222.4l56.2,32.5L76,213.4l-56.2-32.5L8.6,222.4z"/>
				<path class="st6" d="M79.4,238.7c0.3,0,0.7,0.1,1,0.2l4.4,2.5c1.2,0.9,2,2.2,2,3.7v4.3l9.3-5.4c1.9-1.3,3-3.5,3-5.8v-31.3
					c0.1-0.8-0.2-1.7-0.9-2.2c-0.5-0.2-1.2-0.2-1.6,0.2L86.3,211c-1.5,1.1-2.6,2.9-2.9,4.7c-1.1,5-3.8,15.4-6.1,23.9l1.7-0.9
					C79.1,238.7,79.3,238.6,79.4,238.7"/>
				<path class="st7" d="M78.9,215.7c0.8-3.7,3.1-7.2,5.7-8.7l38-22.4c0.2-0.1,0.5-0.2,0.7-0.3L62.2,149c0,0,0,0,0,0
					c0,0-0.1,0-0.1,0c-0.6-0.1-1.2,0-1.7,0.3l-38,22.4c-2.4,1.4-4.5,4.6-5.2,8.1L5.5,223.6c-0.7,2.6-1.2,5.2-1.4,7.8l61.8,35.7
					c0.3-2.6,0.8-5.1,1.4-7.6L78.9,215.7z M78.3,207c0.1-0.2,0.4-0.3,0.7-0.2l0.6,0.3c0.2,0.1,0.3,0.4,0.2,0.7
					c-0.1,0.2-0.4,0.3-0.7,0.2l-0.6-0.3C78.2,207.5,78.1,207.2,78.3,207 M74.8,205c0.1-0.2,0.4-0.3,0.7-0.2c0,0,0,0,0,0l1.1,0.7
					c0.2,0.1,0.3,0.4,0.2,0.7c-0.1,0.2-0.3,0.2-0.4,0.2c-0.1,0-0.2,0-0.2-0.1l-1.1-0.7C74.8,205.6,74.7,205.3,74.8,205 M71.4,203.1
					c0.1-0.2,0.4-0.3,0.7-0.2l1.1,0.7c0.2,0.1,0.3,0.4,0.2,0.7c-0.1,0.2-0.3,0.2-0.4,0.2c-0.1,0-0.2,0-0.2-0.1l-1.1-0.7
					C71.4,203.6,71.3,203.3,71.4,203.1 M68,201.1c0.1-0.2,0.4-0.3,0.7-0.2c0,0,0,0,0,0l1.1,0.7c0.2,0.1,0.3,0.4,0.2,0.7
					c-0.1,0.2-0.4,0.3-0.7,0.2l-1.1-0.7C68,201.6,67.9,201.3,68,201.1C68,201.1,68,201.1,68,201.1 M64.6,199.1
					c0.1-0.2,0.4-0.3,0.7-0.2c0,0,0,0,0,0l1.1,0.7c0.2,0.1,0.3,0.4,0.2,0.7c-0.1,0.2-0.4,0.3-0.7,0.2l-1.1-0.7
					C64.6,199.7,64.5,199.4,64.6,199.1C64.6,199.1,64.6,199.1,64.6,199.1 M61.2,197.2c0.1-0.2,0.4-0.3,0.7-0.2c0,0,0,0,0,0l1.1,0.7
					c0.2,0.1,0.3,0.4,0.2,0.7c-0.1,0.2-0.4,0.3-0.7,0.2l-1.1-0.7C61.1,197.7,61.1,197.4,61.2,197.2 M57.8,195.2
					c0.1-0.2,0.4-0.3,0.7-0.2c0,0,0,0,0,0l1.1,0.7c0.2,0.1,0.3,0.4,0.2,0.7c-0.1,0.2-0.2,0.2-0.4,0.2c-0.1,0-0.2,0-0.2-0.1l-1.1-0.7
					C57.7,195.7,57.7,195.4,57.8,195.2 M54.4,193.2c0.1-0.2,0.4-0.3,0.7-0.2c0,0,0,0,0,0l1.1,0.7c0.2,0.1,0.3,0.4,0.2,0.7
					c-0.1,0.2-0.2,0.2-0.4,0.2c-0.1,0-0.2,0-0.2-0.1l-1.1-0.7C54.3,193.8,54.2,193.5,54.4,193.2C54.4,193.2,54.4,193.2,54.4,193.2
					 M51,191.3c0.1-0.2,0.4-0.3,0.7-0.2c0,0,0,0,0,0l1.1,0.7c0.2,0.1,0.3,0.4,0.2,0.7c-0.1,0.2-0.2,0.2-0.4,0.2
					c-0.1,0-0.2,0-0.2-0.1l-1.1-0.7C50.9,191.8,50.8,191.5,51,191.3 M47.6,189.3c0.1-0.2,0.4-0.3,0.7-0.2l1.1,0.7
					c0.2,0.1,0.3,0.4,0.2,0.7c-0.1,0.2-0.3,0.2-0.4,0.2c-0.1,0-0.2,0-0.2-0.1l-1.1-0.7C47.5,189.8,47.4,189.5,47.6,189.3
					 M44.1,187.3c0.1-0.2,0.4-0.3,0.7-0.2c0,0,0,0,0,0l1.1,0.7c0.2,0.1,0.3,0.4,0.2,0.7c-0.1,0.2-0.2,0.2-0.4,0.2
					c-0.1,0-0.2,0-0.2-0.1l-1.1-0.7C44.1,187.9,44,187.6,44.1,187.3C44.1,187.3,44.1,187.3,44.1,187.3 M40.7,185.3
					c0.1-0.2,0.4-0.3,0.7-0.2l1.1,0.7c0.2,0.1,0.3,0.4,0.2,0.7c0,0,0,0,0,0c-0.1,0.2-0.2,0.2-0.4,0.2c-0.1,0-0.2,0-0.2-0.1l-1.1-0.7
					C40.7,185.9,40.6,185.6,40.7,185.3 M37.3,183.4c0.1-0.2,0.4-0.3,0.7-0.2c0,0,0,0,0,0l1.1,0.7c0.2,0.1,0.3,0.4,0.2,0.7
					c-0.1,0.2-0.4,0.3-0.6,0.2l-1.1-0.7C37.3,183.9,37.2,183.6,37.3,183.4 M33.9,181.4c0.1-0.2,0.4-0.3,0.7-0.2c0,0,0,0,0,0l1.1,0.7
					c0.2,0.1,0.3,0.4,0.2,0.7c-0.1,0.2-0.3,0.2-0.4,0.2c-0.1,0-0.2,0-0.2-0.1l-1.1-0.7C33.9,181.9,33.8,181.6,33.9,181.4
					C33.9,181.4,33.9,181.4,33.9,181.4 M30.5,179.4c0.1-0.2,0.4-0.3,0.7-0.2l1.1,0.7c0.2,0.1,0.3,0.4,0.2,0.7
					c-0.1,0.2-0.3,0.2-0.4,0.2c-0.1,0-0.2,0-0.2-0.1l-1.1-0.7C30.5,180,30.4,179.7,30.5,179.4 M27.1,177.5c0.1-0.2,0.4-0.3,0.7-0.2
					c0,0,0,0,0,0l1.1,0.7c0.2,0.1,0.3,0.4,0.2,0.7c-0.1,0.1-0.2,0.2-0.4,0.2c-0.1,0-0.2,0-0.2-0.1l-1.1-0.7
					C27,178,27,177.7,27.1,177.5C27.1,177.5,27.1,177.5,27.1,177.5 M23.7,175.5c0.1-0.2,0.4-0.3,0.7-0.2c0,0,0,0,0,0l1.1,0.7
					c0.2,0.1,0.3,0.4,0.2,0.7c-0.1,0.2-0.2,0.2-0.4,0.2c-0.1,0-0.2,0-0.2-0.1l-1.1-0.7C23.6,176,23.5,175.7,23.7,175.5
					C23.7,175.5,23.7,175.5,23.7,175.5 M20.8,173.9c0.1-0.2,0.4-0.3,0.7-0.2c0,0,0,0,0,0l0.6,0.3c0.2,0.1,0.3,0.4,0.2,0.7
					c-0.1,0.2-0.4,0.3-0.7,0.2l-0.6-0.3C20.8,174.4,20.7,174.1,20.8,173.9 M65.6,255.8C65.6,255.8,65.5,255.8,65.6,255.8
					c0,0.1,0,0.1,0,0.1c0,0-0.1,0.1-0.1,0.1c0,0,0,0-0.1,0.1c-0.1,0.1-0.2,0.1-0.3,0.1l0,0l0,0l0,0c0,0-0.1,0-0.1,0c0,0-0.1,0-0.1,0
					c0,0,0,0,0,0l-57.1-33l0,0c0,0-0.1,0-0.1-0.1c0,0,0,0-0.1-0.1c0,0,0-0.1,0-0.1c0,0,0-0.1,0-0.1c0,0,0-0.1,0-0.1c0,0,0-0.1,0-0.1
					v0L19,180c0,0,0,0,0-0.1c0,0,0,0,0-0.1c0,0,0,0,0,0c0,0,0,0,0.1-0.1c0,0,0.1,0,0.1-0.1c0,0,0,0,0.1,0c0,0,0.1,0,0.1,0
					c0,0,0,0,0.1,0c0,0,0.1,0,0.1,0h0c0,0,0,0,0.1,0c0,0,0,0,0.1,0l57.1,33l0,0c0,0,0,0,0.1,0.1c0,0,0,0,0.1,0.1c0,0,0,0.1,0,0.1
					c0,0,0,0.1,0,0.1c0,0,0,0.1,0,0.1c0,0,0,0.1,0,0.1v0L65.6,255.8z"/>
				<path class="st6" d="M76.1,244.4c-1.3,4.7-2.2,8-2.2,8.1c-0.2,1.4,0,2.7,0.7,3.2c0.5,0.3,1.2,0.3,1.7-0.1l0.5-0.3
					c-0.4-0.7-0.7-1.6-0.7-2.4V244.4z"/>
				<path class="st7" d="M84.3,242.3l-4.4-2.5c-0.2-0.1-0.3-0.2-0.5-0.1l-0.7,0.4l4.2,2.4c1.2,0.9,2,2.2,2,3.7v11.1
					c0,0.1,0,0.1,0,0.2l0.3-0.2c0.4-0.2,0.6-0.6,0.6-1v-11.1C85.7,244,85.2,243,84.3,242.3"/>
				<path class="st2" d="M102.9,272.3v-74.9L85,207.8c-2.4,1.4-4.5,4.6-5.2,8.1l-11.7,43.9c-1.2,4.3-1.7,8.8-1.7,13.3v26.7
					c-0.1,1.1,0.3,2.2,1.2,2.9c0.7,0.3,1.6,0.3,2.2-0.2l14.9-8.8l2.8-1.7l0,0l8.5-5.1C97.3,281.7,99.6,276.7,102.9,272.3
					 M82.4,259.1l-4.4-2.5c-0.2-0.1-0.5-0.3-0.7-0.5l-0.6,0.3c-0.5,0.3-1,0.4-1.5,0.5c-0.4,0-0.9-0.1-1.2-0.4
					c-1-0.7-1.4-2.3-1.1-4.2c0.1-0.3,7.5-27.6,9.5-36.7c0.4-2.2,1.6-4.1,3.4-5.4l10.2-5.9c0.8-0.5,1.8-0.6,2.6-0.2
					c1,0.7,1.5,1.9,1.4,3.1v31.3c0,2.6-1.3,5.1-3.5,6.6l-9.8,5.6v5.7c0,0.7-0.2,1.3-0.8,1.7c0,0.1-0.1,0.1-0.2,0.1l-0.1,0l0,0
					c0,0,0,0,0,0l-1.6,0.9c0,0,0,0,0,0c0,0,0,0-0.1,0l0,0c0,0,0,0,0,0c-0.2,0.1-0.4,0.1-0.6,0.1C83,259.3,82.7,259.2,82.4,259.1
					 M92.2,286c0,0.2-0.1,0.3-0.2,0.4l-7.7,4.4c-0.2,0.1-0.3,0.1-0.5,0c-0.2-0.1-0.2-0.2-0.2-0.4v-5.6c0-0.2,0.1-0.3,0.2-0.4
					l7.7-4.4c0.2-0.1,0.5-0.1,0.7,0.2c0,0.1,0.1,0.2,0.1,0.2L92.2,286z M91.4,258.5c-0.2,0-0.5-0.1-0.7-0.2
					c-0.6-0.4-0.9-1.1-0.9-1.9c0-1.5,0.8-2.9,2-3.8l5.6-3.3c0.5-0.3,1.1-0.4,1.7-0.1c0.6,0.4,0.9,1.1,0.9,1.9c0,1.5-0.8,2.9-2,3.8
					l-5.6,3.3C92.1,258.4,91.7,258.5,91.4,258.5"/>
				<path class="st4" d="M175.4,232.7c1.7-1,3.6-1.6,5.6-1.6l-2-1.1l-27.2,15.7c-0.1,0.5-0.2,0.9-0.3,1.4l3.3,1.9
					c0.1,0.1,0.2,0.1,0.2,0.3c2.9,1.8,4.5,5.7,4.5,10.8c0,1.2-0.1,2.4-0.3,3.7l4.8,2.8c-1.5-2.5-2.2-5.4-2.1-8.3
					C162.1,248.3,168.1,236.9,175.4,232.7"/>
				<path class="st6" d="M154.3,249.8c-0.9-0.5-2-0.8-3.1-0.8c-1.8,0.1-3.5,0.6-5,1.5c-7.1,4.1-12.8,15.1-12.8,24.6
					c0,4.9,1.6,8.6,4.3,10.2c2.2,1.3,5.1,1,8.1-0.7c7.1-4.1,12.8-15.1,12.8-24.6C158.6,255.1,157.1,251.4,154.3,249.8 M146.3,279.5
					c-1.1,0.7-2.4,1.1-3.7,1.1c-0.9,0-1.7-0.2-2.5-0.6c-2.1-1.2-3.2-3.9-3.2-7.4c0-6.5,4-14.2,8.9-17c2.2-1.3,4.4-1.5,6.2-0.5
					c2.1,1.2,3.2,3.9,3.2,7.4C155.2,269.1,151.2,276.7,146.3,279.5"/>
				<path class="st3" d="M117.9,276.2c-0.6-0.3-1.3-0.5-2-0.5c-1.1,0-2.2,0.4-3.2,1c-4.6,2.7-8.4,9.9-8.4,16.1c0,3.2,1,5.6,2.8,6.6
					c1.4,0.8,3.3,0.7,5.2-0.5c4.6-2.7,8.4-9.9,8.4-16.1C120.6,279.6,119.6,277.2,117.9,276.2 M112.5,277.7c0.5-0.3,0.9,0,0.9,0.7
					c0,0.7-0.3,1.3-0.9,1.7c-0.5,0.3-0.9,0-0.9-0.7C111.6,278.8,111.9,278.1,112.5,277.7 M107.1,283.8c0.4-0.7,0.9-1,1.3-0.7
					c0.4,0.3,0.3,1,0,1.7c-0.3,0.7-0.9,1-1.3,0.7C106.8,285.2,106.8,284.4,107.1,283.8 M105.8,292.9c-0.5,0.3-0.9,0-0.9-0.7
					c0-0.7,0.3-1.3,0.9-1.7c0.5-0.3,0.9,0,0.9,0.7C106.7,291.8,106.3,292.5,105.8,292.9 M108.4,297.3c-0.4,0.7-0.9,1-1.3,0.7
					c-0.4-0.3-0.3-1,0-1.7s0.9-1,1.3-0.7C108.7,295.9,108.7,296.6,108.4,297.3 M112.5,297.9c-0.5,0.3-0.9,0-0.9-0.7
					c0-0.7,0.3-1.3,0.9-1.7c0.5-0.3,0.9,0,0.9,0.7C113.3,296.9,113,297.5,112.5,297.9 M112.7,294.6c-0.6,0.4-1.4,0.6-2.1,0.6
					c-0.5,0-1-0.1-1.5-0.4c-1.2-0.7-1.9-2.3-1.9-4.3c0-3.7,2.2-7.9,5-9.5c1.1-0.7,2.5-0.8,3.6-0.2c1.2,0.7,1.9,2.3,1.9,4.3
					C117.7,288.7,115.5,293,112.7,294.6 M117.8,291.9c-0.4,0.7-0.9,1-1.3,0.7c-0.4-0.3-0.3-1,0-1.7s0.9-1,1.3-0.7
					C118.2,290.4,118.2,291.2,117.8,291.9 M117.8,279.3c-0.4,0.7-0.9,1-1.3,0.7c-0.4-0.3-0.3-1,0-1.7s0.9-1,1.3-0.7
					C118.2,277.9,118.2,278.6,117.8,279.3 M119.1,282.8c0.5-0.3,0.9,0,0.9,0.7c0,0.7-0.3,1.3-0.9,1.7c-0.5,0.3-0.9,0-0.9-0.7
					C118.2,283.8,118.6,283.2,119.1,282.8"/>
				<path class="st4" d="M180.1,229.4l4.5,2.5c0.1,0.1,0.2,0.1,0.2,0.3c0.4,0.3,0.9,0.6,1.2,1v-2.1l-4.4-2.6L180.1,229.4z"/>
				<path class="st3" d="M151.4,255.9c-0.6-0.3-1.3-0.5-2-0.5c-1.1,0-2.2,0.4-3.2,1c-4.6,2.7-8.4,9.9-8.4,16.1c0,3.2,1,5.6,2.8,6.6
					c1.4,0.8,3.3,0.7,5.2-0.5c4.6-2.7,8.4-9.9,8.4-16.1C154.2,259.4,153.2,257,151.4,255.9 M146,257.5c0.5-0.3,0.9,0,0.9,0.7
					c0,0.7-0.3,1.3-0.9,1.7c-0.5,0.3-0.9,0-0.9-0.7C145.1,258.5,145.5,257.8,146,257.5 M140.7,263.5c0.4-0.7,0.9-1,1.3-0.7
					s0.3,1,0,1.7s-0.9,1-1.3,0.7C140.3,264.9,140.3,264.2,140.7,263.5 M139.3,272.6c-0.5,0.3-0.9,0-0.9-0.7c0-0.7,0.3-1.3,0.9-1.7
					c0.5-0.3,0.9,0,0.9,0.7C140.2,271.6,139.9,272.2,139.3,272.6 M141.9,277c-0.4,0.7-0.9,1-1.3,0.7c-0.4-0.3-0.3-1,0-1.7
					s0.9-1,1.3-0.7S142.3,276.4,141.9,277 M146,277.6c-0.5,0.3-0.9,0-0.9-0.7c0-0.7,0.3-1.3,0.9-1.7c0.5-0.3,0.9,0,0.9,0.7
					C146.9,276.6,146.6,277.2,146,277.6 M146.3,274.3c-0.6,0.4-1.4,0.6-2.1,0.6c-0.5,0-1-0.1-1.5-0.4c-1.2-0.7-1.9-2.3-1.9-4.3
					c0-3.7,2.2-7.9,5-9.5c1.1-0.7,2.4-0.8,3.6-0.3c1.2,0.7,1.9,2.3,1.9,4.3C151.3,268.5,149,272.7,146.3,274.3 M151.4,271.6
					c-0.4,0.7-0.9,1-1.3,0.7c-0.4-0.3-0.3-1,0-1.7s0.9-1,1.3-0.7S151.7,270.9,151.4,271.6 M151.4,259c-0.4,0.7-0.9,1-1.3,0.7
					c-0.4-0.3-0.3-1,0-1.7s0.9-1,1.3-0.7S151.7,258.3,151.4,259 M152.7,262.5c0.5-0.3,0.9,0,0.9,0.7c0,0.7-0.3,1.3-0.9,1.7
					c-0.5,0.3-0.9,0-0.9-0.7C151.8,263.5,152.1,262.9,152.7,262.5"/>
				<path class="st6" d="M270.8,181.6l-4-2.3L182.5,228l3.9,2.3L270.8,181.6z"/>
				<path class="st6" d="M121.6,270.7l-1.7-1c-0.7-0.3-1.5-0.4-2.3-0.4c-1.8,0.1-3.5,0.6-4.9,1.5c-4.3,2.5-8.3,7.6-10.7,13.8
					c-1.4,3.4-2.1,7.1-2.2,10.8c0,4.9,1.6,8.6,4.3,10.2c2.2,1.3,5.1,1,8.1-0.7c7.1-4.1,12.9-15.1,12.9-24.6c0.1-2.9-0.6-5.7-2.1-8.2
					C122.5,271.6,122.1,271.1,121.6,270.7 M112.7,299.8c-1.1,0.7-2.4,1.1-3.7,1.1c-0.9,0-1.7-0.2-2.5-0.6c-2.1-1.2-3.2-3.9-3.2-7.4
					c0-6.5,4-14.2,8.9-17c2.2-1.3,4.4-1.5,6.2-0.5c2.1,1.2,3.2,3.9,3.2,7.4C121.6,289.3,117.6,297,112.7,299.8"/>
				<path class="st4" d="M145.8,249.7c1.7-1,3.6-1.6,5.6-1.6l-0.4-0.2H151c-0.1,0-0.3-0.1-0.3-0.2l-1.1-0.6l-14.8,8.5l0,0
					c-0.1,0.1-0.3,0.1-0.4,0l0,0l-7.2-4.2v14.3c0,1.7-0.6,3.3-1.7,4.6c-0.1,0.1-0.2,0.2-0.4,0.4c-0.4,0.5-0.8,0.9-1,1.2
					c1.2,2,1.9,4.3,2,6.6l8.5,5c-1.5-2.5-2.2-5.4-2.1-8.3C132.4,265.3,138.4,253.9,145.8,249.7"/>
				<path class="st3" d="M150.7,246.3l-0.2,0.1l0.2,0.1C150.7,246.4,150.7,246.4,150.7,246.3"/>
				<path class="st3" d="M148.9,261.4c-0.3-0.2-0.6-0.3-1-0.3c-0.6,0-1.2,0.2-1.6,0.5c-2.5,1.4-4.5,5.3-4.5,8.7
					c0,1.7,0.5,2.9,1.4,3.4c0.9,0.4,1.9,0.3,2.6-0.3c2.5-1.4,4.5-5.3,4.5-8.7C150.3,263.1,149.8,261.9,148.9,261.4"/>
				<path class="st3" d="M115.3,281.6c-0.3-0.2-0.6-0.3-1-0.3c-0.6,0-1.2,0.2-1.6,0.5c-2.5,1.4-4.5,5.3-4.5,8.7
					c0,1.7,0.5,2.9,1.4,3.4c0.9,0.4,1.9,0.3,2.6-0.3c2.5-1.4,4.5-5.3,4.5-8.7C116.7,283.4,116.2,282.2,115.3,281.6"/>
				<path class="st7" d="M8.8,202.3v4.8l0.9-3.4c0-0.1-0.1-0.2-0.1-0.2v-2.1c0-1.1-0.6-2.2-1.5-2.9l-4.4-2.5
					c-0.2-0.1-0.3-0.1-0.5-0.1l-0.7,0.4l4.2,2.5C8.1,199.5,8.8,200.8,8.8,202.3"/>
				<path class="st8" d="M118.7,265.2c-1.5-0.5-3.2-0.6-4.8-0.1l6.3,3.7c1.2,0.5,2.3,1.3,3.1,2.3c0.1-0.1,0.1-0.2,0.2-0.3
					C122.6,268,120.9,266,118.7,265.2"/>
				<path class="st9" d="M61.3,274.8l-6.7-3.9c-0.1,0-0.3-0.1-0.4-0.1c-0.1,0.1-0.2,0.3-0.2,0.6v18c0,0.8,0.4,1.6,1.1,2.1l6.7,3.9
					c0.1,0,0.3,0.1,0.4,0.1c0.1-0.1,0.2-0.3,0.2-0.6v-18C62.3,276,62,275.3,61.3,274.8 M60,292.5c-0.3,0.2-0.6,0.2-0.9,0.2
					c-0.4,0-0.8-0.1-1.2-0.4c-1.6-1.1-2.6-3-2.6-5c-0.1-0.9,0.3-1.8,1.1-2.3c0.7-0.3,1.4-0.3,2,0.1c1.6,1.1,2.6,3,2.6,4.9
					C61.1,291.1,60.7,292,60,292.5 M60.6,284.2c-0.3,0.2-0.7,0.3-1.1,0.3c-0.6,0-1.1-0.2-1.6-0.5c-2.2-1.5-3.5-4.1-3.6-6.7
					c-0.1-1.2,0.4-2.4,1.4-3.1c0.8-0.4,1.9-0.4,2.7,0.2c2.2,1.5,3.5,4.1,3.6,6.7C62.1,282.3,61.6,283.4,60.6,284.2"/>
				<path class="st5" d="M65.7,268.2C65.7,268.2,65.7,268.2,65.7,268.2L3.9,232.5c-0.1,1-0.1,2-0.2,3l61.7,35.7
					C65.5,270.2,65.6,269.2,65.7,268.2"/>
				<path class="st2" d="M124.6,269.6c0.9-1.1,1.5-2.5,1.5-3.9v-77.8c0.1-0.9-0.2-1.8-0.9-2.4l-0.4-0.2c-0.6-0.2-1.2-0.1-1.7,0.3
					l-19.2,11.3v74.3c1.8-2.2,3.9-4,6.3-5.5c0.8-0.5,1.6-0.8,2.5-1.2h0c4.4-1.9,9.4,0.1,11.3,4.5c0.1,0.3,0.3,0.7,0.4,1
					C124.4,269.8,124.5,269.6,124.6,269.6"/>
				<path class="st9" d="M332.1,42.9L259.6,1.1L62,115.1l72.5,41.8L332.1,42.9z"/>
				<path class="st3" d="M127,250.2l7,4v-9.7l-7-4L127,250.2z"/>
				<path class="st3" d="M134,157.8L61.5,116v8.9l72.5,41.8V157.8z"/>
				<path class="st5" d="M48.6,281.7l-29.7-17.2l0.2,3.4l29,16.7L48.6,281.7z"/>
				<path class="st10" d="M62.5,148.1c0.1,0,0.1,0,0.2,0.1l62.6,36.2c0.1,0,0.2,0.1,0.2,0.1c0.1,0,0.1,0.1,0.2,0.1l0.1,0.1
					c0.1,0,0.1,0.1,0.2,0.2c0.8,0.8,1.1,1.9,1.1,3v51.6l7,4v-75.6L61.5,126v21.9c0.3,0,0.6,0,0.8,0.1C62.4,148,62.5,148,62.5,148.1"
					/>
				<path class="st3" d="M7.8,210.8v-8.5c0-1.1-0.6-2.2-1.5-2.9L2,196.9c-0.2-0.1-0.4-0.2-0.6-0.1l-0.1,0c-0.2,0.3-0.4,0.6-0.3,0.9
					V209c0,1.1,0.6,2.2,1.5,2.9l4.4,2.6L7.8,210.8z"/>
				<path class="st3" d="M10.1,247.6c-0.3-0.2-0.7-0.3-1.1-0.3c-0.2,0-0.4,0.1-0.6,0.2c-0.7,0.5-1,1.4-0.9,2.3
					c0,2.3,1.2,4.5,3.1,5.9c0.5,0.4,1.1,0.4,1.7,0.2c0.7-0.5,1-1.4,0.9-2.3C13.2,251.2,12,249,10.1,247.6"/>
				<path class="st5" d="M21.9,272.5l23.9,13.8c0.7,0.4,1.6,0.2,2.1-0.5c0-0.1,0.1-0.1,0.1-0.2l-28.6-16.5
					C19.7,270.5,20.6,271.8,21.9,272.5"/>
				<path class="st3" d="M10.1,258.6c-0.2-0.1-0.4-0.2-0.7-0.2c-0.1,0-0.3,0-0.4,0.1c-0.4,0.4-0.6,0.9-0.6,1.5
					c0,1.6,0.8,3.1,2.1,4.1c0.3,0.2,0.7,0.3,1.1,0.1c0.4-0.4,0.6-0.9,0.6-1.5C12.2,261,11.4,259.5,10.1,258.6"/>
				<path class="st3" d="M57.9,275.2c-0.3-0.2-0.7-0.3-1.1-0.3c-0.2,0-0.4,0.1-0.6,0.2c-0.7,0.5-1,1.4-0.9,2.3
					c0,2.3,1.2,4.5,3.1,5.9c0.5,0.4,1.1,0.4,1.7,0.2c0.7-0.5,1-1.4,0.9-2.3C61,278.7,59.8,276.5,57.9,275.2"/>
				<path class="st3" d="M57.9,286.1c-0.2-0.1-0.5-0.2-0.7-0.2c-0.1,0-0.3,0-0.4,0.1c-0.4,0.4-0.6,0.9-0.6,1.5
					c0,1.6,0.8,3.1,2.1,4.1c0.3,0.2,0.7,0.3,1.1,0.1c0.4-0.4,0.6-0.9,0.6-1.5C60,288.6,59.2,287,57.9,286.1"/>
				<path class="st9" d="M13.5,247.3l-6.7-3.9c-0.1-0.1-0.2-0.1-0.3-0.1c0,0-0.1,0-0.1,0c-0.1,0.1-0.2,0.3-0.2,0.6v18
					c0,0.8,0.4,1.6,1.1,2.1l6.7,3.9c0.1,0,0.3,0.1,0.4,0.1c0.1-0.1,0.2-0.3,0.2-0.6v-18C14.5,248.5,14.1,247.8,13.5,247.3 M12.2,265
					c-0.3,0.2-0.6,0.2-0.9,0.2c-0.4,0-0.8-0.1-1.2-0.4c-1.6-1.1-2.6-3-2.6-4.9c-0.1-0.9,0.3-1.8,1.1-2.3c0.7-0.3,1.4-0.3,2,0.1
					c1.6,1.1,2.6,3,2.6,5C13.3,263.6,12.9,264.5,12.2,265 M12.8,256.6c-0.3,0.2-0.7,0.3-1.1,0.3c-0.6,0-1.1-0.2-1.6-0.5
					c-2.2-1.5-3.5-4.1-3.6-6.7c-0.1-1.2,0.4-2.4,1.4-3.1c0.8-0.4,1.9-0.4,2.7,0.2c2.2,1.5,3.5,4.1,3.6,6.7
					C14.3,254.7,13.8,255.9,12.8,256.6"/>
				<path class="st5" d="M51.6,264.3l-33.7-19.5c0,0.9,0.1,2.3,0.1,3.9l33,19.1L51.6,264.3z"/>
				<path class="st5" d="M49.4,277.3l-30.8-17.8l0.3,3.8l30,17.3L49.4,277.3z"/>
				<path class="st5" d="M50.1,272.9l-31.9-18.4c0,0.8,0.1,1.5,0.1,1.8l0.1,2l31.1,18L50.1,272.9z"/>
				<path class="st5" d="M50.8,268.8l-32.7-18.9c0,1.2,0.1,2.4,0.1,3.5l32.1,18.6L50.8,268.8z"/>
				<path class="st3" d="M195.6,186.8c0.1,0.1,0.2,0.3,0.2,0.4c0,0.2-0.1,0.3-0.2,0.4L135,222.5v11.3l79.4-45.8l-28-21.2
					c-0.2-0.2-0.3-0.5-0.1-0.7c0-0.1,0.1-0.1,0.1-0.1l146.2-84.4V70.3l-165.1,95.3L195.6,186.8z"/>
				<path class="st5" d="M271.1,182.5L187,231.1v3.2c0.6,0.8,1,1.8,1.4,2.7l82.8-47.8V182.5z"/>
				<path class="st3" d="M320.2,157.1c-4.6,2.7-8.4,9.9-8.4,16.1c0,3.2,1,5.6,2.8,6.6c1.4,0.8,3.3,0.7,5.2-0.5
					c4.6-2.7,8.4-9.9,8.4-16.1c0-3.2-1-5.6-2.7-6.6c-0.6-0.3-1.3-0.5-2-0.5C322.3,156.2,321.2,156.5,320.2,157.1 M320,158.1
					c0.5-0.3,0.9,0,0.9,0.7c0,0.7-0.3,1.3-0.9,1.7c-0.5,0.3-0.9,0-0.9-0.7C319.1,159.2,319.4,158.5,320,158.1 M314.6,164.2
					c0.4-0.7,0.9-1,1.3-0.7s0.4,1,0,1.7c-0.4,0.7-0.9,1-1.3,0.7C314.3,165.6,314.3,164.9,314.6,164.2 M313.3,173.3
					c-0.5,0.3-0.9,0-0.9-0.7c0-0.7,0.3-1.3,0.9-1.7c0.5-0.3,0.9,0,0.9,0.7C314.2,172.2,313.9,172.9,313.3,173.3 M315.9,177.7
					c-0.3,0.7-0.9,1-1.3,0.7c-0.4-0.3-0.4-1,0-1.7c0.4-0.7,0.9-1,1.3-0.7S316.3,177.1,315.9,177.7 M320,178.3
					c-0.5,0.3-0.9,0-0.9-0.7c0-0.7,0.3-1.3,0.9-1.7c0.5-0.3,0.9,0,0.9,0.7C320.9,177.3,320.6,177.9,320,178.3 M325.3,172.3
					c-0.3,0.7-0.9,1-1.3,0.7s-0.4-1,0-1.7c0.4-0.7,0.9-1,1.3-0.7S325.7,171.6,325.3,172.3 M326.7,163.2c0.5-0.3,0.9,0,0.9,0.7
					c0,0.7-0.3,1.3-0.9,1.7c-0.5,0.3-0.9,0-0.9-0.7C325.8,164.2,326.1,163.6,326.7,163.2 M324.1,158.8c0.3-0.7,0.9-1,1.3-0.7
					s0.4,1,0,1.7c-0.4,0.7-0.9,1-1.3,0.7S323.7,159.4,324.1,158.8 M325.3,165.5c0,3.7-2.2,7.9-5,9.5c-0.6,0.4-1.4,0.6-2.1,0.6
					c-0.5,0-1-0.1-1.5-0.4c-1.2-0.7-1.9-2.3-1.9-4.3c0-3.7,2.2-7.9,5-9.5c1.1-0.7,2.4-0.8,3.6-0.3
					C324.6,161.9,325.3,163.5,325.3,165.5"/>
				<path class="st3" d="M293.2,179c-0.3-0.2-0.6-0.3-1-0.3c-0.6,0-1.2,0.2-1.6,0.5c-2.5,1.4-4.5,5.3-4.5,8.7c0,1.7,0.5,2.9,1.4,3.4
					c0.9,0.4,1.9,0.3,2.6-0.2c2.5-1.4,4.5-5.3,4.5-8.7C294.6,180.8,294.1,179.6,293.2,179"/>
				<path class="st6" d="M184,232.8c-0.9-0.5-2-0.8-3.1-0.8c-1.8,0.1-3.5,0.6-5,1.5c-7.1,4.1-12.8,15.1-12.8,24.6
					c0,4.9,1.6,8.6,4.3,10.2c2.2,1.3,5.1,1,8.1-0.7c7.1-4.1,12.8-15.1,12.8-24.6C188.3,238.1,186.7,234.4,184,232.8 M175.9,262.5
					c-1.1,0.7-2.4,1.1-3.7,1.1c-0.9,0-1.7-0.2-2.5-0.6c-2.1-1.2-3.2-3.9-3.2-7.4c0-6.5,4-14.2,8.9-17c2.2-1.3,4.4-1.5,6.2-0.5
					c2.1,1.2,3.2,3.9,3.2,7.4C184.8,252.1,180.8,259.7,175.9,262.5"/>
				<path class="st3" d="M295.8,173.6c-0.6-0.3-1.3-0.5-2-0.5c-1.1,0-2.2,0.4-3.2,1c-4.6,2.7-8.4,9.9-8.4,16.1c0,3.2,1,5.6,2.8,6.6
					c1.4,0.8,3.3,0.7,5.2-0.5c4.6-2.7,8.4-9.9,8.4-16.1C298.5,177,297.5,174.6,295.8,173.6 M290.3,175.1c0.5-0.3,0.9,0,0.9,0.7
					c0,0.7-0.3,1.3-0.9,1.7c-0.5,0.3-0.9,0-0.9-0.7C289.4,176.2,289.8,175.5,290.3,175.1 M285,181.2c0.4-0.7,0.9-1,1.3-0.7
					c0.4,0.3,0.3,1,0,1.7s-0.9,1-1.3,0.7C284.6,182.6,284.6,181.8,285,181.2 M283.7,190.3c-0.5,0.3-0.9,0-0.9-0.7
					c0-0.7,0.3-1.3,0.9-1.7c0.5-0.3,0.9,0,0.9,0.7C284.6,189.2,284.2,189.9,283.7,190.3 M286.3,194.7c-0.4,0.7-0.9,1-1.3,0.7
					c-0.4-0.3-0.3-1,0-1.7s0.9-1,1.3-0.7C286.6,193.3,286.6,194,286.3,194.7 M290.3,195.3c-0.5,0.3-0.9,0-0.9-0.7
					c0-0.7,0.3-1.3,0.9-1.7c0.5-0.3,0.9,0,0.9,0.7C291.2,194.3,290.9,194.9,290.3,195.3 M290.6,192c-0.6,0.4-1.4,0.6-2.1,0.6
					c-0.5,0-1-0.1-1.5-0.4c-1.2-0.7-1.9-2.3-1.9-4.3c0-3.7,2.2-7.9,5-9.5c1.1-0.7,2.5-0.8,3.6-0.3c1.2,0.7,1.9,2.3,1.9,4.3
					C295.6,186.1,293.3,190.4,290.6,192 M295.7,189.3c-0.4,0.7-0.9,1-1.3,0.7c-0.4-0.3-0.3-1,0-1.7s0.9-1,1.3-0.7
					C296,187.8,296,188.6,295.7,189.3 M295.7,176.7c-0.4,0.7-0.9,1-1.3,0.7c-0.4-0.3-0.3-1,0-1.7s0.9-1,1.3-0.7
					C296,175.3,296,176,295.7,176.7 M297,180.2c0.5-0.3,0.9,0,0.9,0.7c0,0.7-0.3,1.3-0.9,1.7c-0.5,0.3-0.9,0-0.9-0.7
					C296.1,181.2,296.5,180.6,297,180.2"/>
				<path class="st6" d="M320.2,151.2c-7.1,4.1-12.9,15.1-12.9,24.6c0,4.9,1.6,8.6,4.3,10.2c2.2,1.3,5.1,1,8.1-0.7
					c7.1-4.1,12.8-15.1,12.8-24.6c0-4.9-1.6-8.6-4.3-10.2c-0.9-0.5-2-0.8-3.1-0.8C323.4,149.8,321.7,150.3,320.2,151.2 M329.2,163.2
					c0,6.5-4,14.2-8.9,17c-1.1,0.7-2.4,1.1-3.7,1.1c-0.9,0-1.7-0.2-2.5-0.6c-2.1-1.2-3.2-3.9-3.2-7.4c0-6.5,4-14.2,8.9-17
					c2.2-1.3,4.4-1.5,6.2-0.5C328,157,329.2,159.7,329.2,163.2"/>
				<path class="st6" d="M298.7,167.5c-0.9-0.5-2-0.8-3.1-0.8c-1.8,0.1-3.5,0.6-5,1.5c-7.1,4.1-12.8,15.1-12.8,24.6
					c0,4.9,1.6,8.6,4.3,10.2c2.2,1.3,5.1,1,8.1-0.7c7.1-4.1,12.8-15.1,12.8-24.6C302.9,172.8,301.4,169.1,298.7,167.5 M290.6,197.2
					c-1.1,0.7-2.4,1.1-3.7,1.1c-0.9,0-1.7-0.2-2.5-0.6c-2.1-1.2-3.2-3.9-3.2-7.4c0-6.5,4-14.2,8.9-17c2.2-1.3,4.4-1.5,6.2-0.5
					c2.1,1.2,3.2,3.9,3.2,7.4C299.5,186.7,295.5,194.4,290.6,197.2"/>
				<path class="st3" d="M321.9,161.8c-0.6,0-1.2,0.2-1.6,0.5c-2.5,1.4-4.5,5.3-4.5,8.7c0,1.7,0.5,2.9,1.4,3.4
					c0.9,0.4,1.9,0.3,2.6-0.3c2.5-1.4,4.5-5.3,4.5-8.7c0-1.7-0.5-2.9-1.4-3.4C322.6,161.9,322.2,161.8,321.9,161.8"/>
				<path class="st3" d="M135,166.7L332.6,52.6v-8.9L135,157.8V166.7z"/>
				<path class="st11" d="M135,221.4l59.4-34.3l-28-21.2c-0.2-0.2-0.3-0.5-0.1-0.7c0-0.1,0.1-0.1,0.1-0.1l166.2-95.9V53.8L135,167.9
					V221.4z"/>
				<path class="st11" d="M215.5,187.7c0.2,0.2,0.3,0.5,0.1,0.7c0,0.1-0.1,0.1-0.1,0.1L135,235v8.5l197.6-114.1V82.8l-145.1,83.8
					L215.5,187.7z M320.4,126.9c0-0.2,0.1-0.3,0.2-0.4l7.7-4.4c0.2-0.1,0.5-0.1,0.7,0.2c0,0.1,0.1,0.2,0.1,0.2v5.6
					c0,0.2-0.1,0.3-0.2,0.4l-7.7,4.4c-0.1,0-0.2,0.1-0.2,0.1c-0.3,0-0.5-0.2-0.5-0.5c0,0,0,0,0,0L320.4,126.9z"/>
				<path class="st4" d="M290.1,167.3c1.7-1,3.6-1.6,5.6-1.6l-0.6-0.3l0,0l-2.1-1.2l-25.2,14.5l4,2.3c0.2,0.1,0.3,0.3,0.2,0.5
					c0,0,0,0.1,0,0.1v7.9c0,0.2-0.1,0.3-0.2,0.4l-4.6,2.7c0.5,1.2,1.4,2.3,2.5,3.1l9.1,5.3c-1.5-2.5-2.2-5.4-2.1-8.3
					C276.8,183,282.7,171.6,290.1,167.3"/>
				<path class="st3" d="M181.1,239c-0.6-0.3-1.3-0.5-2-0.5c-1.1,0-2.2,0.4-3.2,1c-4.6,2.7-8.4,9.9-8.4,16.1c0,3.2,1,5.6,2.8,6.6
					c1.4,0.8,3.3,0.7,5.2-0.5c4.6-2.7,8.4-9.9,8.4-16.1C183.9,242.4,182.9,240,181.1,239 M175.7,240.5c0.5-0.3,0.9,0,0.9,0.7
					c0,0.7-0.3,1.3-0.9,1.7c-0.5,0.3-0.9,0-0.9-0.7C174.8,241.5,175.1,240.9,175.7,240.5 M170.3,246.5c0.4-0.7,0.9-1,1.3-0.7
					s0.3,1,0,1.7s-0.9,1-1.3,0.7S170,247.2,170.3,246.5 M169,255.6c-0.5,0.3-0.9,0-0.9-0.7c0-0.7,0.3-1.3,0.9-1.7
					c0.5-0.3,0.9,0,0.9,0.7C169.9,254.6,169.6,255.2,169,255.6 M171.6,260c-0.4,0.7-0.9,1-1.3,0.7c-0.4-0.3-0.3-1,0-1.7
					s0.9-1,1.3-0.7S171.9,259.4,171.6,260 M175.7,260.6c-0.5,0.3-0.9,0-0.9-0.7c0-0.7,0.3-1.3,0.9-1.7c0.5-0.3,0.9,0,0.9,0.7
					C176.6,259.6,176.2,260.2,175.7,260.6 M175.9,257.3c-0.6,0.4-1.4,0.6-2.1,0.6c-0.5,0-1-0.1-1.5-0.4c-1.2-0.7-1.9-2.3-1.9-4.3
					c0-3.7,2.2-7.9,5-9.5c1.1-0.7,2.4-0.8,3.6-0.3c1.2,0.7,1.9,2.3,1.9,4.3C180.9,251.5,178.7,255.7,175.9,257.3 M181,254.6
					c-0.4,0.7-0.9,1-1.3,0.7s-0.3-1,0-1.7s0.9-1,1.3-0.7S181.4,253.9,181,254.6 M181,242c-0.4,0.7-0.9,1-1.3,0.7s-0.3-1,0-1.7
					s0.9-1,1.3-0.7S181.4,241.4,181,242 M182.3,245.5c0.5-0.3,0.9,0,0.9,0.7c0,0.7-0.3,1.3-0.9,1.7c-0.5,0.3-0.9,0-0.9-0.7
					C181.5,246.5,181.8,245.9,182.3,245.5"/>
				<path class="st3" d="M328.1,123.3l-6.7,3.9v4.5l6.7-3.9L328.1,123.3z"/>
				<path class="st3" d="M135,254.3l16.2-9.3l0,0l181.4-104.7v-9.7L135,244.6V254.3z"/>
				<path class="st4" d="M322.6,147.1l-26.2,15.1c0,0.1,0,0.1,0,0.2c-0.2,0.8-0.3,1.5-0.5,2.3l3.3,1.9c0.1,0.1,0.2,0.1,0.2,0.3
					c2.9,1.8,4.5,5.7,4.5,10.8c0,1.2-0.1,2.4-0.3,3.7l4.8,2.8c-1.5-2.5-2.2-5.4-2.1-8.3c0-9.8,6-21.2,13.3-25.4
					c1.7-1,3.6-1.6,5.6-1.6L322.6,147.1C322.6,147.2,322.6,147.1,322.6,147.1"/>
				<path class="st6" d="M61.4,253.4c0.6,0.3,3.5,2.6,3.7,2c1.1-3.3,2.1-6.7,2.9-10.1l-41.8-24.1c-3.9-2.3-10-2.5-13.4-0.6l-4.2,2.4
					c0,0,6.1,3.4,6.5,3.7C30,235.6,48,245.9,61.4,253.4"/>
				<path class="st12" d="M333.5,42.6c0,0-0.1-0.1-0.1-0.1c0,0,0,0,0,0L259.9,0.1c-0.2-0.1-0.3-0.1-0.5,0L60.8,114.7c0,0,0,0,0,0
					c0,0-0.1,0.1-0.1,0.1c0,0,0,0,0,0.1c0,0.1-0.1,0.1-0.1,0.2v32.9c-0.2,0.1-0.4,0.2-0.7,0.3l-38,22.4c-2.6,1.5-4.9,5-5.7,8.7
					l-5.6,21.1c-0.2-1.2-0.9-2.3-1.9-3l-4.4-2.5c-0.3-0.2-0.6-0.3-1-0.2c-0.1,0-0.3,0-0.4,0l-2,1.1c0,0-0.1,0-0.1,0s0,0,0,0l0,0
					c-0.1,0-0.1,0.1-0.2,0.1c-0.4,0.4-0.6,1-0.6,1.6V209c0,1.5,0.8,2.9,2,3.7l4.6,2.8l-2.1,7.9c-0.7,2.7-1.2,5.4-1.5,8.1
					c0,0.1,0,0.2,0,0.3c-0.1,1.3-0.2,2.5-0.2,3.8c0,0.1,0,0.2,0,0.3c0,0.3,0,0.7,0,1v26.7c-0.1,1.2,0.4,2.5,1.2,3.4
					c0,0.1,0.1,0.2,0.2,0.2l62.7,36.3c0.1,0,0.1,0.1,0.2,0.1c0,0,0.1,0.1,0.1,0.1c0.4,0.2,0.9,0.4,1.3,0.3c0.7,0,1.3-0.2,1.9-0.6
					l14.9-8.8l2.3-1.4c0.8,3.1,2.4,5.4,4.6,6.6c0,0.1,0.1,0.1,0.2,0.2l10.9,6.3c0,0,0.1,0,0.1,0c0.1,0,0.1,0.1,0.2,0.1
					c1.1,0.6,2.3,1,3.6,0.9c1.9-0.1,3.8-0.6,5.4-1.6c7.4-4.2,13.3-15.7,13.3-25.4c0-0.2,0-0.4,0-0.6l10.8,6.3c0,0,0.1,0,0.1,0
					c0.1,0,0.1,0.1,0.2,0.1c1.1,0.6,2.3,1,3.6,0.9c1.9-0.1,3.8-0.6,5.4-1.6c6.2-3.6,11.4-12.3,12.9-20.8l7.4,4.3c0,0,0.1,0,0.2,0
					c0.1,0,0.1,0.1,0.2,0.1c1.1,0.6,2.3,1,3.6,0.9c1.9-0.1,3.8-0.6,5.5-1.6c7.4-4.2,13.3-15.7,13.3-25.4c0-1.7-0.2-3.3-0.6-5
					l77.7-44.8c0.6,1.4,1.6,2.6,2.8,3.5h0l0,0l12,7c0,0,0.1,0,0.2,0c0.1,0,0.1,0.1,0.2,0.1c1.1,0.6,2.3,1,3.6,0.9
					c1.9-0.1,3.8-0.6,5.5-1.6c6.2-3.6,11.4-12.3,12.9-20.8l7.4,4.3c0,0,0.1,0,0.1,0c0.1,0,0.1,0.1,0.2,0.1c1.1,0.6,2.3,1,3.6,0.9
					c1.9-0.1,3.8-0.6,5.5-1.6c7.4-4.2,13.3-15.7,13.3-25.4c0-5.1-1.6-9-4.5-10.8c0-0.1-0.1-0.2-0.2-0.2l-5.3-3l9.8-5.7c0,0,0,0,0,0
					c0,0,0.1,0,0.1-0.1c0,0,0-0.1,0.1-0.1c0,0,0-0.1,0-0.1c0,0,0-0.1,0-0.1c0,0,0,0,0-0.1V42.9C333.6,42.8,333.6,42.7,333.5,42.6
					C333.5,42.7,333.5,42.6,333.5,42.6 M259.6,1.1l72.5,41.8L134.5,157L62,115.1L259.6,1.1z M61.5,116l72.5,41.8v8.9l-72.5-41.9V116
					z M61.5,126l72.5,41.8v75.6l-7-4v-51.6c0.1-1.1-0.3-2.2-1.1-3c0-0.1-0.1-0.1-0.2-0.2l-0.1-0.1c-0.1-0.1-0.1-0.1-0.2-0.1
					c-0.1,0-0.2-0.1-0.2-0.1l-62.6-36.2c-0.1,0-0.1-0.1-0.2-0.1c0,0-0.1-0.1-0.1-0.1c-0.3-0.1-0.6-0.1-0.8-0.1L61.5,126z M134,244.6
					v9.7l-7-4v-9.7L134,244.6z M119.1,264.3c-2.1-0.7-4.4-0.7-6.4,0.2h0c-0.9,0.3-1.7,0.7-2.5,1.2c-2.4,1.4-4.5,3.3-6.3,5.5v-74.3
					l19.2-11.3c0.5-0.3,1.1-0.4,1.7-0.3l0.4,0.2c0.6,0.6,1,1.5,0.9,2.4v77.8c0,1.4-0.5,2.8-1.5,3.9c-0.1,0.1-0.2,0.2-0.3,0.4
					C123.4,267.4,121.5,265.3,119.1,264.3 M123.6,270.8c-0.1,0.1-0.2,0.2-0.2,0.3c-0.8-1-1.9-1.8-3.1-2.3l-6.3-3.7
					c1.6-0.4,3.2-0.4,4.8,0.1C120.9,266,122.6,268,123.6,270.8 M3.3,195.8c0.2,0,0.4,0,0.5,0.1l4.4,2.5c0.9,0.7,1.5,1.7,1.5,2.9v2.1
					c0,0.1,0,0.2,0.1,0.2l-0.9,3.4v-4.8c0-1.5-0.8-2.9-2-3.7l-4.3-2.5L3.3,195.8z M2.5,211.8C1.6,211.2,1,210.1,1,209v-11.2
					c0-0.3,0.1-0.7,0.3-0.9l0.1,0c0.2-0.1,0.4,0,0.6,0.1l4.4,2.5c0.9,0.7,1.5,1.7,1.5,2.9v8.5l-1,3.7L2.5,211.8z M3.9,232.5
					l61.7,35.7c0,0,0,0,0,0c-0.1,1-0.2,2-0.2,3L3.8,235.4C3.8,234.4,3.8,233.5,3.9,232.5 M19.1,267.9l-0.2-3.4l29.7,17.2l-0.5,2.9
					L19.1,267.9z M47.9,285.6c-0.3,0.8-1.2,1.1-2,0.8c-0.1,0-0.1-0.1-0.2-0.1l-23.9-13.8c-1.3-0.7-2.2-2-2.6-3.4L47.9,285.6z
					 M18.8,263.3l-0.3-3.8l30.8,17.8l-0.6,3.4L18.8,263.3z M18.5,258.3l-0.1-2c0-0.3-0.1-1-0.1-1.8l31.9,18.4l-0.6,3.4L18.5,258.3z
					 M18.2,253.3c0-1.1-0.1-2.3-0.1-3.5l32.7,18.9l-0.5,3.1L18.2,253.3z M18.1,248.7c-0.1-1.6-0.1-3-0.1-3.9l33.7,19.5l-0.6,3.5
					L18.1,248.7z M4.8,266.5C4.8,266.5,4.8,266.4,4.8,266.5c-0.8-0.8-1.2-1.8-1.1-2.9v-26.7c0-0.1,0-0.2,0-0.3l13.2,7.6
					c0,1.2,0.2,5.9,0.3,9.2c-0.1,0.1,0,0.3,0,0.4c0,1.2,0.1,2.1,0.1,2.5l0.8,11.9c0.1,2.1,1.3,4.1,3.2,5.1l23.9,13.8
					c0.4,0.2,0.8,0.3,1.2,0.3c0.4,0,0.7-0.1,1.1-0.2c0.7-0.3,1.3-1,1.4-1.8l0.7-3.9l0,0l2.8-16.7l13,7.5c0,0.3,0,0.6,0,0.9v26.7
					c0,0.7,0.1,1.3,0.3,1.9L4.8,266.5z M4,231.4c0.3-2.6,0.8-5.3,1.4-7.8l11.7-43.9c0.7-3.5,2.8-6.7,5.2-8.1l38-22.4
					c0.5-0.3,1.1-0.5,1.7-0.3c0,0,0.1,0,0.1,0c0,0,0,0,0,0l61.1,35.3c-0.2,0.1-0.5,0.2-0.7,0.3l-38,22.4c-2.6,1.5-4.9,5-5.7,8.7
					l-11.7,43.8c-0.7,2.5-1.1,5-1.4,7.6L4,231.4z M87.6,292l-2.8,1.7l-14.9,8.8c-0.6,0.5-1.5,0.6-2.2,0.2c-0.9-0.7-1.3-1.8-1.2-2.9
					v-26.7c0-4.5,0.6-9,1.7-13.3l11.7-43.9c0.7-3.5,2.8-6.7,5.2-8.1l17.9-10.5v74.9c-3.3,4.4-5.6,9.4-6.8,14.7L87.6,292L87.6,292
					 M93.1,299.2c0-0.1-0.1-0.2-0.2-0.2c-2.1-1-3.7-3.2-4.4-6.3l8.3-5c0,0,0,0,0,0l0,0c0.1-0.1,0.1-0.2,0.2-0.3l0,0
					c2-9,7.5-17.4,13.6-20.9c0.7-0.4,1.4-0.7,2.1-1l4.9,2.9c-1.9,0.1-3.7,0.6-5.3,1.6c-4.5,2.6-8.6,7.9-11.1,14.3
					c-1.4,3.6-2.2,7.3-2.2,11.2c-0.1,2.9,0.6,5.8,2.1,8.4L93.1,299.2z M112.2,304.9c-3,1.7-5.9,2-8.1,0.7c-2.7-1.6-4.3-5.3-4.3-10.2
					c0.1-3.7,0.8-7.4,2.2-10.8c2.4-6.2,6.4-11.3,10.7-13.8c1.5-0.9,3.2-1.4,4.9-1.5c0.8,0,1.6,0.1,2.3,0.4l1.7,1
					c0.5,0.4,0.9,0.9,1.3,1.4c1.5,2.4,2.3,5.3,2.1,8.2C125.1,289.7,119.3,300.8,112.2,304.9 M126,278.5c-0.1-2.3-0.8-4.6-2-6.6
					c0.3-0.3,0.6-0.7,1-1.2c0.2-0.2,0.3-0.4,0.4-0.4c1.1-1.3,1.7-2.9,1.7-4.6v-14.3l7.2,4.2l0,0c0.1,0.1,0.3,0.1,0.4,0l0,0l14.8-8.5
					l1.1,0.6c0.1,0.1,0.2,0.2,0.3,0.2c0,0,0,0,0.1,0l0.4,0.2c-2,0-3.9,0.6-5.6,1.6c-7.4,4.2-13.3,15.7-13.3,25.4
					c-0.1,2.9,0.6,5.8,2.1,8.3L126,278.5z M150.5,246.4l0.2-0.1c0,0.1,0,0.1,0,0.2L150.5,246.4z M145.8,284.6c-3,1.7-5.9,2-8.1,0.7
					c-2.7-1.6-4.3-5.3-4.3-10.2c0-9.5,5.8-20.5,12.8-24.6c1.5-0.9,3.2-1.4,5-1.5c1.1,0,2.2,0.3,3.1,0.8c2.7,1.6,4.3,5.3,4.3,10.2
					C158.6,269.5,152.9,280.5,145.8,284.6 M159.3,263.6c0.2-1.2,0.3-2.4,0.3-3.7c0-5.1-1.6-9-4.5-10.8c0-0.1-0.1-0.2-0.2-0.3
					l-3.3-1.9c0.1-0.5,0.2-0.9,0.3-1.4l27.2-15.7l2,1.1c-2,0-3.9,0.6-5.6,1.6c-7.4,4.2-13.3,15.7-13.3,25.4
					c-0.1,2.9,0.6,5.8,2.1,8.3L159.3,263.6z M186,231.1v2.1c-0.4-0.4-0.8-0.7-1.2-1c0-0.1-0.1-0.2-0.2-0.3l-4.5-2.5l1.5-0.8
					L186,231.1z M182.5,228l84.3-48.7l4,2.3l-84.3,48.6L182.5,228z M175.4,267.6c-3,1.7-5.9,2-8.1,0.7c-2.7-1.6-4.3-5.3-4.3-10.2
					c0-9.5,5.8-20.5,12.8-24.6c1.5-0.9,3.2-1.4,5-1.5c1.1,0,2.2,0.3,3.1,0.8c2.7,1.6,4.3,5.3,4.3,10.2
					C188.3,252.5,182.5,263.5,175.4,267.6 M188.3,237.1c-0.3-1-0.8-1.9-1.4-2.7v-3.2l84.1-48.5v6.8L188.3,237.1z M269.7,195.8
					c-1.1-0.8-2-1.9-2.5-3.1l4.6-2.7c0.2-0.1,0.2-0.2,0.2-0.4v-7.9c0,0,0-0.1,0-0.1c0.1-0.2,0-0.4-0.2-0.5l-4-2.3l25.2-14.5l2.1,1.2
					h0l0.6,0.3c-2,0-3.9,0.6-5.6,1.6c-7.4,4.2-13.3,15.7-13.3,25.4c-0.1,2.9,0.6,5.8,2.1,8.3L269.7,195.8z M294,163.6l1.3-0.8
					c-0.1,0.5-0.2,0.9-0.3,1.4L294,163.6z M290.1,202.3c-3,1.7-5.9,2-8.1,0.7c-2.7-1.6-4.3-5.3-4.3-10.2c0-9.5,5.8-20.5,12.8-24.6
					c1.5-0.9,3.2-1.4,5-1.5c1.1,0,2.2,0.3,3.1,0.8c2.7,1.6,4.3,5.3,4.3,10.2C302.9,187.1,297.2,198.2,290.1,202.3 M332.6,160.7
					c0,9.5-5.8,20.5-12.8,24.6c-3,1.7-5.9,2-8.1,0.7c-2.7-1.6-4.3-5.3-4.3-10.2c0-9.5,5.8-20.5,12.9-24.6c1.5-0.9,3.2-1.4,5-1.5
					c1.1,0,2.2,0.3,3.1,0.8C331,152.1,332.6,155.8,332.6,160.7 M325.4,148.7c-2,0-3.9,0.6-5.6,1.6c-7.4,4.2-13.3,15.7-13.3,25.4
					c-0.1,2.9,0.6,5.8,2.1,8.3l-4.8-2.8c0.2-1.2,0.3-2.4,0.3-3.7c0-5.1-1.6-9-4.5-10.8c0-0.1-0.1-0.2-0.2-0.3l-3.3-1.9
					c0.1-0.8,0.3-1.5,0.5-2.3c0-0.1,0-0.1,0-0.2l26.2-15.1c0,0,0,0,0.1,0.1L325.4,148.7z M332.6,140.2L151.2,244.9l0,0l-16.2,9.3
					v-9.7l197.6-114.1L332.6,140.2z M332.6,129.4L135,243.5V235l80.5-46.5c0.2-0.1,0.3-0.4,0.2-0.7c0-0.1-0.1-0.1-0.1-0.1l-28-21.2
					l145.1-83.8L332.6,129.4z M332.6,81.6L186.4,166c-0.1,0.1-0.2,0.2-0.2,0.4c0,0.2,0.1,0.3,0.2,0.4l28,21.2L135,233.8v-11.3
					l60.5-34.9c0.1-0.1,0.2-0.2,0.2-0.4c0-0.2-0.1-0.3-0.2-0.4l-28-21.2l165.1-95.3L332.6,81.6z M332.6,69.2l-166.2,95.9
					c-0.1,0.1-0.2,0.2-0.2,0.4c0,0.2,0.1,0.3,0.2,0.4l28,21.2L135,221.4v-53.5L332.6,53.8L332.6,69.2z M332.6,52.6L135,166.7v-8.9
					L332.6,43.8L332.6,52.6z"/>
				<path class="st12" d="M100,251.2c0.1-0.7-0.3-1.4-0.9-1.9c-0.5-0.3-1.2-0.2-1.7,0.1l-5.6,3.3c-1.3,0.9-2,2.3-2,3.8
					c-0.1,0.7,0.3,1.4,0.9,1.9c0.2,0.1,0.5,0.2,0.7,0.2c0.3,0,0.7-0.1,0.9-0.3L98,255C99.2,254.1,100,252.7,100,251.2 M97.5,254.1
					l-5.6,3.3c-0.2,0.1-0.4,0.2-0.7,0.1c-0.3-0.3-0.4-0.6-0.4-1c0-1.2,0.6-2.3,1.5-3l5.6-3.3c0.1-0.1,0.3-0.1,0.5-0.1
					c0.1,0,0.1,0,0.2,0.1c0.3,0.3,0.4,0.6,0.4,1C99,252.3,98.4,253.4,97.5,254.1"/>
				<path class="st12" d="M77,213.2C77,213.2,77,213.2,77,213.2c0-0.1,0-0.2,0-0.2c0,0,0-0.1,0-0.1c0,0,0-0.1,0-0.1c0,0,0,0-0.1-0.1
					c0,0,0,0-0.1-0.1l0,0l-57.1-33c0,0,0,0-0.1,0c0,0,0,0-0.1,0s0,0,0,0c0,0-0.1,0-0.1,0c0,0-0.1,0-0.1,0c0,0-0.1,0-0.1,0
					c-0.1,0-0.1,0.1-0.1,0.1c0,0,0,0-0.1,0.1c0,0,0,0,0,0c0,0,0,0,0,0.1c0,0,0,0,0,0.1L7.5,222.5c0,0,0,0,0,0c0,0,0,0.1,0,0.1
					c0,0,0,0.1,0,0.1c0,0,0,0.1,0,0.1c0,0,0,0.1,0,0.1c0,0,0,0,0.1,0.1c0,0,0,0,0.1,0.1l0,0l57.1,33c0,0,0,0,0,0c0,0,0,0,0.1,0
					c0,0,0.1,0,0.1,0l0,0l0,0c0.1,0,0.2,0,0.3-0.1c0,0,0,0,0.1-0.1c0,0,0.1-0.1,0.1-0.1c0,0,0-0.1,0-0.1c0,0,0,0,0,0L77,213.2
					L77,213.2 M64.8,254.9L8.6,222.4l11.2-41.5L76,213.4L64.8,254.9z"/>
				<path class="st12" d="M84,259.2L84,259.2C84,259.2,84,259.2,84,259.2c0.1,0,0.1-0.1,0.1-0.1l1.6-0.9c0,0,0,0,0,0l0,0l0.1,0
					c0.1,0,0.1-0.1,0.2-0.1c0.5-0.4,0.8-1,0.8-1.7v-5.7l9.8-5.6c2.2-1.5,3.5-4,3.5-6.6v-31.3c0.1-1.2-0.4-2.3-1.4-3.1
					c-0.8-0.4-1.8-0.4-2.6,0.2l-10.2,5.9c-1.8,1.3-3,3.2-3.4,5.4c-2,9.1-9.4,36.4-9.5,36.7c-0.3,1.9,0.1,3.5,1.1,4.2
					c0.4,0.3,0.8,0.4,1.2,0.4c0.5,0,1.1-0.2,1.5-0.5l0.6-0.3c0.2,0.2,0.4,0.4,0.7,0.5l4.4,2.5c0.3,0.2,0.6,0.3,0.9,0.3
					C83.6,259.3,83.8,259.3,84,259.2C83.9,259.2,84,259.2,84,259.2 M76.3,255.5c-0.5,0.4-1.2,0.4-1.7,0.1c-0.7-0.5-1-1.7-0.7-3.2
					c0-0.1,0.9-3.4,2.2-8.1v8.4c0,0.8,0.3,1.7,0.7,2.4L76.3,255.5z M85.7,256.3c0,0.4-0.2,0.8-0.6,1l-0.3,0.2c0-0.1,0-0.1,0-0.2
					v-11.1c0-1.5-0.8-2.9-2-3.7l-4.2-2.4l0.7-0.4c0.2,0,0.4,0,0.5,0.1l4.4,2.5c0.9,0.7,1.5,1.7,1.5,2.9L85.7,256.3z M83.4,215.7
					c0.3-1.9,1.4-3.6,2.9-4.8l10.2-5.9c0.5-0.3,1.1-0.4,1.6-0.2c0.7,0.5,1,1.4,0.9,2.2v31.3c0,2.3-1.1,4.4-3,5.8l-9.3,5.4v-4.3
					c0-1.5-0.8-2.9-2-3.7l-4.4-2.5c-0.3-0.2-0.6-0.3-1-0.2c-0.1,0-0.3,0-0.4,0l-1.7,0.9C79.6,231.1,82.3,220.7,83.4,215.7
					 M83.9,257.3c0,0.4-0.1,0.7-0.3,1l0,0c-0.2,0.1-0.4,0-0.6-0.1l-4.4-2.5c-0.2-0.1-0.5-0.3-0.6-0.6l0,0l0,0
					c-0.5-0.7-0.8-1.5-0.9-2.3v-11.2c0-0.3,0.1-0.7,0.3-0.9l0.1,0c0.2-0.1,0.4,0,0.6,0.1l4.4,2.5c0.9,0.7,1.5,1.7,1.5,2.9
					L83.9,257.3z"/>
				<path class="st12" d="M61.8,273.9l-6.7-3.9c-0.4-0.3-0.9-0.3-1.4-0.1c-0.5,0.3-0.8,0.9-0.7,1.5v18c0,1.2,0.6,2.3,1.6,3l0,0
					l6.7,3.9c0.2,0.1,0.5,0.2,0.8,0.2c0.2,0,0.4-0.1,0.6-0.2c0.5-0.3,0.8-0.9,0.7-1.5v-18C63.3,275.7,62.7,274.6,61.8,273.9
					 M62.4,294.9c0,0.4-0.1,0.6-0.2,0.6c-0.1,0.1-0.3,0-0.4-0.1l-6.7-3.9c-0.7-0.5-1.1-1.3-1.1-2.1v-18c0-0.4,0.1-0.6,0.2-0.6
					c0.1-0.1,0.3,0,0.4,0.1l6.7,3.9c0.7,0.5,1.1,1.3,1.1,2.1L62.4,294.9z"/>
				<path class="st12" d="M58.4,274.3c-0.8-0.5-1.8-0.6-2.7-0.2c-1,0.7-1.5,1.9-1.4,3.1c0,2.7,1.4,5.2,3.6,6.7
					c0.5,0.3,1,0.4,1.6,0.5c0.4,0,0.8-0.1,1.1-0.3c1-0.7,1.5-1.9,1.4-3.1C62,278.4,60.6,275.9,58.4,274.3 M60.1,283.3
					c-0.6,0.2-1.2,0.2-1.7-0.2c-1.9-1.4-3-3.6-3.1-5.9c-0.1-0.9,0.2-1.7,0.9-2.3c0.2-0.1,0.4-0.2,0.6-0.2c0.4,0,0.7,0.1,1.1,0.3
					c1.9,1.4,3,3.6,3.1,5.9C61.1,281.9,60.8,282.8,60.1,283.3"/>
				<path class="st12" d="M58.4,285.2c-0.6-0.4-1.4-0.5-2-0.1c-0.7,0.5-1.2,1.4-1.1,2.3c0,2,1,3.8,2.6,5c0.4,0.2,0.8,0.3,1.2,0.4
					c0.3,0,0.6-0.1,0.9-0.2c0.7-0.5,1.1-1.4,1.1-2.3C61,288.2,60,286.4,58.4,285.2 M59.5,291.7c-0.4,0.1-0.8,0.1-1.1-0.1
					c-1.3-1-2.1-2.5-2.1-4.1c-0.1-0.6,0.1-1.1,0.6-1.5c0.1-0.1,0.2-0.1,0.4-0.1c0.2,0,0.5,0.1,0.7,0.2c1.3,1,2.1,2.5,2.1,4.1
					C60.1,290.7,59.9,291.3,59.5,291.7"/>
				<path class="st12" d="M14,246.4l-6.7-3.9c-0.4-0.3-0.9-0.3-1.4-0.1c-0.5,0.3-0.8,0.9-0.7,1.5v18c0,1.2,0.6,2.3,1.6,3l6.7,3.9
					c0.2,0.1,0.5,0.2,0.8,0.2c0.2,0,0.4-0.1,0.6-0.2c0.5-0.3,0.8-0.9,0.7-1.5v-18C15.5,248.2,14.9,247.1,14,246.4 M14.6,267.3
					c0,0.4-0.1,0.6-0.2,0.6c-0.1,0.1-0.3,0-0.4-0.1L7.3,264c-0.7-0.5-1.1-1.3-1.1-2.1v-18c0-0.4,0.1-0.6,0.2-0.6c0,0,0.1,0,0.1,0
					c0.1,0,0.2,0,0.3,0.1l6.7,3.9c0.7,0.5,1.1,1.3,1.1,2.1L14.6,267.3z"/>
				<path class="st12" d="M10.6,246.8c-0.8-0.5-1.8-0.6-2.7-0.2c-1,0.7-1.5,1.9-1.4,3.1c0,2.7,1.4,5.2,3.6,6.7
					c0.5,0.3,1,0.4,1.6,0.5c0.4,0,0.8-0.1,1.1-0.3c1-0.7,1.5-1.9,1.4-3.1C14.1,250.9,12.8,248.3,10.6,246.8 M12.3,255.8
					c-0.6,0.2-1.2,0.2-1.7-0.2c-1.9-1.4-3-3.6-3.1-5.9c-0.1-0.9,0.2-1.7,0.9-2.3c0.2-0.1,0.4-0.2,0.6-0.2c0.4,0,0.7,0.1,1.1,0.3
					c1.9,1.4,3,3.6,3.1,5.9C13.3,254.4,13,255.2,12.3,255.8"/>
				<path class="st12" d="M10.6,257.7c-0.6-0.4-1.4-0.5-2-0.1c-0.7,0.5-1.2,1.4-1.1,2.3c0,2,1,3.8,2.6,5c0.4,0.2,0.8,0.3,1.2,0.4
					c0.3,0,0.6-0.1,0.9-0.2c0.7-0.5,1.2-1.4,1.1-2.3C13.2,260.7,12.2,258.9,10.6,257.7 M11.7,264.2c-0.4,0.1-0.8,0.1-1.1-0.1
					c-1.3-1-2.1-2.5-2.1-4.1c-0.1-0.6,0.1-1.1,0.6-1.5c0.1-0.1,0.2-0.1,0.4-0.1c0.2,0,0.5,0.1,0.7,0.2c1.3,1,2.1,2.5,2.1,4.1
					C12.3,263.2,12.1,263.8,11.7,264.2"/>
				<path class="st12" d="M115.8,280.8c-1.2-0.6-2.5-0.5-3.6,0.3c-2.8,1.6-5,5.9-5,9.5c0,2,0.7,3.6,1.9,4.3c0.4,0.3,1,0.4,1.5,0.4
					c0.8,0,1.5-0.2,2.1-0.6c2.8-1.6,5-5.9,5-9.5C117.7,283,117,281.5,115.8,280.8 M112.2,293.8c-0.8,0.6-1.8,0.7-2.6,0.3
					c-0.9-0.5-1.4-1.8-1.4-3.4c0-3.3,2-7.2,4.5-8.7c0.5-0.3,1.1-0.5,1.6-0.5c0.3,0,0.7,0.1,1,0.3c0.9,0.5,1.4,1.8,1.4,3.4
					C116.7,288.4,114.7,292.3,112.2,293.8"/>
				<path class="st12" d="M118.4,275.4c-1.7-1-3.9-0.8-6.2,0.5c-4.9,2.8-8.9,10.5-8.9,17c0,3.5,1.2,6.2,3.2,7.4
					c0.8,0.4,1.6,0.7,2.5,0.6c1.3,0,2.6-0.4,3.7-1.1c4.9-2.8,8.9-10.5,8.9-17C121.6,279.3,120.4,276.6,118.4,275.4 M112.2,299
					c-1.9,1.1-3.8,1.3-5.2,0.5c-1.8-1-2.8-3.4-2.8-6.6c0-6.2,3.8-13.5,8.4-16.1c1-0.6,2.1-0.9,3.2-1c0.7,0,1.4,0.2,2,0.5
					c1.8,1,2.8,3.4,2.8,6.6C120.6,289,116.9,296.3,112.2,299"/>
				<path class="st12" d="M112.5,280.1c0.6-0.4,0.9-1,0.9-1.7c0-0.7-0.4-1-0.9-0.7c-0.6,0.4-0.9,1-0.9,1.7
					C111.6,280.1,112,280.4,112.5,280.1"/>
				<path class="st12" d="M112.5,295.5c-0.6,0.4-0.9,1-0.9,1.7c0,0.7,0.4,1,0.9,0.7c0.6-0.4,0.9-1,0.9-1.7
					C113.4,295.5,113,295.2,112.5,295.5"/>
				<path class="st12" d="M105.8,290.5c-0.6,0.4-0.9,1-0.9,1.7c0,0.7,0.4,1,0.9,0.7c0.6-0.4,0.9-1,0.9-1.7
					C106.7,290.5,106.3,290.2,105.8,290.5"/>
				<path class="st12" d="M119.1,285.2c0.6-0.4,0.9-1,0.9-1.7c0-0.7-0.4-1-0.9-0.7c-0.6,0.4-0.9,1-0.9,1.7
					C118.2,285.1,118.6,285.5,119.1,285.2"/>
				<path class="st12" d="M108.4,284.7c0.4-0.7,0.4-1.4,0-1.7c-0.4-0.3-0.9,0.1-1.3,0.7s-0.4,1.4,0,1.7
					C107.5,285.7,108,285.4,108.4,284.7"/>
				<path class="st12" d="M116.5,290.9c-0.4,0.7-0.4,1.4,0,1.7c0.4,0.3,0.9-0.1,1.3-0.7c0.4-0.7,0.3-1.4,0-1.7
					C117.5,289.9,116.9,290.2,116.5,290.9"/>
				<path class="st12" d="M107.1,296.4c-0.4,0.7-0.4,1.4,0,1.7c0.4,0.3,0.9-0.1,1.3-0.7c0.3-0.7,0.4-1.4,0-1.7
					C108,295.4,107.5,295.7,107.1,296.4"/>
				<path class="st12" d="M116.5,278.3c-0.4,0.7-0.4,1.4,0,1.7c0.4,0.3,0.9-0.1,1.3-0.7c0.4-0.7,0.3-1.4,0-1.7
					C117.5,277.3,116.9,277.7,116.5,278.3"/>
				<path class="st12" d="M293.7,178.2c-1.2-0.6-2.5-0.5-3.6,0.3c-2.8,1.6-5,5.9-5,9.5c0,2,0.7,3.6,1.9,4.3c0.4,0.3,1,0.4,1.5,0.4
					c0.8,0,1.5-0.2,2.1-0.6c2.8-1.6,5-5.9,5-9.5C295.6,180.4,294.9,178.9,293.7,178.2 M290.1,191.2c-0.8,0.6-1.8,0.7-2.6,0.3
					c-0.9-0.5-1.4-1.8-1.4-3.4c0-3.3,2-7.2,4.5-8.7c0.5-0.3,1.1-0.5,1.6-0.5c0.3,0,0.7,0.1,1,0.3c0.9,0.5,1.4,1.8,1.4,3.4
					C294.6,185.8,292.6,189.7,290.1,191.2"/>
				<path class="st12" d="M296.3,172.8c-1.7-1-3.9-0.8-6.2,0.5c-4.9,2.8-8.9,10.5-8.9,17c0,3.5,1.2,6.2,3.2,7.4
					c0.8,0.4,1.6,0.7,2.5,0.6c1.3,0,2.6-0.4,3.7-1.1c4.9-2.8,8.9-10.5,8.9-17C299.5,176.7,298.3,174,296.3,172.8 M290.1,196.4
					c-1.9,1.1-3.8,1.3-5.2,0.5c-1.8-1-2.8-3.4-2.8-6.6c0-6.2,3.8-13.5,8.4-16.1c1-0.6,2.1-0.9,3.2-1c0.7,0,1.4,0.2,2,0.5
					c1.7,1,2.8,3.4,2.8,6.6C298.5,186.4,294.7,193.7,290.1,196.4"/>
				<path class="st12" d="M290.3,177.5c0.6-0.4,0.9-1,0.9-1.7c0-0.7-0.4-1-0.9-0.7c-0.6,0.4-0.9,1-0.9,1.7
					C289.4,177.5,289.8,177.8,290.3,177.5"/>
				<path class="st12" d="M290.3,192.9c-0.6,0.4-0.9,1-0.9,1.7c0,0.7,0.4,1,0.9,0.7c0.6-0.4,0.9-1,0.9-1.7
					C291.2,192.9,290.8,192.6,290.3,192.9"/>
				<path class="st12" d="M283.7,187.9c-0.6,0.4-0.9,1-0.9,1.7c0,0.7,0.4,1,0.9,0.7c0.6-0.4,0.9-1,0.9-1.7
					C284.6,187.9,284.2,187.6,283.7,187.9"/>
				<path class="st12" d="M297,182.6c0.6-0.4,0.9-1,0.9-1.7c0-0.7-0.4-1-0.9-0.7c-0.6,0.4-0.9,1-0.9,1.7
					C296.1,182.6,296.5,182.9,297,182.6"/>
				<path class="st12" d="M286.2,182.1c0.4-0.7,0.4-1.4,0-1.7c-0.4-0.3-0.9,0.1-1.3,0.7c-0.3,0.7-0.4,1.4,0,1.7
					C285.3,183.1,285.9,182.8,286.2,182.1"/>
				<path class="st12" d="M294.4,188.3c-0.4,0.7-0.4,1.4,0,1.7c0.4,0.3,0.9-0.1,1.3-0.7c0.4-0.7,0.3-1.4,0-1.7
					S294.8,187.6,294.4,188.3"/>
				<path class="st12" d="M285,193.8c-0.4,0.7-0.4,1.4,0,1.7c0.4,0.3,0.9-0.1,1.3-0.7s0.4-1.4,0-1.7
					C285.9,192.8,285.3,193.1,285,193.8"/>
				<path class="st12" d="M294.4,175.7c-0.4,0.7-0.4,1.4,0,1.7c0.4,0.3,0.9-0.1,1.3-0.7c0.4-0.7,0.3-1.4,0-1.7
					S294.8,175.1,294.4,175.7"/>
				<path class="st12" d="M319.8,161.5c-2.8,1.6-5,5.9-5,9.5c0,2,0.7,3.6,1.9,4.3c0.4,0.3,1,0.4,1.5,0.4c0.8,0,1.5-0.2,2.1-0.6
					c2.8-1.6,5-5.9,5-9.5c0-2-0.7-3.6-1.9-4.3C322.2,160.6,320.8,160.7,319.8,161.5 M324.3,165.5c0,3.3-2,7.2-4.5,8.7
					c-0.8,0.6-1.8,0.7-2.6,0.3c-0.9-0.5-1.4-1.8-1.4-3.4c0-3.3,2-7.2,4.5-8.7c0.5-0.3,1.1-0.5,1.6-0.5c0.3,0,0.7,0.1,1,0.3
					C323.8,162.6,324.3,163.8,324.3,165.5"/>
				<path class="st12" d="M319.8,156.3c-4.9,2.8-8.9,10.5-8.9,17c0,3.5,1.2,6.2,3.2,7.4c0.8,0.4,1.6,0.7,2.5,0.6
					c1.3,0,2.6-0.4,3.7-1.1c4.9-2.8,8.9-10.5,8.9-17c0-3.5-1.2-6.2-3.2-7.4C324.2,154.8,322,155,319.8,156.3 M328.2,163.2
					c0,6.2-3.8,13.5-8.4,16.1c-1.9,1.1-3.8,1.3-5.2,0.5c-1.7-1-2.8-3.4-2.8-6.6c0-6.2,3.8-13.5,8.4-16.1c1-0.6,2.1-0.9,3.2-1
					c0.7,0,1.4,0.2,2,0.5C327.2,157.7,328.2,160.1,328.2,163.2"/>
				<path class="st12" d="M320,160.5c0.6-0.4,0.9-1,0.9-1.7c0-0.7-0.4-1-0.9-0.7c-0.6,0.4-0.9,1-0.9,1.7
					C319.1,160.5,319.5,160.8,320,160.5"/>
				<path class="st12" d="M320,175.9c-0.6,0.4-0.9,1-0.9,1.7c0,0.7,0.4,1,0.9,0.7c0.6-0.4,0.9-1,0.9-1.7
					C320.9,176,320.5,175.7,320,175.9"/>
				<path class="st12" d="M313.3,170.9c-0.6,0.4-0.9,1-0.9,1.7c0,0.7,0.4,1,0.9,0.7c0.6-0.4,0.9-1,0.9-1.7
					C314.2,170.9,313.8,170.6,313.3,170.9"/>
				<path class="st12" d="M326.7,165.6c0.6-0.4,0.9-1,0.9-1.7c0-0.7-0.4-1-0.9-0.7c-0.6,0.4-0.9,1-0.9,1.7
					C325.8,165.6,326.2,165.9,326.7,165.6"/>
				<path class="st12" d="M315.9,165.2c0.4-0.7,0.4-1.4,0-1.7c-0.4-0.3-0.9,0.1-1.3,0.7s-0.4,1.4,0,1.7
					C315,166.1,315.6,165.8,315.9,165.2"/>
				<path class="st12" d="M324.1,171.3c-0.4,0.7-0.4,1.4,0,1.7c0.4,0.3,0.9-0.1,1.3-0.7s0.4-1.4,0-1.7
					C325,170.3,324.4,170.7,324.1,171.3"/>
				<path class="st12" d="M314.6,176.8c-0.4,0.7-0.4,1.4,0,1.7s0.9-0.1,1.3-0.7s0.3-1.4,0-1.7S315,176.1,314.6,176.8"/>
				<path class="st12" d="M325.3,159.7c0.4-0.7,0.4-1.4,0-1.7c-0.4-0.3-0.9,0.1-1.3,0.7s-0.4,1.4,0,1.7
					C324.4,160.7,325,160.4,325.3,159.7"/>
				<path class="st12" d="M149.4,260.5c-1.2-0.6-2.5-0.5-3.6,0.3c-2.8,1.6-5,5.9-5,9.5c0,2,0.7,3.6,1.9,4.3c0.4,0.3,1,0.4,1.5,0.4
					c0.8,0,1.5-0.2,2.1-0.6c2.8-1.6,5-5.9,5-9.5C151.3,262.8,150.6,261.2,149.4,260.5 M145.8,273.5c-0.8,0.6-1.8,0.7-2.6,0.3
					c-0.9-0.5-1.4-1.8-1.4-3.4c0-3.3,2-7.2,4.5-8.7c0.5-0.3,1.1-0.5,1.6-0.5c0.3,0,0.7,0.1,1,0.3c0.9,0.5,1.4,1.8,1.4,3.4
					C150.3,268.1,148.3,272,145.8,273.5"/>
				<path class="st12" d="M151.9,255.1c-1.7-1-3.9-0.8-6.2,0.5c-4.9,2.8-8.9,10.5-8.9,17c0,3.5,1.2,6.2,3.2,7.4
					c0.8,0.4,1.6,0.7,2.5,0.6c1.3,0,2.6-0.4,3.7-1.1c4.9-2.8,8.9-10.5,8.9-17C155.2,259,154,256.3,151.9,255.1 M145.8,278.7
					c-1.9,1.1-3.8,1.3-5.2,0.5c-1.8-1-2.8-3.4-2.8-6.6c0-6.2,3.8-13.5,8.4-16.1c1-0.6,2.1-0.9,3.2-1c0.7,0,1.4,0.2,2,0.5
					c1.8,1,2.8,3.4,2.8,6.6C154.2,268.8,150.4,276,145.8,278.7"/>
				<path class="st12" d="M146,259.8c0.6-0.4,0.9-1,0.9-1.7c0-0.7-0.4-1-0.9-0.7c-0.6,0.4-0.9,1-0.9,1.7
					C145.1,259.8,145.5,260.1,146,259.8"/>
				<path class="st12" d="M146,275.2c-0.6,0.4-0.9,1-0.9,1.7c0,0.7,0.4,1,0.9,0.7c0.6-0.4,0.9-1,0.9-1.7
					C146.9,275.3,146.5,275,146,275.2"/>
				<path class="st12" d="M139.3,270.2c-0.6,0.4-0.9,1-0.9,1.7c0,0.7,0.4,1,0.9,0.7c0.6-0.4,0.9-1,0.9-1.7
					C140.2,270.2,139.8,269.9,139.3,270.2"/>
				<path class="st12" d="M152.7,264.9c0.6-0.4,0.9-1,0.9-1.7c0-0.7-0.4-1-0.9-0.7c-0.6,0.4-0.9,1-0.9,1.7
					C151.8,264.9,152.2,265.2,152.7,264.9"/>
				<path class="st12" d="M141.9,264.5c0.4-0.7,0.4-1.4,0-1.7s-0.9,0.1-1.3,0.7c-0.3,0.7-0.4,1.4,0,1.7S141.6,265.1,141.9,264.5"/>
				<path class="st12" d="M150.1,270.6c-0.4,0.7-0.4,1.4,0,1.7c0.4,0.3,0.9-0.1,1.3-0.7c0.3-0.7,0.4-1.4,0-1.7
					C151,269.6,150.4,270,150.1,270.6"/>
				<path class="st12" d="M140.7,276.1c-0.4,0.7-0.4,1.4,0,1.7s0.9-0.1,1.3-0.7c0.3-0.7,0.4-1.4,0-1.7S141,275.4,140.7,276.1"/>
				<path class="st12" d="M150.1,258c-0.4,0.7-0.4,1.4,0,1.7c0.4,0.3,0.9-0.1,1.3-0.7s0.4-1.4,0-1.7S150.4,257.4,150.1,258"/>
				<path class="st12" d="M179,243.5c-1.2-0.6-2.5-0.5-3.6,0.3c-2.8,1.6-5,5.9-5,9.5c0,2,0.7,3.6,1.9,4.3c0.4,0.3,1,0.4,1.5,0.4
					c0.8,0,1.5-0.2,2.1-0.6c2.8-1.6,5-5.9,5-9.5C180.9,245.8,180.2,244.2,179,243.5 M175.4,256.5c-0.8,0.6-1.8,0.7-2.6,0.3
					c-0.9-0.5-1.4-1.8-1.4-3.4c0-3.3,2-7.2,4.5-8.7c0.5-0.3,1.1-0.5,1.6-0.5c0.3,0,0.7,0.1,1,0.3c0.9,0.5,1.4,1.8,1.4,3.4
					C180,251.2,177.9,255,175.4,256.5"/>
				<path class="st12" d="M181.6,238.1c-1.7-1-3.9-0.8-6.2,0.5c-4.9,2.8-8.9,10.5-8.9,17c0,3.5,1.2,6.2,3.2,7.4
					c0.8,0.4,1.6,0.7,2.5,0.6c1.3,0,2.6-0.4,3.7-1.1c4.9-2.8,8.9-10.5,8.9-17C184.8,242,183.7,239.3,181.6,238.1 M175.4,261.7
					c-1.9,1.1-3.8,1.3-5.2,0.5c-1.8-1-2.8-3.4-2.8-6.6c0-6.2,3.8-13.5,8.4-16.1c1-0.6,2.1-0.9,3.2-1c0.7,0,1.4,0.2,2,0.5
					c1.8,1,2.8,3.4,2.8,6.6C183.9,251.8,180.1,259,175.4,261.7"/>
				<path class="st12" d="M175.7,242.9c0.6-0.4,0.9-1,0.9-1.7c0-0.7-0.4-1-0.9-0.7c-0.6,0.4-0.9,1-0.9,1.7
					C174.8,242.8,175.2,243.1,175.7,242.9"/>
				<path class="st12" d="M175.7,258.3c-0.6,0.4-0.9,1-0.9,1.7c0,0.7,0.4,1,0.9,0.7c0.6-0.4,0.9-1,0.9-1.7
					C176.6,258.3,176.2,258,175.7,258.3"/>
				<path class="st12" d="M169,253.2c-0.6,0.4-0.9,1-0.9,1.7c0,0.7,0.4,1,0.9,0.7c0.6-0.4,0.9-1,0.9-1.7
					C169.9,253.2,169.5,252.9,169,253.2"/>
				<path class="st12" d="M182.3,247.9c0.6-0.4,0.9-1,0.9-1.7c0-0.7-0.4-1-0.9-0.7c-0.6,0.4-0.9,1-0.9,1.7
					C181.4,247.9,181.8,248.2,182.3,247.9"/>
				<path class="st12" d="M171.6,247.5c0.4-0.7,0.4-1.4,0-1.7s-0.9,0.1-1.3,0.7s-0.4,1.4,0,1.7S171.2,248.1,171.6,247.5"/>
				<path class="st12" d="M179.8,253.6c-0.4,0.7-0.4,1.4,0,1.7s0.9-0.1,1.3-0.7s0.4-1.4,0-1.7S180.1,253,179.8,253.6"/>
				<path class="st12" d="M170.3,259.1c-0.4,0.7-0.4,1.4,0,1.7c0.4,0.3,0.9-0.1,1.3-0.7c0.3-0.7,0.4-1.4,0-1.7
					C171.2,258.1,170.7,258.4,170.3,259.1"/>
				<path class="st12" d="M179.8,241.1c-0.4,0.7-0.4,1.4,0,1.7s0.9-0.1,1.3-0.7s0.4-1.4,0-1.7S180.1,240.4,179.8,241.1"/>
				<path class="st12" d="M320.6,133c0.1,0,0.2,0.1,0.2,0.1c0.1,0,0.2,0,0.2-0.1l7.7-4.4c0.2-0.1,0.2-0.2,0.2-0.4v-5.6
					c0-0.3-0.2-0.5-0.5-0.5c-0.1,0-0.2,0-0.2,0.1l-7.7,4.4c-0.2,0.1-0.2,0.2-0.2,0.4v5.6C320.4,132.8,320.5,132.9,320.6,133
					 M321.4,127.2l6.7-3.9v4.5l-6.7,3.9V127.2z"/>
				<path class="st12" d="M91.5,279.9l-7.7,4.4c-0.2,0.1-0.2,0.2-0.2,0.4v5.6c0,0.2,0.1,0.3,0.2,0.4c0.2,0.1,0.3,0.1,0.5,0l7.7-4.4
					c0.2-0.1,0.2-0.2,0.2-0.4v-5.6c0-0.2-0.1-0.3-0.2-0.4C91.8,279.8,91.6,279.8,91.5,279.9 M91.2,285.7l-6.7,3.9V285l6.7-3.9V285.7
					z"/>
				<path class="st12" d="M21,174.5l0.6,0.3c0.1,0,0.2,0.1,0.2,0.1c0.3,0,0.5-0.2,0.5-0.5c0-0.2-0.1-0.3-0.2-0.4l-0.6-0.3
					c-0.2-0.1-0.5,0-0.7,0.2C20.7,174.1,20.8,174.4,21,174.5"/>
				<path class="st12" d="M64.8,199.8l1.1,0.7c0.1,0,0.2,0.1,0.2,0.1c0.3,0,0.5-0.2,0.5-0.5c0-0.2-0.1-0.3-0.2-0.4l-1.1-0.7
					c-0.2-0.1-0.5-0.1-0.7,0.2C64.5,199.3,64.5,199.6,64.8,199.8C64.8,199.8,64.8,199.8,64.8,199.8"/>
				<path class="st12" d="M40.9,186l1.1,0.7c0.1,0,0.2,0.1,0.2,0.1c0.3,0,0.5-0.2,0.5-0.5c0-0.2-0.1-0.3-0.2-0.4l-1.1-0.7
					c-0.2-0.1-0.5-0.1-0.7,0.2C40.6,185.5,40.7,185.8,40.9,186C40.9,186,40.9,186,40.9,186"/>
				<path class="st12" d="M37.5,184l1.1,0.7c0.1,0,0.2,0.1,0.2,0.1c0.3,0,0.5-0.2,0.5-0.5c0-0.2-0.1-0.3-0.2-0.4l-1.1-0.7
					c-0.2-0.1-0.5-0.1-0.7,0.2C37.2,183.6,37.2,183.9,37.5,184C37.5,184,37.5,184,37.5,184"/>
				<path class="st12" d="M47.7,190l1.1,0.7c0.1,0,0.2,0.1,0.2,0.1c0.3,0,0.5-0.2,0.5-0.5c0-0.2-0.1-0.3-0.2-0.4l-1.1-0.7
					c-0.2-0.1-0.5-0.1-0.7,0.2C47.4,189.5,47.5,189.8,47.7,190C47.7,189.9,47.7,189.9,47.7,190"/>
				<path class="st12" d="M44.3,188l1.1,0.7c0.1,0,0.2,0.1,0.2,0.1c0.3,0,0.5-0.2,0.5-0.5c0-0.2-0.1-0.3-0.2-0.4l-1.1-0.7
					c-0.2-0.1-0.5,0-0.7,0.2C44,187.6,44.1,187.8,44.3,188"/>
				<path class="st12" d="M27.3,178.1l1.1,0.7c0.1,0,0.2,0.1,0.2,0.1c0.3,0,0.5-0.2,0.5-0.5c0-0.2-0.1-0.3-0.2-0.4l-1.1-0.7
					c-0.2-0.1-0.5,0-0.7,0.2C27,177.7,27.1,178,27.3,178.1"/>
				<path class="st12" d="M30.7,180.1l1.1,0.7c0.1,0,0.2,0.1,0.2,0.1c0.3,0,0.5-0.2,0.5-0.5c0-0.2-0.1-0.3-0.2-0.4l-1.1-0.7
					c-0.2-0.1-0.5,0-0.7,0.2C30.4,179.7,30.5,180,30.7,180.1"/>
				<path class="st12" d="M34.1,182.1l1.1,0.7c0.1,0,0.2,0.1,0.2,0.1c0.3,0,0.5-0.2,0.5-0.5c0-0.2-0.1-0.3-0.2-0.4l-1.1-0.7
					c-0.2-0.1-0.5,0-0.7,0.2C33.8,181.7,33.9,181.9,34.1,182.1"/>
				<path class="st12" d="M75,205.7l1.1,0.7c0.1,0,0.2,0.1,0.2,0.1c0.3,0,0.5-0.2,0.5-0.5c0-0.2-0.1-0.3-0.2-0.4l-1.1-0.7
					c-0.2-0.1-0.5,0-0.7,0.2C74.7,205.3,74.8,205.6,75,205.7"/>
				<path class="st12" d="M71.6,203.7l1.1,0.7c0.1,0,0.2,0.1,0.2,0.1c0.3,0,0.5-0.2,0.5-0.5c0-0.2-0.1-0.3-0.2-0.4l-1.1-0.7
					c-0.2-0.1-0.5,0-0.7,0.2C71.3,203.3,71.4,203.6,71.6,203.7"/>
				<path class="st12" d="M51.2,191.9l1.1,0.7c0.1,0,0.2,0.1,0.2,0.1c0.3,0,0.5-0.2,0.5-0.5c0-0.2-0.1-0.3-0.2-0.4l-1.1-0.7
					c-0.2-0.1-0.5-0.1-0.7,0.2S50.9,191.8,51.2,191.9C51.1,191.9,51.1,191.9,51.2,191.9"/>
				<path class="st12" d="M68.2,201.8l1.1,0.7c0.1,0,0.2,0.1,0.2,0.1c0.3,0,0.5-0.2,0.5-0.5c0-0.2-0.1-0.3-0.2-0.4l-1.1-0.7
					c-0.2-0.1-0.5-0.1-0.7,0.2C67.9,201.3,67.9,201.6,68.2,201.8C68.2,201.7,68.2,201.8,68.2,201.8"/>
				<path class="st12" d="M23.9,176.2l1.1,0.7c0.1,0,0.2,0.1,0.2,0.1c0.3,0,0.5-0.2,0.5-0.5c0-0.2-0.1-0.3-0.2-0.4l-1.1-0.7
					c-0.2-0.1-0.5-0.1-0.7,0.2C23.5,175.7,23.6,176,23.9,176.2C23.8,176.2,23.9,176.2,23.9,176.2"/>
				<path class="st12" d="M54.6,193.9l1.1,0.7c0.1,0,0.2,0.1,0.2,0.1c0.3,0,0.5-0.2,0.5-0.5c0-0.2-0.1-0.3-0.2-0.4L55,193
					c-0.2-0.1-0.5-0.1-0.7,0.2C54.2,193.4,54.3,193.7,54.6,193.9C54.5,193.9,54.5,193.9,54.6,193.9"/>
				<path class="st12" d="M58,195.9l1.1,0.7c0.1,0,0.2,0.1,0.2,0.1c0.3,0,0.5-0.2,0.5-0.5c0-0.2-0.1-0.3-0.2-0.4l-1.1-0.7
					c-0.2-0.1-0.5-0.1-0.7,0.2C57.6,195.4,57.7,195.7,58,195.9C57.9,195.8,58,195.8,58,195.9"/>
				<path class="st12" d="M61.4,197.8l1.1,0.7c0.1,0,0.2,0.1,0.2,0.1c0.3,0,0.5-0.2,0.5-0.5c0-0.2-0.1-0.3-0.2-0.4l-1.1-0.7
					c-0.2-0.1-0.5,0-0.7,0.2C61.1,197.4,61.2,197.7,61.4,197.8"/>
				<path class="st12" d="M78.4,207.7L79,208c0.1,0,0.2,0.1,0.2,0.1c0.3,0,0.5-0.2,0.5-0.5c0-0.2-0.1-0.3-0.2-0.4l-0.6-0.3
					c-0.2-0.1-0.5-0.1-0.7,0.2S78.2,207.5,78.4,207.7C78.4,207.7,78.4,207.7,78.4,207.7"/>
				<path class="st3" d="M19.1,210.5c-0.3,0-0.5-0.2-0.5-0.5c0-0.2,0.1-0.3,0.2-0.4l18-10.3c0.2-0.1,0.5,0,0.7,0.2
					c0.1,0.2,0,0.5-0.2,0.7l-18,10.3C19.3,210.5,19.2,210.5,19.1,210.5"/>
				<path class="st3" d="M22.7,213.2c-0.3,0-0.5-0.2-0.5-0.5c0-0.2,0.1-0.3,0.2-0.4l13.8-7.9c0.2-0.1,0.5-0.1,0.7,0.2
					c0.1,0.2,0.1,0.5-0.2,0.7L23,213.2C22.9,213.2,22.8,213.2,22.7,213.2"/>
			</g>
		</g>
	</g>
	<g transform="translate(557.18 5241.475)">
		<path class="st6" d="M53,64.6l-3.6,2.1v8.2l3.6-2.1V64.6z"/>
		<path class="st3" d="M51.2,44l-5.8-3.3v6.4l5.8,3.3V44z"/>
		<g transform="translate(0 0)">
			<g>
				<defs>
					<rect id="SVGID_00000155851549200198970760000010131893176921639047_" x="0" y="0" width="105.7" height="120.1"/>
				</defs>
				<clipPath id="SVGID_00000134234134553150294180000017470047815586321548_">
					<use xlink:href="#SVGID_00000155851549200198970760000010131893176921639047_"  style="overflow:visible;"/>
				</clipPath>
				<g style="clip-path:url(#SVGID_00000134234134553150294180000017470047815586321548_);">
					<path class="st8" d="M56.7,58.3l24.3-14V15.8l-24.3,14V58.3z M57.8,30.8c0-0.2,0.1-0.3,0.2-0.4L79.4,18
						c0.2-0.1,0.5-0.1,0.7,0.2c0,0.1,0.1,0.2,0.1,0.2v24.9c0,0.2-0.1,0.3-0.2,0.4L58.5,56.1c-0.1,0-0.2,0.1-0.2,0.1
						c-0.1,0-0.2,0-0.2-0.1c-0.1-0.1-0.2-0.2-0.2-0.4L57.8,30.8z"/>
					<path class="st6" d="M72.8,34.5l3.6-2.1v-8.2l-3.6,2.1V34.5z"/>
					<path class="st6" d="M65.7,38.7l3.6-2.1v-8.2l-3.6,2.1V38.7z"/>
					<path class="st3" d="M80.5,15L56.3,1.1l-24.3,14L56.3,29L80.5,15z M34.9,15.5c-0.2-0.1-0.3-0.4-0.2-0.7c0-0.1,0.1-0.1,0.2-0.2
						L56.1,2.4c0.2-0.1,0.3-0.1,0.5,0l21.2,12.2c0.2,0.1,0.3,0.4,0.2,0.7c0,0.1-0.1,0.1-0.2,0.2L56.5,27.7c-0.2,0.1-0.3,0.1-0.5,0
						L34.9,15.5z"/>
					<path class="st3" d="M76.6,15L56.4,3.4L36.1,15.1l20.2,11.6L76.6,15z"/>
					<path class="st6" d="M45.9,68.8l-3.6,2.1v8.2l3.6-2.1V68.8z"/>
					<path class="st8" d="M55.8,83.4V59.6L35.4,71.5v23.8L55.8,83.4z M48.4,66.4c0-0.2,0.1-0.3,0.2-0.4l4.6-2.7
						c0.2-0.1,0.5-0.1,0.7,0.2c0,0.1,0.1,0.2,0.1,0.2v9.4c0,0.2-0.1,0.3-0.2,0.4l-4.6,2.7c-0.1,0-0.2,0.1-0.2,0.1
						c-0.1,0-0.2,0-0.2-0.1c-0.2-0.1-0.2-0.2-0.2-0.4L48.4,66.4z M41.3,70.6c0-0.2,0.1-0.3,0.2-0.4l4.6-2.7c0.2-0.1,0.5-0.1,0.7,0.2
						c0,0.1,0.1,0.2,0.1,0.2v9.4c0,0.2-0.1,0.3-0.2,0.4l-4.6,2.7c-0.2,0.1-0.3,0.1-0.5,0c-0.2-0.1-0.2-0.2-0.2-0.4L41.3,70.6z"/>
					<path class="st8" d="M33.4,70.3v28.4l24.3-14V58.9l-0.9,0.5v24.3c0,0.2-0.1,0.3-0.2,0.4L35.1,96.5c-0.1,0-0.2,0.1-0.2,0.1
						c-0.1,0-0.2,0-0.2-0.1c-0.2-0.1-0.2-0.2-0.2-0.4V71.2c0-0.2,0.1-0.3,0.2-0.4L55,59l-1-0.6L33.4,70.3z"/>
					<path class="st6" d="M91.1,66.3l3.6-2.1V56l-3.6,2.1V66.3z"/>
					<path class="st6" d="M84,70.5l3.6-2.1v-8.2L84,62.3V70.5z"/>
					<path class="st3" d="M96.4,46.8c0,0.2-0.1,0.3-0.2,0.4L74.9,59.5c-0.2,0.1-0.3,0.1-0.5,0l-8.9-5.1l-1,0.6l10.2,5.9l24.3-14
						L82,37v1.2l14.2,8.2C96.3,46.4,96.4,46.6,96.4,46.8"/>
					<path class="st3" d="M74.7,58.5L95,46.8L82,39.3v5.2c0,0,0,0,0,0.1c0,0,0,0.1,0,0.1c0,0,0,0.1,0,0.1c0,0,0,0.1-0.1,0.1
						c0,0,0,0-0.1,0.1c0,0,0,0,0,0l-15.3,8.8L74.7,58.5z"/>
					<path class="st8" d="M97.5,51L77.1,62.8v23.8l20.4-11.8V51z M88.6,68.7c0,0.2-0.1,0.3-0.2,0.4l-4.6,2.7c-0.1,0-0.2,0.1-0.2,0.1
						c-0.3,0-0.5-0.2-0.5-0.5V62c0-0.2,0.1-0.3,0.2-0.4l4.6-2.7c0.2-0.1,0.5-0.1,0.7,0.2c0,0.1,0.1,0.2,0.1,0.2L88.6,68.7z
						 M95.7,64.5c0,0.2-0.1,0.3-0.2,0.4l-4.6,2.7c-0.2,0.1-0.3,0.1-0.5,0c-0.2-0.1-0.2-0.2-0.2-0.4v-9.4c0-0.2,0.1-0.3,0.2-0.4
						l4.6-2.7c0.2-0.1,0.5-0.1,0.7,0.2c0,0.1,0.1,0.2,0.1,0.2V64.5z"/>
					<path class="st2" d="M61.4,56.7l-2.8,1.6v20.6l13.4,7.8V62.8L61.4,56.7z M70.6,83.1c0,0.3-0.2,0.5-0.5,0.5
						c-0.1,0-0.2,0-0.2-0.1l-6.8-3.9c-0.2-0.1-0.2-0.2-0.2-0.4v-7.5c0-0.3,0.2-0.5,0.5-0.5c0.1,0,0.2,0,0.2,0.1l6.8,3.9
						c0.2,0.1,0.2,0.2,0.2,0.4L70.6,83.1z"/>
					<path class="st8" d="M75.1,90l24.3-14V47.6l-24.3,14V90z M76.1,62.6c0-0.2,0.1-0.3,0.2-0.4l21.4-12.4c0.2-0.1,0.5-0.1,0.7,0.2
						c0,0.1,0.1,0.2,0.1,0.2v24.9c0,0.2-0.1,0.3-0.2,0.4L76.9,87.9c-0.2,0.1-0.3,0.1-0.5,0c-0.2-0.1-0.2-0.2-0.2-0.4L76.1,62.6z"/>
					<path class="st3" d="M63.8,78.9l5.8,3.3v-6.4l-5.8-3.3L63.8,78.9z"/>
					<path class="st2" d="M58.6,81.1l15.5,8.9V61.6l-10.6-6.1c0,0,0,0-0.1-0.1l-1.1,0.6l10.4,6c0.2,0.1,0.2,0.2,0.2,0.4v24.9
						c0,0.2-0.1,0.3-0.2,0.4c-0.1,0-0.2,0.1-0.2,0.1c-0.1,0-0.2,0-0.2-0.1L58.6,80L58.6,81.1z"/>
					<path class="st8" d="M79.2,19.3L58.7,31.1v23.8L79.2,43V19.3z M70.3,36.9c0,0.2-0.1,0.3-0.2,0.4L65.4,40
						c-0.1,0-0.2,0.1-0.2,0.1c-0.1,0-0.2,0-0.2-0.1c-0.2-0.1-0.2-0.2-0.2-0.4v-9.4c0-0.2,0.1-0.3,0.2-0.4l4.6-2.7
						c0.2-0.1,0.3-0.1,0.5,0c0.2,0.1,0.2,0.2,0.2,0.4V36.9z M77.4,32.7c0,0.2-0.1,0.3-0.2,0.4l-4.6,2.7c-0.2,0.1-0.3,0.1-0.5,0
						c-0.1-0.1-0.2-0.3-0.2-0.4V26c0-0.2,0.1-0.3,0.2-0.4l4.6-2.7c0.2-0.1,0.5-0.1,0.7,0.2c0,0.1,0.1,0.2,0.1,0.2L77.4,32.7z"/>
					<path class="st3" d="M100.4,74.6v1.7c0,0,0,0,0,0.1c0,0,0,0.1,0,0.1c0,0,0,0.1,0,0.1c0,0,0,0.1-0.1,0.1c0,0,0,0-0.1,0.1
						c0,0,0,0,0,0L74.9,91.3l0,0c-0.1,0-0.1,0.1-0.2,0.1c-0.1,0-0.2,0-0.2-0.1l0,0l-15.7-9.1v2.7c0,0,0,0,0,0.1c0,0,0,0.1,0,0.1
						c0,0,0,0.1,0,0.1c0,0,0,0.1-0.1,0.1c0,0,0,0-0.1,0.1c0,0,0,0,0,0L33.1,99.9l0,0c-0.1,0.1-0.3,0.1-0.4,0l0,0L7.5,85.4
						c0,0,0,0,0,0c0,0-0.1,0-0.1-0.1c0,0,0-0.1-0.1-0.1c0,0,0-0.1,0-0.1c0,0,0-0.1,0-0.1c0,0,0,0,0-0.1v-4l-5.8,3.3l44.9,25.9
						l57.9-33.4L100.4,74.6z"/>
					<path class="st2" d="M9.9,83.4l20.4,11.8V71.5L9.9,59.6V83.4z M21.1,80.2c0-0.3,0.2-0.5,0.5-0.5c0.1,0,0.2,0,0.2,0.1l6.8,3.9
						c0.2,0.1,0.2,0.2,0.2,0.4v7.5c0,0.2-0.1,0.3-0.2,0.4c-0.1,0-0.2,0.1-0.2,0.1c-0.1,0-0.2,0-0.2-0.1l-6.8-3.9
						c-0.2-0.1-0.2-0.2-0.2-0.4L21.1,80.2z"/>
					<path class="st8" d="M101.1,86.8V83l-3.1,1.8L101.1,86.8z"/>
					<path class="st8" d="M40.4,110l-15.3-8.8v3.4l15.3,8.8V110z"/>
					<path class="st3" d="M27.9,84.4l-5.8-3.3v6.4l5.8,3.3V84.4z"/>
					<path class="st2" d="M32.4,70.3L8.2,56.3v28.4l24.2,13.9V70.3z M31.3,96.1c0,0.2-0.1,0.3-0.2,0.4c-0.1,0-0.2,0.1-0.2,0.1
						c-0.1,0-0.2,0-0.2-0.1L9.2,84.1C9,84,8.9,83.9,8.9,83.7V58.8c0-0.3,0.2-0.5,0.5-0.5c0.1,0,0.2,0,0.2,0.1l21.4,12.4
						c0.2,0.1,0.2,0.2,0.2,0.4V96.1z"/>
					<path class="st8" d="M21.6,99.1L6.3,90.3v3.4l15.3,8.8L21.6,99.1z"/>
					<path class="st7" d="M1,92.9l44.7,25.8v-7.7L1,85.1V92.9z M24.1,100.3c0-0.3,0.2-0.5,0.5-0.5c0.1,0,0.2,0,0.2,0.1l16.3,9.4
						c0.2,0.1,0.2,0.2,0.2,0.4v4.6c0,0.2-0.1,0.3-0.2,0.4c-0.2,0.1-0.3,0.1-0.5,0l-16.3-9.4c-0.2-0.1-0.2-0.2-0.2-0.4L24.1,100.3z
						 M5.3,89.5c0-0.3,0.2-0.5,0.5-0.5C5.9,89,6,89,6.1,89l16.3,9.4c0.2,0.1,0.2,0.2,0.2,0.4v4.6c0,0.2-0.1,0.3-0.2,0.4
						c-0.2,0.1-0.3,0.1-0.5,0L5.6,94.5c-0.2-0.1-0.2-0.2-0.2-0.4V89.5z"/>
					<path class="st2" d="M33.3,43l20.4,11.8V31.1L33.3,19.3V43z M44.4,39.8c0-0.3,0.2-0.5,0.5-0.5c0.1,0,0.2,0,0.2,0.1l6.8,3.9
						c0.2,0.1,0.2,0.2,0.2,0.4v7.5c0,0.2-0.1,0.3-0.2,0.4c-0.2,0.1-0.3,0.1-0.5,0l-6.8-3.9c-0.2-0.1-0.2-0.2-0.2-0.4V39.8z"/>
					<path class="st2" d="M55.8,29.9L31.6,15.9v28.4l24.2,13.9L55.8,29.9z M54.7,55.7c0,0.3-0.2,0.5-0.5,0.5c0,0,0,0,0,0
						c-0.1,0-0.2,0-0.2-0.1L32.5,43.7c-0.1-0.1-0.2-0.2-0.2-0.4V18.4c0-0.3,0.2-0.5,0.5-0.5c0.1,0,0.2,0,0.2,0.1l21.4,12.4
						c0.2,0.1,0.2,0.2,0.2,0.4V55.7z"/>
					<path class="st3" d="M32.9,67.1L51,56.7L30.8,45l0,0L12.7,55.5L32.9,67.1z"/>
					<path class="st2" d="M46.7,118.9L50,117v-5.2c0-0.2,0.1-0.3,0.2-0.4l46.4-26.9c0,0,0,0,0.1,0l4.6-2.6c0.2-0.1,0.5-0.1,0.7,0.2
						c0,0.1,0.1,0.2,0.1,0.2v4.7l2.7-1.5v-7.7l-58,33.5V118.9z"/>
					<path class="st3" d="M53,57.8l-1-0.6L33.2,68.1c-0.1,0-0.2,0.1-0.2,0.1c-0.1,0-0.2,0-0.2-0.1L11.5,55.9
						c-0.2-0.1-0.3-0.4-0.2-0.7c0-0.1,0.1-0.1,0.2-0.2l19.1-11v-1.2L8.7,55.5l24.2,13.9L53,57.8z"/>
					<path class="st12" d="M105.6,76.5c0,0-0.1-0.1-0.1-0.1c0,0,0,0,0,0l-5.1-2.9V46.8c0-0.1,0-0.2-0.1-0.2c0,0,0,0,0,0
						c0,0-0.1-0.1-0.1-0.1c0,0,0,0,0,0L82,35.9V15c0-0.1,0-0.2-0.1-0.2c0,0,0,0,0-0.1c0,0-0.1-0.1-0.1-0.1c0,0,0,0,0,0L56.6,0.1
						c-0.2-0.1-0.3-0.1-0.5,0L30.8,14.7c0,0,0,0,0,0c0,0-0.1,0.1-0.1,0.1c0,0,0,0,0,0.1c0,0.1-0.1,0.1-0.1,0.2v26.6L7.5,55
						c0,0,0,0,0,0c-0.1,0-0.1,0.1-0.2,0.2c0,0.1-0.1,0.1-0.1,0.2v24.4l-7,4c0,0,0,0,0,0c0,0-0.1,0.1-0.1,0.1c0,0,0,0,0,0.1
						C0,84.1,0,84.2,0,84.3v8.9c0,0,0,0,0,0.1c0,0,0,0.1,0,0.1c0,0,0,0.1,0,0.1c0,0,0,0.1,0.1,0.1c0,0,0,0,0.1,0.1c0,0,0,0,0,0
						l45.5,26.3c0.1,0.2,0.3,0.3,0.5,0.2c0,0,0,0,0.1,0c0.1,0,0.2,0,0.2-0.1l4.1-2.4c0,0,0,0,0,0c0,0,0,0,0.1-0.1c0,0,0,0,0.1-0.1
						c0,0,0-0.1,0-0.1c0,0,0-0.1,0-0.1c0,0,0,0,0-0.1V112l46-26.6l4.3,2.7l0,0c0.1,0,0.1,0.1,0.2,0.1c0.1,0,0.1,0,0.2-0.1h0l3.7-2
						c0.2-0.1,0.3-0.3,0.3-0.4v-8.9C105.7,76.7,105.7,76.6,105.6,76.5C105.6,76.5,105.6,76.5,105.6,76.5 M82,37l16.9,9.7l-24.3,14
						l-10.2-5.9l1-0.6l8.9,5.1c0.2,0.1,0.3,0.1,0.5,0l21.3-12.3c0.2-0.1,0.3-0.4,0.2-0.7c0-0.1-0.1-0.1-0.2-0.2L82,38.2V37z
						 M99.4,47.6V76l-24.3,14V61.6L99.4,47.6z M72.3,87.9c0.1,0,0.2,0.1,0.2,0.1c0.1,0,0.2,0,0.2-0.1c0.2-0.1,0.2-0.2,0.2-0.4V62.6
						c0-0.2-0.1-0.3-0.2-0.4l-10.4-6l1.1-0.6c0,0,0,0,0.1,0.1l10.6,6.1v28.4l-15.5-8.9V80L72.3,87.9z M58.6,78.9V58.3l2.8-1.6
						l10.6,6.1v23.8L58.6,78.9z M81.8,45C81.8,44.9,81.8,44.9,81.8,45c0.1-0.1,0.1-0.1,0.1-0.1c0,0,0,0,0.1-0.1c0,0,0-0.1,0-0.1
						c0,0,0-0.1,0-0.1c0,0,0,0,0-0.1v-5.2L95,46.8L74.7,58.5l-8.2-4.7L81.8,45z M81,44.3l-24.3,14V29.9l24.3-14V44.3z M34.6,70.8
						c-0.2,0.1-0.2,0.2-0.2,0.4v24.9c0,0.3,0.2,0.5,0.5,0.5c0,0,0,0,0,0c0.1,0,0.2,0,0.2-0.1l21.4-12.4c0.2-0.1,0.2-0.2,0.2-0.4
						V59.4l0.9-0.5v25.8l-24.3,14V70.3L54,58.4l1,0.6L34.6,70.8z M55.8,59.6v23.8L35.4,95.2V71.5L55.8,59.6z M56.3,1.1L80.5,15
						L56.3,29L32.1,15.1L56.3,1.1z M31.6,15.9l24.2,13.9v28.4L31.6,44.3L31.6,15.9z M30.8,45L30.8,45L51,56.7L32.9,67.1L12.7,55.5
						L30.8,45z M30.6,42.8V44L11.5,55c-0.2,0.1-0.3,0.4-0.2,0.7c0,0.1,0.1,0.1,0.2,0.2l21.2,12.2c0.2,0.1,0.3,0.1,0.5,0L52,57.2
						l1,0.6L32.9,69.4L8.7,55.5L30.6,42.8z M8.2,56.3l24.2,13.9v28.4L8.2,84.7V56.3z M45.7,118.7L1,92.9v-7.7l44.7,25.8L45.7,118.7z
						 M46.4,110.2L1.5,84.3L7.2,81v4c0,0,0,0,0,0.1c0,0,0,0.1,0,0.1c0,0,0,0.1,0,0.1c0,0,0,0.1,0.1,0.1c0,0,0,0,0.1,0.1c0,0,0,0,0,0
						l25.2,14.5c0,0,0,0,0,0c0.1,0,0.1,0.1,0.2,0.1c0.1,0,0.2,0,0.2-0.1l0,0l25.3-14.6c0,0,0,0,0,0c0,0,0,0,0.1-0.1
						c0,0,0-0.1,0.1-0.1c0,0,0-0.1,0-0.1c0,0,0-0.1,0-0.1c0,0,0,0,0-0.1v-2.7l15.7,9.1l0,0c0.1,0,0.1,0.1,0.2,0.1
						c0.1,0,0.2,0,0.2-0.1l0,0l25.3-14.6c0,0,0,0,0,0c0,0,0,0,0.1-0.1c0,0,0-0.1,0.1-0.1c0,0,0-0.1,0-0.1c0,0,0-0.1,0-0.1
						c0,0,0,0,0-0.1v-1.7l3.8,2.2L46.4,110.2z M101.1,86.8l-3.1-1.9l3.1-1.8V86.8z M104.7,85.3l-2.7,1.5v-4.7c0-0.3-0.2-0.5-0.5-0.5
						c-0.1,0-0.2,0-0.2,0.1l-4.6,2.6c0,0,0,0-0.1,0l-46.4,26.9c-0.2,0.1-0.2,0.2-0.2,0.4v5.2l-3.3,1.9v-7.7l58-33.5V85.3z"/>
					<path class="st12" d="M21.8,103.8c0.2,0.1,0.5,0.1,0.7-0.2c0-0.1,0.1-0.2,0.1-0.2v-4.6c0-0.2-0.1-0.3-0.2-0.4L6.1,89
						c-0.2-0.1-0.3-0.1-0.5,0c-0.2,0.1-0.2,0.2-0.2,0.4V94c0,0.2,0.1,0.3,0.2,0.4L21.8,103.8z M6.3,90.3l15.3,8.8v3.4L6.3,93.7V90.3
						z"/>
					<path class="st12" d="M40.6,114.7c0.2,0.1,0.3,0.1,0.5,0c0.2-0.1,0.2-0.2,0.2-0.4v-4.6c0-0.2-0.1-0.3-0.2-0.4l-16.3-9.4
						c-0.2-0.1-0.5-0.1-0.7,0.2c0,0.1-0.1,0.2-0.1,0.2v4.6c0,0.2,0.1,0.3,0.2,0.4L40.6,114.7z M25.1,101.1l15.3,8.8v3.4l-15.3-8.8
						V101.1z"/>
					<path class="st12" d="M31.1,70.8L9.6,58.4c-0.2-0.1-0.5-0.1-0.7,0.2c0,0.1-0.1,0.2-0.1,0.2v24.9c0,0.2,0.1,0.3,0.2,0.4
						l21.4,12.4c0.1,0,0.2,0.1,0.2,0.1c0.1,0,0.2,0,0.2-0.1c0.2-0.1,0.2-0.2,0.2-0.4V71.2C31.3,71,31.2,70.8,31.1,70.8 M30.3,95.2
						L9.9,83.4V59.6l20.4,11.8V95.2z"/>
					<path class="st12" d="M48.9,76.3c0.1,0,0.2,0,0.2-0.1l4.6-2.7c0.2-0.1,0.2-0.2,0.2-0.4v-9.4c0-0.3-0.2-0.5-0.5-0.5
						c-0.1,0-0.2,0-0.2,0.1L48.7,66c-0.2,0.1-0.2,0.2-0.2,0.4v9.4C48.4,76,48.6,76.3,48.9,76.3 M49.4,66.7l3.6-2.1v8.2l-3.6,2.1
						V66.7z"/>
					<path class="st12" d="M28.1,92.1c0.2,0.1,0.3,0.1,0.5,0c0.2-0.1,0.2-0.2,0.2-0.4v-7.5c0-0.2-0.1-0.3-0.2-0.4l-6.8-3.9
						c-0.2-0.1-0.5-0.1-0.7,0.2c0,0.1-0.1,0.2-0.1,0.2v7.5c0,0.2,0.1,0.3,0.2,0.4L28.1,92.1z M22.1,81.1l5.8,3.3v6.4l-5.8-3.3V81.1z
						"/>
					<path class="st12" d="M41.8,80.4c0.1,0,0.2,0,0.2-0.1l4.6-2.7c0.2-0.1,0.2-0.2,0.2-0.4v-9.4c0-0.3-0.2-0.5-0.5-0.5
						c-0.1,0-0.2,0-0.2,0.1l-4.6,2.7c-0.2,0.1-0.2,0.2-0.2,0.4V80c0,0.2,0.1,0.3,0.2,0.4C41.6,80.4,41.7,80.4,41.8,80.4 M42.3,70.9
						l3.6-2.1V77l-3.6,2.1V70.9z"/>
					<path class="st12" d="M56.5,27.7l21.3-12.3c0.2-0.1,0.3-0.4,0.2-0.7c0-0.1-0.1-0.1-0.2-0.2L56.6,2.4c-0.2-0.1-0.3-0.1-0.5,0
						L34.9,14.7c-0.2,0.1-0.3,0.4-0.2,0.7c0,0.1,0.1,0.1,0.2,0.2l21.2,12.2C56.2,27.8,56.4,27.8,56.5,27.7 M36.1,15.1L56.4,3.4
						L76.6,15L56.3,26.7L36.1,15.1z"/>
					<path class="st12" d="M54.4,30.4L33,18c-0.2-0.1-0.5-0.1-0.7,0.2c0,0.1-0.1,0.2-0.1,0.2v24.9c0,0.2,0.1,0.3,0.2,0.4l21.4,12.4
						c0.1,0,0.2,0.1,0.2,0.1c0.1,0,0.2,0,0.2-0.1c0.2-0.1,0.2-0.2,0.2-0.4V30.8C54.7,30.6,54.6,30.5,54.4,30.4 M53.7,54.8L33.3,43
						V19.3l20.4,11.8L53.7,54.8z"/>
					<path class="st12" d="M58.2,56.2c0.1,0,0.2,0,0.2-0.1l21.4-12.4c0.2-0.1,0.2-0.2,0.2-0.4V18.4c0-0.2-0.1-0.3-0.2-0.4
						c-0.2-0.1-0.3-0.1-0.5,0L58,30.4c-0.2,0.1-0.2,0.2-0.2,0.4v24.9c0,0.2,0.1,0.3,0.2,0.4C58.1,56.2,58.2,56.2,58.2,56.2
						 M58.7,31.1l20.4-11.8V43L58.7,54.8V31.1z"/>
					<path class="st12" d="M76.6,22.9L72,25.6c-0.2,0.1-0.2,0.2-0.2,0.4v9.4c0,0.2,0.1,0.3,0.2,0.4c0.2,0.1,0.3,0.1,0.5,0l4.6-2.7
						c0.2-0.1,0.2-0.2,0.2-0.4v-9.4c0-0.3-0.2-0.5-0.5-0.5C76.8,22.9,76.7,22.9,76.6,22.9 M76.4,32.4l-3.6,2.1v-8.2l3.6-2.1V32.4z"
						/>
					<path class="st12" d="M51.5,51.7c0.2,0.1,0.3,0.1,0.5,0c0.2-0.1,0.2-0.2,0.2-0.4v-7.5c0-0.2-0.1-0.3-0.2-0.4l-6.8-3.9
						c-0.2-0.1-0.5-0.1-0.7,0.2c0,0.1-0.1,0.2-0.1,0.2v7.5c0,0.2,0.1,0.3,0.2,0.4L51.5,51.7z M45.4,40.7l5.8,3.3v6.4l-5.8-3.3V40.7z
						"/>
					<path class="st12" d="M69.5,27.1l-4.6,2.7c-0.2,0.1-0.2,0.2-0.2,0.4v9.4c0,0.2,0.1,0.3,0.2,0.4c0.2,0.1,0.3,0.1,0.5,0l4.6-2.7
						c0.2-0.1,0.2-0.2,0.2-0.4v-9.4c0-0.2-0.1-0.3-0.2-0.4C69.9,27,69.7,27,69.5,27.1 M69.3,36.6l-3.6,2.1v-8.2l3.6-2.1V36.6z"/>
					<path class="st12" d="M76.6,88c0.1,0,0.2,0,0.2-0.1l21.4-12.4c0.2-0.1,0.2-0.2,0.2-0.4V50.2c0-0.3-0.2-0.5-0.5-0.5
						c-0.1,0-0.2,0-0.2,0.1L76.4,62.1c-0.2,0.1-0.2,0.2-0.2,0.4v24.9c0,0.2,0.1,0.3,0.2,0.4C76.5,87.9,76.5,88,76.6,88 M77.1,62.8
						L97.5,51v23.8L77.1,86.6V62.8z"/>
					<path class="st12" d="M95,54.7l-4.6,2.7c-0.2,0.1-0.2,0.2-0.2,0.4v9.4c0,0.2,0.1,0.3,0.2,0.4c0.1,0,0.2,0.1,0.2,0.1
						c0.1,0,0.2,0,0.2-0.1l4.6-2.7c0.2-0.1,0.2-0.2,0.2-0.4v-9.4c0-0.2-0.1-0.3-0.2-0.4C95.3,54.6,95.2,54.6,95,54.7 M94.8,64.2
						l-3.6,2.1v-8.2l3.6-2.1V64.2z"/>
					<path class="st12" d="M63.5,71.2c-0.2-0.1-0.3-0.1-0.5,0c-0.2,0.1-0.2,0.2-0.2,0.4v7.5c0,0.2,0.1,0.3,0.2,0.4l6.8,3.9
						c0.1,0,0.2,0.1,0.2,0.1c0.1,0,0.2,0,0.2-0.1c0.2-0.1,0.2-0.2,0.2-0.4v-7.5c0-0.2-0.1-0.3-0.2-0.4L63.5,71.2z M69.6,82.2
						l-5.8-3.3v-6.4l5.8,3.3V82.2z"/>
					<path class="st12" d="M87.9,58.9l-4.6,2.7c-0.2,0.1-0.2,0.2-0.2,0.4v9.4c0,0.2,0.1,0.3,0.2,0.4c0.2,0.1,0.3,0.1,0.5,0l4.6-2.7
						c0.2-0.1,0.2-0.2,0.2-0.4v-9.4c0-0.3-0.2-0.5-0.5-0.5C88.1,58.8,88,58.9,87.9,58.9 M87.7,68.4L84,70.5v-8.2l3.6-2.1V68.4z"/>
				</g>
			</g>
		</g>
	</g>
	<g transform="translate(678.242 5171.349)">
		<path class="st3" d="M48.6,82.5l4.6,2.7v-6.3l-4.6-2.7V82.5z"/>
		<path class="st3" d="M86.1,62.8L62.8,76.3l10.8,6.2l23.2-13.4L86.1,62.8z"/>
		<path class="st3" d="M80.7,59.7l-10-5.8L47.4,67.4l10,5.8L80.7,59.7z"/>
		<path class="st14" d="M61.8,75.7l23.2-13.4l-3.4-2L58.4,73.7L61.8,75.7z"/>
		<path class="st6" d="M84.6,84.9l-3,1.7v6.1l3-1.7V84.9z"/>
		<path class="st6" d="M58,78.8l3.3,1.9v-4.2L58,74.6V78.8z"/>
		<g transform="translate(0 0)">
			<g>
				<defs>
					<rect id="SVGID_00000008844007960225143210000001451623964181513612_" x="0" width="111.9" height="130.2"/>
				</defs>
				<clipPath id="SVGID_00000103943926834824835710000002609626210427027079_">
					<use xlink:href="#SVGID_00000008844007960225143210000001451623964181513612_"  style="overflow:visible;"/>
				</clipPath>
				<g style="clip-path:url(#SVGID_00000103943926834824835710000002609626210427027079_);">
					<path class="st7" d="M62.3,81.6c0,0.3-0.2,0.5-0.5,0.5c-0.1,0-0.2,0-0.2-0.1l-4.3-2.5c-0.2-0.1-0.2-0.3-0.2-0.4v-5l-10-5.8
						v15.6L73.1,99V83.3l-10.8-6.2V81.6z M54.2,86.1c0,0.3-0.2,0.5-0.5,0.5c-0.1,0-0.2,0-0.2-0.1l-5.6-3.2c-0.2-0.1-0.2-0.3-0.2-0.4
						v-7.5c0-0.3,0.2-0.5,0.5-0.5c0.1,0,0.2,0,0.2,0.1l5.6,3.2c0.2,0.1,0.2,0.3,0.2,0.4V86.1z"/>
					<path class="st2" d="M74.1,99l23.2-13.4V69.9L74.1,83.3V99z M80.6,86.4c0-0.2,0.1-0.3,0.2-0.4l4-2.3c0.2-0.1,0.5-0.1,0.7,0.2
						c0,0.1,0.1,0.2,0.1,0.2v7.2c0,0.2-0.1,0.3-0.2,0.4l-4,2.3c-0.2,0.1-0.5,0.1-0.7-0.2c0-0.1-0.1-0.2-0.1-0.3V86.4z M74.9,89.6
						c0-0.2,0.1-0.3,0.2-0.4l4-2.3c0.2-0.1,0.5-0.1,0.7,0.2c0,0.1,0.1,0.2,0.1,0.2v7.2c0,0.2-0.1,0.3-0.2,0.4l-4,2.3
						c-0.1,0-0.2,0.1-0.2,0.1c-0.3,0-0.5-0.2-0.5-0.5V89.6z"/>
					<path class="st6" d="M78.9,88.2l-3,1.7V96l3-1.7V88.2z"/>
					<path class="st12" d="M98.2,68.8c0,0-0.1-0.1-0.1-0.1c0,0,0,0,0,0L70.9,53c-0.2-0.1-0.3-0.1-0.5,0L46.2,67c0,0,0,0,0,0
						c0,0-0.1,0.1-0.1,0.1c0,0,0,0,0,0.1c0,0.1-0.1,0.1-0.1,0.2v16.8c0,0,0,0,0,0.1c0,0,0,0.1,0,0.1c0,0,0,0.1,0,0.1
						c0,0,0,0.1,0.1,0.1c0,0,0,0,0.1,0.1c0,0,0,0,0,0l27.1,15.7l0,0c0.1,0,0.1,0.1,0.2,0.1c0.1,0,0.2,0,0.2-0.1l0,0l24.2-14
						c0,0,0,0,0,0c0,0,0,0,0.1-0.1c0,0,0-0.1,0.1-0.1c0,0,0-0.1,0-0.1c0,0,0-0.1,0-0.1c0,0,0,0,0-0.1V69.1
						C98.3,69,98.3,68.9,98.2,68.8C98.3,68.8,98.2,68.8,98.2,68.8 M85.1,62.3L61.8,75.7l-3.4-2l23.2-13.4L85.1,62.3z M61.3,76.6v4.2
						L58,78.8v-4.2L61.3,76.6z M70.7,54l10,5.8L57.4,73.1l-10-5.8L70.7,54z M73.1,99L46.9,83.9V68.3l10,5.8v5c0,0.2,0.1,0.3,0.2,0.4
						l4.3,2.5c0.2,0.1,0.5,0.1,0.7-0.2c0-0.1,0.1-0.2,0.1-0.2v-4.4l10.8,6.2L73.1,99z M73.6,82.5l-10.8-6.2l23.2-13.4l10.8,6.2
						L73.6,82.5z M97.3,85.6L74.1,99V83.3l23.2-13.4V85.6z"/>
					<path class="st12" d="M75.4,97.4c0.1,0,0.2,0,0.2-0.1l4-2.3c0.2-0.1,0.2-0.3,0.2-0.4v-7.2c0-0.3-0.2-0.5-0.5-0.5
						c-0.1,0-0.2,0-0.2,0.1l-4,2.3c-0.2,0.1-0.2,0.3-0.2,0.4v7.2c0,0.2,0.1,0.3,0.2,0.4C75.2,97.3,75.3,97.4,75.4,97.4 M75.9,89.9
						l3-1.7v6.1l-3,1.7V89.9z"/>
					<path class="st12" d="M81.1,94.1c0.1,0,0.2,0,0.2-0.1l4-2.3c0.2-0.1,0.2-0.3,0.2-0.4v-7.2c0-0.3-0.2-0.5-0.5-0.5
						c-0.1,0-0.2,0-0.2,0.1l-4,2.3c-0.2,0.1-0.2,0.3-0.2,0.4v7.2c0,0.2,0.1,0.3,0.2,0.4C81,94.1,81,94.1,81.1,94.1 M81.6,86.6l3-1.7
						V91l-3,1.7V86.6z"/>
					<path class="st12" d="M48.4,74.9c-0.2-0.1-0.3-0.1-0.5,0c-0.2,0.1-0.2,0.3-0.2,0.4v7.4c0,0.2,0.1,0.3,0.2,0.4l5.6,3.2
						c0.1,0,0.2,0.1,0.2,0.1c0.3,0,0.5-0.2,0.5-0.5c0,0,0,0,0,0v-7.4c0-0.2-0.1-0.3-0.2-0.4L48.4,74.9z M53.2,85.2l-4.6-2.7v-6.3
						l4.6,2.7V85.2z"/>
					<path class="st5" d="M17.1,90.2l-4.3-2.5v9.7l4.3,2.5V90.2z"/>
					<path class="st16" d="M1,93.6l40.9,23.6V90.7L1,67.1V93.6z M11.7,86.8c0-0.3,0.2-0.5,0.5-0.5c0.1,0,0.2,0,0.2,0.1l5.3,3.1
						c0.2,0.1,0.2,0.3,0.2,0.4v10.9c0,0.2-0.1,0.3-0.2,0.4c-0.2,0.1-0.3,0.1-0.5,0L12,98.1c-0.2-0.1-0.2-0.3-0.2-0.4L11.7,86.8z
						 M3.1,81.9c0-0.2,0.1-0.3,0.2-0.4c0.2-0.1,0.3-0.1,0.5,0l5.3,3.1c0.2,0.1,0.2,0.3,0.2,0.4v10.8c0,0.2-0.1,0.3-0.2,0.4
						c-0.2,0.1-0.3,0.1-0.5,0l-5.3-3.1c-0.2-0.1-0.2-0.3-0.2-0.4V81.9z"/>
					<path class="st5" d="M8.4,85.3l-4.3-2.5v9.7L8.4,95V85.3z"/>
					<path class="st6" d="M53.9,88.8l3.8-2.2v-4.5l-3.8,2.2V88.8z"/>
					<path class="st17" d="M67.9,75L27,51.4l-9.4,5.5l40.9,23.6L67.9,75z"/>
					<path class="st18" d="M57.4,81.1L16.5,57.5l-4,2.3l40.9,23.6L57.4,81.1z"/>
					<path class="st3" d="M45.9,110.2l8.5-4.9v-6.9l-8.5,4.9V110.2z"/>
					<path class="st19" d="M58.7,86.8c0,0.2-0.1,0.3-0.2,0.4l-4.8,2.8c-0.1,0-0.2,0.1-0.2,0.1c-0.3,0-0.5-0.2-0.5-0.5v-4.7l-10,5.8
						v26.6l25.5-14.8V75.9l-9.6,5.6L58.7,86.8z M55.4,105.5c0,0.2-0.1,0.3-0.2,0.4l-9.5,5.5c-0.2,0.1-0.3,0.1-0.5,0
						c-0.2-0.1-0.2-0.3-0.2-0.4v-8.1c0-0.2,0.1-0.3,0.2-0.4l9.5-5.5c0.2-0.1,0.3-0.1,0.5,0c0.2,0.1,0.2,0.3,0.2,0.4V105.5z"/>
					<path class="st17" d="M11.6,60.3L1.5,66.2l40.9,23.6L52.5,84L11.6,60.3z"/>
					<path class="st12" d="M69.4,75c0-0.1,0-0.2-0.1-0.2c0,0,0,0,0-0.1c0,0-0.1-0.1-0.1-0.1c0,0,0,0,0,0L27.2,50.4
						c-0.2-0.1-0.3-0.1-0.5,0L0.2,65.8c0,0,0,0,0,0c0,0-0.1,0.1-0.1,0.1c0,0,0,0,0,0.1C0,66,0,66.1,0,66.2v27.7c0,0,0,0,0,0.1
						c0,0,0,0.1,0,0.1c0,0,0,0.1,0,0.1c0,0,0,0.1,0.1,0.1c0,0,0,0,0.1,0.1c0,0,0,0,0,0l41.9,24.2l0,0c0.1,0,0.1,0.1,0.2,0.1
						c0.1,0,0.2,0,0.2-0.1l0,0l26.4-15.4c0,0,0,0,0,0c0,0,0.1,0,0.1-0.1c0,0,0,0,0.1-0.1c0,0,0-0.1,0-0.1c0,0,0-0.1,0-0.1
						c0,0,0,0,0-0.1L69.4,75 M27,51.4L67.9,75l-9.4,5.5L17.5,56.9L27,51.4z M16.5,57.5l40.9,23.6l-4,2.3L12.6,59.8L16.5,57.5z
						 M57.7,82.1v4.5l-3.8,2.2v-4.5L57.7,82.1z M41.9,117.2L1,93.6V67.1l40.9,23.6V117.2z M42.4,89.8L1.5,66.2l10.1-5.8L52.5,84
						L42.4,89.8z M68.4,102.4l-25.5,14.8V90.7l10-5.8v4.8c0,0.3,0.2,0.5,0.5,0.5c0.1,0,0.2,0,0.2-0.1l4.8-2.8
						c0.2-0.1,0.2-0.3,0.2-0.4v-5.4l9.6-5.6L68.4,102.4z"/>
					<path class="st12" d="M54.7,97l-9.5,5.5c-0.2,0.1-0.3,0.3-0.2,0.4v8.1c0,0.3,0.2,0.5,0.5,0.5c0.1,0,0.2,0,0.2-0.1l9.5-5.5
						c0.2-0.1,0.2-0.3,0.2-0.4v-8.1c0-0.3-0.2-0.5-0.5-0.5C54.8,97,54.7,97,54.7,97 M54.4,105.3l-8.5,4.9v-6.9l8.5-4.9V105.3z"/>
					<path class="st12" d="M8.7,96.3c0.2,0.1,0.3,0.1,0.5,0c0.2-0.1,0.2-0.3,0.2-0.4V85c0-0.2-0.1-0.3-0.2-0.4l-5.4-3.1
						c-0.2-0.1-0.5-0.1-0.7,0.2c0,0.1-0.1,0.2-0.1,0.2v10.8c0,0.2,0.1,0.3,0.2,0.4L8.7,96.3z M4.1,82.8l4.3,2.5V95l-4.3-2.5V82.8z"
						/>
					<path class="st12" d="M17.3,101.2c0.2,0.1,0.3,0.1,0.5,0c0.2-0.1,0.2-0.3,0.2-0.4V89.9c0-0.2-0.1-0.3-0.2-0.4l-5.3-3.1
						c-0.2-0.1-0.5-0.1-0.7,0.2c0,0.1-0.1,0.2-0.1,0.2v10.8c0,0.2,0.1,0.3,0.2,0.4L17.3,101.2z M12.7,87.7l4.3,2.5v9.7l-4.3-2.5
						L12.7,87.7z"/>
					<path class="st5" d="M17.1,58.3l-4.3-2.5v9.7l4.3,2.5V58.3z"/>
					<path class="st16" d="M1,61.7l40.9,23.6V58.8L1,35.2V61.7z M11.7,55c0-0.3,0.2-0.5,0.5-0.5c0.1,0,0.2,0,0.2,0.1l5.3,3.1
						c0.2,0.1,0.2,0.3,0.2,0.4v10.8c0,0.2-0.1,0.3-0.2,0.4c-0.2,0.1-0.3,0.1-0.5,0L12,66.2c-0.2-0.1-0.2-0.3-0.2-0.4L11.7,55z
						 M3.1,50c0-0.2,0.1-0.3,0.2-0.4c0.2-0.1,0.3-0.1,0.5,0l5.3,3.1c0.2,0.1,0.2,0.3,0.2,0.4V64c0,0.2-0.1,0.3-0.2,0.4
						c-0.2,0.1-0.3,0.1-0.5,0l-5.3-3.1c-0.2-0.1-0.2-0.3-0.2-0.4V50z"/>
					<path class="st5" d="M8.4,53.4l-4.3-2.5v9.7l4.3,2.5V53.4z"/>
					<path class="st6" d="M53.9,56.9l3.8-2.2v-4.5l-3.8,2.2V56.9z"/>
					<path class="st17" d="M67.9,43.1L27,19.5L17.5,25l40.9,23.6L67.9,43.1z"/>
					<path class="st18" d="M57.4,49.2L16.5,25.6l-4,2.3l40.9,23.6L57.4,49.2z"/>
					<path class="st3" d="M45.9,78.3l8.5-4.9v-6.9l-8.5,4.9V78.3z"/>
					<path class="st19" d="M58.7,55c0,0.2-0.1,0.3-0.2,0.4l-4.8,2.8c-0.1,0-0.2,0.1-0.2,0.1c-0.3,0-0.5-0.2-0.5-0.5V53l-10,5.8v26.6
						l25.5-14.8V44l-9.6,5.6L58.7,55z M55.4,73.7c0,0.2-0.1,0.3-0.2,0.4l-9.5,5.5c-0.2,0.1-0.3,0.1-0.5,0c-0.2-0.1-0.2-0.3-0.2-0.4
						v-8.1c0-0.2,0.1-0.3,0.2-0.4l9.5-5.5c0.2-0.1,0.3-0.1,0.5,0c0.2,0.1,0.2,0.3,0.2,0.4V73.7z"/>
					<path class="st17" d="M11.6,28.5L1.5,34.3l40.9,23.6l10.1-5.8L11.6,28.5z"/>
					<path class="st12" d="M69.4,43.1c0-0.1,0-0.2-0.1-0.2c0,0,0,0,0-0.1c0,0-0.1-0.1-0.1-0.1c0,0,0,0,0,0L27.2,18.5
						c-0.2-0.1-0.3-0.1-0.5,0L0.2,33.9c0,0,0,0,0,0c0,0-0.1,0.1-0.1,0.1c0,0,0,0,0,0.1C0,34.2,0,34.2,0,34.3V62c0,0,0,0,0,0.1
						c0,0,0,0.1,0,0.1c0,0,0,0.1,0,0.1c0,0,0,0.1,0.1,0.1c0,0,0,0,0.1,0.1c0,0,0,0,0,0l41.9,24.2l0,0c0.1,0,0.1,0.1,0.2,0.1
						c0.1,0,0.2,0,0.2-0.1l0,0l26.4-15.4c0,0,0,0,0,0c0,0,0.1,0,0.1-0.1c0,0,0,0,0.1-0.1c0,0,0-0.1,0-0.1c0,0,0-0.1,0-0.1
						c0,0,0,0,0-0.1L69.4,43.1 M27,19.5l40.9,23.6l-9.4,5.5L17.5,25L27,19.5z M16.5,25.6l40.9,23.6l-4,2.3L12.6,27.9L16.5,25.6z
						 M57.7,50.2v4.5l-3.8,2.2v-4.5L57.7,50.2z M41.9,85.4L1,61.7V35.2l40.9,23.6V85.4z M42.4,57.9L1.5,34.3l10.1-5.8l40.9,23.6
						L42.4,57.9z M68.4,70.6L42.9,85.4V58.8l10-5.8v4.8c0,0.3,0.2,0.5,0.5,0.5c0.1,0,0.2,0,0.2-0.1l4.8-2.8c0.2-0.1,0.2-0.3,0.2-0.4
						v-5.4l9.6-5.6L68.4,70.6z"/>
					<path class="st12" d="M54.7,65.2l-9.5,5.5c-0.2,0.1-0.3,0.3-0.2,0.4v8.1c0,0.3,0.2,0.5,0.5,0.5c0.1,0,0.2,0,0.2-0.1l9.5-5.5
						c0.2-0.1,0.2-0.3,0.2-0.4v-8.1c0-0.3-0.2-0.5-0.5-0.5C54.8,65.1,54.7,65.1,54.7,65.2 M54.4,73.4l-8.5,4.9v-6.9l8.5-4.9
						L54.4,73.4z"/>
					<path class="st12" d="M8.7,64.4c0.2,0.1,0.3,0.1,0.5,0c0.2-0.1,0.2-0.3,0.2-0.4V53.1c0-0.2-0.1-0.3-0.2-0.4l-5.4-3.1
						c-0.2-0.1-0.5-0.1-0.7,0.2c0,0.1-0.1,0.2-0.1,0.2v10.8c0,0.2,0.1,0.3,0.2,0.4L8.7,64.4z M4.1,50.9l4.3,2.5v9.7l-4.3-2.5V50.9z"
						/>
					<path class="st12" d="M17.3,69.3c0.2,0.1,0.5,0.1,0.7-0.2c0-0.1,0.1-0.2,0.1-0.3V58.1c0-0.2-0.1-0.3-0.2-0.4l-5.3-3.1
						c-0.2-0.1-0.5-0.1-0.7,0.2c0,0.1-0.1,0.2-0.1,0.2v10.8c0,0.2,0.1,0.3,0.2,0.4L17.3,69.3z M12.7,55.8l4.3,2.5V68l-4.3-2.5
						L12.7,55.8z"/>
					<path class="st3" d="M8.8,29.7l4.6,2.7V26l-4.6-2.7V29.7z"/>
					<path class="st3" d="M46.2,10L23,23.4l10.8,6.2L57,16.2L46.2,10z"/>
					<path class="st3" d="M40.8,6.8l-10-5.8L7.6,14.5l10,5.8L40.8,6.8z"/>
					<path class="st14" d="M22,22.8L45.2,9.4l-3.4-2L18.6,20.8L22,22.8z"/>
					<path class="st6" d="M44.8,32l-3,1.7v6.1l3-1.7L44.8,32z"/>
					<path class="st6" d="M18.1,25.9l3.3,1.9v-4.2l-3.3-1.9V25.9z"/>
					<path class="st7" d="M22.5,28.7c0,0.3-0.2,0.5-0.5,0.5c-0.1,0-0.2,0-0.2-0.1l-4.3-2.5c-0.2-0.1-0.2-0.3-0.2-0.4v-5l-10-5.8V31
						l26.1,15.1V30.5l-10.8-6.2V28.7z M14.4,33.2c0,0.3-0.2,0.5-0.5,0.5c-0.1,0-0.2,0-0.2-0.1L8,30.4c-0.2-0.1-0.2-0.3-0.2-0.4v-7.5
						C7.8,22.2,8,22,8.3,22c0.1,0,0.2,0,0.3,0.1l5.6,3.2c0.2,0.1,0.2,0.3,0.2,0.4L14.4,33.2z"/>
					<path class="st2" d="M34.2,46.1l23.2-13.4V17L34.2,30.5V46.1z M40.8,33.5c0-0.2,0.1-0.3,0.2-0.4l4-2.3c0.2-0.1,0.5-0.1,0.7,0.2
						c0,0.1,0.1,0.2,0.1,0.2v7.2c0,0.2-0.1,0.3-0.2,0.4l-4,2.3c-0.2,0.1-0.5,0.1-0.7-0.2c0-0.1-0.1-0.2-0.1-0.3L40.8,33.5z M35,36.7
						c0-0.2,0.1-0.3,0.2-0.4l4-2.3c0.2-0.1,0.5-0.1,0.7,0.2c0,0.1,0.1,0.2,0.1,0.2v7.2c0,0.2-0.1,0.3-0.2,0.4l-4,2.3
						c-0.1,0-0.2,0.1-0.2,0.1c-0.3,0-0.5-0.2-0.5-0.5V36.7z"/>
					<path class="st6" d="M39,35.3L36,37v6.1l3-1.7V35.3z"/>
					<path class="st12" d="M58.4,15.9c0,0-0.1-0.1-0.1-0.1c0,0,0,0,0,0L31.1,0.1c-0.2-0.1-0.3-0.1-0.5,0l-24.2,14c0,0,0,0,0,0
						c0,0-0.1,0.1-0.1,0.1c0,0,0,0,0,0.1c0,0.1-0.1,0.1-0.1,0.2v16.8c0,0,0,0,0,0.1c0,0,0,0.1,0,0.1c0,0,0,0.1,0,0.1
						c0,0,0,0.1,0.1,0.1c0,0,0,0,0.1,0.1c0,0,0,0,0,0l27.2,15.7l0,0c0.1,0,0.1,0.1,0.2,0.1c0.1,0,0.2,0,0.2-0.1l0,0l24.2-14
						c0,0,0,0,0,0c0.1,0,0.1-0.1,0.1-0.1c0,0,0-0.1,0-0.1c0,0,0-0.1,0-0.1c0,0,0,0,0-0.1V16.2C58.5,16.1,58.5,16,58.4,15.9
						C58.4,15.9,58.4,15.9,58.4,15.9 M45.2,9.4L22,22.8l-3.4-2L41.8,7.4L45.2,9.4z M21.5,23.7v4.2l-3.3-1.9v-4.2L21.5,23.7z
						 M30.8,1.1l10,5.8L17.6,20.3l-10-5.8L30.8,1.1z M33.2,46.1L7.1,31V15.4l10,5.8v5c0,0.2,0.1,0.3,0.2,0.4l4.3,2.5
						c0.1,0,0.2,0.1,0.2,0.1c0.1,0,0.2,0,0.2-0.1c0.2-0.1,0.2-0.3,0.2-0.4v-4.4l10.8,6.2L33.2,46.1z M33.7,29.6L23,23.4L46.2,10
						L57,16.2L33.7,29.6z M57.5,32.7L34.2,46.1V30.5L57.5,17L57.5,32.7z"/>
					<path class="st12" d="M35.5,44.5c0.1,0,0.2,0,0.2-0.1l4-2.3c0.2-0.1,0.2-0.3,0.2-0.4v-7.2c0-0.3-0.2-0.5-0.5-0.5
						c-0.1,0-0.2,0-0.2,0.1l-4,2.3c-0.2,0.1-0.2,0.3-0.2,0.4V44c0,0.2,0.1,0.3,0.2,0.4C35.4,44.4,35.5,44.5,35.5,44.5 M36,37l3-1.7
						v6.1l-3,1.7V37z"/>
					<path class="st12" d="M41.3,41.2c0.1,0,0.2,0,0.2-0.1l4-2.3c0.2-0.1,0.2-0.3,0.2-0.4v-7.2c0-0.3-0.2-0.5-0.5-0.5
						c-0.1,0-0.2,0-0.2,0.1L41,33c-0.2,0.1-0.2,0.3-0.2,0.4v7.2c0,0.2,0.1,0.3,0.2,0.4C41.1,41.2,41.2,41.2,41.3,41.2 M41.8,33.8
						l3-1.7v6.1l-3,1.7V33.8z"/>
					<path class="st12" d="M8.5,22.1C8.3,21.9,8,22,7.8,22.2c0,0.1-0.1,0.2-0.1,0.2v7.5c0,0.2,0.1,0.3,0.2,0.4l5.6,3.2
						c0.2,0.1,0.5,0.1,0.7-0.2c0-0.1,0.1-0.2,0.1-0.2v-7.5c0-0.2-0.1-0.3-0.2-0.4L8.5,22.1z M13.4,32.3l-4.6-2.7v-6.3l4.6,2.7V32.3z
						"/>
					<path class="st3" d="M62.2,112.4l4.6,2.7v-6.3l-4.6-2.7L62.2,112.4z"/>
					<path class="st3" d="M99.6,92.7l-23.2,13.4l10.8,6.2l23.2-13.4L99.6,92.7z"/>
					<path class="st3" d="M94.2,89.6l-10-5.8L61,97.2l10,5.8L94.2,89.6z"/>
					<path class="st14" d="M75.4,105.5l23.2-13.4l-3.4-2L72,103.6L75.4,105.5z"/>
					<path class="st6" d="M98.2,114.8l-3,1.7v6.1l3-1.7V114.8z"/>
					<path class="st6" d="M71.6,108.6l3.3,1.9v-4.2l-3.3-1.9V108.6z"/>
					<path class="st7" d="M75.9,111.4c0,0.3-0.2,0.5-0.5,0.5c-0.1,0-0.2,0-0.2-0.1l-4.3-2.5c-0.2-0.1-0.2-0.3-0.2-0.4v-5l-10-5.8
						v15.6l26.1,15.1v-15.6L75.9,107V111.4z M67.8,115.9c0,0.3-0.2,0.5-0.5,0.5c-0.1,0-0.2,0-0.2-0.1l-5.6-3.2
						c-0.2-0.1-0.2-0.3-0.2-0.4v-7.5c0-0.3,0.2-0.5,0.5-0.5c0.1,0,0.2,0,0.2,0.1l5.6,3.2c0.2,0.1,0.3,0.3,0.2,0.4V115.9z"/>
					<path class="st2" d="M87.7,128.8l23.2-13.4V99.8l-23.2,13.4V128.8z M94.2,116.2c0-0.2,0.1-0.3,0.2-0.4l4-2.3
						c0.2-0.1,0.5-0.1,0.7,0.2c0,0.1,0.1,0.2,0.1,0.2v7.2c0,0.2-0.1,0.3-0.2,0.4l-4,2.3c-0.2,0.1-0.3,0.1-0.5,0
						c-0.2-0.1-0.2-0.3-0.2-0.4V116.2z M88.5,119.4c0-0.2,0.1-0.3,0.2-0.4l4-2.3c0.2-0.1,0.3-0.1,0.5,0c0.2,0.1,0.2,0.3,0.2,0.4v7.2
						c0,0.2-0.1,0.3-0.2,0.4l-4,2.3c-0.2,0.1-0.5,0.1-0.7-0.2c0-0.1-0.1-0.2-0.1-0.2V119.4z"/>
					<path class="st6" d="M92.4,118l-3,1.7v6.1l3-1.7V118z"/>
					<path class="st12" d="M111.8,98.6c0,0-0.1-0.1-0.1-0.1c0,0,0,0,0,0L84.5,82.8c-0.2-0.1-0.3-0.1-0.5,0l-24.2,14c0,0,0,0,0,0
						c0,0-0.1,0.1-0.1,0.1c0,0,0,0,0,0.1c0,0.1-0.1,0.1-0.1,0.2V114c0,0,0,0,0,0.1c0,0,0,0.1,0,0.1c0,0,0,0.1,0,0.1
						c0,0,0,0.1,0.1,0.1c0,0,0,0,0.1,0.1c0,0,0,0,0,0l27.2,15.7l0,0c0.1,0,0.1,0.1,0.2,0.1c0.1,0,0.2,0,0.2-0.1l0,0l24.2-14
						c0,0,0,0,0,0c0,0,0.1,0,0.1-0.1c0,0,0-0.1,0.1-0.1c0,0,0-0.1,0-0.1c0-0.1,0-0.1,0-0.2V98.9C111.9,98.8,111.9,98.7,111.8,98.6
						C111.8,98.7,111.8,98.6,111.8,98.6 M98.6,92.1l-23.2,13.4l-3.4-2l23.2-13.4L98.6,92.1z M74.9,106.4v4.2l-3.3-1.9v-4.2
						L74.9,106.4z M84.3,83.8l10,5.8L71,103l-10-5.8L84.3,83.8z M86.7,128.8l-26.1-15.1V98.1l10.1,5.8v5c0,0.2,0.1,0.3,0.2,0.4
						l4.3,2.5c0.2,0.1,0.5,0.1,0.7-0.2c0-0.1,0.1-0.2,0.1-0.2V107l10.8,6.2V128.8z M87.2,112.3l-10.8-6.2l23.2-13.4l10.8,6.2
						L87.2,112.3z M110.9,115.4l-23.2,13.4v-15.6l23.2-13.4V115.4z"/>
					<path class="st12" d="M89,127.2c0.1,0,0.2,0,0.2-0.1l4-2.3c0.2-0.1,0.2-0.3,0.2-0.4v-7.2c0-0.3-0.2-0.5-0.5-0.5
						c-0.1,0-0.2,0-0.2,0.1l-4,2.3c-0.2,0.1-0.2,0.3-0.2,0.4v7.2c0,0.2,0.1,0.3,0.2,0.4C88.8,127.2,88.9,127.2,89,127.2 M89.5,119.7
						l3-1.7v6.1l-3,1.7L89.5,119.7z"/>
					<path class="st12" d="M94.7,123.9c0.1,0,0.2,0,0.2-0.1l4-2.3c0.2-0.1,0.2-0.3,0.2-0.4v-7.2c0-0.3-0.2-0.5-0.5-0.5
						c-0.1,0-0.2,0-0.2,0.1l-4,2.3c-0.2,0.1-0.2,0.3-0.2,0.4v7.2C94.2,123.7,94.4,123.9,94.7,123.9 M95.2,116.5l3-1.7v6.1l-3,1.7
						V116.5z"/>
					<path class="st12" d="M61.9,104.8c-0.2-0.1-0.3-0.1-0.5,0c-0.2,0.1-0.2,0.3-0.2,0.4v7.5c0,0.2,0.1,0.3,0.2,0.4l5.6,3.2
						c0.1,0,0.2,0.1,0.2,0.1c0.3,0,0.5-0.2,0.5-0.5c0,0,0,0,0,0v-7.5c0-0.2-0.1-0.3-0.2-0.4L61.9,104.8z M66.8,115l-4.6-2.7v-6.3
						l4.6,2.7V115z"/>
				</g>
			</g>
		</g>
	</g>
	<g transform="translate(323.15 4988.761)">
		<g transform="translate(0)">
			<g>
				<defs>
					<rect id="SVGID_00000176738497388885054620000016827837341095359926_" x="0" y="0" width="35.1" height="67.1"/>
				</defs>
				<clipPath id="SVGID_00000046314013070530433520000017449106919508266674_">
					<use xlink:href="#SVGID_00000176738497388885054620000016827837341095359926_"  style="overflow:visible;"/>
				</clipPath>
				<g transform="translate(0 0)" style="clip-path:url(#SVGID_00000046314013070530433520000017449106919508266674_);">
					<path class="st2" d="M33.2,59.7c0,4.1-6.4,7.4-14.3,7.4S4.6,63.8,4.6,59.7s6.4-7.4,14.3-7.4S33.2,55.6,33.2,59.7"/>
					<path class="st10" d="M8.2,15.5c0-1.9,0.4-3.9,1.2-5.6c-0.5,0.1-1,0.3-1.4,0.5c-2.1,1.2-3.3,4-3.3,7.8c0,7.3,4.4,15.7,9.9,18.9
						c2.3,1.3,4.5,1.5,6.2,0.5c0.5-0.3,1-0.7,1.4-1.2c-1.3-0.1-2.5-0.6-3.6-1.2C12.9,31.8,8.2,23,8.2,15.5"/>
					<path class="st9" d="M29,32.9c0-10.5-6.4-22.8-14.3-27.4C13,4.5,11.1,4,9.2,3.9C8,3.9,6.9,4.2,5.9,4.7L5.5,4.9
						c-2.9,1.8-4.6,5.9-4.6,11.3c0.2,3.5,0.8,7,1.8,10.3c2.1,7.7,13,30.1,15.2,34.2c1.8-3.7,9.6-20,9.7-20.3
						C28.6,38,29.1,35.5,29,32.9 M21.2,38.3c-0.9,0.5-1.8,0.7-2.8,0.7c-1.5,0-2.9-0.5-4.2-1.3C8.5,34.5,3.9,25.7,3.9,18.1
						c0-4.1,1.3-7.2,3.7-8.5c2-1.1,4.5-0.9,7,0.5c5.7,3.3,10.3,12.1,10.3,19.6C24.9,33.8,23.5,36.9,21.2,38.3"/>
					<path class="st10" d="M19.9,2.5c-3.2-1.8-6.2-2.2-8.7-1L8.7,3.1c2.3,0,4.5,0.6,6.5,1.8c8.1,4.7,14.7,17.3,14.7,28.1
						c0.1,2.7-0.5,5.4-1.5,7.8C28.2,41.1,21,56,18.9,60.5l3.9-2.3c0.8-1.7,9.8-20.6,10-20.9c1-2.3,1.5-4.9,1.4-7.5
						C34.2,19.3,27.8,7.1,19.9,2.5"/>
					<path class="st12" d="M20.3,1.8c-3.4-2-6.8-2.3-9.5-1L5.4,4C5.4,4,5.3,4,5.2,4.1S5.1,4.1,5.1,4.2L4.8,4.3
						c-0.1,0-0.1,0.1-0.1,0.1C1.7,6.5,0,10.7,0,16.2c0.2,3.6,0.8,7.1,1.8,10.5c2,7.2,14.2,33,15.7,35.1l0,0c0,0,0,0,0,0
						c0,0,0,0.1,0.1,0.1c0,0,0,0,0,0c0.1,0.1,0.2,0.1,0.2,0.1c0,0,0.1,0,0.1,0c0,0,0,0,0.1,0c0,0,0,0,0,0l5.2-3.1
						c0.1,0,0.1-0.1,0.2-0.2c0.4-0.8,9.9-20.7,10.1-21.1c1.1-2.5,1.6-5.1,1.5-7.8C35.1,19.1,28.5,6.5,20.3,1.8 M17.9,60.7
						C15.7,56.6,4.8,34.2,2.7,26.5c-1-3.3-1.6-6.8-1.8-10.3c0-5.4,1.7-9.4,4.6-11.3l0.4-0.2c1-0.5,2.2-0.8,3.3-0.8
						c2,0.1,3.9,0.6,5.6,1.7C22.6,10.1,29,22.4,29,32.9c0.1,2.6-0.4,5.1-1.4,7.5C27.4,40.7,19.6,57,17.9,60.7 M32.8,37.3
						c-0.2,0.4-9.2,19.3-10,20.9l-3.9,2.3c2.2-4.5,9.3-19.5,9.5-19.8c1.1-2.5,1.6-5.1,1.5-7.8c0-10.8-6.6-23.4-14.7-28.1
						C13.2,3.6,11,3,8.7,3.1l2.6-1.5c2.5-1.2,5.5-0.9,8.7,1c7.9,4.5,14.3,16.8,14.3,27.3C34.3,32.4,33.8,35,32.8,37.3"/>
					<path class="st12" d="M14.6,10.2c-2.6-1.5-5-1.7-7-0.5c-2.4,1.4-3.7,4.5-3.7,8.5c0,7.5,4.6,16.3,10.3,19.6
						c1.3,0.8,2.7,1.2,4.2,1.3c1,0,1.9-0.2,2.8-0.7c2.3-1.4,3.7-4.5,3.7-8.5C24.9,22.2,20.2,13.4,14.6,10.2 M20.7,37.5
						c-1.7,1-3.9,0.8-6.2-0.5c-5.4-3.1-9.9-11.6-9.9-18.9c0-3.7,1.2-6.6,3.3-7.8c0.4-0.3,0.9-0.4,1.4-0.5c-0.8,1.8-1.2,3.7-1.2,5.6
						c0,7.5,4.6,16.3,10.3,19.6c1.1,0.7,2.3,1.1,3.6,1.2C21.7,36.8,21.3,37.2,20.7,37.5 M22.7,35.5c-1.3,0-2.6-0.4-3.8-1.1
						c-5.4-3.1-9.8-11.6-9.8-18.9c-0.1-2,0.4-4,1.3-5.7c1.3,0.1,2.6,0.4,3.7,1.1C19.6,14,24,22.5,24,29.8
						C24.1,31.8,23.6,33.7,22.7,35.5"/>
				</g>
			</g>
		</g>
	</g>
	<g transform="translate(373.18 5008.321)">
		<path class="st3" d="M15.6,23.3L13,24.9l-3-0.7l-1.9-4.4l-2.7-3L2,14.5l-1.1-4L2,7.8l2.1-2.6l1.3-2.1l4.6-1.7l5.8,0.5l2.5,2.3
			l1-1.5l3.4-1.7L27,1.9l0.7,1.5L28,3.7l2.4-1.9l6.1-0.8l3.7,1.3l3,4l2.1,2.4l-0.4,5l-1.2,1.4l-2,0.9l-3.3,2.3L36.5,22L35,23.9
			l-3.4-0.5h-1.1L27,24.9l-0.5,2.8L26,31.5l1.1,3l3.4,1.9h1.7L27,37.7l-3.6-0.6l-2.6-3.3l-0.7-5.1l-1.7-4.6L15.6,23.3z"/>
		<g class="st21">
			<path class="st22" d="M53.3,26.6c-0.1-0.1-0.2-0.2-0.2-0.4l0.1-0.2l6.5-17.4c0.1-0.5,0.4-0.7,0.9-0.7h2.9c0.5,0,0.8,0.2,0.9,0.7
				l6.5,17.4c0,0.1,0,0.1,0,0.2c0,0.2-0.1,0.3-0.2,0.4c-0.1,0.1-0.2,0.2-0.4,0.2h-2.3c-0.2,0-0.4-0.1-0.5-0.2
				c-0.1-0.1-0.2-0.2-0.2-0.4l-1.3-3.3h-8l-1.3,3.3c-0.1,0.3-0.4,0.5-0.8,0.5h-2.3C53.6,26.7,53.4,26.7,53.3,26.6z M65.2,19.8
				l-3.1-8.3l-3.1,8.3H65.2z"/>
			<path class="st22" d="M73.8,26.5c-0.1-0.1-0.2-0.3-0.2-0.5V8.5c0-0.2,0.1-0.4,0.2-0.5c0.1-0.1,0.3-0.2,0.5-0.2h2.5
				c0.2,0,0.4,0.1,0.5,0.2c0.1,0.1,0.2,0.3,0.2,0.5v17.6c0,0.2-0.1,0.3-0.2,0.5c-0.1,0.1-0.3,0.2-0.5,0.2h-2.5
				C74.1,26.7,73.9,26.7,73.8,26.5z"/>
			<path class="st22" d="M81.9,26.5c-0.1-0.1-0.2-0.3-0.2-0.5V8.5c0-0.2,0.1-0.4,0.2-0.5c0.1-0.1,0.3-0.2,0.5-0.2h7
				c2.2,0,3.9,0.5,5.2,1.5c1.3,1,1.9,2.5,1.9,4.4c0,1.3-0.3,2.4-1,3.3c-0.6,0.9-1.5,1.5-2.7,1.9l3.9,6.9c0.1,0.1,0.1,0.2,0.1,0.3
				c0,0.2-0.1,0.3-0.2,0.4c-0.1,0.1-0.2,0.2-0.4,0.2h-2.5c-0.3,0-0.5-0.1-0.7-0.2c-0.2-0.1-0.3-0.3-0.4-0.5l-3.5-6.4h-3.8v6.5
				c0,0.2-0.1,0.3-0.2,0.5c-0.1,0.1-0.3,0.2-0.5,0.2h-2.5C82.1,26.7,82,26.7,81.9,26.5z M89.2,16.6c1.1,0,1.9-0.2,2.4-0.7
				c0.5-0.5,0.8-1.2,0.8-2.1s-0.3-1.6-0.8-2.1c-0.5-0.5-1.4-0.8-2.4-0.8h-3.8v5.7H89.2z"/>
			<path class="st22" d="M98.3,26.6c-0.1-0.1-0.2-0.2-0.2-0.4l0.1-0.2l6.5-17.4c0.1-0.5,0.4-0.7,0.9-0.7h2.9c0.5,0,0.8,0.2,0.9,0.7
				l6.5,17.4c0,0.1,0,0.1,0,0.2c0,0.2-0.1,0.3-0.2,0.4c-0.1,0.1-0.2,0.2-0.4,0.2h-2.3c-0.2,0-0.4-0.1-0.5-0.2
				c-0.1-0.1-0.2-0.2-0.2-0.4l-1.3-3.3h-8l-1.3,3.3c-0.1,0.3-0.4,0.5-0.8,0.5h-2.3C98.5,26.7,98.4,26.7,98.3,26.6z M110.1,19.8
				l-3.1-8.3l-3.1,8.3H110.1z"/>
			<path class="st22" d="M121.6,26l-5.8-17.3l-0.1-0.2c0-0.2,0.1-0.3,0.2-0.4c0.1-0.1,0.2-0.2,0.4-0.2h2.4c0.2,0,0.4,0.1,0.6,0.2
				c0.1,0.1,0.2,0.3,0.3,0.4l4.6,13.9l4.6-13.9c0-0.1,0.1-0.3,0.3-0.4c0.1-0.1,0.3-0.2,0.6-0.2h2.4c0.1,0,0.3,0.1,0.4,0.2
				c0.1,0.1,0.2,0.2,0.2,0.4l-0.1,0.2L126.6,26c-0.2,0.5-0.5,0.8-1,0.8h-3C122.1,26.7,121.8,26.5,121.6,26z"/>
			<path class="st22" d="M132.4,26.6c-0.1-0.1-0.2-0.2-0.2-0.4l0.1-0.2l6.5-17.4c0.1-0.5,0.4-0.7,0.9-0.7h2.9c0.5,0,0.8,0.2,0.9,0.7
				l6.5,17.4c0,0.1,0,0.1,0,0.2c0,0.2-0.1,0.3-0.2,0.4c-0.1,0.1-0.2,0.2-0.4,0.2h-2.3c-0.2,0-0.4-0.1-0.5-0.2
				c-0.1-0.1-0.2-0.2-0.2-0.4l-1.3-3.3h-8l-1.3,3.3c-0.1,0.3-0.4,0.5-0.8,0.5h-2.3C132.6,26.7,132.5,26.7,132.4,26.6z M144.2,19.8
				l-3.1-8.3l-3.1,8.3H144.2z"/>
			<path class="st22" d="M155,26.5c-0.1-0.1-0.2-0.3-0.2-0.5V11.2h-5c-0.2,0-0.3-0.1-0.5-0.2c-0.1-0.1-0.2-0.3-0.2-0.5v-2
				c0-0.2,0.1-0.4,0.2-0.5c0.1-0.1,0.3-0.2,0.5-0.2h13.8c0.2,0,0.4,0.1,0.5,0.2c0.1,0.1,0.2,0.3,0.2,0.5v2c0,0.2-0.1,0.3-0.2,0.5
				s-0.3,0.2-0.5,0.2h-5v14.9c0,0.2-0.1,0.3-0.2,0.5c-0.1,0.1-0.3,0.2-0.5,0.2h-2.5C155.3,26.7,155.1,26.7,155,26.5z"/>
		</g>
		<g transform="translate(0 0)">
			<g>
				<defs>
					<rect id="SVGID_00000036947397268400401570000017549891293443296178_" x="0" y="0" width="46.4" height="38.9"/>
				</defs>
				<clipPath id="SVGID_00000140007007045391563910000004151453223508113038_">
					<use xlink:href="#SVGID_00000036947397268400401570000017549891293443296178_"  style="overflow:visible;"/>
				</clipPath>
				<g transform="translate(0)" style="clip-path:url(#SVGID_00000140007007045391563910000004151453223508113038_);">
					<path class="st24" d="M12.4,25.7c-0.3,0-0.7,0-1-0.1c-1.7-0.5-3-1.8-3.5-3.4c-0.8-2.7-2-4.1-4-4.9C0.4,16.1,0,12.9,0,10.6
						C-0.2,8.8,0.6,7,2.1,6c0.8-0.6,1.5-1.4,1.8-2.3c0.8-2.5,4.7-3.4,7.7-3.4h0.1c2.2,0,4.9,0.5,6.4,1.9c0.4-0.4,0.8-0.8,1.3-1
						c2.3-1.1,5-1.3,7.5-0.5c0.6,0.2,1.1,0.5,1.5,1C30,0.3,32.8-0.1,35.1,0c3.1,0.1,7,1.2,7.7,3.8c0.3,0.9,0.9,1.7,1.7,2.4
						c1.5,1.1,2.2,2.9,1.8,4.8c-0.1,2.2-0.7,5.4-4.3,6.3c-2,0.7-3.2,2.1-4.1,4.7c-0.6,1.7-2,2.9-3.7,3.3c-1.5,0.3-3-0.2-4.1-1.3
						c-0.3-0.3-0.3-0.8,0-1.1s0.8-0.3,1.1,0l0,0c0.7,0.7,1.7,1.1,2.7,0.9c1.2-0.3,2.1-1.2,2.5-2.3c0.7-2.6,2.6-4.7,5.1-5.6
						c2.1-0.6,3-2,3.2-5c0.3-1.3-0.2-2.7-1.3-3.5c-1-0.8-1.7-1.8-2.2-3c-0.4-1.4-3-2.6-6.3-2.7c-3-0.1-5.5,0.7-6,1.9
						C28.9,3.8,28.6,4,28.2,4c-0.4-0.1-0.6-0.4-0.7-0.7c0-0.6-0.7-0.9-1.2-1.1c-2-0.6-4.2-0.5-6.2,0.4c-0.5,0.3-1.1,0.7-1,1.3
						c0,0.4-0.3,0.8-0.7,0.8c-0.4,0-0.7-0.2-0.8-0.5c-0.4-1.3-2.9-2.2-5.9-2.2h-0.1c-3.2,0-5.8,1-6.3,2.4c-0.5,1.2-1.3,2.2-2.3,3
						c-1.2,0.7-1.8,2.1-1.5,3.4c0,3,0.8,4.5,2.9,5.1c2.5,1.1,4.3,3.3,5,5.9c0.3,1.2,1.2,2.1,2.4,2.4c1,0.2,2-0.1,2.7-0.8
						c0.3-0.3,0.8-0.3,1.1,0c0.3,0.3,0.3,0.8,0,1.1C14.7,25.2,13.6,25.7,12.4,25.7"/>
					<path class="st24" d="M27.4,38.9c-1.2,0-2.4-0.3-3.5-0.8c-2.7-1.3-4.4-4.1-4.5-7.6c-0.2-2.6-1-4.8-1.9-5.2
						c-2.6-0.7-2.9-2.2-2.8-3.3l0.2-4.6c0-0.4,0.4-0.7,0.8-0.7h0c0.4,0,0.8,0.4,0.7,0.8l0,0l-0.2,4.7c0,0.4-0.1,1.2,1.7,1.7
						c1.9,0.7,2.8,3.8,3,6.5c0.1,3,1.4,5.3,3.6,6.3c2,0.8,4.2,0.8,6.1,0c-1.2-0.1-2.4-0.6-3.4-1.4c-1.4-1.2-2.1-3.1-1.9-4.9
						c0.2-2.7,1-5.9,2.9-6.5c1.9-0.5,1.8-1.3,1.8-1.6l-0.2-4.7c0-0.4,0.3-0.8,0.7-0.8l0,0c0.4,0,0.8,0.3,0.8,0.7l0.2,4.7
						c0.1,1.1-0.2,2.5-2.9,3.2c-0.8,0.3-1.6,2.5-1.8,5.2c-0.1,1.4,0.4,2.7,1.4,3.6c1.2,1,3.1,1.3,5.5,0.8c0.4-0.1,0.8,0.2,0.9,0.6
						c0.1,0.3-0.1,0.6-0.3,0.8C32.4,37.9,29.9,38.8,27.4,38.9"/>
					<path class="st24" d="M32.5,31.7c-2.6,0-4.7-1.3-6.4-4c-0.2-0.4-0.1-0.8,0.3-1.1s0.8-0.1,1.1,0.3l0,0c1.3,2.1,2.8,3.2,4.8,3.3
						c-1.6-1.4-2.6-3.4-2.7-5.6c0-0.4,0.3-0.8,0.8-0.8l0,0c0.4,0,0.8,0.3,0.8,0.7c0,0,0,0,0,0c0,2.2,1.2,4,3.6,5.6
						c0.4,0.2,0.5,0.7,0.2,1.1c-0.1,0.2-0.3,0.3-0.5,0.3C33.7,31.6,33.1,31.7,32.5,31.7"/>
					<path class="st25" d="M29.5,25.1c-1.1,0.1-1.9,1-2,2c0.9,1.8,2.7,3,4.7,3.1C30.8,28.8,29.9,27,29.5,25.1"/>
					<path class="st24" d="M13.5,31.2c-0.6,0-1.3-0.1-1.9-0.2c-0.4-0.1-0.7-0.5-0.6-0.9c0-0.2,0.2-0.4,0.3-0.5
						c2.4-1.5,3.5-3.4,3.6-5.6c0-0.4,0.3-0.8,0.7-0.8c0,0,0,0,0,0h0c0.4,0,0.8,0.4,0.8,0.8c0,0,0,0,0,0l0,0c-0.1,2.2-1,4.2-2.7,5.6
						c1.9-0.1,3.5-1.2,4.8-3.3c0.2-0.4,0.7-0.5,1.1-0.3s0.5,0.7,0.3,1.1C18.2,29.9,16.1,31.2,13.5,31.2"/>
					<path class="st25" d="M16.4,24.6c1.1,0.1,1.9,1,2,2c-0.9,1.8-2.7,3-4.7,3.1C15.2,28.3,16.1,26.5,16.4,24.6"/>
					<path class="st24" d="M17,14c-0.4,0-0.8-0.3-0.8-0.7c0-0.1,0-0.2-0.1-0.3c0,0,0,0-0.1,0c-0.2,0-0.3,0-0.4,0.1
						c-0.4,0.1-0.8-0.1-1-0.5c-0.1-0.4,0.1-0.8,0.5-1c0,0,0,0,0,0c0.6-0.2,1.3-0.2,1.8,0.2c0.5,0.4,0.7,0.9,0.7,1.5
						C17.8,13.6,17.5,14,17,14L17,14"/>
					<path class="st24" d="M29.2,14c-0.4,0-0.8-0.3-0.8-0.8c-0.1-0.6,0.2-1.2,0.6-1.5c0.5-0.4,1.2-0.5,1.8-0.3
						c0.4,0.1,0.7,0.5,0.6,0.9c-0.1,0.4-0.5,0.7-0.9,0.6c-0.2-0.1-0.4-0.1-0.5,0c0,0.1,0,0.2,0,0.3C30,13.6,29.6,14,29.2,14L29.2,14
						z"/>
				</g>
			</g>
		</g>
	</g>
</g>
</svg>
