<?xml version="1.0" encoding="utf-8"?>
<!-- Generator: Adobe Illustrator 26.5.0, SVG Export Plug-In . SVG Version: 6.00 Build 0)  -->
<svg version="1.1" id="Layer_1" xmlns="http://www.w3.org/2000/svg" xmlns:xlink="http://www.w3.org/1999/xlink" x="0px" y="0px"
	 viewBox="0 0 200 200" style="enable-background:new 0 0 200 200;" xml:space="preserve">
<style type="text/css">
	.st0{fill:#E64D18;}
	.st1{fill:#003173;}
</style>
<g id="Group_92801" transform="translate(-467.272 -1115.125)">
	<g id="Group_92079" transform="translate(502.273 1127.125)">
		<path id="Path_186" class="st0" d="M83,174.4c-4.5-0.9-8.5-3.8-10.7-7.8c-2.3-4.3-3.2-9.2-2.5-14.1c0.8-7.4,3.9-13.9,7.8-20
			c0.3-0.7,1-1,1.7-0.7c0.1,0,0.1,0,0.1,0.1c8.9,3,17.9,5.4,26.8,8.1c0.7,0.2,1.4,0.2,1.2,1.4c-0.8,6.8-2,13.5-5,19.7
			c-2.5,5.1-5.8,9.6-11.1,12.1c-1.3,0.5-2.7,1-4,1.4L83,174.4z"/>
		<path id="Path_187" class="st1" d="M87.3,176.9H83c-0.2,0-0.4,0-0.6-0.1c-5.2-1.1-9.7-4.4-12.4-9c-2.6-4.8-3.6-10.2-2.9-15.6
			c0.8-6.9,3.4-13.6,8.2-21.1c0.9-1.7,3-2.4,4.8-1.7c6.6,2.2,13.3,4.2,19.9,6l6.9,2c3,0.8,3.2,2.9,3,4.1c-0.8,6.6-1.9,13.7-5.2,20.5
			c-3.2,6.6-7.1,10.8-12.3,13.3c-1,0.4-2,0.8-3,1.1l-1.2,0.4C87.9,176.9,87.6,176.9,87.3,176.9 M83.3,171.9h3.7l0.9-0.3
			c0.8-0.2,1.6-0.5,2.4-0.9c4.1-1.9,7.2-5.4,9.9-10.9c2.8-5.7,3.9-11.8,4.6-17.7l-6.2-1.8c-6.4-1.9-12.9-3.8-19.3-5.9
			c-4.2,6.6-6.4,12.5-7.1,18.4c-0.6,4.3,0.1,8.7,2.2,12.6C76.3,168.7,79.5,171.1,83.3,171.9"/>
		<path id="Path_188" class="st1" d="M109.3,135c-0.4,0-0.8-0.1-1.2-0.2l-0.6-0.2c-8.7-2.1-17.4-4.3-26.1-6.4
			c-2.6-0.5-4.6-2.4-5.4-4.9c-2.7-7.7-4.1-16.5-4.3-27v0c-0.1-14.1,2.1-25.9,7.2-37.2c3.4-7.6,7.9-13,13.7-16.3
			c5.6-3,12.3-3.6,18.3-1.7c5.8,1.8,10.6,6,13.1,11.6c2.4,5.1,3.8,10.7,4.5,18.2c0.4,4,0.6,7,0.7,9.9c0,5.1-0.6,10.2-1.7,15.1
			c-1.8,9.2-4.4,20-9.6,30.3c-1.3,2.8-3.1,5.3-5.4,7.5C111.6,134.5,110.5,135,109.3,135 M76.7,96.3c0.2,10,1.6,18.3,4,25.5
			c0.2,0.9,0.9,1.5,1.8,1.7c8.7,2.1,17.4,4.2,26.1,6.4l0.6,0.2c1.6-1.8,3-3.8,4-6c4.9-9.7,7.4-20.1,9.1-29c1-4.6,1.6-9.3,1.6-14.1
			c-0.1-2.7-0.3-5.6-0.6-9.5c-0.7-6.9-1.9-12-4.1-16.6c-1.9-4.3-5.6-7.5-10.1-8.9c-4.7-1.5-9.9-1.1-14.3,1.2
			c-4.9,2.8-8.6,7.3-11.6,14C78.6,71.9,76.5,82.8,76.7,96.3"/>
		<path id="Path_189" class="st1" d="M19.8,95c-1.2,0-2.3-0.5-3.1-1.3c-3.3-3.1-5.2-6.8-6.8-10.4c-3.7-8.3-6.3-17.4-8.6-29.7
			c-2-10.9-1.6-22.2,1.5-34.4C4.6,11.7,8.2,6.4,13.7,3c4.2-2.5,9.1-3.5,15-2.9c8.7,0.9,13.9,6.7,17.1,11c5.1,6.9,7.6,14.9,9.4,22.5
			c1.6,6.6,2.4,13.4,2.3,20.2v0c-0.2,9.4-0.9,19.4-4.3,29.3c-0.7,2.6-2.9,4.6-5.6,5.2c-7.9,1.9-15.8,3.8-23.7,5.8L21,94.9
			C20.6,95,20.2,95,19.8,95 M25.3,5.1c-3.2-0.1-6.3,0.7-9,2.3c-4.4,2.6-7.1,6.8-8.7,13C4.8,31.9,4.3,42.5,6.2,52.7
			c2.2,11.8,4.7,20.6,8.2,28.5c1.3,3.3,3.2,6.3,5.6,8.8l2.6-0.8c7.9-2,15.9-3.9,23.8-5.8c1-0.1,1.8-0.9,1.9-1.9
			c3.2-9.2,3.8-18.8,4-27.7c0.1-6.4-0.6-12.7-2.1-18.9c-1.7-7.1-4-14.4-8.6-20.7c-4.2-5.7-8.4-8.5-13.6-9
			C27.2,5.1,26.3,5.1,25.3,5.1 M54.9,53.9L54.9,53.9z"/>
		<path id="Path_190" class="st0" d="M59.5,116.5c-0.2,5.8-2,11.6-7.7,15.5c-5.5,3.8-12.5,3.2-17.9-1.4c-5.6-4.7-8.4-11-10.2-17.8
			c-0.9-3.8-1.6-7.6-2-11.5c-0.1-1,0.4-1.2,1.2-1.4c7.5-2.2,15-4.4,22.5-6.7c0.5-0.1,1-0.3,1.4-0.4c4.2-1.4,4.2-1.4,6.4,2.5
			C56.9,101.6,59.5,108.3,59.5,116.5"/>
		<path id="Path_191" class="st1" d="M43.9,137c-4.3-0.1-8.4-1.6-11.7-4.4c-6.6-5.5-9.4-13.1-11.1-19.1c-0.9-3.7-1.6-7.4-2-11.2
			l-0.1-0.7c-0.2-1.4,0.2-3.3,2.9-4.1L46,90.4c5.3-1.7,6.6-1.2,9.4,3.6c4.6,7.9,6.6,14.8,6.6,22.5v0.1c-0.3,7.8-3.2,13.6-8.8,17.5
			C50.5,136,47.3,137,43.9,137 M24.3,102.1c0.4,3.4,1,6.7,1.8,10c2.2,7.9,5,12.9,9.4,16.5c4.6,3.8,10.4,4.3,14.9,1.2
			c4.2-2.9,6.4-7.3,6.6-13.4c-0.1-6.7-1.9-12.9-6-20c-0.4-0.8-0.9-1.5-1.4-2.2c0.1,0.2-1,0.5-2,0.9L24.3,102.1z"/>
	</g>
</g>
</svg>
