<?xml version="1.0" encoding="utf-8"?>
<!-- Generator: Adobe Illustrator 26.5.0, SVG Export Plug-In . SVG Version: 6.00 Build 0)  -->
<svg version="1.1" id="Layer_1" xmlns="http://www.w3.org/2000/svg" xmlns:xlink="http://www.w3.org/1999/xlink" x="0px" y="0px"
	 viewBox="0 0 200 200" style="enable-background:new 0 0 200 200;" xml:space="preserve">
<style type="text/css">
	.st0{clip-path:url(#SVGID_00000000939131839869555760000016980978882217280178_);}
	.st1{fill:#003173;}
	.st2{fill:#E64B16;}
</style>
<g id="Group_92803" transform="translate(41 13)">
	<g>
		<defs>
			<rect id="SVGID_1_" width="118.5" height="173.3"/>
		</defs>
		<clipPath id="SVGID_00000103987844482819515240000005317929458792812733_">
			<use xlink:href="#SVGID_1_"  style="overflow:visible;"/>
		</clipPath>
		
			<g id="Group_218" transform="translate(0 0)" style="clip-path:url(#SVGID_00000103987844482819515240000005317929458792812733_);">
			<path id="Path_10931" class="st1" d="M63.3,114.4c-1.8,0-3.3-1.5-3.3-3.3V55.8c0-4.2-2.9-5.7-5.5-5.7s-5.5,1.5-5.5,5.7v43.7
				c0.1,1.8-1.4,3.4-3.2,3.4c-1.8,0.1-3.4-1.4-3.4-3.2c0,0,0-0.1,0-0.1V55.8c0-16.3,24.2-16.3,24.2,0v55.3
				C66.7,112.9,65.2,114.4,63.3,114.4C63.3,114.4,63.3,114.4,63.3,114.4"/>
			<path id="Path_10932" class="st1" d="M80.3,116c-1.8,0-3.3-1.5-3.3-3.3c0,0,0,0,0,0V89.1c0.1-1.5-0.5-3-1.6-4.1
				c-2.1-1.7-5.1-1.7-7.1,0c-1.1,1.1-1.7,2.6-1.6,4.1v10.7c0,1.8-1.6,3.3-3.4,3.2c-1.8,0-3.2-1.5-3.2-3.2V89.1
				c-0.3-6.4,4.6-11.8,11-12c0.3,0,0.5,0,0.8,0c3,0,5.9,1.1,8.1,3.1c2.5,2.3,3.9,5.6,3.7,9v23.5C83.6,114.5,82.1,116,80.3,116
				C80.3,116,80.3,116,80.3,116"/>
			<path id="Path_10933" class="st1" d="M98.3,115.3c-1.8,0-3.3-1.5-3.3-3.3c0,0,0,0,0,0V97.8c0-5.2-5.1-5.4-5.7-5.4
				c-0.6,0-5.7,0.1-5.7,5.4v8c0,1.8-1.5,3.3-3.3,3.3c-1.8,0-3.3-1.4-3.3-3.2v-8.1c0-15.8,24.7-15.8,24.7,0V112
				C101.7,113.8,100.2,115.3,98.3,115.3z"/>
			<path id="Path_10934" class="st1" d="M71.5,173.3c-11.7,0.2-23-3.8-32.1-11.1c-9.7-8.2-14.8-19.8-14.8-33.7V98.8
				c0-16.4,24.5-16.4,24.5,0v31c0,1.8-1.5,3.3-3.3,3.3c-1.8,0-3.3-1.4-3.3-3.2V98.8c0-4.3-3-5.8-5.6-5.8c-2.6,0-5.6,1.5-5.6,5.8
				v29.7c0,11.8,4.3,21.7,12.5,28.6c7.8,6.4,17.7,9.8,27.8,9.6h0.1c10.1,0.2,20-3.2,27.8-9.6c8.1-6.9,12.4-16.8,12.4-28.6v-23.1
				c0-4.6-4.6-4.8-5.1-4.8s-5.1,0.1-5.1,4.8v7.2c0.1,1.8-1.4,3.4-3.2,3.4s-3.4-1.4-3.4-3.2c0,0,0-0.1,0-0.1v-7.3
				c0-7.5,5.9-11.4,11.7-11.4c5.8,0,11.7,3.9,11.7,11.4v23.1c0,13.8-5.1,25.5-14.8,33.7C94.6,169.5,83.3,173.5,71.5,173.3
				L71.5,173.3z"/>
			<path id="Path_10935" class="st2" d="M80.9,58.5c-1.8,0-3.3-1.5-3.3-3.3c0,0,0,0,0,0c0-15.7-12.1-22.9-23.3-22.9S31,39.5,31,55.2
				c0,1.8-1.6,3.3-3.4,3.2c-1.8,0-3.2-1.5-3.2-3.2c0-19.4,15.1-29.6,29.9-29.6s29.9,10.2,29.9,29.6C84.2,57.1,82.7,58.5,80.9,58.5
				C80.9,58.5,80.9,58.5,80.9,58.5"/>
			<path id="Path_10936" class="st2" d="M93.8,59c-1.8,0-3.3-1.5-3.3-3.3c0,0,0,0,0,0c0-25.1-18.7-36.6-36-36.6s-36,11.4-36,36.6
				c0,1.8-1.6,3.3-3.4,3.2c-1.8,0-3.2-1.5-3.2-3.2c0-28.4,21.5-43.2,42.7-43.2s42.7,14.9,42.7,43.2C97.1,57.5,95.6,59,93.8,59
				C93.8,59,93.8,59,93.8,59"/>
			<path id="Path_10937" class="st2" d="M106.5,59c-1.8,0-3.3-1.5-3.3-3.3c0,0,0,0,0,0c0-15.2-5.2-27.9-15-36.8
				C79,10.8,67.1,6.5,54.9,6.7C31.7,6.7,6.7,22,6.7,55.7c0,1.8-1.5,3.3-3.3,3.3c-1.8,0-3.3-1.4-3.3-3.2v-0.1C0,17.4,28.5,0,54.9,0
				c13.9-0.2,27.3,4.8,37.7,14c11.3,10.2,17.2,24.6,17.2,41.7C109.8,57.5,108.3,59,106.5,59"/>
		</g>
	</g>
</g>
</svg>
