<?xml version="1.0" encoding="utf-8"?>
<!-- Generator: Adobe Illustrator 26.5.0, SVG Export Plug-In . SVG Version: 6.00 Build 0)  -->
<svg version="1.1" id="Layer_1" xmlns="http://www.w3.org/2000/svg" xmlns:xlink="http://www.w3.org/1999/xlink" x="0px" y="0px"
	 viewBox="0 0 200 200" style="enable-background:new 0 0 200 200;" xml:space="preserve">
<style type="text/css">
	.st0{fill:#003173;}
	.st1{fill:#E64D18;}
</style>
<g id="Group_92800" transform="translate(-1082.353 -791.936)">
	<path id="Path_192" class="st0" d="M1118.3,986.1c-0.8,0-1.6-0.3-2.3-0.7c-2.4-1.3-3.1-3.2-2.4-5.6c0.5-1.7,0.7-3.4,0.8-5.1
		c-1,0.4-2,0.6-3.1,0.6c-0.2,0-0.5,0-0.6,0.1c-0.8,0.4-3,1-5-1.9c-0.7-1.1-1.5-2.9,0.3-5.3c0.7-0.9,1.4-1.8,2.1-2.7
		c0.9-1.2,1.9-2.5,2.8-3.7c-1-0.6-1.9-1.2-2.7-1.7c-1.4-0.9-2.9-1.8-4.3-2.6c-2.3-1.1-3.4-3.7-2.5-6.1c0.5-1.8,1-3.5,1.5-5.3
		l0.6-2.3c0.1-0.8,0.4-1.5,0.8-2.2c-0.8-1.7-0.8-3.7,0-5.5c-0.6-0.2-1.1-0.4-1.6-0.7c-3-2-2.6-4.3-1.9-5.8c1.3-2.6,1.4-4.1,0.5-5.6
		c-0.4-0.8-0.6-1.8-0.4-2.7c0.3-1,1-1.9,1.9-2.3l0.6-0.3c0.5-0.4,1-0.7,1.6-1c-0.1-0.4-0.3-0.7-0.6-0.9c-1.3-0.5-2.3-1.6-2.7-2.9
		c-0.2-1-0.1-2,0.4-2.9c-3.5-3.3-5.3-6.8-5.6-10.6c-0.2-2.5,1.2-4.4,2.2-5.7c0.3-0.4,0.5-0.7,0.8-1.1c0.1-0.2,0.2-0.4,0.3-0.6
		c-0.9-0.1-1.7-0.5-2.3-1.2c-0.9-1-1.2-2.3-1-3.6l0.1-0.4c-1.4-1.1-1.4-2.9-1.4-4c0-0.3,0-0.5,0-0.8c-0.2-1.2,0.1-2.4,0.9-3.3
		c0.6-0.6,1.4-1,2.3-1.1c-0.4-2.8,0.2-5.6,1.8-7.9c-0.7-0.2-1.3-0.7-1.7-1.3c-1.4-2-1-6.4,0.6-9.4c-0.2-0.1-0.4-0.3-0.6-0.5
		c-0.5-0.6-0.7-1.3-0.7-2.1c-0.9-1-2.3-2.8-1.4-5.1l0,0l-1.2-1.7c-0.8-1.1-1.5-2.3-2.4-3.3c-1.7-1.9-1.9-4.8-0.3-6.9
		c0.9-1.5,2.6-3,5.9-1.7c1.8,0.8,3.9,0.8,5.8,0.1c1.3-0.5,4.8-1.9,7.5,0.7c1.7,1.7,3.7,2,6.7,1.1c3.2-0.8,6.5-1.4,9.8-1.7l2.9-0.3
		c4.1-3.4,8.5-2.6,12.1-2.1c1.3,0.3,2.7,0.4,4.1,0.4c2.2,0,4.4-0.6,6.2-1.9c1.8-1.4,4.1-1.9,6.3-1.3l0.1,0c2.9-1.9,6.4-2.5,9.8-1.7
		c0.4-1.4,1.3-2.6,2.5-3.4c-0.1-4.1,2.6-5.3,4.3-5.7c0.7-0.2,1.3-0.4,1.9-0.7c0.6-0.2,1.2-0.5,1.8-0.7c0.1-0.3,0.2-0.5,0.3-0.8
		c0.6-2.3,1.8-3.3,4.2-3.7c0.4-0.1,0.8-0.1,1.2-0.1c0.5,0,1-0.1,1.5-0.2c0.7-3.8,3.4-5.6,5.3-6.9l0.8-0.5c2.3-1.6,2.5-2.7,1.2-5.1
		c-0.6-1.1-0.5-2.4,0.3-3.3c1.2-1.4,12.8-4.4,15-3.5c0.4,0.2,0.7,0.4,1,0.7c5.4,1.2,8.4,4.6,8.8,9.5c0.2-0.2,0.5-0.3,0.7-0.4
		c2-0.8,4.4-0.3,6.4,1.4c2.4,2,3.2,2.6,4.7,2.3c2.2-0.4,4.3,0.9,4.9,3c0.5,1.4,1.2,2.7,2,3.9c1.3,1.9,2.2,3.9,2.8,6.1
		c0.1,0.5,0.3,1,0.4,1.5c0.6,1.8,1.4,4.3,0.2,7c-0.1,0.5-0.1,1,0,1.5c0.2,1.1,0.1,2.2,0,3.2c0.1,0.1,0.2,0.2,0.3,0.2
		c4.5,2.4,3.8,7.1,3.6,8.6c0,0.2-0.1,0.4-0.1,0.6c0.3-0.1,0.5-0.2,0.8-0.2c1-0.1,2,0.2,2.8,0.9c0.4,0.3,0.9,0.6,1.4,0.9
		c1.9,0.8,3.4,2.2,4.3,4c0.4,0.7,2.9,2,4,2.6c2,1.1,3.1,1.7,3.7,2.9l0.3,0.9c0.4,1.1,0.7,1.7,1.1,2c2.1,1.4,1.4,3.9,0.9,5.6
		l-0.1,0.4l0.1,0.6c0.1,1,0.3,3.5,1,4c0.5,0.4,0.9,1,1,1.7l0.2,0.9c0.2,1.8,0.8,3.5,1.7,5.1c1.1,1.4,0.6,3.2,0.1,5.2
		c1.3,0.4,3,1.5,3.3,4.9c0.1,1,0.3,1.9,0.4,2.9c0.4,1.7,0.6,3.5,0.6,5.3c0.1,2.1-0.9,4.2-2.7,5.4c-1.4,0.9-2.2,2.4-2.1,4l0,1.2
		c-0.1,1.2-0.1,2.4,0.2,3.6c0.8,2.9,0.2,6-1.7,8.4c-0.5,0.9-0.8,2-0.9,3c-0.2,1.6-0.7,3.1-1.4,4.5c-1.1,2-6.7,5.1-7.3,5.4
		c-0.6,0.3-1.1,0.6-1.7,0.8c-1.3,0.4-2.4,1.2-3.3,2.2c-1,1.3-2.6,1.9-4.1,1.6c-4.2-0.2-8.5-0.6-12.6-1.4c-3.2-0.5-6.3-1-9.5-1.2
		c-2.5-0.2-5.1-0.4-7.6-0.7l-4.4-0.4c-2.6-0.2-4.1-0.7-4.8-2.6c-1.1-0.1-2.3-0.1-3.4-0.1c0.8,2.4,0.5,5.1-0.7,7.3
		c-0.6,1-0.6,2-0.6,3.7c0,2,0,4.6-1.8,7c-0.4,0.5-0.8,1-1.2,1.4c-0.5,0.6-1,1.2-1.4,1.9c-0.2,0.3-0.4,0.6-0.6,0.9
		c-0.3,0.5-0.5,1.1-0.7,1.6l-0.3,0.7c-0.6,1.5-2.3,2.1-3.7,1.6c-0.3-0.1-0.5-0.3-0.7-0.4c-1.2,0.1-2.4-0.2-3.5-0.7
		c-0.1,0.2-0.1,0.4-0.2,0.5c-0.3,0.7-0.6,1.4-1,2.1c1.5,1.1,2.5,2.7,2.6,4.6c0,2.4-1.8,4.2-3.4,5.5c-1,0.7-1.9,1.6-2.7,2.7
		c-0.8,1.4-2.2,2.4-3.8,2.8c-0.9,0.1-1.8,0-2.6-0.3c0,0.3,0,0.6-0.1,1c-0.1,2.6-2.1,4.7-4.6,4.9c-1.5,0.2-2.9,0.5-4.4,0.7
		c-1.1,0.3-2.4,0-3.3-0.7c-1-0.8-1.6-2.1-1.6-3.4l-0.4-0.4c-1.2-0.5-2.2-1.2-3-2.1c0,0.2-0.1,0.4-0.2,0.6c-1,1.8-3.1,1.8-4,1.7
		c-2.7-0.1-5.4-0.2-8.1-0.3l-4.1-0.2c-0.4,0-0.9,0-1.3,0c-0.8,1-2,1.7-3.3,1.8c-1.2,0.1-2.4-0.3-3.3-1.2c-0.4-0.3-0.9-0.4-1.4-0.5
		l-0.9-0.3l-0.3-0.1l-0.1,0.3c-0.8,2.6-3.6,4.1-6.2,3.5l-1.2-0.3c-1.3-0.2-2.7-0.5-3.9-1c-0.7,1.9-1.4,3.7-2.2,5.4
		c-0.1,1.3-0.9,2.4-2,2.9C1119.2,986,1118.8,986.1,1118.3,986.1 M1166.6,969.9c0.2,0.1,0.4,0.2,0.6,0.3c1.7,0.7,3.1,2.1,3.7,3.9
		c1-0.2,1.9-0.3,2.9-0.5c0.1-0.5,0.1-0.8,0.1-1.2c0-1.6,0.2-3.1,0.7-4.6c0.6-1.5,2.2-2.2,3.7-1.7c0.1,0.1,0.3,0.1,0.4,0.2l0.6,0.4
		c0.6,0.3,1.2,0.7,1.8,1.1l0.1,0.1l0.1-0.1c1.1-1.5,2.4-2.9,3.9-4c0.3-0.3,0.7-0.5,1-0.9c-0.3-0.3-0.6-0.5-0.9-0.7
		c-0.8-0.6-2.4-1.8-2.4-3.7c0-1.1,0.6-2.2,1.5-2.8c0.4-0.4,0.7-1,0.9-1.6c0.3-0.8,0.7-1.6,1.1-2.3c0.6-0.9,1.7-2.6,3.8-2.8
		c1.4,0,2.7,0.6,3.5,1.7c-0.1-0.1,0.1-0.1,0.2-0.1c0.1,0,0.3,0,0.5,0l0.1-0.2c0.2-0.4,0.4-0.7,0.7-1.1c0.6-1.1,1.3-2.1,2.2-3
		c0.3-0.4,0.6-0.7,0.9-1.1c0.6-0.8,0.7-1.9,0.7-3.6c-0.2-2.3,0.3-4.6,1.5-6.7c0.7-1.7,0.2-3.6-1.2-4.8c-1-0.9-1.2-2.3-0.7-3.6
		c0.3-1.2,1.5-1.9,2.7-1.7c1.1,0,2.3,0,3.4,0c2.6-0.2,5.3,0,7.8,0.5c1.1,0.3,1.9,1.1,2.1,2.2l4.6,0.5c2.5,0.3,5,0.5,7.4,0.7
		c3.4,0.2,6.7,0.7,9.9,1.2c3.9,0.7,7.8,1.1,11.7,1.3l0.2,0c1.4-1.4,3-2.5,4.8-3.3c0.5-0.2,0.9-0.4,1.4-0.7c1.9-1,3.6-2.1,5.3-3.4
		c0.2-0.8,0.4-1.7,0.6-2.5c0.2-1.9,0.9-3.8,2-5.4c0.8-1,1.1-2.3,0.7-3.5c-0.4-1.7-0.5-3.5-0.3-5.2l0-1.1c-0.1-3.5,1.7-6.8,4.7-8.6
		c0,0,0.1-0.2,0.1-0.7c0-1.4-0.2-2.8-0.5-4.2c-0.2-1.1-0.4-2.2-0.5-3.3c-1.2,0-2.3-0.5-3.1-1.4c-1.1-1.4-0.7-2.9-0.3-4.5l0.2-0.9
		c0.1-0.4,0.2-0.8,0.3-1.2c-1.2-2.1-1.9-4.3-2.2-6.7l0-0.1c-1.7-2.1-2-5.1-2.2-7.1l-0.1-0.9c0-0.8,0.1-1.5,0.4-2.3l0.1-0.4
		c-0.9-1-1.6-2.2-2-3.5l-0.1-0.1c-0.4-0.2-0.8-0.5-1.3-0.7c-3-1.6-5.5-3.1-6.4-5.1c-0.2-0.5-0.7-0.8-1.8-1.4
		c-0.2-0.1-0.4-0.2-0.6-0.3c-0.7,0.8-1.8,1.3-2.9,1.2c-2.4-0.2-3.4-2.6-3.8-3.4c-0.8-1.7-1-3.6-0.7-5.5c0.3-2.3-0.1-2.6-0.6-2.8
		c-1.5-0.9-2.7-2.2-3.5-3.8c-0.2-0.8-0.1-1.6,0.2-2.3c0.1-0.6,0.1-1.1,0-1.7c-0.3-1.5-0.1-3,0.4-4.5c0.3-0.7,0.1-1.6-0.4-3
		c-0.2-0.7-0.4-1.4-0.6-2.1c-0.4-1.5-1.1-3-2.1-4.3c-0.9-1.3-1.6-2.7-2.2-4.1c-3.5,0.2-6-1.8-7.9-3.5c-0.2-0.2-0.4-0.3-0.5-0.4
		c-0.4,1.5-1.4,2.9-2.8,3.7c-1.3,0.9-3.1,1-4.5,0.4c-1-0.5-4.1-2.3-2.4-7c0.1-0.3,0.3-0.7,0.4-1c0.1-0.3,0.3-0.6,0.3-0.9
		c-0.1-1.9-0.7-3.9-4.7-4.5c-0.6-0.1-1.2-0.3-1.8-0.6c-1.6,0.3-4.6,1-6.8,1.6c0.9,3.6-0.6,6.9-4.2,9.4l-0.9,0.6
		c-1.7,1.1-2.7,1.8-2.9,3.1c-0.9,4.6-5,4.8-6.7,5l-0.5,0c-0.5,2-2,3.7-3.9,4.3c-0.5,0.2-1,0.3-1.4,0.5c-0.9,0.4-1.7,0.7-2.6,0.9
		c0,0.1,0,0.2,0,0.4c0.3,1.1,0.1,2.3-0.5,3.3c-0.6,0.7-1.4,1.2-2.3,1.4c0,0.3-0.1,0.5-0.2,0.8c-0.1,0.4-0.2,0.8-0.4,1.2
		c-1.1,3.2-3.5,2.9-4.8,2.5c-2.4-0.9-5-0.6-7.1,0.8c-1.3,0.8-3,1-4.4,0.4c-0.3-0.1-0.5-0.1-1.6,0.6c-2.7,1.8-5.9,2.8-9.2,2.8
		c-1.7,0-3.4-0.2-5.1-0.5c-3.7-0.6-5.9-0.8-8,1.2c-0.7,0.6-1.6,0.9-2.5,0.9l-3,0.3c-3,0.2-6,0.7-8.9,1.5c-4.9,1.4-9,0.6-12.2-2.5
		c-0.5,0.1-1,0.3-1.4,0.5c-2.6,1-5.5,1.2-8.2,0.5c0.6,1,1.3,2,1.9,2.9l1.1,1.6c1.1,1.3,1.5,3,1,4.7c0.3,0.4,0.6,0.8,0.9,1.3
		c1.6,0.3,2.8,1.5,3.2,3.1c0.3,1.5-0.2,3-1.5,3.9c-0.6,0.9-1,1.9-1.1,3c1.3,0.3,2.4,1,3.2,2c0.8,0.8,1.2,1.9,1.1,3
		c-0.2,1.3-0.9,2.5-1.9,3.2c-1.7,1.4-2.2,3-1.7,5.7c0,0.2,0,0.4,0,0.6c0.4,1.4-0.2,3.7-3.1,4.7c0.9,0.9,1.4,2.2,1.3,3.5
		c0.9,0.2,1.7,0.7,2.3,1.3c1,1.3,1.4,3,1,4.6c-0.2,1.1-0.6,2.2-1.2,3.1c-0.4,0.6-0.7,1.1-1.2,1.6c-0.5,0.6-1.1,1.5-1.1,1.8
		c0.2,2.6,1.6,4.9,4.2,7.2c2.2,2,2.2,3.9,1.6,5.2c1.6,1.4,2.7,3.4,2.9,5.6c0.3,1.4,0,3.4-3,4.6c-0.3,0.2-0.5,0.4-0.7,0.5
		c0.7,2.4,0.6,5-0.4,7.4c0.5-0.1,0.9-0.2,1.4-0.2c1.4-0.1,2.7,0.9,3,2.3c0.2,1.1,0,2.3-0.5,3.3c-0.3,0.7-0.5,1.3-0.7,1.8
		c-0.2,0.4-0.4,0.9-0.5,1.3c0.8,0.8,1.3,1.9,1.4,3.1c-0.1,1-0.7,2-1.5,2.6c-0.1,0.2-0.1,0.5-0.1,0.6l-0.6,2.3
		c-0.5,1.7-0.9,3.4-1.4,5.1c1.6,1,2.9,1.8,4.3,2.7c1.2,0.8,2.5,1.6,3.8,2.3c1.2,0.6,2.1,1.7,2.4,3.1c0.1,1.3-0.3,2.7-1.2,3.7
		c-1.2,1.5-2.4,3-3.6,4.6c-0.1,0.1-0.2,0.2-0.3,0.4c1.6-0.6,3.5-0.5,5,0.4c1.2,0.6,2,1.7,2.5,2.9c0.4-0.5,1-1,1.6-1.2
		c1.2-0.4,2.5-0.2,3.6,0.5c1.1,0.5,2.4,0.9,3.6,1l1.1,0.2c0.5-1.7,1-3,2.4-3.7c1.5-0.8,3-0.4,4.9,0.2l0.7,0.2c1,0.2,1.9,0.6,2.8,1.1
		c1.4-1.1,3.2-1.6,5-1.3l4.4,0.2c2.1,0.1,4.1,0.2,6.2,0.3c0.4-1.1,1.3-2,2.3-2.5c1.5-1.4,3.7-1.9,5.6-1.1
		C1165.7,966.9,1166.7,968.3,1166.6,969.9z M1097.8,856.3L1097.8,856.3 M1130.2,838.8L1130.2,838.8L1130.2,838.8 M1212,800L1212,800
		 M1210.1,797.6L1210.1,797.6L1210.1,797.6"/>
	<rect id="Rectangle_33127" x="1204.1" y="866.5" class="st1" width="19.6" height="19.6"/>
	<path id="Path_193" class="st0" d="M1223.7,889h-19.6c-1.6,0-2.8-1.3-2.8-2.9v-19.6c0-1.6,1.3-2.8,2.8-2.8h19.6
		c1.6,0,2.8,1.3,2.9,2.8v19.6C1226.6,887.7,1225.3,889,1223.7,889C1223.7,889,1223.7,889,1223.7,889 M1206.9,883.3h13.9v-13.9h-13.9
		V883.3z"/>
	<rect id="Rectangle_33128" x="1146.4" y="927.4" class="st1" width="15.2" height="15.2"/>
	<path id="Path_194" class="st0" d="M1161.7,945.5h-15.2c-1.6,0-2.8-1.3-2.9-2.8c0,0,0,0,0,0v-15.2c0-1.6,1.3-2.8,2.8-2.8
		c0,0,0,0,0,0h15.2c1.6,0,2.8,1.3,2.8,2.8c0,0,0,0,0,0v15.2C1164.5,944.3,1163.3,945.5,1161.7,945.5
		C1161.7,945.5,1161.7,945.5,1161.7,945.5 M1149.3,939.8h9.6v-9.6h-9.6V939.8z"/>
	<rect id="Rectangle_33129" x="1166.8" y="854.3" class="st1" width="19.6" height="19.5"/>
	<path id="Path_195" class="st0" d="M1186.4,876.7h-19.6c-1.6,0-2.8-1.3-2.8-2.8v-19.5c0-1.6,1.3-2.8,2.8-2.8h19.6
		c1.6,0,2.8,1.3,2.8,2.8c0,0,0,0,0,0v19.5C1189.2,875.4,1188,876.7,1186.4,876.7C1186.4,876.7,1186.4,876.7,1186.4,876.7
		 M1169.6,871h13.9v-13.9h-13.9V871z"/>
</g>
</svg>
