<?xml version="1.0" encoding="utf-8"?>
<!-- Generator: Adobe Illustrator 26.5.0, SVG Export Plug-In . SVG Version: 6.00 Build 0)  -->
<svg version="1.1" id="Layer_1" xmlns="http://www.w3.org/2000/svg" xmlns:xlink="http://www.w3.org/1999/xlink" x="0px" y="0px"
	 viewBox="0 0 200 200" style="enable-background:new 0 0 200 200;" xml:space="preserve">
<style type="text/css">
	.st0{fill:#E64D18;}
	.st1{fill:#003173;}
</style>
<g id="Group_92076" transform="translate(-553.621 -787.129)">
	<path id="Path_166" class="st0" d="M654,884.9c11-0.1,19.9-8.9,20.1-19.9c-0.1-11.1-9.2-20-20.3-19.9c-10.9,0.1-19.8,8.9-19.9,19.9
		C633.9,876,642.9,884.9,654,884.9C653.9,884.9,654,884.9,654,884.9"/>
	<path id="Path_167" class="st1" d="M653.5,975.9L653.5,975.9c-9.5-0.2-21.8-1.1-33.4-6c-4.1-1.5-7.7-4-10.7-7.2
		c-4.7-5.4-4.7-12.2,0-17.8c2.7-2.9,6-5.3,9.7-6.8c4.5-2,9.3-3.5,14.1-4.4c2.4-0.6,4.9,0.4,6.4,2.4c2.9,3.8,5.9,7.5,8.8,11.3
		l5.4,6.9l2.4-3.1c3.9-5,7.8-10,11.7-15c1.4-2.1,4.1-3.1,6.6-2.5c6,1.3,13,3.2,19.3,7.3c1.4,0.9,2.7,2,3.9,3.2
		c5.7,5.9,5.6,13.5-0.2,19.3c-4.4,4.4-9.9,6.6-14.7,8.1C674.5,974.4,665.5,975.7,653.5,975.9L653.5,975.9 M633.7,942.6
		c-3.7,0.8-7.3,1.9-10.8,3.4c-2.6,1-4.9,2.6-6.7,4.6c-1.9,2.2-1.9,4.1-0.1,6.2c2.1,2.2,4.6,3.9,7.5,4.9c10.2,4.3,20.8,5.1,30,5.3
		c11-0.2,19.2-1.3,26.6-3.7c4-1.3,8.1-2.9,11.2-6c2.4-2.4,2.4-4.6,0.1-7c-0.7-0.7-1.5-1.4-2.4-2c-4.6-3-9.8-4.6-14.8-5.7
		c-3.6,4.7-7.3,9.4-10.9,14l-2.5,3.2c-2.5,3.1-5.1,3.8-6.9,3.8h0c-1.8,0-4.4-0.7-6.8-3.8l-5.5-7C639,949.5,636.3,946,633.7,942.6"/>
	<path id="Path_168" class="st1" d="M653.9,964.9c-1.9,0-3.6-1-4.7-2.5c-4.1-5.4-8.3-10.8-12.5-16.1c-10-12.7-20.3-25.8-29.1-39.9
		c-5.3-8.5-11.1-18.8-14.4-30.7c-1.3-4.4-1.9-8.9-1.9-13.5c-0.1-26.1,17.5-50.2,42.8-58.6c32.9-10.9,68.4,6.8,79.3,39.7
		c0.5,1.4,0.9,2.8,1.2,4.2c3.1,12.1,2.2,24.4-2.9,36.8c-5.5,13.4-13.2,25.2-20,34.9c-6.6,9.4-13.7,18.5-20.7,27.3
		c-3.5,4.4-7,8.8-10.4,13.3l-2,2.7C657.6,963.9,655.8,964.9,653.9,964.9L653.9,964.9z M656.2,957.1L656.2,957.1z M654.1,809.1
		c-5.8,0-11.6,1-17.2,2.8c-21.8,7.2-36.9,27.9-36.8,50.3v0.2c0,3.7,0.5,7.4,1.6,10.9c3,10.8,8.5,20.4,13.4,28.4
		c8.5,13.7,18.7,26.6,28.5,39.1c3.4,4.4,6.9,8.8,10.3,13.2c3.4-4.4,6.8-8.7,10.2-13.1c6.9-8.7,14-17.7,20.4-26.9
		c6.5-9.3,13.9-20.6,19.1-33.2c4.4-10.7,5.2-20.9,2.5-31.2C700,825.9,678.6,809.2,654.1,809.1"/>
	<path id="Path_169" class="st1" d="M654,889.8L654,889.8c-6.5,0-12.8-2.6-17.4-7.2c-9.4-9.4-9.5-24.7,0-34.2c0,0,0.1-0.1,0.1-0.1
		c9.6-9.5,25.1-9.5,34.7,0.1c4.5,4.5,7,10.6,7.1,17C678.3,878.9,667.4,889.8,654,889.8 M654,881L654,881c4.1,0,8.1-1.7,11-4.6
		c2.9-2.9,4.6-6.8,4.6-10.9c-0.1-8.6-7.1-15.5-15.7-15.5h-0.1c-4.1,0-8.1,1.6-11,4.5c-6,6-6.1,15.7-0.1,21.7c0,0,0.1,0.1,0.1,0.1
		C645.7,879.4,649.8,881.1,654,881L654,881z"/>
</g>
</svg>
