<?xml version="1.0" encoding="utf-8"?>
<!-- Generator: Adobe Illustrator 26.5.0, SVG Export Plug-In . SVG Version: 6.00 Build 0)  -->
<svg version="1.1" id="Layer_1" xmlns="http://www.w3.org/2000/svg" xmlns:xlink="http://www.w3.org/1999/xlink" x="0px" y="0px"
	 viewBox="0 0 200 200" style="enable-background:new 0 0 200 200;" xml:space="preserve">
<style type="text/css">
	.st0{fill:#E64B16;}
	.st1{fill:#003173;}
</style>
<g id="Group_92802" transform="translate(-586.124 -876.249)">
	<rect id="Rectangle_33130" x="621.4" y="1002.3" class="st0" width="41.6" height="23.7"/>
	<rect id="Rectangle_33131" x="710" y="1002.3" class="st0" width="41.6" height="23.7"/>
	<path id="Path_196" class="st1" d="M772.8,942.8H600.1v-33.5h172.6V942.8z M603.5,939.3h165.8v-26.7H603.5V939.3z"/>
	<path id="Path_197" class="st1" d="M766.5,1043.6H606.4V939.5h160.1V1043.6z M609.8,1040.1h153.3v-97.2H609.8V1040.1z"/>
	<path id="Path_198" class="st1" d="M755,980.6h-137v-18.8h137V980.6z M621.4,977.2h130.2v-11.9H621.4V977.2z"/>
	<path id="Path_199" class="st1" d="M664.8,1028.2h-46v-27.7h46V1028.2z M622.2,1024.8h39.2v-20.9h-39.2V1024.8z"/>
	<path id="Path_200" class="st1" d="M753.7,1028.2h-46v-27.7h46V1028.2z M711.1,1024.8h39.2v-20.9h-39.2V1024.8z"/>
	<path id="Path_201" class="st1" d="M703,1043.6h-33.1v-43H703V1043.6z M673.3,1040.1h26.3v-36.2h-26.2L673.3,1040.1z"/>
	<rect id="Rectangle_33132" x="684.7" y="1002.2" class="st1" width="3.4" height="39"/>
	<path id="Path_202" class="st0" d="M620.1,932.8c-0.8-0.3-1.4-0.8-1.9-1.4c-0.4-0.5-0.7-1.2-0.7-1.9c0-0.1,0-0.2,0.1-0.3
		c0.1-0.1,0.2-0.1,0.3-0.1h1.8c0.1,0,0.3,0,0.4,0.1c0.1,0.1,0.2,0.2,0.3,0.3c0.2,0.5,0.5,0.9,0.9,1.1c0.6,0.3,1.3,0.5,2,0.5
		c0.7,0,1.5-0.1,2.1-0.5c0.5-0.3,0.7-0.8,0.7-1.3c0-0.3-0.1-0.7-0.4-0.9c-0.3-0.3-0.7-0.5-1.1-0.6c-0.5-0.2-1.2-0.4-2.2-0.6
		c-1.3-0.2-2.4-0.7-3.5-1.5c-0.8-0.7-1.2-1.7-1.1-2.7c0-0.7,0.2-1.5,0.6-2.1c0.5-0.6,1.1-1.1,1.8-1.4c0.9-0.4,1.8-0.5,2.8-0.5
		c1,0,2,0.2,2.9,0.6c0.7,0.3,1.4,0.8,1.8,1.5c0.4,0.5,0.6,1.1,0.7,1.7c0,0.2-0.2,0.4-0.4,0.4c0,0,0,0,0,0h-1.9
		c-0.3,0-0.5-0.1-0.6-0.4c-0.1-0.5-0.4-0.9-0.8-1.1c-0.5-0.3-1.1-0.5-1.7-0.4c-0.6,0-1.2,0.1-1.8,0.4c-0.4,0.3-0.7,0.7-0.6,1.2
		c0,0.3,0.1,0.7,0.3,0.9c0.3,0.3,0.6,0.5,1,0.6c0.7,0.3,1.3,0.5,2,0.6c1,0.2,1.9,0.5,2.8,0.9c0.6,0.3,1.2,0.7,1.6,1.3
		c0.4,0.6,0.5,1.3,0.5,1.9c0,0.8-0.2,1.6-0.7,2.2c-0.5,0.7-1.2,1.2-2,1.5c-1,0.3-2,0.5-3,0.5C622.1,933.4,621.1,933.2,620.1,932.8"
		/>
	<path id="Path_203" class="st0" d="M631.3,933c-0.1-0.1-0.1-0.2-0.1-0.4v-13.1c0-0.3,0.2-0.5,0.5-0.5c0,0,0,0,0,0h1.6
		c0.3,0,0.5,0.1,0.6,0.4l3.9,7.2l3.9-7.2c0.1-0.2,0.3-0.4,0.6-0.4h1.6c0.1,0,0.3,0,0.4,0.1c0.1,0.1,0.1,0.2,0.1,0.4v13.1
		c0,0.1,0,0.3-0.1,0.4c-0.1,0.1-0.2,0.1-0.4,0.1h-1.7c-0.1,0-0.3,0-0.3-0.1c-0.1-0.1-0.1-0.2-0.1-0.3V924l-2.8,5.4
		c-0.1,0.3-0.4,0.4-0.7,0.4h-0.8c-0.3,0-0.6-0.2-0.7-0.4l-2.8-5.4v8.7c0,0.1,0,0.3-0.1,0.3c-0.1,0.1-0.2,0.1-0.4,0.1h-1.7
		C631.6,933.2,631.4,933.1,631.3,933"/>
	<path id="Path_204" class="st0" d="M646.3,933c-0.1-0.1-0.1-0.2-0.1-0.3l0-0.2l4.8-12.9c0.1-0.3,0.4-0.5,0.7-0.5h2.2
		c0.3,0,0.6,0.2,0.7,0.5l4.8,12.9c0,0.1,0,0.1,0,0.2c0,0.1,0,0.2-0.1,0.3c-0.1,0.1-0.2,0.1-0.3,0.1h-1.7c-0.1,0-0.3,0-0.4-0.1
		c-0.1-0.1-0.1-0.2-0.2-0.3l-1-2.5h-6l-0.9,2.5c-0.1,0.2-0.3,0.4-0.6,0.4h-1.7C646.5,933.2,646.4,933.1,646.3,933 M655.1,928
		l-2.3-6.2l-2.3,6.2H655.1z"/>
	<path id="Path_205" class="st0" d="M661.5,933c-0.1-0.1-0.1-0.2-0.1-0.3v-13.1c0-0.1,0-0.3,0.1-0.4c0.1-0.1,0.2-0.1,0.4-0.1h5.2
		c1.4-0.1,2.7,0.3,3.8,1.1c1,0.8,1.5,2,1.4,3.3c0,0.9-0.2,1.7-0.7,2.5c-0.5,0.7-1.2,1.2-2,1.4l2.9,5.1c0,0.1,0.1,0.1,0.1,0.2
		c0,0.1,0,0.2-0.1,0.3c-0.1,0.1-0.2,0.1-0.3,0.1h-1.8c-0.2,0-0.4,0-0.5-0.1c-0.1-0.1-0.2-0.2-0.3-0.4l-2.6-4.8h-2.8v4.8
		c0,0.1,0,0.3-0.1,0.3c-0.1,0.1-0.2,0.1-0.4,0.1h-1.8C661.7,933.2,661.6,933.1,661.5,933 M667,925.6c0.7,0,1.3-0.1,1.8-0.5
		c0.4-0.4,0.6-1,0.6-1.6c0-0.6-0.2-1.2-0.6-1.6c-0.5-0.4-1.2-0.6-1.8-0.6h-2.8v4.3L667,925.6z"/>
	<path id="Path_206" class="st0" d="M678,933c-0.1-0.1-0.1-0.2-0.1-0.3v-11.1h-3.7c-0.3,0-0.5-0.2-0.5-0.4c0,0,0,0,0,0v-1.5
		c0-0.1,0-0.3,0.1-0.4c0.1-0.1,0.2-0.1,0.4-0.1h10.2c0.3,0,0.5,0.2,0.5,0.4c0,0,0,0,0,0.1v1.5c0,0.1,0,0.3-0.1,0.3
		c-0.1,0.1-0.2,0.1-0.4,0.1h-3.7v11.1c0,0.1,0,0.3-0.1,0.3c-0.1,0.1-0.2,0.1-0.4,0.1h-1.8C678.2,933.2,678,933.1,678,933"/>
	<path id="Path_207" class="st0" d="M692.8,932.8c-0.8-0.3-1.4-0.8-1.9-1.4c-0.4-0.5-0.7-1.2-0.7-1.9c0-0.1,0-0.2,0.1-0.3
		c0.1-0.1,0.2-0.1,0.3-0.1h1.8c0.1,0,0.3,0,0.4,0.1c0.1,0.1,0.2,0.2,0.3,0.3c0.2,0.5,0.5,0.9,0.9,1.1c0.6,0.3,1.3,0.5,2,0.5
		c0.7,0,1.5-0.1,2.1-0.5c0.5-0.3,0.7-0.8,0.7-1.3c0-0.3-0.1-0.7-0.4-0.9c-0.3-0.3-0.7-0.5-1.1-0.6c-0.5-0.2-1.2-0.4-2.2-0.6
		c-1.3-0.2-2.4-0.7-3.5-1.5c-0.8-0.7-1.2-1.7-1.1-2.7c0-0.7,0.2-1.5,0.6-2.1c0.5-0.6,1.1-1.1,1.8-1.4c0.9-0.4,1.8-0.5,2.8-0.5
		c1,0,2,0.2,2.9,0.6c0.7,0.3,1.4,0.8,1.8,1.5c0.4,0.5,0.6,1.1,0.7,1.7c0,0.2-0.2,0.4-0.4,0.4c0,0,0,0,0,0h-1.9
		c-0.3,0-0.5-0.1-0.6-0.4c-0.1-0.5-0.4-0.9-0.8-1.1c-0.5-0.3-1.1-0.5-1.7-0.4c-0.6,0-1.2,0.1-1.8,0.4c-0.4,0.3-0.7,0.7-0.6,1.2
		c0,0.3,0.1,0.7,0.3,0.9c0.3,0.3,0.6,0.5,1,0.6c0.7,0.3,1.3,0.5,2,0.6c1,0.2,1.9,0.5,2.8,0.9c0.6,0.3,1.2,0.7,1.6,1.3
		c0.4,0.6,0.5,1.3,0.5,1.9c0,0.8-0.2,1.6-0.7,2.2c-0.5,0.7-1.2,1.2-2,1.5c-1,0.3-2,0.5-3,0.5C694.8,933.4,693.8,933.2,692.8,932.8"
		/>
	<path id="Path_208" class="st0" d="M706.9,933c-0.1-0.1-0.1-0.2-0.1-0.3v-11.1h-3.7c-0.3,0-0.5-0.2-0.5-0.4c0,0,0,0,0,0v-1.5
		c0-0.1,0-0.3,0.1-0.4c0.1-0.1,0.2-0.1,0.4-0.1h10.2c0.3,0,0.5,0.2,0.5,0.4c0,0,0,0,0,0.1v1.5c0,0.1,0,0.3-0.1,0.3
		c-0.1,0.1-0.2,0.1-0.4,0.1h-3.7v11.1c0,0.1,0,0.3-0.1,0.3c-0.1,0.1-0.2,0.1-0.4,0.1h-1.8C707.2,933.2,707,933.1,706.9,933"/>
	<path id="Path_209" class="st0" d="M716.7,932c-1.1-1.1-1.7-2.6-1.6-4.1c0-0.4,0-1,0-1.7c0-0.8,0-1.3,0-1.7c-0.1-1.5,0.5-3,1.6-4.1
		c2.5-1.9,5.9-1.9,8.4,0c1.1,1.1,1.7,2.6,1.7,4.1c0,0.8,0,1.3,0,1.7c0,0.4,0,0.9,0,1.7c0.1,1.5-0.5,3-1.6,4.1
		C722.7,933.8,719.3,933.8,716.7,932 M723.1,930.2c0.6-0.7,0.9-1.6,0.9-2.5c0-0.8,0-1.3,0-1.6c0-0.3,0-0.9,0-1.6
		c0-0.9-0.3-1.8-0.9-2.5c-1.2-1.1-3.1-1.1-4.3,0c-0.6,0.7-0.9,1.6-0.9,2.5c0,0.4,0,0.9,0,1.6s0,1.2,0,1.6c0,0.9,0.3,1.8,0.9,2.5
		c0.6,0.6,1.3,0.9,2.1,0.8C721.8,931.1,722.6,930.8,723.1,930.2"/>
	<path id="Path_210" class="st0" d="M729.7,933c-0.1-0.1-0.1-0.2-0.1-0.3v-13.1c0-0.1,0-0.3,0.1-0.4c0.1-0.1,0.2-0.1,0.4-0.1h5.2
		c1.4-0.1,2.7,0.3,3.8,1.1c1,0.8,1.5,2,1.4,3.3c0,0.9-0.2,1.7-0.7,2.5c-0.5,0.7-1.2,1.2-2,1.4l2.9,5.1c0,0.1,0.1,0.1,0.1,0.2
		c0,0.1,0,0.2-0.1,0.3c-0.1,0.1-0.2,0.1-0.3,0.1h-1.8c-0.2,0-0.4,0-0.5-0.1c-0.1-0.1-0.2-0.2-0.3-0.4l-2.6-4.8h-2.8v4.8
		c0,0.1,0,0.3-0.1,0.3c-0.1,0.1-0.2,0.1-0.4,0.1H730C729.9,933.2,729.8,933.1,729.7,933 M735.2,925.6c0.7,0,1.3-0.1,1.8-0.5
		c0.4-0.4,0.6-1,0.6-1.6c0-0.6-0.2-1.2-0.6-1.6c-0.5-0.4-1.2-0.6-1.8-0.6h-2.8v4.3L735.2,925.6z"/>
	<path id="Path_211" class="st0" d="M743.2,933c-0.1-0.1-0.1-0.2-0.1-0.3v-13.1c0-0.1,0-0.3,0.1-0.4c0.1-0.1,0.2-0.1,0.4-0.1h8.8
		c0.1,0,0.3,0,0.4,0.1c0.1,0.1,0.1,0.2,0.1,0.4v1.3c0,0.1,0,0.3-0.1,0.4c-0.1,0.1-0.2,0.1-0.4,0.1h-6.6v3.6h6.2c0.1,0,0.3,0,0.4,0.1
		c0.1,0.1,0.1,0.2,0.1,0.4v1.2c0,0.1,0,0.3-0.1,0.4c-0.1,0.1-0.2,0.1-0.4,0.1h-6.2v3.7h6.8c0.1,0,0.3,0,0.4,0.1
		c0.1,0.1,0.1,0.2,0.1,0.4v1.3c0,0.1,0,0.3-0.1,0.4c-0.1,0.1-0.2,0.1-0.4,0.1h-9C743.4,933.2,743.3,933.1,743.2,933"/>
</g>
</svg>
