<?xml version="1.0" encoding="utf-8"?>
<!-- Generator: Adobe Illustrator 26.5.0, SVG Export Plug-In . SVG Version: 6.00 Build 0)  -->
<svg version="1.1" id="Layer_1" xmlns="http://www.w3.org/2000/svg" xmlns:xlink="http://www.w3.org/1999/xlink" x="0px" y="0px"
	 viewBox="0 0 200 200" style="enable-background:new 0 0 200 200;" xml:space="preserve">
<style type="text/css">
	.st0{fill:#003173;}
	.st1{fill:#E64D18;}
</style>
<g id="Group_92077" transform="translate(-699.757 -790.442)">
	<path id="Path_170" class="st0" d="M810.9,984.1c-0.4,0-0.8,0-1.2,0l-0.4,0c-2.8-0.1-5.4-1.3-7.3-3.3c-1.2-1.2-2.7-2.2-4.2-2.9
		l-0.6-0.3c-1.5-0.6-2.8-1.5-3.9-2.7l-0.2,0h-0.1c-1.4,0-2.8-0.1-4.2-0.6c-0.4-0.1-0.9-0.3-1.2-0.6c-1.1-0.8-2.2-1.5-3.3-2.2
		c-3.4-2.2-6.9-4.5-9.3-8.5l-0.3-0.4c-0.4-0.6-0.7-1.1-0.9-1.8c-1.4-0.1-2.3-0.9-3.1-2.7c-1-0.3-2-0.9-2.6-1.7l-0.4-0.4
		c-0.2-0.2-0.4-0.4-0.6-0.6c-1.5-0.2-2.7-1-3.5-2.3c-0.6-1.1-1.7-1.7-2.9-1.7c-1.9,0.1-3.6-1.2-3.8-3.1c0-0.3,0-0.7,0-1
		c-1.1-0.7-1.8-2-1.8-3.3c-0.2-2.4-0.6-4.8-1.3-7.1c-0.2-0.8-0.4-1.5-0.6-2.3c-0.4-1.3-0.4-2.7,0.1-3.9c-0.8-1.2-1.1-2.7-0.9-4.1
		c0.1-0.6,0.2-1.2,0.5-1.7c-0.8-1.3-1.4-2.7-1.7-4.3c-0.2-0.5-0.5-1-0.9-1.5c-1.6-2.1-2.7-4.5-3.2-7.1c-0.2-1-0.5-2-1.1-2.9
		c-0.7-1.3-1.1-2.7-1.1-4.2c0-0.6-0.1-1-0.1-1.2c-1.3-0.6-2.2-1.9-2.4-3.3c-0.2-0.9-0.8-1.6-1.6-2c-1.2-0.4-2-1.5-2.2-2.7
		c0-0.4,0-0.8,0.1-1.1c-0.8-1-0.9-2.3-0.4-3.4c0.3-0.8,1.5-2.6,4.5-1.8c0.2,0.1,0.2,0,0.3-0.2c0.2-0.7,0.2-1.4,0.1-2.1
		c-0.4-1.8-0.2-3.8,0.6-5.5c-1.4-2.3-1.4-4.3-0.3-6.1c-0.6-0.5-1.2-0.8-1.9-1.1c-1.1-0.3-1.9-1.2-2.2-2.2c-0.2-0.7-0.2-1.4,0.2-2
		c0.3-0.6,0.9-1.1,1.6-1.3c1-0.3,2.1-0.5,3.2-0.5c1.1,0.1,2.1-0.5,2.3-1.6l0.4-1c0.5-1,0.8-2.2,0.9-3.3c0.1-1.2,0.6-2.3,1.5-3l0,0
		l0-0.1c-0.2-0.3-0.5-0.5-0.8-0.7c-1.9-0.9-3.2-2.8-3.3-4.9c-0.1-0.1-0.3-0.4-0.4-0.5l-0.4-0.5c-0.9-0.9-1.2-2.2-0.7-3.4
		c0.5-1.2,1.6-1.9,2.9-1.9c0.5-0.2,0.9-0.5,1.2-0.8c2.4-2.1,4-2.2,6.7-0.6c1.6-2.1,3.9-3.7,6.5-4.4l0.3-0.3c0.4-1.7,1.6-3.1,3.1-3.8
		c1.7-0.7,3.5-0.5,5.1,0.4c0.7,0.4,1.3,0.7,2,1.1c1.9-1.7,4.4-2.7,7-2.7c0.4,0,0.8-0.1,1.2-0.2c0.9-0.4,1.8-0.6,2.8-0.7
		c0-0.6-0.1-1.3-0.1-1.9c-0.1-0.6-0.1-1.2-0.1-1.8l0-0.8c-0.1-1.7-0.1-3.5,0.1-5.2c0-2.1,1.7-3.7,3.8-3.7c0.8,0,1.5,0.3,2.1,0.7
		l0.2,0.1c1.6,0.3,3.2,0.7,4.8,1.3c1.9,0.7,3.9,1.1,5.9,1.3c0.8,0,1.7,0.1,2.5,0.1l0.4,0c-0.1-1.5,0.3-3,1.2-4.3
		c1.6-2.5,4-4.4,6.8-5.4c1.1-0.5,2.4-0.4,3.5,0.1c0.2,0.1,0.3,0.2,0.5,0.3c0.5-0.5,0.8-1,1-1.7c0.3-1.5,1.6-2.7,3.1-3
		c0.5-0.1,0.9-0.5,1.2-0.9c0.3-0.5,0.4-1,0.4-1.6c-0.5-1.3-0.2-2.8,0.7-3.8c1.1-0.9,2.5-1.2,3.9-0.7c0.6,0.2,1.2,0,1.6-0.4l2.9-2.9
		c0.8-0.9,1.8-1.6,2.9-2.2c1.4-0.8,3.2-0.7,4.5,0.3c1.1,0.8,1.8,2.1,1.7,3.5c1-0.2,2,0.1,2.8,0.7c0.9,0.9,1.3,2.1,1.1,3.3
		c0,0.6-0.1,1.2-0.2,1.8c-0.1,0.6-0.1,1.3-0.2,1.9c0,0.4,0,0.8,0,1.3c0.5,0.5,1.8,2.2,0,4.7c-0.4,0.5-0.8,1-1.2,1.5
		c-0.3,0.4-0.6,0.8-0.9,1.2c0,1.2-0.5,2.4-1.4,3.2c-0.1,0.1-0.3,0.3-0.4,0.4l0.1,0l1.1,0.2c1,0.1,1.9,0.6,2.7,1.3
		c0.6,0.6,0.9,1.5,0.8,2.3c-0.2,0.8-0.7,1.6-1.5,1.9c-1.4,0.7-2.7,1.7-3.8,2.9c-1,1-1.9,2-2.7,3c2.2,1.9,2.4,3.2,1.2,6.2l-0.2,0.4
		c-0.4,1-0.6,1.5-0.4,1.9c0.5,1.2,0.2,2.6-0.7,3.5c-0.1,0.1-0.1,0.8,0,1.3c0,0.2,0,0.5,0.1,0.7l0,0.4c0.2,1.7-0.5,3.3-1.8,4.4
		c0.3,0,0.6,0.1,0.9,0.2c1,0.1,3.2,0.2,4,2.4c0.5,1.5,0,3.1-1.3,4c-0.6,0.8-0.9,1.8-0.8,2.8c0,1.4,0.1,2.8,0.2,4.3
		c0.3,1.7-0.9,3.2-2.5,3.5c-0.5,0.1-0.9,0-1.4-0.1c-1-0.2-2-0.4-3-0.5l-1.8-0.3c-0.8-0.1-1.6-0.1-2.4,0.1c-0.7,0.2-1.2,0.7-1.4,1.4
		c1.7,2.3,0.5,4.8,0.1,5.6c-0.4,0.8-0.8,1.7-1.1,2.5c-0.2,0.6,0,1.3,0.5,1.6c2.5,2.6,3.1,6.5,1.4,9.7c-0.7,1.2-1.9,2.1-3.2,2.5
		c-1.4,0.4-2.8,0.6-4.3,0.4c0,0.3,0,0.6,0,0.8c0.2,1.9-0.6,3.7-2,5c0.1,1.3,0.7,2.5,1.6,3.3l0.3,0.3c0.4,0.4,0.8,0.7,1.2,1.2
		c0.7,0.8,1.1,1.8,1,2.8c0,0.4-0.1,0.7-0.3,1c0.3,0.5,0.4,1,0.5,1.5c0.3,0.1,0.6,0.3,0.9,0.3c1-1.1,2.5-1.7,4-1.8
		c1.9-0.2,3.8,0.5,5.3,1.7c0.3-0.1,0.6-0.1,0.9-0.2c1.7-0.3,3.4,0.9,3.7,2.6c0.2,1.2-0.3,2.4-1.3,3.1c-0.6,0.5-1.3,0.8-2,1.1
		c0,0.2-0.1,0.3-0.1,0.5c0.5,0.5,0.8,1.2,0.9,1.8c0.3,1.1,0.5,2.2,0.5,3.4l0,0.2c0.6-0.2,1.2-0.4,1.8-0.4c1.4-0.1,2.7-0.8,3.7-1.8
		c1.1-1.1,2.5-1.9,4-2.5c1.1-0.4,2.4-0.3,3.4,0.2c0.6,0.3,1,0.9,1.3,1.5c1.1-0.2,2.3,0.1,3.2,0.9c1.2,1.2,1,2.8,0.8,4.1
		c0,0.2-0.1,0.5-0.1,0.7c0.7,0.4,1.3,1,1.6,1.7l0.3,0l0.8-0.2c1.8-0.5,3.7,0.6,4.2,2.5c0.1,0.5,0.1,1.1,0,1.6l-0.4,2.7l0,0.2
		l0.1,0.1c1.2,0.4,2.4,1,3.5,1.8c1.5,1.2,2.1,3.2,1.4,5c-0.8,2.2-1.9,5.2-4.5,7.1c-1,0.7-1.9,1.5-2.8,2.3c-0.7,0.6-1.4,1.2-2.1,1.7
		c-1.4,1.2-3.5,1.2-5,0c-0.8-0.5-1.7-0.8-2.6-0.7c-1,0-2.1-0.2-3.1-0.5c0,0.2-0.1,0.4-0.2,0.6c-0.9,2.7-2.5,4.2-4.8,4.7
		c-0.2,0-0.3,0.1-0.4,0.3c-0.1,0.2,0,0.5,0.1,0.7c1.5,2.2,1.4,3.9-0.3,5.9l-0.4,0.4c0.3,0.1,0.5,0.2,0.8,0.2c3,0.7,4.8,3.7,4.1,6.6
		c-0.3,1.1-0.9,2.2-1.8,2.9c-1.1,1.1-2.6,1.6-4.1,1.4c-0.6,0.1-1.2,0.4-1.5,0.9c-0.6,1.5-1.8,2.7-3.3,3.2c-1.4,0.5-2.9,0.4-4.2-0.3
		c-0.1-0.1-0.2-0.1-0.9,0.2l-0.5,0.2c-0.5,0.2-1,0.4-1.4,0.6c-1.2,0.5-2.6,0.4-3.8-0.3c-0.5-0.3-1.1-0.3-1.7-0.1
		c-0.3,0.1-0.6,0.4-0.7,0.7C815.1,983.5,812.9,984.1,810.9,984.1 M790.5,969.4l0.1,0c0.8,0.2,1.6,0.3,2.3,0.3c1.2,0,3.2,0.1,4.3,1.8
		c0.6,0.7,1.3,1.1,2.1,1.4l0.6,0.3c2.1,1,4,2.3,5.7,3.9c1,1,2.4,1.7,3.9,1.7l0.5,0c0.4,0,0.7,0,1,0c0.1-0.2,0.2-0.5,0.3-0.7
		c0.6-1.9,1.9-3.4,3.7-4.1c1.9-0.8,4-0.7,5.9,0.2c0.3-0.1,0.6-0.2,0.9-0.4l0.7-0.3c1.7-0.8,3.7-0.8,5.3,0.1c0.1-0.1,0.2-0.2,0.3-0.3
		c1.2-2.7,4.1-4.4,7-4.1c0.1-0.3,0.2-0.5,0.2-0.6c-0.2-0.2-0.4-0.3-0.7-0.3c-0.4-0.1-0.9-0.2-1.3-0.3c-0.6-0.1-1.1-0.3-1.7-0.4
		c-1.2-0.3-2.2-1.1-2.6-2.3c-0.3-1.2-0.1-2.4,0.8-3.4c0.4-0.6,0.9-1.1,1.4-1.6c0.2-0.2,0.4-0.4,0.6-0.7c-1-1.6-1.2-3.6-0.6-5.4
		c0.7-1.7,2.2-3,4-3.4c0.4-0.1,0.7-0.2,1-1.1c0.3-0.9,0.5-1.6,0.8-2.2c0.4-1,1.2-1.9,2.2-2.3c1-0.4,2.1-0.4,3.1,0.1
		c0.8,0.3,1.6,0.5,2.4,0.5c1.7,0,3.3,0.5,4.8,1.3c0.5-0.4,0.9-0.7,1.4-1.1c1-0.8,2-1.6,3-2.4c1.2-1.2,2.1-2.7,2.5-4.3
		c-0.5-0.3-1-0.5-1.5-0.7c-3-1.1-4-2.9-3.5-5.9l0.1-0.6l-0.3,0c-1.1,0.2-2.3-0.1-3.2-0.8c-0.5-0.4-0.9-1-1.1-1.7
		c-1.5-0.6-2.4-2.1-2.2-3.7c0-0.4,0-0.7,0.1-1.1c-1.2,0-2.2-0.6-2.8-1.6c-0.4,0.3-0.8,0.6-1.2,0.9c-1.8,1.8-4.3,2.9-6.8,3.1
		c-0.1,0-0.3,0-0.8,0.5c-0.9,0.9-2.3,1.3-3.6,1c-1.2-0.5-2.1-1.6-2.4-2.9c-0.1-0.3-0.2-0.7-0.2-1c0-0.3-0.1-0.5-0.1-0.7l-1.4,0.2
		c-0.3,0-0.6,0.1-0.9,0.2c-0.2,1.1-1,2-2,2.3c-1.6,0.6-3.4,0.5-4.9-0.4c-0.9-0.5-1.5-1.3-1.7-2.3c-0.2-1.1,0-2.3,0.7-3.3
		c0.1-0.2,0.2-0.3,0-0.8c-0.4-0.8-0.8-1.6-1.2-2.4l-1-1.9c-1-1.8-0.7-3.1-0.2-3.8c-0.3-0.5-0.3-1.1-0.2-1.7l0,0
		c-0.8-1-1-2.3-0.7-3.5l-0.2-0.2c-2-1.8-3.2-4.4-3.1-7.2c-0.1-1.5,0.5-2.9,1.6-3.9c0.1-0.1,0.2-0.2,0.2-0.8v-0.4
		c-0.6-0.4-1.1-1-1.4-1.6c-0.8-1.6-0.4-3.5,0.9-4.7c1.6-1.4,4-1.4,5.6,0.1c0.6,0.5,1.2,0.5,3.1,0c0.4-1.2,0.2-2.5-0.5-3.5
		c-1.8-1.7-2.6-4.2-1.9-6.6c0.3-1.2,0.8-2.3,1.3-3.4c0.2-0.3,0.3-0.5,0.3-0.7c-0.5-0.7-0.8-1.5-0.8-2.3c-0.1-3.5,2.4-6.5,5.8-7.1
		c1.3-0.2,2.7-0.2,4.1-0.1l1.7,0.3l0.7,0.1c0-0.7-0.1-1.4-0.1-2.2c0-1.5,0.2-3,0.8-4.3c-1.4-0.1-2.8-0.5-4.1-1
		c-1.5-0.4-2.5-1.7-2.7-3.2c-0.1-1.5,0.7-2.7,2.4-3.6c0.8-0.4,1.7-0.8,2.6-1.2l-0.1-1c-0.3-1.5,0-3.1,0.7-4.4
		c-0.2-1.6,0-3.2,0.7-4.7l0.2-0.4l0.2-0.5l-0.4-0.3c-2.2-1.7-2.5-3.6-1-5.8c1.1-1.6,2.4-3.1,3.8-4.4c0.2-0.2,0.4-0.4,0.6-0.6
		c-1.4-0.4-2.6-1.4-3-2.8c-0.5-2.1,1.2-3.6,1.7-4.1l0.7-0.6c0.3-0.2,0.5-0.5,0.8-0.7c0-1,0.4-2,1.1-2.8c0.3-0.4,0.7-0.9,1-1.3
		c0.2-0.3,0.4-0.5,0.6-0.8c-0.5-1.1-0.7-2.3-0.5-3.5c0-0.9,0.1-1.7,0.2-2.4l0-0.2c-1-0.1-1.9-0.6-2.5-1.3c-0.6-0.6-1-1.3-1.2-2.1
		l-0.2,0.2l-2.9,2.9c-1.2,1.3-2.9,2-4.6,2c-0.1,1.3-0.5,2.6-1.2,3.6c-0.9,1.4-2.3,2.5-3.9,3.1c-0.9,2.2-2.4,4-4.4,5.3
		c-0.8,0.7-1.9,0.9-2.9,0.6c-0.7-0.2-1.3-0.7-1.6-1.3c-1.3,0.6-2.5,1.6-3.3,2.9c-0.4,0.6-0.5,1.3-0.2,1.9c0.5,1,0.5,2.3-0.1,3.3
		c-0.7,1-1.8,1.6-3,1.5c-1.1,0-2.1,0-3.2-0.1c-0.7-0.1-1.4-0.1-2.1-0.1c-2.6-0.1-5.1-0.6-7.5-1.5c-1.4-0.5-2.8-0.9-4.3-1.1
		c0,0.9,0,1.8,0,2.7l0,0.8c0,0.5,0.1,1.1,0.1,1.6c0.2,1.5,0.2,3,0.1,4.6c-0.1,1.1-0.6,2.1-1.6,2.7c-0.9,0.5-2,0.6-2.9,0.2
		c-0.3-0.1-0.6-0.2-1.4,0.2c-1,0.4-2,0.6-3,0.6c-1.5,0-2.9,0.6-3.9,1.6c-1.4,1.5-3.7,1.7-5.5,0.6c-0.8-0.4-1.5-0.8-2.2-1.2
		c-0.2-0.1-0.4-0.2-0.6-0.2c-0.1,0.1-0.2,0.3-0.2,0.5c-0.5,1.9-2,3.4-3.9,3.9c-1.6,0.5-3,1.4-3.9,2.7c-2,2.4-3.8,2.8-6.6,1.2
		c-0.1-0.1-0.3-0.1-0.4-0.2c-0.1,0.1-0.2,0.2-0.4,0.3c-0.4,0.4-0.8,0.7-1.3,1c0.3,0.6,0.5,1.4,0.5,2.1c0,0.1,0.3,0.3,0.7,0.5
		c1.1,0.6,2,1.5,2.6,2.6c1.4,2,1,4.8-0.8,6.4c-0.2,1.6-0.6,3.1-1.3,4.6l-0.4,0.9c-0.6,1.7-1.8,3.2-3.5,4.1c1.3,1.6,1.3,3.9-0.1,5.4
		c-0.1,0-0.1,0.2,0.3,0.7c1.5,2.3,0.9,3.9,0.2,4.9c-0.3,0.5-0.3,1.1-0.1,2.5c0.2,1.4,0.1,2.9-0.2,4.2c-0.4,1.7-1.6,3.1-3.2,3.7
		c0,0.1,0,0.3-0.1,0.4c1.4,1.1,2.4,2.6,2.7,4.3c1,0.4,1.8,1.3,2.2,2.4c0.3,0.9,0.5,1.8,0.5,2.8c0,0.8,0.1,1.5,0.4,2.2
		c0.8,1.4,1.4,2.9,1.7,4.5c0.4,1.8,1.1,3.5,2.2,5c0.9,1.1,1.6,2.3,1.9,3.7c0.2,1.2,0.8,2.3,1.6,3.2c0.8,0.8,1.2,2.1,0.8,3.2
		c-0.2,0.6-0.6,1.2-1.2,1.6c0.1,0.2,0.2,0.4,0.3,0.5c0.7,0.7,1.1,1.7,1.1,2.7c0,0.7-0.3,1.4-0.8,1.9l0.1,0.5
		c0.2,0.9,0.4,1.6,0.6,2.3c0.7,2.4,1.1,4.8,1.4,7.3c0.3,0.1,0.7,0.1,1,0.2c1.6,0.4,2.6,1.9,2.5,3.5l0,0.2c1.6,0.7,3.1,1.8,4.1,3.3
		c0.1,0.1,0.1,0.2,0.2,0.3c1.3,0.3,2.5,1,3.4,2l0.5,0.5l0.2,0.2c1.4,0.1,2.7,1.1,3.2,2.4c1.1-0.2,2.2,0.1,2.9,0.9
		c0.7,0.8,0.9,1.9,0.6,2.9c0.1,0.2,0.3,0.3,0.4,0.5l0.4,0.6c1.7,2.9,4.5,4.8,7.6,6.7C788.3,967.9,789.4,968.6,790.5,969.4
		 M773.9,957.7L773.9,957.7 M760,944.5L760,944.5 M821.7,919.4c0.1,0.2,0.1,0.5,0.1,0.7c0.3-0.2,0.7-0.3,1-0.5
		C822.4,919.6,822,919.5,821.7,919.4 M822.9,914.4c0.8,0.3,1.7,0.4,2.5,0.3c0.1-0.3,0.2-0.6,0.3-0.8c-0.1-0.1-0.2-0.2-0.3-0.3
		c-0.6-0.2-1.2-0.2-1.7,0C823.5,913.8,823.3,914.1,822.9,914.4 M743.9,875.9L743.9,875.9z M743.5,869.6L743.5,869.6 M830.3,845.2
		L830.3,845.2z"/>
	<path id="Path_171" class="st1" d="M807.7,944.6c3.1,0,5.6-2.5,5.6-5.6s-2.5-5.6-5.6-5.6l0,0c-3.1,0-5.6,2.5-5.6,5.6
		S804.5,944.6,807.7,944.6"/>
	<path id="Path_172" class="st0" d="M807.7,947.3L807.7,947.3c-4.5,0-8.2-3.6-8.3-8.1c0-2.2,0.9-4.3,2.4-5.9
		c1.6-1.5,3.7-2.4,5.9-2.4c4.5,0,8.2,3.7,8.3,8.2C815.9,943.7,812.2,947.3,807.7,947.3 M807.6,936.1c-0.8,0-1.6,0.3-2.2,0.9
		c-1.2,1.2-1.2,3.1,0,4.3c0,0,0,0,0,0c0.6,0.6,1.4,0.9,2.2,0.9c0.8,0,1.6-0.3,2.2-0.9c0.6-0.6,0.9-1.3,0.9-2.1
		C810.7,937.4,809.3,936,807.6,936.1L807.6,936.1z"/>
</g>
</svg>
