<?xml version="1.0" encoding="utf-8"?>
<!-- Generator: Adobe Illustrator 26.5.0, SVG Export Plug-In . SVG Version: 6.00 Build 0)  -->
<svg version="1.1" id="Layer_1" xmlns="http://www.w3.org/2000/svg" xmlns:xlink="http://www.w3.org/1999/xlink" x="0px" y="0px"
	 viewBox="0 0 200 200" style="enable-background:new 0 0 200 200;" xml:space="preserve">
<style type="text/css">
	.st0{fill:#003173;}
	.st1{fill:#E64B16;}
</style>
<g id="Group_92075" transform="translate(-368.654 -787.922)">
	<path id="Path_156" class="st0" d="M517.4,829.3h-97v-28.9h97V829.3z M426.9,822.7h84v-15.9h-84L426.9,822.7z"/>
	<rect id="Rectangle_33120" x="454" y="825.4" class="st0" width="6.5" height="11.1"/>
	<rect id="Rectangle_33121" x="477.4" y="825.4" class="st0" width="6.5" height="11.1"/>
	<path id="Path_157" class="st0" d="M551.7,855.8H386.2c-1.8,0-3.3-1.5-3.3-3.3c0-1,0.5-2,1.3-2.6l21.7-16.1
		c0.6-0.4,1.2-0.6,1.9-0.6h122c0.7,0,1.4,0.2,1.9,0.6l21.7,16.1c1.4,1.1,1.8,3.1,0.7,4.6C553.7,855.3,552.7,855.8,551.7,855.8
		L551.7,855.8z M396.1,849.3h145.7l-12.9-9.5H409L396.1,849.3z"/>
	<path id="Path_158" class="st0" d="M535.3,888.5c-4.2,0-8.2-1.5-11.3-4.4c-0.7-0.6-1.3-1.4-1.8-2.1c-5.8,8-17.9,8.3-24.3,2.1
		c-0.7-0.6-1.3-1.3-1.8-2.1c-5.8,8-17.8,8.2-24.2,2.1c-0.7-0.6-1.3-1.3-1.8-2.1c-5.8,8-17.8,8.2-24.2,2.1c-0.7-0.6-1.3-1.3-1.8-2.1
		c-5.8,8-17.8,8.2-24.2,2.1c-0.7-0.7-1.3-1.4-1.9-2.1c-6,8.1-18.3,8.3-24.9,2.2c-3.5-3.4-5.4-8.1-5.3-12.9v-18.7
		c0-1.8,1.5-3.2,3.3-3.2h157.4c1.8,0,3.3,1.5,3.3,3.3v18.7C551.7,882.6,543.4,888.5,535.3,888.5 M522.2,867.9c1.8,0,3.3,1.5,3.3,3.3
		c0,7.5,5,10.8,9.9,10.8s9.9-3.3,9.9-10.8v-15.4H394.2v15.4c0,7.5,5.1,10.8,10.2,10.8s10.2-3.3,10.2-10.8c0-1.8,1.5-3.3,3.3-3.3
		c1.8,0,3.3,1.5,3.3,3.3l0,0v0c0,7.5,4.9,10.8,9.7,10.8c4.8,0,9.7-3.3,9.7-10.8c0-1.8,1.5-3.3,3.3-3.3s3.3,1.5,3.3,3.3
		c0,7.5,4.9,10.8,9.8,10.8c4.9,0,9.8-3.3,9.8-10.8c0-1.8,1.5-3.3,3.3-3.3c1.8,0,3.3,1.5,3.3,3.3l0,0v0c0,7.5,4.9,10.8,9.8,10.8
		s9.8-3.3,9.8-10.8c0-1.8,1.5-3.3,3.2-3.3c1.8,0,3.3,1.5,3.3,3.2v0c0,7.5,4.9,10.8,9.8,10.8c4.9,0,9.8-3.3,9.8-10.8
		C518.9,869.4,520.4,867.9,522.2,867.9"/>
	<path id="Path_159" class="st0" d="M535.2,977.4H403.8c-1.8,0-3.3-1.5-3.3-3.3v-88.9c0-1.8,1.5-3.3,3.3-3.3s3.3,1.5,3.3,3.3v85.6
		H532v-85.6c0-1.8,1.4-3.3,3.2-3.3s3.3,1.4,3.3,3.2c0,0,0,0.1,0,0.1v88.9C538.5,975.9,537,977.4,535.2,977.4
		C535.2,977.4,535.2,977.4,535.2,977.4z"/>
	<path id="Path_160" class="st1" d="M438.7,918.2c6.3,0,11.5,5.2,11.5,11.5s-5.2,11.5-11.5,11.5c-6.3,0-11.5-5.1-11.5-11.5
		C427.2,923.4,432.3,918.2,438.7,918.2C438.7,918.2,438.7,918.2,438.7,918.2"/>
	<path id="Path_161" class="st0" d="M438.7,944.5c-8.1,0-14.8-6.6-14.8-14.8c0-8.1,6.6-14.8,14.8-14.8s14.8,6.6,14.8,14.8
		c0,0,0,0,0,0C453.4,937.8,446.8,944.4,438.7,944.5 M438.7,921.5c-4.6,0-8.2,3.7-8.2,8.2c0,4.6,3.7,8.2,8.2,8.2
		c4.5,0,8.2-3.7,8.2-8.2C446.9,925.1,443.2,921.5,438.7,921.5z"/>
	<path id="Path_162" class="st0" d="M462.1,977.5h-47c-1.8,0-3.3-1.5-3.3-3.3c0,0,0,0,0,0c0-17.2,13.5-26.2,26.8-26.2
		s26.8,9,26.8,26.2C465.3,976,463.9,977.5,462.1,977.5C462.1,977.5,462.1,977.5,462.1,977.5z M418.5,970.9h40.1
		c-0.5-4.4-2.7-8.5-6-11.5c-3.9-3.3-8.9-5-14-4.9C429.6,954.5,420,959.7,418.5,970.9z"/>
	<path id="Path_163" class="st0" d="M523.1,960.1h-50c-1.8,0-3.3-1.5-3.3-3.3c0,0,0,0,0,0v-32.6c0-1.8,1.4-3.2,3.2-3.3c0,0,0,0,0,0
		h50c1.8,0,3.3,1.5,3.3,3.3c0,0,0,0,0,0v32.6C526.4,958.6,524.9,960.1,523.1,960.1 M476.3,953.6h43.5v-26.1h-43.5L476.3,953.6z"/>
	<rect id="Rectangle_33122" x="480.9" y="936.3" class="st1" width="8.5" height="8.5"/>
	<rect id="Rectangle_33123" x="493.8" y="936.3" class="st1" width="8.5" height="8.5"/>
	<rect id="Rectangle_33124" x="506.9" y="936.3" class="st1" width="8.5" height="8.5"/>
	<path id="Path_164" class="st0" d="M483.2,977.4c-1.8,0-3.3-1.5-3.3-3.3v-17.3c0-1.8,1.5-3.3,3.3-3.3s3.3,1.5,3.3,3.3v17.3
		C486.4,975.9,485,977.4,483.2,977.4"/>
	<path id="Path_165" class="st0" d="M512.8,977.4c-1.8,0-3.3-1.5-3.3-3.3v-17.3c0-1.8,1.5-3.3,3.3-3.3c1.8,0,3.3,1.5,3.3,3.3v17.3
		C516,975.9,514.6,977.4,512.8,977.4"/>
</g>
</svg>
