<?xml version="1.0" encoding="utf-8"?>
<!-- Generator: Adobe Illustrator 26.5.0, SVG Export Plug-In . SVG Version: 6.00 Build 0)  -->
<svg version="1.1" id="Layer_1" xmlns="http://www.w3.org/2000/svg" xmlns:xlink="http://www.w3.org/1999/xlink" x="0px" y="0px"
	 viewBox="0 0 200 200" style="enable-background:new 0 0 200 200;" xml:space="preserve">
<style type="text/css">
	.st0{fill:#003072;}
	.st1{fill:#E64B16;}
	.st2{fill:#003173;}
	.st3{fill:#E64D17;}
	.st4{fill:#E64D18;}
</style>
<g id="Group_92078" transform="translate(-857.05 -774)">
	<path id="Path_173" class="st0" d="M984.6,951.8h-55.7c-8,0-14.5-6.5-14.5-14.5V810.5c0-8,6.5-14.5,14.5-14.5h55.7
		c8,0,14.5,6.5,14.5,14.5v126.9C999.1,945.3,992.6,951.8,984.6,951.8 M928.9,801.2c-5.1,0-9.2,4.1-9.2,9.2v126.9
		c0,5.1,4.1,9.2,9.2,9.2h55.7c5.1,0,9.2-4.1,9.2-9.2V810.5c0-5.1-4.1-9.2-9.2-9.2H928.9z"/>
	<rect id="Rectangle_33125" x="917.4" y="816.4" class="st0" width="79.1" height="5.2"/>
	<rect id="Rectangle_33126" x="919.1" y="922.1" class="st0" width="79.1" height="5.2"/>
	<path id="Path_174" class="st1" d="M958.7,929.9c3.9,0,7.1,3.2,7.1,7.1c0,3.9-3.2,7.1-7.1,7.1c-3.9,0-7.1-3.2-7.1-7.1c0,0,0,0,0,0
		C951.6,933,954.8,929.9,958.7,929.9"/>
	<path id="Path_175" class="st0" d="M958.7,946.6c-5.3,0-9.7-4.3-9.7-9.7c0-5.3,4.3-9.7,9.7-9.7s9.7,4.3,9.7,9.7c0,0,0,0,0,0
		C968.4,942.3,964.1,946.6,958.7,946.6C958.7,946.6,958.7,946.6,958.7,946.6 M958.7,932.5c-2.5,0-4.5,2-4.5,4.4c0,2.5,2,4.5,4.4,4.5
		c2.5,0,4.5-2,4.5-4.4c0,0,0,0,0,0C963.1,934.5,961.2,932.5,958.7,932.5z"/>
	<path id="Path_176" class="st2" d="M968.2,811.8h-23.6c-1.4,0-2.6-1.2-2.5-2.7c0-1.4,1.2-2.5,2.5-2.5h23.6c1.4,0,2.6,1.2,2.5,2.7
		C970.7,810.6,969.6,811.7,968.2,811.8"/>
	<path id="Path_177" class="st1" d="M944.7,807.2c1.1,0,1.9,0.9,1.9,1.9c0,1.1-0.9,1.9-1.9,1.9s-1.9-0.9-1.9-1.9
		C942.7,808.1,943.6,807.2,944.7,807.2C944.7,807.2,944.7,807.2,944.7,807.2"/>
	<path id="Path_178" class="st2" d="M958.7,844.2c13.1,0,23.7,10.6,23.7,23.6s-10.6,23.7-23.6,23.7s-23.7-10.6-23.7-23.6
		c0-6.3,2.5-12.3,6.9-16.7C946.5,846.7,952.5,844.2,958.7,844.2 M958.7,839.3c-15.8,0-28.5,12.8-28.5,28.5
		c0,15.8,12.8,28.5,28.5,28.5c15.8,0,28.5-12.8,28.5-28.5c0-7.6-3-14.8-8.4-20.2C973.6,842.3,966.3,839.3,958.7,839.3"/>
	<path id="Path_179" class="st3" d="M961.9,887.5c-0.7,0-1.4-0.3-1.8-0.8l-13.3-14.9l0.7-1.8c0.5-1,1.5-1.6,2.7-1.5
		c3.7,0.3,6.6-0.8,7.9-3c1-1.6,1-3.6,0-5.2c-1.5-2.4-4.6-3.7-8.7-3.4c-1.4,0-2.5-1-2.5-2.4c0-1.3,0.9-2.4,2.2-2.5
		c5.9-0.3,10.7,1.8,13.2,5.8c1.9,3.2,1.9,7.1,0,10.3c-1.7,2.7-4.6,4.5-7.7,5l9.2,10.4c0.9,1,0.8,2.6-0.2,3.5
		C963.1,887.3,962.5,887.5,961.9,887.5L961.9,887.5z"/>
	<path id="Path_180" class="st3" d="M969.8,856.6h-20.6c-1.4,0-2.5-1-2.5-2.4s1-2.5,2.4-2.5c0,0,0,0,0,0h20.7c1.4,0,2.5,1.1,2.5,2.4
		C972.3,855.5,971.2,856.6,969.8,856.6L969.8,856.6"/>
	<path id="Path_181" class="st3" d="M969.3,864.8h-20.1c-1.4,0-2.5-1.1-2.5-2.4c0-1.3,1-2.4,2.4-2.5h20.2c1.4,0,2.5,1.1,2.5,2.4
		C971.8,863.6,970.8,864.7,969.3,864.8L969.3,864.8"/>
	<path id="Path_182" class="st4" d="M1023.1,876.2c0-3.2,0-6.2,0-9.2c0-0.9-0.3-1-1.1-1c-8,0-16.1,0-24.1,0c-0.8,0-1.1-0.2-1.1-1
		c0-6,0-12,0-18c0-0.9,0.3-1,1.1-1c8,0,16.1,0,24.1,0c0.8,0,1.1-0.2,1.1-1c0-3,0-6,0-9.1c0.5,0,0.6,0.4,0.8,0.6
		c6.3,6.3,12.6,12.6,18.8,18.9c0.4,0.4,0.6,0.7,0.1,1.2c-6.5,6.4-12.9,12.9-19.4,19.4C1023.5,876,1023.4,876.1,1023.1,876.2"/>
	<path id="Path_183" class="st2" d="M1023.2,878.6c-0.4,0-0.7-0.1-1.1-0.2c-0.9-0.4-1.4-1.2-1.5-2.1l0-2.6c0-1.7,0-3.4,0-5.1
		l-22.6,0c-1.8,0.2-3.4-1.1-3.6-2.9c0-0.2,0-0.4,0-0.6c0-6,0-12,0-18c-0.1-1,0.3-1.9,0.9-2.6c0.7-0.7,1.7-1,2.6-0.9l22.6,0
		c0-1.7,0-3.4,0-5.1l0-2.5c0-1.4,1.1-2.5,2.5-2.5c0,0,0.1,0,0.1,0c1,0.1,1.9,0.6,2.4,1.4l18.8,18.9c1.3,1.1,1.5,3,0.5,4.4
		c-0.1,0.1-0.2,0.3-0.4,0.4c-5,5-9.9,9.9-14.9,14.9l-4.5,4.5c-0.1,0.1-0.3,0.3-0.4,0.4C1024.3,878.4,1023.8,878.6,1023.2,878.6
		 M1025.6,876.2L1025.6,876.2z M1022.2,863.5c1,0,1.9,0.3,2.6,1c0.6,0.7,1,1.7,0.9,2.6c0,1.1,0,2.2,0,3.3l0.6-0.6
		c4.6-4.6,9.1-9.2,13.7-13.7l-14.3-14.3c0,1.1,0,2.2,0,3.2c0.1,1-0.3,1.9-0.9,2.6c-0.7,0.7-1.7,1-2.6,1l-22.7,0c0,5.1,0,10.1,0,15.1
		L1022.2,863.5L1022.2,863.5z"/>
	<path id="Path_184" class="st4" d="M891.6,909.3c0-3.2,0-6.2,0-9.2c0-0.9,0.3-1,1.1-1c8,0,16.1,0,24.1,0c0.8,0,1.1-0.2,1.1-1
		c0-6,0-12,0-18c0-0.9-0.3-1-1.1-1c-8,0-16.1,0-24.1,0c-0.8,0-1.1-0.2-1.1-1c0.1-3,0-6,0-9.1c-0.5,0-0.6,0.4-0.8,0.6
		c-6.3,6.3-12.6,12.6-18.8,18.9c-0.4,0.4-0.6,0.7-0.1,1.2c6.5,6.4,12.9,12.9,19.4,19.4C891.3,909.1,891.4,909.2,891.6,909.3"/>
	<path id="Path_185" class="st2" d="M891.6,911.8c-0.6,0-1.1-0.2-1.5-0.5l1.5-2l-1.7,1.8c-0.1-0.1-0.4-0.3-0.5-0.4l-4.4-4.4
		c-5-5-10-10-15-15c-0.7-0.6-1.1-1.5-1.1-2.4c0-0.9,0.4-1.8,1.1-2.4l18.8-18.9c0.6-0.8,1.5-1.3,2.4-1.3c0.7-0.1,1.4,0.2,1.9,0.7
		c0.5,0.5,0.8,1.1,0.8,1.8l0,2.5c0,1.7,0,3.4,0,5.1l22.6,0c1-0.1,1.9,0.3,2.6,0.9c0.7,0.7,1,1.6,0.9,2.6c0,6,0,12,0,18
		c0.2,1.8-1.1,3.4-2.9,3.5c-0.2,0-0.4,0-0.6,0l-22.7,0c0,1.7,0,3.4,0,5.1l0,2.6c0,0.9-0.5,1.8-1.4,2.2
		C892.4,911.7,892,911.8,891.6,911.8 M874.8,889.1c4.6,4.6,9.2,9.2,13.8,13.8l0.5,0.5c0-1.1,0-2.2,0-3.3c-0.2-1.8,1.1-3.4,2.9-3.6
		c0.2,0,0.5,0,0.7,0l22.7,0c0-5.1,0-10.1,0-15.1l-22.7,0c-1.8,0.2-3.4-1.1-3.6-2.9c0-0.2,0-0.4,0-0.7c0-1.1,0-2.2,0-3.2L874.8,889.1
		z"/>
</g>
</svg>
