<?xml version="1.0" encoding="utf-8"?>
<!-- Generator: Adobe Illustrator 26.5.0, SVG Export Plug-In . SVG Version: 6.00 Build 0)  -->
<svg version="1.1" id="Layer_1" xmlns="http://www.w3.org/2000/svg" xmlns:xlink="http://www.w3.org/1999/xlink" x="0px" y="0px"
	 viewBox="0 0 200 200" style="enable-background:new 0 0 200 200;" xml:space="preserve">
<style type="text/css">
	.st0{fill:#E64B16;}
	.st1{fill:#003072;}
	.st2{fill:#003173;}
</style>
<g id="Group_92074" transform="translate(-172.098 -773.379)">
	<path id="Path_136" class="st0" d="M201.2,837.5v12.1l74.8-35.1l74.8,35.4v-12.6L276,802L201.2,837.5z"/>
	<path id="Path_137" class="st1" d="M350.8,852.9c-0.4,0-0.9-0.1-1.3-0.3L276,817.8l-73.5,34.5c-1.5,0.7-3.3,0.1-4-1.5
		c-0.2-0.4-0.3-0.8-0.3-1.3v-12.1c0-1.2,0.7-2.2,1.7-2.7l74.8-35.5c0.8-0.4,1.8-0.4,2.6,0l74.8,35.2c1.1,0.5,1.7,1.6,1.7,2.7v12.6
		C353.9,851.5,352.5,852.9,350.8,852.9C350.8,852.9,350.8,852.9,350.8,852.9L350.8,852.9z M276.1,811.4c0.4,0,0.9,0.1,1.3,0.3
		l70.4,33.3v-5.9l-71.7-33.8l-71.8,34v5.4l70.5-33.1C275.2,811.5,275.6,811.4,276.1,811.4"/>
	<path id="Path_138" class="st1" d="M218.7,885.7c-1.7,0-3-1.4-3-3v-41.2c0-1.7,1.4-3,3.1-3c1.6,0,2.9,1.3,3,3v41.2
		C221.8,884.3,220.4,885.7,218.7,885.7C218.7,885.7,218.7,885.7,218.7,885.7"/>
	<path id="Path_139" class="st1" d="M335.7,933.5c-1.7,0-3-1.4-3-3c0,0,0,0,0,0v-86.3c0-1.7,1.4-3,3.1-3c1.6,0,2.9,1.3,3,3v86.3
		C338.8,932.2,337.4,933.5,335.7,933.5"/>
	<path id="Path_140" class="st2" d="M271.2,924.6h-52.7c-1.7,0-3-1.4-3-3v-37.8c0-5.5,4.5-10,10-10h38.8c5.5,0,10,4.5,10,10v37.8
		C274.2,923.2,272.9,924.6,271.2,924.6 M221.5,918.5h46.7v-34.8c0-2.2-1.8-3.9-3.9-3.9h-38.8c-2.2,0-3.9,1.8-3.9,3.9c0,0,0,0,0,0
		V918.5z"/>
	<path id="Path_141" class="st2" d="M196.3,936.2h-7.8c-3.3,0.1-6-2.6-6.1-5.8V907c0-0.8,0.3-1.5,0.8-2l14-15.2c0.6-0.6,1.4-1,2.2-1
		H217c1.7,0,3,1.4,3,3s-1.4,3-3,3h-16.2l-12.3,13.4v22.2l7.8-0.2c1.7,0,3.1,1.3,3.1,3c0,1.7-1.3,3.1-3,3.1L196.3,936.2z"/>
	<path id="Path_142" class="st2" d="M236.1,936.5h-19.1c-1.7,0-3-1.4-3-3c0-1.6,1.3-3,2.9-3c0,0,0.1,0,0.1,0h19.1
		c1.7,0,3.1,1.3,3.1,3c0,1.7-1.3,3.1-3,3.1H236.1z"/>
	<path id="Path_143" class="st2" d="M226.8,936.3c-1.7,0-3-1.4-3-3v-11.7c0-1.7,1.3-3.1,3-3.1c1.7,0,3.1,1.3,3.1,3c0,0,0,0.1,0,0.1
		v11.7C229.8,935,228.4,936.3,226.8,936.3C226.8,936.3,226.8,936.3,226.8,936.3"/>
	<path id="Path_144" class="st2" d="M266.6,937.2H262c-1.7,0-3.1-1.3-3.1-3s1.3-3.1,3-3.1c0,0,0.1,0,0.1,0h4.6c0.5,0.1,1,0,1.5-0.2
		c0.1-0.2,0.1-0.5,0.1-0.7v-8.1c0-1.7,1.4-3,3-3s3,1.4,3,3v8.1c0.1,1.9-0.6,3.7-1.9,5C270.8,936.6,268.7,937.3,266.6,937.2"/>
	<path id="Path_145" class="st2" d="M202.7,916.6h-17c-1.7,0-3-1.4-3-3c0-1.6,1.3-3,2.9-3c0,0,0.1,0,0.1,0h17c0.4,0,0.8,0,1.2-0.1
		v-18.6c0-1.7,1.4-3,3.1-3c1.6,0,2.9,1.3,3,3v18.3c0.1,1.7-0.5,3.4-1.7,4.6C206.7,916.1,204.7,916.7,202.7,916.6"/>
	<path id="Path_146" class="st1" d="M358.7,934.5h-87.9c-1.7,0-3-1.4-3-3c0-1.7,1.4-3,3-3h87.9c1.7,0,3,1.4,3,3
		C361.7,933.2,360.4,934.5,358.7,934.5L358.7,934.5z"/>
	<rect id="Rectangle_33116" x="302.8" y="898" class="st0" width="18" height="15.7"/>
	<path id="Path_147" class="st2" d="M320.8,916.8h-18c-1.7,0-3-1.4-3-3c0,0,0,0,0,0V898c0-1.7,1.4-3,3-3c0,0,0,0,0,0h18
		c1.7,0,3,1.4,3,3c0,0,0,0,0,0v15.7C323.9,915.4,322.5,916.8,320.8,916.8C320.8,916.8,320.8,916.8,320.8,916.8 M305.9,910.7h11.9
		v-9.7h-11.9V910.7z"/>
	<rect id="Rectangle_33117" x="303" y="879.3" class="st0" width="18" height="15.7"/>
	<path id="Path_148" class="st2" d="M321,898.1h-18c-1.7,0-3-1.4-3-3v-15.7c0-1.7,1.4-3,3-3h18c1.7,0,3,1.4,3,3V895
		C324,896.7,322.7,898.1,321,898.1 M306.1,892H318v-9.7h-11.9V892z"/>
	<rect id="Rectangle_33118" x="305.5" y="915.7" class="st0" width="18" height="15.7"/>
	<path id="Path_149" class="st2" d="M323.5,934.5h-18c-1.7,0-3-1.4-3-3v-15.7c0-1.7,1.4-3,3-3h18c1.7,0,3,1.4,3,3v15.7
		C326.5,933.1,325.1,934.5,323.5,934.5 M308.5,928.4h11.9v-9.7h-11.9V928.4z"/>
	<rect id="Rectangle_33119" x="284.1" y="915.2" class="st0" width="18" height="15.7"/>
	<path id="Path_150" class="st2" d="M302.1,933.9h-18c-1.7,0-3-1.3-3-3c0,0,0,0,0,0v-15.7c0-1.7,1.4-3,3-3c0,0,0,0,0,0h18
		c1.7,0,3,1.4,3,3v15.7C305.1,932.6,303.7,933.9,302.1,933.9C302.1,933.9,302.1,933.9,302.1,933.9 M287.1,927.9H299v-9.7h-11.9
		V927.9z"/>
	<path id="Path_151" class="st0" d="M207.1,921.5c6.4,0,11.6,5.2,11.6,11.6s-5.2,11.6-11.6,11.6c-6.4,0-11.6-5.2-11.6-11.6
		c0,0,0,0,0,0C195.5,926.7,200.7,921.5,207.1,921.5"/>
	<path id="Path_152" class="st2" d="M207.1,947.8c-8.1,0-14.7-6.6-14.7-14.7s6.6-14.7,14.7-14.7c8.1,0,14.7,6.6,14.7,14.7
		C221.8,941.2,215.2,947.8,207.1,947.8C207.2,947.8,207.1,947.8,207.1,947.8 M207.1,924.6c-4.7,0-8.6,3.8-8.6,8.6
		c0,4.7,3.8,8.6,8.6,8.6s8.6-3.8,8.6-8.6c0,0,0,0,0,0C215.7,928.4,211.9,924.6,207.1,924.6C207.1,924.6,207.1,924.6,207.1,924.6z"/>
	<path id="Path_153" class="st0" d="M248.7,921.5c6.4,0,11.6,5.2,11.6,11.6s-5.2,11.6-11.6,11.6s-11.6-5.2-11.6-11.6l0,0
		C237.1,926.7,242.3,921.5,248.7,921.5"/>
	<path id="Path_154" class="st2" d="M248.7,947.8c-8.1,0-14.7-6.6-14.7-14.7c0-8.1,6.6-14.7,14.7-14.7c8.1,0,14.7,6.6,14.7,14.7
		C263.3,941.2,256.8,947.8,248.7,947.8C248.7,947.8,248.7,947.8,248.7,947.8 M248.7,924.6c-4.7,0-8.6,3.8-8.6,8.6s3.8,8.6,8.6,8.6
		s8.6-3.8,8.6-8.6c0,0,0,0,0,0C257.3,928.4,253.4,924.6,248.7,924.6z"/>
	<path id="Path_155" class="st2" d="M217.5,924.6h-11.2c-1.7,0-3-1.4-3-3.1c0-1.6,1.3-2.9,3-3h11.2c1.7,0,3,1.4,3,3.1
		C220.5,923.2,219.1,924.5,217.5,924.6"/>
</g>
</svg>
