<?xml version="1.0" encoding="utf-8"?>
<!-- Generator: Adobe Illustrator 26.5.0, SVG Export Plug-In . SVG Version: 6.00 Build 0)  -->
<svg version="1.1" id="Layer_1" xmlns="http://www.w3.org/2000/svg" xmlns:xlink="http://www.w3.org/1999/xlink" x="0px" y="0px"
	 viewBox="0 0 200 200" style="enable-background:new 0 0 200 200;" xml:space="preserve">
<style type="text/css">
	.st0{fill:#003173;}
	.st1{fill:#E64B16;}
</style>
<g id="Group_92807" transform="translate(-765.651 -1020.181)">
	<path id="Path_242" class="st0" d="M892.3,1163.9h-54.8c-1.6,0-2.8-1.3-2.8-2.8s1.3-2.8,2.8-2.8h54.8c1.6,0,2.8,1.3,2.8,2.8
		S893.8,1163.9,892.3,1163.9"/>
	<path id="Path_243" class="st0" d="M809.4,1162.9h-24.9c-1.6,0-2.8-1.3-2.8-2.8l0,0v-20c0-1.6,1.3-2.8,2.8-2.8c0,0,0,0,0,0h107.8
		c1.6,0,2.8,1.3,2.8,2.8s-1.3,2.8-2.8,2.8h-105v14.3h22.1c1.6,0,2.8,1.3,2.8,2.8S810.9,1162.9,809.4,1162.9z"/>
	<path id="Path_244" class="st1" d="M823.2,1147.5c7.5,0,13.7,6.1,13.7,13.7c0,7.5-6.1,13.7-13.7,13.7c-7.5,0-13.7-6.1-13.7-13.7
		c0,0,0,0,0,0C809.5,1153.6,815.6,1147.5,823.2,1147.5C823.2,1147.5,823.2,1147.5,823.2,1147.5"/>
	<path id="Path_245" class="st0" d="M823.2,1177.6c-9.1,0-16.5-7.4-16.5-16.5c0-9.1,7.4-16.5,16.5-16.5c9.1,0,16.5,7.4,16.5,16.5
		c0,0,0,0,0,0l0,0C839.7,1170.2,832.3,1177.6,823.2,1177.6 M823.2,1150.3c-6,0-10.8,4.8-10.8,10.8c0,6,4.8,10.8,10.8,10.8
		c6,0,10.8-4.8,10.8-10.8l0,0C834,1155.1,829.2,1150.3,823.2,1150.3z"/>
	<path id="Path_246" class="st0" d="M947.6,1163.9h-16.3c-1.6,0-2.8-1.3-2.8-2.8c0-1.6,1.3-2.8,2.8-2.8h13.5v-26.6l-23.7-37.4h-25.9
		v64h8.5c1.6,0,2.8,1.3,2.8,2.8c0,1.6-1.3,2.8-2.8,2.8h-11.3c-1.6,0-2.8-1.3-2.8-2.8v-69.7c0-1.6,1.3-2.8,2.8-2.8h30.3
		c1,0,1.9,0.5,2.4,1.3l25,39.4c0.3,0.5,0.4,1,0.4,1.5v30.3C950.4,1162.7,949.1,1163.9,947.6,1163.9z"/>
	<path id="Path_247" class="st1" d="M917.4,1147.5c7.5,0,13.7,6.1,13.7,13.7c0,7.5-6.1,13.7-13.7,13.7c-7.5,0-13.7-6.1-13.7-13.7
		c0,0,0,0,0,0C903.7,1153.6,909.9,1147.5,917.4,1147.5C917.4,1147.5,917.4,1147.5,917.4,1147.5"/>
	<path id="Path_248" class="st0" d="M917.4,1177.6c-9.1,0-16.5-7.4-16.5-16.5c0-9.1,7.4-16.5,16.5-16.5c9.1,0,16.5,7.4,16.5,16.5
		C933.9,1170.2,926.5,1177.6,917.4,1177.6 M917.4,1150.3c-6,0-10.8,4.8-10.8,10.8c0,6,4.8,10.8,10.8,10.8s10.8-4.8,10.8-10.8
		c0,0,0,0,0,0C928.2,1155.1,923.4,1150.3,917.4,1150.3C917.4,1150.3,917.4,1150.3,917.4,1150.3z"/>
	<path id="Path_249" class="st0" d="M945.5,1130.4h-41.8c-1.6,0-2.8-1.3-2.8-2.8l0,0v-24.3c0-1.6,1.3-2.8,2.8-2.8l0,0h26.4
		c1,0,1.9,0.5,2.4,1.3l15.4,24.3c0.8,1.3,0.4,3.1-0.9,3.9C946.6,1130.3,946,1130.4,945.5,1130.4L945.5,1130.4z M906.6,1124.7h33.8
		l-11.8-18.7h-22L906.6,1124.7z"/>
	<path id="Path_250" class="st0" d="M892.3,1142.9H791.8c-1.6,0-2.8-1.3-2.8-2.8V1066c0-1.6,1.3-2.8,2.8-2.8l0,0h100.5
		c1.6,0,2.8,1.3,2.8,2.8l0,0v74.1C895.1,1141.7,893.8,1142.9,892.3,1142.9L892.3,1142.9 M794.6,1137.3h94.8v-68.4h-94.8
		L794.6,1137.3z"/>
	<path id="Path_251" class="st0" d="M876.3,1129.5h-23c-1.4,0-2.6-1.2-2.6-2.6l0,0v-23c0-1.4,1.2-2.6,2.6-2.6l0,0h23
		c1.4,0,2.6,1.2,2.6,2.6c0,0,0,0,0,0v23C878.9,1128.4,877.8,1129.5,876.3,1129.5L876.3,1129.5 M855.9,1124.3h17.8v-17.8h-17.8
		L855.9,1124.3z"/>
	<path id="Path_252" class="st0" d="M853.3,1129.5h-23c-1.4,0-2.6-1.2-2.6-2.6l0,0v-23c0-1.4,1.2-2.6,2.6-2.6l0,0h23
		c1.4,0,2.6,1.2,2.6,2.6c0,0,0,0,0,0v23C855.9,1128.4,854.8,1129.5,853.3,1129.5L853.3,1129.5 M832.9,1124.3h17.8v-17.8h-17.8
		V1124.3z"/>
	<path id="Path_253" class="st0" d="M830.3,1129.5h-23c-1.4,0-2.6-1.2-2.6-2.6l0,0v-23c0-1.4,1.2-2.6,2.6-2.6l0,0h23
		c1.4,0,2.6,1.2,2.6,2.6c0,0,0,0,0,0v23C832.9,1128.4,831.7,1129.5,830.3,1129.5L830.3,1129.5 M809.9,1124.3h17.8v-17.8h-17.8
		V1124.3z"/>
	<path id="Path_254" class="st0" d="M864,1106.5h-23c-1.4,0-2.6-1.2-2.6-2.6l0,0v-23c0-1.4,1.2-2.6,2.6-2.6l0,0h23
		c1.4,0,2.6,1.2,2.6,2.6c0,0,0,0,0,0v23C866.6,1105.3,865.4,1106.5,864,1106.5L864,1106.5 M843.6,1101.3h17.8v-17.8h-17.8V1101.3z"
		/>
	<path id="Path_255" class="st0" d="M841,1106.5h-23c-1.4,0-2.6-1.2-2.6-2.6l0,0v-23c0-1.4,1.2-2.6,2.6-2.6l0,0h23
		c1.4,0,2.6,1.2,2.6,2.6c0,0,0,0,0,0v23C843.6,1105.3,842.4,1106.5,841,1106.5L841,1106.5 M820.5,1101.3h17.8v-17.8h-17.8V1101.3z"
		/>
	<rect id="Rectangle_33143" x="825.5" y="1083.5" class="st1" width="8.5" height="3.8"/>
	<rect id="Rectangle_33144" x="849.1" y="1083.5" class="st1" width="8.5" height="3.8"/>
	<rect id="Rectangle_33145" x="861.2" y="1106.5" class="st1" width="8.5" height="3.8"/>
	<rect id="Rectangle_33146" x="814.5" y="1106.5" class="st1" width="8.5" height="3.8"/>
	<rect id="Rectangle_33147" x="838.1" y="1106.5" class="st1" width="8.5" height="3.8"/>
</g>
</svg>
