<?xml version="1.0" encoding="utf-8"?>
<!-- Generator: Adobe Illustrator 26.5.0, SVG Export Plug-In . SVG Version: 6.00 Build 0)  -->
<svg version="1.1" id="Layer_1" xmlns="http://www.w3.org/2000/svg" xmlns:xlink="http://www.w3.org/1999/xlink" x="0px" y="0px"
	 viewBox="0 0 200 200" style="enable-background:new 0 0 200 200;" xml:space="preserve">
<style type="text/css">
	.st0{fill:#DB342D;}
	.st1{fill:#003173;}
</style>
<g id="Group_92805" transform="translate(-1055.29 -1044.606)">
	<path id="Path_226" class="st0" d="M1157.3,1084.2c2.9,2.8,5.5,5.6,8.1,8.5c2.5,2.7,4.9,5.5,7.2,8.4c0.5,0.5,0.6,1.3,0.1,1.9
		c-3.7,5.6-7.7,11.1-12,16.3c-3.3,4.1-6.9,7.9-10.7,11.5c-4.2,3.9-8.7,7.6-13.4,10.9c-0.5,0.4-0.8,0.4-1.3-0.2
		c-1.4-2-2.9-3.9-4.4-5.8c-0.3-0.4-0.4-0.7,0.1-1.1c2.1-1.9,4.1-3.9,5.9-6c1.8-2,3.5-4.1,5.2-6.2c3.4-4.3,6.1-9,8.1-14
		c2.7-7,4.9-14.2,6.6-21.5c0.1-0.4,0.2-0.8,0.3-1.2C1157.1,1085.1,1157.2,1084.7,1157.3,1084.2"/>
	<path id="Path_227" class="st0" d="M1104,1158.9c0-1.6,0.7-3.1,1.9-4.2c2.6-2.2,5.3-4.3,8.1-6.3c1.5-1.2,3.1-2.3,4.6-3.4
		c0.4-0.3,0.6-0.3,0.9,0.2c1.9,2.6,3.7,5.1,5.6,7.6c0.3,0.4,0.3,0.6-0.1,0.9c-4.1,3-8.2,6.1-12.4,9.2c-2.3,1.8-5.7,1.4-7.5-0.9
		c-0.5-0.7-0.9-1.5-1.1-2.4C1104,1159.3,1104,1159.1,1104,1158.9"/>
	<path id="Path_228" class="st1" d="M1152.3,1230.4h-1c-0.6,0-1.3-0.2-1.8-0.5c-2.9-2-5.4-4.4-7.5-7.2l-1.2-1.4c-2.9-3.4-6-6.7-9-10
		c-2.8-3-5.6-6.1-8.3-9.2l-13.7-15.6c-0.7-0.8-1-1.8-0.8-2.8c0.3-1.7,1.8-3,3.5-3.1c2.8-0.5,5.5-1.7,7.8-3.6
		c2.3-1.8,4.7-3.6,7.1-5.3l1.9-1.4c1-0.9,2.3-1.4,3.6-1.2c0.8,0.1,1.5,0.5,2,1l4.8,5.1c0.4,0.2,0.8,0.5,1.1,0.9c1,1.1,2,2.2,3.1,3.3
		c1.1,1.2,2.2,2.4,3.3,3.6c0.2,0.3,0.4,0.6,0.6,0.9l14,14.9c1.1,1.2,2.2,2.4,3.3,3.6c1.5,0.1,2.9,0.2,4.3,0.4
		c2.1,0.3,3.9,1.6,4.7,3.6c0.9,2,0.6,4.3-0.7,6.1c-1.4,1.9-3,3.5-4.8,5l-2.4,2.1c-3.6,3.1-7.3,6.4-11.1,9.4
		C1154.3,1229.9,1153.3,1230.4,1152.3,1230.4 M1118.1,1186l10.4,11.7c2.7,3.1,5.5,6.1,8.2,9.1c3.1,3.3,6.1,6.7,9.1,10.1l1.3,1.5
		c1.4,1.8,3,3.4,4.6,4.9c3.4-2.8,6.8-5.7,10-8.5l2.4-2.1c1.2-1,2.3-2,3.3-3.2c-1-0.1-2.1-0.2-3.1-0.3c-1.5-0.1-3-0.7-4-1.9
		c-1.1-1.3-2.3-2.5-3.5-3.7l-14.5-15.5c-0.3-0.3-0.5-0.6-0.6-0.9c-0.9-1-1.8-2-2.8-3c-1-1-1.9-2-2.9-3.1c-0.1,0-0.2-0.1-0.2-0.1
		c-0.3-0.2-0.5-0.4-0.7-0.6l-3.3-3.6l-0.6,0.4c-2.3,1.7-4.7,3.5-7,5.3C1122.4,1183.9,1120.3,1185.1,1118.1,1186 M1168.3,1209.5
		L1168.3,1209.5z M1135.8,1180.7L1135.8,1180.7L1135.8,1180.7"/>
	<path id="Path_229" class="st1" d="M1142.3,1167.1L1142.3,1167.1c-1.4,0-2.7-0.7-3.5-1.9c-7-9.3-13.9-18.6-20.7-27.9
		c-1.1-1.2-1.3-3.1-0.3-4.5c0.3-0.5,0.7-0.9,1.2-1.1c0.4-0.3,0.7-0.6,0.9-1c0.3-0.3,0.5-0.6,0.8-0.9c2.3-2.6,5-5.8,7.5-9.1
		c3.8-5,8.1-10.7,10.1-17.3c1.1-3.7,2.2-7.7,3.4-12.9c1.1-4.7,2-9.6,2.9-14.4l0.5-2.9c0.4-1.8,0.7-3.7,0.8-5.5
		c0.1-0.7,0.3-1.4,0.8-2c0.4-0.6,1-1.1,1.7-1.3c1.5-0.5,3.2,0,4.2,1.2c0.7,0.7,1.4,1.4,2.1,2c1,0.9,1.9,1.7,2.8,2.7
		c0.8,0.9,1.8,1.8,2.7,2.6c1,0.9,1.9,1.8,2.8,2.7c1.4,1.5,2.8,2.9,4.2,4.4c3.1,3.2,6.1,6.4,9.1,9.7c5.5,6.1,9.7,11.3,13.5,16.3
		c5.9,8.1,11.4,16.6,16.5,25.3c2.8,4.8,5.5,9.7,8.1,14.7c1,1.8,1.9,3.6,2.8,5.5l0.6,1.2c0.7,1.1,0.9,2.5,0.5,3.8
		c-0.5,1.4-2,2.3-3.5,2.1l-8-1c-1.3-0.2-2.7-0.3-4-0.5c-2.6-0.3-5.3-0.6-7.9-0.8c-1.9-0.2-3.8-0.3-5.8-0.4c-2.7-0.2-5.4-0.2-8.2-0.2
		l-2.8,0c-4.1,0-8.3,0.7-12.2,2c-6.9,2.2-13.5,4.9-20.1,8c-0.5,0.2-1,0.5-1.6,0.7l-0.6,0.3C1143.2,1167,1142.8,1167.1,1142.3,1167.1
		 M1124.8,1135.2c6.1,8.2,12.2,16.4,18.4,24.6c6.7-3.2,13.6-6,20.7-8.3c4.6-1.5,9.4-2.3,14.3-2.3l2.7,0c2.8,0,5.7,0,8.6,0.2
		c2,0.1,4,0.3,5.9,0.5c2.7,0.2,5.4,0.5,8,0.8c1.4,0.1,2.8,0.3,4.1,0.5l2.2,0.3c-0.4-0.8-0.8-1.5-1.2-2.3c-2.6-4.9-5.2-9.7-8-14.4
		c-4.9-8.5-10.3-16.8-16.1-24.7c-3.6-4.9-7.7-9.9-13.1-15.9c-2.9-3.2-5.9-6.4-8.9-9.5c-1.4-1.5-2.8-2.9-4.2-4.4
		c-0.8-0.8-1.6-1.6-2.5-2.4c-1.1-1-2.1-2-3.1-3c-0.3-0.4-0.7-0.7-1-1l-0.1,0.6l-0.5,2.8c-0.9,4.8-1.8,9.8-2.9,14.7
		c-1.2,5.4-2.3,9.5-3.5,13.3c-2.4,7.7-7,13.9-11.2,19.4c-2.6,3.5-5.4,6.7-7.8,9.5c-0.2,0.2-0.4,0.4-0.5,0.6
		C1125.1,1134.9,1124.9,1135,1124.8,1135.2 M1212,1155.8c0,0.1,0.1,0.3,0.2,0.4l1.7-1.2l-0.2-0.1L1212,1155.8z M1152.6,1068.2
		L1152.6,1068.2"/>
	<path id="Path_230" class="st1" d="M1110.2,1187.8c-1.8,0-3.5-0.2-5.3-0.6c-1.1,0-2.2-0.2-3.2-0.7c-8.6-3.8-13.4-10.2-14.6-19.1
		c-0.2-1-0.2-1.9,0.1-2.9c0.1-6.5,3-12.6,8-16.8c2.3-1.9,4.7-3.6,7-5.3l14.3-10.6c2.7-2,4.7-1.7,6.7,0.8l0.1,0.1l21.4,28.7
		c0.1,0.1,0.3,0.3,0.3,0.4c0.8,0.9,1.2,2.1,1,3.3c-0.2,1.2-0.9,2.3-1.9,3c-2.4,1.7-4.7,3.5-7.1,5.2l-5.8,4.4
		c-2.4,1.8-4.7,3.5-7.1,5.3c-3.3,2.5-7.2,4.2-11.4,4.7C1111.8,1187.7,1111,1187.8,1110.2,1187.8 M1105.1,1180.5c0.2,0,0.5,0,0.7,0.1
		c2,0.5,4,0.6,6,0.5c3-0.4,5.8-1.6,8.2-3.4c2.4-1.8,4.8-3.6,7.1-5.3l5.8-4.4c1.8-1.3,3.5-2.6,5.3-3.9l-19.2-25.8l-12.9,9.6
		c-2.2,1.6-4.5,3.3-6.6,5.1c-3.7,3.1-5.6,7.2-5.7,12.5c0,0.3-0.1,0.6-0.1,0.9l0,0.3c0.9,6.5,4.3,11,10.6,13.8l0.5,0.2
		C1104.9,1180.5,1105,1180.5,1105.1,1180.5"/>
	<path id="Path_231" class="st1" d="M1215.2,1158.8c-0.2,0-0.4,0-0.7-0.1c-1-0.2-1.9-0.9-2.3-1.8c-5.2-10.5-11.2-21.2-17.8-32
		c-9-14.3-19.6-27.6-31.5-39.6c-6.2-6.3-11-11-15.7-15.3c-1.4-1.2-1.4-3.3-0.2-4.7c0.1-0.1,0.3-0.3,0.4-0.4c1.4-1,2.8-2,4.3-2.9
		c0.8-0.5,1.6-1,2.3-1.5c0.3-0.2,0.6-0.4,0.9-0.6c0.2-0.1,0.5-0.3,0.7-0.5c1.7-1.5,4.3-1.3,5.8,0.3c6.1,5.6,11.9,11.5,17.1,17.1
		c4.1,4.4,8.1,8.9,11.8,13.2c0.9,0.7,1.7,1.5,2.4,2.5c0.1,0.2,0.3,0.4,0.4,0.6c4,4.9,7.8,9.9,11.3,15c0.3,0.4,0.5,0.9,0.7,1.4
		l4.2,6.7c6.1,9.6,11.5,19.6,16.4,29.9c1,1.9,0.5,4.2-1.2,5.5c-1.8,1.5-3.6,3-5.4,4.6l-2,1.7
		C1216.7,1158.5,1216,1158.8,1215.2,1158.8 M1154.8,1068c3.8,3.6,7.9,7.7,12.9,12.7c12.2,12.4,23.1,26,32.4,40.7
		c6,9.6,11.4,19.2,16.2,28.7c1-0.8,2-1.7,2.9-2.5c-4.6-9.6-9.7-18.8-15.4-27.8l-4.5-7c-0.2-0.3-0.3-0.6-0.4-1
		c-3.3-4.7-6.9-9.6-10.8-14.3c-0.2-0.3-0.5-0.6-0.7-0.9c-0.2-0.3-0.5-0.6-0.8-0.9c-0.4-0.2-0.7-0.4-0.9-0.8
		c-3.8-4.4-7.8-9-11.9-13.4c-4.8-5.1-10.1-10.6-15.6-15.7c-0.1,0.1-0.3,0.2-0.4,0.3c-0.8,0.6-1.7,1.1-2.6,1.6
		C1155,1067.8,1154.9,1067.9,1154.8,1068"/>
	<path id="Path_232" class="st1" d="M1202.1,1114.4c-1.1,0-2.1-0.5-2.7-1.4l-1.8-2.4c-1.3-1.9-2.7-3.7-4-5.6c-2-2.8-4.3-5.5-6.4-8.1
		l-1.6-2c-1.2-1.4-0.9-3.5,0.5-4.7c0.2-0.2,0.5-0.3,0.8-0.5c4.7-2.1,10.3-1.6,14.6,1.3c6.8,4.6,8.7,13.8,4.2,20.7
		c-0.2,0.3-0.4,0.6-0.6,0.9l-0.2,0.3C1204.3,1113.8,1203.3,1114.3,1202.1,1114.4L1202.1,1114.4 M1194.4,1095.2
		c1.6,1.9,3.1,3.9,4.6,5.9c0.8,1.1,1.6,2.2,2.4,3.3c0.4-3.1-1-6.1-3.6-7.8C1196.8,1095.9,1195.6,1095.4,1194.4,1095.2"/>
	<path id="Path_233" class="st1" d="M1098.1,1190.9c-2.1,0-4.2-0.5-6.1-1.5c-5.7-2.5-9.4-8-9.7-14.3c-0.3-3.7,1-7.3,3.6-9.9
		c1.3-1.3,3.4-1.3,4.7,0c0.6,0.6,0.9,1.3,0.9,2.1c0.2,5.7,3.3,11,8.2,13.9c1.3,0.7,2.7,1.3,4.1,1.7c1.7,0.6,2.7,2.5,2.1,4.2
		c-0.2,0.7-0.8,1.4-1.4,1.8C1102.6,1190.3,1100.4,1190.9,1098.1,1190.9"/>
	<path id="Path_234" class="st1" d="M1149.5,1192c-1,0-1.9-0.4-2.5-1.1l-9-10.3c-1.2-1.4-1.1-3.5,0.3-4.7c0.7-0.6,1.6-0.9,2.5-0.8
		c2.5,0.3,5,0.8,7.3,1.2c1.3,0.3,2.6,0.5,4,0.7c0.3,0.1,0.7,0.1,1,0.2c0.3,0.1,0.6,0.1,0.9,0.2c2.1,0,3.7,1.8,3.6,3.8
		c0,0.8-0.3,1.7-0.9,2.3c-1.1,1.6-2.2,3.3-3.3,5l-1.3,2c-0.6,0.9-1.5,1.4-2.5,1.5C1149.7,1191.9,1149.6,1192,1149.5,1192"/>
	<path id="Path_235" class="st1" d="M1196.5,1082.9c-0.2,0-0.5,0-0.7-0.1c-1.8-0.4-2.9-2.1-2.5-3.9l1.9-8.9c0.4-1.8,2.1-2.9,3.9-2.5
		c1.8,0.4,2.9,2.1,2.5,3.9l0,0l-1.9,8.9C1199.4,1081.9,1198,1082.9,1196.5,1082.9"/>
	<path id="Path_236" class="st1" d="M1212.7,1092.9c-1.8,0-3.3-1.5-3.3-3.3c0-1,0.5-2,1.3-2.6l6.8-5.2c1.5-1.1,3.5-0.8,4.6,0.7
		c1.1,1.4,0.8,3.5-0.6,4.6l-6.8,5.2C1214.2,1092.7,1213.5,1092.9,1212.7,1092.9"/>
	<path id="Path_237" class="st1" d="M1225.6,1111.1c-0.1,0-0.2,0-0.4,0l-8.7-1c-1.8-0.2-3.1-1.8-2.9-3.7c0.2-1.8,1.8-3.1,3.7-2.9
		l8.8,1c1.8,0.2,3.1,1.8,2.9,3.7C1228.7,1109.8,1227.3,1111.1,1225.6,1111.1"/>
</g>
</svg>
