<?xml version="1.0" encoding="utf-8"?>
<!-- Generator: Adobe Illustrator 26.5.0, SVG Export Plug-In . SVG Version: 6.00 Build 0)  -->
<svg version="1.1" id="Layer_1" xmlns="http://www.w3.org/2000/svg" xmlns:xlink="http://www.w3.org/1999/xlink" x="0px" y="0px"
	 viewBox="0 0 200 200" style="enable-background:new 0 0 200 200;" xml:space="preserve">
<style type="text/css">
	.st0{fill:#003173;}
	.st1{fill:#E64B16;}
</style>
<g id="Group_92804" transform="translate(-482.937 -1032.506)">
	<path id="Path_213" class="st0" d="M664,1085.1h-36.8v-3.4c0-12.6,9.2-19.1,18.4-19.1s18.4,6.6,18.4,19.1L664,1085.1z
		 M634.4,1078.2h22.3c-1.4-6.2-7.6-10-13.8-8.5C638.7,1070.7,635.4,1074,634.4,1078.2"/>
	<path id="Path_214" class="st0" d="M535.3,1202.5c-0.2,0-0.3,0-0.5,0c-11.1-1.5-17.2-8.2-17.7-19.4c-0.1-1.9,1.4-3.5,3.3-3.6h78.4
		c1.9,0,3.4,1.5,3.4,3.4c0,8.4,6.2,12.2,12.3,12.2h0.2c0,0,0,0,0.1,0c6.1-0.1,12.2-3.9,12.2-12.2v-102.3c0-1.9,1.5-3.4,3.4-3.4
		c1.9,0,3.4,1.5,3.4,3.4c0,0,0,0,0,0V1183c0,12.5-9.7,19.1-19.3,19.1h-0.1L535.3,1202.5L535.3,1202.5z M524.4,1186.4
		c1.2,5.4,4.7,8.3,11.1,9.2l64.1-0.4c-2.1-2.5-3.4-5.6-3.9-8.9L524.4,1186.4z"/>
	<path id="Path_215" class="st0" d="M542.6,1186.2c-1.9,0-3.4-1.5-3.4-3.4V1163c0-1.9,1.5-3.4,3.4-3.4s3.4,1.5,3.4,3.4v19.8
		C546,1184.7,544.5,1186.2,542.6,1186.2"/>
	<path id="Path_216" class="st0" d="M542.7,1088.5c-1.9,0-3.4-1.5-3.4-3.3c-0.4-11.7,6.7-21.4,16.4-22.5l89.7,0
		c1.9,0,3.4,1.5,3.4,3.4c0,1.9-1.5,3.4-3.4,3.4H556c-6.6,0.8-10.1,8.5-9.9,15.5c0.1,1.9-1.4,3.5-3.3,3.5L542.7,1088.5"/>
	<path id="Path_217" class="st0" d="M616.7,1104.4h-31.1c-1.9,0-3.4-1.5-3.4-3.4c0-1.9,1.5-3.4,3.4-3.4h31.1c1.9,0,3.4,1.5,3.4,3.4
		C620.1,1102.9,618.6,1104.4,616.7,1104.4"/>
	<path id="Path_218" class="st0" d="M615.9,1159.8h-30.1c-1.9,0-3.4-1.5-3.4-3.4c0-1.9,1.5-3.4,3.4-3.4h30.1c1.9,0,3.4,1.5,3.4,3.4
		C619.4,1158.3,617.8,1159.8,615.9,1159.8L615.9,1159.8z"/>
	<path id="Path_219" class="st0" d="M610.1,1122.7h-17.5c-1.9,0-3.4-1.5-3.4-3.4c0-1.9,1.5-3.4,3.4-3.4h17.5c1.9,0,3.4,1.5,3.4,3.4
		C613.5,1121.1,612,1122.7,610.1,1122.7"/>
	<path id="Path_220" class="st0" d="M610.4,1141.6h-17.5c-1.9,0-3.4-1.5-3.4-3.4c0-1.9,1.5-3.4,3.4-3.4h17.5c1.9,0,3.4,1.5,3.4,3.4
		C613.8,1140,612.3,1141.6,610.4,1141.6"/>
	<path id="Path_221" class="st0" d="M542.3,1163.8c-22.3,0-40.4-18.1-40.4-40.4c0-22.3,18.1-40.4,40.4-40.4
		c22.3,0,40.4,18.1,40.4,40.4c0,0,0,0,0,0C582.8,1145.7,564.7,1163.8,542.3,1163.8 M542.3,1089.8c-18.5,0-33.5,15-33.6,33.5
		c0,18.5,15,33.5,33.5,33.6c18.5,0,33.5-15,33.6-33.5c0,0,0,0,0,0l0,0C575.9,1104.9,560.9,1089.9,542.3,1089.8L542.3,1089.8z"/>
	<path id="Path_222" class="st1" d="M547.2,1151.3c-1,0-1.9-0.4-2.6-1.1l-17.8-20c-1.4-1.6-1.3-4,0.3-5.4c0.8-0.7,1.8-1,2.8-1
		c5.5,0.4,9.8-1.2,11.7-4.4c1.4-2.4,1.4-5.4-0.1-7.8c-2.1-3.6-6.8-5.4-12.8-5.1c-1.9,0.1-3.5-1.3-3.6-3.2c-0.1-1.9,1.3-3.5,3.2-3.6
		h0c8.6-0.5,15.6,2.6,19.1,8.4c2.8,4.6,2.8,10.3,0,14.9c-2.4,3.9-6.4,6.4-11.5,7.3l13.7,15.3c1.3,1.4,1.1,3.6-0.3,4.8
		C548.8,1151,548,1151.3,547.2,1151.3L547.2,1151.3z"/>
	<path id="Path_223" class="st1" d="M558.7,1106.2h-30.1c-1.9,0-3.4-1.5-3.4-3.4c0-1.9,1.5-3.4,3.4-3.4l0,0h30.1
		c1.9,0,3.4,1.5,3.4,3.4C562.1,1104.7,560.6,1106.2,558.7,1106.2"/>
	<path id="Path_224" class="st1" d="M558,1119.3h-29.4c-1.9,0-3.4-1.5-3.4-3.4s1.5-3.4,3.4-3.4H558c1.9,0,3.4,1.5,3.4,3.4
		S559.9,1119.3,558,1119.3"/>
</g>
</svg>
