<?xml version="1.0" encoding="utf-8"?>
<!-- Generator: Adobe Illustrator 26.5.0, SVG Export Plug-In . SVG Version: 6.00 Build 0)  -->
<svg version="1.1" id="Layer_1" xmlns="http://www.w3.org/2000/svg" xmlns:xlink="http://www.w3.org/1999/xlink" x="0px" y="0px"
	 viewBox="0 0 200 200" style="enable-background:new 0 0 200 200;" xml:space="preserve">
<style type="text/css">
	.st0{fill:#003173;}
	.st1{fill:#E64B16;}
</style>
<g id="Group_92806" transform="translate(-196.609 -1039.392)">
	<path id="Path_239" class="st0" d="M344.5,1188.8c-1-2.5-0.5-5.4,1.4-7.3l0-0.1c0.3-0.3,0.7-0.7,1.1-0.9c0.2-0.1,0.5-0.3,0.7-0.4
		v-10.7h-11.1c-0.3,2.3-1.4,4.4-3.1,6.1c-2.1,2.1-4.9,3.3-7.9,3.3h-6.7v29.1h19.6c0.1-0.2,0.2-0.3,0.3-0.5c0.2-0.3,0.5-0.6,0.8-0.9
		c0.6-0.6,1.4-1.1,2.2-1.5c2.5-1,5.4-0.5,7.3,1.5c0.6,0.6,1.1,1.4,1.5,2.2c0.3,0.8,0.5,1.7,0.5,2.6c0,0.9-0.2,1.8-0.5,2.6
		c-0.7,1.6-2,3-3.6,3.6c-0.8,0.3-1.7,0.5-2.6,0.5c-0.9,0-1.7-0.2-2.5-0.5l-0.1,0c-0.8-0.3-1.6-0.8-2.2-1.5c-0.4-0.4-0.7-0.8-1-1.3
		c-0.2-0.3-0.3-0.5-0.4-0.8h-22.2c-1.7,0-3-1.4-3-3v-32.1h-14.6v26.4c0.2,0.1,0.4,0.2,0.7,0.4c0.4,0.3,0.8,0.5,1.1,0.9
		c0.6,0.6,1.1,1.4,1.5,2.2c0.3,0.8,0.5,1.7,0.5,2.6c0,0.9-0.2,1.7-0.5,2.5l0,0.1c-0.3,0.8-0.8,1.6-1.5,2.2c-0.6,0.6-1.4,1.1-2.2,1.5
		c-0.8,0.3-1.7,0.5-2.6,0.5c-0.9,0-1.8-0.2-2.6-0.5c-1.6-0.7-3-2-3.6-3.6c-0.3-0.8-0.5-1.7-0.5-2.6c0-0.9,0.2-1.7,0.5-2.5l0-0.1
		c0.3-0.8,0.8-1.6,1.5-2.2c0.3-0.3,0.7-0.6,1.1-0.9l0.1,0c0.2-0.1,0.4-0.2,0.6-0.4v-26.4h-19.4v13.7c0,1.7-1.3,3-3,3h-13.8
		c-0.1,0.2-0.2,0.4-0.4,0.6c-0.2,0.4-0.5,0.7-0.8,1l-0.1,0c-0.6,0.6-1.4,1.1-2.2,1.5c-0.8,0.3-1.7,0.5-2.6,0.5
		c-0.9,0-1.7-0.2-2.5-0.5l-0.1,0c-0.8-0.3-1.6-0.8-2.2-1.5c-0.6-0.6-1.1-1.4-1.5-2.2c-0.3-0.8-0.5-1.7-0.5-2.6
		c0-0.9,0.2-1.8,0.5-2.6c0.3-0.8,0.8-1.6,1.5-2.2c0.6-0.6,1.4-1.1,2.2-1.4c1.6-0.7,3.5-0.7,5.1,0c0.8,0.3,1.5,0.8,2.1,1.4l0.1,0
		c0.3,0.3,0.7,0.7,0.9,1.1c0.1,0.2,0.3,0.5,0.4,0.7h10.7v-11c-2.1-0.5-4-1.5-5.5-3c-2-2-3.2-4.7-3.2-7.6v-7.1h-31.9v19.6
		c0.2,0.1,0.3,0.2,0.5,0.3c0.3,0.2,0.6,0.5,0.9,0.8c0.6,0.6,1.1,1.4,1.5,2.2c1,2.5,0.5,5.4-1.5,7.3c-0.6,0.6-1.4,1.1-2.2,1.5
		c-0.8,0.3-1.7,0.5-2.6,0.5c-0.9,0-1.8-0.2-2.6-0.5c-1.6-0.7-3-2-3.6-3.6c-0.3-0.8-0.5-1.7-0.5-2.6c0-0.9,0.2-1.7,0.5-2.5l0-0.1
		c0.3-0.8,0.8-1.6,1.5-2.2c0.4-0.4,0.8-0.7,1.3-1c0.3-0.2,0.5-0.3,0.8-0.4v-22.2c0-1.7,1.4-3,3-3h34.9v-14.6h-29.2
		c-0.1,0.2-0.2,0.4-0.4,0.7c-0.3,0.4-0.5,0.8-0.9,1.1c-0.6,0.6-1.4,1.1-2.2,1.5c-0.8,0.3-1.7,0.5-2.6,0.5c-0.9,0-1.7-0.2-2.5-0.5
		l-0.1,0c-0.8-0.3-1.6-0.8-2.2-1.5c-0.6-0.6-1.1-1.4-1.5-2.2c-0.3-0.8-0.5-1.7-0.5-2.6c0-0.9,0.2-1.8,0.5-2.6
		c1.4-3.4,5.3-5.1,8.7-3.7l0.1,0c0.8,0.3,1.6,0.8,2.2,1.5c0.3,0.3,0.6,0.7,0.9,1.1l0,0.1c0.1,0.2,0.2,0.4,0.4,0.7h29.2v-18.1
		c0-0.4,0-0.9,0.1-1.3h-16.5c-1.7,0-3-1.3-3-3v-13.8c-0.2-0.1-0.4-0.2-0.6-0.4c-0.4-0.2-0.7-0.5-1-0.8l-0.1-0.1
		c-0.6-0.6-1.1-1.4-1.5-2.2c-0.3-0.8-0.5-1.7-0.5-2.6c0-0.9,0.2-1.7,0.5-2.5l0-0.1c0.3-0.8,0.8-1.6,1.5-2.2c0.6-0.6,1.4-1.1,2.2-1.5
		c0.8-0.3,1.7-0.5,2.6-0.5c0.9,0,1.8,0.2,2.6,0.5c0.8,0.3,1.6,0.8,2.2,1.5c0.6,0.6,1.1,1.4,1.4,2.2c1,2.5,0.5,5.4-1.4,7.3l0,0.1
		c-0.3,0.4-0.7,0.7-1.2,0.9c-0.2,0.1-0.5,0.3-0.7,0.4v10.7h16.3v0.1c0.1-0.1,0.2-0.2,0.3-0.3c2.1-2.1,4.9-3.3,7.9-3.3h6.3v-34.9
		h-19.5c-0.1,0.2-0.2,0.3-0.3,0.5c-0.2,0.3-0.5,0.6-0.8,0.9c-0.6,0.6-1.4,1.1-2.2,1.5c-2.5,1-5.4,0.5-7.3-1.5
		c-0.6-0.6-1.1-1.4-1.5-2.2c-0.3-0.8-0.5-1.7-0.5-2.6c0-0.9,0.2-1.8,0.5-2.6c0.7-1.6,2-3,3.6-3.6c0.8-0.3,1.7-0.5,2.6-0.5
		c0.9,0,1.7,0.2,2.5,0.5l0.1,0c0.8,0.3,1.6,0.8,2.2,1.5c0.4,0.4,0.7,0.8,1,1.3c0.2,0.3,0.3,0.5,0.4,0.8h22.2c1.7,0,3,1.4,3,3v37.9
		h14.6v-32.2c-0.2-0.1-0.4-0.2-0.7-0.4c-0.4-0.3-0.8-0.5-1.1-0.9c-0.6-0.6-1.1-1.4-1.5-2.2c-0.3-0.8-0.5-1.7-0.5-2.6
		c0-0.9,0.2-1.7,0.5-2.5l0-0.1c0.3-0.8,0.8-1.6,1.5-2.2c0.6-0.6,1.4-1.1,2.2-1.5c0.8-0.3,1.7-0.5,2.6-0.5c0.9,0,1.8,0.2,2.6,0.5
		c1.6,0.7,3,2,3.6,3.6c0.3,0.8,0.5,1.7,0.5,2.6c0,0.9-0.2,1.7-0.5,2.5l0,0.1c-0.3,0.8-0.8,1.6-1.5,2.2c-0.3,0.3-0.7,0.6-1.1,0.9
		l-0.1,0c-0.2,0.1-0.4,0.2-0.6,0.4v32.2h19.4v-19.5c0-1.7,1.3-3,3-3h13.8c0.1-0.2,0.2-0.4,0.4-0.6c0.2-0.4,0.5-0.7,0.8-1l0.1-0.1
		c0.6-0.6,1.4-1.1,2.2-1.5c0.8-0.3,1.7-0.5,2.6-0.5c0.9,0,1.7,0.2,2.5,0.5l0.1,0c0.8,0.3,1.6,0.8,2.2,1.5c0.6,0.6,1.1,1.4,1.5,2.2
		c0.3,0.8,0.5,1.7,0.5,2.6c0,0.9-0.2,1.8-0.5,2.6c-0.3,0.8-0.8,1.6-1.5,2.2c-0.6,0.6-1.4,1.1-2.2,1.4c-2.5,1-5.4,0.5-7.3-1.4l-0.1,0
		c-0.3-0.3-0.7-0.7-0.9-1.1c-0.1-0.2-0.3-0.5-0.4-0.7h-10.7v16.7c2.2,0.4,4.3,1.5,5.9,3.1c2,2,3.2,4.7,3.2,7.6v1.3h29.4V1098
		c-0.2-0.1-0.3-0.2-0.5-0.3c-1.1-0.7-1.9-1.8-2.4-3c-1-2.5-0.5-5.4,1.5-7.3c0.6-0.6,1.4-1.1,2.2-1.5c0.8-0.3,1.7-0.5,2.6-0.5
		c0.9,0,1.8,0.2,2.6,0.5c1.6,0.7,3,2,3.6,3.6c0.3,0.8,0.5,1.7,0.5,2.6c0,0.9-0.2,1.7-0.5,2.5l0,0.1c-0.3,0.8-0.8,1.6-1.5,2.2
		c-0.4,0.4-0.8,0.7-1.3,1c-0.3,0.2-0.5,0.3-0.8,0.4v22.2c0,1.7-1.4,3-3,3h-32.3v14.6h26.7c0.1-0.2,0.2-0.4,0.4-0.7
		c0.3-0.4,0.6-0.8,0.9-1.1c0.6-0.6,1.4-1.1,2.2-1.5c0.8-0.3,1.7-0.5,2.6-0.5c0.9,0,1.7,0.2,2.5,0.5l0.1,0c0.8,0.3,1.6,0.8,2.2,1.5
		c0.6,0.6,1.1,1.4,1.5,2.2c0.3,0.8,0.5,1.7,0.5,2.6c0,0.9-0.2,1.8-0.5,2.6c-0.7,1.6-2,3-3.6,3.6c-0.8,0.3-1.7,0.5-2.6,0.5
		c-0.9,0-1.7-0.2-2.5-0.5l-0.1,0c-0.8-0.3-1.6-0.8-2.2-1.5c-0.3-0.3-0.6-0.7-0.9-1.1l0-0.1c-0.1-0.2-0.2-0.4-0.4-0.7h-26.7v19.4
		h13.9c1.7,0,3,1.3,3,3v13.8c0.2,0.1,0.4,0.2,0.6,0.4c0.4,0.2,0.7,0.5,1,0.8l0.1,0.1c0.6,0.6,1.1,1.4,1.5,2.2
		c0.3,0.8,0.5,1.7,0.5,2.6c0,0.9-0.2,1.7-0.5,2.5l0,0.1c-0.3,0.8-0.8,1.6-1.5,2.2c-0.6,0.6-1.4,1.1-2.2,1.5
		c-0.8,0.3-1.7,0.5-2.6,0.5c-0.9,0-1.8-0.2-2.6-0.5c-0.8-0.3-1.6-0.8-2.2-1.5C345.3,1190.4,344.8,1189.6,344.5,1188.8 M286.1,1128.1
		h23.2c1.8,0,3.3,1.5,3.3,3.3v21.4c0,1.8-1.5,3.3-3.3,3.3h-23.2c-1.8,0-3.3-1.5-3.3-3.3v-21.4
		C282.8,1129.6,284.3,1128.1,286.1,1128.1 M325.8,1111.2h-56.2c-1.3,0-2.5,0.5-3.3,1.4c-1,1-1.5,2.3-1.5,3.6v51.8
		c0,1.4,0.5,2.7,1.5,3.6c0.9,0.9,2.1,1.4,3.3,1.4h56.2c1.3,0,2.5-0.5,3.3-1.4c1-1,1.5-2.3,1.5-3.6v-51.8c0-1.4-0.5-2.7-1.5-3.6
		C328.3,1111.7,327.1,1111.2,325.8,1111.2"/>
	<path id="Path_240" class="st1" d="M310.3,1157.5H286c-2.1,0-3.9-1.7-3.9-3.9c0,0,0,0,0,0v-22.8c0-2.1,1.7-3.9,3.9-3.9c0,0,0,0,0,0
		h24.3c2.1,0,3.9,1.7,3.9,3.9c0,0,0,0,0,0v22.8C314.2,1155.8,312.4,1157.5,310.3,1157.5C310.3,1157.5,310.3,1157.5,310.3,1157.5"/>
</g>
</svg>
