<?xml version="1.0" encoding="utf-8"?>
<!-- Generator: Adobe Illustrator 26.5.0, SVG Export Plug-In . SVG Version: 6.00 Build 0)  -->
<svg version="1.1" id="Layer_1" xmlns="http://www.w3.org/2000/svg" xmlns:xlink="http://www.w3.org/1999/xlink" x="0px" y="0px"
	 viewBox="0 0 300 264" style="enable-background:new 0 0 300 264;" xml:space="preserve">
<style type="text/css">
	.st0{fill:#003273;}
	.st1{clip-path:url(#SVGID_00000096051689793198090560000015030612569032222120_);}
	.st2{fill:#003173;}
	.st3{fill:#E64B16;}
	.st4{fill:#FFFFFF;}
	.st5{fill:#131E50;}
	.st6{fill:#DA4E29;}
</style>
<g id="Group_92772" transform="translate(6 15.001)">
	<path id="Path_322767" class="st0" d="M29.4,2h214.1v42.2H29.4V2z M27.3,46.2h218.1V0H27.3V46.2z"/>
	<rect id="Rectangle_33817" x="43" y="45.7" class="st0" width="2" height="8"/>
	<rect id="Rectangle_33818" x="230" y="44.6" class="st0" width="2" height="8.6"/>
	<path id="Path_322768" class="st0" d="M262.3,77.3H10.1V64.1l24.8-11.3h0.2l204.2-0.9l23,11.5L262.3,77.3z M12.1,75.3h248.2V64.7
		l-21.4-10.7L35.4,54.8L12.1,65.4V75.3z"/>
	<rect id="Rectangle_33819" x="10.5" y="63.9" class="st0" width="250.5" height="2"/>
	<path id="Path_322769" class="st0" d="M23,216.7V75.8h10.7v135.9L23,216.7z M25,77.8v135.8l6.7-3.2V77.8L25,77.8z"/>
	<path id="Path_322770" class="st0" d="M58.2,161.5H47.5V75.8h10.7V161.5z M49.5,159.5h6.7V77.8h-6.7L49.5,159.5z"/>
	<path id="Path_322771" class="st0" d="M66.1,217.7H55.4V169h10.7V217.7z M57.5,215.7h6.7V171h-6.7V215.7z"/>
	<path id="Path_322772" class="st0" d="M169.1,217.7h-10.7V169h10.7V217.7z M160.4,215.7h6.7V171h-6.7V215.7z"/>
	<path id="Path_322773" class="st0" d="M174.1,170.8H46.5v-10.7h127.6V170.8z M48.5,168.8h123.6v-6.7H48.5L48.5,168.8z"/>
	<path id="Path_322774" class="st0" d="M215.3,183h-2V75.8H224v103.7h-2V77.8h-6.7V183z"/>
	<path id="Path_322775" class="st0" d="M250.3,218.2h-2.8v-2h0.8V77.8h-6.7v109.8h-2V75.8h10.7V218.2z"/>
	<rect id="Rectangle_33820" x="57" y="107.8" class="st0" width="77.2" height="2"/>
	<rect id="Rectangle_33821" x="57" y="137.2" class="st0" width="67.6" height="2"/>
	<rect id="Rectangle_33822" x="162.2" y="137.2" class="st0" width="52.3" height="2"/>
	<rect id="Rectangle_33823" x="152.1" y="108.1" class="st0" width="62.4" height="2"/>
	<rect id="Rectangle_33824" x="172.5" y="160.3" class="st0" width="50.5" height="2"/>
	<rect id="Rectangle_33825" x="168" y="205" class="st0" width="35" height="2"/>
	<path id="Path_322776" class="st0" d="M5.5,223.4L0,234.5h288.3l-38-27.2l-1.2,1.6l32.9,23.5H3.3l3.8-7.6l50.4-25.2l-0.9-1.8
		L5.5,223.4z"/>
	<rect id="Rectangle_33826" x="6.4" y="223.3" class="st0" width="266.4" height="2"/>
	<rect id="Rectangle_33827" x="65.7" y="184.6" class="st0" width="94.4" height="2"/>
	<rect id="Rectangle_33828" x="65.7" y="198.6" class="st0" width="94.4" height="2"/>
	<rect id="Rectangle_33829" x="65.7" y="215.2" class="st0" width="94.4" height="2"/>
	<path id="Path_322777" class="st0" d="M78.5,93.1H67.7v-6h10.8V93.1z M69.8,91h6.8v-1.9h-6.8V91z"/>
	<path id="Path_322778" class="st0" d="M81.3,109.8H65V91h16.4V109.8z M67,107.8h12.3V93.1H67L67,107.8z"/>
	<path id="Path_322779" class="st0" d="M78.1,106h-9.9v-5.9h9.9V106z M70.2,104h5.9v-1.8h-5.9V104z"/>
	<g id="Group_92771" transform="translate(0 0)">
		<g>
			<defs>
				<rect id="SVGID_1_" y="0" width="288.3" height="234.5"/>
			</defs>
			<clipPath id="SVGID_00000046326362392835645800000007686237336132688051_">
				<use xlink:href="#SVGID_1_"  style="overflow:visible;"/>
			</clipPath>
			<g id="Group_92770" style="clip-path:url(#SVGID_00000046326362392835645800000007686237336132688051_);">
				<path id="Path_322780" class="st0" d="M71,146.7h-4.2c-1.5,0-2.7-1.2-2.7-2.7c0-1.5,1.2-2.7,2.7-2.7c0,0,0,0,0,0H71
					c1.5,0,2.7,1.2,2.7,2.7C73.7,145.5,72.5,146.7,71,146.7C71,146.7,71,146.7,71,146.7 M66.8,143.3c-0.4,0-0.7,0.3-0.7,0.7
					s0.3,0.7,0.7,0.7H71c0.4,0,0.7-0.3,0.7-0.7s-0.3-0.7-0.7-0.7l0,0H66.8z"/>
				<path id="Path_322781" class="st0" d="M71.2,161.2h-4.6c-2.7,0-4.9-2.2-4.9-4.9v-6.6c0-2.7,2.2-4.9,4.9-4.9h4.6
					c2.7,0,4.9,2.2,4.9,4.9v6.6C76.1,159,73.9,161.2,71.2,161.2 M66.6,146.7c-1.6,0-2.9,1.3-2.9,2.9v6.6c0,1.6,1.3,2.9,2.9,2.9h4.6
					c1.6,0,2.9-1.3,2.9-2.9v-6.6c0-1.6-1.3-2.9-2.9-2.9H66.6z"/>
				<path id="Path_322782" class="st0" d="M65.8,156.1c0,0.5-0.4,0.9-0.9,0.9c-0.5,0-0.9-0.4-0.9-0.9c0-0.5,0.4-0.9,0.9-0.9h0
					C65.4,155.1,65.8,155.6,65.8,156.1"/>
				<path id="Path_322783" class="st0" d="M66.6,158.1c0,0.5-0.4,0.9-0.9,0.9c-0.5,0-0.9-0.4-0.9-0.9c0-0.5,0.4-0.9,0.9-0.9h0
					C66.2,157.1,66.6,157.5,66.6,158.1"/>
				<path id="Path_322784" class="st0" d="M72.1,156.2c0,0.5-0.4,0.9-0.9,0.9c-0.5,0-0.9-0.4-0.9-0.9c0-0.5,0.4-0.9,0.9-0.9l0,0
					C71.7,155.2,72.1,155.7,72.1,156.2"/>
				<path id="Path_322785" class="st0" d="M73.9,156.8c0,0.5-0.4,0.9-0.9,0.9c-0.5,0-0.9-0.4-0.9-0.9c0-0.5,0.4-0.9,0.9-0.9h0
					C73.5,155.9,73.9,156.3,73.9,156.8"/>
				<path id="Path_322786" class="st0" d="M72.4,151.6c0,0.5-0.4,0.9-0.9,0.9c-0.5,0-0.9-0.4-0.9-0.9c0-0.5,0.4-0.9,0.9-0.9h0
					C72,150.7,72.4,151.1,72.4,151.6"/>
				<path id="Path_322787" class="st0" d="M74.2,152.3c0,0.5-0.4,0.9-0.9,0.9c-0.5,0-0.9-0.4-0.9-0.9c0-0.5,0.4-0.9,0.9-0.9
					C73.7,151.3,74.2,151.8,74.2,152.3"/>
				<path id="Path_322788" class="st0" d="M74.2,154.9c0,0.5-0.4,0.9-0.9,0.9c-0.5,0-0.9-0.4-0.9-0.9c0-0.5,0.4-0.9,0.9-0.9
					C73.7,153.9,74.2,154.3,74.2,154.9"/>
				<path id="Path_322789" class="st0" d="M68,156.3c0,0.5-0.4,0.9-0.9,0.9c-0.5,0-0.9-0.4-0.9-0.9c0-0.5,0.4-0.9,0.9-0.9h0
					C67.6,155.3,68,155.8,68,156.3"/>
				<path id="Path_322790" class="st0" d="M65.5,153.9c0,0.5-0.4,0.9-0.9,0.9c-0.5,0-0.9-0.4-0.9-0.9c0-0.5,0.4-0.9,0.9-0.9h0
					C65.1,153,65.5,153.4,65.5,153.9"/>
				<path id="Path_322791" class="st0" d="M67.6,154.2c0,0.5-0.4,0.9-0.9,0.9c-0.5,0-0.9-0.4-0.9-0.9c0-0.5,0.4-0.9,0.9-0.9h0
					C67.2,153.2,67.6,153.7,67.6,154.2"/>
				<path id="Path_322792" class="st0" d="M69.3,153.2c0,0.5-0.4,0.9-0.9,0.9c-0.5,0-0.9-0.4-0.9-0.9c0-0.5,0.4-0.9,0.9-0.9l0,0
					C68.9,152.3,69.3,152.7,69.3,153.2"/>
				<path id="Path_322793" class="st0" d="M70.5,151.6c0,0.5-0.4,0.9-0.9,0.9c-0.5,0-0.9-0.4-0.9-0.9c0-0.5,0.4-0.9,0.9-0.9l0,0
					C70.1,150.7,70.5,151.1,70.5,151.6"/>
				<path id="Path_322794" class="st0" d="M70.8,154.6c0,0.5-0.4,0.9-0.9,0.9c-0.5,0-0.9-0.4-0.9-0.9c0-0.5,0.4-0.9,0.9-0.9h0
					C70.4,153.6,70.8,154,70.8,154.6"/>
				<path id="Path_322795" class="st0" d="M68.6,158.3c0,0.5-0.4,0.9-0.9,0.9c-0.5,0-0.9-0.4-0.9-0.9c0-0.5,0.4-0.9,0.9-0.9
					C68.2,157.3,68.6,157.7,68.6,158.3"/>
				<path id="Path_322796" class="st0" d="M69.9,156.3c0,0.5-0.4,0.9-0.9,0.9c-0.5,0-0.9-0.4-0.9-0.9c0-0.5,0.4-0.9,0.9-0.9h0
					C69.5,155.4,69.9,155.8,69.9,156.3"/>
				<path id="Path_322797" class="st0" d="M72.5,153.6c0,0.5-0.4,0.9-0.9,0.9c-0.5,0-0.9-0.4-0.9-0.9c0-0.5,0.4-0.9,0.9-0.9l0,0
					C72.1,152.7,72.5,153.1,72.5,153.6"/>
				<path id="Path_322798" class="st0" d="M68.4,151.4c0,0.5-0.4,0.9-0.9,0.9c-0.5,0-0.9-0.4-0.9-0.9c0-0.5,0.4-0.9,0.9-0.9l0,0
					C68,150.5,68.4,150.9,68.4,151.4"/>
				<path id="Path_322799" class="st0" d="M66.1,151.6c0,0.5-0.4,0.9-0.9,0.9c-0.5,0-0.9-0.4-0.9-0.9c0-0.5,0.4-0.9,0.9-0.9h0
					C65.7,150.7,66.1,151.1,66.1,151.6"/>
				<path id="Path_322800" class="st0" d="M70.5,158.4c0,0.5-0.4,0.9-0.9,0.9c-0.5,0-0.9-0.4-0.9-0.9c0-0.5,0.4-0.9,0.9-0.9h0
					C70.1,157.4,70.5,157.8,70.5,158.4"/>
				<path id="Path_322801" class="st0" d="M72.7,158.4c0,0.5-0.4,0.9-0.9,0.9c-0.5,0-0.9-0.4-0.9-0.9c0-0.5,0.4-0.9,0.9-0.9h0
					C72.3,157.4,72.7,157.8,72.7,158.4"/>
				<path id="Path_322802" class="st0" d="M86.3,146.7h-4.2c-1.5,0-2.7-1.2-2.7-2.7c0-1.5,1.2-2.7,2.7-2.7c0,0,0,0,0,0h4.2
					c1.5,0,2.7,1.2,2.7,2.7C89,145.5,87.8,146.7,86.3,146.7C86.3,146.7,86.3,146.7,86.3,146.7 M82.1,143.3c-0.4,0-0.7,0.3-0.7,0.7
					s0.3,0.7,0.7,0.7h4.2c0.4,0,0.7-0.3,0.7-0.7s-0.3-0.7-0.7-0.7H82.1z"/>
				<path id="Path_322803" class="st0" d="M86.5,161.2h-4.6c-2.7,0-4.9-2.2-4.9-4.9v-6.6c0-2.7,2.2-4.9,4.9-4.9h4.6
					c2.7,0,4.9,2.2,4.9,4.9v6.6C91.4,159,89.2,161.2,86.5,161.2 M81.9,146.7c-1.6,0-2.9,1.3-2.9,2.9v6.6c0,1.6,1.3,2.9,2.9,2.9h4.6
					c1.6,0,2.9-1.3,2.9-2.9v-6.6c0-1.6-1.3-2.9-2.9-2.9H81.9z"/>
				<path id="Path_322804" class="st0" d="M81.1,156.1c0,0.5-0.4,0.9-0.9,0.9c-0.5,0-0.9-0.4-0.9-0.9c0-0.5,0.4-0.9,0.9-0.9h0
					C80.7,155.1,81.1,155.6,81.1,156.1"/>
				<path id="Path_322805" class="st0" d="M81.9,158.1c0,0.5-0.4,0.9-0.9,0.9c-0.5,0-0.9-0.4-0.9-0.9c0-0.5,0.4-0.9,0.9-0.9l0,0
					C81.5,157.1,81.9,157.5,81.9,158.1"/>
				<path id="Path_322806" class="st0" d="M87.4,156.2c0,0.5-0.4,0.9-0.9,0.9c-0.5,0-0.9-0.4-0.9-0.9c0-0.5,0.4-0.9,0.9-0.9l0,0
					C87,155.2,87.4,155.7,87.4,156.2"/>
				<path id="Path_322807" class="st0" d="M89.2,156.8c0,0.5-0.4,0.9-0.9,0.9c-0.5,0-0.9-0.4-0.9-0.9c0-0.5,0.4-0.9,0.9-0.9l0,0
					C88.8,155.9,89.2,156.3,89.2,156.8"/>
				<path id="Path_322808" class="st0" d="M87.7,151.6c0,0.5-0.4,0.9-0.9,0.9c-0.5,0-0.9-0.4-0.9-0.9c0-0.5,0.4-0.9,0.9-0.9l0,0
					C87.3,150.7,87.7,151.1,87.7,151.6"/>
				<path id="Path_322809" class="st0" d="M89.5,152.3c0,0.5-0.4,0.9-0.9,0.9c-0.5,0-0.9-0.4-0.9-0.9c0-0.5,0.4-0.9,0.9-0.9l0,0
					C89,151.3,89.5,151.8,89.5,152.3"/>
				<path id="Path_322810" class="st0" d="M89.5,154.9c0,0.5-0.4,0.9-0.9,0.9c-0.5,0-0.9-0.4-0.9-0.9c0-0.5,0.4-0.9,0.9-0.9l0,0
					C89,153.9,89.5,154.3,89.5,154.9"/>
				<path id="Path_322811" class="st0" d="M83.3,156.3c0,0.5-0.4,0.9-0.9,0.9c-0.5,0-0.9-0.4-0.9-0.9c0-0.5,0.4-0.9,0.9-0.9h0
					C82.9,155.3,83.3,155.8,83.3,156.3"/>
				<path id="Path_322812" class="st0" d="M80.8,153.9c0,0.5-0.4,0.9-0.9,0.9c-0.5,0-0.9-0.4-0.9-0.9c0-0.5,0.4-0.9,0.9-0.9h0
					C80.4,153,80.8,153.4,80.8,153.9"/>
				<path id="Path_322813" class="st0" d="M82.9,154.2c0,0.5-0.4,0.9-0.9,0.9c-0.5,0-0.9-0.4-0.9-0.9c0-0.5,0.4-0.9,0.9-0.9h0
					C82.5,153.2,82.9,153.7,82.9,154.2"/>
				<path id="Path_322814" class="st0" d="M84.6,153.2c0,0.5-0.4,0.9-0.9,0.9c-0.5,0-0.9-0.4-0.9-0.9c0-0.5,0.4-0.9,0.9-0.9h0
					C84.2,152.3,84.6,152.7,84.6,153.2"/>
				<path id="Path_322815" class="st0" d="M85.8,151.6c0,0.5-0.4,0.9-0.9,0.9c-0.5,0-0.9-0.4-0.9-0.9c0-0.5,0.4-0.9,0.9-0.9h0
					C85.4,150.7,85.8,151.1,85.8,151.6"/>
				<path id="Path_322816" class="st0" d="M86.1,154.6c0,0.5-0.4,0.9-0.9,0.9c-0.5,0-0.9-0.4-0.9-0.9c0-0.5,0.4-0.9,0.9-0.9h0
					C85.7,153.6,86.1,154,86.1,154.6"/>
				<path id="Path_322817" class="st0" d="M83.9,158.3c0,0.5-0.4,0.9-0.9,0.9c-0.5,0-0.9-0.4-0.9-0.9c0-0.5,0.4-0.9,0.9-0.9h0
					C83.5,157.3,83.9,157.7,83.9,158.3"/>
				<path id="Path_322818" class="st0" d="M85.2,156.3c0,0.5-0.4,0.9-0.9,0.9c-0.5,0-0.9-0.4-0.9-0.9c0-0.5,0.4-0.9,0.9-0.9h0
					C84.8,155.4,85.2,155.8,85.2,156.3"/>
				<path id="Path_322819" class="st0" d="M87.8,153.6c0,0.5-0.4,0.9-0.9,0.9c-0.5,0-0.9-0.4-0.9-0.9c0-0.5,0.4-0.9,0.9-0.9l0,0
					C87.4,152.7,87.8,153.1,87.8,153.6"/>
				<path id="Path_322820" class="st0" d="M83.7,151.4c0,0.5-0.4,0.9-0.9,0.9c-0.5,0-0.9-0.4-0.9-0.9c0-0.5,0.4-0.9,0.9-0.9h0
					C83.3,150.5,83.7,150.9,83.7,151.4"/>
				<path id="Path_322821" class="st0" d="M81.4,151.6c0,0.5-0.4,0.9-0.9,0.9c-0.5,0-0.9-0.4-0.9-0.9c0-0.5,0.4-0.9,0.9-0.9h0
					C81,150.7,81.4,151.1,81.4,151.6"/>
				<path id="Path_322822" class="st0" d="M85.8,158.4c0,0.5-0.4,0.9-0.9,0.9c-0.5,0-0.9-0.4-0.9-0.9c0-0.5,0.4-0.9,0.9-0.9
					c0,0,0,0,0,0C85.4,157.4,85.8,157.8,85.8,158.4"/>
				<path id="Path_322823" class="st0" d="M88,158.4c0,0.5-0.4,0.9-0.9,0.9c-0.5,0-0.9-0.4-0.9-0.9c0-0.5,0.4-0.9,0.9-0.9l0,0
					C87.6,157.4,88,157.8,88,158.4"/>
				<path id="Path_322824" class="st0" d="M101.5,146.7h-4.2c-1.5,0-2.7-1.2-2.7-2.7c0-1.5,1.2-2.7,2.7-2.7c0,0,0,0,0,0h4.2
					c1.5,0,2.7,1.2,2.7,2.7C104.2,145.5,103,146.7,101.5,146.7C101.5,146.7,101.5,146.7,101.5,146.7 M97.3,143.3
					c-0.4,0-0.7,0.3-0.7,0.7s0.3,0.7,0.7,0.7h4.2c0.4,0,0.7-0.3,0.7-0.7s-0.3-0.7-0.7-0.7H97.3z"/>
				<path id="Path_322825" class="st0" d="M101.7,161.2h-4.6c-2.7,0-4.9-2.2-4.9-4.9v-6.6c0-2.7,2.2-4.9,4.9-4.9h4.6
					c2.7,0,4.9,2.2,4.9,4.9v6.6C106.6,159,104.4,161.2,101.7,161.2 M97.1,146.7c-1.6,0-2.9,1.3-2.9,2.9v6.6c0,1.6,1.3,2.9,2.9,2.9
					h4.6c1.6,0,2.9-1.3,2.9-2.9v-6.6c0-1.6-1.3-2.9-2.9-2.9H97.1z"/>
				<path id="Path_322826" class="st0" d="M96.3,156.1c0,0.5-0.4,0.9-0.9,0.9c-0.5,0-0.9-0.4-0.9-0.9c0-0.5,0.4-0.9,0.9-0.9l0,0
					C95.9,155.1,96.3,155.6,96.3,156.1"/>
				<path id="Path_322827" class="st0" d="M97.1,158.1c0,0.5-0.4,0.9-0.9,0.9c-0.5,0-0.9-0.4-0.9-0.9c0-0.5,0.4-0.9,0.9-0.9
					C96.7,157.1,97.1,157.5,97.1,158.1C97.1,158.1,97.1,158.1,97.1,158.1"/>
				<path id="Path_322828" class="st0" d="M102.6,156.2c0,0.5-0.4,0.9-0.9,0.9c-0.5,0-0.9-0.4-0.9-0.9c0-0.5,0.4-0.9,0.9-0.9l0,0
					C102.2,155.2,102.6,155.7,102.6,156.2"/>
				<path id="Path_322829" class="st0" d="M104.4,156.8c0,0.5-0.4,0.9-0.9,0.9c-0.5,0-0.9-0.4-0.9-0.9c0-0.5,0.4-0.9,0.9-0.9l0,0
					C104,155.9,104.4,156.3,104.4,156.8"/>
				<path id="Path_322830" class="st0" d="M102.9,151.6c0,0.5-0.4,0.9-0.9,0.9c-0.5,0-0.9-0.4-0.9-0.9c0-0.5,0.4-0.9,0.9-0.9l0,0
					C102.5,150.7,102.9,151.1,102.9,151.6"/>
				<path id="Path_322831" class="st0" d="M104.7,152.3c0,0.5-0.4,0.9-0.9,0.9c-0.5,0-0.9-0.4-0.9-0.9c0-0.5,0.4-0.9,0.9-0.9l0,0
					C104.2,151.3,104.7,151.8,104.7,152.3"/>
				<path id="Path_322832" class="st0" d="M104.7,154.9c0,0.5-0.4,0.9-0.9,0.9c-0.5,0-0.9-0.4-0.9-0.9c0-0.5,0.4-0.9,0.9-0.9l0,0
					C104.2,153.9,104.7,154.3,104.7,154.9"/>
				<path id="Path_322833" class="st0" d="M98.5,156.3c0,0.5-0.4,0.9-0.9,0.9c-0.5,0-0.9-0.4-0.9-0.9c0-0.5,0.4-0.9,0.9-0.9l0,0
					C98.1,155.3,98.5,155.8,98.5,156.3"/>
				<path id="Path_322834" class="st0" d="M96,153.9c0,0.5-0.4,0.9-0.9,0.9c-0.5,0-0.9-0.4-0.9-0.9c0-0.5,0.4-0.9,0.9-0.9l0,0
					C95.6,153,96,153.4,96,153.9"/>
				<path id="Path_322835" class="st0" d="M98.1,154.2c0,0.5-0.4,0.9-0.9,0.9c-0.5,0-0.9-0.4-0.9-0.9c0-0.5,0.4-0.9,0.9-0.9l0,0
					C97.7,153.2,98.1,153.7,98.1,154.2"/>
				<path id="Path_322836" class="st0" d="M99.8,153.2c0,0.5-0.4,0.9-0.9,0.9c-0.5,0-0.9-0.4-0.9-0.9c0-0.5,0.4-0.9,0.9-0.9l0,0
					C99.4,152.3,99.8,152.7,99.8,153.2"/>
				<path id="Path_322837" class="st0" d="M101,151.6c0,0.5-0.4,0.9-0.9,0.9c-0.5,0-0.9-0.4-0.9-0.9c0-0.5,0.4-0.9,0.9-0.9l0,0
					C100.6,150.7,101,151.1,101,151.6"/>
				<path id="Path_322838" class="st0" d="M101.3,154.6c0,0.5-0.4,0.9-0.9,0.9c-0.5,0-0.9-0.4-0.9-0.9c0-0.5,0.4-0.9,0.9-0.9
					c0,0,0,0,0,0C100.9,153.6,101.3,154,101.3,154.6"/>
				<path id="Path_322839" class="st0" d="M99.1,158.3c0,0.5-0.4,0.9-0.9,0.9c-0.5,0-0.9-0.4-0.9-0.9c0-0.5,0.4-0.9,0.9-0.9l0,0
					C98.7,157.3,99.1,157.7,99.1,158.3"/>
				<path id="Path_322840" class="st0" d="M100.4,156.3c0,0.5-0.4,0.9-0.9,0.9c-0.5,0-0.9-0.4-0.9-0.9c0-0.5,0.4-0.9,0.9-0.9l0,0
					C100,155.4,100.4,155.8,100.4,156.3"/>
				<path id="Path_322841" class="st0" d="M103,153.6c0,0.5-0.4,0.9-0.9,0.9c-0.5,0-0.9-0.4-0.9-0.9c0-0.5,0.4-0.9,0.9-0.9l0,0
					C102.6,152.7,103,153.1,103,153.6"/>
				<path id="Path_322842" class="st0" d="M98.9,151.4c0,0.5-0.4,0.9-0.9,0.9c-0.5,0-0.9-0.4-0.9-0.9c0-0.5,0.4-0.9,0.9-0.9l0,0
					C98.5,150.5,98.9,150.9,98.9,151.4"/>
				<path id="Path_322843" class="st0" d="M96.6,151.6c0,0.5-0.4,0.9-0.9,0.9c-0.5,0-0.9-0.4-0.9-0.9c0-0.5,0.4-0.9,0.9-0.9l0,0
					C96.2,150.7,96.6,151.1,96.6,151.6"/>
				<path id="Path_322844" class="st0" d="M101,158.4c0,0.5-0.4,0.9-0.9,0.9c-0.5,0-0.9-0.4-0.9-0.9c0-0.5,0.4-0.9,0.9-0.9l0,0
					C100.6,157.4,101,157.8,101,158.4"/>
				<path id="Path_322845" class="st0" d="M103.2,158.4c0,0.5-0.4,0.9-0.9,0.9c-0.5,0-0.9-0.4-0.9-0.9c0-0.5,0.4-0.9,0.9-0.9l0,0
					C102.8,157.4,103.2,157.8,103.2,158.4"/>
				<path id="Path_322846" class="st0" d="M100.8,93.1H90v-6h10.8V93.1z M92,91h6.8v-1.9H92V91z"/>
				<path id="Path_322847" class="st0" d="M103.6,109.8H87.3V91h16.4V109.8z M89.3,107.8h12.3V93.1H89.3V107.8z"/>
				<path id="Path_322848" class="st0" d="M100.4,106h-9.9v-5.9h9.9V106z M92.5,104h5.9v-1.8h-5.9V104z"/>
				<path id="Path_322849" class="st0" d="M120.7,93.1h-10.8v-6h10.8V93.1z M111.9,91h6.8v-1.9h-6.8V91z"/>
				<path id="Path_322850" class="st0" d="M123.5,109.8h-16.4V91h16.4V109.8z M109.1,107.8h12.3V93.1h-12.3V107.8z"/>
				<path id="Path_322851" class="st0" d="M120.3,106h-9.9v-5.9h9.9V106z M112.4,104h5.9v-1.8h-5.9L112.4,104z"/>
				<path id="Path_322852" class="st0" d="M185.7,93.1h-10.8v-6h10.8V93.1z M176.9,91h6.8v-1.9h-6.8L176.9,91z"/>
				<path id="Path_322853" class="st0" d="M188.5,109.8h-16.4V91h16.4V109.8z M174.1,107.8h12.3V93.1h-12.3V107.8z"/>
				<path id="Path_322854" class="st0" d="M185.3,106h-9.9v-5.9h9.9V106z M177.4,104h5.9v-1.8h-5.9L177.4,104z"/>
				<path id="Path_322855" class="st0" d="M203.7,93.1h-10.8v-6h10.8V93.1z M194.9,91h6.8v-1.9h-6.8V91z"/>
				<path id="Path_322856" class="st0" d="M206.5,109.8h-16.4V91h16.4V109.8z M192.2,107.8h12.3V93.1h-12.3L192.2,107.8z"/>
				<path id="Path_322857" class="st0" d="M203.3,106h-9.9v-5.9h9.9V106z M195.4,104h5.9v-1.8h-5.9V104z"/>
				<path id="Path_322858" class="st0" d="M78.7,122.7h-10c-1.9,0-3.4-1.6-3.4-3.5c0-1.9,1.5-3.4,3.4-3.4h10c1.9,0,3.5,1.5,3.5,3.4
					c0,1.9-1.5,3.5-3.4,3.5C78.8,122.7,78.7,122.7,78.7,122.7 M68.7,117.8c-0.8,0-1.5,0.6-1.5,1.4c0,0.8,0.6,1.5,1.4,1.5
					c0,0,0.1,0,0.1,0h10c0.8,0,1.5-0.6,1.5-1.4c0-0.8-0.6-1.5-1.4-1.5c0,0-0.1,0-0.1,0H68.7z"/>
				<path id="Path_322859" class="st0" d="M78.7,127.7h-10c-1.9,0-3.5-1.5-3.5-3.5c0-1.9,1.5-3.5,3.5-3.5h10c1.9,0,3.5,1.5,3.5,3.5
					C82.2,126.1,80.6,127.7,78.7,127.7 M68.7,122.8c-0.8,0-1.4,0.6-1.4,1.4c0,0.8,0.6,1.4,1.4,1.4h10c0.8,0,1.4-0.6,1.4-1.4
					c0-0.8-0.6-1.4-1.4-1.4c0,0,0,0,0,0H68.7z"/>
				<path id="Path_322860" class="st0" d="M78.7,132.9h-10c-1.9,0-3.5-1.5-3.5-3.4c0-1.9,1.5-3.5,3.4-3.5c0,0,0.1,0,0.1,0h10
					c1.9,0,3.5,1.5,3.5,3.4c0,1.9-1.5,3.5-3.4,3.5C78.8,133,78.7,133,78.7,132.9 M68.7,128.1c-0.8,0-1.4,0.7-1.4,1.5
					c0,0.8,0.6,1.4,1.4,1.4h10c0.8,0,1.5-0.6,1.5-1.4c0-0.8-0.6-1.5-1.4-1.5c0,0-0.1,0-0.1,0H68.7z"/>
				<path id="Path_322861" class="st0" d="M78.7,137.9h-10c-1.9,0-3.5-1.5-3.5-3.5c0-1.9,1.5-3.5,3.5-3.5h10c1.9,0,3.5,1.5,3.5,3.5
					C82.2,136.3,80.6,137.9,78.7,137.9 M68.7,133c-0.8,0-1.4,0.6-1.4,1.4c0,0.8,0.6,1.4,1.4,1.4h10c0.8,0,1.4-0.6,1.4-1.4
					c0-0.8-0.6-1.4-1.4-1.4c0,0,0,0,0,0H68.7z"/>
				<path id="Path_322862" class="st0" d="M97.4,122.7h-10c-1.9,0-3.4-1.6-3.4-3.5c0-1.9,1.5-3.4,3.4-3.4h10c1.9,0,3.5,1.5,3.5,3.4
					c0,1.9-1.5,3.5-3.4,3.5C97.5,122.7,97.4,122.7,97.4,122.7 M87.4,117.8c-0.8,0-1.4,0.7-1.4,1.5c0,0.8,0.6,1.4,1.4,1.4h10
					c0.8,0,1.5-0.6,1.5-1.4c0-0.8-0.6-1.5-1.4-1.5c0,0-0.1,0-0.1,0H87.4z"/>
				<path id="Path_322863" class="st0" d="M97.4,127.7h-10c-1.9,0-3.5-1.5-3.5-3.5c0-1.9,1.5-3.5,3.5-3.5h10c1.9,0,3.5,1.5,3.5,3.5
					C100.8,126.1,99.3,127.7,97.4,127.7 M87.4,122.8c-0.8,0-1.4,0.6-1.4,1.4c0,0.8,0.6,1.4,1.4,1.4h10c0.8,0,1.4-0.6,1.4-1.4
					c0-0.8-0.6-1.4-1.4-1.4c0,0,0,0,0,0H87.4z"/>
				<path id="Path_322864" class="st0" d="M97.4,132.9h-10c-1.9,0-3.4-1.6-3.4-3.5c0-1.9,1.5-3.4,3.4-3.4h10c1.9,0,3.5,1.5,3.5,3.4
					c0,1.9-1.5,3.5-3.4,3.5C97.5,133,97.4,133,97.4,132.9 M87.4,128.1c-0.8,0-1.4,0.7-1.4,1.5c0,0.8,0.6,1.4,1.4,1.4h10
					c0.8,0,1.5-0.6,1.5-1.4c0-0.8-0.6-1.5-1.4-1.5c0,0-0.1,0-0.1,0H87.4z"/>
				<path id="Path_322865" class="st0" d="M97.4,137.9h-10c-1.9,0-3.5-1.5-3.5-3.5c0-1.9,1.5-3.5,3.5-3.5h10c1.9,0,3.5,1.5,3.5,3.5
					C100.8,136.3,99.3,137.9,97.4,137.9 M87.4,133c-0.8,0-1.4,0.6-1.4,1.4c0,0.8,0.6,1.4,1.4,1.4h10c0.8,0,1.4-0.6,1.4-1.4
					c0-0.8-0.6-1.4-1.4-1.4c0,0,0,0,0,0H87.4z"/>
				<path id="Path_322866" class="st0" d="M112.3,176.5h-11.2c-2.1,0-3.7-0.9-3.7-2s1.7-2,3.7-2h11.2c2.1,0,3.7,0.9,3.7,2
					S114.3,176.5,112.3,176.5 M101.1,173.6c-1,0-1.7,0.4-1.7,0.9s0.8,0.9,1.7,0.9h11.2c1,0,1.7-0.4,1.7-0.9s-0.8-0.9-1.7-0.9H101.1z
					"/>
				<path id="Path_322867" class="st0" d="M112.3,179.4h-11.2c-2.1,0-3.7-0.9-3.7-2s1.7-2,3.7-2h11.2c2.1,0,3.7,0.9,3.7,2
					S114.3,179.4,112.3,179.4 M101.1,176.5c-1,0-1.7,0.4-1.7,0.9s0.8,0.9,1.7,0.9h11.2c1,0,1.7-0.4,1.7-0.9s-0.8-0.9-1.7-0.9H101.1z
					"/>
				<path id="Path_322868" class="st0" d="M112.3,182.6h-11.2c-2.1,0-3.7-0.9-3.7-2s1.7-2,3.7-2h11.2c2.1,0,3.7,0.9,3.7,2
					S114.3,182.6,112.3,182.6 M101.1,179.6c-1,0-1.7,0.4-1.7,0.9s0.8,0.9,1.7,0.9h11.2c1,0,1.7-0.4,1.7-0.9s-0.8-0.9-1.7-0.9H101.1z
					"/>
				<path id="Path_322869" class="st0" d="M112.3,185.5h-11.2c-2.1,0-3.7-0.9-3.7-2s1.7-2,3.7-2h11.2c2.1,0,3.7,0.9,3.7,2
					S114.3,185.5,112.3,185.5 M101.1,182.6c-1,0-1.7,0.4-1.7,0.9s0.8,0.9,1.7,0.9h11.2c1,0,1.7-0.4,1.7-0.9s-0.8-0.9-1.7-0.9H101.1z
					"/>
				<path id="Path_322870" class="st0" d="M127.2,176.5h-6.4c-1.1,0.1-2.1-0.7-2.2-1.8s0.7-2.1,1.8-2.2c0.1,0,0.2,0,0.3,0h6.4
					c1.1-0.1,2.1,0.7,2.2,1.8s-0.7,2.1-1.8,2.2C127.5,176.5,127.3,176.5,127.2,176.5 M120.8,173.6c-0.5,0-1,0.3-1,0.9
					c0,0.5,0.3,1,0.9,1c0,0,0.1,0,0.1,0h6.4c0.5,0,1-0.3,1-0.9c0-0.5-0.3-1-0.9-1c0,0-0.1,0-0.1,0H120.8z"/>
				<path id="Path_322871" class="st0" d="M127.2,179.4h-6.4c-1.1,0.1-2.1-0.7-2.2-1.8s0.7-2.1,1.8-2.2c0.1,0,0.2,0,0.3,0h6.4
					c1.1-0.1,2.1,0.7,2.2,1.8s-0.7,2.1-1.8,2.2C127.5,179.4,127.3,179.4,127.2,179.4 M120.8,176.5c-0.5,0-1,0.3-1,0.9
					c0,0.5,0.3,1,0.9,1c0,0,0.1,0,0.1,0h6.4c0.5,0,1-0.3,1-0.9c0-0.5-0.3-1-0.9-1c0,0-0.1,0-0.1,0H120.8z"/>
				<path id="Path_322872" class="st0" d="M127.2,182.6h-6.4c-1.1,0.1-2.1-0.7-2.2-1.8s0.7-2.1,1.8-2.2c0.1,0,0.2,0,0.3,0h6.4
					c1.1-0.1,2.1,0.7,2.2,1.8s-0.7,2.1-1.8,2.2C127.5,182.6,127.3,182.6,127.2,182.6 M120.8,179.6c-0.5,0-1,0.3-1,0.9
					c0,0.5,0.3,1,0.9,1c0,0,0.1,0,0.1,0h6.4c0.5,0,1-0.3,1-0.9c0-0.5-0.3-1-0.9-1c0,0-0.1,0-0.1,0H120.8z"/>
				<path id="Path_322873" class="st0" d="M127.2,185.5h-6.4c-1.1,0.1-2.1-0.7-2.2-1.8s0.7-2.1,1.8-2.2c0.1,0,0.2,0,0.3,0h6.4
					c1.1-0.1,2.1,0.7,2.2,1.8s-0.7,2.1-1.8,2.2C127.5,185.5,127.3,185.5,127.2,185.5 M120.8,182.6c-0.5,0-1,0.3-1,0.8
					c0,0.5,0.3,1,0.8,1c0.1,0,0.1,0,0.2,0h6.4c0.5,0,1-0.3,1-0.8s-0.3-1-0.8-1c-0.1,0-0.1,0-0.2,0H120.8z"/>
				<path id="Path_322874" class="st0" d="M135.1,192.8h-6.4c-1.1,0.1-2.1-0.7-2.2-1.8s0.7-2.1,1.8-2.2c0.1,0,0.2,0,0.3,0h6.4
					c1.1-0.1,2.1,0.7,2.2,1.8s-0.7,2.1-1.8,2.2C135.4,192.9,135.2,192.9,135.1,192.8 M128.7,189.9c-0.5,0-1,0.3-1,0.9
					c0,0.5,0.3,1,0.9,1c0,0,0.1,0,0.1,0h6.4c0.5,0,1-0.3,1-0.9c0-0.5-0.3-1-0.9-1c0,0-0.1,0-0.1,0H128.7z"/>
				<path id="Path_322875" class="st0" d="M135.1,196h-6.4c-1.1,0.1-2.1-0.7-2.2-1.8s0.7-2.1,1.8-2.2c0.1,0,0.2,0,0.3,0h6.4
					c1.1-0.1,2.1,0.7,2.2,1.8s-0.7,2.1-1.8,2.2C135.4,196,135.2,196,135.1,196 M128.7,193.1c-0.5,0-1,0.3-1,0.9c0,0.5,0.3,1,0.9,1
					c0,0,0.1,0,0.1,0h6.4c0.5,0,1-0.3,1-0.9c0-0.5-0.3-1-0.9-1c0,0-0.1,0-0.1,0H128.7z"/>
				<path id="Path_322876" class="st0" d="M135.1,198.9h-6.4c-1.1,0.1-2.1-0.7-2.2-1.8s0.7-2.1,1.8-2.2c0.1,0,0.2,0,0.3,0h6.4
					c1.1-0.1,2.1,0.7,2.2,1.8s-0.7,2.1-1.8,2.2C135.4,198.9,135.2,198.9,135.1,198.9 M128.7,196c-0.5,0-1,0.3-1,0.9
					c0,0.5,0.3,1,0.9,1c0,0,0.1,0,0.1,0h6.4c0.5,0,1-0.3,1-0.9c0-0.5-0.3-1-0.9-1c0,0-0.1,0-0.1,0H128.7z"/>
				<path id="Path_322877" class="st0" d="M147.4,192.8H141c-1.1,0.1-2.1-0.7-2.2-1.8s0.7-2.1,1.8-2.2c0.1,0,0.2,0,0.3,0h6.4
					c1.1-0.1,2.1,0.7,2.2,1.8s-0.7,2.1-1.8,2.2C147.7,192.9,147.5,192.9,147.4,192.8 M141,189.9c-0.5,0-1,0.3-1,0.9
					c0,0.5,0.3,1,0.9,1c0,0,0.1,0,0.1,0h6.4c0.5,0,1-0.3,1-0.9c0-0.5-0.3-1-0.9-1c0,0-0.1,0-0.1,0H141z"/>
				<path id="Path_322878" class="st0" d="M147.4,196H141c-1.1,0.1-2.1-0.7-2.2-1.8s0.7-2.1,1.8-2.2c0.1,0,0.2,0,0.3,0h6.4
					c1.1-0.1,2.1,0.7,2.2,1.8s-0.7,2.1-1.8,2.2C147.7,196,147.5,196,147.4,196 M141,193.1c-0.5,0-1,0.3-1,0.9c0,0.5,0.3,1,0.9,1
					c0,0,0.1,0,0.1,0h6.4c0.5,0,1-0.3,1-0.9c0-0.5-0.3-1-0.9-1c0,0-0.1,0-0.1,0H141z"/>
				<path id="Path_322879" class="st0" d="M147.4,198.9H141c-1.1,0.1-2.1-0.7-2.2-1.8s0.7-2.1,1.8-2.2c0.1,0,0.2,0,0.3,0h6.4
					c1.1-0.1,2.1,0.7,2.2,1.8s-0.7,2.1-1.8,2.2C147.7,198.9,147.5,198.9,147.4,198.9 M141,196c-0.5,0-1,0.3-1,0.9c0,0.5,0.3,1,0.9,1
					c0,0,0.1,0,0.1,0h6.4c0.5,0,1-0.3,1-0.9c0-0.5-0.3-1-0.9-1c0,0-0.1,0-0.1,0H141z"/>
				<path id="Path_322880" class="st0" d="M116.7,127.7h-10c-1.9,0-3.5-1.5-3.5-3.5c0-1.9,1.5-3.5,3.5-3.5h10c1.9,0,3.5,1.5,3.5,3.5
					C120.1,126.1,118.6,127.7,116.7,127.7 M106.7,122.8c-0.8,0-1.4,0.6-1.4,1.4c0,0.8,0.6,1.4,1.4,1.4c0,0,0,0,0,0h10
					c0.8,0,1.4-0.6,1.4-1.4c0-0.8-0.6-1.4-1.4-1.4c0,0,0,0,0,0H106.7z"/>
				<path id="Path_322881" class="st0" d="M116.7,132.9h-10c-1.9,0-3.5-1.5-3.5-3.4c0-1.9,1.5-3.5,3.4-3.5c0,0,0.1,0,0.1,0h10
					c1.9,0,3.5,1.5,3.5,3.4c0,1.9-1.5,3.5-3.4,3.5C116.8,133,116.7,133,116.7,132.9 M106.7,128.1c-0.8,0-1.5,0.6-1.5,1.4
					c0,0.8,0.6,1.5,1.4,1.5c0,0,0.1,0,0.1,0h10c0.8,0,1.5-0.6,1.5-1.4c0-0.8-0.6-1.5-1.4-1.5c0,0-0.1,0-0.1,0H106.7z"/>
				<path id="Path_322882" class="st0" d="M116.7,137.9h-10c-1.9,0-3.5-1.5-3.5-3.5c0-1.9,1.5-3.5,3.5-3.5h10c1.9,0,3.5,1.5,3.5,3.5
					C120.1,136.3,118.6,137.9,116.7,137.9 M106.7,133c-0.8,0-1.4,0.6-1.4,1.4c0,0.8,0.6,1.4,1.4,1.4c0,0,0,0,0,0h10
					c0.8,0,1.4-0.6,1.4-1.4c0-0.8-0.6-1.4-1.4-1.4c0,0,0,0,0,0H106.7z"/>
				<path id="Path_322883" class="st2" d="M143.8,124.6h-0.3c-3.1,0-5.8-4.5-7.1-7.5c-1.5-0.5-2.7-1.7-3.1-3.3
					c-0.3-1.1-0.1-2.3,0.6-3.2c-0.9-2.2-0.9-4.7,0.1-6.8c0.6-1.2,1.6-2.1,2.9-2.6c0.3-1.4,1.2-2.7,2.5-3.3c3.8-1.7,8.2-1.2,11.4,1.4
					c1.7,1.4,4.3,4.8,2.5,11.3c0.6,0.9,0.8,2.1,0.5,3.2c-0.3,1.1-1.1,2-2.1,2.6C150.6,120.6,146.8,124.6,143.8,124.6 M143.5,122.4
					h0.1c1.7,0.2,5.3-3.2,6-7c0.1-0.4,0.4-0.8,0.8-0.9c0.6-0.2,1.1-0.7,1.2-1.3c0.2-0.6,0-1.2-0.4-1.6c-0.3-0.3-0.4-0.7-0.3-1.1
					c1.3-4.2,0.7-7.5-1.7-9.5c-2.6-2-6-2.4-9-1.2c-0.8,0.3-1.4,1.1-1.4,2.1c0,0.5-0.3,1-0.8,1.1c-1,0.2-1.8,0.9-2.2,1.7
					c-0.7,1.9-0.6,4,0.3,5.8c0.2,0.4,0,1-0.3,1.2c-0.5,0.3-0.7,1-0.5,1.5c0.2,0.9,1,1.6,1.9,1.8c0.4,0,0.7,0.3,0.9,0.7
					C139.6,119.4,142,122.4,143.5,122.4L143.5,122.4z"/>
				<path id="Path_322884" class="st2" d="M135.1,111.8c-0.6,0-1.1-0.5-1.1-1c0-0.3,0.1-0.6,0.4-0.8c0.3-0.3,0.7-0.5,1-0.8
					c1.4-0.8,2.4-2.2,2.7-3.8c0.1-0.2,0.2-0.4,0.4-0.6c2.9-1.8,6.5-2,9.6-0.4c2.6,1.1,4.4,3.5,4.8,6.2c0.1,0.6-0.4,1.1-1,1.2
					c-0.6,0.1-1.1-0.4-1.2-1l0,0c-0.3-2-1.7-3.7-3.6-4.5c-2.2-1.2-4.9-1.2-7.1,0c-0.5,1.9-1.7,3.5-3.4,4.6c-0.3,0.2-0.6,0.4-0.9,0.7
					C135.6,111.8,135.4,111.8,135.1,111.8L135.1,111.8z"/>
				<path id="Path_322885" class="st2" d="M129.4,154.7c-0.1,0-0.3,0-0.4-0.1c-1.5-0.6-3.1-0.6-4.6,0c-0.3,0.1-0.7,0-1-0.2
					c-0.3-0.2-0.4-0.5-0.4-0.9l1-16.5c0.2-3.4,0.8-6.8,3.6-8.8l12.1-7.5c0.5-0.3,1.2-0.1,1.5,0.4c0.3,0.5,0.1,1.1-0.3,1.4l-12,7.5
					c-1.9,1.4-2.5,3.9-2.7,7.1l-0.9,15c1.5-0.3,3.2-0.2,4.6,0.4c0.5,0.2,0.8,0.9,0.5,1.4C130.2,154.4,129.8,154.6,129.4,154.7
					L129.4,154.7z"/>
				<path id="Path_322886" class="st2" d="M125,161.7c-0.6,0-1.1-0.5-1.1-1.1V154c0-0.6,0.5-1.1,1.1-1.1s1.1,0.5,1.1,1.1
					c0,0,0,0,0,0v6.6C126,161.2,125.6,161.7,125,161.7z"/>
				<path id="Path_322887" class="st2" d="M157.5,155.2c-0.3,0-0.7-0.2-0.9-0.4c-0.3-0.5-0.2-1.1,0.2-1.4c1.7-1,3.8-1.3,5.7-0.9
					l-0.9-15c-0.1-3.3-0.7-5.8-2.7-7.3l-11.9-7.4c-0.5-0.3-0.6-0.9-0.3-1.4c0.3-0.5,0.9-0.6,1.4-0.3l12,7.5c2.9,2.1,3.5,5.5,3.7,8.9
					l1,16.5c0,0.4-0.1,0.7-0.4,0.9c-0.3,0.2-0.6,0.3-1,0.2c-1.7-0.6-3.6-0.6-5.3,0.2C157.9,155.1,157.7,155.2,157.5,155.2
					L157.5,155.2z"/>
				<path id="Path_322888" class="st2" d="M162.8,161.8c-0.6,0-1.1-0.5-1.1-1.1v-6.7c0-0.6,0.5-1.1,1.1-1.1s1.1,0.5,1.1,1.1
					c0,0,0,0,0,0v6.6C163.9,161.3,163.5,161.8,162.8,161.8L162.8,161.8L162.8,161.8z"/>
				<path id="Path_322889" class="st2" d="M157.5,161.8c-0.6,0-1.1-0.5-1.1-1v-6.6c0-0.6,0.4-1.1,1-1.2s1.1,0.4,1.2,1c0,0,0,0,0,0.1
					c0,0,0,0.1,0,0.1v6.5C158.5,161.3,158.1,161.8,157.5,161.8"/>
				<path id="Path_322890" class="st3" d="M129.4,158.5v-5.2l0.5-25.2l6.1-3.6l1.4,30.8C134.3,154.6,131.1,155.9,129.4,158.5"/>
				<path id="Path_322891" class="st2" d="M129.4,159.6c-0.1,0-0.2,0-0.3,0c-0.4-0.1-0.7-0.6-0.7-1v-5.2l0.5-25.3
					c0-0.4,0.2-0.7,0.5-0.9l6.1-3.6c0.3-0.2,0.7-0.2,1.1,0c0.3,0.2,0.5,0.5,0.6,0.9l1.5,30.8c0,0.6-0.4,1.1-1,1.1
					c-0.1,0-0.2,0-0.2,0c-2.7-0.6-5.5,0.5-7,2.9C130,159.4,129.7,159.6,129.4,159.6 M130.9,128.7l-0.4,27.2c1.6-1.3,3.7-1.9,5.8-1.8
					l-1.4-27.8L130.9,128.7z"/>
				<path id="Path_322892" class="st3" d="M136.2,130.2c1-1.2,2.4-1.8,4-1.8"/>
				<path id="Path_322893" class="st2" d="M136.2,131.3c-0.6,0-1.1-0.5-1.1-1.1c0-0.3,0.1-0.6,0.4-0.8c1.2-1.3,2.9-2.1,4.7-2.1
					c0.6,0,1,0.5,1,1.1l0,0v0c-0.1,0.6-0.5,1-1.1,1c-1.3-0.1-1.9,0.4-3.2,1.5C136.8,131.2,136.5,131.3,136.2,131.3"/>
				<path id="Path_322894" class="st2" d="M143.4,132.1c-0.2,0-0.5-0.1-0.7-0.2c-2.9-2.1-4.5-5.6-4.1-9.2c0-0.6,0.5-1.1,1.1-1
					c0.6,0,1,0.5,1,1.1c0,0,0,0,0,0l0,0v0c-0.3,2.6,0.7,5.2,2.7,6.9c2.5-2.1,3.4-4.2,2.7-6.6c-0.1-0.4,0-0.8,0.3-1.1
					c0.3-0.3,0.7-0.4,1.1-0.3l3.4,1c0.4,0.1,0.7,0.4,0.7,0.8l1.4,6.9c0.1,0.5-0.1,1-0.6,1.2c-0.4,0.2-1,0.1-1.3-0.2
					c-1-1.3-2.6-2-4.3-1.9c-0.1,0-0.2,0-0.4,0c-0.7,0.9-1.6,1.7-2.5,2.4C143.8,132,143.6,132.1,143.4,132.1L143.4,132.1z
					 M147.8,127.4c0.8,0.1,1.7,0.3,2.4,0.7l-0.7-3.5l-1.1-0.3C148.5,125.3,148.3,126.4,147.8,127.4L147.8,127.4z"/>
				<path id="Path_322895" class="st2" d="M143.4,159.6c-0.6,0-1.1-0.5-1.1-1c0,0,0,0,0,0v0c0-3.5,0-6.8,0.1-10
					c0.1-6.1,0.2-11.8-0.1-17.4c0.1-0.6,0.6-1,1.2-0.9c0.5,0.1,0.8,0.4,0.9,0.8c0.3,5.7,0.2,11.4,0.1,17.6c0,3.2-0.1,6.5-0.1,10
					C144.4,159.1,143.9,159.6,143.4,159.6"/>
				<path id="Path_322896" class="st2" d="M135.1,111.8c-0.6,0-1.1-0.5-1.1-1c0-0.3,0.1-0.6,0.4-0.8c0.4-0.4,0.9-0.7,1.4-0.9
					c1.3-0.8,2.2-1.4,2.3-3.3c0-0.6,0.5-1.1,1.1-1.1c0.6,0,1.1,0.5,1.1,1.1c0,0,0,0,0,0.1c0,2.2-1.4,4.2-3.4,5.1
					c-0.4,0.2-0.8,0.5-1.1,0.8C135.6,111.8,135.4,111.8,135.1,111.8L135.1,111.8z"/>
				<path id="Path_322897" class="st2" d="M227.9,219.8c-4.8,0-9.5-0.6-14.2-1.7c-0.3-0.1-0.5-0.3-0.5-0.5
					c-2.3-8.2-2.4-15.4-0.3-21.9c0.1-0.3,0.4-0.5,0.7-0.5h30.3c0.3,0,0.6,0.2,0.7,0.5c1.7,6,1.7,12.3,0.1,18.3
					c0.7,0.8,1.5,1.9,1.1,2.9c-0.4,1-1.8,1.2-2.9,1.2C237.9,219.2,232.9,219.8,227.9,219.8 M214.5,216.8c9.3,2.1,18.9,2.1,28.1-0.1
					c0.1,0,0.1,0,0.2,0c1.4,0,1.6-0.3,1.6-0.3s0.1-0.4-1.1-1.6c-0.2-0.2-0.2-0.4-0.2-0.7c1.6-5.7,1.6-11.7,0.2-17.4h-29.2
					C212.3,202.6,212.4,209.2,214.5,216.8L214.5,216.8z"/>
				<path id="Path_322898" class="st2" d="M244.5,196.7h-31.6c-1.1,0-1.9-0.9-1.9-2c0-1,0.9-1.9,1.9-1.9h31.6c1.1,0,1.9,0.9,1.9,2
					C246.4,195.8,245.6,196.7,244.5,196.7L244.5,196.7z M212.9,194.2c-0.3,0-0.5,0.2-0.5,0.5c0,0.2,0.2,0.4,0.5,0.5h31.6
					c0.3,0,0.5-0.2,0.5-0.5c0-0.2-0.2-0.4-0.5-0.5H212.9z"/>
				<path id="Path_322899" class="st2" d="M244.5,194.2h-31.6c-1.1,0-2-0.9-2-2s0.9-2,2-2h31.6c1.1,0,2,0.9,2,2
					S245.6,194.2,244.5,194.2L244.5,194.2z M212.9,191.8c-0.3,0-0.5,0.2-0.5,0.5s0.2,0.5,0.5,0.5h31.6c0.3,0,0.5-0.2,0.5-0.5
					s-0.2-0.5-0.5-0.5H212.9z"/>
				<path id="Path_322900" class="st2" d="M240.4,191.8c-0.2,0-0.5-0.1-0.6-0.3c-4.2-6.2-7.6-9.1-11-9.2c-3.5-0.1-7.4,2.8-12.2,9.2
					c-0.2,0.3-0.7,0.4-1,0.1c-0.3-0.2-0.4-0.7-0.1-1l0,0c5.3-6.9,9.4-9.8,13.4-9.8c3.9,0.1,7.7,3.1,12.2,9.8c0.2,0.3,0.1,0.8-0.2,1
					C240.7,191.8,240.5,191.8,240.4,191.8L240.4,191.8z"/>
				<path id="Path_322901" class="st3" d="M225.5,185.6c0.3,0,0.6,0.3,0.6,0.6c0,0.3-0.3,0.6-0.6,0.6c-0.3,0-0.6-0.3-0.6-0.6l0,0
					C224.9,185.8,225.2,185.6,225.5,185.6"/>
				<path id="Path_322902" class="st3" d="M223.1,188c0.3,0,0.6,0.3,0.6,0.6c0,0.3-0.3,0.6-0.6,0.6c-0.3,0-0.6-0.3-0.6-0.6l0,0
					C222.5,188.2,222.8,188,223.1,188"/>
				<path id="Path_322903" class="st3" d="M228.6,185c0.3,0,0.6,0.3,0.6,0.6c0,0.3-0.3,0.6-0.6,0.6c-0.3,0-0.6-0.3-0.6-0.6l0,0
					C228,185.3,228.3,185,228.6,185"/>
				<path id="Path_322904" class="st3" d="M227.4,183.1c0.3,0,0.6,0.3,0.6,0.6c0,0.3-0.3,0.6-0.6,0.6c-0.3,0-0.6-0.3-0.6-0.6l0,0
					C226.8,183.4,227.1,183.1,227.4,183.1"/>
				<path id="Path_322905" class="st3" d="M230.5,183.8c0.3,0,0.6,0.3,0.6,0.6c0,0.3-0.3,0.6-0.6,0.6c-0.3,0-0.6-0.3-0.6-0.6l0,0
					C229.8,184,230.1,183.8,230.5,183.8"/>
				<path id="Path_322906" class="st3" d="M231.7,186.2c0.3,0,0.6,0.3,0.6,0.6c0,0.3-0.3,0.6-0.6,0.6c-0.3,0-0.6-0.3-0.6-0.6l0,0
					C231.1,186.5,231.3,186.2,231.7,186.2"/>
				<path id="Path_322907" class="st3" d="M229.8,188c0.3,0,0.6,0.3,0.6,0.6c0,0.3-0.3,0.6-0.6,0.6c-0.3,0-0.6-0.3-0.6-0.6l0,0
					C229.2,188.2,229.5,188,229.8,188"/>
				<path id="Path_322908" class="st3" d="M234.1,188c0.3,0,0.6,0.3,0.6,0.6c0,0.3-0.3,0.6-0.6,0.6c-0.3,0-0.6-0.3-0.6-0.6l0,0
					C233.5,188.3,233.8,188,234.1,188"/>
				<path id="Path_322909" class="st3" d="M226.8,188c0.3,0,0.6,0.3,0.6,0.6c0,0.3-0.3,0.6-0.6,0.6c-0.3,0-0.6-0.3-0.6-0.6l0,0
					C226.2,188.3,226.5,188,226.8,188"/>
				<path id="Path_322910" class="st2" d="M231.3,215.2h-5.6c-4.7,0-8.5-3.9-8.5-8.7c0-4.7,3.8-8.4,8.5-8.5h5.7
					c4.7,0.1,8.5,3.9,8.5,8.7C239.8,211.4,236,215.2,231.3,215.2 M225.7,199.6c-3.9,0-7.1,3.2-7.1,7.1s3.2,7.1,7.1,7.1h5.6
					c3.9,0,7.1-3.2,7.1-7.1s-3.2-7.1-7.1-7.1H225.7z"/>
				<path id="Path_322911" class="st2" d="M205.5,215.3L205.5,215.3c-2.3-7.1-2.4-13.3-0.4-18.9h8.9c0.1-0.5,0.2-0.9,0.3-1.4h-10.6
					c-0.3,0-0.5-0.1-0.5-0.4c0-0.3,0.1-0.5,0.4-0.5c0.1,0,0.1,0,0.2,0h10.8c0.1-0.5,0.3-0.9,0.5-1.4h-11.3c-0.3,0-0.5-0.1-0.5-0.4
					s0.1-0.5,0.4-0.5c0.1,0,0.1,0,0.2,0h11.7c0.2-0.5,0.4-0.9,0.7-1.4h-7.3c5-5.2,9.1-7.6,12.7-7.5c0.4,0,0.7,0,1.1,0.1
					c0.6-0.4,1.1-0.8,1.7-1.1c-0.9-0.3-1.8-0.4-2.7-0.4c-4.5-0.1-9.1,2.6-14.9,8.9h-3c-1.1-0.1-2.1,0.7-2.2,1.8
					c0.6,0.6,0.7,1.6,0.1,2.2c0,0,0,0-0.1,0.1c0.1,1,0.9,1.7,1.8,1.8c-2.1,5.8-1.9,12.3,0.6,19.7c0.1,0.3,0.3,0.4,0.6,0.5
					c3.7,0.8,7.4,1.3,11.2,1.5c-0.1-0.5-0.3-0.9-0.4-1.4C212.1,216.4,208.8,216,205.5,215.3"/>
				<path id="Path_322912" class="st3" d="M215.6,186c-0.3,0-0.6,0.3-0.6,0.6c0,0.3,0.3,0.6,0.6,0.6c0,0,0,0,0,0
					c0.1,0,0.2,0,0.3-0.1c0.1-0.1,0.1-0.2,0.2-0.3c0,0,0-0.1,0-0.1C216.2,186.3,215.9,186,215.6,186C215.6,186,215.6,186,215.6,186"
					/>
				<path id="Path_322913" class="st3" d="M213.2,188.3c-0.3,0-0.6,0.3-0.6,0.6c0,0.3,0.3,0.6,0.6,0.6c0.3,0,0.6-0.3,0.6-0.6
					C213.8,188.6,213.5,188.3,213.2,188.3C213.2,188.3,213.2,188.3,213.2,188.3"/>
				<path id="Path_322914" class="st3" d="M217.3,183.8c-0.3,0-0.6,0.3-0.6,0.6c0,0.3,0.3,0.6,0.6,0.6c0.3,0,0.6-0.3,0.6-0.6
					C217.9,184,217.7,183.8,217.3,183.8C217.3,183.8,217.3,183.8,217.3,183.8"/>
				<path id="Path_322915" class="st2" d="M207.5,205.9c0,3.3,2.1,6.3,5.2,7.5c-0.1-0.6-0.2-1.1-0.3-1.7c-3.2-1.7-4.4-5.7-2.7-8.9
					c0.5-0.9,1.2-1.7,2.1-2.3c0-0.6,0.1-1.2,0.1-1.7C209.2,200.1,207.5,202.8,207.5,205.9"/>
				<path id="Path_322916" class="st4" d="M242.4,92.5h-7.8c-0.9,0-1.7-0.8-1.7-1.7V78.4c0-0.9,0.8-1.7,1.7-1.7l0,0h7.8
					c0.9,0,1.7,0.8,1.7,1.7c0,0,0,0,0,0v12.3C244.1,91.7,243.4,92.5,242.4,92.5C242.4,92.5,242.4,92.5,242.4,92.5"/>
				<path id="Path_322917" class="st0" d="M242.4,93.1h-7.8c-1.3,0-2.4-1.1-2.4-2.4V78.4c0-1.3,1.1-2.4,2.4-2.4h7.8
					c1.3,0,2.4,1.1,2.4,2.4v12.3C244.8,92.1,243.7,93.1,242.4,93.1 M234.6,77.4c-0.6,0-1,0.5-1,1v12.3c0,0.6,0.5,1,1,1h7.8
					c0.6,0,1-0.5,1-1V78.4c0-0.6-0.5-1-1-1L234.6,77.4z"/>
				<path id="Path_322918" class="st0" d="M238.5,87.4c-1.6-0.1-2.8-1.4-2.7-2.9c0.1-1.6,1.4-2.8,2.9-2.7c1.5,0.1,2.7,1.3,2.7,2.8
					C241.4,86.2,240.1,87.4,238.5,87.4 M238.5,83.1c-0.8,0.1-1.4,0.8-1.4,1.6c0.1,0.8,0.8,1.4,1.6,1.4c0.8-0.1,1.4-0.7,1.4-1.5
					C240,83.7,239.3,83.1,238.5,83.1"/>
				<path id="Path_322919" class="st0" d="M241.5,80.4h-5.9c-0.4,0-0.7-0.3-0.7-0.7s0.3-0.7,0.7-0.7h5.9c0.4,0,0.7,0.3,0.7,0.7
					S241.8,80.4,241.5,80.4"/>
				<path id="Path_322920" class="st0" d="M241.5,90.5h-5.9c-0.4,0-0.7-0.3-0.7-0.7s0.3-0.7,0.7-0.7h5.9c0.4,0,0.7,0.3,0.7,0.7
					S241.8,90.5,241.5,90.5"/>
				<path id="Path_322921" class="st4" d="M242.4,108.5h-7.8c-0.9,0-1.7-0.8-1.7-1.7V94.5c0-0.9,0.8-1.7,1.7-1.7l0,0h7.8
					c0.9,0,1.7,0.8,1.7,1.7c0,0,0,0,0,0v12.3C244.1,107.7,243.4,108.5,242.4,108.5C242.4,108.5,242.4,108.5,242.4,108.5"/>
				<path id="Path_322922" class="st0" d="M242.4,109.1h-7.8c-1.3,0-2.4-1.1-2.4-2.4V94.5c0-1.3,1.1-2.4,2.4-2.4h7.8
					c1.3,0,2.4,1.1,2.4,2.4v12.3C244.8,108.1,243.7,109.1,242.4,109.1 M234.6,93.4c-0.6,0-1,0.5-1,1v12.3c0,0.6,0.5,1,1,1h7.8
					c0.6,0,1-0.5,1-1V94.5c0-0.6-0.5-1-1-1L234.6,93.4z"/>
				<path id="Path_322923" class="st0" d="M238.5,103.4c-1.6-0.1-2.8-1.4-2.7-2.9c0.1-1.6,1.4-2.8,2.9-2.7c1.5,0.1,2.7,1.3,2.7,2.8
					C241.4,102.2,240.1,103.5,238.5,103.4 M238.5,99.1c-0.8,0.1-1.4,0.8-1.4,1.6c0.1,0.8,0.8,1.4,1.6,1.4c0.8-0.1,1.4-0.7,1.4-1.5
					C240,99.8,239.3,99.1,238.5,99.1"/>
				<path id="Path_322924" class="st0" d="M241.5,96.4h-5.9c-0.4,0-0.7-0.3-0.7-0.7s0.3-0.7,0.7-0.7h5.9c0.4,0,0.7,0.3,0.7,0.7
					S241.8,96.4,241.5,96.4"/>
				<path id="Path_322925" class="st0" d="M241.5,106.5h-5.9c-0.4,0-0.7-0.3-0.7-0.7s0.3-0.7,0.7-0.7h5.9c0.4,0,0.7,0.3,0.7,0.7
					S241.8,106.5,241.5,106.5"/>
				<path id="Path_322926" class="st4" d="M242.4,124.1h-7.8c-0.9,0-1.7-0.8-1.7-1.7v-12.3c0-0.9,0.8-1.7,1.7-1.7l0,0h7.8
					c0.9,0,1.7,0.8,1.7,1.7c0,0,0,0,0,0v12.3C244.1,123.3,243.4,124.1,242.4,124.1C242.4,124.1,242.4,124.1,242.4,124.1"/>
				<path id="Path_322927" class="st0" d="M242.4,124.7h-7.8c-1.3,0-2.4-1.1-2.4-2.4v-12.3c0-1.3,1.1-2.4,2.4-2.4h7.8
					c1.3,0,2.4,1.1,2.4,2.4v12.3C244.8,123.7,243.7,124.7,242.4,124.7 M234.6,109c-0.6,0-1,0.5-1,1v12.3c0,0.6,0.5,1,1,1h7.8
					c0.6,0,1-0.5,1-1v-12.3c0-0.6-0.5-1-1-1L234.6,109z"/>
				<path id="Path_322928" class="st0" d="M238.5,119c-1.6-0.1-2.8-1.4-2.7-2.9c0.1-1.6,1.4-2.8,2.9-2.7c1.5,0.1,2.7,1.3,2.7,2.8
					C241.4,117.8,240.1,119,238.5,119 M238.5,114.7c-0.8,0.1-1.4,0.8-1.4,1.6c0.1,0.8,0.8,1.4,1.6,1.4c0.8-0.1,1.4-0.7,1.4-1.5
					C240,115.4,239.3,114.7,238.5,114.7"/>
				<path id="Path_322929" class="st0" d="M241.5,112h-5.9c-0.4,0-0.7-0.3-0.7-0.7s0.3-0.7,0.7-0.7h5.9c0.4,0,0.7,0.3,0.7,0.7
					S241.8,112,241.5,112"/>
				<path id="Path_322930" class="st0" d="M241.5,122.1h-5.9c-0.4,0-0.7-0.3-0.7-0.7s0.3-0.7,0.7-0.7h5.9c0.4,0,0.7,0.3,0.7,0.7
					S241.8,122.1,241.5,122.1"/>
				<path id="Path_322931" class="st4" d="M242.4,140.1h-7.8c-0.9,0-1.7-0.8-1.7-1.7v-12.3c0-0.9,0.8-1.7,1.7-1.7l0,0h7.8
					c0.9,0,1.7,0.8,1.7,1.7c0,0,0,0,0,0v12.3C244.1,139.3,243.4,140.1,242.4,140.1C242.4,140.1,242.4,140.1,242.4,140.1"/>
				<path id="Path_322932" class="st0" d="M242.4,140.8h-7.8c-1.3,0-2.4-1.1-2.4-2.4v-12.3c0-1.3,1.1-2.4,2.4-2.4h7.8
					c1.3,0,2.4,1.1,2.4,2.4v12.3C244.8,139.7,243.7,140.8,242.4,140.8 M234.6,125c-0.6,0-1,0.5-1,1v12.3c0,0.6,0.5,1,1,1h7.8
					c0.6,0,1-0.5,1-1v-12.3c0-0.6-0.5-1-1-1L234.6,125z"/>
				<path id="Path_322933" class="st0" d="M238.5,135c-1.6-0.1-2.8-1.4-2.7-2.9c0.1-1.6,1.4-2.8,2.9-2.7c1.5,0.1,2.7,1.3,2.7,2.8
					C241.4,133.8,240.1,135.1,238.5,135 M238.5,130.8c-0.8,0.1-1.4,0.8-1.4,1.6c0.1,0.8,0.8,1.4,1.6,1.4c0.8-0.1,1.4-0.7,1.4-1.5
					C240,131.4,239.3,130.7,238.5,130.8"/>
				<path id="Path_322934" class="st0" d="M241.5,128h-5.9c-0.4,0-0.7-0.3-0.7-0.7s0.3-0.7,0.7-0.7h5.9c0.4,0,0.7,0.3,0.7,0.7
					S241.8,128,241.5,128"/>
				<path id="Path_322935" class="st0" d="M241.5,138.1h-5.9c-0.4,0-0.7-0.3-0.7-0.7s0.3-0.7,0.7-0.7h5.9c0.4,0,0.7,0.3,0.7,0.7
					S241.8,138.1,241.5,138.1"/>
				<path id="Path_322936" class="st4" d="M242.4,155.7h-7.8c-0.9,0-1.7-0.8-1.7-1.7v-12.3c0-0.9,0.8-1.7,1.7-1.7l0,0h7.8
					c0.9,0,1.7,0.8,1.7,1.7c0,0,0,0,0,0V154C244.1,154.9,243.4,155.7,242.4,155.7C242.4,155.7,242.4,155.7,242.4,155.7"/>
				<path id="Path_322937" class="st0" d="M242.4,156.4h-7.8c-1.3,0-2.4-1.1-2.4-2.4v-12.3c0-1.3,1.1-2.4,2.4-2.4h7.8
					c1.3,0,2.4,1.1,2.4,2.4V154C244.8,155.3,243.7,156.4,242.4,156.4 M234.6,140.6c-0.6,0-1,0.5-1,1V154c0,0.6,0.5,1,1,1h7.8
					c0.6,0,1-0.5,1-1v-12.3c0-0.6-0.5-1-1-1H234.6z"/>
				<path id="Path_322938" class="st0" d="M238.5,150.6c-1.6-0.1-2.8-1.4-2.7-2.9c0.1-1.6,1.4-2.8,2.9-2.7c1.5,0.1,2.7,1.3,2.7,2.8
					C241.4,149.4,240.1,150.7,238.5,150.6 M238.5,146.3c-0.8,0.1-1.4,0.8-1.4,1.6c0.1,0.8,0.8,1.4,1.6,1.4c0.8-0.1,1.4-0.7,1.4-1.5
					C240,147,239.3,146.3,238.5,146.3"/>
				<path id="Path_322939" class="st0" d="M241.5,143.6h-5.9c-0.4,0-0.7-0.3-0.7-0.7s0.3-0.7,0.7-0.7h5.9c0.4,0,0.7,0.3,0.7,0.7
					S241.8,143.6,241.5,143.6"/>
				<path id="Path_322940" class="st0" d="M241.5,153.7h-5.9c-0.4,0-0.7-0.3-0.7-0.7s0.3-0.7,0.7-0.7h5.9c0.4,0,0.7,0.3,0.7,0.7
					S241.8,153.7,241.5,153.7"/>
				<path id="Path_322941" class="st4" d="M242.4,171.7h-7.8c-0.9,0-1.7-0.8-1.7-1.7v-12.3c0-0.9,0.8-1.7,1.7-1.7l0,0h7.8
					c0.9,0,1.7,0.8,1.7,1.7c0,0,0,0,0,0V170C244.1,170.9,243.4,171.7,242.4,171.7C242.4,171.7,242.4,171.7,242.4,171.7"/>
				<path id="Path_322942" class="st0" d="M242.4,172.4h-7.8c-1.3,0-2.4-1.1-2.4-2.4v-12.3c0-1.3,1.1-2.4,2.4-2.4h7.8
					c1.3,0,2.4,1.1,2.4,2.4V170C244.8,171.3,243.7,172.4,242.4,172.4 M234.6,156.7c-0.6,0-1,0.5-1,1V170c0,0.6,0.5,1,1,1h7.8
					c0.6,0,1-0.5,1-1v-12.3c0-0.6-0.5-1-1-1L234.6,156.7z"/>
				<path id="Path_322943" class="st0" d="M238.5,166.7c-1.6-0.1-2.8-1.4-2.7-2.9c0.1-1.6,1.4-2.8,2.9-2.7c1.5,0.1,2.7,1.3,2.7,2.8
					C241.4,165.4,240.1,166.7,238.5,166.7 M238.5,162.4c-0.8,0.1-1.4,0.8-1.4,1.6c0.1,0.8,0.8,1.4,1.6,1.4c0.8-0.1,1.4-0.7,1.4-1.5
					C240,163,239.3,162.3,238.5,162.4"/>
				<path id="Path_322944" class="st0" d="M241.5,159.6h-5.9c-0.4,0-0.7-0.3-0.7-0.7s0.3-0.7,0.7-0.7h5.9c0.4,0,0.7,0.3,0.7,0.7
					S241.8,159.6,241.5,159.6"/>
				<path id="Path_322945" class="st0" d="M241.5,169.7h-5.9c-0.4,0-0.7-0.3-0.7-0.7s0.3-0.7,0.7-0.7h5.9c0.4,0,0.7,0.3,0.7,0.7
					S241.8,169.7,241.5,169.7"/>
				<path id="Path_322946" class="st4" d="M229.2,92.5h-7.8c-0.9,0-1.7-0.8-1.7-1.7V78.4c0-0.9,0.8-1.7,1.7-1.7l0,0h7.8
					c0.9,0,1.7,0.8,1.7,1.7c0,0,0,0,0,0v12.3C230.9,91.7,230.1,92.5,229.2,92.5"/>
				<path id="Path_322947" class="st0" d="M229.2,93.1h-7.8c-1.3,0-2.4-1.1-2.4-2.4V78.4c0-1.3,1.1-2.4,2.4-2.4h7.8
					c1.3,0,2.4,1.1,2.4,2.4v12.3C231.6,92.1,230.5,93.1,229.2,93.1 M221.3,77.4c-0.6,0-1,0.5-1,1v12.3c0,0.6,0.5,1,1,1h7.8
					c0.6,0,1-0.5,1-1V78.4c0-0.6-0.5-1-1-1L221.3,77.4z"/>
				<path id="Path_322948" class="st0" d="M225.3,87.4c-1.6-0.1-2.8-1.4-2.7-2.9s1.4-2.8,2.9-2.7c1.5,0.1,2.7,1.3,2.7,2.8
					C228.2,86.2,226.9,87.4,225.3,87.4 M225.3,83.1c-0.8,0.1-1.4,0.8-1.4,1.6c0.1,0.8,0.8,1.4,1.6,1.4c0.8-0.1,1.4-0.7,1.4-1.5
					C226.8,83.7,226.1,83.1,225.3,83.1"/>
				<path id="Path_322949" class="st0" d="M228.2,80.4h-5.9c-0.4,0-0.7-0.3-0.7-0.7s0.3-0.7,0.7-0.7h5.9c0.4,0,0.7,0.3,0.7,0.7
					S228.6,80.4,228.2,80.4"/>
				<path id="Path_322950" class="st0" d="M228.2,90.5h-5.9c-0.4,0-0.7-0.3-0.7-0.7s0.3-0.7,0.7-0.7h5.9c0.4,0,0.7,0.3,0.7,0.7
					S228.6,90.5,228.2,90.5"/>
				<path id="Path_322951" class="st4" d="M229.2,108.5h-7.8c-0.9,0-1.7-0.8-1.7-1.7V94.5c0-0.9,0.8-1.7,1.7-1.7l0,0h7.8
					c0.9,0,1.7,0.8,1.7,1.7c0,0,0,0,0,0v12.3C230.9,107.7,230.1,108.5,229.2,108.5"/>
				<path id="Path_322952" class="st0" d="M229.2,109.1h-7.8c-1.3,0-2.4-1.1-2.4-2.4V94.5c0-1.3,1.1-2.4,2.4-2.4h7.8
					c1.3,0,2.4,1.1,2.4,2.4v12.3C231.6,108.1,230.5,109.1,229.2,109.1 M221.3,93.4c-0.6,0-1,0.5-1,1v12.3c0,0.6,0.5,1,1,1h7.8
					c0.6,0,1-0.5,1-1V94.5c0-0.6-0.5-1-1-1L221.3,93.4z"/>
				<path id="Path_322953" class="st0" d="M225.3,103.4c-1.6-0.1-2.8-1.4-2.7-2.9s1.4-2.8,2.9-2.7c1.5,0.1,2.7,1.3,2.7,2.8
					C228.2,102.2,226.9,103.5,225.3,103.4 M225.3,99.1c-0.8,0.1-1.4,0.8-1.4,1.6c0.1,0.8,0.8,1.4,1.6,1.4c0.8-0.1,1.4-0.7,1.4-1.5
					C226.8,99.8,226.1,99.1,225.3,99.1"/>
				<path id="Path_322954" class="st0" d="M228.2,96.4h-5.9c-0.4,0-0.7-0.3-0.7-0.7s0.3-0.7,0.7-0.7h5.9c0.4,0,0.7,0.3,0.7,0.7
					S228.6,96.4,228.2,96.4"/>
				<path id="Path_322955" class="st0" d="M228.2,106.5h-5.9c-0.4,0-0.7-0.3-0.7-0.7s0.3-0.7,0.7-0.7h5.9c0.4,0,0.7,0.3,0.7,0.7
					S228.6,106.5,228.2,106.5"/>
				<path id="Path_322956" class="st4" d="M229.2,124.1h-7.8c-0.9,0-1.7-0.8-1.7-1.7v-12.3c0-0.9,0.8-1.7,1.7-1.7l0,0h7.8
					c0.9,0,1.7,0.8,1.7,1.7c0,0,0,0,0,0v12.3C230.9,123.3,230.1,124.1,229.2,124.1"/>
				<path id="Path_322957" class="st0" d="M229.2,124.7h-7.8c-1.3,0-2.4-1.1-2.4-2.4v-12.3c0-1.3,1.1-2.4,2.4-2.4h7.8
					c1.3,0,2.4,1.1,2.4,2.4v12.3C231.6,123.7,230.5,124.7,229.2,124.7 M221.3,109c-0.6,0-1,0.5-1,1v12.3c0,0.6,0.5,1,1,1h7.8
					c0.6,0,1-0.5,1-1v-12.3c0-0.6-0.5-1-1-1L221.3,109z"/>
				<path id="Path_322958" class="st0" d="M225.3,119c-1.6-0.1-2.8-1.4-2.7-2.9s1.4-2.8,2.9-2.7c1.5,0.1,2.7,1.3,2.7,2.8
					C228.2,117.8,226.9,119,225.3,119 M225.3,114.7c-0.8,0.1-1.4,0.8-1.4,1.6c0.1,0.8,0.8,1.4,1.6,1.4c0.8-0.1,1.4-0.7,1.4-1.5
					C226.8,115.4,226.1,114.7,225.3,114.7"/>
				<path id="Path_322959" class="st0" d="M228.2,112h-5.9c-0.4,0-0.7-0.3-0.7-0.7s0.3-0.7,0.7-0.7h5.9c0.4,0,0.7,0.3,0.7,0.7
					S228.6,112,228.2,112"/>
				<path id="Path_322960" class="st0" d="M228.2,122.1h-5.9c-0.4,0-0.7-0.3-0.7-0.7s0.3-0.7,0.7-0.7h5.9c0.4,0,0.7,0.3,0.7,0.7
					S228.6,122.1,228.2,122.1"/>
				<path id="Path_322961" class="st4" d="M229.2,140.1h-7.8c-0.9,0-1.7-0.8-1.7-1.7v-12.3c0-0.9,0.8-1.7,1.7-1.7l0,0h7.8
					c0.9,0,1.7,0.8,1.7,1.7c0,0,0,0,0,0v12.3C230.9,139.3,230.1,140.1,229.2,140.1"/>
				<path id="Path_322962" class="st0" d="M229.2,140.8h-7.8c-1.3,0-2.4-1.1-2.4-2.4v-12.3c0-1.3,1.1-2.4,2.4-2.4h7.8
					c1.3,0,2.4,1.1,2.4,2.4v12.3C231.6,139.7,230.5,140.8,229.2,140.8 M221.3,125c-0.6,0-1,0.5-1,1v12.3c0,0.6,0.5,1,1,1h7.8
					c0.6,0,1-0.5,1-1v-12.3c0-0.6-0.5-1-1-1L221.3,125z"/>
				<path id="Path_322963" class="st0" d="M225.3,135c-1.6-0.1-2.8-1.4-2.7-2.9s1.4-2.8,2.9-2.7c1.5,0.1,2.7,1.3,2.7,2.8
					C228.2,133.8,226.9,135.1,225.3,135 M225.3,130.8c-0.8,0.1-1.4,0.8-1.4,1.6c0.1,0.8,0.8,1.4,1.6,1.4c0.8-0.1,1.4-0.7,1.4-1.5
					C226.8,131.4,226.1,130.7,225.3,130.8"/>
				<path id="Path_322964" class="st0" d="M228.2,128h-5.9c-0.4,0-0.7-0.3-0.7-0.7s0.3-0.7,0.7-0.7h5.9c0.4,0,0.7,0.3,0.7,0.7
					S228.6,128,228.2,128"/>
				<path id="Path_322965" class="st0" d="M228.2,138.1h-5.9c-0.4,0-0.7-0.3-0.7-0.7s0.3-0.7,0.7-0.7h5.9c0.4,0,0.7,0.3,0.7,0.7
					S228.6,138.1,228.2,138.1"/>
				<path id="Path_322966" class="st4" d="M229.2,155.7h-7.8c-0.9,0-1.7-0.8-1.7-1.7v-12.3c0-0.9,0.8-1.7,1.7-1.7l0,0h7.8
					c0.9,0,1.7,0.8,1.7,1.7c0,0,0,0,0,0V154C230.9,154.9,230.1,155.7,229.2,155.7"/>
				<path id="Path_322967" class="st0" d="M229.2,156.4h-7.8c-1.3,0-2.4-1.1-2.4-2.4v-12.3c0-1.3,1.1-2.4,2.4-2.4h7.8
					c1.3,0,2.4,1.1,2.4,2.4V154C231.6,155.3,230.5,156.4,229.2,156.4 M221.3,140.6c-0.6,0-1,0.5-1,1V154c0,0.6,0.5,1,1,1h7.8
					c0.6,0,1-0.5,1-1v-12.3c0-0.6-0.5-1-1-1H221.3z"/>
				<path id="Path_322968" class="st0" d="M225.3,150.6c-1.6-0.1-2.8-1.4-2.7-2.9s1.4-2.8,2.9-2.7c1.5,0.1,2.7,1.3,2.7,2.8
					C228.2,149.4,226.9,150.7,225.3,150.6 M225.3,146.3c-0.8,0.1-1.4,0.8-1.4,1.6c0.1,0.8,0.8,1.4,1.6,1.4c0.8-0.1,1.4-0.7,1.4-1.5
					C226.8,147,226.1,146.3,225.3,146.3"/>
				<path id="Path_322969" class="st0" d="M228.2,143.6h-5.9c-0.4,0-0.7-0.3-0.7-0.7s0.3-0.7,0.7-0.7h5.9c0.4,0,0.7,0.3,0.7,0.7
					S228.6,143.6,228.2,143.6"/>
				<path id="Path_322970" class="st0" d="M228.2,153.7h-5.9c-0.4,0-0.7-0.3-0.7-0.7s0.3-0.7,0.7-0.7h5.9c0.4,0,0.7,0.3,0.7,0.7
					S228.6,153.7,228.2,153.7"/>
				<path id="Path_322971" class="st4" d="M229.2,171.7h-7.8c-0.9,0-1.7-0.8-1.7-1.7v-12.3c0-0.9,0.8-1.7,1.7-1.7l0,0h7.8
					c0.9,0,1.7,0.8,1.7,1.7c0,0,0,0,0,0V170C230.9,170.9,230.1,171.7,229.2,171.7"/>
				<path id="Path_322972" class="st0" d="M229.2,172.4h-7.8c-1.3,0-2.4-1.1-2.4-2.4v-12.3c0-1.3,1.1-2.4,2.4-2.4h7.8
					c1.3,0,2.4,1.1,2.4,2.4V170C231.6,171.3,230.5,172.4,229.2,172.4 M221.3,156.7c-0.6,0-1,0.5-1,1V170c0,0.6,0.5,1,1,1h7.8
					c0.6,0,1-0.5,1-1v-12.3c0-0.6-0.5-1-1-1L221.3,156.7z"/>
				<path id="Path_322973" class="st0" d="M225.3,166.7c-1.6-0.1-2.8-1.4-2.7-2.9s1.4-2.8,2.9-2.7c1.5,0.1,2.7,1.3,2.7,2.8
					C228.2,165.4,226.9,166.7,225.3,166.7 M225.3,162.4c-0.8,0.1-1.4,0.8-1.4,1.6c0.1,0.8,0.8,1.4,1.6,1.4c0.8-0.1,1.4-0.7,1.4-1.5
					C226.8,163,226.1,162.3,225.3,162.4"/>
				<path id="Path_322974" class="st0" d="M228.2,159.6h-5.9c-0.4,0-0.7-0.3-0.7-0.7s0.3-0.7,0.7-0.7h5.9c0.4,0,0.7,0.3,0.7,0.7
					S228.6,159.6,228.2,159.6"/>
				<path id="Path_322975" class="st0" d="M228.2,169.7h-5.9c-0.4,0-0.7-0.3-0.7-0.7s0.3-0.7,0.7-0.7h5.9c0.4,0,0.7,0.3,0.7,0.7
					S228.6,169.7,228.2,169.7"/>
				<path id="Path_322976" class="st4" d="M216.2,92.5h-7.8c-0.9,0-1.7-0.8-1.7-1.7V78.4c0-0.9,0.8-1.7,1.7-1.7l0,0h7.8
					c0.9,0,1.7,0.8,1.7,1.7c0,0,0,0,0,0v12.3C218,91.7,217.2,92.5,216.2,92.5"/>
				<path id="Path_322977" class="st0" d="M216.2,93.1h-7.8c-1.3,0-2.4-1.1-2.4-2.4V78.4c0-1.3,1.1-2.4,2.4-2.4h7.8
					c1.3,0,2.4,1.1,2.4,2.4v12.3C218.6,92.1,217.6,93.1,216.2,93.1 M208.4,77.4c-0.6,0-1,0.5-1,1v12.3c0,0.6,0.5,1,1,1h7.8
					c0.6,0,1-0.5,1-1V78.4c0-0.6-0.5-1-1-1L208.4,77.4z"/>
				<path id="Path_322978" class="st0" d="M212.3,87.4c-1.6-0.1-2.8-1.4-2.7-2.9s1.4-2.8,2.9-2.7c1.5,0.1,2.7,1.3,2.7,2.8
					C215.2,86.2,213.9,87.4,212.3,87.4 M212.3,83.1c-0.8,0.1-1.4,0.8-1.4,1.6c0.1,0.8,0.8,1.4,1.6,1.4c0.8-0.1,1.4-0.7,1.4-1.5
					C213.9,83.7,213.2,83.1,212.3,83.1"/>
				<path id="Path_322979" class="st0" d="M215.3,80.4h-5.9c-0.4,0-0.7-0.3-0.7-0.7s0.3-0.7,0.7-0.7h5.9c0.4,0,0.7,0.3,0.7,0.7
					S215.7,80.4,215.3,80.4"/>
				<path id="Path_322980" class="st0" d="M215.3,90.5h-5.9c-0.4,0-0.7-0.3-0.7-0.7s0.3-0.7,0.7-0.7h5.9c0.4,0,0.7,0.3,0.7,0.7
					S215.7,90.5,215.3,90.5"/>
				<path id="Path_322981" class="st4" d="M216.2,108.5h-7.8c-0.9,0-1.7-0.8-1.7-1.7V94.5c0-0.9,0.8-1.7,1.7-1.7l0,0h7.8
					c0.9,0,1.7,0.8,1.7,1.7c0,0,0,0,0,0v12.3C218,107.7,217.2,108.5,216.2,108.5"/>
				<path id="Path_322982" class="st0" d="M216.2,109.1h-7.8c-1.3,0-2.4-1.1-2.4-2.4V94.5c0-1.3,1.1-2.4,2.4-2.4h7.8
					c1.3,0,2.4,1.1,2.4,2.4v12.3C218.6,108.1,217.6,109.1,216.2,109.1 M208.4,93.4c-0.6,0-1,0.5-1,1v12.3c0,0.6,0.5,1,1,1h7.8
					c0.6,0,1-0.5,1-1V94.5c0-0.6-0.5-1-1-1L208.4,93.4z"/>
				<path id="Path_322983" class="st0" d="M212.3,103.4c-1.6-0.1-2.8-1.4-2.7-2.9s1.4-2.8,2.9-2.7c1.5,0.1,2.7,1.3,2.7,2.8
					C215.2,102.2,213.9,103.5,212.3,103.4 M212.3,99.1c-0.8,0.1-1.4,0.8-1.4,1.6c0.1,0.8,0.8,1.4,1.6,1.4c0.8-0.1,1.4-0.7,1.4-1.5
					C213.9,99.8,213.2,99.1,212.3,99.1"/>
				<path id="Path_322984" class="st0" d="M215.3,96.4h-5.9c-0.4,0-0.7-0.3-0.7-0.7s0.3-0.7,0.7-0.7h5.9c0.4,0,0.7,0.3,0.7,0.7
					S215.7,96.4,215.3,96.4"/>
				<path id="Path_322985" class="st0" d="M215.3,106.5h-5.9c-0.4,0-0.7-0.3-0.7-0.7s0.3-0.7,0.7-0.7h5.9c0.4,0,0.7,0.3,0.7,0.7
					S215.7,106.5,215.3,106.5"/>
				<path id="Path_322986" class="st4" d="M216.2,124.1h-7.8c-0.9,0-1.7-0.8-1.7-1.7v-12.3c0-0.9,0.8-1.7,1.7-1.7l0,0h7.8
					c0.9,0,1.7,0.8,1.7,1.7c0,0,0,0,0,0v12.3C218,123.3,217.2,124.1,216.2,124.1"/>
				<path id="Path_322987" class="st0" d="M216.2,124.7h-7.8c-1.3,0-2.4-1.1-2.4-2.4v-12.3c0-1.3,1.1-2.4,2.4-2.4h7.8
					c1.3,0,2.4,1.1,2.4,2.4v12.3C218.6,123.7,217.6,124.7,216.2,124.7 M208.4,109c-0.6,0-1,0.5-1,1v12.3c0,0.6,0.5,1,1,1h7.8
					c0.6,0,1-0.5,1-1v-12.3c0-0.6-0.5-1-1-1L208.4,109z"/>
				<path id="Path_322988" class="st0" d="M212.3,119c-1.6-0.1-2.8-1.4-2.7-2.9s1.4-2.8,2.9-2.7c1.5,0.1,2.7,1.3,2.7,2.8
					C215.2,117.8,213.9,119,212.3,119 M212.3,114.7c-0.8,0.1-1.4,0.8-1.4,1.6c0.1,0.8,0.8,1.4,1.6,1.4c0.8-0.1,1.4-0.7,1.4-1.5
					C213.9,115.4,213.2,114.7,212.3,114.7"/>
				<path id="Path_322989" class="st0" d="M215.3,112h-5.9c-0.4,0-0.7-0.3-0.7-0.7s0.3-0.7,0.7-0.7h5.9c0.4,0,0.7,0.3,0.7,0.7
					S215.7,112,215.3,112"/>
				<path id="Path_322990" class="st0" d="M215.3,122.1h-5.9c-0.4,0-0.7-0.3-0.7-0.7s0.3-0.7,0.7-0.7h5.9c0.4,0,0.7,0.3,0.7,0.7
					S215.7,122.1,215.3,122.1"/>
				<path id="Path_322991" class="st4" d="M216.2,140.1h-7.8c-0.9,0-1.7-0.8-1.7-1.7v-12.3c0-0.9,0.8-1.7,1.7-1.7l0,0h7.8
					c0.9,0,1.7,0.8,1.7,1.7c0,0,0,0,0,0v12.3C218,139.3,217.2,140.1,216.2,140.1"/>
				<path id="Path_322992" class="st0" d="M216.2,140.8h-7.8c-1.3,0-2.4-1.1-2.4-2.4v-12.3c0-1.3,1.1-2.4,2.4-2.4h7.8
					c1.3,0,2.4,1.1,2.4,2.4v12.3C218.6,139.7,217.6,140.8,216.2,140.8 M208.4,125c-0.6,0-1,0.5-1,1v12.3c0,0.6,0.5,1,1,1h7.8
					c0.6,0,1-0.5,1-1v-12.3c0-0.6-0.5-1-1-1L208.4,125z"/>
				<path id="Path_322993" class="st0" d="M212.3,135c-1.6-0.1-2.8-1.4-2.7-2.9s1.4-2.8,2.9-2.7c1.5,0.1,2.7,1.3,2.7,2.8
					C215.2,133.8,213.9,135.1,212.3,135 M212.3,130.8c-0.8,0.1-1.4,0.8-1.4,1.6c0.1,0.8,0.8,1.4,1.6,1.4c0.8-0.1,1.4-0.7,1.4-1.5
					C213.9,131.4,213.2,130.7,212.3,130.8"/>
				<path id="Path_322994" class="st0" d="M215.3,128h-5.9c-0.4,0-0.7-0.3-0.7-0.7s0.3-0.7,0.7-0.7h5.9c0.4,0,0.7,0.3,0.7,0.7
					S215.7,128,215.3,128"/>
				<path id="Path_322995" class="st0" d="M215.3,138.1h-5.9c-0.4,0-0.7-0.3-0.7-0.7s0.3-0.7,0.7-0.7h5.9c0.4,0,0.7,0.3,0.7,0.7
					S215.7,138.1,215.3,138.1"/>
				<path id="Path_322996" class="st4" d="M216.2,155.7h-7.8c-0.9,0-1.7-0.8-1.7-1.7v-12.3c0-0.9,0.8-1.7,1.7-1.7l0,0h7.8
					c0.9,0,1.7,0.8,1.7,1.7c0,0,0,0,0,0V154C218,154.9,217.2,155.7,216.2,155.7"/>
				<path id="Path_322997" class="st0" d="M216.2,156.4h-7.8c-1.3,0-2.4-1.1-2.4-2.4v-12.3c0-1.3,1.1-2.4,2.4-2.4h7.8
					c1.3,0,2.4,1.1,2.4,2.4V154C218.6,155.3,217.6,156.4,216.2,156.4 M208.4,140.6c-0.6,0-1,0.5-1,1V154c0,0.6,0.5,1,1,1h7.8
					c0.6,0,1-0.5,1-1v-12.3c0-0.6-0.5-1-1-1H208.4z"/>
				<path id="Path_322998" class="st0" d="M212.3,150.6c-1.6-0.1-2.8-1.4-2.7-2.9s1.4-2.8,2.9-2.7c1.5,0.1,2.7,1.3,2.7,2.8
					C215.2,149.4,213.9,150.7,212.3,150.6 M212.3,146.3c-0.8,0.1-1.4,0.8-1.4,1.6c0.1,0.8,0.8,1.4,1.6,1.4c0.8-0.1,1.4-0.7,1.4-1.5
					C213.9,147,213.2,146.3,212.3,146.3"/>
				<path id="Path_322999" class="st0" d="M215.3,143.6h-5.9c-0.4,0-0.7-0.3-0.7-0.7s0.3-0.7,0.7-0.7h5.9c0.4,0,0.7,0.3,0.7,0.7
					S215.7,143.6,215.3,143.6"/>
				<path id="Path_323000" class="st0" d="M215.3,153.7h-5.9c-0.4,0-0.7-0.3-0.7-0.7s0.3-0.7,0.7-0.7h5.9c0.4,0,0.7,0.3,0.7,0.7
					S215.7,153.7,215.3,153.7"/>
				<path id="Path_323001" class="st4" d="M73.6,198.2h-3.7c-0.9,0-1.7-0.8-1.7-1.7l0,0V190c0-0.9,0.8-1.7,1.7-1.7h0h3.7
					c0.9,0,1.7,0.8,1.7,1.7c0,0,0,0,0,0v6.5C75.3,197.5,74.5,198.2,73.6,198.2C73.6,198.2,73.6,198.2,73.6,198.2"/>
				<path id="Path_323002" class="st0" d="M74.3,198.6h-5.2c-0.7,0-1.3-0.6-1.3-1.3v-8c0-0.7,0.6-1.3,1.3-1.3h5.2
					c0.7,0,1.3,0.6,1.3,1.3v8C75.7,198,75.1,198.6,74.3,198.6 M69.1,188.7c-0.3,0-0.6,0.3-0.6,0.6l0,0v8c0,0.3,0.3,0.6,0.6,0.6l0,0
					h5.2c0.3,0,0.6-0.3,0.6-0.6l0,0v-8c0-0.3-0.3-0.6-0.6-0.6l0,0H69.1z"/>
				<path id="Path_323003" class="st0" d="M71.7,195c-1,0-1.7-0.8-1.7-1.8c0-1,0.8-1.7,1.8-1.7c0.9,0,1.7,0.8,1.7,1.7
					C73.5,194.2,72.7,195,71.7,195C71.7,195,71.7,195,71.7,195 M71.7,192.3c-0.5,0-1,0.5-0.9,1s0.5,1,1,0.9c0.5,0,0.9-0.5,0.9-1
					C72.7,192.7,72.3,192.3,71.7,192.3"/>
				<path id="Path_323004" class="st0" d="M73.6,190.5h-3.7c-0.2,0-0.4-0.2-0.4-0.4s0.2-0.4,0.4-0.4l0,0h3.7c0.2,0,0.4,0.2,0.4,0.4
					S73.8,190.5,73.6,190.5"/>
				<path id="Path_323005" class="st0" d="M73.6,196.9h-3.7c-0.2,0-0.4-0.2-0.4-0.4s0.2-0.4,0.4-0.4l0,0h3.7c0.2,0,0.4,0.2,0.4,0.4
					S73.8,196.9,73.6,196.9"/>
				<path id="Path_323006" class="st4" d="M81.8,198.2h-3.7c-0.9,0-1.7-0.8-1.7-1.7l0,0V190c0-0.9,0.8-1.7,1.7-1.7h0h3.7
					c0.9,0,1.7,0.8,1.7,1.7c0,0,0,0,0,0v6.5C83.5,197.5,82.8,198.2,81.8,198.2C81.8,198.2,81.8,198.2,81.8,198.2"/>
				<path id="Path_323007" class="st0" d="M82.6,198.6h-5.2c-0.7,0-1.3-0.6-1.3-1.3v-8c0-0.7,0.6-1.3,1.3-1.3h5.2
					c0.7,0,1.3,0.6,1.3,1.3v8C83.9,198,83.3,198.6,82.6,198.6 M77.4,188.7c-0.3,0-0.6,0.3-0.6,0.6l0,0v8c0,0.3,0.3,0.6,0.6,0.6l0,0
					h5.2c0.3,0,0.6-0.3,0.6-0.6l0,0v-8c0-0.3-0.3-0.6-0.6-0.6l0,0H77.4z"/>
				<path id="Path_323008" class="st0" d="M80,195c-1,0-1.7-0.8-1.7-1.8c0-1,0.8-1.7,1.8-1.7c0.9,0,1.7,0.8,1.7,1.7
					C81.8,194.2,81,195,80,195C80,195,80,195,80,195 M80,192.3c-0.5,0-1,0.5-0.9,1s0.5,1,1,0.9c0.5,0,0.9-0.5,0.9-1
					C81,192.7,80.5,192.3,80,192.3"/>
				<path id="Path_323009" class="st0" d="M81.8,190.5h-3.7c-0.2,0-0.4-0.2-0.4-0.4s0.2-0.4,0.4-0.4h3.7c0.2,0,0.4,0.2,0.4,0.4
					S82.1,190.5,81.8,190.5"/>
				<path id="Path_323010" class="st0" d="M81.8,196.9h-3.7c-0.2,0-0.4-0.2-0.4-0.4s0.2-0.4,0.4-0.4h3.7c0.2,0,0.4,0.2,0.4,0.4
					S82.1,196.9,81.8,196.9"/>
				<path id="Path_323011" class="st4" d="M90.1,198.2h-3.7c-0.9,0-1.7-0.8-1.7-1.7l0,0V190c0-0.9,0.8-1.7,1.7-1.7l0,0h3.7
					c0.9,0,1.7,0.8,1.7,1.7c0,0,0,0,0,0v6.5C91.8,197.5,91,198.2,90.1,198.2C90.1,198.2,90.1,198.2,90.1,198.2"/>
				<path id="Path_323012" class="st0" d="M90.8,198.6h-5.2c-0.7,0-1.3-0.6-1.3-1.3v-8c0-0.7,0.6-1.3,1.3-1.3h5.2
					c0.7,0,1.3,0.6,1.3,1.3v8C92.2,198,91.6,198.6,90.8,198.6 M85.6,188.7c-0.3,0-0.6,0.3-0.6,0.6l0,0v8c0,0.3,0.3,0.6,0.6,0.6l0,0
					h5.2c0.3,0,0.6-0.3,0.6-0.6l0,0v-8c0-0.3-0.3-0.6-0.6-0.6c0,0,0,0,0,0H85.6z"/>
				<path id="Path_323013" class="st0" d="M88.2,195c-1,0-1.7-0.8-1.7-1.8s0.8-1.7,1.8-1.7c0.9,0,1.7,0.8,1.7,1.7
					C90,194.2,89.2,195,88.2,195 M88.2,192.3c-0.5,0-1,0.5-0.9,1s0.5,1,1,0.9c0.5,0,0.9-0.5,0.9-1C89.3,192.7,88.8,192.3,88.2,192.3
					"/>
				<path id="Path_323014" class="st0" d="M90.1,190.5h-3.7c-0.2,0-0.4-0.2-0.4-0.4s0.2-0.4,0.4-0.4h3.7c0.2,0,0.4,0.2,0.4,0.4
					S90.3,190.5,90.1,190.5"/>
				<path id="Path_323015" class="st0" d="M90.1,196.9h-3.7c-0.2,0-0.4-0.2-0.4-0.4s0.2-0.4,0.4-0.4h3.7c0.2,0,0.4,0.2,0.4,0.4
					S90.3,196.9,90.1,196.9"/>
				<path id="Path_323016" class="st4" d="M98.3,198.2h-3.7c-0.9,0-1.7-0.8-1.7-1.7l0,0V190c0-0.9,0.8-1.7,1.7-1.7l0,0h3.7
					c0.9,0,1.7,0.8,1.7,1.7c0,0,0,0,0,0v6.5C100.1,197.5,99.3,198.2,98.3,198.2C98.3,198.2,98.3,198.2,98.3,198.2"/>
				<path id="Path_323017" class="st0" d="M99.1,198.6h-5.2c-0.7,0-1.3-0.6-1.3-1.3v-8c0-0.7,0.6-1.3,1.3-1.3h5.2
					c0.7,0,1.3,0.6,1.3,1.3v8C100.4,198,99.8,198.6,99.1,198.6 M93.9,188.7c-0.3,0-0.6,0.3-0.6,0.6l0,0v8c0,0.3,0.3,0.6,0.6,0.6
					c0,0,0,0,0,0h5.2c0.3,0,0.6-0.3,0.6-0.6l0,0v-8c0-0.3-0.3-0.6-0.6-0.6c0,0,0,0,0,0H93.9z"/>
				<path id="Path_323018" class="st0" d="M96.5,195c-1,0-1.7-0.8-1.7-1.8s0.8-1.7,1.8-1.7c0.9,0,1.7,0.8,1.7,1.7
					C98.3,194.2,97.5,195,96.5,195 M96.5,192.3c-0.5,0-1,0.5-0.9,1s0.5,1,1,0.9c0.5,0,0.9-0.5,0.9-1C97.5,192.7,97,192.3,96.5,192.3
					"/>
				<path id="Path_323019" class="st0" d="M98.4,190.5h-3.7c-0.2,0-0.4-0.2-0.4-0.4s0.2-0.4,0.4-0.4l0,0h3.7c0.2,0,0.4,0.2,0.4,0.4
					S98.6,190.5,98.4,190.5"/>
				<path id="Path_323020" class="st0" d="M98.4,196.9h-3.7c-0.2,0-0.4-0.2-0.4-0.4s0.2-0.4,0.4-0.4l0,0h3.7c0.2,0,0.4,0.2,0.4,0.4
					S98.6,196.9,98.4,196.9"/>
				<path id="Path_323021" class="st4" d="M106.6,198.2h-3.7c-0.9,0-1.7-0.8-1.7-1.7l0,0V190c0-0.9,0.8-1.7,1.7-1.7l0,0h3.7
					c0.9,0,1.7,0.8,1.7,1.7c0,0,0,0,0,0v6.5C108.3,197.5,107.5,198.2,106.6,198.2C106.6,198.2,106.6,198.2,106.6,198.2"/>
				<path id="Path_323022" class="st0" d="M107.3,198.6h-5.2c-0.7,0-1.3-0.6-1.3-1.3v-8c0-0.7,0.6-1.3,1.3-1.3h5.2
					c0.7,0,1.3,0.6,1.3,1.3v8C108.7,198,108.1,198.6,107.3,198.6 M102.1,188.7c-0.3,0-0.6,0.3-0.6,0.6l0,0v8c0,0.3,0.3,0.6,0.6,0.6
					c0,0,0,0,0,0h5.2c0.3,0,0.6-0.3,0.6-0.6l0,0v-8c0-0.3-0.3-0.6-0.6-0.6c0,0,0,0,0,0H102.1z"/>
				<path id="Path_323023" class="st0" d="M104.7,195c-1,0-1.7-0.8-1.7-1.8s0.8-1.7,1.8-1.7c0.9,0,1.7,0.8,1.7,1.7
					C106.5,194.2,105.7,195,104.7,195 M104.7,192.3c-0.5,0-1,0.5-0.9,1s0.5,1,1,0.9c0.5,0,0.9-0.5,0.9-1
					C105.8,192.7,105.3,192.3,104.7,192.3"/>
				<path id="Path_323024" class="st0" d="M106.6,190.5h-3.7c-0.2,0-0.4-0.2-0.4-0.4s0.2-0.4,0.4-0.4h3.7c0.2,0,0.4,0.2,0.4,0.4
					S106.8,190.5,106.6,190.5"/>
				<path id="Path_323025" class="st0" d="M106.6,196.9h-3.7c-0.2,0-0.4-0.2-0.4-0.4s0.2-0.4,0.4-0.4h3.7c0.2,0,0.4,0.2,0.4,0.4
					S106.8,196.9,106.6,196.9"/>
				<path id="Path_323026" class="st0" d="M76.2,184.7h-5.9v-7.7h5.9V184.7z M71.7,183.3h3.2v-5h-3.2V183.3z"/>
				<path id="Path_323027" class="st0" d="M75,177.7h-3.5v-3.6H75V177.7z M72.9,176.3h0.8v-0.9h-0.8V176.3z"/>
				<path id="Path_323028" class="st0" d="M82.7,184.7h-5.9v-7.7h5.9V184.7z M78.1,183.3h3.2v-5h-3.2V183.3z"/>
				<path id="Path_323029" class="st0" d="M81.5,177.7H78v-3.6h3.5V177.7z M79.3,176.3h0.8v-0.9h-0.8V176.3z"/>
				<path id="Path_323030" class="st0" d="M89,184.7h-5.9v-7.7H89V184.7z M84.5,183.3h3.2v-5h-3.2V183.3z"/>
				<path id="Path_323031" class="st0" d="M87.8,177.7h-3.5v-3.6h3.5V177.7z M85.7,176.3h0.8v-0.9h-0.8V176.3z"/>
				<path id="Path_323032" class="st0" d="M95.4,184.7h-5.9v-7.7h5.9V184.7z M90.9,183.3h3.2v-5h-3.2V183.3z"/>
				<path id="Path_323033" class="st0" d="M94.2,177.7h-3.5v-3.6h3.5V177.7z M92.1,176.3h0.8v-0.9h-0.8V176.3z"/>
				<path id="Path_323034" class="st0" d="M79.4,214.8h-5.9V207h5.9V214.8z M74.9,213.4h3.2v-5h-3.2V213.4z"/>
				<path id="Path_323035" class="st0" d="M78.2,207.8h-3.5v-3.6h3.5V207.8z M76.1,206.4h0.8v-0.9h-0.8V206.4z"/>
				<path id="Path_323036" class="st0" d="M85.9,214.8H80V207h5.9V214.8z M81.3,213.4h3.2v-5h-3.2V213.4z"/>
				<path id="Path_323037" class="st0" d="M84.7,207.8h-3.5v-3.6h3.5V207.8z M82.5,206.4h0.8v-0.9h-0.8V206.4z"/>
				<path id="Path_323038" class="st0" d="M92.2,214.8h-5.9V207h5.9V214.8z M87.6,213.4h3.2v-5h-3.2L87.6,213.4z"/>
				<path id="Path_323039" class="st0" d="M91,207.8h-3.5v-3.6H91V207.8z M88.9,206.4h0.8v-0.9h-0.8V206.4z"/>
				<path id="Path_323040" class="st0" d="M98.6,214.8h-5.9V207h5.9V214.8z M94.1,213.4h3.2v-5h-3.2V213.4z"/>
				<path id="Path_323041" class="st0" d="M97.4,207.8H94v-3.6h3.5V207.8z M95.3,206.4h0.8v-0.9h-0.8V206.4z"/>
				<path id="Path_323042" class="st0" d="M138,184.7h-5.9v-7.7h5.9V184.7z M133.4,183.3h3.2v-5h-3.2V183.3z"/>
				<path id="Path_323043" class="st0" d="M136.7,177.7h-3.5v-3.6h3.5V177.7z M134.6,176.3h0.8v-0.9h-0.8V176.3z"/>
				<path id="Path_323044" class="st0" d="M144.4,184.7h-5.9v-7.7h5.9V184.7z M139.8,183.3h3.2v-5h-3.2V183.3z"/>
				<path id="Path_323045" class="st0" d="M143.2,177.7h-3.5v-3.6h3.5L143.2,177.7z M141,176.3h0.8v-0.9H141V176.3z"/>
				<path id="Path_323046" class="st0" d="M150.7,184.7h-5.9v-7.7h5.9V184.7z M146.2,183.3h3.2v-5h-3.2V183.3z"/>
				<path id="Path_323047" class="st0" d="M149.5,177.7H146v-3.6h3.5V177.7z M147.4,176.3h0.8v-0.9h-0.8V176.3z"/>
				<path id="Path_323048" class="st0" d="M157.2,184.7h-5.9v-7.7h5.9V184.7z M152.6,183.3h3.2v-5h-3.2V183.3z"/>
				<path id="Path_323049" class="st0" d="M155.9,177.7h-3.5v-3.6h3.5V177.7z M153.8,176.3h0.8v-0.9h-0.8V176.3z"/>
				<path id="Path_323050" class="st0" d="M126.3,205h-6.4v-3.5h6.4V205z M120.9,203.9h4.2v-1.3h-4.3L120.9,203.9z"/>
				<path id="Path_323051" class="st0" d="M128,215.2h-9.8v-11.3h9.8V215.2z M119.2,214.1h7.6V205h-7.6L119.2,214.1z"/>
				<path id="Path_323052" class="st0" d="M126,212.9h-5.9v-3.4h5.9V212.9z M121.2,211.8h3.7v-1.3h-3.7V211.8z"/>
				<path id="Path_323053" class="st0" d="M137.6,205h-6.4v-3.5h6.4V205z M132.3,203.9h4.3v-1.3h-4.3V203.9z"/>
				<path id="Path_323054" class="st0" d="M139.3,215.2h-9.8v-11.3h9.8V215.2z M130.6,214.1h7.6V205h-7.6V214.1z"/>
				<path id="Path_323055" class="st0" d="M137.3,212.9h-5.9v-3.4h5.9V212.9z M132.5,211.8h3.7v-1.3h-3.7L132.5,211.8z"/>
				<path id="Path_323056" class="st0" d="M149,205h-6.4v-3.5h6.4V205z M143.6,203.9h4.3v-1.3h-4.3L143.6,203.9z"/>
				<path id="Path_323057" class="st0" d="M150.7,215.2h-9.8v-11.3h9.8L150.7,215.2z M141.9,214.1h7.6V205h-7.6V214.1z"/>
				<path id="Path_323058" class="st0" d="M148.7,212.9h-5.9v-3.4h5.9V212.9z M143.9,211.8h3.7v-1.3h-3.7V211.8z"/>
				<path id="Path_323059" class="st5" d="M121,21.9l-0.9,1.9c-0.9-0.6-2-0.9-3.1-1c-0.6,0-1.1,0.2-1.1,0.7c0,1.7,5,0.7,5,4.2
					c0,1.9-1.7,2.9-3.8,2.9c-1.6,0-3.1-0.5-4.4-1.5l0.9-1.9c1,0.8,2.2,1.3,3.5,1.4c0.8,0,1.2-0.3,1.2-0.8c0-1.7-5-0.7-5-4.1
					c0-1.8,1.5-2.9,3.8-2.9C118.5,20.8,119.8,21.2,121,21.9"/>
				<path id="Path_323060" class="st5" d="M127.5,22.9v7.6h-2.4v-7.6h-2.9v-2h8.2v2L127.5,22.9z"/>
				<path id="Path_323061" class="st5" d="M133.6,25.7c0,1.5,1.2,2.8,2.7,2.8c1.6,0.1,2.9-1.1,3-2.7c0.1-1.6-1.1-2.9-2.7-3
					c-1.6-0.1-2.9,1.1-3,2.7C133.6,25.6,133.6,25.6,133.6,25.7 M141.4,25.7c0.2,2.9-2,5.3-4.8,5.5c-2.9,0.2-5.3-2-5.5-4.8
					c-0.2-2.9,2-5.3,4.8-5.5c0.1,0,0.2,0,0.3,0c2.7-0.1,5,2,5.2,4.7C141.4,25.6,141.4,25.6,141.4,25.7"/>
				<path id="Path_323062" class="st5" d="M147.5,25.9c1.1,0,1.7-0.5,1.7-1.5s-0.6-1.5-1.7-1.5h-1.8v3L147.5,25.9z M147.5,27.8h-1.9
					v2.7h-2.4v-9.5h4.3c2.5,0,4,1.2,4,3.3c0.1,1.3-0.6,2.5-1.7,3.1l2,3.2h-2.8L147.5,27.8z"/>
				<path id="Path_323063" class="st5" d="M156,22.8v1.9h4.6v1.9H156v1.9h5.2v1.9h-7.6v-9.5h7.5v1.9H156z"/>
				<path id="Path_323064" class="st6" d="M166.9,26.7l-1.3,1.4v2.3h-2.4v-9.5h2.4V25l3.7-4.1h2.8l-3.5,4l3.8,5.6h-2.9L166.9,26.7z"
					/>
				<rect id="Rectangle_33830" x="173.9" y="20.9" class="st6" width="2.4" height="9.5"/>
				<path id="Path_323065" class="st6" d="M185.3,30.5l-4.4-5.9v5.9h-2.3v-9.5h2.1l4.4,5.9v-5.9h2.3v9.5H185.3z"/>
				<path id="Path_323066" class="st6" d="M198.3,25.6v3.7c-1.2,0.8-2.6,1.2-4,1.2c-2.7,0.1-5-2-5.1-4.7c0-0.1,0-0.1,0-0.2
					c0-2.7,2.3-4.9,5-4.9c0.1,0,0.1,0,0.2,0c1.4,0,2.8,0.5,3.9,1.4l-1.4,1.7c-0.7-0.6-1.6-1-2.6-1c-1.6,0-2.8,1.4-2.7,2.9
					c0,1.5,1.3,2.7,2.8,2.7c0.6,0,1.2-0.2,1.7-0.5v-2.5H198.3z"/>
				<path id="Path_323067" class="st5" d="M105.4,11.9c0.4,1.7-0.6,3.4-2.3,3.9c-1.7,0.4-3.4-0.6-3.9-2.3c-0.1-0.3-0.1-0.5-0.1-0.8
					c0-0.3,0-0.5,0.1-0.8h-2.7c0.1,0.3,0.1,0.5,0.1,0.8c0,1.8-1.4,3.2-3.1,3.2c-1.8,0-3.2-1.4-3.2-3.1c0,0,0-0.1,0-0.1
					c0-0.3,0-0.5,0.1-0.8h-1.9l1.8,7.2h15.6l1.9-7.2H105.4z"/>
				<path id="Path_323068" class="st6" d="M91.3,11.9c0,1-0.8,1.9-1.9,1.8c-1,0-1.9-0.8-1.8-1.9c0-1,0.8-1.8,1.9-1.8
					C90.5,10,91.4,10.9,91.3,11.9"/>
				<path id="Path_323069" class="st6" d="M108.5,11.9c0,1-0.8,1.9-1.9,1.9s-1.9-0.8-1.9-1.9c0-1,0.8-1.9,1.9-1.9
					C107.7,10,108.5,10.9,108.5,11.9C108.5,11.9,108.5,11.9,108.5,11.9"/>
				<path id="Path_323070" class="st5" d="M101.5,37.4c-1,0-1.8-0.8-1.8-1.8c0-1,0.8-1.8,1.8-1.8s1.8,0.8,1.8,1.8c0,0,0,0,0,0
					C103.3,36.6,102.5,37.4,101.5,37.4"/>
				<path id="Path_323071" class="st5" d="M92.7,37.4c-1,0-1.8-0.8-1.8-1.8c0-1,0.8-1.8,1.8-1.8s1.8,0.8,1.8,1.8c0,0,0,0,0,0
					C94.5,36.6,93.7,37.4,92.7,37.4"/>
				<path id="Path_323072" class="st5" d="M106.3,20.6H88.7l-1.1-4c-0.2-0.6-0.8-1-1.5-1h-2.4c-0.6,0-1,0.5-1,1c0,0.6,0.5,1,1,1l2,0
					c0,0,0,0,0,0l4.1,14.3c0.3,0.6,0.9,1,1.6,1h11.9c0.5,0,1-0.4,1-0.9c0-0.5-0.3-1-0.9-1c0,0-0.1,0-0.1,0l-11.7,0c0,0,0,0,0,0
					l-0.4-1.5h13.3c0.5,0,1-0.5,0.9-1.1c0-0.5-0.4-0.9-0.9-0.9H90.7L90.3,26h15.1c0.5,0,1-0.4,1-1c0-0.5-0.4-1-1-1H89.7l-0.4-1.5
					h17.1c0.5,0,1-0.4,1-1S106.9,20.6,106.3,20.6"/>
				<path id="Path_323073" class="st5" d="M198.8,18c0-0.5,0.1-0.9,0.3-1.4c0.2-0.4,0.5-0.8,0.9-1c0.8-0.5,1.8-0.5,2.6,0
					c0.4,0.2,0.7,0.6,0.9,1c0.5,0.9,0.5,1.9,0,2.7c-0.2,0.4-0.5,0.8-0.9,1c-0.8,0.5-1.8,0.5-2.6,0c-0.4-0.2-0.7-0.6-0.9-1
					C199,19,198.8,18.5,198.8,18 M203.5,18c0-0.4-0.1-0.8-0.3-1.1c-0.2-0.3-0.4-0.6-0.8-0.8c-0.3-0.2-0.7-0.3-1.1-0.3
					c-0.4,0-0.7,0.1-1.1,0.3c-0.3,0.2-0.6,0.5-0.8,0.8c-0.4,0.7-0.4,1.6,0,2.3c0.2,0.3,0.4,0.6,0.8,0.8c0.7,0.4,1.5,0.4,2.2,0
					c0.3-0.2,0.6-0.5,0.8-0.8C203.5,18.8,203.5,18.4,203.5,18 M200.9,18.3v1.2h-0.5v-3.1h1c0.3,0,0.6,0.1,0.9,0.2
					c0.2,0.2,0.3,0.4,0.3,0.7c0,0.3-0.2,0.5-0.4,0.7c0.1,0.1,0.3,0.2,0.3,0.3c0.1,0.2,0.1,0.3,0.1,0.5c0,0.2,0,0.3,0,0.4
					c0,0.1,0,0.1,0,0.2v0.1H202c0-0.2-0.1-0.5,0-0.7c0-0.1,0-0.3-0.1-0.4c-0.1-0.1-0.3-0.1-0.4-0.1L200.9,18.3z M200.9,17.8h0.5
					c0.1,0,0.3,0,0.4-0.1c0.1-0.1,0.2-0.2,0.2-0.3c0-0.1,0-0.3-0.1-0.4c-0.1-0.1-0.3-0.1-0.5-0.1h-0.5L200.9,17.8z"/>
				<path id="Path_323074" class="st6" d="M100,10.4c0,1.2-1,2.2-2.2,2.2s-2.2-1-2.2-2.2c0-1.2,1-2.2,2.2-2.2
					C99.1,8.2,100.1,9.2,100,10.4"/>
			</g>
		</g>
	</g>
</g>
</svg>
