<?xml version="1.0" encoding="utf-8"?>
<!-- Generator: Adobe Illustrator 26.5.0, SVG Export Plug-In . SVG Version: 6.00 Build 0)  -->
<svg version="1.1" id="Layer_1" xmlns="http://www.w3.org/2000/svg" xmlns:xlink="http://www.w3.org/1999/xlink" x="0px" y="0px"
	 viewBox="0 0 300 251" style="enable-background:new 0 0 300 251;" xml:space="preserve">
<style type="text/css">
	.st0{clip-path:url(#SVGID_00000124871679795269025580000010824363220619966091_);}
	.st1{fill:#FFFFFF;}
	.st2{fill:#003072;}
	.st3{fill:#E64B16;}
	.st4{fill:#003173;}
	.st5{fill:#193B72;}
</style>
<g id="Group_92767" transform="translate(21.813 31.678)">
	<g>
		<defs>
			<rect id="SVGID_1_" x="0" y="0" width="257.2" height="189.4"/>
		</defs>
		<clipPath id="SVGID_00000088096516763561382270000008327996323704269194_">
			<use xlink:href="#SVGID_1_"  style="overflow:visible;"/>
		</clipPath>
		<g id="Group_92766" style="clip-path:url(#SVGID_00000088096516763561382270000008327996323704269194_);">
			<path id="Path_322741" class="st1" d="M145.2,184.1H79.3c-8.3,0-15.1-6.8-15.1-15.1V19.5c0-8.3,6.8-15.1,15.1-15.1h65.9
				c8.3,0,15.1,6.8,15.1,15.1V169C160.3,177.3,153.5,184.1,145.2,184.1"/>
			<path id="Path_322742" class="st2" d="M145.7,188.7H78.3c-9.7,0-17.5-7.9-17.5-17.5V17.5C60.8,7.9,68.6,0,78.3,0h67.4
				c9.7,0,17.5,7.9,17.5,17.5v153.6C163.2,180.8,155.4,188.7,145.7,188.7 M78.3,6.3c-6.2,0-11.2,5-11.2,11.2v153.6
				c0,6.2,5,11.2,11.2,11.2h67.4c6.2,0,11.2-5,11.2-11.2V17.5c0-6.2-5-11.2-11.2-11.2L78.3,6.3z"/>
			<rect id="Rectangle_33813" x="64.3" y="24.7" class="st2" width="95.8" height="6.3"/>
			<rect id="Rectangle_33814" x="66.4" y="152.6" class="st2" width="95.8" height="6.3"/>
			<path id="Path_322743" class="st3" d="M114.3,162.1c4.7,0,8.6,3.8,8.6,8.6s-3.8,8.6-8.6,8.6s-8.6-3.8-8.6-8.6
				C105.8,165.9,109.6,162.1,114.3,162.1C114.3,162.1,114.3,162.1,114.3,162.1"/>
			<path id="Path_322744" class="st2" d="M114.3,182.4c-6.5,0-11.7-5.2-11.7-11.7c0-6.5,5.2-11.7,11.7-11.7
				c6.5,0,11.7,5.2,11.7,11.7l0,0C126,177.1,120.8,182.4,114.3,182.4 M114.3,165.3c-3,0-5.4,2.4-5.4,5.4c0,3,2.4,5.4,5.4,5.4
				c3,0,5.4-2.4,5.4-5.4c0,0,0,0,0,0C119.7,167.7,117.3,165.3,114.3,165.3z"/>
			<path id="Path_322745" class="st4" d="M125.8,19.1H97.3c-1.7,0-3.1-1.5-3.1-3.2c0-1.7,1.4-3,3.1-3.1h28.5c1.7,0,3.1,1.5,3.1,3.2
				C128.9,17.7,127.5,19.1,125.8,19.1"/>
			<path id="Path_322746" class="st3" d="M97.3,13.6c1.3,0,2.3,1,2.3,2.3s-1,2.3-2.3,2.3c-1.3,0-2.3-1-2.3-2.3v0
				C95,14.6,96,13.6,97.3,13.6"/>
			<path id="Path_322747" class="st1" d="M181.1,186.4h-23.3c-8.3,0-15.1-6.8-15.1-15.1v-50.5c0-8.3,6.8-15.1,15.1-15.1h23.3
				c8.3,0,15.1,6.8,15.1,15.1v50.5C196.2,179.6,189.5,186.4,181.1,186.4"/>
			<path id="Path_322748" class="st1" d="M242.4,186h-27.1c-6.4,0-11.6-5.2-11.6-11.6V92c0-6.4,5.2-11.6,11.6-11.6h27.1
				c6.4,0,11.6,5.2,11.6,11.6v82.4C253.9,180.8,248.7,186,242.4,186"/>
			<path id="Path_322749" class="st4" d="M181.3,189.4H157c-9.1,0-16.5-7.4-16.5-16.5v-54.2c0-9.1,7.4-16.5,16.5-16.5h24.3
				c9.1,0,16.5,7.4,16.5,16.5v54.2C197.8,182,190.4,189.4,181.3,189.4 M157,107c-6.4,0-11.6,5.2-11.7,11.7v54.2
				c0,6.4,5.2,11.6,11.7,11.7h24.3c6.4,0,11.6-5.2,11.7-11.7v-54.2c0-6.4-5.2-11.6-11.7-11.7L157,107z"/>
			<path id="Path_322750" class="st4" d="M185.3,161.5h-32v-31.3h32V161.5z M158.1,156.7h22.4v-21.7h-22.4L158.1,156.7z"/>
			<path id="Path_322751" class="st4" d="M180.9,107h-23.7V93.8c0-3.6,2.9-6.6,6.6-6.6h10.6c3.6,0,6.6,2.9,6.6,6.6L180.9,107z
				 M162,102.2h14.1v-8.4c0-1-0.8-1.8-1.8-1.8h-10.6c-1,0-1.8,0.8-1.8,1.8V102.2z"/>
			<rect id="Rectangle_33815" x="202.4" y="116.9" class="st3" width="52.3" height="19.9"/>
			<path id="Path_322752" class="st4" d="M257.1,139.2H200v-24.7h57.1V139.2z M204.8,134.4h47.5v-15.1h-47.5L204.8,134.4z"/>
			<path id="Path_322753" class="st4" d="M240.7,188h-24.3c-9.1,0-16.5-7.4-16.5-16.5V93.1c0-9.1,7.4-16.5,16.5-16.5h24.3
				c9.1,0,16.5,7.4,16.5,16.5v78.5C257.2,180.6,249.8,188,240.7,188 M216.4,81.4c-6.4,0-11.7,5.2-11.7,11.7v78.5
				c0,6.4,5.2,11.7,11.7,11.7h24.3c6.4,0,11.6-5.2,11.7-11.7V93.1c0-6.4-5.2-11.6-11.7-11.7L216.4,81.4z"/>
			<path id="Path_322754" class="st3" d="M215.1,65.5h24.1c0.5,0,0.8,0.4,0.8,0.8v0v11.1h-25.8V66.4
				C214.3,65.9,214.7,65.5,215.1,65.5L215.1,65.5"/>
			<path id="Path_322755" class="st4" d="M242.5,79.9h-30.6V68.3c0-2.8,2.3-5.2,5.2-5.2h20.3c2.8,0,5.2,2.3,5.2,5.2L242.5,79.9z
				 M216.7,75.1h21v-6.8c0-0.2-0.2-0.4-0.4-0.4h-20.3c-0.2,0-0.4,0.2-0.4,0.4L216.7,75.1z"/>
			<path id="Path_322756" class="st3" d="M220.8,51.1h12.9c0.5,0,0.8,0.4,0.8,0.8c0,0,0,0,0,0v13.3h-14.5V52
				C219.9,51.5,220.3,51.1,220.8,51.1L220.8,51.1"/>
			<path id="Path_322757" class="st4" d="M236.9,67.7h-19.3V53.9c0-2.9,2.3-5.2,5.2-5.2h9c2.9,0,5.2,2.3,5.2,5.2L236.9,67.7z
				 M222.3,62.9h9.7v-9c0-0.2-0.2-0.4-0.4-0.4h-9c-0.2,0-0.4,0.2-0.4,0.4L222.3,62.9z"/>
			<path id="Path_322758" class="st4" d="M180.4,64.7c-1.3,0-2.4-1.1-2.4-2.4c0-0.8,0.4-1.5,1-1.9l10.8-7.9c0.5-0.4,1.1-0.5,1.7-0.5
				l28.6,3c1.3,0.1,2.3,1.2,2.2,2.6c-0.1,1.3-1.2,2.3-2.5,2.2c-0.1,0-0.2,0-0.3,0l-27.7-2.9l-10,7.4
				C181.4,64.5,180.9,64.7,180.4,64.7"/>
			<path id="Path_322759" class="st1" d="M91.6,179.3v-46.9c0-3.6-2.9-6.5-6.5-6.5l0,0H9.5c-3.6,0-6.5,2.9-6.5,6.5v46.9
				c0,3.6,2.9,6.5,6.5,6.5c0,0,0,0,0,0h75.6C88.7,185.8,91.6,182.9,91.6,179.3L91.6,179.3"/>
			<path id="Path_322760" class="st3" d="M47.2,139.1c-10.3,0-18.7,8.4-18.7,18.7s8.4,18.7,18.7,18.7s18.7-8.4,18.7-18.7l0,0
				C65.9,147.4,57.6,139.1,47.2,139.1"/>
			<path id="Path_322761" class="st4" d="M25.7,157.8c0-11.9,9.6-21.5,21.5-21.5c11.9,0,21.5,9.6,21.5,21.5
				c0,11.9-9.6,21.5-21.5,21.5C35.3,179.3,25.7,169.7,25.7,157.8C25.7,157.8,25.7,157.8,25.7,157.8 M31.3,157.8
				c0,8.8,7.1,15.9,15.9,15.9s15.9-7.1,15.9-15.9c0-8.8-7.1-15.9-15.9-15.9C38.5,141.9,31.3,149,31.3,157.8
				C31.3,157.8,31.3,157.8,31.3,157.8"/>
			<path id="Path_322762" class="st3" d="M66.6,125.9l-6.7-14.5l-27.1-0.1l-7.4,14.6H66.6z"/>
			<path id="Path_322763" class="st4" d="M25.4,128.7c-1.6,0-2.8-1.3-2.8-2.8c0-0.4,0.1-0.9,0.3-1.3l7.4-14.6c0.4-1,1.4-1.6,2.5-1.5
				l27.1,0.1c1.1,0,2.1,0.6,2.5,1.6l6.7,14.5c0.7,1.4,0,3.1-1.4,3.7c-0.4,0.2-0.8,0.3-1.2,0.3L25.4,128.7L25.4,128.7z M58.1,114.2
				l-23.6-0.1L30,123h32.2L58.1,114.2z"/>
			<path id="Path_322764" class="st5" d="M84.2,119.4H73.6c-0.6,0-1,0.5-1,1v4.6c0,0.6,0.5,1,1,1h10.6c0.6,0,1-0.5,1-1v-4.6
				C85.2,119.9,84.8,119.4,84.2,119.4"/>
			<path id="Path_322765" class="st4" d="M75.7,128.9c-3.4-0.1-6.1-2.8-6-6.2c0.1-3.4,2.8-6.1,6.2-6h6.1c0.1,0,0.1,0,0.2,0
				c3.4,0.1,6.1,2.8,6,6.2c-0.1,3.4-2.8,6.1-6.2,6l0,0h-6.1C75.8,128.9,75.7,128.9,75.7,128.9 M75.9,122.2c-0.3,0-0.5,0.2-0.5,0.5
				s0.2,0.5,0.5,0.5h6.1c0.3,0,0.5-0.2,0.5-0.5s-0.2-0.5-0.5-0.5H75.9z"/>
			<path id="Path_322766" class="st4" d="M0,169.7l0-34.9c1.1-12,14.5-11.9,21.7-11.8h62.8c0.2,0,0.3,0,0.5,0
				c7.1,1.2,10.8,6,10.6,13.5v33.1c0.2,6.9-1.2,11.9-4.4,15.1c-2.7,2.8-6.6,4.2-11.6,4.2H14C0,189,0,175,0,169.7 M21.7,128.7
				c-12.8-0.1-15.6,2.3-16,6.4v34.6c0,11.3,3.2,13.6,8.4,13.6h65.5c3.5,0,5.9-0.8,7.6-2.5c2-2.1,2.9-5.8,2.8-11.1v-33.3
				c0.2-4.6-1.5-6.9-5.6-7.7L21.7,128.7z"/>
		</g>
	</g>
</g>
</svg>
