<?xml version="1.0" encoding="utf-8"?>
<!-- Generator: Adobe Illustrator 26.5.0, SVG Export Plug-In . SVG Version: 6.00 Build 0)  -->
<svg version="1.1" id="Layer_1" xmlns="http://www.w3.org/2000/svg" xmlns:xlink="http://www.w3.org/1999/xlink" x="0px" y="0px"
	 viewBox="0 0 300 300" style="enable-background:new 0 0 300 300;" xml:space="preserve">
<style type="text/css">
	.st0{clip-path:url(#SVGID_00000019653170055490299490000012622667318202724997_);}
	.st1{fill:#FFFFFF;}
	.st2{fill:#CAD6E5;}
	.st3{fill:#E44D25;}
	.st4{fill:#233770;}
	.st5{fill:#233F84;}
	.st6{fill:none;stroke:#233770;stroke-width:0.8;stroke-miterlimit:10;}
	.st7{fill:none;stroke:#233770;stroke-width:0.237;stroke-miterlimit:10;}
</style>
<g>
	<g id="Group_986">
		<g>
			<defs>
				<rect id="SVGID_1_" x="0.3" y="5.1" width="299.4" height="289.8"/>
			</defs>
			<clipPath id="SVGID_00000096740131612321243140000001659208647531184815_">
				<use xlink:href="#SVGID_1_"  style="overflow:visible;"/>
			</clipPath>
			<g id="Group_985" style="clip-path:url(#SVGID_00000096740131612321243140000001659208647531184815_);">
				<g id="Group_41747" transform="translate(12.853 13.923)">
					<g id="Group_41730">
						<g id="Group_41592">
							<path id="Path_112926" class="st1" d="M92.8,28.1l-36.7-4.3l-6.8,14.5L45,47.8l-1.7,1.7h-1.7l-0.9,1.7l3.4,5.1v6l2.6,3.4
								l2.6,0.9l13.7,17.9l-1.7,3.4l-7.7,3.4l-5.1,5.1l-6.8,0.9l-7.7,6.8l-12,7.7l-10.2,6.8l-4.3,11.9l-0.8,28.2l-1.7,17.9l-2.6,5.1
								v14.5L5.7,216v23l4.3,25.6l-0.9,10.2l-0.9,3.4l1.7,4.3h4.3l5.1,0.9l1.7,1.7l3.4-6.8c0,0,4.3-10.2,3.4-3.4
								s-5.1,17.1,10.2,17.1s34.1,7.7,35.9,5.1c1.5-3,2.6-6.1,3.4-9.4l3.4,10.2c6.9,0.9,14,0,20.5-2.6c11.1-4.3,26.5-1.7,26.5-6
								v-10.2l2.6,1.7h3.4l6.8-5.1l-0.4-18.4l-0.9-5.1l3.4-40.1V195l-0.9-16.2l-2.6-43.5l-7.7-20.5l-11.1-5.1l-12.8-3.4l-6.8-5.1
								L96.6,96l-4.3-6.8l-5.1-5.1l6-4.3l3.4-8.5l2.6-6l2.6-1.7l0.9-5.1l2.6-6v-2.6l-6-1.7L92.8,28.1z"/>
							<path id="Path_112927" class="st1" d="M205.4,32.8l-18.8,25.6l-6,6v4.3l3.4,7.7l0.9,0.9l0.8,2.6h3.4c0,0,2.6,7.7,3.4,7.7
								c3.5,2.4,6.7,5.3,9.4,8.5c0,0.9,0.9,7.7,0.9,7.7l-4.2,10.2h-5.1l-10.2,4.3l-14.5,4.3l-10.2,6.8l-5.1,5.1l-2.6,18.8l-0.9,26.4
								l2.6,2.6v9.4l-0.9,22.2l0.9,23.9l4.3,21.3v6.8L155,277v10.2c0,0,4.2,8.5,4.2,0.9v-8.5l2.6-4.3l0.9-5.1l2.6-5.1v-10.3
								l0.9-17.9l2.6-22.2l0.9-9.4l6,24.8l-4.3,35l-5.1,24.8c10,0.6,19.9,0.6,29.9,0c20.5-0.9,23,0,33.3,0s14.5-0.9,17.9-0.9
								s10.2,5.1,8.5-0.9s-3.4-23.9-4.3-25.6c-0.9-5.7-1.5-11.4-1.7-17.1l4.3-11.1l5.1,26.5l-2.6,15.4l1.7,10.2l2.6,5.1
								c0,0,2.6,4.3,4.3-2.6c1-5.9,1.3-11.9,0.9-17.9l-1.7-7.7v-12l3.4-35.9l6-4.3v-3.4l1.7-9.4v-6.8l-0.8-25.6l-1.7-24.8l-0.8-6.8
								l-6-6.8l-14.5-4.3l-17.9-6l-1.7-29.9l5.1-6.8l2.6-5.1l1.7-5.1l-0.8-6l-4.3-6l-18.8-18.8L205.4,32.8z"/>
							<g id="Group_41591">
								<path id="Path_56073" class="st2" d="M67.3,30.5c-2.9,2.4-4.8,6-5.2,9.8c-0.6,5.7-1.7,11.4-3.2,17
									C57.5,70.2,63,83,73.4,90.8c0,0,2.1-0.4,0,3.5s-1,28.7-1,28.7l-1.8-2.2l-1.1-3.7l-2.6-1.8l-3.3-3.1l-2.4-5.2l-1.8-4.6
									l-0.8-8l0.3-2.1l0.5-1.5l0.4-3.5l-0.4-1.9l-4.3-5.9l-4.5-5.8l-2.2-11.7l0.7-6.7l1.4-4.7l1-3.2l0-7.6v-2.6l1.4-2.9l2.4-1.9
									l0.9-1.4c0-0.6,0.1-1.2,0.3-1.8l0.4-0.6l3,1.4l3.2,0.5L67.3,30.5z"/>
								<path id="Path_56074" class="st3" d="M32.5,99.7l-4.7,2.7l-2.8,5l-2.9,24.5v24l-0.8,14l0.7,16.1l-0.4,17.3l-1.2,14.3
									l0.4,7.8l3.7-0.1l3.6,2.4l3.1,0.7l5.5,0.4l2.8-1.3L41,225l-1.6-14l3.7-1.9l3.9-3.3v-2.7l-1.1-8.5l-2-31.2l-1.3-27.8L42,113
									c0-2.7,0.2-5.3,0.5-7.9c0.4-0.5,3.6-5.6,3.6-5.6l0.9-2.7l-2.1-2.4l-1.5,0.4l-3.7,0.4c0,0-2.2-0.2-2.1,0.4s-1.8,2-1.8,2
									l-1.8,2.5L32.5,99.7z"/>
								<path id="Path_56075" class="st2" d="M210,43.2c0,0,2.3,10-4.3,12.6s-4.7,6.5-6.8,10.2s-1.1,19.1,11.5,35.8
									c0,0-8.9,21.1-2.4,34.3l-2.9,1.7l-2-1.5l-3.8-4.6l-1.8-4l-3.4-8.2l-1.7-5.5l3.6-2.4l2.6-4.2l1.8-5.5l0.9-5.8l-6.1-7.6
									l-4.4-6.3l-2.7-7.5l-1.2-6.2l0.4-4.7l1.7-2.4l2.5-2l1.1-3.1l2.1-4.8l5.2-2.7l3.5-1.1l3.5-3.3C207,44.5,208.8,41.4,210,43.2z
									"/>
								<path id="Path_56076" class="st3" d="M168.3,172.2l8.7-9.1l18.4-14.7l12.6-7.4l17.7-12.4l4.3-6.3l-1.3-0.8l-0.9-2l-2.3,4
									l-4.9,3.6l-3.8,3.2L197,143.1l-8.4,3.4l-6.1,3.7l-12.7,11.3l0.4,5.6L168.3,172.2z"/>
								<path id="Path_56077" class="st3" d="M225.1,289c0,0-4.2,2.2-2.6-1.7s4.2-10.4,4.2-10.4l3.4-7.9l1.8-8.3l2.1-8l4.1-9.4
									l4.1-7.2l6.2-15.3l7.7-11.4l3.9-4.8l5.9-3.2l6.2-3.3l4.1-1.4c0,0,3.5,4.1-1.1,4.5c-2.6,0.2-5.2,0.7-7.6,1.6l-5.3,4.3
									l-4.3,6.3l-4.7,8.9l-7.1,14.5l-4.8,9.2l-5,10.8l-4.8,13.4l-2.3,6.5l-2.7,7.7L225.1,289z"/>
								<g id="Group_41588" transform="translate(225.538 83.106)">
									<path id="Path_48947" class="st4" d="M2.3,7.8L0.9,8.9L2,7.4l1.3-1.9L2.3,7.8z"/>
									<path id="Path_112928" class="st4" d="M1.3,9.5l-1-1L1.5,7l1.3-1.9L4,5.8L2.8,8.3L1.3,9.5z"/>
								</g>
								<g id="Group_41589" transform="translate(37.05 99.311)">
									<path id="Path_56078" class="st4" d="M0.6,6l0.7-0.3L1.1,5.9L0.6,6z"/>
									<path id="Path_112929" class="st4" d="M0.8,6.7L0.3,5.4L1,5.1l0.6,1.3L1.3,6.5L0.8,6.7z"/>
								</g>
								<g id="Group_41590" transform="translate(0.622 169.598)">
									<path id="Path_48951" class="st4" d="M1,10.7l1.6-5.4C2.5,7.2,1.9,9.1,1,10.7z"/>
									<path id="Path_112930" class="st4" d="M1.6,11.1l-1.3-0.6l1.6-5.4l1.4,0.2C3.2,7.3,2.6,9.3,1.6,11.1z"/>
								</g>
								<path id="Path_112931" class="st4" d="M42.5,41c-1-1.8-1.5-3.8-1.5-5.8c0.1-2,0.4-3.9,0.9-5.8c0.4-1.5,0.7-3,0.8-4.5
									c0.4-3,1.7-5.8,3.8-7.9c0.4-0.6,1.1-0.9,1.8-1c0.4,0,0.8,0.2,1,0.4l-1,0.9l0.5-0.5l-0.5,0.5c-0.3,0.1-0.5,0.3-0.7,0.5
									c-1.9,2-3.1,4.5-3.4,7.2c-0.2,1.6-0.4,3.1-0.9,4.7c-0.5,1.8-0.8,3.6-0.8,5.4c0,1.8,0.5,3.6,1.4,5.2L42.5,41z"/>
								<path id="Path_112932" class="st4" d="M45.9,52.8l-4.4-9.4c-2.3-3.9-2.6-8.8-0.8-13L42,31c-1.7,3.8-1.4,8.2,0.7,11.8
									l4.4,9.5L45.9,52.8z"/>
								<path id="Path_112933" class="st4" d="M49.4,57L48,56.6l2.3-7.6c0.7-1.9,1.1-3.9,1-5.9C51,42,51,40.7,51.2,39.5l0.1-0.2
									c0.5-1,1.3-2,2.2-2.7c1.1-1.2,1.8-2.6,2.1-4.2l1.4,0.2c-0.3,1.9-1.2,3.6-2.5,5c-0.8,0.6-1.4,1.4-1.8,2.2
									c-0.2,1-0.1,2.1,0.2,3.1l0,0.1c0.1,2.2-0.3,4.4-1,6.5L49.4,57z"/>
								<path id="Path_112934" class="st4" d="M50.1,48.2l-1.2-0.8c1.5-1.9,2.2-4.2,2.1-6.6c-0.2-0.9-0.3-1.7-0.4-2.6
									c0.3-1.6,1.1-3.1,2.4-4.1c0.5-0.4,0.9-0.9,1.3-1.4c0.8-1.1,1.3-2.5,1.3-3.9l1.4,0c0,1.7-0.5,3.4-1.6,4.7
									c-0.4,0.5-0.9,1-1.4,1.5c-1,0.8-1.7,1.9-2,3.1c0,0.8,0.2,1.6,0.4,2.3C52.6,43.3,51.8,46,50.1,48.2z"/>
								<path id="Path_112935" class="st4" d="M50.7,21.5c-2.1-2.4-2.7-5.8-1.4-8.7c1.3-2.8,3.7-5,6.7-5.9c2.9-0.9,5.9-1.1,8.8-0.5
									l-0.2,1.4c-2.7-0.5-5.5-0.3-8.1,0.5c-2.6,0.8-4.7,2.7-5.8,5.2c-1.1,2.4-0.6,5.3,1.2,7.2L50.7,21.5z"/>
								<path id="Path_112936" class="st4" d="M85.8,9.7c-9.5-2.7-19.5-2.9-29-0.4l-0.3-1.4c9.8-2.5,20.1-2.3,29.8,0.5L85.8,9.7z"/>
								<path id="Path_112937" class="st4" d="M98.7,18.6c-0.9-2.2-2.6-4-4.7-5.1c-2.2-1.1-4.5-2-6.9-2.6c-4.7-1.5-9.5-2.5-14.4-2.9
									c-0.4,0-0.7,0-1.1,0c-2.7,0.3-5.4-0.4-7.6-1.9l0.9-1c2,1.3,4.3,1.8,6.7,1.6c0.4,0,0.8,0,1.1,0c5,0.4,10,1.4,14.7,3
									c2.5,0.6,4.9,1.5,7.1,2.7c2.4,1.2,4.3,3.3,5.3,5.8L98.7,18.6z"/>
								<path id="Path_112938" class="st4" d="M103.8,41.9l-1.4-0.3c0.9-3.9,1.4-7.9,1.3-11.9c-0.1-3.9-1.7-7.7-4.5-10.4
									c-1.3-1.1-2.7-2-4.2-2.7c-3.5-1.9-7.2-3.4-11-4.6l0.4-1.3c3.9,1.3,7.6,2.8,11.2,4.7c1.6,0.8,3.1,1.8,4.5,3
									c3,3,4.8,7.1,4.9,11.4C105.2,33.7,104.8,37.9,103.8,41.9z"/>
								<path id="Path_112939" class="st4" d="M87.9,34c-5.6-2.2-11.6-3.3-17.6-3c-0.7,0-1.5,0.1-2.2,0.1c-2.3,0.3-4.7,0.2-7-0.1
									c-3.3-0.4-6.1-2.5-7.4-5.6l1.3-0.4c1.1,2.6,3.6,4.3,6.3,4.7c2.2,0.3,4.4,0.3,6.6,0.1c0.8-0.1,1.5-0.1,2.2-0.1
									c6.2-0.3,12.4,0.8,18.2,3.1L87.9,34z"/>
								<path id="Path_112940" class="st4" d="M94,39.6c-0.4-1.7-1.5-3.2-3-4.2c-1.6-1-3.2-1.8-5-2.4c-3.1-1.1-6.2-2-9.4-2.5
									c-2.6-0.3-5.2-0.5-7.8-0.4L60.6,30l0-1.4l8.2,0.1c2.7,0,5.3,0.1,7.9,0.4c3.3,0.5,6.5,1.4,9.7,2.5c1.9,0.6,3.7,1.4,5.3,2.5
									c1.8,1.2,3,2.9,3.6,5L94,39.6z"/>
								<path id="Path_112941" class="st4" d="M98.1,49.8c-1-2.9-1.7-5.9-1.9-9c0-0.9-0.1-1.8-0.4-2.6c-0.6-1.2-1.6-2.1-2.7-2.8
									c-2-1.5-4.1-2.8-6.4-3.8l0.6-1.3c2.4,1,4.6,2.4,6.6,3.9c1.4,0.8,2.5,2,3.2,3.4c0.4,1,0.5,2,0.6,3.1c0.2,2.9,0.8,5.8,1.8,8.6
									L98.1,49.8z"/>
								<path id="Path_112942" class="st4" d="M99.6,51l-1.2-0.6c0.4-0.8,1.2-1.5,2.1-1.8c0.2,0,0.5-0.1,0.7-0.3
									c0.1-0.2,0.1-0.3,0.1-0.5c0.1-2.5,0.6-5,1.4-7.4l1.3,0.4c-0.8,2.2-1.2,4.6-1.3,6.9c0,0.5-0.1,1-0.4,1.4l-0.1,0.1
									c-0.4,0.3-0.8,0.5-1.3,0.6C100.3,50.1,99.8,50.5,99.6,51z"/>
								<path id="Path_112943" class="st4" d="M50,71.8l-1.1-6.7c-0.1-0.5-0.2-1-0.2-1.4c-0.3-1.9-0.7-3.7-1.2-5.5l1.3-0.3
									c0.5,1.9,0.9,3.8,1.2,5.6c0.1,0.5,0.2,1,0.3,1.4l1.1,6.7L50,71.8z"/>
								<path id="Path_112944" class="st4" d="M64.5,87.5c-3.6-2-6.8-4.5-9.6-7.5c-2.9-3-4.9-6.7-6-10.7c-0.2-0.9-0.3-1.8-0.5-2.6
									c-0.2-1.8-0.6-3.5-1.4-5.1l1.3-0.6c0.8,1.8,1.3,3.6,1.5,5.5c0.1,0.8,0.3,1.7,0.5,2.5c1,3.8,2.9,7.3,5.6,10.1
									c2.8,2.8,5.9,5.3,9.3,7.2L64.5,87.5z"/>
								<path id="Path_112945" class="st4" d="M72.5,92.4h-0.3c-1.4-0.1-2.7-0.5-4-1.1c-4.8-2-9.2-5-12.9-8.6l1-1
									c3.6,3.5,7.9,6.4,12.5,8.3c1.1,0.5,2.3,0.9,3.5,1c2.5-0.2,5-1.2,6.9-2.9c0.7-0.5,1.5-1,2.3-1.4c1-0.6,2.1-1.1,3.1-1.6
									c3.4-1.1,6.2-3.5,7.9-6.7l3.1-5.1l1.2,0.7l-3.1,5c-1.8,3.4-4.8,6-8.5,7.3c-1,0.5-2,1-3,1.5c-0.7,0.4-1.5,0.9-2.2,1.4
									C77.8,91.1,75.3,92.2,72.5,92.4z"/>
								<path id="Path_112946" class="st4" d="M88.9,83.7l-1.3-0.6c0.6-1.3,1.6-2.4,2.8-3.1c3.7-3.7,6-8.6,6.4-13.8
									c0.3-1.9,0.4-3.8,0.6-5.7c0.2-3.5,0.7-7,1.5-10.4l1.3,0.4c-0.8,3.3-1.3,6.7-1.5,10.2c-0.2,1.9-0.3,3.9-0.6,5.8
									c-0.4,5.6-2.9,10.9-6.9,14.8C90.2,81.7,89.4,82.6,88.9,83.7z"/>
								<path id="Path_112947" class="st4" d="M44,64.4l-0.2-4.2c0-0.5-0.1-0.9-0.2-1.4c-0.2-0.5-0.5-0.9-0.9-1.3
									c-0.8-1-1.6-2-2.3-3.1c-0.5-0.8-0.9-1.6-1.1-2.5c-0.3-1,0-2.1,0.6-3c0.8-1,2.1-1.2,3.2-0.6c0.2,0.1,0.4,0.3,0.6,0.5
									c0.2,0.2,0.4,0.3,0.4,0.3l0,1.4c-0.5,0-1-0.3-1.4-0.7c-0.1-0.1-0.2-0.2-0.3-0.3c-0.5-0.2-1-0.1-1.4,0.3
									c-0.4,0.5-0.5,1.2-0.4,1.8c0.2,0.7,0.5,1.5,0.9,2.1c0.6,1,1.4,2,2.1,3c0.5,0.5,0.8,1.1,1.1,1.7c0.2,0.6,0.3,1.2,0.3,1.9
									l0.2,4.1L44,64.4z"/>
								<path id="Path_112948" class="st4" d="M47.2,67.3c-0.4,0-0.9-0.1-1.3-0.3c-0.8-0.5-1.4-1.3-1.8-2.2c-0.4-0.7-0.7-1.4-1-2.2
									c-0.2-0.5-0.3-1-0.4-1.6c-0.1-0.4-0.2-0.9-0.4-1.3c-0.3-1-0.8-2-1.5-2.8l1.1-0.9c0.8,1,1.4,2.1,1.8,3.2
									c0.1,0.5,0.3,0.9,0.4,1.4s0.2,0.9,0.4,1.4c0.3,0.7,0.6,1.4,0.9,2.1c0.2,0.6,0.7,1.2,1.3,1.6c0.6,0.2,1.2,0.1,1.6-0.4l1,0.9
									C48.8,67,48,67.3,47.2,67.3z"/>
								<path id="Path_112949" class="st4" d="M103.1,64.3l-1.3-0.5c0.5-1.4,0.8-2.9,0.9-4.4c-0.1-2.2,0.6-4.4,2.1-6.1
									c0.6-0.9,0.9-2.1,0.6-3.2c-0.1-0.1-0.2-0.3-0.3-0.4c-0.4-0.2-0.9-0.2-1.2,0.1c-0.7,0.4-1.4,0.7-2.1,0.9l-0.3-1.4
									c0.6-0.1,1.2-0.4,1.7-0.7c0.8-0.5,1.8-0.5,2.7-0.1l0.1,0.1c0.4,0.3,0.7,0.7,0.8,1.1c0.4,1.5,0.1,3.1-0.8,4.4
									c-0.7,1-1.3,2.1-1.7,3.3c-0.1,0.7-0.1,1.3-0.1,2C104,61.1,103.6,62.7,103.1,64.3z"/>
								<path id="Path_112950" class="st4" d="M100.3,65.6c-0.5,0-0.9-0.1-1.3-0.3c-0.6-0.3-1-1-1-1.8l1.4,0.1
									c0,0.2,0.1,0.4,0.3,0.5c0.3,0.1,0.6,0.2,0.9,0.1c0.6,0,1.2-0.4,1.5-1c0.1-0.4,0.2-0.7,0.2-1.1c0.1-1,0.3-2,0.6-2.9l1.3,0.4
									c-0.2,0.9-0.4,1.7-0.5,2.6c0,0.5-0.1,1.1-0.3,1.6c-0.5,1-1.5,1.7-2.6,1.8C100.5,65.6,100.4,65.6,100.3,65.6z"/>
								<path id="Path_112951" class="st4" d="M58.3,94.5c-0.1-1,0.1-2.1,0.5-3c0.2-0.5,0.3-1,0.4-1.5c0.1-0.8,0-1.6-0.1-2.4
									l1.4-0.3c0.4,1.6,0.2,3.2-0.4,4.7c-0.3,0.7-0.5,1.5-0.4,2.4L58.3,94.5z"/>
								<path id="Path_112952" class="st4" d="M48.2,105.8l-1.4-0.2l1-5.5c0.2-3.7,2.1-7,5.3-9l3-2.3l0.8,1.1l-3.1,2.4
									c-2.8,1.7-4.5,4.7-4.7,8L48.2,105.8z"/>
								<path id="Path_112953" class="st4" d="M48.1,115.4l-1.4-0.3c0.5-2.2,0.7-4.5,0.4-6.8c-0.1-0.6-0.2-1.1-0.4-1.8
									c-0.1-0.3-0.2-0.7-0.2-1c-0.5-2.2-0.6-4.4-0.4-6.6l1.4,0.1c-0.2,2.1-0.1,4.1,0.4,6.2c0.1,0.3,0.1,0.6,0.2,1
									c0.2,0.6,0.3,1.3,0.4,1.9C48.8,110.5,48.7,113,48.1,115.4z"/>
								<path id="Path_112954" class="st4" d="M46.4,114.2l-1.1-0.9c0.8-1.4,1.2-3,1-4.6v-0.2c0-4.2,0.5-8.4,1.5-12.5l1.4,0.3
									c-1,4-1.5,8-1.5,12.1v0.2C47.9,110.7,47.4,112.6,46.4,114.2z"/>
								<path id="Path_112955" class="st4" d="M45.4,117.8l-0.2-1.4c2.2-0.1,4.1-1.2,5.4-3c0.3-0.3,0.5-0.6,0.7-0.9
									c1.4-1.4,3.1-2.5,4.9-3.3c1.3-0.8,2.8-1.2,4.3-1.3l0,1.4c-1.3,0-2.5,0.4-3.6,1.1c-1.7,0.7-3.2,1.8-4.6,3
									c-0.2,0.2-0.4,0.5-0.7,0.8c-0.4,0.5-0.8,0.9-1.2,1.3C49,116.8,47.3,117.5,45.4,117.8z"/>
								<path id="Path_112956" class="st4" d="M61.5,109.7c-0.5-1.1-1.1-2.2-1.9-3.2c-0.7-1-1.3-2.1-1.9-3.2
									c-1.1-2.4-1.4-5.2-0.8-7.8l1.4,0.3c-0.5,2.3-0.3,4.7,0.7,6.9c0.5,1,1.1,2,1.8,3c0.8,1.1,1.4,2.2,2,3.4L61.5,109.7z"/>
								<path id="Path_112957" class="st4" d="M60.7,106.1c-1.8-2.9-2.7-6.3-2.7-9.7L57.7,93l1.4-0.1l0.3,3.4c0,3.2,0.8,6.3,2.4,9
									L60.7,106.1z"/>
								<path id="Path_112958" class="st4" d="M87.5,108l-1.3-0.4c1.6-4.8,1.5-10.1-0.4-14.8c-0.8-1.6-1.3-3.4-1.4-5.2l1.4-0.1
									c0.1,1.7,0.5,3.3,1.3,4.7C89.1,97.3,89.2,102.9,87.5,108z"/>
								<path id="Path_112959" class="st4" d="M83.5,111.7l-0.9-1c1.7-1.5,2.8-3.7,2.9-6c0.1-1.3,0.1-2.7,0.1-4.1c0-1.1,0-2.2,0-3.3
									l1.4,0.1c-0.1,1.1,0,2.2,0,3.2c0.1,1.4,0,2.8-0.1,4.2C86.8,107.5,85.6,110,83.5,111.7z"/>
								<path id="Path_112960" class="st4" d="M97.5,117.8c-1.8-1.1-3.4-2.4-4.9-3.9c-0.7-0.8-1.5-1.5-2.5-2.1
									c-1.5-0.6-3-0.7-4.6-0.5h-0.1c-0.2,0-0.3,0-0.4,0.1l-0.8-1.2c0.3-0.2,0.8-0.4,1.2-0.4c1.8-0.3,3.6-0.1,5.3,0.6l0.1,0
									c1,0.6,2,1.4,2.8,2.4c1.4,1.4,3,2.6,4.6,3.6L97.5,117.8z"/>
								<path id="Path_112961" class="st4" d="M99.4,110.4c-1.3-2.5-2-5.2-2.2-8c-0.2-2.2-0.7-4.4-1.5-6.5c-2-3.6-4.9-6.7-8.4-8.8
									l0.8-1.1c6.2,3.1,10.2,9.4,10.5,16.3c0.2,2.6,0.9,5.2,2.1,7.5L99.4,110.4z"/>
								<path id="Path_112962" class="st4" d="M101.8,118.1c-1.4-2.1-2.5-4.5-3.1-7c-0.2-0.8-0.5-1.6-0.8-2.3c-0.7-2.1-1.6-4-2.7-6
									l1.2-0.7c1.1,2,2,4,2.8,6.2c0.3,0.8,0.5,1.6,0.8,2.4c0.5,2.3,1.5,4.5,2.8,6.5L101.8,118.1z"/>
								<path id="Path_112963" class="st4" d="M73.4,126.9c-1.2-2.7-2.5-5.3-3.8-8c-0.3-0.6-0.7-1.2-1.1-1.7
									c-0.4-0.3-0.8-0.6-1.3-0.8c-2.5-1.4-4.5-3.6-5.6-6.3l1.3-0.6c1,2.4,2.8,4.3,5,5.6c0.5,0.3,1.1,0.6,1.5,1
									c0.6,0.6,1.1,1.3,1.5,2.2c1.3,2.6,2.6,5.3,3.8,8L73.4,126.9z"/>
								<path id="Path_112964" class="st4" d="M74.3,133.3h-1.4c0-2-0.1-4-0.3-5.9c-0.1-1.3-0.4-2.6-0.9-3.8
									c-0.7-1.2-1.6-2.3-2.6-3.3l0.9-1c1.2,1.1,2.2,2.3,2.9,3.7c0.6,1.4,0.9,2.8,1,4.3C74.2,129.3,74.3,131.3,74.3,133.3z"/>
								<path id="Path_112965" class="st4" d="M72.5,124.3c-0.3-1.9,0.3-3.8,1.5-5.3c1-1.8,2.3-3.4,3.8-4.8c0.7-0.5,1.2-1.1,1.7-1.8
									l1.2,0.8c-0.5,0.8-1.2,1.5-2,2c-1.3,1.3-2.5,2.8-3.5,4.5c-1,1.1-1.5,2.7-1.4,4.2L72.5,124.3z"/>
								<path id="Path_112966" class="st4" d="M73.6,121.3l-1.1-0.9l2.7-3.5c1.3-1.9,2.9-3.5,4.8-4.9l0.8,1.1
									c-1.8,1.3-3.3,2.8-4.5,4.6L73.6,121.3z"/>
								<path id="Path_40757" class="st4" d="M44.3,101.1"/>
								<path id="Path_112967" class="st4" d="M7.7,140l-1.4-0.1c0.5-4.9,1.3-9.8,2.2-14.6c0.3-1.6,0.7-3.3,1.4-4.8
									c1.4-2.8,3.6-5.1,6.2-6.8l0.5-0.4c2.1-1.8,4.6-3.2,7.2-3.9l0.3,1.4c-2.5,0.7-4.8,2-6.7,3.7l-0.6,0.4
									c-2.4,1.5-4.4,3.7-5.7,6.2c-0.6,1.4-1,2.9-1.3,4.5C8.9,130.3,8.2,135.2,7.7,140z"/>
								<path id="Path_112968" class="st4" d="M6,174.2l-1.4-0.1c0.6-16.6,1.5-33.4,2.5-49.9l1.4,0.1C7.4,140.8,6.6,157.6,6,174.2z"
									/>
								<path id="Path_112969" class="st4" d="M1.5,198.6c-1.2-4.1-1.5-8.4-0.8-12.6c0.1-2.1,0.4-4.2,0.9-6.3
									c0.3-1.2,0.7-2.4,1.1-3.6c0.3-0.9,0.6-1.9,0.9-2.8c1.3-6.1,1.3-12.4,0.3-18.6l1.4-0.2c1.1,6.3,1,12.8-0.3,19.1
									c-0.2,1-0.6,2-0.9,2.9c-0.4,1.1-0.8,2.3-1,3.4c-0.4,2-0.7,4-0.8,6.1c-0.6,4-0.4,8.1,0.8,12L1.5,198.6z"/>
								<path id="Path_112970" class="st4" d="M18.8,199.6c-4.7-0.7-9.4-0.8-14.1-0.3l-0.2-1.4c4.8-0.6,9.7-0.5,14.4,0.3L18.8,199.6
									z"/>
								<path id="Path_112971" class="st4" d="M21.8,201.2c-1.3-0.8-1.4-0.8-2.1-0.7c-0.7,0.1-1.4,0.2-2.1,0.2
									c-4.5,0-9.1,0.2-13.5,0.4L4,200.5l0.1-0.7c4.5-0.2,9.1-0.5,13.6-0.4c0.6,0,1.2,0,1.8-0.2c1-0.2,1.5-0.1,3.1,0.9L21.8,201.2z
									"/>
								<path id="Path_112972" class="st4" d="M126.4,112.3c-4.8-2.1-9.7-3.9-14.7-5.2c-2.2-0.5-4.4-1.2-6.5-2.1c-2.2-1-4-2.8-5-5
									l1.3-0.6c0.8,1.9,2.3,3.5,4.3,4.3c2,0.9,4.1,1.6,6.3,2c5.1,1.4,10.1,3.1,15,5.3L126.4,112.3z"/>
								<path id="Path_112973" class="st4" d="M131.7,120.4c-1.8-2-4.3-3.3-7.1-3.6l-1-0.2c-5.4-1.4-10.4-4-14.6-7.6l0.9-1.1
									c4.1,3.4,8.9,5.9,14.1,7.3l1,0.2c3.1,0.3,5.9,1.8,7.9,4.2L131.7,120.4z"/>
								<path id="Path_112974" class="st4" d="M142.6,179.9l-4-39.9c-0.3-6.3-1.7-12.5-4.2-18.3c-2.6-5-8.1-10-14.5-9.7l-0.1-1.4
									c6.8,0.2,13,4.2,15.8,10.5c2.6,6,4.1,12.3,4.4,18.8l4,39.9L142.6,179.9z"/>
								<path id="Path_112975" class="st4" d="M139.1,186.6c-1.2-9.5-1.7-19-1.5-28.6l1.4,0c-0.2,9.5,0.3,19,1.5,28.4L139.1,186.6z"
									/>
								
									<rect id="Rectangle_17525" x="118.6" y="188.4" transform="matrix(0.9963 -8.602554e-02 8.602554e-02 0.9963 -15.9533 10.972)" class="st4" width="1.4" height="4.3"/>
								<rect id="Rectangle_17526" x="118.8" y="189.8" class="st4" width="1.4" height="0.7"/>
								<path id="Path_112976" class="st4" d="M33.2,177.9l-1.4-0.1c0-4.8-1-9.5-3-13.8l-4.9-12.9c-1.8-4.6-3.2-9.1-1.8-13.4
									l1.3,0.4c-1.3,3.9,0.1,8.1,1.8,12.5l4.9,12.9C32.2,168,33.2,173,33.2,177.9z"/>
								<path id="Path_112977" class="st4" d="M27.4,250.4c-0.8-7.8-0.5-15.7,0.7-23.4l1.4,0.2c-1.2,7.6-1.4,15.4-0.7,23.1
									L27.4,250.4z"/>
								<path id="Path_112978" class="st4" d="M65.1,265.6c-7.6-0.1-15.1-1.4-22.3-3.8l-2.1-0.8c-2-1-4.1-1.6-6.3-2
									c-1.6-0.2-3.4,0-5.2-0.2c-0.5,0-1-0.2-1.4-0.6l-0.1-0.1c-0.3-0.4-0.4-1-0.4-1.5l0-6h1.4l0,6.1c0,0.2,0,0.4,0.1,0.6
									c0.1,0.1,0.3,0.1,0.5,0.1c1.8,0.2,3.5,0,5.3,0.2c2.3,0.4,4.6,1.1,6.7,2.1l2,0.8c7.1,2.3,14.4,3.6,21.9,3.7L65.1,265.6z"/>
								<path id="Path_112979" class="st4" d="M68.8,269.2c-3.4-0.4-6.7-1.3-9.8-2.6c-1.6-0.6-3.3-1.2-5-1.7c-3.9-1-8-1.6-12-1.8
									c-1.4-0.1-2.9-0.2-4.3-0.4c-3.8,0-7.4-1.6-10-4.3l1.1-0.8c2.4,2.4,5.6,3.8,9,3.7c1.4,0.2,2.9,0.3,4.3,0.4
									c4.1,0.2,8.3,0.8,12.3,1.8c1.7,0.5,3.5,1.1,5.1,1.7c3,1.3,6.2,2.1,9.4,2.5L68.8,269.2z"/>
								<path id="Path_112980" class="st4" d="M75.1,215.7l-1.4-0.2c4.8-27.3,1.9-55.9-1.1-80.6l1.4-0.2
									C77,159.5,79.9,188.3,75.1,215.7z"/>
								<path id="Path_112981" class="st4" d="M96.2,147.2c-1.5,0-2.9-0.4-4.2-1.1l0.7-1.2c1.3,0.7,2.9,1,4.4,0.9l14.9,0v1.4
									l-14.8,0C96.8,147.2,96.5,147.2,96.2,147.2z"/>
								<path id="Path_112982" class="st4" d="M108.7,149.5c-5,0-9.9-0.4-14.9-1.2l0.2-1.4c7.5,1.2,15.1,1.5,22.6,0.8l0.1,1.4
									C114.2,149.4,111.4,149.5,108.7,149.5z"/>
								<path id="Path_112983" class="st4" d="M6.5,248.1c-1.3-12.2-2.1-23-2.5-32.9c0-4.4-0.5-8.7-1.3-13l1.4-0.3
									c0.9,4.3,1.3,8.8,1.3,13.2c0.4,9.9,1.2,20.6,2.5,32.8L6.5,248.1z"/>
								<path id="Path_40785" class="st4" d="M23.6,251.2"/>
								<path id="Path_112984" class="st4" d="M8.8,264.2C8.6,259.6,8,255,7,250.5c-2.2-11.4-2.9-23-2-34.5l1.4,0.1
									c-0.8,11.4-0.2,22.9,2,34.1c1,4.6,1.6,9.2,1.9,13.9L8.8,264.2z"/>
								<path id="Path_112985" class="st4" d="M23.1,274.9l-1.3-0.3c0.5-2.6,0.4-5.3-0.3-7.9c-0.2-0.9-0.3-1.8-0.4-2.7
									c-0.6-4.6-0.2-9.3,1.3-13.8l1.3,0.4c-1.4,4.2-1.8,8.7-1.2,13.1c0.1,0.9,0.3,1.8,0.4,2.6C23.5,269.2,23.6,272.1,23.1,274.9z"
									/>
								<path id="Path_112986" class="st4" d="M8.4,281.5c-1.2-1.7-1.6-3.8-1.2-5.9c0.2-1,0.4-2,0.6-2.9c0.2-0.8,0.4-1.7,0.6-2.6
									c0.2-1.8,0.3-3.6,0-5.4l1.4-0.2c0.2,1.9,0.2,3.9,0,5.8c-0.1,0.9-0.4,1.8-0.6,2.7c-0.3,0.9-0.5,1.9-0.6,2.8
									c-0.3,1.7,0,3.5,1,4.9L8.4,281.5z"/>
								<path id="Path_112987" class="st4" d="M19.9,284.9c-1.6-0.4-3.1-1-4.5-1.9c-0.3-0.2-0.6-0.4-0.9-0.5c-0.3,0-0.5,0-0.7,0.1
									l-2.3,0.7l-0.4-1.3l2.3-0.7c0.5-0.2,0.9-0.2,1.4-0.2c0.5,0.1,1.1,0.3,1.5,0.7c1.2,0.8,2.6,1.3,4,1.7L19.9,284.9z"/>
								<path id="Path_112988" class="st4" d="M21.8,284.8l-1.2-0.7c1.1-2,2-4.1,2.7-6.3l1.3,0.4C23.9,280.6,22.9,282.8,21.8,284.8z
									"/>
								<path id="Path_112989" class="st4" d="M24.7,280.8l-1.4-0.3c0.4-1.9,0.5-3.8,0.3-5.7l1.4-0.2
									C25.2,276.7,25.1,278.8,24.7,280.8z"/>
								
									<rect id="Rectangle_17527" x="183.8" y="66" transform="matrix(6.348725e-02 -0.998 0.998 6.348725e-02 109.1276 249.7252)" class="st4" width="7.7" height="1.4"/>
								<path id="Path_112990" class="st4" d="M186.4,67.9c-0.2-1.4-0.1-2.9,0.3-4.2c0.3-0.6,0.6-1.1,1-1.6c0.9-1.2,1.9-2.2,3-3.1
									l0.9,1.1c-1.1,0.9-2,1.8-2.8,2.9c-0.3,0.4-0.6,0.8-0.8,1.3c-0.4,1.1-0.4,2.3-0.2,3.5L186.4,67.9z"/>
								<path id="Path_112991" class="st4" d="M185.5,65.3c-0.5-0.3-0.9-0.7-1.2-1.2c-1-1.4-2.8-2.1-4.4-1.5c-0.2,0-0.4,0-0.5,0.1
									c0-0.1,0.1-0.1,0.1-0.2l-1.4,0.2c-0.1-0.3,0-0.7,0.3-0.9c0.4-0.4,1-0.6,1.6-0.6c2.1-0.6,4.3,0.3,5.6,2.1
									c0.2,0.3,0.5,0.6,0.9,0.9L185.5,65.3z"/>
								<path id="Path_112992" class="st4" d="M178.1,60.4l-0.2-8.6c-0.6-5.5,1.3-10.9,5.2-14.7c1.1-1.3,2.1-2.7,3-4.2l1.2,0.7
									c-0.9,1.5-2,2.9-3.1,4.3c-3.7,3.6-5.6,8.7-5,13.8l0.2,8.6L178.1,60.4z"/>
								<path id="Path_112993" class="st4" d="M179.4,41.7l-1.4-0.2c0.3-1.9,1.2-3.7,2.5-5.2c1.3-1.3,2.6-2.6,4-3.8
									c0.7-0.6,1.3-1.3,2-1.9c2.4-2.9,5.5-5,9-6.2l0.3,1.4c-3.3,1.1-6.1,3.1-8.3,5.8c-0.7,0.7-1.3,1.3-2,2
									c-1.4,1.2-2.7,2.4-3.9,3.7C180.4,38.5,179.7,40,179.4,41.7z"/>
								<path id="Path_112994" class="st4" d="M234.3,77.6c-0.8-3-1.1-6.1-0.9-9.2c0.2-3.3,1.8-6.3,4.4-8.2l0.8,1.1
									c-2.3,1.8-3.7,4.4-3.9,7.2c-0.2,2.9,0.1,5.9,0.8,8.8L234.3,77.6z"/>
								<path id="Path_112995" class="st4" d="M201.4,96.3c-3.5-3.3-6.7-6.9-9.5-10.8c-2.8-4-4.5-8.7-4.9-13.6l1.4-0.1
									c0.3,4.7,1.9,9.1,4.6,12.9c2.7,3.8,5.9,7.4,9.3,10.6L201.4,96.3z"/>
								<path id="Path_112996" class="st4" d="M210.8,102.6c-2.2-0.3-4.2-1.3-5.8-2.8l-5-4.1c-4-3-7-7.1-8.7-11.8l1.2-0.5
									c1.6,4.5,4.4,8.3,8.2,11.2l5,4.2c1.4,1.5,3.4,2.5,5.4,2.5c1-0.2,1.9-0.6,2.7-1.1c4-2.2,7.7-4.8,11.2-7.7c1-0.9,2-2,2.7-3.1
									c1.1-1.9,1.9-3.9,2.4-6l1.3,0.4c-0.5,2.2-1.4,4.4-2.5,6.4c-0.8,1.3-1.8,2.4-3,3.5c-3.5,3-7.3,5.6-11.3,7.9
									c-0.9,0.6-2,1.1-3.1,1.3C211.2,102.6,211,102.6,210.8,102.6z"/>
								<path id="Path_112997" class="st4" d="M227.6,91.3l-1.2-0.8l2.4-3.8c0.4-0.6,0.8-1.3,1.1-2.1c0.1-0.4,0.3-0.9,0.4-1.3
									c0.1-0.9,0.5-1.8,0.9-2.6l1.2,0.8c-0.4,0.7-0.6,1.4-0.7,2.1c-0.2,1.4-0.8,2.7-1.6,3.9L227.6,91.3z"/>
								<path id="Path_112998" class="st4" d="M183.9,77.7c-2.4-3.1-4-6.7-4.9-10.5c-0.2-0.8-0.3-1.5-0.1-2.3c0.1-1,0.8-1.8,1.7-2.1
									l0.4,1.3c-0.4,0.1-0.7,0.5-0.8,1c-0.1,0.6-0.1,1.2,0.1,1.8c0.8,3.6,2.4,7,4.6,10L183.9,77.7z"/>
								<path id="Path_112999" class="st4" d="M186.4,80.9c-0.2,0-0.4,0-0.6-0.1c-0.8-0.5-1.2-1.4-1-2.3c0.1-0.6,0.4-1.1,0.8-1.5
									c0.6-0.4,1.4-0.5,2,0l-0.8,1.1c-0.1-0.1-0.3-0.1-0.4,0c-0.2,0.1-0.3,0.4-0.3,0.6c-0.1,0.3,0,0.6,0.3,0.8
									c0.1,0,0.1-0.1,0.1-0.1l1.4-0.2c0.1,0.5-0.1,1-0.5,1.3C187.1,80.8,186.8,80.9,186.4,80.9z"/>
								<path id="Path_113000" class="st4" d="M179.4,67.8c-0.3-1.8,0.8-3.5,2.5-4l0.4,1.3c-1.1,0.3-1.7,1.4-1.6,2.5L179.4,67.8z"/>
								<path id="Path_113001" class="st4" d="M237.4,79.9l-1.1-0.9c1.3-1.5,2.3-3.3,3-5.2c0.5-1.1,0.9-2.3,1.2-3.5
									c0.2-2-0.1-4-0.7-5.9c0-0.1,0-0.2-0.1-0.2c-0.1,0-0.1,0-0.2,0c-0.8,0.2-1.5,0.6-2.2,1.1l-0.9-1.1c0.8-0.6,1.7-1.1,2.6-1.4
									c0.5-0.2,1-0.1,1.4,0.1l0.1,0.1c0.3,0.3,0.4,0.6,0.5,0.9c0.7,2.1,1,4.3,0.8,6.4c-0.3,1.3-0.7,2.6-1.3,3.8
									C240,76.4,238.9,78.3,237.4,79.9z"/>
								<path id="Path_113002" class="st4" d="M236.3,82.1l-0.4-1.3c0.3-0.1,0.5-0.4,0.4-0.8c0,0,0,0,0-0.1
									c-0.1-0.1-0.2-0.3-0.3-0.3l0.5-1.3c1,0.4,1.5,1.6,1.1,2.6C237.3,81.5,236.8,82,236.3,82.1L236.3,82.1z"/>
								<path id="Path_113003" class="st4" d="M194.4,114.3l-0.9-1.1c0.9-0.8,1.7-1.7,2.3-2.7c1.5-2,2.7-4.3,3.5-6.7
									c0.4-1.6,0.7-3.2,0.7-4.9c0-0.6,0-1.1-0.2-1.7l1.3-0.4c0.2,0.7,0.3,1.4,0.2,2.1c0,1.8-0.3,3.5-0.8,5.2
									c-0.9,2.5-2.1,4.9-3.7,7C196.3,112.4,195.4,113.5,194.4,114.3z"/>
								<path id="Path_113004" class="st4" d="M227.4,114.8c-1-0.9-1.8-2-2.5-3.2c-2.4-3.8-4.2-8-5.3-12.4l1.4-0.3
									c1.1,4.3,2.8,8.3,5.1,12.1c0.6,1.1,1.4,2,2.3,2.9L227.4,114.8z"/>
								<path id="Path_113005" class="st4" d="M199.3,134.2c-0.5-2.6-1.5-5.2-2.9-7.5c-0.4-0.8-0.8-1.5-1.2-2.3
									c-0.9-1.9-1.7-3.8-2.3-5.8l1.3-0.4c0.6,1.9,1.3,3.8,2.2,5.6c0.4,0.8,0.8,1.5,1.2,2.3c1.5,2.4,2.5,5.1,3.1,7.9L199.3,134.2z"
									/>
								<path id="Path_113006" class="st4" d="M204.1,138.3c-2.7-2-4.9-4.5-6.8-7.3c-0.5-0.9-1-1.8-1.7-2.7l1.1-0.9
									c0.7,0.9,1.3,1.8,1.8,2.8c1.7,2.6,3.9,5,6.4,6.9L204.1,138.3z"/>
								<path id="Path_113007" class="st4" d="M152.8,148.7l-1.4-0.2c0.3-1.8,0.5-3.6,0.6-5.5c-0.1-4,0.9-8,2.7-11.5
									c1.4-2.1,3.3-4,5.4-5.4c5.2-3.7,11.1-6.3,17.4-7.5c0.4-0.1,0.9-0.2,1.4-0.2c2.4-0.3,4.8-1,6.9-2.3l0.8,1.1
									c-2.3,1.4-4.8,2.3-7.4,2.6c-0.4,0.1-0.9,0.2-1.3,0.2c-6.1,1.2-11.8,3.7-16.9,7.3c-2,1.3-3.7,3-5,5
									c-1.7,3.4-2.5,7.1-2.5,10.9C153.3,144.9,153.1,146.8,152.8,148.7z"/>
								<path id="Path_113008" class="st4" d="M149.5,178.6c-0.4-16-0.9-34.1,5.6-50.2l1.3,0.5c-6.3,15.8-5.9,33.7-5.5,49.6
									L149.5,178.6z"/>
								<path id="Path_113009" class="st4" d="M163.2,185c-2.8,0-5.6-0.6-8.2-1.8c-2.2-0.9-4.3-2-6.3-3.2l0.7-1.2
									c2,1.2,4,2.3,6.1,3.1c2.7,1.2,5.6,1.8,8.5,1.6l0.1,1.4C163.8,185,163.5,185,163.2,185z"/>
								<path id="Path_113010" class="st4" d="M164.6,185.5c-4.1-0.8-8.1-2-12-3.6l0.5-1.3c3.8,1.6,7.7,2.7,11.7,3.5L164.6,185.5z"
									/>
								<path id="Path_113011" class="st4" d="M166.6,184.7l-1.4-0.1c0.3-6.5,1.9-12.9,4.8-18.8l1.3,0.6
									C168.5,172.2,166.9,178.4,166.6,184.7z"/>
								<path id="Path_113012" class="st4" d="M170.5,165.8l-1.4-0.1c0.2-2.8,0.1-5.7-0.4-8.4l1.4-0.2
									C170.6,159.9,170.7,162.9,170.5,165.8z"/>
								<path id="Path_113013" class="st4" d="M172,160.4l-0.9-1c4.8-4.3,10-8.2,15.6-11.6l0.7,1.2
									C181.8,152.3,176.7,156.1,172,160.4z"/>
								<path id="Path_113014" class="st4" d="M172.5,161.7l-1.1-0.9c4.1-4.9,8.9-9.2,14.1-12.8l0.8,1.1
									C181.2,152.7,176.5,157,172.5,161.7z"/>
								<path id="Path_113015" class="st4" d="M182.9,150.8l-0.7-1.2c3.5-2,7.1-3.7,10.8-5.1l0.5,1.3
									C189.8,147.1,186.3,148.8,182.9,150.8z"/>
								<path id="Path_113016" class="st4" d="M200.9,142.3l-0.9-1.1c4.9-4.2,10.4-7.7,16.3-10.3c1.1-0.5,2.1-1,2.4-1.8l1.3,0.5
									c-0.6,1.3-1.8,2.2-3.1,2.6C211.1,134.8,205.7,138.1,200.9,142.3z"/>
								<path id="Path_113017" class="st4" d="M202.1,140.4l-0.7-1.2c2.6-1.4,5.2-2.8,7.8-4.2c1.9-1,3.7-2.1,5.3-3.4
									c0.6-0.5,1.2-1.1,1.8-1.7c0.8-0.9,1.7-1.7,2.7-2.4c0.7-0.5,1.5-1,2.3-1.5c1.7-0.8,3.2-2.1,4.2-3.7l1.3,0.6
									c-1.1,1.9-2.8,3.4-4.8,4.3c-0.8,0.4-1.5,0.9-2.2,1.4c-0.9,0.7-1.7,1.5-2.5,2.3c-0.6,0.6-1.2,1.2-1.9,1.8
									c-1.7,1.4-3.6,2.6-5.6,3.6C207.4,137.6,204.8,139,202.1,140.4z"/>
								<path id="Path_40890" class="st4" d="M232.9,122.9"/>
								<path id="Path_113018" class="st4" d="M273.4,186.9l-0.9-41.7c-0.1-5.9-0.6-11.9-4.5-15.6c-2.5-2.1-5.5-3.5-8.8-4.2
									c-8.4-2.5-17-4.7-25.5-6.6l0.3-1.4c8.5,1.9,17.1,4.1,25.5,6.6c3.4,0.7,6.6,2.3,9.3,4.5c4.2,4.1,4.8,10.4,4.9,16.6l0.9,41.7
									L273.4,186.9z"/>
								<path id="Path_113019" class="st4" d="M276.6,198.2l-1.4-0.1c0-6.5-0.8-12.9-2.2-19.2c-1.6-6.6-2.3-13.4-2.2-20.2l1.4,0.1
									c-0.1,6.7,0.7,13.3,2.2,19.8C275.9,185.1,276.6,191.7,276.6,198.2z"/>
								<path id="Path_113020" class="st4" d="M231.2,275.9l-1.4-0.2c1.3-9.5,5.2-18.1,9.7-27.6c5.1-10.7,10.5-21.4,16-31.8
									c1.9-4,4.4-7.7,7.4-11c3.2-3.4,7.8-5.1,12.4-4.7l-0.2,1.4c-4.2-0.4-8.3,1.2-11.2,4.3c-2.9,3.2-5.3,6.8-7.1,10.6
									c-5.5,10.4-10.8,21.1-16,31.8C236.3,258.1,232.5,266.6,231.2,275.9z"/>
								<path id="Path_113021" class="st4" d="M225.6,289.8l-1.4-0.3c0.7-2.6,1.4-5.1,2.4-7.6l6.7-19l1.3,0.5l-6.7,19
									C227,284.8,226.2,287.2,225.6,289.8z"/>
								<path id="Path_113022" class="st4" d="M194.3,184.5l-0.8-1.1c13.3-9.2,28.5-19.6,37.8-34.2c1.5-2,2.4-4.3,2.5-6.8l1.4,0
									c-0.2,2.7-1.1,5.4-2.8,7.5C223,164.7,207.7,175.2,194.3,184.5z"/>
								<path id="Path_113023" class="st4" d="M197.1,187.1l-0.8-1.1c13.6-9.7,25.9-21.1,36.8-33.8l1.1,0.9
									C223.2,165.8,210.8,177.2,197.1,187.1z"/>
								<path id="Path_113024" class="st4" d="M203.1,248.4l-1.2-0.8c2.3-4,4-8.3,5.1-12.8c1.7-6.8,4.6-13.2,8.7-18.9
									c4.2-6.5,8.5-13.3,13.4-19.5c1.3-1.7,2.6-3.3,4-4.9c4.8-5.3,8.8-11.2,11.9-17.6l1.3,0.5c-3.1,6.5-7.2,12.6-12.1,18
									c-1.3,1.6-2.7,3.3-4,4.9c-4.8,6.2-9.1,12.9-13.3,19.4c-2.1,3.1-3.9,6.3-5.5,9.7c-1.2,2.9-2.2,5.9-3,8.9
									C207.2,239.9,205.5,244.3,203.1,248.4z"/>
								<path id="Path_113025" class="st4" d="M206.5,259.4l-1.3-0.5c1.5-4.7,2.5-9.5,3.1-14.4c0.6-12.3,6-23.9,15-32.3
									c1.7-1.9,3.4-3.8,5-5.8c5-6.3,8.9-13.4,11.3-21l1.3,0.4c-2.5,7.8-6.4,15.1-11.6,21.5c-1.6,2-3.4,3.9-5.1,5.8
									c-8.8,8.2-14.1,19.5-14.7,31.6C209.1,249.7,208,254.6,206.5,259.4z"/>
								<path id="Path_113026" class="st4" d="M265.3,243.9l-1.4-0.3c1.2-6.3,1.8-12.6,1.8-19c0-6.8,0.7-13.5,2.1-20.2l1.4,0.3
									c-1.3,6.5-2,13.2-2,19.9C267.1,231.2,266.5,237.6,265.3,243.9z"/>
								<path id="Path_113027" class="st4" d="M257.8,257.3c-0.5-3.7-1.2-7.4-1.9-11c-1.1-4.9-1.8-9.9-2.3-14.9
									c-0.2-2.7-0.2-5.4-0.3-7.9l1.4,0c0,2.6,0.1,5.2,0.3,7.9c0.5,5,1.2,9.9,2.3,14.8c0.7,3.6,1.4,7.4,1.9,11.1L257.8,257.3z"/>
								<path id="Path_113028" class="st4" d="M263.9,255.1c-0.2-4.9,0.1-9.9,0.8-14.8l3.9-35.5l1.4,0.2l-3.9,35.5
									c-0.7,4.8-0.9,9.7-0.8,14.5L263.9,255.1z"/>
								<path id="Path_113029" class="st4" d="M261.6,258.9c-1.4,0-2.8-0.1-4.1-0.3l0.2-1.4c2.8,0.5,5.7,0.4,8.6-0.1l0.2,1.4
									C264.9,258.7,263.3,258.9,261.6,258.9z"/>
								<path id="Path_113030" class="st4" d="M264.2,260.2c-2.1,0-4.3-0.1-6.4-0.2l0.1-1.4c2.6,0.1,5.3,0.2,7.9,0.2l0,1.4
									C265.2,260.2,264.7,260.2,264.2,260.2z"/>
								<path id="Path_113031" class="st4" d="M263.5,261.7c-1.1,0-2.3,0-3.4-0.1c-0.6,0-1.1-0.2-1.6-0.5l0.8-1.1
									c0.2,0.2,0.5,0.3,0.8,0.2c1.7,0.1,3.4,0.1,5.1,0.1l0.1,1.4C264.7,261.7,264.1,261.7,263.5,261.7z"/>
								<path id="Path_113032" class="st4" d="M263.2,263.4c-1.6,0-3.3-0.1-4.9-0.1l0.1-1.4c2.4,0.1,4.9,0.2,7.4,0.1l0,1.4
									C265,263.4,264.1,263.4,263.2,263.4z"/>
								<path id="Path_113033" class="st4" d="M262.8,265.5c-1.7,0-3.3,0-5-0.1l0.1-1.4c2.3,0.1,4.5,0.2,6.8,0.1l0,1.4
									C264.1,265.5,263.5,265.5,262.8,265.5z"/>
								<path id="Path_113034" class="st4" d="M263.1,266.9c-1.6,0-3.1,0-4.6-0.1l0.1-1.4c2.3,0.1,4.7,0.1,7,0.1l0,1.4
									C264.7,266.8,263.9,266.9,263.1,266.9z"/>
								<rect id="Rectangle_17528" x="258.4" y="267.1" class="st4" width="6.1" height="1.4"/>
								<path id="Path_113035" class="st4" d="M261.2,286.7c-0.6-1.8-1.7-3.4-3.1-4.6c-0.5-0.4-1-0.9-1.3-1.4
									c-0.2-0.5-0.3-1-0.3-1.6c-0.1-2.4,0.2-4.9,0.9-7.2l1.3,0.4c-0.7,2.2-1,4.5-0.9,6.8c0,0.3,0,0.7,0.2,1
									c0.2,0.4,0.5,0.7,0.9,0.9c1.6,1.4,2.8,3.2,3.5,5.2L261.2,286.7z"/>
								<path id="Path_113036" class="st4" d="M265.6,291.1l-1.4-0.3c1.4-6.1,1.7-12.4,1.1-18.6l1.4-0.1
									C267.4,278.5,267,284.9,265.6,291.1z"/>
								<path id="Path_113037" class="st4" d="M267,282l-1.4-0.3c0.3-1.9,0.2-3.8-0.3-5.7c-0.7-2.4-0.7-4.9,0.1-7.3l1.3,0.6
									c-0.7,2.1-0.7,4.3,0,6.4C267.2,277.8,267.3,279.9,267,282z"/>
								<path id="Path_113038" class="st4" d="M260.3,291.6l-2.3-5.7c-1.4-2.7-1.9-5.9-1.5-8.9l0.6-7.4l1.4,0.1l-0.6,7.5
									c-0.4,2.8,0.1,5.7,1.4,8.2l2.3,5.8L260.3,291.6z"/>
								<path id="Path_113039" class="st4" d="M29.9,280.7l-1.4-0.2c0.6-5.8,0.7-11.7,0.2-17.5l1.4-0.1
									C30.6,268.8,30.6,274.8,29.9,280.7z"/>
								<path id="Path_113040" class="st4" d="M73.8,297.1c-0.2-1.6,0.1-3.2,0.8-4.6l0.2-0.4c0.6-1.5,1.1-3.1,1.4-4.7l1.4,0.3
									c-0.3,1.7-0.8,3.3-1.5,4.9l-0.2,0.4c-0.6,1.1-0.9,2.4-0.8,3.6L73.8,297.1z"/>
								
									<rect id="Rectangle_17529" x="78.3" y="286" transform="matrix(0.977 -0.213 0.213 0.977 -60.5718 23.5415)" class="st4" width="1.4" height="13.8"/>
								
									<rect id="Rectangle_17530" x="77.4" y="291" transform="matrix(0.9955 -9.466433e-02 9.466433e-02 0.9955 -27.5294 8.717)" class="st4" width="1.4" height="7.1"/>
								<path id="Path_113041" class="st4" d="M28.2,284.2l-1.3-0.4c0.5-2,0.5-4,0.2-6c-0.1-0.7-0.1-1.4-0.2-2.1
									c-0.2-3.5,0.4-6.9,1.6-10.1l1.3,0.5c-1.1,3.1-1.7,6.3-1.5,9.6c0,0.7,0.1,1.4,0.2,2.1C28.8,279.8,28.8,282,28.2,284.2z"/>
								<path id="Path_113042" class="st4" d="M251.5,275.1l-1.2-12.1c-0.2-3-0.7-6-1.3-8.9c-0.3-1.3-0.7-2.5-1.1-3.8
									c-1.1-3-1.7-6.2-1.8-9.4l1.4,0.1c0,3,0.6,6,1.7,8.9c0.4,1.3,0.8,2.6,1.1,3.9c0.7,3,1.1,6,1.3,9.1l1.2,12L251.5,275.1z"/>
								<path id="Path_113043" class="st4" d="M251.1,272.2l-1.4-0.1c0.5-4.1,0-8.3-1.2-12.2c-1.3-4-2.3-8.2-3.1-12.3l1.4-0.3
									c0.8,4.1,1.8,8.2,3.1,12.2C251.1,263.6,251.5,267.9,251.1,272.2z"/>
								<path id="Path_113044" class="st4" d="M270.6,214l-1.2-0.7c0.5-0.9,1.1-1.6,2-2.2c0.4-0.2,0.7-0.5,1-0.8
									c0.2-0.3,0.3-0.6,0.4-0.9c1-2.1,1.5-4.5,1.4-6.9l1.4,0c0.1,2.6-0.4,5.1-1.5,7.4c-0.2,0.5-0.4,0.9-0.7,1.3
									c-0.4,0.4-0.8,0.7-1.3,1C271.5,212.8,271,213.3,270.6,214z"/>
								<path id="Path_113045" class="st4" d="M249.5,248c-0.1-3.7,0.7-7.4,2.3-10.8c0.5-0.9,0.8-1.9,0.8-2.9l1.4,0
									c0,1.3-0.3,2.5-1,3.6c-1.4,3.2-2.2,6.6-2.1,10.1L249.5,248z"/>
								<path id="Path_113046" class="st4" d="M249.9,248.8l-1.4-0.2c0.6-3.8,1.3-7.7,2.1-11.5l1.4,0.3
									C251.2,241.2,250.5,245,249.9,248.8z"/>
								<path id="Path_113047" class="st4" d="M232.6,83.1l-1.4-0.3c0.3-1.2,0.7-2.3,1.3-3.3l1.2,0.7
									C233.2,81.1,232.8,82.1,232.6,83.1z"/>
								<path id="Path_113048" class="st4" d="M231.7,84.9l-1.4-0.3c0.8-3.2,1.4-6.5,2-9.6c0.2-0.9,0.3-1.7,0.4-2.6
									c-0.1-1.5,0-3,0.2-4.5l1.4,0.2c-0.2,1.4-0.3,2.8-0.2,4.3c-0.1,1-0.2,1.9-0.4,2.9C233.1,78.4,232.5,81.7,231.7,84.9z"/>
								<path id="Path_113049" class="st4" d="M203.1,149.9c-3.1-2.3-5.6-5.3-7.3-8.8c-1.7-3.4-3-6.9-4.1-10.6
									c-1.7-4.6-2.7-9.5-2.9-14.4l1.4,0c0.3,4.8,1.2,9.5,2.9,14c1,3.6,2.4,7,4,10.4c1.6,3.3,4,6.1,6.9,8.3L203.1,149.9z"/>
								<path id="Path_113050" class="st4" d="M210.6,151.9c-2.6,0-5.1-0.8-7.3-2.3l0.8-1.1c2.5,1.8,5.7,2.4,8.7,1.8
									c1.6-0.4,3.1-1,4.5-1.7c1.7-0.8,3.3-1.7,4.9-2.7c0.8-0.4,1.5-1.1,2-1.9l1.2,0.7c-0.6,1.1-1.5,1.9-2.6,2.4
									c-1.6,1-3.2,1.9-4.9,2.7c-1.5,0.8-3.2,1.4-4.8,1.8C212.3,151.8,211.5,151.9,210.6,151.9z"/>
								<path id="Path_113051" class="st4" d="M211.2,160.4L211.2,160.4c-1.3-0.3-2.4-1.1-3-2.3c-0.4-0.5-0.7-1.1-0.8-1.7
									c-0.2-0.9,0.1-1.9,0.7-2.6c0.1-0.2,0.3-0.3,0.5-0.5c0-0.5,0.3-1,0.8-1.2c0.3-0.1,0.5-0.1,0.8-0.1l2.3,0.1
									c0.5,0,1,0.1,1.5,0.2c0.7,0.3,1.2,0.9,1.4,1.7c0.2,0.6,0.3,1.2,0.2,1.9c0,0.8-0.2,1.6-0.6,2.3c-0.4,0.6-0.9,1-1.5,1.4
									C212.9,160.1,212,160.4,211.2,160.4z M210.4,153.4l0.1,0.3c-0.6,0.2-1,0.6-1.4,1c-0.3,0.4-0.5,0.9-0.4,1.4
									c0.1,0.4,0.3,0.8,0.6,1.2c0.6,0.8,1.2,1.6,2,1.7l0,0c0.6,0,1.2-0.2,1.6-0.6c0.4-0.2,0.8-0.6,1.1-1c0.2-0.5,0.4-1,0.3-1.6
									c0-0.5,0-1-0.2-1.5c-0.1-0.4-0.4-0.7-0.7-0.8c-0.3-0.1-0.6-0.1-0.9-0.1L210.4,153.4z"/>
								<path id="Path_113052" class="st4" d="M186,117.4l-0.3-1.4c0.8-0.2,1.5-0.5,2.2-0.9c0.6-0.3,1.2-0.6,1.8-0.9
									c0.4-0.1,0.8-0.2,1.2-0.3c0.4-0.1,0.8-0.2,1.2-0.4c1.2-0.7,2.4-1.5,3.5-2.4l0.9,1.1c-1.2,0.9-2.4,1.8-3.7,2.5
									c-0.5,0.2-1,0.4-1.5,0.5c-0.4,0.1-0.7,0.2-1,0.3c-0.5,0.2-1.1,0.5-1.6,0.8C187.8,116.8,186.9,117.1,186,117.4z"/>
								<path id="Path_113053" class="st4" d="M190.5,61.1l-1-1c1-1,1.8-2.1,2.3-3.4c0.4-1.7,1.2-3.2,2.3-4.5
									c1.6-1.5,3.5-2.7,5.5-3.4c1.4-0.5,2.7-1.2,3.9-2c1.7-1.3,3.1-3,4.3-4.8l1.2,0.8c-1.2,1.9-2.8,3.7-4.6,5.1
									c-1.3,0.9-2.7,1.6-4.2,2.2c-1.9,0.6-3.6,1.7-5,3c-1,1.2-1.7,2.5-2.1,4C192.6,58.6,191.7,60,190.5,61.1z"/>
								<path id="Path_113054" class="st4" d="M233.9,67.5c0-3.5-1.3-6.9-3.6-9.5c-2.3-2.6-5.3-4.6-8.6-5.8c-0.7-0.2-1.3-0.5-2-0.7
									c-1.3-0.4-2.5-0.9-3.7-1.4c-3.2-1.6-5.7-4.3-7.1-7.5l1.3-0.6c1.3,3,3.6,5.4,6.5,6.8c1.2,0.5,2.3,1,3.5,1.4
									c0.7,0.2,1.4,0.5,2,0.7c3.5,1.3,6.7,3.4,9.2,6.2c2.5,2.9,3.9,6.6,3.9,10.4L233.9,67.5z"/>
								<path id="Path_113055" class="st4" d="M230.4,32.3c-0.6-0.6-1.2-1.2-1.8-1.8c-0.7-0.8-1.5-1.5-2.3-2.2
									c-3.1-2.4-7-3.6-10.8-3.1c-1,0.1-2,0.4-2.9,0.8c-0.9,0.4-1.9,0.6-2.8,0.8c-1.2,0.1-2.4-0.1-3.6-0.5
									c-0.8-0.3-1.5-0.4-2.3-0.5c-2.2-0.2-4.5,0-6.6,0.6c-0.3,0.1-0.6,0.2-0.9,0.3s-0.6,0.2-0.9,0.3c-0.9,0.3-1.7,0.5-2.6,0.6
									l-0.1-1.4c0.8-0.1,1.6-0.3,2.3-0.5c0.3-0.1,0.6-0.2,0.8-0.3c0.3-0.1,0.6-0.2,1-0.4c2.3-0.7,4.7-0.9,7.1-0.7
									c0.9,0.1,1.8,0.3,2.6,0.6c0.9,0.4,2,0.5,3,0.5c0.9-0.2,1.7-0.4,2.6-0.7c1.1-0.4,2.2-0.7,3.3-0.9c4.3-0.5,8.5,0.8,11.9,3.4
									c0.8,0.7,1.6,1.5,2.4,2.3c0.6,0.6,1.1,1.2,1.7,1.7L230.4,32.3z"/>
								<path id="Path_113056" class="st4" d="M238.3,60.8c-0.1-4.3-0.2-8.6-0.4-12.9c0-1.9-0.3-3.8-0.7-5.6c-1.5-4.2-4-8-7.3-11
									l-3.8-4.1l1-0.9l3.8,4.1c5.4,4.2,8.5,10.7,8.4,17.5c0.2,4.3,0.4,8.6,0.4,12.9L238.3,60.8z"/>
								<path id="Path_113057" class="st4" d="M238.6,63.3l-1.4-0.2c0.1-0.5,0.1-1,0.1-1.5c0-0.6,0.1-1.1,0.1-1.7
									c0.2-0.8,0.4-1.5,0.7-2.2c0.5-1,0.7-2.2,0.5-3.4l1.3-0.4c0.3,1.4,0.1,2.9-0.6,4.2c-0.2,0.7-0.4,1.3-0.6,2
									c-0.1,0.5-0.1,1-0.1,1.5C238.7,62.2,238.7,62.7,238.6,63.3z"/>
								<path id="Path_113058" class="st4" d="M187.4,30.9l-1.1-0.9c1.1-1.3,2.3-2.6,3.5-3.8c5.3-4.5,12.9-5,18.7-1.2l-0.7,1.2
									c-5.3-3.4-12.2-3-17,1C189.6,28.4,188.5,29.6,187.4,30.9z"/>
								<path id="Path_113059" class="st4" d="M228.6,29.9l-5.4-4.7c-0.5-0.5-1.1-0.9-1.8-1.1c-0.5-0.1-0.9-0.1-1.4-0.1
									c-3.5,0-6.9,1-9.9,2.9l-0.9-1.1c3.1-2.1,6.8-3.2,10.6-3.2c0.6-0.1,1.3,0,1.9,0.1c0.9,0.3,1.7,0.8,2.3,1.4l5.4,4.7
									L228.6,29.9z"/>
								<path id="Path_113060" class="st4" d="M236.2,82.2c-0.7,0-1.3-0.4-1.6-1c-0.3-0.8-0.2-1.7,0.3-2.4l1.1,0.9
									c-0.2,0.3-0.3,0.6-0.1,1c0.1,0.2,0.4,0.3,0.6,0.2c0-0.1,0-0.2-0.1-0.2l0.7-1.2c0.8,0.4,1,1.4,0.6,2.1
									c-0.1,0.2-0.3,0.4-0.5,0.5C236.8,82.2,236.5,82.2,236.2,82.2z"/>
								<path id="Path_113061" class="st4" d="M220.4,103.8c-0.5-1.7-0.8-3.5-0.8-5.4l1.4,0c0.1,1.7,0.3,3.4,0.8,5L220.4,103.8z"/>
								<path id="Path_113062" class="st4" d="M189.9,147.7l-0.8-1.1c2.4-1.7,4.9-3,7.6-4.1l0.5,1.3
									C194.6,144.7,192.1,146.1,189.9,147.7z"/>
								<path id="Path_113063" class="st4" d="M173.2,168.8l-1.2-0.7c2.1-3.3,4.9-6.1,8.1-8.4l15-11.9l0.9,1.1l-15,11.9
									C177.8,163,175.2,165.7,173.2,168.8z"/>
								<path id="Path_113064" class="st4" d="M223.1,287.6l-1.3-0.6c4.1-9.3,7.4-18.9,9.9-28.7c0.7-3.3,1.7-6.6,2.9-9.7
									c1.2-2.7,2.5-5.3,4.1-7.8c1.1-1.8,2.1-3.7,3.1-5.6c1-2,1.8-4.1,2.6-6.1c0.7-1.8,1.4-3.7,2.3-5.5c2.2-4.5,4.8-8.8,7.7-12.8
									c2.5-4.5,6.4-8,11.1-10l7.1-3.8l0.6,1.2l-7.2,3.8c-4.5,1.9-8.2,5.3-10.6,9.5c-2.9,4-5.4,8.3-7.6,12.7
									c-0.8,1.8-1.5,3.6-2.2,5.4c-0.8,2.1-1.6,4.2-2.6,6.2c-0.9,1.9-2,3.8-3.1,5.7c-1.5,2.5-2.8,5-4,7.6c-1.2,3.1-2.1,6.3-2.8,9.6
									C230.6,268.6,227.2,278.3,223.1,287.6z"/>
								<path id="Path_113065" class="st4" d="M234.3,94.3L233,94c0.4-2,0.2-4-0.5-5.8c-0.1-0.2-0.1-0.4-0.2-0.6
									c-0.6-1.1-0.8-2.4-0.6-3.6l1.3,0.4c-0.1,0.9,0.1,1.9,0.6,2.7c0.1,0.2,0.2,0.4,0.2,0.6C234.6,89.8,234.8,92.1,234.3,94.3z"/>
								<path id="Path_113066" class="st4" d="M225.5,102.4l-2.3-3.9c-0.7-1.2-0.4-1.9-0.1-2.3l1,0.9l0,0c0,0,0,0.2,0.2,0.7l2.3,3.9
									L225.5,102.4z"/>
								<path id="Path_113067" class="st4" d="M228.7,112l-1.4-0.1c0.6-2.1,0-4.4-1.6-5.9c-0.3-0.2-0.5-0.5-0.7-0.8
									c-1-1.5-1.7-3.1-1.9-4.9l1.4-0.2c0.2,1.5,0.8,3,1.7,4.2c0.2,0.2,0.4,0.4,0.6,0.7c0.3,0.3,0.6,0.7,0.9,1
									C228.5,107.9,228.9,109.9,228.7,112z"/>
								<path id="Path_113068" class="st4" d="M231.5,120.9c-2.9-3.8-5.1-8.2-6.4-12.8l1.3-0.4c1.2,4.5,3.3,8.7,6.2,12.3
									L231.5,120.9z"/>
								<path id="Path_113069" class="st4" d="M231,129.3c0-1.8-0.5-3.6-1.4-5.1c-0.3-0.4-0.5-0.8-0.8-1.2c-0.4-0.6-0.8-1.3-1.2-1.9
									c-0.8-1.7-1-3.5-0.6-5.3l1.4,0.3c-0.3,1.5-0.1,3,0.5,4.4c0.3,0.6,0.7,1.2,1.1,1.8c0.3,0.4,0.6,0.9,0.8,1.3
									c1,1.8,1.6,3.8,1.6,5.8L231,129.3z"/>
								<path id="Path_113070" class="st4" d="M232.2,105.5l-1.3-0.5l2.3-6.8c1.1-2.5,1.4-5.3,0.7-8l-1.1-7.1l1.4-0.2l1.1,7.1
									c0.7,2.9,0.4,6-0.8,8.8L232.2,105.5z"/>
								<path id="Path_113071" class="st4" d="M231.8,112.9c-0.2-1.9,0.1-3.8,0.9-5.5c0.2-0.4,0.4-0.9,0.6-1.3s0.4-0.8,0.6-1.3
									c0.8-1.9,1-4.1,0.4-6.1l1.3-0.4c0.6,2.3,0.4,4.8-0.5,7c-0.2,0.5-0.4,0.9-0.7,1.4c-0.2,0.4-0.4,0.8-0.6,1.2
									c-0.7,1.5-0.9,3.2-0.8,4.8L231.8,112.9z"/>
								<path id="Path_113072" class="st4" d="M234.1,120.2l-1.2-0.6c1.1-2.9,1.5-6,1.1-9.1c0-1.4-0.1-2.8,0-4.3l1.4,0.1
									c-0.1,1.4,0,2.8,0,4.1C235.8,113.7,235.3,117.1,234.1,120.2z"/>
								<path id="Path_113073" class="st4" d="M234.4,131.8c0-2.6,0.2-5.2,0.6-7.7c0.6-2.9,0.8-5.9,0.5-8.9l1.4-0.2
									c0.3,3.1,0.1,6.2-0.5,9.3c-0.4,2.5-0.7,5-0.6,7.5L234.4,131.8z"/>
								<path id="Path_113074" class="st4" d="M230.5,137.6c-0.2-1.4-0.6-2.8-1.2-4.1c-0.3-0.6-0.6-1.2-0.8-1.9
									c-0.2-0.8-0.3-1.6-0.3-2.4c-0.2-2.4,0.3-4.9,1.3-7.1l1.3,0.6c-0.9,2-1.3,4.3-1.2,6.5c0,0.7,0,1.4,0.2,2
									c0.2,0.6,0.5,1.1,0.7,1.7c0.7,1.4,1.2,3,1.4,4.6L230.5,137.6z"/>
								<path id="Path_113075" class="st4" d="M231.5,144c-2-3.2-2.7-6.9-2-10.6l1.4,0.2c-0.6,3.3,0,6.7,1.8,9.6L231.5,144z"/>
								<path id="Path_113076" class="st4" d="M235.6,141.3l-1.3-0.5c1.3-4.4,1.7-8.9,1.3-13.4l1.4,0
									C237.4,132,236.9,136.8,235.6,141.3z"/>
								<path id="Path_113077" class="st4" d="M237.1,156.3l-1.4-0.1c0-0.9-0.4-1.8-1.1-2.4c-0.9-0.8-1.7-1.6-2.4-2.5
									c-1-2-1.2-4.2-0.7-6.4l1.4,0.2c-0.4,1.8-0.3,3.7,0.5,5.4c0.6,0.8,1.3,1.6,2.1,2.3c0.3,0.2,0.5,0.5,0.7,0.8
									c0.3-1.3,0.7-2.5,1.1-3.8c0.6-1,0.8-2.2,0.7-3.4c-0.5-1.1-1.3-2.1-2.3-2.7c-1.4-0.8-2.3-2.2-2.6-3.8l1.4-0.2
									c0.2,1.2,0.9,2.2,1.9,2.9c1.3,0.8,2.3,2,2.9,3.5l0,0.2c0.2,1.4-0.1,2.9-0.8,4.2C237.9,152.3,237.4,154.3,237.1,156.3z"/>
								<path id="Path_113078" class="st4" d="M201.8,146.2l-0.8-1.1l19.9-13.8c3.3-1.7,5.8-4.5,7.3-7.9l1.3,0.4
									c-1.5,3.7-4.3,6.8-7.8,8.7L201.8,146.2z"/>
								<path id="Path_113079" class="st4" d="M224,146l-1.3-0.4c0.4-1.1,0.9-2.1,1.6-3.1l5.1-7.7l1.2,0.8l-5.1,7.7
									C224.8,144.2,224.3,145.1,224,146z"/>
								<path id="Path_113080" class="st4" d="M41.2,211.4l-1.1-0.9c0.9-1,2-1.8,3.2-2.3c1.4-0.7,2.6-1.4,3-2.6
									c0.2-1.2,0.1-2.5-0.3-3.7c-0.6-3.4-1-6.9-1-10.4c0-1.2-0.1-2.4-0.2-3.6l-3-52.5c-0.2-4.3-0.5-8.7-0.6-13
									c-0.4-7.3,0.2-14.6,1.8-21.8l1.4,0.4c-1.6,7-2.2,14.2-1.8,21.4c0.1,4.3,0.4,8.6,0.6,12.9l3,52.6c0.1,1.2,0.1,2.4,0.1,3.6
									c0,3.4,0.3,6.7,0.9,10.1c0.5,1.4,0.6,2.9,0.3,4.4c-0.7,1.6-2.1,2.9-3.8,3.5C42.9,209.9,41.9,210.5,41.2,211.4z"/>
								<path id="Path_113081" class="st4" d="M36.5,229.4c-1.1,0-2.1-0.2-3.2-0.5c-1.5-0.5-3.2-0.6-4.7-0.1l-0.6,0.3l-0.3-0.6
									c-0.7-1.3-1.9-2.3-3.3-2.7c-1.1-0.3-2.2-0.3-3.2,0.1l-0.8,0.3l-0.1-0.8c-0.5-4.8-0.5-9.6,0.2-14.4l0.2-1.9
									c1.4-15.4,1.2-30.9-0.7-46.3l1.4-0.2c1.9,15.5,2.2,31.1,0.7,46.6l-0.2,1.9c-0.6,4.4-0.7,8.8-0.3,13.2
									c1.1-0.3,2.2-0.2,3.3,0.1c1.6,0.4,3,1.4,3.9,2.8c1.6-0.3,3.3-0.3,5,0.2c1.6,0.6,3.4,0.6,4.9-0.1c1.8-1.2,1.6-4,1.3-6.5
									c-1.6-11.7-1.9-23.5-0.9-35.2l1.4,0.1c-1,11.6-0.7,23.4,0.9,34.9c0.4,2.9,0.5,6.2-1.9,7.8C38.5,229.2,37.5,229.4,36.5,229.4
									z"/>
								<path id="Path_113082" class="st4" d="M22.1,169.6l-1.4-0.2c0.8-7.6,1-15.2,0.6-22.8c-0.1-5.7-0.2-11.6,0.1-17.4
									c0.4-6.2,1.3-12.4,2.2-18.3c0.2-2.7,1-5.3,2.4-7.6c1.6-1.9,3.6-3.4,5.8-4.5l0.6,1.3c-2,1-3.9,2.3-5.3,4.1
									c-1.2,2.1-2,4.5-2.2,6.9c-0.9,5.9-1.8,12.1-2.2,18.2c-0.4,5.7-0.2,11.6-0.1,17.3C23.1,154.3,22.9,162,22.1,169.6z"/>
								<path id="Path_113083" class="st4" d="M41.2,107c-0.5-3.9,0.8-7.7,3.6-10.5c0.2-0.2,0.3-0.3,0.4-0.6h-0.1
									c-2.7-0.4-5.5,0.1-7.9,1.4c-1.8,1.6-2.8,3.8-2.9,6.2l-1.4-0.2c0.2-2.7,1.4-5.3,3.5-7.1c2.6-1.6,5.7-2.2,8.7-1.7
									c0.4,0,0.7,0.1,1,0.3c0.3,0.2,0.5,0.6,0.5,0.9c0,0.7-0.3,1.3-0.8,1.7c-2.5,2.5-3.6,5.9-3.2,9.4L41.2,107z"/>
								<path id="Path_113084" class="st4" d="M44.1,105.9l-1.3-0.6l3.1-6.9c0.5-1,0.9-2.4,0.2-3c-0.6-0.3-1.3-0.4-1.9-0.3l-0.3-1.4
									c1.1-0.2,2.2-0.1,3.1,0.5c1.1,1,1.2,2.5,0.2,4.7L44.1,105.9z"/>
								
									<rect id="Rectangle_17531" x="30.4" y="99.5" transform="matrix(0.873 -0.4878 0.4878 0.873 -44.7686 28.5282)" class="st4" width="3.9" height="1.4"/>
								<path id="Path_113085" class="st4" d="M37.3,166.2c-1.9-9.2-2.5-18.6-2-27.9c0.2-6,0-12.1-0.4-18.1l1.4-0.1
									c0.5,6.1,0.6,12.1,0.4,18.2c-0.5,9.2,0.2,18.5,2,27.6L37.3,166.2z"/>
								<path id="Path_113086" class="st4" d="M22.2,251.2c0-1.8,0.2-3.5,0.7-5.2c0.6-3.4,0.9-6.8,0.9-10.3c0.1-2.3,0.2-4.6,0.4-6.9
									l1.4,0.1c-0.2,2.3-0.3,4.6-0.4,6.8c0,3.5-0.3,7.1-1,10.5c-0.5,1.6-0.7,3.2-0.6,4.8L22.2,251.2z"/>
								<path id="Path_113087" class="st4" d="M71.8,263.9c-0.8-10-0.5-20.1,0.9-30.1c0.1-1,0.3-2,0.4-3c0.5-3.1,0.9-6.1,1-9.2
									c0.1-3.5-0.1-7-0.4-10.5l1.4-0.1c0.8,6.7,0.6,13.5-0.6,20.1c-0.1,1-0.3,2-0.4,3c-1.4,9.9-1.6,19.8-0.8,29.8L71.8,263.9z"/>
								<path id="Path_113088" class="st4" d="M71.3,268.7l-0.8-1.2c1.2-0.8,1.7-2.2,1.4-3.5l1.4-0.3
									C73.7,265.7,72.9,267.6,71.3,268.7z"/>
								<path id="Path_113089" class="st4" d="M79.1,268.9c-1.5,0-2.9-0.1-4.4-0.2l0.2-1.4c5.7,0.6,11.5,0,16.9-1.9
									c1.1-0.4,2.3-0.9,3.4-1.3c2.7-1.2,5.5-2.1,8.4-2.5c3.9-0.2,7.7,0.2,11.5,1.3l-0.3,1.4c-6.2-2.3-13.1-1.9-19,1.2
									c-1.1,0.4-2.3,0.9-3.4,1.3C88,268.1,83.6,268.9,79.1,268.9z"/>
								<path id="Path_113090" class="st4" d="M119.5,197.2l-1.4,0c-0.3-12.4,0.8-24.7,3.2-36.8c0.1-0.6,0.3-1.2,0.4-1.7
									c1.1-3.4,1.5-7,1.3-10.6l1.4-0.2c0.3,3.8-0.1,7.6-1.3,11.2c-0.1,0.6-0.3,1.2-0.4,1.7C120.3,172.7,119.2,184.9,119.5,197.2z"
									/>
								
									<rect id="Rectangle_17532" x="121.6" y="197.2" transform="matrix(0.9998 -1.898804e-02 1.898804e-02 0.9998 -3.7339 2.4939)" class="st4" width="15.6" height="1.4"/>
								
									<rect id="Rectangle_17533" x="121.3" y="199.7" transform="matrix(0.9998 -2.000014e-02 2.000014e-02 0.9998 -3.9816 2.6684)" class="st4" width="20.2" height="1.4"/>
								<path id="Path_113091" class="st4" d="M143.4,200.3l-1.4-0.3c0.3-2.3,0.2-4.7-0.3-7c-0.2-1.2-0.4-2.5-0.5-3.7
									c-0.1-1.3-0.1-2.7,0-4l0.4-13.3l1.4,0l-0.3,13.2c0,1.3-0.1,2.6,0,3.9c0.1,1.2,0.3,2.4,0.4,3.6
									C143.7,195.2,143.8,197.8,143.4,200.3z"/>
								<path id="Path_113092" class="st4" d="M121.9,226.3c-0.7-8.2-0.8-16.4-0.5-24.6l1.4,0.1c-0.3,8.1-0.1,16.3,0.5,24.4
									L121.9,226.3z"/>
								<path id="Path_113093" class="st4" d="M127.9,257.4l-3.9-16.7c-0.5-2.1-1-4.3-1.5-6.4c-2.2-8.3-2.9-16.9-2.1-25.5l1.4,0.2
									c-0.8,8.4-0.1,16.8,2.1,25c0.5,2.1,1,4.3,1.4,6.4l3.9,16.7L127.9,257.4z"/>
								<path id="Path_113094" class="st4" d="M138.6,256.2c-0.5-8.4,0-16.9,1.3-25.2c1.6-9.4,1.9-18.9,0.8-28.4l1.4-0.2
									c1.1,9.6,0.9,19.3-0.8,28.8c-1.3,8.2-1.8,16.6-1.3,24.9L138.6,256.2z"/>
								<path id="Path_113095" class="st4" d="M131.4,281.6c-0.3-0.6-0.9-1-1.6-1c-1,0-2-0.1-2.9-0.4l-0.1,0
									c-1.5-0.7-2.5-2.1-2.7-3.7c-0.2-1.4-0.1-2.9,0.2-4.3l0.6-3.7c1-4.7,1.4-9.5,0.9-14.3l1.4-0.2c0.4,4.9,0.1,9.9-0.9,14.7
									l-0.6,3.8c-0.3,1.3-0.4,2.6-0.2,3.9c0.1,1.1,0.8,2.1,1.9,2.6c0.8,0.2,1.7,0.3,2.5,0.3c1.2,0,2.3,0.7,2.9,1.8L131.4,281.6z"
									/>
								<path id="Path_113096" class="st4" d="M133.2,283l-0.8-1.1l5.1-3.6c1.7-0.9,2.7-2.8,2.3-4.7v-0.1l0-17.4h1.4l0.1,17.3
									c0.4,2.5-0.8,4.9-3,6.1L133.2,283z"/>
								<path id="Path_113097" class="st4" d="M115.5,265c-0.5,0-0.9,0-1.4-0.1l0.1-1.4c1.5,0.1,3,0,4.4-0.3l0.3,1.4
									C117.8,264.9,116.7,265,115.5,265z"/>
								<path id="Path_113098" class="st4" d="M120.9,263.4c-0.4,0-0.8-0.1-1.1-0.2l0.5-1.3c1.6,0.3,3.2-0.7,3.7-2.3
									c0.5-1.8,0.4-3.7,0-5.4l-3.2-18.2l1.4-0.2l3.2,18.2c0.5,2,0.5,4.1,0,6.2C124.6,261.9,122.9,263.3,120.9,263.4z"/>
								<path id="Path_113099" class="st4" d="M127,287.1c-0.4-2.2-0.5-4.4-0.3-6.6l1.4,0.1c-0.2,2.1-0.1,4.1,0.3,6.2L127,287.1z"/>
								<path id="Path_113100" class="st4" d="M169.6,206.5c-4-5.1-3.8-12.2-3.2-19l1.4,0.1c-0.6,6.5-0.8,13.3,2.9,18L169.6,206.5z"
									/>
								<path id="Path_113101" class="st4" d="M176.9,243c-0.5-9.8-2.1-19.4-4.7-28.8c-0.7-2.2-1.5-4.4-2.3-6.5
									c-2.7-7.4-5.4-15-3.9-22.7l1.4,0.3c-1.4,7.3,1.3,14.8,3.9,21.9c0.8,2.1,1.6,4.4,2.3,6.5c2.6,9.5,4.2,19.3,4.8,29.1
									L176.9,243z"/>
								<path id="Path_113102" class="st4" d="M170.4,271.1l-1.4-0.3l3-13.5c0.7-3,1.4-6.1,1.8-9.3c0.9-8,1-16.1,0.4-24.2l1.4-0.1
									c0.6,8.1,0.5,16.3-0.4,24.5c-0.5,3.2-1.1,6.3-1.8,9.4L170.4,271.1z"/>
								<path id="Path_113103" class="st4" d="M166.8,289.1l-1.4-0.2c2.3-17.3,4.8-34.8,7.5-52.1l1.4,0.2
									C171.6,254.3,169.1,271.8,166.8,289.1z"/>
								<path id="Path_113104" class="st4" d="M186.7,279.9l-1.4-0.1c0.5-3.3,2.2-6.3,4.7-8.6l0.8-0.9c5.3-6.2,8.8-13.8,10.2-21.8
									l1.4,0.2c-1.4,8.3-5,16.1-10.5,22.5l-0.8,0.9C188.8,274.2,187.2,276.9,186.7,279.9z"/>
								<path id="Path_113105" class="st4" d="M154.8,253.3c-4.3-23.4-5.5-47.3-3.4-71.1l1.4,0.1c-2,23.6-0.9,47.4,3.4,70.7
									L154.8,253.3z"/>
								<path id="Path_113106" class="st4" d="M164.4,255.9c-0.2-7.8,0.4-15.5,1.6-23.2c1.4-8.3,1.9-16.8,1.4-25.2l1.4-0.1
									c0.5,8.5,0,17.1-1.4,25.5c-1.2,7.6-1.7,15.3-1.6,23L164.4,255.9z"/>
								<path id="Path_113107" class="st4" d="M155.2,256.6l-0.1-1.4c3.2-0.3,6.5-0.3,9.7-0.2l-0.1,1.4
									C161.6,256.3,158.4,256.3,155.2,256.6z"/>
								<path id="Path_113108" class="st4" d="M160.1,260.8c-1.7,0-3.4-0.2-5.1-0.7l0.3-1.4c2.5,0.6,5.1,0.8,7.6,0.4l0.2,1.4
									C162.1,260.8,161.1,260.8,160.1,260.8z"/>
								<path id="Path_113109" class="st4" d="M156.4,258.6l-0.3-1.4c2.2-0.5,4.4-0.8,6.6-0.7v1.4
									C160.5,257.9,158.4,258.1,156.4,258.6z"/>
								<rect id="Rectangle_17534" x="153.4" y="261.8" class="st4" width="8.5" height="1.4"/>
								<rect id="Rectangle_17535" x="158" y="262.5" class="st4" width="5.7" height="1.4"/>
								<path id="Path_113110" class="st4" d="M155.3,290.1c-2.4-6-1.6-12.6-0.7-18.9c0.3-2.3,0.6-4.7,0.7-7l1.4,0.1
									c-0.1,2.4-0.5,4.8-0.8,7.1c-0.8,6.2-1.6,12.5,0.7,18.2L155.3,290.1z"/>
								<path id="Path_113111" class="st4" d="M158.1,288.8l-0.3-1.4c0,0,0,0,0,0c0.1-0.1,0.1-0.3,0.2-0.4c0.2-1.1,0.2-2.3,0.1-3.5
									c-0.4-2,0-4.2,1.1-5.9c0.3-0.3,0.7-0.7,1.1-0.9c1.2-0.8,1.8-2.1,1.6-3.5c0-0.6,0.1-1.2,0.2-1.8c0.3-1,0.6-1.9,1.1-2.8
									c0.7-1.5,1.4-2.8,0.8-4l1.3-0.6c0.5,1.8,0.2,3.7-0.9,5.2c-0.4,0.8-0.8,1.6-1,2.5c-0.1,0.5-0.1,1-0.2,1.6
									c0,1.1-0.2,2.3-0.8,3.2c-0.4,0.5-0.8,0.9-1.3,1.3c-0.3,0.2-0.6,0.5-0.9,0.8c-0.9,1.5-1.2,3.2-0.8,4.9
									c0.1,1.3,0.1,2.6-0.1,3.9C159.1,288.5,158.5,288.7,158.1,288.8z"/>
								<path id="Path_113112" class="st4" d="M101.6,48.7l1.5-7l1.9-11l-2.6-9.7l-3.7-4.4l-4-3.5L80.9,7.8L66.1,6.6L59.4,8
									l-2.5-1.1l-4.5,2.8l-2.5,3.4l-0.6,3.6l-2.4,0.8l-2.7,4.1l-2,6.1l-0.9,5.7l-1.2,1v3.9l1.4,3.9l2.6,5.5l4.1,11.6l2.2-8.7
									l1-3.2l0-4.8v-3.2l1.4-2.7l1.4-1.6l0.6-2l1.4-2l0-2.3l4.3,1.5l6.6,0.2l9.4-0.6l9.5,2.5l6.7,1.4l3.6,4.2l0.5,3.6l1,5.4
									l0.9,3.6l3.4-2"/>
								<path id="Path_113113" class="st4" d="M238.2,60.7l0.6-7.9l-0.9-9.7L234,35l-6.4-6.8l-5.9-4.7h-2.3l-6.6,1l-3,1.2l-3.3-0.5
									l-2.3-0.7l-1.5-1h-7.4l-3.1,3.2c-1,0.7-2,1.4-3.1,1.9c-0.5,0-2.7,2.5-2.7,2.5l-2.5,2.3l-4.3,4.3l-0.8,2.9v3.9l-0.2,4.2
									l-0.1,5.5V58l0.3,3.9l4.3,1l2.8,1l1,2.8l1.8-4.9c0,0,3-2.9,3.2-3.2s2.7-5.7,2.7-5.7l3-2.3l5.8-1.9l5.2-6.3
									c0,0,0.7-1.7,1.5,0.8s6.4,6.2,6.4,6.2l8.4,2.6l6.6,6l3.5,7.3l2.3-4.7l1.7-0.3"/>
								<path id="Path_113114" class="st4" d="M232.3,81.6c0.7,1.9,1.2,3.9,1.6,5.8c0.6,2.7,0.8,5.6,0.6,8.4l0.5,2.7l0.6,5.1
									l-1.1,1.5l0.5,5c0,0-0.7,5.1,0.3,5.8s0.8,5.3,0.8,5.3l-0.5,7.5l0.4,1.3l0.5,3.7l-0.9,5l-1.4,2.4l1.9,2.1l2.6,3.1l-0.4,3
									l-1.4,3.3l-0.4,2.8l-2-2.8l-2.6-3l0.3-3.5l-1.1-4.4l-1.6-5.5l0.6-0.9l-1.1-5l0.1-4l0.4-3.8L227,119l0.5-2.4v-3.5l-0.5-3
									l-0.6-1.6v-3.2l-0.9-0.6l-1.4-3l0.4-2.8l-1.3-4.1l4.9-5.1l3.1-5.1L232.3,81.6z"/>
								<g id="Group_984" transform="translate(53.755 40.198)">
									<path class="st5" d="M3.1,15.3L2.7,15c1.2-1.7,3.3-2.7,5.4-2.6c2.1,0.1,4.1,1,5.6,2.5l-0.3,0.3c-1.4-1.4-3.3-2.2-5.2-2.3
										C6.1,12.8,4.2,13.7,3.1,15.3z"/>
									<path class="st5" d="M2.8,15l-0.4-0.2c0.7-1.6,2.1-2.8,3.9-3.2c0.7-0.1,1.5-0.2,2.3-0.2c0.8,0,1.5,0.1,2.2,0.3
										c1.2,0.5,2.2,1.3,3,2.3l-0.4,0.3c-0.8-0.9-1.7-1.7-2.8-2.2C9.9,12,9.2,11.9,8.5,12c-0.7,0-1.4,0-2.1,0.2
										C4.8,12.5,3.5,13.5,2.8,15z"/>
									<path class="st5" d="M8,16.7c-0.3,0-0.7,0-1,0c-0.6,0-1.2-0.1-1.8-0.2c-0.9-0.3-1.8-0.6-2.5-1.1L2.9,15
										c0.7,0.5,1.6,0.8,2.4,1.1c0.6,0.1,1.1,0.2,1.7,0.2c2.2,0.2,4.5-0.2,6.5-1.2l0.2,0.4C12,16.3,10,16.7,8,16.7z"/>
									<path class="st5" d="M27,15.4l-0.4-0.3c0.5-0.7,1.1-1.3,1.8-1.8c1.3-1,3-1.4,4.6-1.2c1.7,0.2,3.1,1.1,4.1,2.4l-0.4,0.3
										c-0.9-1.2-2.3-2-3.8-2.2c-1.5-0.2-3,0.2-4.3,1.1C28,14.2,27.5,14.8,27,15.4z"/>
									<path class="st5" d="M37.4,14.7c-0.8-0.8-1.7-1.5-2.7-1.9c-0.9-0.6-1.9-0.9-3-1c-0.4,0-0.9,0.2-1.3,0.3
										c-1.3,0.5-2.4,1.3-3.2,2.4l-0.4-0.3c0.9-1.1,2.1-2,3.4-2.5c0.5-0.2,1-0.3,1.5-0.4c1.2,0,2.3,0.4,3.2,1c1,0.5,2,1.2,2.8,2
										L37.4,14.7z"/>
									<path class="st5" d="M31.2,16.7c-1.5,0-3.1-0.2-4.6-0.6l0.1-0.5c3.8,1.1,7.9,0.7,11.4-0.9l0.2,0.4
										C36.1,16.1,33.6,16.7,31.2,16.7z"/>
									<path class="st5" d="M6.3,16.2c-0.8-0.7-1.1-1.9-0.7-2.9L6,13.5c-0.3,0.8-0.1,1.8,0.6,2.4L6.3,16.2z"/>
									<path class="st5" d="M10.5,16.1l-0.3-0.4c0.3-0.2,0.5-0.6,0.4-1c0-0.4,0-0.8-0.1-1.1l0.5-0.1c0.1,0.4,0.2,0.8,0.1,1.2
										C11.2,15.2,11,15.8,10.5,16.1z"/>
									<path class="st5" d="M7,17.4l0.3-1c0.1-0.4,0.2-0.8,0.4-1.2c-0.1,0.1-0.2,0.2-0.3,0.3L6.7,16l0.1-0.3
										c-0.1,0.1-0.2,0.1-0.3,0.2l-0.3,0.2l0-0.4c0-0.2,0-0.3,0-0.5c-0.1,0-0.1,0-0.2,0c-0.2-0.1-0.2-0.2-0.2-0.4c0-0.3,0-0.7,0-1
										c0-0.2,0-0.4,0.1-0.5l0.6-1.1l-0.2,1.2c0,0.1,0,0.2,0,0.3c0,0,0,0,0,0c0.1,0.1,0.2,0.2,0.3,0.3c0.2,0.1,0.3,0.2,0.5,0.2
										c0.1,0,0.2,0,0.4,0l0.4-0.7c0-0.1-0.1-0.2-0.2-0.2l0.3-0.4C7.9,13,8,13,8.1,13.1l0.2-0.4l-0.2,0.5c0.1,0.1,0.1,0.2,0.1,0.3
										c0.1,0,0.1-0.1,0.2-0.1c0,0,0.1-0.1,0.1-0.2l0.4-0.7L9,13l0.2-0.2L9,13.2l0,0.1c0,0,0,0,0,0c0,0,0.1,0,0.1,0
										c0.1-0.1,0.3-0.1,0.4-0.1c0,0,0,0,0,0c0.2,0,0.3,0.1,0.4,0.2l0.5-0.9l-0.3,1.1c0.1,0,0.2,0,0.3-0.1l0.4-0.2l-0.1,0.4
										c-0.1,0.6-0.3,1.1-0.6,1.7l-0.7,1.2l0.1-0.6l-0.2,0.3L9.2,16c0-0.1-0.1-0.2-0.1-0.3C9,15.8,8.8,16,8.6,16l-0.4,0.1l0.1-0.3
										c-0.2,0.3-0.4,0.6-0.6,0.8L7,17.4z M6.7,14.7c-0.1,0.2-0.1,0.4-0.1,0.6c0.2-0.1,0.3-0.3,0.4-0.5c0,0-0.1,0-0.1,0
										C6.9,14.7,6.8,14.7,6.7,14.7z M8.7,13.8l-0.2,0.4c-0.1,0.3-0.2,0.6-0.4,0.9c0.2-0.4,0.4-0.7,0.6-1.1L9,14.1l0,0
										c0,0,0,0,0,0C8.9,14,8.8,13.9,8.7,13.8z M6.1,14.8C6.1,14.8,6,14.8,6.1,14.8C6,14.8,6.1,14.8,6.1,14.8z M6.2,14.4
										c0,0.1,0,0.1,0,0.2C6.2,14.6,6.3,14.6,6.2,14.4l0.3,0.2C6.5,14.6,6.4,14.5,6.2,14.4C6.3,14.5,6.2,14.4,6.2,14.4z M10,14.2
										l-0.1,0.5C9.9,14.5,10,14.3,10,14.2C10,14.2,10,14.2,10,14.2z"/>
									<path class="st5" d="M30.1,16.2c-0.2-0.2-0.4-0.4-0.6-0.6c-0.3-0.5-0.3-1-0.2-1.6c0.1-0.2,0.1-0.5,0.1-0.7l0.5,0
										c0,0.3-0.1,0.5-0.1,0.8c-0.1,0.4,0,0.9,0.2,1.2c0.1,0.2,0.2,0.3,0.4,0.4L30.1,16.2z"/>
									<path class="st5" d="M34.6,16.4l-0.4-0.2c0.2-0.4,0.4-0.9,0.3-1.4c-0.1-0.5-0.1-1-0.3-1.6l0.5-0.1c0.1,0.5,0.2,1.1,0.3,1.6
										C35,15.3,34.9,15.8,34.6,16.4z"/>
									<path class="st5" d="M33.3,16.1c-0.1,0-0.2,0-0.3-0.1C33,16,33,16,32.9,15.9c-0.1,0-0.1,0-0.2,0.1c-0.5,0.1-1,0.1-1.5,0.1
										L31,16l0,0c0,0,0,0,0,0c-0.1-0.1-0.2-0.2-0.1-0.4c0,0-0.1,0-0.1,0c-0.4-0.1-0.7-0.4-0.8-0.8c-0.1-0.4,0-0.9,0.3-1.1
										c0,0,0,0,0,0c0,0,0,0,0-0.1c0-0.1,0.1-0.2,0.1-0.3l0.1-0.1c0.1-0.1,0.3-0.1,0.5,0c0-0.1,0.1-0.1,0.1-0.2
										c0.1-0.2,0.3-0.3,0.5-0.2c0,0,0,0,0.1,0c0.2-0.1,0.4,0,0.5,0.1c0,0,0,0,0,0l0.5-0.5l-0.2,0.8c-0.1,0.6,0.2,1.1,0.8,1.3h0
										c0,0,0.1,0,0.1,0c0.3-0.3,0.5-0.6,0.7-1l0.4,0.2c-0.2,0.4-0.4,0.8-0.8,1.2c0,0,0,0.1-0.1,0.1c0,0,0,0,0,0
										c0.1,0.2,0.1,0.4,0,0.6c0.1-0.1,0.2-0.3,0.2-0.4l0.5,0.1c0,0.4-0.3,0.8-0.7,0.9C33.5,16.1,33.4,16.1,33.3,16.1z M32.3,15.3
										c0,0.1-0.1,0.2-0.1,0.2c0.2,0,0.5-0.1,0.7-0.2c0,0,0-0.1,0.1-0.1C32.7,15.2,32.5,15.2,32.3,15.3z M30.4,14.7
										c0.1,0.2,0.3,0.3,0.5,0.4c0.1,0,0.2,0.1,0.3,0.1c0.1-0.1,0.3-0.2,0.4-0.2l-0.1-0.2c-0.2-0.3-0.3-0.5-0.3-0.9l-0.2,0
										c0.1,0.2,0.1,0.5,0,0.8l0,0.1l-0.1,0C30.6,14.8,30.5,14.8,30.4,14.7z M31.9,14.9c0,0,0.1,0,0.1,0c0.2-0.1,0.4-0.1,0.6-0.1
										C32.2,14.5,32,14,32,13.6l0-0.1c0,0,0-0.1-0.1-0.1c0.1,0.4,0.1,0.9,0,1.3L31.9,14.9C31.8,14.9,31.8,14.9,31.9,14.9z
										 M30.7,13.6C30.8,13.6,30.8,13.7,30.7,13.6C30.8,13.6,30.8,13.6,30.7,13.6L30.7,13.6z"/>
									<path class="st5" d="M0.5,9.6L0.1,9.4c0.7-1.4,2-2.5,3.5-2.8c1.5-0.3,3-0.2,4.5,0.1C9.5,7,11,7.2,12.4,7.3l0,0.5
										c-1.5-0.1-3-0.3-4.4-0.6C6.6,6.8,5.1,6.8,3.7,7.1C2.3,7.3,1.1,8.3,0.5,9.6z"/>
									<path class="st5" d="M11.4,8.8c-1.5,0-3.1-0.2-4.6-0.5c-1.5-0.3-3-0.2-4.4,0.2L2.2,8c1.5-0.4,3.1-0.5,4.6-0.2
										c1.5,0.3,3,0.4,4.5,0.5c0.5,0,1-0.1,1.4-0.2c0.6-0.2,1.1-0.5,1.6-0.9c0.3-0.3,0.6-0.5,0.8-0.9c0.2-0.3,0.2-0.7,0.1-1
										l0.5-0.1c0.1,0.5,0.1,1-0.2,1.4c-0.3,0.4-0.6,0.7-0.9,1c-0.5,0.4-1.1,0.8-1.7,1C12.4,8.7,11.9,8.8,11.4,8.8z"/>
									<path class="st5" d="M0.6,9.7L0.1,9.6c0.2-0.7,0.5-1.4,0.8-2C1.4,7,1.8,6.4,2.3,5.9c0.4-0.5,1-0.8,1.7-1
										c0.4,0,0.8,0,1.2,0.1c0.1,0,0.1,0,0.2,0c0.5,0,1-0.1,1.5,0c0.9-0.1,1.8-0.2,2.7-0.1l0.6-0.1L10,4.9C10.5,5,11,5.2,11.6,5.4
										l0.1,0.1c0.5,0,1.1,0,1.6,0c0.8,0,1.5,0,2.3-0.2l0.1,0.5c-0.7,0.1-1.4,0.2-2.1,0.2l0,0.1l-0.3,0.1l0,0l1.2,0
										c0.1,0,0.2,0,0.4,0.1c0.1,0.1,0.2,0.2,0.2,0.4c0,0.3-0.2,0.5-0.3,0.7c-0.6,0.6-1.3,1-2.1,1.4l-0.2-0.4
										c0.7-0.3,1.4-0.8,2-1.3c0.1-0.1,0.2-0.2,0.2-0.3c0,0,0,0-0.1,0l-1.1,0c-0.3,0.1-0.7,0.3-1,0.4l-0.1,0.4
										c0,0.1-0.1,0.2-0.1,0.3c0,0,0.1,0,0.1,0l0.2,0l0,0.2c0,0.1-0.1,0.3-0.2,0.4c-0.2,0.2-0.6,0.2-0.8-0.1l-0.1-0.1
										c-0.4,0-0.9,0-1.3,0c-1.4,0-2.8,0.1-4-0.6c-0.4,0-0.9,0-1.3,0L2.3,8.6l0.2-0.5c0.3-0.6,0.6-1.2,1-1.8
										C2.9,6.5,2.4,6.8,1.9,7.1C1.7,7.3,1.6,7.6,1.4,7.8C1.1,8.4,0.8,9,0.6,9.7z M4.2,6C4.2,6,4.2,6,4.2,6
										C3.8,6.6,3.5,7.1,3.2,7.7l0.7-0.3l0-0.1c0-0.5,0.5-0.7,0.7-0.8C5.2,6.2,5.7,6,6.3,5.8c-0.1,0-0.2,0-0.3-0.1
										c0,0-0.1,0-0.1,0C5.3,5.8,4.9,5.9,4.4,6C4.4,6,4.3,6,4.2,6z M11.7,7.6C11.7,7.6,11.7,7.6,11.7,7.6
										C11.8,7.6,11.8,7.6,11.7,7.6C11.7,7.6,11.7,7.6,11.7,7.6z M8.5,7.2c0.5,0,0.9,0,1.4,0c0.2-0.1,0.3-0.1,0.5-0.2l0.3-0.2
										l-0.1,0C9.9,7,9.2,7.1,8.5,7.2z M5,6.8c0,0-0.1,0-0.1,0.1C4.7,6.9,4.6,7,4.5,7c0.1,0,0.1,0,0.2,0l0.4-0.2L5,6.8z M8.6,5.9
										C8,6.3,7.4,6.6,6.8,6.9c0.9-0.1,1.7-0.2,2.6-0.3l0,0l0-0.5l2.2,0C11.7,6.1,12,6,12.2,5.9l-0.3,0C10.8,5.9,9.7,5.9,8.6,5.9
										C8.6,5.9,8.6,5.9,8.6,5.9z M5,6.8l0.2,0l2.2-0.9c0,0,0,0-0.1,0C6.6,6.1,5.8,6.4,5,6.8z M4.2,5.4C4.1,5.4,4.1,5.4,4.2,5.4
										C3.7,5.5,3.3,5.7,2.9,6c0.3-0.1,0.7-0.3,1-0.4C4,5.5,4.1,5.5,4.2,5.4z"/>
									<path class="st5" d="M41,9c-1.5-1.1-3.4-1.6-5.3-1.3c-0.5,0.1-0.9,0.2-1.4,0.3L34,8.2c-1.1,0.3-2.3,0.5-3.4,0.7
										c-1.3,0.3-2.6,0.1-3.8-0.4c-1-0.5-1.6-1.5-1.8-2.5l0.5-0.1c0.2,0.9,0.7,1.7,1.6,2.2c1.1,0.5,2.3,0.6,3.5,0.4
										c1.1-0.2,2.3-0.4,3.4-0.7l0.4-0.1c0.5-0.1,0.9-0.3,1.4-0.3c2-0.3,4,0.2,5.6,1.4L41,9z"/>
									<path class="st5" d="M40.8,9c-1.2-1.5-2.8-2.6-4.6-3.1L35.9,6c-0.1,0-0.1,0-0.2,0.1c0,0,0.1,0,0.1,0l0.6,0l-0.3,0.2
										c0.4,0.1,0.9,0.3,1.3,0.5l0.8,0.4l-0.9,0c-1.9,0-3.8,0.3-5.6,0.8l-0.1-0.2c-0.3,0.1-0.7,0.2-1,0.3
										c-1.1,0.2-2.3,0.1-3.3-0.4c-0.1,0-0.1,0-0.2,0c-0.1,0-0.2,0-0.3-0.1l-0.1,0c0-0.1-0.1-0.1-0.1-0.2
										c-0.2-0.1-0.5-0.3-0.7-0.5l-0.2-0.2l0.2-0.2C25.7,6.5,25.3,6.2,25,6l-0.6-0.5l0.8,0.1c1.9,0.2,3.9,0.1,5.8-0.2
										c0.9-0.2,1.8-0.2,2.8-0.3c2.9,0,5.6,1.3,7.4,3.7L40.8,9z M29.1,7.8c0.5,0,0.9,0,1.4-0.1c0.6-0.1,1.1-0.3,1.6-0.6
										c-0.1,0-0.2,0-0.2,0c-0.4,0.1-0.8,0.2-1.2,0.4C30.1,7.7,29.6,7.8,29.1,7.8z M27.5,7.3c0.9,0.1,1.8,0,2.6-0.1
										C29.2,7.2,28.3,7.2,27.5,7.3c0-0.1-0.1-0.1-0.1-0.1C27.4,7.3,27.4,7.3,27.5,7.3z M33.5,7.1c-0.2,0.1-0.4,0.2-0.6,0.3
										c1.1-0.3,2.3-0.4,3.4-0.5c-0.2-0.1-0.4-0.1-0.7-0.2c-0.2,0.1-0.3,0.1-0.5,0.1C34.6,7,34,7,33.5,7.1z M26.8,6.9
										c0,0,0.1,0.1,0.1,0.1c0,0,0,0,0,0c0,0,0.1,0,0.1,0L26.8,6.9C26.8,6.9,26.8,6.9,26.8,6.9z M27.3,6.5l0.5,0
										c0.1,0,0.3,0,0.4,0c0.1,0,0.1,0,0.2,0c1.1-0.2,2.3-0.4,3.4-0.7c0.4-0.1,0.7-0.1,1.1-0.2c-0.6,0-1.2,0.1-1.8,0.2
										c-1.7,0.3-3.3,0.4-5,0.3C26.4,6.3,26.9,6.4,27.3,6.5z M34.4,5.9c-0.8,0-1.7,0.1-2.5,0.2c-0.3,0.1-0.7,0.2-1,0.2
										C32.1,6.4,33.3,6.2,34.4,5.9C34.5,5.9,34.4,5.9,34.4,5.9z"/>
									<path class="st5" d="M19.7,30.6c-0.2,0-0.4,0-0.7-0.1c-0.1-0.1-0.2-0.1-0.3-0.2c-0.1,0-0.1-0.1-0.2-0.1
										C18.1,30,17.7,30,17.2,30c-0.6,0.1-1.1-0.2-1.5-0.6l0.4-0.3c0.3,0.3,0.7,0.5,1.1,0.4c0.5-0.1,1,0,1.5,0.2
										c0.1,0.1,0.2,0.1,0.3,0.2c0.1,0,0.1,0.1,0.2,0.1c0.4,0.1,0.9,0.1,1.2-0.1c0.5-0.3,1-0.4,1.5-0.6c0.2,0,0.4,0,0.5,0
										c0.4,0,0.7,0,0.9-0.2c0.3-0.3,0.2-0.8,0.1-1.3l0.5-0.1c0.2,0.6,0.3,1.4-0.2,1.8c-0.3,0.3-0.8,0.3-1.2,0.3
										c-0.2,0-0.3,0-0.5,0c-0.4,0.1-0.9,0.3-1.3,0.5C20.4,30.5,20.1,30.6,19.7,30.6z"/>
									<path class="st5" d="M23.1,25.7c-0.6-1.1-1-2.3-1.1-3.6c0-0.4-0.1-0.7-0.1-1.1c0-0.5,0-1.1-0.1-1.6l0.5-0.1
										c0.1,0.6,0.1,1.1,0.2,1.7c0,0.3,0,0.7,0.1,1c0.1,1.2,0.5,2.4,1.1,3.4L23.1,25.7z"/>
									<path class="st5" d="M10.9,33.6c-0.4,0-0.8,0-1.1,0l0-0.5c0.9,0.1,1.8,0.1,2.7-0.1c0.5-0.1,1-0.1,1.5-0.2
										c0.6-0.1,1.2-0.2,1.9-0.3c1.2-0.1,2.3,0,3.4,0.5l-0.2,0.4c-1-0.5-2.1-0.6-3.1-0.5c-0.6,0.1-1.2,0.2-1.8,0.3
										c-0.5,0.1-1,0.2-1.5,0.2C12.1,33.6,11.5,33.6,10.9,33.6z"/>
									<path class="st5" d="M18,34.8C18,34.8,18,34.8,18,34.8c-0.6,0-1.1-0.1-1.6-0.1c-0.5,0-1,0-1.6,0c-0.4,0-0.8,0-1.3,0
										c-1.8-0.2-3.5-0.6-5.1-1.3l0.2-0.4c1.6,0.7,3.2,1.1,4.9,1.3c0.4,0,0.8,0,1.2,0c0.5,0,1.1,0,1.6,0c0.5,0.1,1,0.1,1.5,0.1
										c0.5,0,0.9-0.2,1.2-0.5l0.4,0.3C19.2,34.5,18.6,34.8,18,34.8z"/>
									<path class="st5" d="M20.1,33.7l0-0.5c0.3,0,0.5-0.2,0.8-0.3c0.2-0.1,0.5-0.3,0.7-0.3c0.3-0.1,0.5-0.1,0.8-0.1h2.9
										c0.3,0,0.6,0,0.9,0.1c0.3,0.1,0.5,0.1,0.8,0.2c0.6,0.2,1.2,0.3,1.8,0.2c1,0,2-0.1,2.9-0.3l0.1,0.5c-1,0.2-2,0.3-3,0.3
										c-0.7,0-1.3-0.1-2-0.3c-0.2-0.1-0.5-0.2-0.7-0.2c-0.2,0-0.5-0.1-0.8,0h-3c-0.2,0-0.5,0-0.7,0.1c-0.2,0.1-0.4,0.2-0.6,0.3
										C20.7,33.5,20.4,33.7,20.1,33.7z"/>
									<path class="st5" d="M22.7,34.7c-0.2,0-0.5,0-0.7,0c-0.8,0-1.5-0.2-2.2-0.7l0.3-0.4c0.5,0.4,1.2,0.6,1.9,0.6
										c1.9,0.1,3.8-0.1,5.7-0.4l3.2-0.5l0.1,0.5l-3.1,0.5C26.1,34.5,24.4,34.7,22.7,34.7z"/>
									<path class="st5" d="M18.6,34l-5-0.1c-0.1,0-0.5,0-0.7-0.3l-0.2-0.4l0.4,0c1.5,0.1,3,0,4.5-0.1c0.2,0,0.4,0,0.6-0.1
										c0.3,0,0.6-0.1,1-0.1c1-0.1,1.9,0,2.9,0c1.1,0,2.2,0,3.3,0c0.7,0,1.4,0.1,2.1,0.4l1.2,0.5l-8.1,0l0-0.4c-0.5,0-0.9,0-1.4,0
										c-0.2,0-0.4,0-0.6,0.1L18.6,34z"/>
									<path class="st5" d="M19.5,38.3c-2.1,0-4.3-0.1-6.2-1.1c-0.4-0.2-0.7-0.4-1.1-0.7c-0.4-0.4-0.8-0.8-1-1.3l0.4-0.2
										c0.2,0.4,0.5,0.8,0.9,1.2c0.3,0.2,0.6,0.4,1,0.6c2.2,1.1,4.9,1,7.2,1c0.7,0,1.5,0,2.2-0.2c0.6-0.1,1.2-0.3,1.7-0.6
										c1.2-0.4,2.2-1.1,2.9-2.1l0.4,0.3c-0.8,1-1.9,1.8-3.1,2.2c-0.6,0.3-1.2,0.5-1.8,0.6c-0.7,0.1-1.5,0.2-2.3,0.2
										C20.4,38.3,19.9,38.3,19.5,38.3z"/>
									<path class="st5" d="M19.9,36.3c-2.6,0-5.3-0.2-7.9-0.7l0.1-0.5c3.3,0.6,6.6,0.8,10,0.7c0.9,0,1.8,0,2.8-0.2
										c0.6-0.1,1.2-0.3,1.8-0.5l0.2,0.4c-0.6,0.3-1.3,0.4-1.9,0.5c-0.9,0.1-1.9,0.2-2.8,0.2C21.3,36.2,20.6,36.3,19.9,36.3z"/>
								</g>
							</g>
						</g>
						<g id="Group_41594" transform="translate(44.191 152.48)">
							<path id="Path_113115" class="st1" d="M37,23.1L22.5,41.9h-3.4v4.3l2.6,7.7l2.6,2.6l4.3,17.9l-4.3,10.2L11.4,97.4l-7.7,8.5
								l-3.4,27.3c0,0,11.1,6.8,12.8,1.7c1-2.9,2.1-5.8,3.4-8.5l1.7-2.6l1.7,5.1v4.3c0,0-0.9,7.7,8.5,6s4.3,6,16.2,4.3
								s29,4.3,33.3,0c2.5-2.9,5.4-5.5,8.5-7.7c2.4-1.6,4.7-3.3,6.8-5.1l-0.9-6.8v-10.2l-6-25.6l-5.1-3.4l-13.6-6l3.4-20.5l2.6-1.7
								v-5.1l4.3-6l-2.6-3.4L60.9,22.3l-12.8-8.5L37,23.1z"/>
							<g id="Group_41593">
								<path id="Path_113116" class="st4" d="M37.8,75v-7.5l-0.4-0.4L34.2,64l-2.3-2.9l-2.3-2.8l-1.4-3.3l-0.9-2l-4,2.7l-0.8-0.4
									v17.6l1.8,4.2l1.3,4.6l0.9,5l0.1,9.1l1.1,7.2l2.4,8.8c0,0,0.8,5.4,3.3,3.8c1.6-1.2,2.6-3,2.8-5l0.5-4.3V99l1.6-7l-1.2-6.1
									l-1-5.4l1.3-6.7l0.9-1.9"/>
								<path id="Path_113117" class="st4" d="M42,132.4l0.3-5.3l-1.7-3.3l-2.4-3.4l-2.2-1.1l-5.1-0.6l2,11.1l1.9,8.6l0.9,1.6
									l1.2-0.5l1.3-1.7l2.3-3.8l1.5-0.9L42,132.4z"/>
								<path id="Path_113118" class="st4" d="M72.1,58.5l-0.6,5.8l-0.1,5.4L71,74l-0.4,3.2c0,0-0.8,0.7,0.7,3.3
									c0.9,1.6,1.6,3.3,2,5.1l1.6,3.7l0.9,3l0.2,5.8c1.3,0.8,2.3,2.1,2.5,3.7c0.7,2.9,0.8,3.5,0.8,3.5s1.2,4.6-1.8,4.8
									c-2.2,0-4.2-0.7-6-1.9l-2.1-5c0,0-1.8-2.6-1.9-2.8s-4-3.7-4-3.7l-3.5-9.1l-4.1-14.9l4.5-3.9l3.8-3.2l2.8-3.8l1.4-3.1
									L72.1,58.5z"/>
								<path id="Path_113119" class="st4" d="M86.6,131.3l-2.4-6.6l-1.9-4.1l-0.4-3.2c0,0,0.4-2.8-2.4-2.7s-3.2-1-3.4-0.8
									s-2.3-0.4-2.5,5.1s1.4,21.1,1.4,21.1l1.2-0.2l2.1-2.1L81,135l1.6-0.7l2.7,0l1-0.6l0.3-3.2"/>
								<path id="Path_56072" class="st2" d="M49.1,19.9c0,0-0.5,14.3-7.6,22s-1,25.9,8.2,33.5c0,0-6.1,19.5,6,22.9l-5.6,3.1
									l-3.4,0.5l-3.5-1.6l-2.5-2.8l-3.8-2.8l0.9-3.9l-0.5-3.8l-1.2-5.8v-3.7l1.2-7.3l-5.9-5.5l-3.9-3.8l-0.7-3.9l-1.4-4l-0.9-4.2
									l0.6-3.8l1.4-2.4l2.7-3l6.4-5.8l6.1-6.2l4.2-8.5C46.9,18.3,48.4,18.7,49.1,19.9z"/>
								<g id="Group_14792">
									<path id="Path_56088" class="st3" d="M61.5,93.6c-2.9,2.6-5.9,5.1-9,7.4c-1.5,0.1-3,0.4-4.5,0.9l-10.7-6.5l-1.4,9.9
										l0.3,3.2c0,0-0.4,4.5-0.4,4.5s-1.7,2.9-1.7,2.9l2.4,0.6l1.2,2.1l-0.5,1.3l2.5,2.5c0,0,9.1,6.3,14.6,4.4s11.4-8.9,11.4-8.9
										l5.5-10.2l-1.7-4.2c0,0,0.2-1.8-0.1-2S66.2,99,66.2,99L63.8,96l-0.7-2C63.2,94,62.1,93.1,61.5,93.6z"/>
									<path id="Path_56089" class="st3" d="M75.2,78.1l-4.5,0.2l1.4,2.9l0.9,4.6l1.5,2.4c0,0,1.3,3.2,1.4,3.4s0.8,2.4,0.8,2.4
										L76,97.9c1.1,0.5,2.4,0.3,3.3-0.6c1.4-1.5,2.8-2.9,4.4-4.3l3.8-1.9l0.5-1.4l-0.5-2.9l-1.8-2.6l-2.4-1.8l-1.3-1.1l-1.9-1.8
										l-2.2-1L75.2,78.1z"/>
									<path id="Path_56090" class="st3" d="M29,114.7l-8.3-7.3l-3.7-3l-3.2-1.4c0,0-3.9,0.2-4.2,0.2S5,104.4,5,104.4l-0.7-1.1
										L3.9,98l1.7-3.4c-1-1.5-0.7-3.6,0.7-4.8c1.9-1.8,4-3.2,6.3-4.4c0,0-0.2-2,2.8-3.3c2-0.8,4.2-1.4,6.4-1.7l2.7,1.7l2,2.7
										v12.1l1.7,8.4l1.8,7.2C29.9,112.5,31.8,114.6,29,114.7z"/>
									<g id="Group_14791">
										<path id="Path_113120" class="st4" d="M47.5,76.3c-1,0-2-0.1-3-0.4c-2.9-1.1-5.6-2.9-7.7-5.2l-6.3-5.9
											c-1.4-1.2-2.6-2.6-3.4-4.3l0-0.1c-0.5-1.6-0.9-3.2-1.2-4.8c-0.3-0.7-0.6-1.5-0.9-2.2c-0.5-1-0.9-2.1-1.2-3.2
											c-0.5-3.2,0.4-6.4,2.5-8.8c1.9-2.3,4.1-4.3,6.4-6.2c5.3-4.7,9.8-10.4,13.1-16.7l1.2,0.6c-3.4,6.5-7.9,12.3-13.4,17.1
											c-2.3,1.8-4.4,3.8-6.3,6c-1.8,2.1-2.6,4.9-2.2,7.6c0.3,1,0.6,1.9,1.1,2.8c0.4,0.8,0.7,1.6,1,2.4c0.3,1.6,0.7,3.1,1.2,4.6
											c0.8,1.5,1.8,2.7,3.1,3.8l6.4,6c2,2.1,4.4,3.8,7.1,4.9c4.3,1.2,9.3-0.7,14.9-5.7c3.4-2.8,6.2-6.2,8.3-10.1
											c3.1-7,2.2-15.2-2.4-21.4c-2.5-3-5.2-5.9-8.1-8.6c-1.1-1.1-2.1-2.3-3.1-3.5l1.1-0.9c1,1.2,2,2.3,3,3.4
											c2.9,2.8,5.6,5.7,8.2,8.7c5,6.6,6,15.4,2.6,22.9c-2.2,4-5.1,7.6-8.6,10.5C55.9,74.1,51.5,76.3,47.5,76.3z"/>
										<path id="Path_113121" class="st4" d="M55.4,27.3c-3.3-1.7-5.9-4.4-7.6-7.7l1.3-0.6c1.5,3,4,5.5,7,7.1L55.4,27.3z"/>
										<path id="Path_113122" class="st4" d="M71.6,59.5l-0.4-1.3c1.8-0.6,2.1-3.3,2.2-4.4l0-0.4c-0.2-2.1,0.5-4.1,1.8-5.7
											c0.3-0.2,0.6-0.5,0.9-0.8c0.2-0.4,0.3-0.9,0.2-1.3v-0.1c0.1-1-0.2-2-0.9-2.7c0-0.1-0.1-0.1-0.2-0.1
											c-0.1,0.1-0.2,0.1-0.2,0.2l-3,4L70.9,46l3-4c0.2-0.4,0.6-0.7,1-0.8l0.2,0c0.5-0.1,1.1,0.2,1.5,0.6c0.9,1,1.3,2.3,1.2,3.7
											c0.1,0.7-0.1,1.5-0.5,2.1l-0.1,0.1c-0.3,0.4-0.7,0.7-1.1,1c-1,1.4-1.5,3-1.3,4.7l0,0.5C74.6,56.9,73.5,58.9,71.6,59.5z"/>
										<path id="Path_113123" class="st4" d="M23,56.5c-0.6,0-1.2-0.2-1.7-0.6c-0.9-0.8-1.5-1.9-1.6-3.2c-0.1-0.5-0.1-1-0.1-1.5
											c0-0.5,0-1-0.1-1.5c-0.1-0.7-0.3-1.4-0.5-2.1c-0.7-1.6-0.8-3.3-0.3-5c0.4-1.2,1.5-1.9,2.7-1.6c0.8,0.4,1.4,1.1,1.6,2
											c0.1,0.4,0.3,0.9,0.6,1.2l-0.8,1.1c-0.6-0.5-1-1.2-1.1-1.9c-0.2-0.6-0.4-1-0.7-1.1c-0.3-0.1-0.8,0.3-1,0.8
											c-0.3,1.3-0.2,2.8,0.4,4c0.2,0.8,0.4,1.5,0.6,2.3c0.1,0.6,0.1,1.1,0.1,1.7c0,0.5,0,0.9,0.1,1.4c0,0.9,0.4,1.7,1.1,2.2
											c0.5,0.4,1.3,0.3,1.8-0.2l1,0.9C24.4,56.1,23.7,56.5,23,56.5z"/>
										<path id="Path_113124" class="st4" d="M76,40.9l-1.3-0.4C78.9,26.6,71,11.9,57.1,7.7C44,3.7,30,10.5,24.9,23.3
											c-1.7,5.1-2.5,10.4-2.4,15.7l-1.4,0c-0.1-5.5,0.7-11,2.5-16.2C29.2,8.5,45.3,1.4,59.5,7C73.1,12.2,80.2,27,76,40.9
											L76,40.9z"/>
										<path id="Path_113125" class="st4" d="M69.8,82.1l-1.2-0.7c1.2-2.8,1.7-5.8,1.5-8.8c0-0.6,0-1.1,0-1.6
											c0.1-3.1,0.5-6.2,1.1-9.3l1.4,0.3c-0.6,3-1,6-1.1,9c0,0.5,0,1.1,0,1.6C71.8,75.8,71.2,79.1,69.8,82.1z"/>
										<path id="Path_113126" class="st4" d="M76.7,99.1l-1.4-0.2c0.4-2.7,0.2-5.4-0.4-8c-0.5-1.3-1.2-2.6-1.9-3.9
											c-1.2-2.5-2.1-5.1-2.7-7.8l1.4-0.2c0.5,2.6,1.3,5.1,2.5,7.4c0.7,1.3,1.4,2.7,2,4.1C76.9,93.2,77.1,96.2,76.7,99.1z"/>
										<path id="Path_113127" class="st4" d="M79.8,106.5l-1.4-0.2c0.4-2.2-0.2-4.5-1.7-6.2l1.1-0.9
											C79.5,101.2,80.3,103.9,79.8,106.5z"/>
										<path id="Path_113128" class="st4" d="M71.7,109c-1.2-1.1-2.1-2.6-2.3-4.2c-0.2-1-0.6-2-1.2-2.9c-0.5-0.7-1.1-1.3-1.8-1.8
											c-1.6-1.4-2.9-3.1-3.9-5c-1.7-3.4-3-6.9-3.8-10.6l-2.6-9.9l1.3-0.4l2.6,9.9c0.8,3.6,2,7,3.7,10.3c1,1.7,2.2,3.3,3.6,4.6
											c0.7,0.6,1.4,1.3,2,2c0.7,1,1.1,2.2,1.4,3.3c0.2,1.3,0.8,2.5,1.8,3.5L71.7,109z"/>
										<path id="Path_113129" class="st4" d="M36.3,108.6c-1-3.6-1-7.3,0-10.9c0.2-1.3,0.5-2.7,0.6-4c0.4-3.3,0.1-6.7-0.9-9.9
											c-0.3-0.8-0.5-1.7-0.6-2.6c-0.1-1.1,0-2.2,0.2-3.4l0.9-6.1l1.4,0.2l-0.9,6.1c-0.2,1-0.2,2-0.2,3c0.1,0.8,0.3,1.6,0.6,2.3
											c1,3.4,1.3,7,1,10.5c-0.1,1.4-0.4,2.8-0.6,4.1c-0.9,3.3-1,6.9-0.1,10.2L36.3,108.6z"/>
										<path id="Path_113130" class="st4" d="M29.6,112.9c-2.9-7.8-4.2-16-4-24.3c0.1-1.8,0.1-3.6-0.1-5.4
											c-0.6-2.2-1.3-4.4-2.2-6.6c-1.5-5.4-1.9-11.1-1.4-16.7l1.4,0c-0.5,5.4,0,10.9,1.4,16.2c0.9,2.2,1.7,4.5,2.2,6.8
											c0.2,1.9,0.3,3.8,0.1,5.7c-0.2,8.1,1.1,16.1,3.9,23.7L29.6,112.9z"/>
										<path id="Path_113131" class="st4" d="M33.6,116.2L33,115c2.4-1.3,3.5-4.2,2.5-6.8l1.3-0.5C38,111,36.7,114.6,33.6,116.2z
											"/>
										<path id="Path_113132" class="st4" d="M35.2,120c-0.4,0-0.9-0.1-1.3-0.3l0.2-0.6l0.3-0.6c0.5,0.2,1.1,0.2,1.6-0.1
											l-0.2-0.2l3.1-2.2l-1.1,2.4C37.4,119.3,36.4,119.9,35.2,120z"/>
										<path id="Path_113133" class="st4" d="M36.1,119.9l-0.2-1.4c0.3,0,0.6-0.3,0.6-0.6c0.1-0.2,0-0.4-0.1-0.6
											c-0.4-0.5-1.1-0.7-1.8-0.5l-0.4-1.3c1.2-0.4,2.6,0,3.4,1.1c0.6,1,0.3,2.3-0.7,3C36.7,119.8,36.4,119.9,36.1,119.9
											L36.1,119.9z"/>
										<path id="Path_113134" class="st4" d="M35.8,140.7c-0.1,0-0.2,0-0.2,0c-0.7-0.2-1.2-0.7-1.3-1.4
											c-2.2-6.6-3.5-13.5-4.1-20.5l1.4-0.1c0.5,6.9,1.9,13.6,4,20.2c0.1,0.4,0.2,0.5,0.2,0.5c0.1,0,0.1,0,0.2-0.1
											c0.9-0.7,1.5-1.6,1.9-2.6c0.4-1.2,1.2-2.3,2.3-3.2c0.2-0.1,0.4-0.2,0.6-0.3c0.4-0.2,0.8-0.4,0.9-0.7c0-0.3,0-0.6-0.1-0.9
											c-0.1-0.8-0.2-1.6-0.3-2.4c0-0.6-0.1-1.2-0.2-1.8c-0.5-3-2.3-5.7-4.9-7.3l0.7-1.2c2.9,1.8,5,4.8,5.5,8.3
											c0.1,0.6,0.1,1.3,0.2,1.9c0,0.7,0.1,1.5,0.2,2.2c0.2,0.5,0.2,1.1,0.1,1.6c-0.3,0.7-0.9,1.3-1.6,1.6
											c-0.2,0.1-0.3,0.2-0.5,0.3c-0.8,0.7-1.4,1.6-1.8,2.6c-0.4,1.3-1.3,2.5-2.4,3.2C36.5,140.6,36.2,140.7,35.8,140.7z"/>
										<path id="Path_113135" class="st4" d="M76.4,111.1c-0.3,0-0.6,0-0.8-0.1l0.5-1.3c0.5,0.2,1.1,0,1.4-0.5l1.2,0.7
											C78.1,110.6,77.3,111.1,76.4,111.1z"/>
										<path id="Path_113136" class="st4" d="M78.4,115.9c-1.4,0-2.5-1.1-2.5-2.5c0,0,0,0,0,0v0h1.4c0,0.1,0,0.2,0,0.2
											c0.1,0.6,0.7,1,1.3,0.8h0c0.8-0.3,1.2-1,1.2-1.8c-0.1-0.9-0.5-1.8-1.2-2.4l1-1c0.9,0.9,1.5,2.1,1.6,3.4
											c0.1,1.5-0.8,2.8-2.2,3.2C78.8,115.9,78.6,115.9,78.4,115.9z"/>
										<path id="Path_113137" class="st4" d="M75.1,141.2c-0.1,0-0.3,0-0.4-0.1c-0.5-0.2-0.8-0.7-0.7-1.2
											c-0.5-7.5-0.7-15-0.7-22.5h1.4c0,7.4,0.2,14.9,0.7,22.3c1.1-0.7,2-1.6,2.7-2.7c0.2-0.2,0.3-0.4,0.5-0.6
											c1.1-1.6,2.8-2.7,4.7-2.9c0.3,0,0.6,0,0.9,0.1c0.8,0.1,1.4,0.1,1.6-0.2c0.1-0.2,0.1-0.3,0.1-0.5c0.1-1.1,0-2.3-0.2-3.4
											c-0.5-1.6-1.2-3.1-2-4.5c-1.5-2.2-2.3-4.7-2.4-7.3l1.4,0.1c0.1,2.3,0.9,4.6,2.2,6.6c0.9,1.5,1.6,3.1,2.1,4.8
											c0.3,1.2,0.4,2.5,0.3,3.8c0,0.4-0.1,0.8-0.3,1.2c-0.7,1.1-1.9,1-2.9,0.9c-0.2,0-0.5,0-0.7-0.1c-1.5,0.2-2.9,1.1-3.7,2.4
											c-0.2,0.2-0.3,0.4-0.5,0.6c-0.9,1.3-2,2.4-3.4,3.1C75.5,141.2,75.3,141.2,75.1,141.2z"/>
										<path id="Path_113138" class="st4" d="M82.2,83.2c-0.5-1.7-1.8-3-3.4-3.6c-1.8-0.6-3.6-0.9-5.5-0.8l-0.1-1.4
											c2-0.1,4.1,0.2,6,0.9c2.1,0.8,3.7,2.4,4.3,4.5L82.2,83.2z"/>
										<path id="Path_113139" class="st4" d="M79.9,97.8L78.8,97c1.8-2.5,4.1-4.5,6.9-5.8c0.5-0.2,1-0.5,1.4-0.9
											c0.4-0.7,0.5-1.6,0.1-2.4c-0.8-2.4-2.6-4.3-4.9-5.2l0.5-1.3c2.7,1,4.8,3.2,5.7,6c0.5,1.2,0.4,2.6-0.3,3.7l-0.1,0.1
											c-0.5,0.6-1.2,1-1.9,1.2C83.7,93.7,81.5,95.5,79.9,97.8z"/>
										<path id="Path_113140" class="st4" d="M53.2,106.1c-0.5,0-1.1,0-1.6-0.1c-1.7,0.1-3.4-0.1-5-0.7c-1.8-0.6-3.1-2.2-3.3-4.1
											l1.4-0.2c0.2,1.4,1.1,2.5,2.4,3c1.4,0.5,3,0.7,4.5,0.6h0.2c3.9,0.6,7.7-1.3,9.5-4.8c0.5-0.8,1.1-1.6,0.8-2.1l1.3-0.6
											c0.4,1.2,0,2.6-0.9,3.5C60.6,104,57.1,106.1,53.2,106.1z"/>
										<path id="Path_113141" class="st4" d="M51.9,127.8L51.9,127.8c-2.7,0.3-5.2-1.3-6.1-3.7l1.4-0.3c0.4,1.8,2.7,2.6,4.7,2.6
											h0c2.6,0,5.1-0.8,7.2-2.3c1.3-1,2.6-2.2,3.6-3.5c3.3-3.5,5.9-7.6,7.7-12l1.3,0.5c-1.8,4.6-4.5,8.8-7.9,12.5
											c-1.1,1.4-2.4,2.6-3.9,3.7C57.6,126.9,54.8,127.8,51.9,127.8z"/>
										<path id="Path_113142" class="st4" d="M52.2,116.6c-2,0-4.1-0.3-6-1l0.5-1.3c5.2,1.8,10.9,1,15.3-2.1l0.8,1.1
											C59.7,115.4,56,116.6,52.2,116.6z"/>
										<path id="Path_113143" class="st4" d="M55.9,120.1c-1.9,0-3.8-0.1-5.7-0.4c-2.7-0.3-4.3-1.4-4.6-3.1l1.4-0.2
											c0.2,1.3,2.2,1.8,3.4,1.9c3,0.4,6,0.5,9,0.2l0.1,1.4C58.3,120,57.1,120.1,55.9,120.1z"/>
										<path id="Path_113144" class="st4" d="M14.2,83.9l-1-1c2.4-2.4,5.8-3.5,9.1-3.1c1.4,0.2,2.8,0.9,2.8,2.3h-1.4
											c0-0.5-0.8-0.8-1.5-0.9C19.3,80.8,16.3,81.8,14.2,83.9z"/>
										<path id="Path_113145" class="st4" d="M6.3,91.3L5,90.7c2.4-5,8.3-7.3,13.5-5.3L18,86.7C13.5,84.9,8.3,86.9,6.3,91.3z"/>
										<path id="Path_113146" class="st4" d="M28.6,115.3c-2.8-2.4-5.6-4.8-8.4-7.3c-1.3-1.3-2.8-2.4-4.4-3.3
											c-3.3-1.1-6.9-1.1-10.2-0.1c-0.4,0.1-0.8,0.1-1.2-0.1l-0.1-0.1c-0.3-0.2-0.6-0.6-0.7-1c-0.9-3.2-0.1-6.7,2.1-9.1
											c2.2-2.4,5.2-3.9,8.4-4.3l0.2,1.4c-2.9,0.3-5.6,1.7-7.5,3.9c-1.9,2.1-2.6,5.1-1.8,7.9c0,0.1,0,0.2,0.1,0.2
											c0,0,0.1,0,0.1,0c3.7-1.1,7.6-1.1,11.2,0.2c1.7,0.9,3.3,2.1,4.7,3.5c2.7,2.4,5.5,4.9,8.3,7.3L28.6,115.3z"/>
										<path id="Path_113147" class="st4" d="M47.8,102.6c-0.4,0-0.8,0-1.2-0.1c-2.8-0.8-5.3-2.5-7-4.9l1-0.9
											c1.5,2.1,3.7,3.7,6.2,4.5c2.5,0.2,5-0.6,7-2.2c2.3-1.5,4.4-3.3,6.3-5.3l1,1c-2,2.1-4.2,3.9-6.5,5.5
											C52.6,101.5,50.3,102.4,47.8,102.6z"/>
										<path id="Path_113148" class="st4" d="M92.4,124.8c-0.2-11.3-2-22.5-5.6-33.2l1.3-0.4c3.6,10.9,5.5,22.2,5.6,33.7
											L92.4,124.8z"/>
										<path id="Path_113149" class="st4" d="M92.9,123.2c-2.2-0.3-4.4-0.3-6.7-0.2l-0.1-1.4c2.3-0.2,4.6-0.1,6.9,0.2L92.9,123.2
											z"/>
										
											<rect id="Rectangle_17536" x="92.1" y="123.8" transform="matrix(0.9788 -0.205 0.205 0.9788 -24.1816 21.7311)" class="st4" width="1.4" height="7.5"/>
										<path id="Path_113150" class="st4" d="M11.9,127.1c-3.2,0.1-6.3-0.4-9.3-1.6c-0.5-0.2-1-0.5-1.3-1l-0.1-0.1
											c-0.2-0.6-0.3-1.2-0.1-1.8l2.3-16.6c0.1-0.5,0.2-1.8,1.4-2.1l0.4,1.3c-0.1,0-0.3,0.2-0.4,1l-2.3,16.7
											c-0.1,0.3-0.1,0.6,0,0.9c0.2,0.2,0.4,0.4,0.6,0.4c3.8,1.4,7.9,1.9,11.9,1.4l0,1.4C14.1,127.1,13,127.1,11.9,127.1z"/>
										<path id="Path_113151" class="st4" d="M1.7,134.1L0.3,134c0.1-2.5,0.6-5,1.5-7.3l1.3,0.5C2.3,129.4,1.8,131.7,1.7,134.1z"
											/>
										<path id="Path_113152" class="st4" d="M15.8,127.5c-0.2,0-0.5-0.1-0.7-0.2l0.7-1.2c0.1,0.1,0.4-0.1,0.7-0.5
											c2-2.5,1.6-6.1,1-9.6l1.4-0.2c0.6,3.6,1.1,7.7-1.2,10.7C17.1,127.1,16.5,127.5,15.8,127.5z"/>
										<path id="Path_113153" class="st4" d="M14,136.1l-1.4-0.3c0.5-2.3,0.8-4.6,0.9-6.9l1.4,0C14.8,131.3,14.5,133.7,14,136.1z
											"/>
										<path id="Path_113154" class="st4" d="M21.4,134.7l-1.4-0.1c0.4-3.2-0.2-6.5-1.6-9.4l1.3-0.6
											C21.1,127.7,21.7,131.3,21.4,134.7z"/>
									</g>
								</g>
								<path id="Path_113155" class="st4" d="M76.2,41.6l0.3-2.3l0.6-4.6l-1.6-9.1l-4.1-8.5L61.4,8.6l-9.3-2.6l-7.7,0.4l-10.7,4.6
									l-6.8,7.1l-3.8,8.7L21.8,32v9.6l3.2,3.2l1.4-2.4l6.7-6.6l5.6-5.7l5.9-9l1.6-1.3c0,0,1.3-2.6,3.3,1.1
									c0.8,1.9,2.3,3.5,4.2,4.4l2.1,0.2l4.5,4.7l6.4,7.1l2.9,5.8l0.8,3.3l1.8-0.8l2.1-2.9l1.4-1.1"/>
							</g>
						</g>
						<g id="Group_41596" transform="translate(138.925 164.828)">
							<path id="Path_113156" class="st1" d="M26.3,33.6L8.4,48.1l-0.9,5.1l4.3,5.1l4.2,1.7h6.8l11.9,12.8v6.8l-8.5,2.6L8.4,95.1
								l-6,10.2l-0.9,12v2.6c0,0,14.5,3.4,14.5,0.9c-0.1-2-0.4-4-0.9-6l4.3-5.1v11.1c0,0,45.2,4.3,45.2,0.9c0-2.3,0.3-4.6,0.9-6.8
								c0,0,0,6,3.4,6s12.8,0.9,13.7-0.9c0.7-2.5,0.9-5.1,0.9-7.7c0-0.9-4.3-15.4-4.3-15.4l-3.4-7.7l-11.1-9.4l-5.1-2.6l-1.7-6.8
								l5.1-2.6l5.1-7.7l5.1-0.9l3.4-1.7l2.6-2.6l-1.7-6.8l-3.4-9.4L58.8,16.5L26.3,33.6z"/>
							<g id="Group_41595">
								<g id="Group_14794">
									<path id="Path_56127" class="st3" d="M34.7,78.7l5.6,15.2c0,0,1.7,1.8,2.3-0.9c1.2-3.3,3-6.3,5.4-8.9
										c0.4-0.1,9.2-6.7,9.2-6.7s4.1-0.8,5.4,1.2S61.9,80,61.9,80l-8.2,6.8L50,94.3l-4.2,6.3L40,108l-1.4-0.3l-3-7.7l-2.5-5.5
										l-2.4-7.8l-1.4-4.1l-1.8-1.9l1.2-1.1C28.7,79.6,30.2,75.6,34.7,78.7z"/>
									<path id="Path_56128" class="st2" d="M33.7,35.5c0,0-12.1,18.9-1.1,31S64.9,66,64.9,66l-5.2,6.5l-1,4.4L50,82.7l-6,7.7
										l-3.6,6.8l-0.4-1c0,0-0.9-3.4-1.1-4s-2.7-5.4-2.7-5.4L34.8,83l-0.1-5l-1-2.7l-5.7-2l-4.1-2.7l-3-4.2l-2.5-8l0.8-5.7
										l2.8-6.9l2.8-5.4l2.6-2.4L33.7,35.5z"/>
									<g id="Group_14793">
										<path id="Path_113157" class="st4" d="M32.8,37.2l-0.5-1.3l10-3.5c3.4-1,6.6-2.9,9.1-5.4l1,1c-2.7,2.7-6,4.6-9.7,5.8
											L32.8,37.2z"/>
										<path id="Path_113158" class="st4" d="M19.8,53.9c-0.2-3.7,0.7-7.4,2.5-10.7c0.4-0.8,0.8-1.6,1.2-2.4
											c2.5-3.9,7.2-5.5,11.8-6.8c4.7-1.4,8.8-2.8,11.1-6.1l1.1,0.8c-2.8,4-8,5.6-11.9,6.7c-4.3,1.3-8.7,2.8-11,6.2
											c-0.4,0.7-0.8,1.4-1.1,2.2c-1.7,3-2.6,6.4-2.4,9.9L19.8,53.9z"/>
										<path id="Path_113159" class="st4" d="M19.8,58.6c-0.7-4.2-1.2-8.5-1.2-12.7l1.4,0c0.1,4.2,0.5,8.4,1.2,12.5L19.8,58.6z"
											/>
										<path id="Path_113160" class="st4" d="M18.7,55.5c-1-3.1-2.6-6.1-4.7-8.7c-0.4-0.7-1.1-1.2-1.9-1.4
											c-0.8-0.1-1.5,0.5-1.6,1.2l-1.4-0.3c0.3-1.5,1.8-2.5,3.3-2.3c1.1,0.3,2.1,1,2.7,2c2.1,2.7,3.8,5.8,4.8,9.1L18.7,55.5z"/>
										<path id="Path_113161" class="st4" d="M8.2,43.4c-1.1-7.7,0.9-15.5,5.4-21.8c4.6-6.2,11.1-10.8,18.5-13l0.4,1.3
											c-7.1,2.1-13.4,6.4-17.7,12.4c-4.3,6-6.2,13.5-5.2,20.8L8.2,43.4z"/>
										<path id="Path_113162" class="st4" d="M10.6,25.6L9.4,25c2.9-4.5,6.6-8.4,11.1-11.4c2.4-1.9,5-3.5,7.7-4.9
											c4.1-1.7,8.5-2.8,13-3.2c2.7-0.5,5.4-0.5,8-0.2C52,5.6,54.6,7,56.5,9.2l-1.1,0.9c-1.6-1.9-3.9-3.1-6.3-3.4
											c-2.6-0.3-5.2-0.2-7.7,0.2C37,7.3,32.8,8.3,28.8,9.9c-2.6,1.3-5.1,2.9-7.4,4.7C17.1,17.5,13.4,21.3,10.6,25.6z"/>
										<path id="Path_113163" class="st4" d="M73.4,23.4c-1.3-3.5-3.3-6.8-6-9.4c-2.6-2.6-6.4-3.7-10-2.8l-0.4-1.3
											c4.1-1,8.3,0.2,11.3,3.2c2.8,2.8,5,6.2,6.3,10L73.4,23.4z"/>
										<path id="Path_113164" class="st4" d="M80,42.1c-0.7-5.4-1.9-10.7-3.6-15.8c-0.6-2.1-1.5-4-2.8-5.7
											c-1.4-1.5-3-2.8-4.7-3.8l-6.2-3.9l0.7-1.2l6.1,3.9c1.9,1.1,3.6,2.4,5.1,4.1c1.4,1.9,2.4,4,3,6.2c1.7,5.2,2.9,10.6,3.6,16
											L80,42.1z"/>
										<path id="Path_113165" class="st4" d="M48.5,36.2c-0.4,0-0.8,0-1.2-0.1c-0.9,0-1.4-0.4-1.6-1l-0.1-0.5l0.4-0.3
											c2.3-1.2,4.1-3.1,5.1-5.4l1.3,0.4c-0.9,2.3-2.5,4.2-4.6,5.4c1.5,0.1,3-0.2,4.4-0.8c0.7-0.5,1.4-1.1,1.9-1.7
											c1.5-1.5,3.2-2.8,5-3.9l0.7,1.2c-1.7,1-3.3,2.2-4.7,3.6c-0.7,0.7-1.4,1.4-2.2,1.9C51.6,35.8,50.1,36.2,48.5,36.2z"/>
										<path id="Path_113166" class="st4" d="M53.7,33.3l-1-1l2-1.9c1.3-1.7,3.3-2.7,5.5-2.7L60,29c-1.6-0.2-3.1,1.1-4.3,2.4
											L53.7,33.3z"/>
										<path id="Path_113167" class="st4" d="M71.4,50.5c-0.6-2.6-1.3-5.2-2.1-7.7c-0.4-1.3-0.9-2.6-1.5-3.8
											c-0.9-1.3-1.9-2.5-3-3.5c-1.5-1.3-2.7-2.9-3.7-4.7l1.3-0.6c0.9,1.6,2,3.1,3.4,4.3c1.2,1.1,2.3,2.4,3.2,3.8
											c0.7,1.3,1.3,2.6,1.7,4.1c0.8,2.5,1.5,5.1,2.1,7.7L71.4,50.5z"/>
										<path id="Path_113168" class="st4" d="M69.8,52.9l-1.4-0.1c0.2-3.7,0.2-7.4,0.1-11.1l1.4-0.1C70,45.4,70,49.2,69.8,52.9z"
											/>
										<path id="Path_113169" class="st4" d="M70,53l-1.3-0.5c0.6-1.4,1.1-2.9,1.6-4.3c0.3-1.3,0.9-2.6,1.8-3.6
											c1.1-1.2,3-1.3,4.2-0.2l0.1,0.1c0,0,0.1,0.1,0.1,0.1l-0.7,0.7l-0.2,0.3l-0.1-0.1l0,0l-0.1-0.1c-0.6-0.6-1.7-0.6-2.3,0.1
											c-0.7,0.9-1.2,1.9-1.4,3C71.1,50,70.6,51.5,70,53z"/>
										<path id="Path_113170" class="st4" d="M78.8,47l-1.4,0c0.1-2-0.1-4-0.6-6l1.4-0.3C78.7,42.8,78.9,44.9,78.8,47z"/>
										<path id="Path_113171" class="st4" d="M42.9,78.4c-3.1,0-6.1-0.6-9-1.7c-4.6-1.2-8.8-3.8-12-7.4
											c-2.3-3.5-3.7-7.5-4.2-11.6l1.4-0.2c0.4,3.9,1.8,7.7,3.9,11c3,3.4,7,5.8,11.4,6.9C37.1,76.5,40,77,43,77v1.4L42.9,78.4z"
											/>
										<path id="Path_113172" class="st4" d="M41.8,79.2c-1.8,0-3.5-0.2-5.3-0.6l0.3-1.4c5,1.1,10.2,0.5,14.8-1.6
											c1.3-0.6,2.6-1.4,3.9-2.2c3.4-2.1,6.4-4.8,8.8-8c2.3-3.2,3.5-7,3.4-11l1.4-0.1c0.2,4.3-1.1,8.4-3.7,11.9
											c-2.5,3.3-5.6,6.2-9.1,8.3c-1.3,0.8-2.6,1.6-4,2.3C49,78.5,45.4,79.2,41.8,79.2z"/>
										<path id="Path_113173" class="st4" d="M13.8,60.1c-1,0-1.9-0.4-2.6-1c-0.9-0.8-1.6-1.9-2-3c-0.4-1-0.8-2-1.3-2.9
											c-0.2-0.3-0.5-0.7-0.6-1.1C7,51.4,6.9,50.7,7.1,50c0.2-1.3,0.9-2.5,2-3.4l0.9,1.1c-0.8,0.7-1.3,1.6-1.5,2.6
											c-0.1,0.4-0.1,0.9,0.1,1.3c0.1,0.3,0.3,0.6,0.5,0.9c0.6,1,1.1,2.1,1.5,3.2c0.4,0.9,0.9,1.8,1.7,2.5
											c0.6,0.6,1.6,0.8,2.4,0.5l0.4,1.3C14.6,60,14.2,60.1,13.8,60.1z"/>
										<path id="Path_113174" class="st4" d="M17.2,61.4c-1.4-0.2-2.7-0.8-3.7-1.9c-2.2-1.9-4.3-3.9-6.2-6.1l1-0.9
											c1.9,2.1,3.9,4.1,6.1,5.9c1,0.9,2.3,1.8,3.3,1.5l0.4,1.3C17.8,61.4,17.5,61.4,17.2,61.4z"/>
										<path id="Path_113175" class="st4" d="M72.3,61.2L71.7,60c2.1-0.7,4-2,5.3-3.8c0.7-1.5,1-3.1,0.9-4.7v-0.1l0-0.1
											c0.3-1.4-0.3-2.8-1.5-3.5l0.7-1.2c1.7,1,2.6,2.9,2.2,4.9c0,1.8-0.3,3.6-1.1,5.3C76.8,58.9,74.7,60.5,72.3,61.2z"/>
										<path id="Path_113176" class="st4" d="M71.8,60.9c-1.2,0-2.5-0.2-3.7-0.6l0.5-1.3c1.4,0.5,2.8,0.6,4.3,0.5
											c0.3,0,0.6,0,0.9-0.2c0.1-0.1,0.2-0.2,0.3-0.4c0.8-1,1.5-2.1,2.1-3.3l1.3,0.6c-0.6,1.3-1.3,2.4-2.2,3.5
											c-0.2,0.3-0.5,0.5-0.8,0.7c-0.5,0.2-1,0.4-1.5,0.3C72.6,60.9,72.2,60.9,71.8,60.9z"/>
										<path id="Path_113177" class="st4" d="M39.6,94.5c-0.7-2.2-1.5-4.4-2.5-6.5c-1.6-3.1-2.6-6.5-3.1-9.9l1.4-0.1
											c0.4,3.3,1.5,6.5,3,9.5c1,2.2,1.9,4.4,2.6,6.8L39.6,94.5z"/>
										<path id="Path_113178" class="st4" d="M39.3,98.2c-0.2-2.9-0.8-5.7-2-8.4c-0.3-0.6-0.7-1.2-1.1-1.8
											c-0.6-0.9-1.1-1.9-1.6-2.9c-0.7-1.7-0.9-3.6-0.5-5.4l1.4,0.3c-0.3,1.5-0.2,3.1,0.4,4.6c0.4,0.9,0.9,1.8,1.4,2.6
											c0.4,0.6,0.8,1.3,1.1,1.9c1.2,2.8,2,5.8,2.1,8.9L39.3,98.2z"/>
										<path id="Path_113179" class="st4" d="M41.1,97.5l-1.2-0.7l3.2-6.1c0.6-1.3,1.4-2.5,2.1-3.7c3.8-4.8,8.6-8.8,14.1-11.5
											l0.7,1.2c-6.9,2.7-12.4,8-15.6,14.6L41.1,97.5z"/>
										<path id="Path_113180" class="st4" d="M43.4,94c0-3,1.4-5.8,3.7-7.7c1.3-1.2,2.6-2.3,3.9-3.4c1-0.8,2.1-1.7,3-2.6
											c2.3-1.9,4-4.3,5-7.1l1.3,0.5c-1,3-2.9,5.7-5.4,7.7c-1,0.9-2,1.8-3.1,2.6c-1.3,1.1-2.6,2.1-3.8,3.3c-2,1.6-3.2,4-3.3,6.6
											L43.4,94z"/>
										<path id="Path_113181" class="st4" d="M1.7,115.3c-0.9-5.1-0.1-10.4,2.4-15c2.4-4.6,6.2-8.3,10.7-10.8
											c0.6-0.3,1.2-0.6,1.8-0.9c2.9-1.3,5.5-3.3,7.7-5.7l5-4.8l1,1l-5,4.8c-2.3,2.5-5,4.5-8.1,5.9c-0.6,0.3-1.2,0.6-1.8,0.9
											c-4.3,2.3-7.8,5.9-10.2,10.2C3,105.3,2.2,110.2,3,115L1.7,115.3z"/>
										<path id="Path_113182" class="st4" d="M1.7,120.2l-1.2-0.8c0.8-1.9,0.9-4,0.2-5.9c-0.2-0.9-0.3-1.8-0.4-2.8
											c0-4.5,1.6-8.8,4.4-12.2c0.8-1.2,1.8-2.3,2.8-3.3c1.1-0.9,2.3-1.8,3.5-2.6c5.2-3.6,10.1-7.6,14.9-11.8l0.9,1
											c-4.8,4.2-9.8,8.2-15,11.9c-1.2,0.7-2.3,1.5-3.3,2.4c-1,0.9-1.8,2-2.6,3.1c-2.7,3.2-4.1,7.2-4.2,11.3
											c0.1,0.9,0.2,1.7,0.4,2.6C2.9,115.5,2.7,118,1.7,120.2z"/>
										<path id="Path_113183" class="st4" d="M14.9,121c-0.4-1.7-0.7-3.4-0.7-5.1c-0.1-1,0-2.1,0.5-3.1c0.4-0.6,0.8-1.1,1.4-1.5
											l3.4-2.9l0.9,1.1l-3.4,2.9c-0.4,0.3-0.8,0.7-1.1,1.1c-0.3,0.7-0.4,1.5-0.3,2.3c0.1,1.7,0.3,3.3,0.7,4.9L14.9,121z"/>
										
											<rect id="Rectangle_17537" x="14.2" y="111.4" transform="matrix(0.5939 -0.8046 0.8046 0.5939 -83.6064 58.5952)" class="st4" width="4" height="1.4"/>
										<path id="Path_113184" class="st4" d="M19.1,121.1l-1.4-0.2c0.2-1.1,0.3-2.3,0.3-3.4c0.1-1.1,0.3-2.1,0.6-3.2
											c0.5-1.6,0.6-3.3,0.5-5l1.4-0.2c0.2,1.9,0,3.7-0.5,5.5c-0.2,1-0.4,2-0.6,3C19.3,118.8,19.2,119.9,19.1,121.1z"/>
										<path id="Path_113185" class="st4" d="M19.2,117.7l-1.4-0.2c0.2-1.8,0.7-3.5,1.4-5.1l1.3,0.6
											C19.8,114.5,19.3,116,19.2,117.7z"/>
										<path id="Path_113186" class="st4" d="M80.2,107.8c-0.6-5.7-1.2-12.1-4.7-17c-2.2-2.9-4.9-5.4-7.9-7.4l-7.1-5.4l0.8-1.1
											l7.1,5.4c3.1,2.1,5.8,4.7,8.2,7.7c3.7,5.3,4.4,12.2,5,17.7L80.2,107.8z"/>
										<path id="Path_113187" class="st4" d="M82.9,116c-0.9-6.6-3-13-6.3-18.9L74,91.8l1.2-0.6l2.6,5.4c3.4,6,5.6,12.6,6.5,19.4
											L82.9,116z"/>
										<path id="Path_113188" class="st4" d="M67,119c-1-1.5-1.7-3.1-2.2-4.9l1.3-0.4c0.5,1.6,1.1,3.1,2.1,4.5L67,119z"/>
										<path id="Path_113189" class="st4" d="M65,123.1l-0.6-3.7c-0.3-1.6-0.3-3.3,0-4.9l1.4,0.2l0,0l0.9,0.2L65,123.1z"/>
									</g>
									<path id="Path_113190" class="st4" d="M38.1,108.1c-1.3-1.8-2.2-3.8-2.6-6c-0.3-1.1-0.6-2.2-1-3.3
										c-0.3-0.8-0.7-1.6-1.1-2.3c-0.4-0.8-0.8-1.5-1.2-2.4c-0.6-1.7-1.1-3.4-1.5-5.1c-0.4-2.6-1.3-5.1-2.9-7.3l1.1-0.9
										c1.7,2.3,2.8,5,3.2,7.9c0.3,1.7,0.8,3.3,1.4,4.9c0.3,0.8,0.7,1.5,1.1,2.2c0.4,0.8,0.8,1.6,1.2,2.5c0.4,1.1,0.8,2.3,1.1,3.4
										c0.4,2,1.2,3.8,2.3,5.5L38.1,108.1z"/>
									<path id="Path_113191" class="st4" d="M40.1,109.3l-1.2-0.7c2-3.7,4.4-7.1,7.2-10.3c0.6-0.7,1.2-1.4,1.7-2.1
										c0.7-1.2,1.2-2.4,1.7-3.6c2.6-6,7.2-10.8,13-13.7l0.6,1.3c-5.5,2.7-9.9,7.3-12.3,12.9c-0.5,1.3-1.1,2.6-1.8,3.9
										c-0.6,0.8-1.2,1.6-1.8,2.3C44.4,102.4,42,105.7,40.1,109.3z"/>
								</g>
								<path id="Path_113192" class="st4" d="M70.7,48.5l0.5-0.8l1.7-3h1.3l4,0.8v-2.2c0,0,2.9,1.1,2.5-2s-4.3-17.5-4.3-17.5
									l-1.9-3.4l-3.3-3.8l-1.9-1.1l-2.3-3.2l-4.1-1.7h-3.3l-1.8-0.2l-3-2.1l-4.3-2.2L43,5.9l-8.3,1.3l-7,2.9l-5.5,3.5l-4.5,3
									l-2.9,3.6l-4.7,7.2l-1,6.9l-0.4,6.5c0.3,1.7,0.8,3.4,1.4,5c0.6-0.4,1.2-0.8,1.8-1.2l1.7,0.6l3.3,4.4l2.5,4.9l1.2-2.8
									l1.7-6.4l2.3-3.3l2.1-3.3l4.4-2.2l5.3-1.1l6.3-2.4l8.7-4.1l-0.2,1.6L47,34.4l0.8,1l3-0.3l3.3-2.3l2.6-1.9l2.9-2
									c0,0,1.4-0.2,3.2,3.3c1.4,2.4,3.3,4.5,5.4,6.2l1.9,5.5l-0.7,7.6l4.2-7.3l1.3,0.4"/>
							</g>
						</g>
					</g>
				</g>
			</g>
		</g>
	</g>
	<g id="Group_987" transform="translate(206.172 67.221)">
		<path class="st4" d="M34.3,7.3C31,5.3,27,5.2,23.6,6.8l-0.3-0.7c3.7-1.8,8-1.6,11.5,0.5L34.3,7.3z"/>
		<path class="st4" d="M12.7,7.8c-2.4-1.4-5.1-2.2-7.9-2.3C3.4,5.5,1.6,5.7,0.6,7L0,6.6C1.1,5,3.3,4.7,4.9,4.7
			c2.9,0.1,5.8,0.9,8.3,2.4L12.7,7.8z"/>
		<path class="st4" d="M13,14.4c-0.7-1.2-1.6-2.2-2.6-3.1c-1.2-0.9-2.8-1.4-4.3-1.4c-1.6,0-3.1,0.5-4.5,1.2l-0.4-0.7
			C2.7,9.5,4.4,9.1,6.1,9c0,0,0,0,0.1,0c1.7,0,3.4,0.6,4.8,1.6c1.1,1,2,2.1,2.8,3.3L13,14.4z"/>
		<path class="st4" d="M13.6,14.6c-1-0.6-2-1.3-2.9-2.1c-0.8-0.7-1.9-1-3-0.9c-0.3,0.1-0.6,0.2-0.9,0.4c-1.7,0.9-3.6,1.3-5.5,1.3
			l0-0.8c1.8,0.1,3.5-0.3,5.1-1.2c0.4-0.2,0.7-0.3,1.1-0.4c1.4-0.2,2.7,0.2,3.6,1.1c0.9,0.8,1.8,1.4,2.8,2L13.6,14.6z"/>
		<path class="st4" d="M13.4,15.2c-0.5-0.7-1.4-1-2.2-1c-0.9,0.1-1.9,0.3-2.8,0.5c-1,0.3-2.1,0.3-3.1-0.1c-0.4-0.2-0.8-0.4-1.1-0.7
			c-0.2-0.2-0.5-0.3-0.7-0.5C2.8,13.2,2,13,1.3,13.1l-0.1-0.8c0.9-0.1,1.9,0,2.7,0.5c0.3,0.2,0.5,0.3,0.8,0.5
			c0.3,0.2,0.6,0.4,0.9,0.6c0.8,0.3,1.7,0.3,2.6,0.1c1-0.3,2-0.5,3-0.6c1.2-0.1,2.2,0.4,2.9,1.3L13.4,15.2z"/>
		<path class="st4" d="M23.3,12.8l-0.7-0.4c1.2-2.1,3.6-3.2,5.9-2.7c1.1,0,2.2,0.2,3.3,0.4l-0.2,0.8c-1-0.2-2.1-0.4-3.2-0.4
			C26.3,10.1,24.3,11.1,23.3,12.8z"/>
		<path class="st4" d="M32.5,11.5c-0.8-0.6-1.7-1-2.7-1.2L30,9.5c1.1,0.2,2.1,0.7,2.9,1.3L32.5,11.5z"/>
		<path class="st4" d="M23.4,13.5l-0.6-0.5c0.9-1,2-1.6,3.3-1.9c0.4-0.1,0.9-0.2,1.4-0.1c0.6,0.2,1.2,0.4,1.7,0.7
			c1.2,0.6,2.6,0.8,4,0.5l0.2,0.8c-1.5,0.3-3.2,0.1-4.6-0.6c-0.5-0.3-0.9-0.5-1.4-0.6c-0.3,0-0.7,0-1.1,0.1
			C25.2,12,24.2,12.6,23.4,13.5z"/>
		<path class="st4" d="M22.5,14.6l-0.8,0c0-1,0.6-1.8,1.4-2.2l0.3,0.7C22.9,13.4,22.5,14,22.5,14.6z"/>
		<path class="st4" d="M22.4,15.1l-0.5-0.6c1.2-1,2.7-1.3,4.2-1c0.2,0.1,0.4,0.1,0.7,0.2c0.3,0.1,0.6,0.2,0.9,0.2
			c0.7,0.1,1.3-0.1,1.8-0.5c0.1-0.1,0.3-0.2,0.4-0.3c0.1-0.1,0.3-0.2,0.4-0.4c1-0.6,2.1-1,3.2-1l0,0.8c-1,0-2,0.3-2.8,0.9
			c-0.1,0.1-0.2,0.2-0.3,0.3c-0.1,0.1-0.3,0.3-0.4,0.4c-0.7,0.5-1.6,0.7-2.4,0.6c-0.4-0.1-0.7-0.2-1-0.3c-0.2-0.1-0.4-0.1-0.6-0.2
			C24.7,14,23.4,14.3,22.4,15.1z"/>
		<path class="st4" d="M26.7,14.5c-0.2,0-0.3,0-0.5,0c-0.6-0.1-1.2-0.5-1.5-1.1c-0.2-0.6-0.1-1.3,0.1-1.8c0-0.3,0.2-0.6,0.5-0.8
			l0.1-0.1c0.4-0.3,0.9-0.2,1.2,0.2L26,11.4c0,0-0.1,0-0.1,0c-0.1,0.1-0.2,0.3-0.3,0.5c-0.2,0.5-0.2,0.9-0.1,1.3
			c0.1,0.3,0.4,0.5,0.8,0.6c0.4,0.1,0.9,0,1.3-0.1c0.5-0.1,1-0.3,1.4-0.5c0.3-0.1,0.3-0.2,0.3-0.2c0,0-0.1-0.1-0.1-0.2
			c-0.7-0.6-1.5-1-2.3-1.3l0.2-0.8c0.9,0.3,1.8,0.8,2.6,1.4c0.2,0.2,0.4,0.4,0.5,0.8c0,0.4-0.2,0.8-0.7,1c-0.5,0.2-1,0.4-1.5,0.6
			C27.5,14.5,27.1,14.5,26.7,14.5z"/>
		<path class="st4" d="M7.6,14.4c-1,0-1.9-0.8-2.1-1.8l0.8-0.2c0.1,0.6,0.7,1.1,1.3,1.1c0.7,0,1.4-0.3,1.8-0.9
			c0.4-0.4,0.6-0.9,0.5-1.4l0.8-0.1c0.1,0.8-0.1,1.6-0.7,2.1C9.4,14,8.5,14.4,7.6,14.4z"/>
		<path class="st4" d="M17.3,27.9c-0.6,0-1.2-0.2-1.6-0.7c-0.3-0.4-0.4-0.7-0.4-0.9c0-0.1,0-0.1,0-0.2c0,0.1,0,0.1,0,0.2
			c-0.1,0.4-0.4,0.9-0.8,1.1c-0.2,0.1-0.5,0.2-0.7,0.1c-0.2-0.1-0.3-0.2-0.4-0.3c0,0-0.1-0.1-0.1-0.1c-0.1,0-0.3-0.1-0.4-0.2
			c-0.5-0.3-0.8-0.8-0.9-1.4c-0.1-0.6,0-1.1,0.3-1.6c0.5-0.9,1.2-1.9,1.8-2.8l0.6,0.5c-0.7,0.9-1.3,1.8-1.8,2.7
			c-0.2,0.3-0.3,0.7-0.2,1c0.1,0.4,0.3,0.7,0.6,0.9c0.1,0.1,0.2,0.1,0.3,0.2c0.2,0.1,0.3,0.2,0.3,0.2c0.1,0.1,0.1,0.1,0.2,0
			c0.1-0.1,0.3-0.3,0.4-0.6l0.1-0.2c0.1-0.3,0.2-0.7,0.8-0.9l0.3-0.1l0.2,0.3c0.3,0.5,0.3,0.8,0.3,1.1c0,0.2,0,0.3,0.2,0.4
			c0.4,0.4,1,0.5,1.5,0.4c0.5-0.2,0.8-0.7,1.2-1.3l0.3-0.4l0.3,0.1c0.4,0.1,0.7,0.5,1,0.8c0.1,0.2,0.2,0.3,0.4,0.4
			c0.2,0.1,0.4,0.1,0.5,0c0.3-0.1,0.5-0.3,0.6-0.6c0.1-0.6-0.2-1.2-0.6-1.6c-0.2-0.3-0.5-0.5-0.8-0.7c-0.3-0.3-0.6-0.5-0.9-0.8
			c-1.1-1.4-1.6-3.2-1.5-4.9c-0.1-3.7,0.8-6.5,2.7-8l0.5,0.6c-2.2,1.7-2.5,4.9-2.4,7.4c-0.1,1.6,0.4,3.1,1.3,4.4
			c0.2,0.2,0.5,0.5,0.8,0.7c0.3,0.2,0.5,0.5,0.8,0.7c0.6,0.6,1,1.4,0.8,2.3c-0.1,0.6-0.5,1-1.1,1.2c-0.4,0.2-0.9,0.1-1.2-0.2
			c-0.2-0.1-0.3-0.3-0.5-0.5c-0.1-0.1-0.2-0.2-0.3-0.3c-0.4,0.6-0.8,1.2-1.5,1.4C17.8,27.8,17.5,27.9,17.3,27.9z"/>
		<path class="st4" d="M10,33.1c-0.1,0-0.2,0-0.3,0C9.3,33,9,32.7,9,32.3l0.8,0c0,0.1,0,0.1,0.1,0.1c0.1,0,0.3,0,0.5,0
			c0.8-0.2,1.6-0.6,2.3-1.1c0.3-0.2,0.6-0.5,0.9-0.7c1-0.6,2.2-0.6,3.2-0.1c0.5,0.3,0.9,0.5,1.3,0.7l-0.3,0.7
			c-0.5-0.2-1-0.4-1.4-0.7c-0.7-0.3-1.6-0.3-2.4,0.1c-0.3,0.2-0.6,0.4-0.8,0.6c-0.8,0.6-1.6,1-2.5,1.3C10.4,33.1,10.2,33.1,10,33.1z
			"/>
		<path class="st4" d="M16.6,36.6c-1.4,0-2.8-0.5-3.9-1.4c-1.1-0.8-2.3-1.6-3.4-2.5L9.7,32c1.1,0.9,2.3,1.7,3.4,2.5
			c1.4,1.2,3.3,1.6,5,1c1.4-0.2,2.7-0.6,3.8-1.4c0.2-0.2,0.5-0.4,0.7-0.7c0.3-0.3,0.6-0.6,0.9-0.9c0.7-0.6,1.6-0.8,2.5-0.5l-0.3,0.8
			c-0.6-0.2-1.2-0.1-1.7,0.3c-0.3,0.2-0.6,0.5-0.9,0.8c-0.3,0.3-0.5,0.5-0.8,0.8c-1.2,0.9-2.7,1.4-4.1,1.5
			C17.8,36.5,17.2,36.6,16.6,36.6z"/>
		<path class="st4" d="M25.5,33.1l-3.3-1.3c-1-0.5-2-0.7-3.1-0.6c-0.4,0-0.7,0.2-0.9,0.6l-0.7-0.3c0.3-0.6,0.9-1,1.6-1.1
			c1.2-0.1,2.4,0.2,3.4,0.7l3.3,1.3L25.5,33.1z"/>
		<path class="st4" d="M22.1,33.9c-0.4,0-0.7,0-1.1-0.1c-0.7-0.1-1.4-0.2-2.1-0.3c-2.7-0.4-5.5-0.7-8.2-0.3l-0.1-0.8
			c2.8-0.5,5.7-0.1,8.5,0.3c0.7,0.1,1.4,0.2,2.1,0.3c0.6,0.1,1.1,0.1,1.6,0c0.7-0.1,1.3-0.4,1.8-1l0.6,0.5c-0.6,0.6-1.4,1.1-2.3,1.2
			C22.7,33.9,22.4,33.9,22.1,33.9z"/>
		<path id="Path_21664" class="st6" d="M7.5,12.6"/>
		<path id="Path_21665" class="st6" d="M27.2,12.1"/>
	</g>
	<path id="Path_21666" class="st7" d="M223.2,72.3"/>
	<g id="Group_988" transform="translate(178.788 215.054)">
		<path id="Path_21667" class="st4" d="M23,31.7c0.4,0.5,0.1,0.8-0.2,1.2c-3.5,3.5-8.3,2.9-10.7-1.5c-0.4-0.7-1.1-0.8-1.6-1.3
			c-0.3-0.2-0.7-0.4-0.4-0.9c0.3-0.4,0.6-0.3,1-0.1c1.6,1,3.5,1.7,5.4,2c2.6,0.5,5.2-0.3,7.2-1.9c0.2-0.1,0.3-0.3,0.5-0.4
			c0.2-0.2,0.5-0.2,0.7,0c0,0,0,0,0.1,0.1c0.2,0.3,0.1,0.6-0.1,0.8c0,0,0,0,0,0c-0.6,0.5-1.2,1-1.7,1.4c-1.6,1.3-3.7,1.9-5.7,1.6
			c-0.9,0-1.8-0.2-2.6-0.5c1.5,1.7,4,1.9,5.8,0.6c0.5-0.3,0.9-0.7,1.4-1C22.2,31.7,22.5,31.2,23,31.7z"/>
		<path id="Path_21668" class="st4" d="M0.3,10.4c2.4-4.7,7.1-6.3,11.8-4.7c0.2,0.1,0.3,0.1,0.5,0.2C13.3,6.4,14,7,13.7,7.8
			c-0.3,1-1.3,0.6-1.9,0.3c-4.1-2-7.5-0.5-10.8,2C0.8,10.3,0.7,10.6,0.3,10.4z"/>
		<path id="Path_21669" class="st4" d="M36.3,10.9c-1.6-1.4-3.4-2.5-5.4-3.2c-1.6-0.6-3.4-0.5-5,0.2c-0.7,0.3-1.4,0.5-2.1,0.5
			c-0.9,0-1.2-0.5-0.8-1.4c0.3-0.6,0.7-1,1.3-1.2c4.3-1.4,9.2-0.6,12,4.7C36.4,10.6,36.4,10.7,36.3,10.9z"/>
		<path id="Path_21670" class="st4" d="M17.6,25.4c-0.8,0-1.6-0.3-2.2-0.9c-0.3-0.3-0.5-0.6-0.2-1c0.3-0.4,0.6-0.2,0.9,0.1
			c0.9,0.9,2.3,0.9,3.2,0c0.1-0.1,0.1-0.1,0.2-0.2c0.3-0.3,0.6-0.5,0.9-0.1c0.3,0.4,0.1,0.7-0.2,1C19.4,25,18.5,25.4,17.6,25.4z"/>
		<path id="Path_21671" class="st4" d="M9.8,11.9c0.4,1.2,0.4,2.2-0.7,2.8c-0.6,0.4-1.5,0.3-1.9-0.2c-0.8-0.7-0.9-2-0.1-2.8
			c-1.3,0.2-2.5,0.8-3.4,1.8c-0.3,0.3-0.6,0.8-1,0.3s0-0.9,0.3-1.2c3.1-3.2,7.3-2.8,10.6-0.1c0.2,0.2,0.5,0.5,0.2,0.8
			c-0.3,0.4-0.6,0.3-1,0C11.8,12.7,10.8,12.2,9.8,11.9z M8.2,13.8c0.4,0,0.7-0.3,0.7-0.7s-0.3-0.7-0.7-0.7l0,0
			c-0.4,0-0.6,0.4-0.6,0.7C7.7,13.5,7.9,13.8,8.2,13.8L8.2,13.8z"/>
		<path id="Path_21672" class="st4" d="M30.3,11.9c0.5,1.2,0.4,2.1-0.5,2.8c-0.6,0.5-1.5,0.4-2-0.2c-0.8-0.7-0.9-2-0.1-2.8
			c-1.2,0.2-2.4,0.8-3.3,1.7c-0.3,0.3-0.6,0.9-1.1,0.4c-0.6-0.6,0.1-1,0.4-1.3c3.1-3.1,7.2-2.6,10.4,0c0.2,0.2,0.5,0.5,0.2,0.8
			c-0.3,0.4-0.6,0.3-1,0C32.5,12.7,31.4,12.2,30.3,11.9z M28.2,13c-0.1,0.3,0.1,0.7,0.5,0.8c0,0,0.1,0,0.1,0c0.3,0,0.6-0.2,0.7-0.6
			c0,0,0,0,0-0.1c0.1-0.4-0.2-0.7-0.6-0.8c0,0,0,0-0.1,0C28.6,12.4,28.2,12.7,28.2,13C28.2,13,28.2,13,28.2,13L28.2,13z"/>
	</g>
	<path id="Path_21673" class="st4" d="M105.5,226c-0.6,0-1.2-0.2-1.7-0.6c-0.2-0.2-0.4-0.4-0.2-0.7c0.2-0.3,0.5-0.1,0.7,0
		c0.7,0.7,1.9,0.7,2.5-0.1c0,0,0,0,0.1-0.1c0.2-0.2,0.4-0.4,0.7-0.1c0.3,0.3,0.1,0.5-0.1,0.7C107,225.7,106.3,226,105.5,226z"/>
	<path id="Path_21674" class="st4" d="M105,235.6c-1.6-0.1-3-1-3.9-2.3c-0.6-0.7-1.1-1.3-2-1.4c-0.2,0-0.5-0.1-0.4-0.3
		c0.1-0.2,0.3-0.2,0.5-0.1c0.9,0.2,1.9,0.2,2.7-0.3c0.8-0.4,1.8-0.4,2.6,0.2c0.2,0.2,0.4,0.1,0.6,0c0.6-0.4,1.4-0.5,2.1-0.2
		c1,0.5,2.1,0.6,3.2,0.4c0.1-0.1,0.3,0,0.4,0.1c0,0,0,0.1,0,0.1c0,0.1-0.1,0.2-0.3,0.2c-0.9,0-1.3,0.7-1.8,1.3
		C107.9,234.5,106.5,235.4,105,235.6z M107,232.6c-1.3,0.4-2.7,0.4-4,0.1c0.9,1.1,2.5,1.3,3.6,0.4C106.7,233,106.8,232.8,107,232.6z
		"/>
	<g id="Group_989" transform="translate(88.489 199.516)">
		<path id="Path_21675" class="st4" d="M31.3,8.3c0.6,0.6,1.2,1.2,0.1,2c-0.2,0.2-0.4,0.4-0.6,0.7c0.7-0.1,1.3-0.3,1.9-0.7
			c-0.4,1.9-1.7,2.5-3.3,1.6c-0.6-0.5-1.3-0.9-2.1-1.1c0.3,1.4,0.2,2.1-0.6,2.6c-0.6,0.4-1.5,0.4-2.1-0.1c-0.8-0.5-0.9-1.3-0.5-2.6
			c-0.9,0.2-1.8,0.7-2.5,1.3c-0.2,0.2-0.5,0.6-0.9,0.3s0-0.7,0.3-1c1.8-1.8,4.5-2.3,6.8-1.4c0.7,0.2,1.3,0.6,1.9-0.1
			c0.3,0.3-0.1,0.5,0,0.5c0.7,0,1.3-0.3,1.9-0.7c0-0.4-0.5-0.4-0.6-0.7C31.1,8.7,31.1,8.4,31.3,8.3z M21.7,5.8
			c-0.5,0.2-0.9,0.6-1.1,1.1c-0.2,0.5-0.1,0.9,0.6,1c0.6,0,1.3-0.1,1.8-0.4C24.2,7,25.3,6.8,26.5,7c1.6,0.3,3.2,1,4.6,1.9
			c0.2-0.1,0.2-0.4,0.2-0.6C29,4.9,24.6,4.7,21.7,5.8z M25.8,10.9c-0.5,0-0.9,0.4-0.9,0.9c0,0.5,0.4,0.9,0.9,0.9l0,0
			c0.5,0,0.8-0.3,0.9-0.9C26.7,11.3,26.3,10.9,25.8,10.9C25.8,10.9,25.8,10.9,25.8,10.9L25.8,10.9z"/>
		<path id="Path_21676" class="st4" d="M6.4,10.6c-0.7,0.1-1.4,0.5-1.9,1c-2.1,1.7-3.2,1.1-4.2-1.3c0.5,0.4,1.1,0.7,1.8,0.9
			c0-0.5-0.4-0.7-0.5-1.1c0.7,0.1,1.2,0.7,1.9,0.7c0.1-0.2-0.3-0.4,0-0.7c0.6,0.6,1.1,0.3,1.7,0c2.6-1.3,5.3-0.5,7.4,1.1
			c0.2,0.2,0.4,0.4,0.2,0.6c-0.2,0.2-0.5,0.3-0.7,0.1c0,0,0,0-0.1,0c-0.7-0.5-1.4-0.9-2.2-1.1c0.1,0.9,0.1,1.7-0.6,2.2
			c-0.4,0.3-0.9,0.5-1.4,0.4C6.6,13.2,6.1,12.2,6.4,10.6z M3.8,8c2-1.3,4.6-1.5,6.7-0.5c0.4,0.2,0.8,0.3,1.3,0.3
			c0.3,0.1,0.7,0,0.8-0.3c0.2-0.4,0-0.7-0.2-1c-0.3-0.5-0.9-0.9-1.5-1c-0.6-0.1-1.2-0.3-1.8-0.3C5.9,4.7,2.6,6.5,1.2,9.6
			C2.2,9,3,8.4,3.8,8z M8.9,11.6c0-0.5-0.4-0.9-0.9-0.9c-0.5,0-0.8,0.3-0.9,0.8c0,0.5,0.3,0.9,0.9,1C8.5,12.5,8.9,12.1,8.9,11.6
			L8.9,11.6z"/>
	</g>
</g>
</svg>
