<?xml version="1.0" encoding="utf-8"?>
<!-- Generator: Adobe Illustrator 26.5.0, SVG Export Plug-In . SVG Version: 6.00 Build 0)  -->
<svg version="1.1" id="Layer_1" xmlns="http://www.w3.org/2000/svg" xmlns:xlink="http://www.w3.org/1999/xlink" x="0px" y="0px"
	 viewBox="0 0 200 200" style="enable-background:new 0 0 200 200;" xml:space="preserve">
<style type="text/css">
	.st0{clip-path:url(#SVGID_00000086691638168233206240000006257169050880110492_);}
	.st1{fill:#003173;}
	.st2{fill:#E64D17;}
	.st3{fill:#FFFFFF;}
	.st4{fill:#E64B16;}
</style>
<g id="Group_92509" transform="translate(15 7)">
	<g>
		<defs>
			<rect id="SVGID_1_" width="170.6" height="186.2"/>
		</defs>
		<clipPath id="SVGID_00000139990262052350241450000010712763845524322492_">
			<use xlink:href="#SVGID_1_"  style="overflow:visible;"/>
		</clipPath>
		<g id="Group_92508" style="clip-path:url(#SVGID_00000139990262052350241450000010712763845524322492_);">
			<path id="Path_321531" class="st1" d="M60.1,106.9c-6.5,0-12.9-3.2-21.3-10.9c-7.1-5.9-8.8-17.4-10-29.8
				c-7-8.7-8.9-24.6-7.1-35.5C25.9,11.5,45.2,0.1,61.5,0h0.2c10.9,0,19,5,22,13.4c6.8,0.2,13,4,16.4,9.9c5.8,10.1,4.4,26.2-3.4,39.3
				c-1,13.2-5.6,29.7-11.3,33.8C74.8,102.7,67.4,106.9,60.1,106.9 M61.7,6.4h-0.1C47.8,6.5,31.4,16,27.9,31.8
				c-1.6,9.8,0.3,24.1,6.3,30.8l0.7,0.8l0.1,1.1c1.2,13.4,3,22.5,7.9,26.6c14.8,13.6,19.9,11.4,39-0.1c3-2.1,7.6-15.9,8.5-29.6
				l0.1-0.8l0.4-0.7c6.9-11.2,8.4-25.3,3.7-33.5c-2.7-4.6-7.1-7-13.2-6.7l-2.6,0.1l-0.6-2.5C75.9,7.5,66,6.4,61.7,6.4z"/>
			<path id="Path_321532" class="st1" d="M32.1,66c-0.1,0-0.2,0-0.3,0c-1.8-0.1-3.1-1.7-2.9-3.4c0,0,0,0,0,0v0
				c0.8-10.3,3.9-22.2,20.7-21.9c13.6-0.3,22.4-4.5,27.6-13.2c0.9-1.5,2.9-2,4.4-1.1c0.6,0.4,1.1,1,1.4,1.7
				c1.7,4.4,3.9,8.5,6.6,12.3c3.4,5.1,6.6,10,7.3,18.7c0.1,1.8-1.2,3.3-2.9,3.4s-3.3-1.2-3.4-2.9c-0.6-7.1-3.1-10.9-6.2-15.7
				c-1.8-2.7-3.5-5.5-5-8.3C72.6,43,62.9,46.8,49.6,47.1c-9.7-0.2-13.3,3.9-14.3,16C35.2,64.7,33.8,66,32.1,66"/>
			<path id="Path_321533" class="st1" d="M94.3,76.8c-0.2,0-0.5,0-0.7,0c-1.8-0.1-3.1-1.6-3-3.4c0.1-1.8,1.6-3.1,3.4-3
				c0,0,0.1,0,0.1,0c0.8,0.1,1.7-0.2,2.2-0.8c0.6-0.8,2.4-4.2-0.9-15.4c-0.5-1.7,0.5-3.5,2.2-4s3.5,0.5,4,2.2
				c3,10.3,2.9,17.2-0.3,21.2C99.5,75.7,97,76.9,94.3,76.8"/>
			<path id="Path_321534" class="st1" d="M30.7,78.2c-2.7,0.1-5.2-1.1-6.9-3.2c-3.2-4-3.3-10.9-0.3-21.2c0.5-1.7,2.3-2.7,4-2.2
				c1.7,0.5,2.7,2.3,2.2,4l0,0c-3.3,11.2-1.5,14.7-0.9,15.4c0.5,0.7,1.4,1,2.2,0.8c1.8-0.1,3.3,1.2,3.4,3s-1.2,3.3-3,3.4
				C31.2,78.2,31,78.2,30.7,78.2"/>
			<path id="Path_321535" class="st2" d="M87.5,106.9C71,124,55.9,123.8,42.3,107.3c-25.1,3.5-37,19.3-39.1,44.1h121.5
				c0-11.4-5.6-40.9-37.2-42.7"/>
			<path id="Path_321536" class="st1" d="M124.7,154.6H3.2c-1.8,0-3.2-1.4-3.2-3.2c0-0.1,0-0.2,0-0.3c2.3-27.6,16.4-43.4,41.8-47
				c1.1-0.2,2.2,0.3,2.9,1.1c6,7.2,12.2,11,18.4,11.2c6.8,0.2,14.2-3.7,22-11.8c1.2-1.3,3.3-1.3,4.5-0.1c0.3,0.3,0.5,0.6,0.7,1
				c29.5,3.2,37.5,30,37.5,45.7C127.9,153.1,126.5,154.6,124.7,154.6 M6.8,148.2h114.6c-0.8-9.2-5.7-34.7-34-36.3
				c-0.1,0-0.1,0-0.2,0c-8.2,7.7-16.3,11.5-24.2,11.1c-7.7-0.3-15-4.4-21.9-12.2C20.8,114.1,9.5,126.4,6.8,148.2"/>
			<path id="Path_321537" class="st1" d="M42.3,110.5c-1.8,0-3.2-1.4-3.2-3.2c0-0.6,0.2-1.2,0.5-1.7c1.6-2.5,2.2-5.6,1.6-8.5
				c-0.3-1.7,0.9-3.4,2.6-3.7c1.7-0.3,3.4,0.9,3.7,2.6l0,0c0.8,4.5,0,9.1-2.4,13C44.4,109.9,43.4,110.5,42.3,110.5"/>
			<path id="Path_321538" class="st1" d="M87.5,110.1c-0.6,0-1.1-0.1-1.6-0.4c-5.1-2.9-7.9-7.9-8.1-14.3c-0.1-1.8,1.3-3.3,3.1-3.3
				c0,0,0,0,0,0l0,0c1.7-0.1,3.2,1.2,3.3,2.9c0,0,0,0,0,0c0,0.1,0,0.1,0,0.2c0.2,4.3,1.7,7.1,4.9,8.9c1.5,0.9,2.1,2.8,1.2,4.4
				C89.7,109.5,88.6,110.1,87.5,110.1L87.5,110.1z"/>
			<path id="Path_321539" class="st3" d="M105.1,147.7l-12.3,23.4l12.3,2.5l11.5,10.5l12.7-24.5
				C129.3,159.5,109.4,153.8,105.1,147.7"/>
			<path id="Path_321540" class="st3" d="M132,157.4l10.9,24.1l9.5-8.1l15.3-2.7l-11.5-25.1C156.2,145.6,139.5,157.7,132,157.4"/>
			<path id="Path_321541" class="st3" d="M166,121.9c0,20.4-16.5,36.9-36.9,36.9s-36.9-16.5-36.9-36.9c0-20.4,16.5-36.9,36.9-36.9
				C149.5,84.9,166,101.5,166,121.9C166,121.9,166,121.9,166,121.9"/>
			<path id="Path_321542" class="st1" d="M129.3,159.5c-21,0-38-17-38-38s17-38,38-38c21,0,38,17,38,38
				C167.3,142.5,150.3,159.5,129.3,159.5C129.3,159.5,129.3,159.5,129.3,159.5 M129.3,88.1c-18.4,0-33.4,15-33.4,33.4
				s15,33.4,33.4,33.4s33.4-15,33.4-33.4S147.8,88.1,129.3,88.1C129.3,88.1,129.3,88.1,129.3,88.1z"/>
			<path id="Path_321543" class="st4" d="M131,107.4l3.5,7c0.2,0.5,0.7,0.8,1.2,0.9l7.8,1.1c0.9,0.1,1.5,0.9,1.4,1.8
				c-0.1,0.4-0.2,0.7-0.5,0.9l-5.6,5.5c-0.4,0.4-0.6,0.9-0.5,1.4l1.3,7.7c0.2,0.9-0.4,1.7-1.3,1.9c-0.4,0.1-0.7,0-1-0.2l-6.9-3.6
				c-0.5-0.2-1-0.2-1.5,0l-6.9,3.6c-0.8,0.4-1.8,0.1-2.2-0.7c-0.2-0.3-0.2-0.7-0.2-1l1.3-7.7c0.1-0.5-0.1-1.1-0.5-1.4l-5.6-5.5
				c-0.6-0.6-0.7-1.6,0-2.3c0.2-0.3,0.6-0.4,0.9-0.5l7.8-1.1c0.5-0.1,1-0.4,1.2-0.9l3.5-7c0.4-0.8,1.4-1.1,2.2-0.7
				C130.6,106.8,130.9,107.1,131,107.4"/>
			<path id="Path_321544" class="st1" d="M121.1,138c-2.2,0-3.9-1.8-3.9-3.9c0-0.2,0-0.4,0.1-0.7l1.3-7.4l-5.4-5.2
				c-1.5-1.5-1.6-4-0.1-5.5c0.6-0.6,1.4-1,2.2-1.1l7.4-1.1l3.3-6.7c0.7-1.3,2-2.2,3.5-2.2h0c1.5,0,2.8,0.8,3.5,2.2l3.3,6.7l7.4,1.1
				c2.1,0.3,3.6,2.3,3.3,4.4c-0.1,0.8-0.5,1.6-1.1,2.2l-5.4,5.2l1.3,7.4c0.4,2.1-1.1,4.2-3.2,4.5c-0.8,0.1-1.7,0-2.5-0.4l-6.6-3.5
				l-6.6,3.5C122.4,137.8,121.8,138,121.1,138 M129.6,129.4c0.6,0,1.3,0.2,1.8,0.5l5.7,3l-1.1-6.4c-0.2-1.3,0.2-2.6,1.1-3.5l4.6-4.5
				l-6.4-0.9c-1.3-0.2-2.4-1-2.9-2.1l-2.9-5.8l-2.9,5.8c-0.6,1.2-1.7,2-2.9,2.1l-6.4,0.9l4.6,4.5c0.9,0.9,1.3,2.2,1.1,3.5l-1.1,6.4
				l5.7-3C128.3,129.5,128.9,129.4,129.6,129.4L129.6,129.4z"/>
			<path id="Path_321545" class="st1" d="M129.6,149.1c-15.5,0-28-12.5-28-28c0-15.5,12.5-28,28-28c15.5,0,28,12.5,28,28
				c0,0,0,0,0,0C157.5,136.5,145,149.1,129.6,149.1 M129.6,97.7c-12.9,0-23.4,10.5-23.4,23.4c0,12.9,10.5,23.4,23.4,23.4
				c12.9,0,23.4-10.5,23.4-23.4C153,108.2,142.5,97.7,129.6,97.7C129.6,97.7,129.6,97.7,129.6,97.7"/>
			<path id="Path_321546" class="st1" d="M116.9,186.2c-0.6,0-1.2-0.2-1.6-0.6l-9.9-9.3l-13.3-1.9c-1.3-0.2-2.1-1.3-2-2.6
				c0-0.2,0.1-0.5,0.2-0.7l12-24.9c0.6-1.1,1.9-1.6,3.1-1.1c0.2,0.1,0.4,0.3,0.6,0.4c6.3,6.2,13.9,9.2,23.3,9.4
				c1.3,0,2.3,1.1,2.3,2.3c0,0.3-0.1,0.6-0.2,0.9L119,184.9c-0.3,0.7-0.9,1.1-1.6,1.3C117.2,186.2,117,186.2,116.9,186.2
				 M95.9,170.3l10.9,1.5c0.5,0.1,0.9,0.3,1.3,0.6l8.1,7.6l9.6-20.7c-7.6-0.6-14.7-3.6-20.6-8.4L95.9,170.3z"/>
			<path id="Path_321547" class="st1" d="M143.4,185.1c-0.9,0-1.7-0.5-2.1-1.4l-11.1-25.4c-0.5-1.2,0-2.5,1.2-3
				c0.2-0.1,0.5-0.2,0.7-0.2c8.8-0.8,16.1-4.5,22.3-11.5c0.8-0.9,2.3-1,3.2-0.2c0.2,0.2,0.4,0.5,0.6,0.8l12.2,26.8
				c0.5,1.2,0,2.5-1.1,3c-0.2,0.1-0.5,0.2-0.7,0.2l-13.5,1.4l-10.1,8.9C144.5,184.9,143.9,185.1,143.4,185.1 M135.7,159.3l8.6,19.7
				l8.3-7.3c0.4-0.3,0.8-0.5,1.3-0.6l11.1-1.2l-9.4-20.8C150,154.5,143.1,158,135.7,159.3"/>
		</g>
	</g>
</g>
</svg>
