<?xml version="1.0" encoding="utf-8"?>
<!-- Generator: Adobe Illustrator 26.5.0, SVG Export Plug-In . SVG Version: 6.00 Build 0)  -->
<svg version="1.1" id="Layer_1" xmlns="http://www.w3.org/2000/svg" xmlns:xlink="http://www.w3.org/1999/xlink" x="0px" y="0px"
	 viewBox="0 0 200 200" style="enable-background:new 0 0 200 200;" xml:space="preserve">
<style type="text/css">
	.st0{clip-path:url(#SVGID_00000085238069761734613030000001123279494699659707_);}
	.st1{fill:#003173;}
	.st2{fill:#E64B16;}
</style>
<g id="Group_92395" transform="translate(12 36)">
	<g>
		<defs>
			<rect id="SVGID_1_" width="175.3" height="128.5"/>
		</defs>
		<clipPath id="SVGID_00000104697917998833882250000000158274337239338664_">
			<use xlink:href="#SVGID_1_"  style="overflow:visible;"/>
		</clipPath>
		<g id="Group_92394" style="clip-path:url(#SVGID_00000104697917998833882250000000158274337239338664_);">
			<path id="Path_321243" class="st1" d="M30.4,28.5H3c-1.6,0-3-1.3-3-3c0-0.8,0.3-1.5,0.8-2L21.9,0.9C22.4,0.3,23.2,0,24,0h127.2
				c1.6,0,3,1.3,3,3c0,1.6-1.3,3-3,3c0,0,0,0,0,0H25.3L9.9,22.5h20.5c1.6,0,3,1.3,3,3C33.4,27.1,32,28.5,30.4,28.5L30.4,28.5
				L30.4,28.5z"/>
			<path id="Path_321244" class="st1" d="M9.9,93.9c-1.6,0-3-1.3-3-3V25.7c0-1.6,1.3-3,3-3s3,1.3,3,3v65.3
				C12.9,92.6,11.5,93.9,9.9,93.9"/>
			<path id="Path_321245" class="st1" d="M172.3,107.7h-42.6c-1.7,0-3-1.3-3-3c0,0,0,0,0,0v0l0.2-23.3l-0.2-55.2c0-1.6,1.3-3,3-3h0
				c1.6,0,3,1.3,3,3l0.2,55.3l-0.2,20.4h36.6V26L149.1,5.1C148,3.9,148,2,149.2,0.8s3.1-1.1,4.2,0.1l21.1,21.8
				c0.5,0.6,0.8,1.3,0.8,2.1v80C175.3,106.4,174,107.7,172.3,107.7"/>
			<path id="Path_321246" class="st1" d="M171.9,124.1H83.4c-1.6,0-3-1.3-3-3c0-1.6,1.3-3,3-3h88.5c1.6,0,3,1.3,3,3
				C174.9,122.8,173.5,124.1,171.9,124.1"/>
			<path id="Path_321247" class="st1" d="M119.7,107.7H95.3c-1.6,0-3-1.3-3-3s1.3-3,3-3h21.4V39.9H64.3c-1.6,0-3-1.3-3-3
				c0-1.6,1.3-3,3-3c0,0,0,0,0,0h55.4c1.6,0,3,1.3,3,3c0,0,0,0,0,0v67.8C122.7,106.4,121.4,107.7,119.7,107.7L119.7,107.7
				L119.7,107.7z"/>
			<path id="Path_321248" class="st1" d="M18.9,75c-1.6,0-3-1.3-3-3V36.9c0-1.6,1.3-3,3-3h0h8.9c1.6,0,3,1.3,3,3c0,1.6-1.3,3-3,3
				c0,0,0,0,0,0h-5.9V72C21.9,73.7,20.5,75,18.9,75"/>
			<path id="Path_321249" class="st1" d="M46.7,70.1h-0.3c-6.9-0.2-12.4-5-14.5-12.5c-3-1.2-5.3-3.6-6.4-6.6c-1-2.6-0.7-5.5,0.9-7.8
				C23,29.3,27.8,20,40.5,15.5c7-1.6,11.7-0.5,16.2,3.6c5.3,0.7,8.8,3.8,10.1,9.1c0.8,3,0.4,6.4-0.1,9.5c-0.2,1.4-0.4,2.9-0.4,4.3
				c2,3.3,2.3,7.3,0.8,10.8c-0.8,2.3-2.5,4.1-4.7,5.1C60,65.1,53.8,70.1,46.7,70.1 M34.3,52c1.4,0,2.7,1,2.9,2.4
				c1.1,5.9,4.6,9.5,9.3,9.6c4,0.1,9.1-2.8,10.6-9.4c0.3-1.2,1.3-2.2,2.6-2.3c1.1-0.1,1.8-1.5,1.9-2c0.8-1.8,0.6-4-0.5-5.6
				c-0.4-0.5-0.6-1-0.7-1.7c-0.1-2.1,0.1-4.3,0.5-6.4c0.4-2.6,0.7-5.3,0.2-7.1c-0.8-3.2-2.6-4.6-5.9-4.8c-0.7,0-1.4-0.4-1.9-0.9
				c-3.2-3.2-6.1-4-11.1-2.8c-9.8,3.5-12.9,10.4-9.6,22c0.3,1.1-0.1,2.4-1,3.1c-0.8,0.6-1,1.7-0.5,2.6C31.7,50.7,33.4,52,34.3,52
				L34.3,52z"/>
			<path id="Path_321250" class="st1" d="M45.1,91.5c-1.3,0-2.4-0.8-2.8-2l-7.1-20.8c-0.6-1.6,0.3-3.3,1.8-3.8
				c1.6-0.6,3.3,0.3,3.8,1.8c0,0,0,0.1,0,0.1l7.1,20.8c0.5,1.6-0.3,3.3-1.9,3.8c0,0,0,0,0,0l0,0C45.7,91.4,45.4,91.5,45.1,91.5"/>
			<path id="Path_321251" class="st1" d="M44.5,103.6L44.5,103.6c-1.7,0-3-1.4-3-3.1c0,0,0,0,0,0l0-1.1c-0.4-11.5,3.3-19.4,7.7-28.5
				c1.2-2.5,2.5-5.2,3.7-8.1c0.7-1.5,2.4-2.2,3.9-1.5c1.5,0.7,2.2,2.4,1.5,3.9l0,0c-1.3,3-2.6,5.7-3.8,8.3
				c-4.2,8.7-7.5,15.6-7.1,25.9l0,1.3C47.4,102.3,46.1,103.6,44.5,103.6"/>
			<path id="Path_321252" class="st1" d="M70,113.1c-0.7,0-1.5-0.3-2-0.8c-1.2-1.1-1.9-1.4-5.3-0.4c-1.6,0.5-3.2-0.5-3.7-2
				c-0.1-0.3-0.1-0.7-0.1-1.1c1.4-18.8,5.7-30.3,14-36.5l-17.3-4.6c-1.6-0.5-2.5-2.1-2-3.7c0.4-1.5,2-2.5,3.6-2.1l24.5,6.6
				c1.6,0.4,2.5,2.1,2.1,3.7c-0.3,0.9-1,1.7-1.9,2c-7.3,2.6-14.3,8.2-16.7,31.1c2.5-0.2,5,0.7,6.8,2.5c1.2,1.1,1.3,3,0.2,4.2
				C71.7,112.8,70.9,113.1,70,113.1L70,113.1z"/>
			<path id="Path_321253" class="st1" d="M64.5,128.5c-0.3,0-0.5,0-0.8,0l-39.9-5.1c-1.6-0.2-2.8-1.7-2.6-3.3
				c0.2-1.6,1.7-2.8,3.3-2.6l39.6,5c8.4,0.2,10.6-3.2,11.5-5.8c10.5-34.3,7.2-41.3,4.3-42.4c-1.5-0.6-2.3-2.3-1.7-3.9
				s2.3-2.3,3.9-1.7c9.1,3.5,8.9,18.4-0.7,49.9C78.9,125.2,73.3,128.5,64.5,128.5"/>
			<path id="Path_321254" class="st1" d="M12.1,126.1c-2.4,0.1-4.7-0.6-6.6-1.9c-2.9-2-4.8-5.5-5.4-10.4c0-0.1,0-0.3,0-0.4
				C0,103,8.7,85.9,15.8,72.2l1.3-2.5c0.8-1.5,2.6-2,4-1.3c1.1,0.6,1.7,1.7,1.6,2.9c-0.9,10.8,3,22.7,7.3,33.9
				c0.6,1.5-0.2,3.3-1.7,3.9c-1.5,0.6-3.2-0.1-3.8-1.6c0,0,0-0.1,0-0.1c-3.1-8.1-6-16.5-7.2-24.8c-5.5,11-11.1,23.3-11.2,30.5
				c0.5,3,1.4,5.1,2.9,6.1c1.3,0.9,3.3,1.1,5.8,0.6l30.1-8.7c-1.1-3.8-1.1-7.1,0-10c0.5-1.6,2.2-2.4,3.8-1.9
				c1.6,0.5,2.4,2.2,1.9,3.8c0,0,0,0.1-0.1,0.1c0,0,0,0.1,0,0.1c-1,2.6,0,6.2,1.1,8.7c0.6,1.5-0.1,3.3-1.6,3.9c0,0,0,0,0,0
				c-0.1,0-0.2,0.1-0.3,0.1l-33.4,9.6C14.8,126,13.5,126.1,12.1,126.1"/>
			<path id="Path_321255" class="st1" d="M19.7,74.1c-1.6,0-3-1.3-3-3c0-1.4,1-2.6,2.3-2.9l18.2-4.1c1.6-0.4,3.2,0.6,3.6,2.2
				c0.4,1.6-0.6,3.2-2.2,3.6c0,0,0,0,0,0l-18.2,4.2C20.1,74.1,19.9,74.1,19.7,74.1"/>
			<path id="Path_321256" class="st1" d="M13.2,112.6c-1.6,0-3-1.3-3-3c0-0.9,0.4-1.8,1.2-2.4c3.4-2.6,8.1-3,14.1-3.6
				c5.8-0.6,13-1.3,21.1-4.2c1.5-0.6,3.3,0.2,3.8,1.8c0.6,1.5-0.2,3.2-1.8,3.8l0,0c-8.8,3.2-16.5,3.9-22.6,4.5c-5,0.5-9,0.9-11,2.4
				C14.5,112.4,13.8,112.6,13.2,112.6"/>
			<path id="Path_321257" class="st2" d="M64.3,90.9H53.2l-0.4,9.2l4.6,4.6l4.2-0.2L64.3,90.9z"/>
			<path id="Path_321258" class="st1" d="M57.4,107.7c-0.8,0-1.6-0.3-2.1-0.9l-4.6-4.6c-0.6-0.6-0.9-1.4-0.9-2.2l0.4-9.2
				c0.1-1.6,1.4-2.8,3-2.8h11.1c1.6,0,3,1.3,3,3c0,0.2,0,0.4-0.1,0.6l-2.8,13.7c-0.3,1.4-1.4,2.3-2.8,2.4l-4.2,0.2L57.4,107.7z
				 M55.9,99l2.7,2.7l0.5,0l1.6-7.8h-4.6L55.9,99z"/>
			<path id="Path_321259" class="st1" d="M47,107c-1.6,0-3-1.3-3-3c0-1.1,0.6-2.2,1.6-2.7l5.2-2.6c1.5-0.7,3.3-0.1,4,1.3
				c0.7,1.5,0.1,3.3-1.3,4l-5.2,2.6C48,106.9,47.5,107,47,107"/>
			<path id="Path_321260" class="st1" d="M31.1,47.6c-1.6,0-3-1.3-3-3c0-1.4,1-2.7,2.5-2.9c0.7-0.9,1.3-1.9,1.7-3
				c0.1-0.7,0.2-1.4,0.2-2.2c0.1-2.6,0.4-4.8,3.7-7.7c1.1-1,2.6-1.3,4-1c3.5,0.8,4.9,1,8.7-0.6c1.5-0.6,3.3,0.1,3.9,1.6
				c0,0.1,0.1,0.2,0.1,0.3c0.3,1,0.3,1,1.8,1.2c0.5,0.1,1,0.2,1.5,0.5c4.3,2.7,3.2,7.2,2.8,9c0,0.1,0,0.2,0,0.3c0.2,0,0.4,0,0.5,0
				c1.6-0.1,3.1,1.2,3.2,2.8c0.1,1.6-1.2,3.1-2.8,3.2l0,0c-1.9,0.2-3.9-0.4-5.3-1.7c-1.3-1.5-1.9-3.6-1.5-5.5
				c0.4-1.7,0.4-2.4,0.3-2.7c-1.8-0.2-3.5-1-4.8-2.4c-2.9,0.9-6.1,1-9,0.2c-0.9,0.7-1.3,1.9-1.1,3c0,1.2-0.2,2.4-0.4,3.5
				c-1.2,3.9-3.8,6.9-6.4,7.3C31.5,47.5,31.3,47.6,31.1,47.6"/>
			<path id="Path_321261" class="st1" d="M44.3,117.5c-1.6,0-3-1.3-3-3c0-1.3,0.9-2.5,2.1-2.9l17.8-5.5c1.6-0.4,3.2,0.5,3.7,2.1
				c0.4,1.5-0.4,3.1-1.9,3.6l-17.8,5.5C44.9,117.5,44.6,117.5,44.3,117.5"/>
			<path id="Path_321262" class="st2" d="M172.3,103.4h-7.6V88.7h-61.9v15.6h-8.7v16.8h76.5v-17.4l-67.8,0.5"/>
			<path id="Path_321263" class="st1" d="M170.6,124.1H94.1c-1.6,0-3-1.3-3-3v-16.8c0-1.6,1.3-3,3-3h5.7V88.7c0-1.6,1.3-3,3-3l0,0
				h61.9c1.6,0,3,1.3,3,3c0,0,0,0,0,0v11.7h4.7c1.6,0,3,1.3,3,3c0,1.2-0.7,2.2-1.8,2.7v15C173.5,122.8,172.2,124.1,170.6,124.1
				 M97,118.2h70.5v-11.4l-64.8,0.5H97L97,118.2z M105.7,91.7v9.6l56-0.4v-9.2L105.7,91.7z"/>
			<path id="Path_321264" class="st1" d="M123.2,106.9L123.2,106.9c-1.7,0-3-1.4-3-3c0,0,0,0,0,0l0,0l0.1-15.1
				c0.1-1.6,1.4-2.9,3.1-2.9c1.6,0.1,2.9,1.3,2.9,2.9l-0.1,15.1C126.2,105.6,124.9,106.9,123.2,106.9"/>
			<path id="Path_321265" class="st1" d="M144.2,106.9L144.2,106.9c-1.7,0-3-1.4-3-3l0.1-15.1c0-1.6,1.4-3,3-3c1.6,0,2.9,1.3,3,2.9
				c0,0,0,0.1,0,0.1l-0.1,15.1C147.2,105.6,145.8,106.9,144.2,106.9"/>
			<path id="Path_321266" class="st1" d="M113.5,122.4L113.5,122.4c-1.7,0-3-1.4-3-3l0,0l0.1-15.1c0-1.6,1.4-3,3-3
				c1.6,0,2.9,1.3,3,2.9c0,0,0,0.1,0,0.1l-0.1,15.1C116.4,121.1,115.1,122.4,113.5,122.4"/>
			<path id="Path_321267" class="st1" d="M133.1,122.8L133.1,122.8c-1.7,0-3-1.4-3-3l0.1-15.1c0.1-1.6,1.4-2.9,3.1-2.9
				c1.6,0.1,2.9,1.3,2.9,2.9l-0.1,15.1C136.1,121.5,134.8,122.8,133.1,122.8"/>
			<path id="Path_321268" class="st1" d="M152,123.4L152,123.4c-1.7,0-3-1.4-3-3l0.1-15.1c0-1.6,1.4-2.9,3-3c1.6,0,3,1.4,3,3
				l-0.1,15.1C155,122.1,153.6,123.4,152,123.4"/>
			<path id="Path_321269" class="st1" d="M129.7,29.1H62.9c-1.6,0-3-1.3-3-3s1.3-3,3-3h65.6l21.5-22.2c1.1-1.2,3-1.2,4.2-0.1
				c1.2,1.1,1.2,3,0.1,4.2l0,0l-22.3,23.2C131.3,28.8,130.6,29.1,129.7,29.1"/>
		</g>
	</g>
</g>
</svg>
