<?xml version="1.0" encoding="utf-8"?>
<!-- Generator: Adobe Illustrator 26.5.0, SVG Export Plug-In . SVG Version: 6.00 Build 0)  -->
<svg version="1.1" id="Layer_1" xmlns="http://www.w3.org/2000/svg" xmlns:xlink="http://www.w3.org/1999/xlink" x="0px" y="0px"
	 viewBox="0 0 200 200" style="enable-background:new 0 0 200 200;" xml:space="preserve">
<style type="text/css">
	.st0{clip-path:url(#SVGID_00000034053765508970016450000014186075837001718426_);}
	.st1{fill:#003173;}
	.st2{fill:#E64B16;}
</style>
<g id="Group_92503" transform="translate(17 21)">
	<g>
		<defs>
			<rect id="SVGID_1_" width="166.4" height="157.8"/>
		</defs>
		<clipPath id="SVGID_00000039131793376777381900000015621941151757795501_">
			<use xlink:href="#SVGID_1_"  style="overflow:visible;"/>
		</clipPath>
		<g id="Group_92502" style="clip-path:url(#SVGID_00000039131793376777381900000015621941151757795501_);">
			<path id="Path_321484" class="st1" d="M126.1,152.3H27.6c-14.3,0-25.9-11.6-25.9-25.9V69.4c0-14.3,11.6-25.9,25.9-25.9h98.6
				c14.3,0,25.9,11.6,25.9,25.9v56.9C152.1,140.7,140.5,152.3,126.1,152.3 M27.6,49.7c-10.9,0-19.8,8.9-19.8,19.8v56.9
				c0,10.9,8.9,19.8,19.8,19.8h98.6c10.9,0,19.8-8.9,19.8-19.8V69.4c0-10.9-8.9-19.8-19.8-19.8L27.6,49.7z"/>
			<path id="Path_321485" class="st2" d="M111.5,80.6h49.7c1.2,0,2.1,0.9,2.1,2.1l0,0v29.2c0,1.2-0.9,2.1-2.1,2.1l0,0h-49.7
				c-2.2,0-3.9-1.7-3.9-3.9l0,0V84.5C107.6,82.3,109.4,80.6,111.5,80.6L111.5,80.6"/>
			<path id="Path_321486" class="st1" d="M155.3,117h-32.9c-9.9,0-17.9-8-17.9-17.9v-3.8c0-9.9,8-17.9,17.9-17.9h32.9
				c6.1,0,11.1,5,11.1,11.1v17.4C166.4,112.1,161.4,117,155.3,117 M122.4,83.6c-6.5,0-11.7,5.3-11.7,11.7v3.8
				c0,6.5,5.3,11.7,11.7,11.7h32.9c2.7,0,4.9-2.2,4.9-4.9V88.5c0-2.7-2.2-4.9-4.9-4.9L122.4,83.6z"/>
			<path id="Path_321487" class="st2" d="M126.6,90.9c3.9,0,7,3.1,7,7s-3.1,7-7,7c-3.9,0-7-3.1-7-7S122.8,90.9,126.6,90.9
				L126.6,90.9"/>
			<path id="Path_321488" class="st1" d="M126.6,108c-5.6,0-10.1-4.5-10.1-10.1s4.5-10.1,10.1-10.1c5.6,0,10.1,4.5,10.1,10.1l0,0
				C136.7,103.5,132.2,108,126.6,108 M126.6,94c-2.2,0-3.9,1.8-3.9,3.9s1.8,3.9,3.9,3.9c2.2,0,3.9-1.8,3.9-3.9v0
				C130.6,95.7,128.8,94,126.6,94"/>
			<path id="Path_321489" class="st1" d="M53,49.3l-2.8-5.5L95,21.2c5.5-2.9,10.8-3.2,14.9-0.8c4.3,2.5,6.6,7.6,6.6,14.3v11.4h-6.2
				V34.7c0-4.4-1.3-7.7-3.6-9.1c-2.2-1.3-5.3-1-8.9,1L53,49.3z"/>
			<path id="Path_321490" class="st1" d="M29.6,48.9l-4.1-4.6L70.2,4.4C75.3,0.2,80.6-1,85.2,0.9c4.6,1.9,7.5,6.5,8.2,12.6
				c0.3,4.2,0.3,8.4,0,12.7l-6.1-0.6c0.3-3.9,0.3-7.7,0-11.6c-0.4-3.6-2-6.5-4.4-7.4c-2.4-1-5.5-0.1-8.7,2.5L29.6,48.9z"/>
			<path id="Path_321491" class="st2" d="M37.4,86c19,0,34.3,15.4,34.3,34.3s-15.4,34.3-34.3,34.3S3,139.3,3,120.4
				C3,101.4,18.4,86,37.4,86"/>
			<path id="Path_321492" class="st1" d="M37.4,157.8C16.7,157.7,0,141,0,120.3S16.8,83,37.4,83c20.7,0,37.4,16.8,37.4,37.4
				c0,9.9-3.9,19.4-11,26.4C56.8,153.8,47.3,157.8,37.4,157.8 M37.4,89.1c-17.3,0-31.3,14-31.3,31.3c0,17.3,14,31.3,31.3,31.3
				c17.3,0,31.3-14,31.3-31.3c0-8.3-3.3-16.2-9.2-22.1C53.6,92.4,45.7,89.1,37.4,89.1"/>
			<path id="Path_321493" class="st1" d="M42.2,144.2c-0.9,0-1.7-0.4-2.3-1l-16.7-18.8l0.9-2.3c0.6-1.3,1.9-2,3.3-1.9
				c4.7,0.3,8.3-1,10-3.7c1.2-2,1.2-4.6,0-6.6c-1.8-3.1-5.8-4.6-10.9-4.3c-1.7,0.1-3.2-1.2-3.3-2.9c-0.1-1.7,1.2-3.2,2.9-3.3
				c0,0,0,0,0,0c7.5-0.4,13.5,2.2,16.5,7.3c2.4,4,2.4,9,0,12.9c-2.2,3.4-5.7,5.7-9.7,6.3l11.6,13.1c1.1,1.3,1,3.2-0.2,4.3
				C43.7,143.9,42.9,144.2,42.2,144.2L42.2,144.2z"/>
			<path id="Path_321494" class="st1" d="M52.1,105.3H26.2c-1.7,0-3.1-1.3-3.1-3c0-1.7,1.3-3.1,3-3.1c0,0,0.1,0,0.1,0h25.9
				c1.7,0,3.1,1.3,3.1,3c0,1.7-1.3,3.1-3,3.1C52.2,105.3,52.2,105.3,52.1,105.3"/>
			<path id="Path_321495" class="st1" d="M51.5,115.6H26.2c-1.7,0-3.1-1.3-3.1-3c0-1.7,1.3-3.1,3-3.1c0,0,0.1,0,0.1,0h25.3
				c1.7,0,3.1,1.3,3.1,3c0,1.7-1.3,3.1-3,3.1C51.6,115.6,51.6,115.6,51.5,115.6"/>
		</g>
	</g>
</g>
</svg>
