<?xml version="1.0" encoding="utf-8"?>
<!-- Generator: Adobe Illustrator 26.5.0, SVG Export Plug-In . SVG Version: 6.00 Build 0)  -->
<svg version="1.1" id="Layer_1" xmlns="http://www.w3.org/2000/svg" xmlns:xlink="http://www.w3.org/1999/xlink" x="0px" y="0px"
	 viewBox="0 0 200 200" style="enable-background:new 0 0 200 200;" xml:space="preserve">
<style type="text/css">
	.st0{clip-path:url(#SVGID_00000066478086119372047790000010428778837960543154_);}
	.st1{fill:#003173;}
	.st2{fill:#E64B16;}
	.st3{fill:#E64D17;}
</style>
<g id="Group_92507" transform="translate(20 15)">
	<g>
		<defs>
			<rect id="SVGID_1_" width="160.9" height="170"/>
		</defs>
		<clipPath id="SVGID_00000130617527263404199900000001486452191740796317_">
			<use xlink:href="#SVGID_1_"  style="overflow:visible;"/>
		</clipPath>
		<g id="Group_92506" style="clip-path:url(#SVGID_00000130617527263404199900000001486452191740796317_);">
			<path id="Path_321513" class="st1" d="M113.4,56.5H104c-1.2,0-2.2-1-2.2-2.2c0,0,0,0,0,0v-2.9l-4.6-1.6L95,51.9
				c-0.9,0.9-2.3,0.9-3.1,0l-7-7c-0.9-0.9-0.9-2.3,0-3.1l1.9-1.9l-1.7-3.5L81,36.4c-1.2,0-2.2-1-2.3-2.2v-12c0-1.2,1-2.2,2.2-2.2
				h3.9l1.5-3.2l-2.2-2.2c-0.9-0.9-0.9-2.3,0-3.1l7.5-7.5c0.9-0.9,2.3-0.9,3.1,0l2.4,2.4l4-1.8V2.2c0-1.2,1-2.2,2.2-2.2h9.3
				c1.2,0,2.2,1,2.2,2.2c0,0,0,0,0,0v2.1l4.9,1.8l2-2c0.9-0.9,2.3-0.9,3.1,0l7.1,7.1c0.9,0.9,0.9,2.3,0,3.1l-2.1,2.1l1.7,4.2h2.8
				c1.2,0,2.2,1,2.2,2.2c0,0,0,0,0,0v10.2c0,1.2-1,2.2-2.2,2.2c0,0,0,0,0,0h-3.1l-1.8,4.1l2.3,2.3c0.9,0.9,0.9,2.3,0,3.1l-7,7
				c-0.9,0.9-2.3,0.9-3.1,0l-2.2-2.2l-4.1,1.8v2.8C115.6,55.5,114.6,56.5,113.4,56.5 M106.2,52.1h5v-2c0-0.9,0.5-1.7,1.3-2l6.8-3.1
				c0.8-0.4,1.8-0.2,2.5,0.5l1.7,1.7l3.9-3.9l-1.8-1.8c-0.6-0.6-0.8-1.6-0.5-2.4l2.9-6.8c0.3-0.8,1.1-1.3,2-1.3h2.3v-5.8h-2.1
				c-0.9,0-1.7-0.5-2-1.4l-2.8-6.9c-0.3-0.8-0.1-1.8,0.5-2.4l1.6-1.5l-4-4l-1.4,1.4c-0.6,0.6-1.5,0.8-2.3,0.5l-7.7-2.9
				c-0.9-0.3-1.4-1.1-1.4-2.1V4.4h-4.9V6c0,0.9-0.5,1.7-1.3,2l-6.7,3c-0.8,0.4-1.8,0.2-2.5-0.5l-1.9-1.9L88.9,13l1.7,1.7
				c0.7,0.7,0.8,1.7,0.4,2.5l-2.7,5.9c-0.4,0.8-1.1,1.3-2,1.3h-3.2V32l3.4-0.1c0.9,0,1.7,0.5,2,1.3l2.9,6.2c0.4,0.8,0.2,1.8-0.4,2.5
				l-1.5,1.5l3.9,3.9l1.5-1.5c0.6-0.6,1.5-0.8,2.3-0.5l7.4,2.5c0.9,0.3,1.5,1.1,1.5,2.1L106.2,52.1z"/>
			<path id="Path_321514" class="st1" d="M146.2,83.7h-5.8c-0.9,0-1.6-0.7-1.6-1.6c0,0,0,0,0,0v-1.6l-2.5-0.8l-1.2,1.2
				c-0.6,0.6-1.6,0.6-2.3,0c0,0,0,0,0,0l-4.3-4.3c-0.6-0.6-0.6-1.6,0-2.3c0,0,0,0,0,0l1.1-1.1l-0.9-1.9l-2.4,0
				c-0.4,0-0.8-0.2-1.2-0.5c-0.3-0.3-0.5-0.7-0.5-1.1v-7.4c0-0.9,0.7-1.6,1.6-1.6h2.3l0.8-1.7l-1.2-1.2c-0.6-0.6-0.6-1.6,0-2.3
				c0,0,0,0,0,0l4.6-4.6c0.6-0.6,1.6-0.6,2.3,0c0,0,0,0,0,0l1.3,1.3l2.2-1v-1.3c0-0.9,0.7-1.6,1.6-1.6l0,0h5.7
				c0.9,0,1.6,0.7,1.6,1.6v0v1.1l2.7,1l1.1-1.1c0.6-0.6,1.6-0.6,2.3,0c0,0,0,0,0,0l4.4,4.4c0.6,0.6,0.6,1.6,0,2.3c0,0,0,0,0,0
				l-1.2,1.2l0.9,2.3h1.6c0.9,0,1.6,0.7,1.6,1.6v0V69c0,0.9-0.7,1.6-1.6,1.6l0,0h-1.7l-1,2.2l1.3,1.3c0.6,0.6,0.6,1.6,0,2.3
				c0,0,0,0,0,0l-4.3,4.3c-0.6,0.6-1.6,0.6-2.3,0c0,0,0,0,0,0l-1.2-1.2l-2.2,1v1.5C147.8,82.9,147.1,83.7,146.2,83.7
				C146.2,83.7,146.2,83.7,146.2,83.7L146.2,83.7z M142,80.5h2.6v-1c0-0.6,0.4-1.2,0.9-1.5l4.2-1.9c0.6-0.3,1.3-0.1,1.8,0.3l0.9,0.9
				l2-2l-0.9-0.9c-0.5-0.5-0.6-1.2-0.3-1.8l1.8-4.2c0.3-0.6,0.8-1,1.5-1h1.2v-3.1h-1.1c-0.7,0-1.2-0.4-1.5-1l-1.7-4.3
				c-0.2-0.6-0.1-1.3,0.3-1.7l0.8-0.8l-2.1-2.1l-0.7,0.7c-0.4,0.4-1.1,0.6-1.7,0.4l-4.7-1.8c-0.6-0.2-1-0.8-1-1.5v-0.7h-2.5v0.7
				c0,0.6-0.4,1.2-1,1.5l-4.1,1.8c-0.6,0.3-1.3,0.1-1.8-0.3l-1-1l-2.3,2.4l0.9,0.9c0.5,0.5,0.6,1.2,0.3,1.8L131,63
				c-0.3,0.6-0.8,0.9-1.5,0.9h-1.7v4.1l1.8,0c0.6,0,1.2,0.3,1.5,0.9l1.8,3.8c0.3,0.6,0.2,1.3-0.3,1.8l-0.7,0.7l2,2l0.8-0.8
				c0.4-0.4,1.1-0.6,1.6-0.4l4.5,1.5c0.7,0.2,1.1,0.8,1.1,1.5L142,80.5z"/>
			<path id="Path_321515" class="st2" d="M108.2,19.3c5.4,0,9.7,4.4,9.7,9.7s-4.4,9.7-9.7,9.7c-5.4,0-9.7-4.4-9.7-9.7c0,0,0,0,0,0
				C98.5,23.6,102.9,19.3,108.2,19.3"/>
			<path id="Path_321516" class="st1" d="M108.2,41c-6.6,0-11.9-5.3-11.9-11.9c0-6.6,5.3-11.9,11.9-11.9c6.6,0,11.9,5.3,11.9,11.9
				C120.2,35.6,114.8,41,108.2,41C108.2,41,108.2,41,108.2,41 M108.2,21.5c-4.2,0-7.5,3.4-7.5,7.5s3.4,7.5,7.5,7.5
				c4.2,0,7.5-3.4,7.5-7.5v0C115.8,24.9,112.4,21.5,108.2,21.5z"/>
			<path id="Path_321517" class="st2" d="M143.2,60.2c3.3,0,6.1,2.7,6.1,6.1s-2.7,6.1-6.1,6.1s-6.1-2.7-6.1-6.1l0,0
				C137.2,63,139.9,60.2,143.2,60.2C143.2,60.2,143.2,60.2,143.2,60.2"/>
			<path id="Path_321518" class="st1" d="M143.2,74c-4.2,0-7.7-3.4-7.7-7.7s3.4-7.7,7.7-7.7c4.2,0,7.7,3.4,7.7,7.7
				C150.9,70.5,147.5,74,143.2,74 M143.2,61.8c-2.5,0-4.5,2-4.5,4.5s2,4.5,4.5,4.5c2.5,0,4.5-2,4.5-4.5
				C147.7,63.8,145.7,61.8,143.2,61.8"/>
			<path id="Path_321519" class="st1" d="M60.2,170c-8.7,0-14.8-4.3-15-10.6c0-1.4,1.1-2.6,2.5-2.7c0,0,0,0,0,0
				c1.4-0.1,2.6,1,2.7,2.4c0,0,0,0.1,0,0.1c0.1,3.8,5.4,5.7,10.5,5.5s10.2-2.3,10.1-6.2c0-1.4,1.1-2.6,2.5-2.7c0,0,0,0,0,0
				c1.4,0,2.6,1.1,2.7,2.5c0.2,6.5-6,11.3-15.1,11.5C60.8,170,60.5,170,60.2,170"/>
			<path id="Path_321520" class="st1" d="M77.7,160.1H42.3c-4,0-6.9-3.3-6.9-7.8c0-1.8,0.5-3.6,1.6-5.1c1.2-1.7,3.2-2.7,5.3-2.7h0
				l35.4,0.2c4,0,7,3.2,7,7.7S81.7,160.1,77.7,160.1 M42.3,149.8c-1.7,0-1.7,2.5-1.7,2.6s0,2.6,1.7,2.6h35.3c1.7,0,1.8-2.2,1.8-2.5
				s-0.1-2.5-1.8-2.5L42.3,149.8z"/>
			<path id="Path_321521" class="st1" d="M79.7,149.7H40.2c-4.2,0-7.6-3.4-7.6-7.6c0-4.2,3.4-7.6,7.6-7.6h0l39.5,0.2
				c4.1,0,7.5,3.4,7.5,7.5C87.2,146.4,83.9,149.8,79.7,149.7L79.7,149.7z M40.2,139.8c-1.3,0.1-2.3,1.2-2.2,2.5
				c0.1,1.2,1,2.2,2.2,2.2h39.5c1.3,0,2.3-1,2.4-2.3c0-1.3-1-2.3-2.3-2.4c0,0-0.1,0-0.1,0L40.2,139.8z"/>
			<path id="Path_321522" class="st3" d="M51,102.7c-0.1-0.4,0.1-0.9,0.5-1c0.2-0.1,0.5,0,0.7,0.1c2.5,1.5,5,0.5,7.5-2.1
				c1.2-1.2,2.5-1.2,3.7,0.1c2.5,2,5,2.6,7.4,1.6c0.4-0.2,0.9,0,1,0.4c0.1,0.2,0.1,0.4,0,0.6c-5,11.3-8.6,34.4-10.7,34.7
				S55.4,116.1,51,102.7"/>
			<path id="Path_321523" class="st1" d="M61,139.9c-3.1,0-4.2-4.4-7.5-18.1c-1.5-6.1-3.2-12.9-4.9-18.3c-0.4-1.3,0-2.8,1.1-3.7
				c1.1-0.9,2.7-1,4-0.2c0.5,0.3,1.7,1,4.2-1.7c1.7-2,4.8-2.3,6.8-0.5c0,0,0,0,0,0c0.2,0.2,0.4,0.3,0.5,0.5c2.3,1.8,3.7,1.5,4.6,1.2
				c1.7-0.8,3.7,0,4.5,1.7c0.4,0.9,0.4,1.9,0,2.7c-2.5,5.6-4.7,14.4-6.4,21.5c-2.9,11.7-3.6,14.2-6.2,14.7
				C61.4,139.9,61.2,139.9,61,139.9 M54.5,105.1c1.4,4.9,2.8,10.4,4,15.5c0.8,3.3,1.7,7.1,2.6,10.1c0.6-2.1,1.2-4.6,1.7-6.8
				c1.5-6.5,3.3-13,5.5-19.3c-2.4-0.2-4.6-1.1-6.4-2.7l-0.3-0.2l0,0C58.9,104.3,56.5,105.2,54.5,105.1L54.5,105.1z"/>
			<path id="Path_321524" class="st1" d="M84.5,138.1H35.9l0.1-2.7c0.2-4.4,0-8.8-0.6-13.1c-1.4-7.2-4.2-11.5-7.2-16.1
				c-4-6-8.1-12.3-8.1-24.9c0-22.2,18-40.2,40.2-40.2c22.2,0,40.2,18,40.2,40.2v0c-0.2,15.7-4.9,22-9.4,28.1
				c-2.8,3.7-5.4,7.3-7,13.2c-0.8,4.2-0.7,5.2-0.2,9.5L84.5,138.1z M41.3,132.9h37.4l0-0.3c-0.6-3.7-0.5-7.5,0.3-11.2
				c1.9-7.1,4.9-11.2,7.8-15.1c4.2-5.7,8.2-11,8.4-25.1c0.1-19.3-15.5-35-34.8-35.1c-19.3-0.1-35,15.5-35.1,34.8c0,0.1,0,0.2,0,0.4
				c0,11,3.3,16.1,7.2,22c3.2,4.8,6.4,9.8,8,18.1C41.1,125.2,41.4,129,41.3,132.9"/>
			<path id="Path_321525" class="st1" d="M10.8,77.4c-0.2,0-0.3,0-0.5,0l-8.2-1.5c-1.4-0.2-2.4-1.6-2.1-3s1.6-2.4,3-2.1l0,0l8.2,1.5
				c1.4,0.2,2.4,1.6,2.1,3C13.2,76.5,12.1,77.5,10.8,77.4L10.8,77.4z"/>
			<path id="Path_321526" class="st1" d="M116,85.3c-0.1,0.1-0.3,0.1-0.4,0.2l-8.1,2.1c-1.4,0.4-2.8-0.5-3.2-1.8s0.5-2.8,1.8-3.2
				l8.1-2.1c1.4-0.4,2.8,0.4,3.2,1.8C117.8,83.5,117.2,84.8,116,85.3z"/>
			<path id="Path_321527" class="st1" d="M16.7,57.8c-0.7,0-1.4-0.3-1.9-0.8l-9.3-9.8c-1-1-0.9-2.7,0.1-3.7c1-1,2.7-0.9,3.7,0.1
				l9.3,9.8c1,1,0.9,2.7-0.1,3.7C18,57.5,17.4,57.8,16.7,57.8L16.7,57.8z"/>
			<path id="Path_321528" class="st1" d="M119.7,66.1c-0.3,0.7-0.8,1.2-1.4,1.5l-12.5,5c-1.3,0.5-2.8-0.1-3.4-1.4s0.1-2.8,1.4-3.4
				l0,0l12.5-5c1.3-0.5,2.8,0.1,3.4,1.4C119.9,64.7,119.9,65.4,119.7,66.1L119.7,66.1z"/>
			<path id="Path_321529" class="st1" d="M35,39.8c-1,0-1.9-0.5-2.3-1.4l-7.6-14.8c-0.7-1.3-0.2-2.8,1.1-3.5s2.8-0.2,3.5,1.1l0,0
				L37.3,36c0.7,1.3,0.2,2.8-1.1,3.5C35.8,39.7,35.4,39.8,35,39.8z"/>
			<path id="Path_321530" class="st1" d="M62.8,35.5c-1.4,0-2.6-1.2-2.6-2.6V14.7c0-1.4,1.2-2.6,2.6-2.6c1.4,0,2.6,1.2,2.6,2.6v18.2
				C65.4,34.4,64.2,35.5,62.8,35.5"/>
		</g>
	</g>
</g>
</svg>
