<?xml version="1.0" encoding="utf-8"?>
<!-- Generator: Adobe Illustrator 26.5.0, SVG Export Plug-In . SVG Version: 6.00 Build 0)  -->
<svg version="1.1" id="Layer_1" xmlns="http://www.w3.org/2000/svg" xmlns:xlink="http://www.w3.org/1999/xlink" x="0px" y="0px"
	 viewBox="0 0 200 200" style="enable-background:new 0 0 200 200;" xml:space="preserve">
<style type="text/css">
	.st0{clip-path:url(#SVGID_00000107559200602236882130000004763084333261872512_);}
	.st1{fill:#003173;}
	.st2{fill:#E64B16;}
</style>
<g id="Group_92505" transform="translate(8 15)">
	<g>
		<defs>
			<rect id="SVGID_1_" width="183.1" height="169.7"/>
		</defs>
		<clipPath id="SVGID_00000071519935427206014150000002421426474677218715_">
			<use xlink:href="#SVGID_1_"  style="overflow:visible;"/>
		</clipPath>
		<g id="Group_92504" style="clip-path:url(#SVGID_00000071519935427206014150000002421426474677218715_);">
			<path id="Path_321496" class="st1" d="M145.9,169.7c7.7,0.1,15.2-2.6,21-7.5c5.6-4.9,9-11.8,9.6-19.1l3.1,0c1,0,1.9-0.4,2.5-1.1
				c0.7-0.7,1-1.7,0.9-2.6c-1.7-19.1-12.3-32.2-30-36.9c-0.2,0-0.3-0.1-0.5-0.1c-18.5-2.3-32.4,4.6-41.4,20.5l-33.4-0.4
				c1.5-8.3,0.2-16.8-3.8-24.3c-3.1-5.7-8.4-10-14.7-11.6c-16.6-3.5-30.8-0.7-41.3,8C6.4,104.1-0.3,120.8,0,139.2
				c0,1.9,1.6,3.3,3.4,3.3h2.7c1.6,17.9,16.2,27.2,30.5,27.2c7.7,0.1,15.2-2.6,21-7.7c5.6-5,9-12,9.5-19.5h14.1l34.1,0.4
				C117,160.5,131.5,169.7,145.9,169.7 M173.3,136.2c-1.9,0-3.4,1.5-3.4,3.4c0,16-12.4,23.3-23.9,23.3s-23.9-7.3-23.9-23.3
				c0-1.9-1.5-3.4-3.4-3.4l-54.8-0.5c-1.9,0-3.4,1.5-3.4,3.4c0,16.3-12.3,23.8-23.8,23.8s-23.8-7.4-23.8-23.8c0-1.9-1.5-3.4-3.4-3.4
				H6.9c0.5-14.9,6.1-28.2,15.4-35.9c9-7.4,20.9-9.7,35.4-6.6c4.4,1.3,8.2,4.3,10.4,8.4c3.6,6.4,4.5,15.3,2.2,23.3
				c-0.5,1.8,0.5,3.7,2.3,4.2c0.3,0.1,0.6,0.1,0.9,0.1l39.7,0.5c1.3,0,2.5-0.7,3.1-1.8c7.6-14.6,19.1-20.7,35.3-18.8
				c13.6,3.7,21.9,13.1,24.2,27.1L173.3,136.2L173.3,136.2z"/>
			<path id="Path_321497" class="st1" d="M116.5,143h58.9c1.9,0,3.4-1.5,3.5-3.4c0-1.9-1.5-3.4-3.4-3.5l0,0h-59.1
				c-1.9,0-3.4,1.5-3.5,3.4c0,1.9,1.5,3.4,3.4,3.5H116.5"/>
			<path id="Path_321498" class="st1" d="M9.4,142.5h55.2c1.9,0,3.4-1.6,3.4-3.5c0-1.8-1.5-3.3-3.4-3.4H9.4c-1.9,0-3.4,1.6-3.4,3.5
				C6.1,141,7.5,142.5,9.4,142.5"/>
			<path id="Path_321499" class="st1" d="M62.9,142.3c0.8,0,1.6-0.3,2.3-0.9c5.3-4.7,11.1-10.5,12.9-20.4c0.3-1.9-0.9-3.6-2.7-4
				s-3.6,0.9-4,2.7l0,0c-1.4,7.8-5.9,12.2-10.7,16.5c-1.4,1.3-1.5,3.4-0.3,4.8C61,141.8,61.9,142.3,62.9,142.3L62.9,142.3z"/>
			<path id="Path_321500" class="st1" d="M110.9,142.5L110.9,142.5c1.9,0,3.4-1.6,3.4-3.5c-0.1-6.6,1.6-11.6,5.7-17.3
				c1.1-1.5,0.7-3.7-0.8-4.8c-1.5-1.1-3.6-0.7-4.7,0.7c-4.7,6.1-7.2,13.7-7,21.4C107.5,141,109.1,142.5,110.9,142.5"/>
			<path id="Path_321501" class="st1" d="M120,119.8c1.4,0,2.7-0.9,3.2-2.2c7.2-19,6.5-37.8-1.9-55.9h16.3c1.9,0,3.4-1.5,3.4-3.4
				v-28c0-1.9-1.5-3.4-3.4-3.4h-21.7c-4.6,0-8.9,2.5-11.1,6.5c-3.6,6.6-3.7,14.5-0.3,21.2c1.8,3.5,5.1,5.9,8.9,6.6
				c9.3,17.7,10.4,35.4,3.4,54c-0.7,1.8,0.2,3.7,2,4.4C119.2,119.7,119.6,119.8,120,119.8L120,119.8z M134.1,54.9h-17.3
				c-0.4-0.2-0.8-0.3-1.3-0.3c-5.4-0.1-6.8-6.9-6.7-10.6c0-2.7,0.7-5.3,2.1-7.6c1-1.7,2.9-2.8,4.9-2.7h18.3V54.9z"/>
			<path id="Path_321502" class="st1" d="M128.6,61.4c1.9,0,3.4-1.5,3.4-3.4V30.3c0-1.9-1.5-3.4-3.4-3.5c-1.9,0-3.4,1.5-3.5,3.4
				c0,0,0,0.1,0,0.1V58C125.2,59.9,126.7,61.4,128.6,61.4"/>
			<path id="Path_321503" class="st1" d="M145.7,108.7c1.9,0,3.4-1.5,3.4-3.4c0-0.4-0.1-0.9-0.3-1.3l-19.2-47
				c-0.7-1.7-2.7-2.6-4.5-1.8c-1.7,0.7-2.5,2.7-1.8,4.4l19.2,47C143,107.9,144.3,108.7,145.7,108.7"/>
			<path id="Path_321504" class="st1" d="M106.8,88.8c1.9,0,3.4-1.5,3.4-3.4c0.1-5.5-2-14.9-16.6-15.5l-52.3-3.4c-0.2,0-0.4,0-0.6,0
				c-5.7,0.7-11.2,6-9.8,18.8c0.2,1.7,1.6,3,3.4,3L106.8,88.8L106.8,88.8z M41.2,73.4l52,3.4c6.4,0.3,8.9,2.5,9.7,5.2l-65.5-0.3
				C37.4,78.3,38,74,41.2,73.4z"/>
			<path id="Path_321505" class="st1" d="M100.9,129.5c1.9,0,3.4-1.5,3.4-3.4s-1.5-3.4-3.4-3.4l0,0c-4.1,0.1-8-1.7-10.4-5
				c-2.5-3.5-3.8-7.7-3.7-11.9c0-8.2,4.4-16.9,14.1-16.9c1.9,0,3.4-1.5,3.4-3.4s-1.5-3.4-3.4-3.4l0,0c-13.7,0-20.9,12-20.9,23.8
				c-0.1,5.8,1.7,11.4,5.1,16.1C88.8,126.8,94.7,129.6,100.9,129.5"/>
			<path id="Path_321506" class="st1" d="M145.4,157.5c9,0,18.1-6,18.1-17.5c0-1.9-1.6-3.4-3.5-3.4c-1.8,0-3.3,1.5-3.4,3.4
				c0,7.4-5.7,10.7-11.3,10.7c-5.6,0-11.3-3.3-11.3-10.7c0-1.9-1.5-3.4-3.4-3.4c-1.9,0-3.4,1.5-3.4,3.4
				C127.2,151.4,136.4,157.5,145.4,157.5"/>
			<path id="Path_321507" class="st1" d="M36.2,157.3c9.2,0,18.4-6.2,18.4-18c0-1.9-1.5-3.4-3.4-3.4c-1.9,0-3.4,1.5-3.4,3.4v0
				c0,7.7-5.8,11.1-11.6,11.1s-11.6-3.4-11.6-11.1c0-1.9-1.6-3.4-3.5-3.4c-1.8,0-3.3,1.5-3.4,3.4C17.8,151.1,27,157.3,36.2,157.3"/>
			<path id="Path_321508" class="st2" d="M113.5,35.2c-4.8,0-8.8,3.9-8.8,8.8c0,4.8,3.9,8.8,8.8,8.8c4.8,0,8.8-3.9,8.8-8.8
				S118.3,35.2,113.5,35.2"/>
			<path id="Path_321509" class="st1" d="M113.5,55.1c6.1,0,11.1-5,11.1-11.1s-5-11.1-11.1-11.1s-11.1,5-11.1,11.1c0,0,0,0,0,0
				C102.4,50.1,107.4,55.1,113.5,55.1 M113.5,37.5c3.6,0,6.5,2.9,6.5,6.5s-2.9,6.5-6.5,6.5c-3.6,0-6.5-2.9-6.5-6.5
				C107,40.4,109.9,37.5,113.5,37.5C113.5,37.5,113.5,37.5,113.5,37.5z"/>
			<rect id="Rectangle_33580" x="130.7" y="32.6" class="st2" width="4.6" height="23.3"/>
			<path id="Path_321510" class="st2" d="M157.7,141.9c-1.7,13.4-22.6,13-24.6,0H157.7z"/>
			<path id="Path_321511" class="st2" d="M48.8,141.4c-1.7,13.6-23.3,13.2-25.3,0H48.8z"/>
			<path id="Path_321512" class="st1" d="M10.6,70.6h70.6V0H10.6V70.6z M74.3,63.8H17.4V6.8h56.9V63.8z"/>
			<rect id="Rectangle_33581" x="17.4" y="37.5" class="st2" width="56.9" height="6.7"/>
			<rect id="Rectangle_33582" x="17.4" y="23.5" class="st2" width="56.9" height="6.7"/>
		</g>
	</g>
</g>
</svg>
