<?xml version="1.0" encoding="utf-8"?>
<!-- Generator: Adobe Illustrator 26.5.0, SVG Export Plug-In . SVG Version: 6.00 Build 0)  -->
<svg version="1.1" id="Layer_1" xmlns="http://www.w3.org/2000/svg" xmlns:xlink="http://www.w3.org/1999/xlink" x="0px" y="0px"
	 viewBox="0 0 200 200" style="enable-background:new 0 0 200 200;" xml:space="preserve">
<style type="text/css">
	.st0{fill:none;}
	.st1{fill:#FFFFFF;}
	.st2{fill:#35C0FF;}
</style>
<g>
	<rect class="st0" width="200" height="200"/>
	<g id="Group_92797" transform="translate(-5996.452 -316.496)">
		<path id="Path_321475" class="st1" d="M6027.5,503.5h-21.7c-1.8,0-3.3-1.5-3.3-3.3l0,0v-57.1c0-1.8,1.5-3.3,3.3-3.3c0,0,0,0,0,0
			h21.7c1.8,0,3.3,1.5,3.3,3.3l0,0v57C6030.8,502.1,6029.3,503.5,6027.5,503.5C6027.5,503.5,6027.5,503.5,6027.5,503.5
			 M6009.1,496.9h15.1v-50.4h-15.1V496.9z"/>
		<path id="Path_321476" class="st1" d="M6057.4,469.1c-1.8,0-3.3-1.5-3.3-3.3s1.5-3.3,3.3-3.3l0,0l42.6-0.6c2.7-0.4,4.7-2,4.6-4.1
			c0-1.6-1.3-3.7-5-4.1c-10.1,0.3-20.6-2-31.5-6.9c-12.2-3.6-24.5,0.8-38.4,14.1c-1.3,1.3-3.4,1.2-4.7-0.1c-1.3-1.3-1.2-3.4,0.1-4.7
			c15.6-14.9,30.4-20,45.2-15.5c10.4,4.6,19.9,6.7,29.5,6.5c7.8,0.8,11.2,6.1,11.3,10.6c0,4.5-3.3,9.8-10.8,10.7L6057.4,469.1
			L6057.4,469.1z"/>
		<path id="Path_321477" class="st1" d="M6027.5,495c-1.8,0-3.3-1.5-3.3-3.3c0-1.1,0.6-2.2,1.6-2.8c13.8-8.6,29.9-12.6,49.1-12.5
			l36.9-2.1c8-0.8,14.3-3.6,19-8.6c7.1-7.1,15.8-12.3,25.4-15.2c1.7-0.5,3.6,0.4,4.1,2.2c0.5,1.7-0.4,3.6-2.2,4.1l0,0
			c-8.6,2.5-16.4,7.2-22.7,13.5c-5.8,6-13.4,9.5-23.2,10.5l-37.3,2.1c-18.1-0.1-33.1,3.7-45.8,11.5
			C6028.7,494.8,6028.1,495,6027.5,495"/>
		<path id="Path_321478" class="st1" d="M6177.4,455.7h-68.9c-1.8,0-3.3-1.5-3.3-3.3c0-1.8,1.5-3.3,3.3-3.3h65.6v-88.9h-106.6v81.3
			c0,1.8-1.5,3.3-3.3,3.3s-3.3-1.5-3.3-3.3v-84.6c0-1.8,1.5-3.3,3.3-3.3h113.2c1.8,0,3.3,1.5,3.3,3.3l0,0v95.5
			C6180.7,454.2,6179.2,455.7,6177.4,455.7L6177.4,455.7"/>
		<path id="Path_321479" class="st2" d="M6102.7,333.5l37.6-0.1v47.3l-11.4-9.4l-8.9,9.4l-8.7-9.6l-8.6,9.6L6102.7,333.5z"/>
		<path id="Path_321480" class="st1" d="M6102.7,384.1c-1.8,0-3.3-1.5-3.3-3.3l0-47.2c0-1.8,1.5-3.3,3.3-3.3l37.6-0.1h0
			c1.8,0,3.3,1.5,3.3,3.3c0,0,0,0,0,0v47.3c0,1.8-1.5,3.3-3.3,3.3c-0.8,0-1.5-0.3-2.1-0.8l-9-7.4l-6.8,7.2c-1.3,1.3-3.3,1.4-4.7,0.1
			c0,0,0,0,0,0c-0.1-0.1-0.1-0.1-0.2-0.2l-6.2-6.9l-6.1,6.9C6104.5,383.7,6103.6,384.1,6102.7,384.1 M6111.2,367.9
			c0.9,0,1.8,0.4,2.4,1.1l6.3,6.9l6.5-6.8c1.2-1.3,3.2-1.4,4.5-0.3l6,4.9v-37l-31,0.1l0,35.3l2.8-3.1
			C6109.4,368.3,6110.3,367.9,6111.2,367.9L6111.2,367.9z"/>
		<path id="Path_321481" class="st1" d="M6064.8,360.2h-14.9c-1.8,0-3.3-1.5-3.3-3.3v-24.1c0-1.8,1.5-3.3,3.3-3.3h136.6
			c1.8,0,3.3,1.5,3.3,3.3c0,0,0,0,0,0v24c0,1.8-1.5,3.3-3.3,3.3l-9.1,0.1c-1.8,0-3.3-1.4-3.3-3.3c0-1.8,1.4-3.3,3.3-3.3l5.8-0.1
			v-17.4h-130v17.5h11.6c1.8,0,3.3,1.5,3.3,3.3C6068.1,358.7,6066.6,360.2,6064.8,360.2L6064.8,360.2z"/>
		<path id="Path_321482" class="st2" d="M6102,451.1v-26l9.2,9.1l8.7-9.1l9,9.1l8.9-9.1v26H6102z"/>
		<path id="Path_321483" class="st1" d="M6137.8,454.4H6102c-1.8,0-3.3-1.5-3.3-3.3l0,0v-26c0-1.8,1.5-3.3,3.3-3.3
			c0.9,0,1.7,0.3,2.3,1l6.8,6.7l6.4-6.7c0.6-0.6,1.5-1,2.4-1c0.9,0,1.8,0.3,2.4,1l6.6,6.7l6.5-6.7c1.3-1.3,3.4-1.3,4.7-0.1
			c0.6,0.6,1,1.5,1,2.4v26C6141.1,453,6139.6,454.4,6137.8,454.4L6137.8,454.4 M6105.3,447.8h29.2v-14.6l-3.2,3.3
			c-0.6,0.6-1.5,1-2.4,1c-0.9,0-1.7-0.4-2.3-1l-6.6-6.7l-6.4,6.6c-0.6,0.6-1.5,1-2.3,1c-0.9,0-1.7-0.3-2.4-1l-3.6-3.5L6105.3,447.8z
			"/>
	</g>
</g>
</svg>
