<?xml version="1.0" encoding="utf-8"?>
<!-- Generator: Adobe Illustrator 26.5.0, SVG Export Plug-In . SVG Version: 6.00 Build 0)  -->
<svg version="1.1" id="Layer_1" xmlns="http://www.w3.org/2000/svg" xmlns:xlink="http://www.w3.org/1999/xlink" x="0px" y="0px"
	 viewBox="0 0 200 200" style="enable-background:new 0 0 200 200;" xml:space="preserve">
<style type="text/css">
	.st0{fill:#FFFFFF;stroke:#FFFFFF;stroke-width:0.5;}
	.st1{fill:#FFFFFF;stroke:#FFFFFF;}
	.st2{fill:#3AA6FF;}
	.st3{fill:#FFFFFF;}
</style>
<g id="Group_92796" transform="translate(-5937 -393.828)">
	<path id="Path_321463" class="st0" d="M6037.4,560.9c-35.7,0-64.7-29-64.7-64.7s29-64.7,64.7-64.7s64.7,29,64.7,64.7l0,0l0,0
		C6102,531.9,6073.1,560.8,6037.4,560.9 M6037.4,437.3c-32.5,0-58.9,26.4-58.9,58.9s26.4,58.9,58.9,58.9s58.9-26.4,58.9-58.9l0,0
		C6096.3,463.6,6069.9,437.3,6037.4,437.3C6037.4,437.3,6037.4,437.3,6037.4,437.3z"/>
	<path id="Path_321464" class="st0" d="M6020.9,582.7c-0.9,0-1.8-0.1-2.6-0.3c-5.5-1.1-9.5-6-9.3-11.7c0-3.2-2.5-5.8-5.7-5.8
		c-1.5,0-2.9,0.5-3.9,1.5c-4.8,4.4-12.3,4.1-16.7-0.7c-3.2-3.5-4-8.6-2-12.9c1.3-2.9,0-6.3-2.9-7.6c-1.3-0.6-2.8-0.7-4.2-0.2
		c-6.2,2.1-12.9-1.3-14.9-7.4c-1.5-4.5-0.2-9.4,3.4-12.6c2.4-2.1,2.6-5.7,0.5-8.1c-1-1.1-2.3-1.8-3.8-1.9
		c-6.5-0.6-11.2-6.4-10.6-12.9c0.5-4.7,3.7-8.7,8.2-10.1c3-1,4.7-4.2,3.8-7.2c-0.4-1.4-1.4-2.6-2.7-3.3c-5.7-3.2-7.7-10.4-4.5-16.1
		c2.3-4.1,6.9-6.5,11.6-5.9c3.2,0.4,6-1.9,6.4-5.1c0.2-1.4-0.2-2.9-1.1-4.1c-3.9-5.2-2.8-12.6,2.4-16.5c3.8-2.8,9-3.1,13-0.7
		c2.7,1.6,6.3,0.7,7.9-2c0.7-1.3,1-2.7,0.7-4.2c-1.4-6.4,2.6-12.7,9-14.1c4.6-1,9.4,0.8,12.2,4.7c1.8,2.6,5.4,3.2,8,1.3
		c1.2-0.8,2-2.1,2.3-3.5c1.3-6.4,7.5-10.5,13.9-9.2c4.6,0.9,8.3,4.6,9.2,9.2c0.6,3.1,3.7,5.1,6.8,4.5c1.4-0.3,2.7-1.1,3.5-2.3
		c3.8-5.3,11.2-6.5,16.5-2.8c3.9,2.8,5.7,7.5,4.7,12.2c-0.7,3.1,1.3,6.2,4.4,6.9c1.4,0.3,2.9,0.1,4.2-0.7c5.6-3.3,12.9-1.4,16.2,4.2
		c2.4,4.1,2.1,9.2-0.7,13c-1.9,2.6-1.4,6.2,1.2,8.1c1.2,0.9,2.6,1.3,4.1,1.1c6.5-0.7,12.3,3.9,13.1,10.4c0.5,4.7-1.8,9.3-5.9,11.6
		c-2.8,1.6-3.7,5.1-2.2,7.9c0.7,1.3,1.9,2.2,3.3,2.7c6.2,2,9.7,8.6,7.7,14.8c-1.4,4.5-5.4,7.7-10.1,8.2c-3.2,0.3-5.5,3.1-5.2,6.3
		c0.1,1.5,0.8,2.8,1.9,3.8c4.9,4.3,5.4,11.8,1.1,16.7c-3.1,3.6-8.1,4.9-12.6,3.4c-3-1-6.3,0.6-7.3,3.6c-0.5,1.4-0.4,2.9,0.2,4.2
		c2.7,5.9,0.1,12.9-5.8,15.6c-4.3,2-9.4,1.2-12.9-2c-2.3-2.2-6-2-8.1,0.4c-1,1.1-1.5,2.5-1.5,3.9c0.1,6.5-5.2,11.9-11.7,11.9
		c-4.8,0-9.1-2.8-11-7.1c-1.3-2.9-4.7-4.3-7.6-3c-1.3,0.6-2.4,1.6-3,3C6029.8,579.9,6025.6,582.8,6020.9,582.7 M6003.1,558.9
		c1.7,0,3.3,0.4,4.9,1c4.3,1.9,7.1,6.2,7,10.9c0,3.2,2.5,5.8,5.7,5.8c2.3,0,4.4-1.3,5.3-3.5c2.6-6,9.5-8.7,15.5-6.1
		c2.7,1.2,4.9,3.4,6.1,6.1c1.3,2.9,4.7,4.3,7.6,3c2.1-0.9,3.5-3,3.5-5.3c-0.1-6.5,5.2-11.9,11.7-11.9c3,0,5.9,1.1,8.1,3.1
		c2.3,2.2,6,2,8.1-0.4c1.6-1.7,2-4.2,1-6.3c-2.7-5.9-0.1-12.9,5.9-15.6c2.7-1.2,5.8-1.4,8.6-0.5c3,1,6.3-0.6,7.3-3.6
		c0.7-2.2,0.1-4.6-1.6-6.1c-4.9-4.3-5.3-11.8-1-16.7c2-2.2,4.7-3.6,7.7-3.9c3.2-0.3,5.5-3.1,5.2-6.3c-0.2-2.3-1.8-4.2-4-4.9
		c-6.2-2-9.7-8.6-7.7-14.8c0.9-2.9,2.8-5.3,5.5-6.7c2.8-1.6,3.7-5.1,2.2-7.9c-1.1-2-3.4-3.1-5.7-2.9c-6.5,0.7-12.3-3.9-13.1-10.4
		c-0.3-3,0.5-6,2.2-8.4c1.9-2.6,1.3-6.2-1.2-8.1c-1.9-1.4-4.4-1.5-6.3-0.3c-5.6,3.3-12.8,1.4-16.2-4.2c-1.5-2.6-2-5.6-1.4-8.6
		c0.7-3.1-1.3-6.2-4.4-6.9c-2.3-0.5-4.6,0.4-5.9,2.3c-3.8,5.3-11.2,6.5-16.5,2.8c-2.4-1.7-4.1-4.3-4.7-7.3c-0.6-3.1-3.7-5.1-6.8-4.5
		c-2.3,0.5-4,2.2-4.5,4.5c-1.3,6.4-7.5,10.5-13.9,9.2c-2.9-0.6-5.5-2.3-7.3-4.7c-1.8-2.6-5.4-3.2-8-1.4c-1.9,1.3-2.8,3.7-2.3,5.9
		c1.4,6.4-2.6,12.7-9,14.1c-2.9,0.6-6,0.2-8.5-1.4c-2.7-1.6-6.3-0.7-7.9,2c-1.2,2-1,4.5,0.3,6.3c3.9,5.2,2.8,12.6-2.4,16.5
		c-2.4,1.8-5.4,2.6-8.4,2.2c-3.2-0.4-6,1.9-6.4,5.1c-0.3,2.3,0.9,4.5,2.9,5.7c5.7,3.2,7.7,10.4,4.5,16.1c-1.5,2.6-3.9,4.5-6.7,5.4
		c-3,1-4.7,4.2-3.8,7.2c0.7,2.2,2.6,3.8,5,4c6.5,0.6,11.2,6.4,10.6,12.9c-0.3,3-1.7,5.7-3.9,7.7c-2.4,2.1-2.6,5.8-0.5,8.1
		c1.5,1.7,3.9,2.4,6.1,1.6c6.2-2.1,12.9,1.3,14.9,7.4c0.9,2.8,0.8,5.9-0.5,8.6c-1.3,2.9-0.1,6.3,2.8,7.6c2.1,1,4.6,0.6,6.3-1
		C5997.4,560.1,6000.2,558.9,6003.1,558.9"/>
	<path id="Path_321465" class="st1" d="M6068.6,499.3L6068.6,499.3l-56,26.6c-3.4,1.6-7.4,0.2-9-3.2c0,0,0,0,0,0l-13.8-29
		c-1.6-3.4-0.2-7.4,3.2-9l55.7-26.7l0,0c1.8-0.9,3.9-0.9,5.8-0.2l22.5,9c2.5,1,3.8,3.8,2.9,6.3l-7.6,22
		C6071.7,496.9,6070.4,498.5,6068.6,499.3 M5993,492.1l13.8,29c0.8,1.6,2.7,2.3,4.3,1.5c0,0,0,0,0,0l56-26.6
		c0.9-0.4,1.6-1.2,1.9-2.1l7.6-22c0.3-0.8-0.1-1.6-0.9-1.9l-22.5-9c-1-0.4-2-0.3-2.9,0.1h0l-55.7,26.7
		C5992.9,488.6,5992.2,490.5,5993,492.1L5993,492.1z"/>
	<path id="Path_321466" class="st2" d="M6059.2,472.3c2.3-1.1,5.1-0.1,6.2,2.2c1.1,2.3,0.1,5.1-2.2,6.2c-2.3,1.1-5.1,0.1-6.2-2.2
		C6055.9,476.2,6056.9,473.4,6059.2,472.3C6059.2,472.3,6059.2,472.3,6059.2,472.3"/>
	<path id="Path_321467" class="st3" d="M6064,482.3c-0.1,0.1-0.3,0.1-0.4,0.2c-3.3,1.3-7-0.3-8.3-3.6c-1.3-3.3,0.3-7,3.6-8.3
		c3.3-1.3,7,0.3,8.3,3.6C6068.4,477.3,6067,480.9,6064,482.3 M6060,473.9c-1.4,0.7-2.1,2.4-1.4,3.8s2.4,2.1,3.8,1.4
		c1.4-0.7,2.1-2.4,1.4-3.8c-0.7-1.4-2.3-2-3.7-1.4C6060.1,473.9,6060.1,473.9,6060,473.9L6060,473.9z"/>
	<g id="Group_92500" transform="translate(6019.756 492.113)">
		<path id="Path_321473" class="st2" d="M22.4,3.8l4.1,8.3c0.3,0.6,0.8,1,1.4,1l9.2,1.3c1,0.2,1.8,1.1,1.6,2.2
			c-0.1,0.4-0.3,0.8-0.6,1.1l-6.6,6.5c-0.4,0.4-0.7,1.1-0.5,1.7l1.6,9.1c0.2,1-0.5,2-1.6,2.2c-0.4,0.1-0.8,0-1.2-0.2l-8.2-4.3
			c-0.6-0.3-1.2-0.3-1.8,0L11.7,37c-0.9,0.5-2.1,0.1-2.6-0.8c-0.2-0.4-0.3-0.8-0.2-1.2l1.6-9.1c0.1-0.6-0.1-1.3-0.6-1.7l-6.6-6.5
			c-0.8-0.7-0.8-1.9,0-2.7c0.3-0.3,0.7-0.5,1.1-0.6l9.2-1.3c0.6-0.1,1.2-0.5,1.4-1L19,3.8c0.5-0.9,1.6-1.3,2.6-0.9
			C22,3.1,22.3,3.4,22.4,3.8"/>
		<path id="Path_321474" class="st3" d="M10.8,39.9c-2.6,0-4.6-2.1-4.6-4.6c0,0,0,0,0,0c0-0.3,0-0.5,0.1-0.8l1.5-8.7l-6.3-6.2
			c-1.8-1.8-1.9-4.7-0.1-6.5c0.7-0.7,1.6-1.2,2.6-1.3l8.7-1.3l3.9-7.9C17.4,1,19,0,20.7,0h0c1.8,0,3.4,1,4.1,2.6l3.9,7.9l8.7,1.3
			c2.5,0.4,4.3,2.7,3.9,5.2c-0.1,1-0.6,1.9-1.3,2.6l-6.3,6.2l1.5,8.7c0.4,2.5-1.3,4.9-3.8,5.3c-1,0.2-2,0-2.9-0.5l-7.8-4.1l-7.8,4.1
			C12.3,39.7,11.5,39.9,10.8,39.9 M20.7,29.7c0.7,0,1.5,0.2,2.2,0.5l6.7,3.5l-1.3-7.5c-0.3-1.5,0.2-3,1.3-4.1l5.5-5.3l-7.5-1.1
			c-1.5-0.2-2.8-1.2-3.5-2.5l-3.4-6.8l-3.4,6.8c-0.7,1.4-2,2.3-3.5,2.5l-7.6,1.1l5.5,5.3c1.1,1.1,1.6,2.6,1.3,4.1l-1.3,7.5l6.8-3.5
			C19.3,29.9,20,29.7,20.7,29.7L20.7,29.7z"/>
	</g>
</g>
</svg>
