<?xml version="1.0" encoding="utf-8"?>
<!-- Generator: Adobe Illustrator 26.5.0, SVG Export Plug-In . SVG Version: 6.00 Build 0)  -->
<svg version="1.1" id="Layer_1" xmlns="http://www.w3.org/2000/svg" xmlns:xlink="http://www.w3.org/1999/xlink" x="0px" y="0px"
	 viewBox="0 0 200 116" style="enable-background:new 0 0 200 116;" xml:space="preserve">
<style type="text/css">
	.st0{fill:#FFFFFF;}
	.st1{fill:#3AA2FF;}
</style>
<g id="Group_92795" transform="translate(11 9)">
	<path id="Path_321452" class="st0" d="M39.1,87.7h79.6c1.6,0,2.9-1.3,2.9-2.9c0-0.1,0-0.3,0-0.4c-0.7-5.5,1-9.9,4.9-12.3
		c4-2.5,9.1-2.5,13.2,0c3.6,2.4,5.2,6.8,4.3,12.2c-0.2,1.6,0.8,3,2.4,3.3c0.1,0,0.3,0,0.4,0h28.7c1.6,0,2.9-1.3,2.9-2.9v0V73.6
		c0-1.6-1.3-2.9-2.9-2.9l0,0h-28.7c-0.1,0-0.2,0-0.3,0c-1-1.3-2.3-2.4-3.7-3.4c-5.9-3.8-13.4-3.8-19.4-0.1c-5,3.1-7.7,8.4-7.7,14.7
		H41.9c-1.2-11.3-9.2-17.2-17.1-17.2c-4.3,0-8.5,1.8-11.4,4.9c-3.3,3.5-5,8.4-5,14.2c0,1.6,1.3,2.9,2.9,2.9s2.9-1.3,2.9-2.9
		c0-4.3,1.2-7.9,3.4-10.3c5.7-6.1,18.7-3.6,18.7,11.2C36.3,86.4,37.6,87.7,39.1,87.7 M172.7,82h-22.8c0-1.9-0.2-3.7-0.6-5.5h23.4
		L172.7,82z"/>
	<path id="Path_321453" class="st1" d="M132.9,67.2c-7.7,0-13.9,6.2-13.9,13.9c0,7.7,6.2,13.9,13.9,13.9s13.9-6.2,13.9-13.9
		c0,0,0,0,0,0C146.7,73.4,140.5,67.2,132.9,67.2L132.9,67.2"/>
	<path id="Path_321454" class="st0" d="M132.9,97.9c9.2,0,16.7-7.5,16.7-16.7c0-9.2-7.5-16.7-16.7-16.7c-9.2,0-16.7,7.5-16.7,16.7
		C116.1,90.4,123.6,97.9,132.9,97.9L132.9,97.9 M132.9,70.1c6.1,0,11,4.9,11,11c0,6.1-4.9,11-11,11c-6.1,0-11-4.9-11-11
		S126.8,70.1,132.9,70.1L132.9,70.1z"/>
	<path id="Path_321455" class="st1" d="M24.9,67.2c-7.7,0-13.9,6.2-13.9,13.9C11,88.8,17.2,95,24.9,95s13.9-6.2,13.9-13.9
		C38.8,73.4,32.6,67.2,24.9,67.2L24.9,67.2"/>
	<path id="Path_321456" class="st0" d="M24.9,97.9c9.2,0,16.7-7.5,16.7-16.7s-7.5-16.7-16.7-16.7c-9.2,0-16.7,7.5-16.7,16.7
		c0,0,0,0,0,0C8.1,90.4,15.6,97.9,24.9,97.9 M24.9,70.1c6.1,0,11,4.9,11,11c0,6.1-4.9,11-11,11c-6.1,0-11-4.9-11-11c0,0,0,0,0,0
		C13.9,75,18.8,70.1,24.9,70.1L24.9,70.1L24.9,70.1z"/>
	<path id="Path_321457" class="st0" d="M157.5,53.7c1.6,0,2.9-1.3,2.9-2.9c0-0.8-0.3-1.5-0.8-2l-17.1-17.1c-0.6-0.5-1.3-0.8-2.1-0.8
		L123.9,31c-1.6,0-2.8,1.3-2.8,2.8l-0.1,16.6c0,1.6,1.2,2.9,2.8,2.9l0,0L157.5,53.7L157.5,53.7z M139.2,36.6l11.3,11.3l-23.8-0.2
		l0.1-11L139.2,36.6z"/>
	<path id="Path_321458" class="st0" d="M36.5,76.5h79.6c1.6,0,2.9-1.3,2.9-2.9c0-1.6-1.3-2.9-2.9-2.9c0,0,0,0,0,0H36.5
		c-1.6,0-2.9,1.3-2.9,2.9C33.6,75.2,34.9,76.5,36.5,76.5C36.5,76.5,36.5,76.5,36.5,76.5"/>
	<path id="Path_321459" class="st0" d="M2.9,75.4H14c1.6,0,2.9-1.2,2.9-2.8s-1.2-2.9-2.8-2.9H5.7V5.7h107.9V23
		c0,1.6,1.2,2.9,2.8,2.9c1.6,0,2.9-1.2,2.9-2.8l0,0c0,0,0-0.1,0-0.1V2.9c0-1.6-1.3-2.9-2.9-2.9H2.9C1.3,0,0,1.3,0,2.9v69.6
		C0,74.1,1.3,75.4,2.9,75.4"/>
	<path id="Path_321460" class="st0" d="M2.9,43.8h65.2c1.6,0,2.9-1.3,2.9-2.9c0-1.6-1.3-2.9-2.9-2.9H2.9C1.3,38,0,39.3,0,40.9
		C0,42.5,1.3,43.8,2.9,43.8"/>
	<path id="Path_321461" class="st0" d="M3.3,54.4h47.3c1.6,0,2.9-1.2,2.9-2.8c0-1.6-1.2-2.9-2.8-2.9H3.3c-1.6,0-2.9,1.3-2.9,2.9
		C0.4,53.1,1.7,54.4,3.3,54.4"/>
	<path id="Path_321462" class="st0" d="M113.6,73.6h5.7V28.3h22.3l28.8,28.8v16.5h5.7V54.7l-32.1-32.2h-30.4V73.6z"/>
</g>
</svg>
